<?xml version="1.0" encoding="UTF-8" standalone="no"?>
<svg width="83px" height="69px" viewBox="0 0 83 69" version="1.1" xmlns="http://www.w3.org/2000/svg" xmlns:xlink="http://www.w3.org/1999/xlink" xmlns:sketch="http://www.bohemiancoding.com/sketch/ns">
    <!-- Generator: Sketch 3.3.3 (12081) - http://www.bohemiancoding.com/sketch -->
    <title>banana</title>
    <desc>Created with Sketch.</desc>
    <defs></defs>
    <g id="Page-1" stroke="none" stroke-width="1" fill="none" fill-rule="evenodd" sketch:type="MSPage">
        <g id="banana" sketch:type="MSLayerGroup">
            <path d="M77.553,15.722 C79.263,18.997 80.667,22.375 81.047,26.097 C79.916,27.923 78.594,29.659 77.685,31.59 C68.721,50.644 36.754,68.985 11.578,59.016 C9.765,58.297 7.842,57.447 5.864,58.692 C4.791,57.813 3.715,56.932 2.639,56.051 C2.724,53.505 4.43,51.81 5.838,49.96 C9.906,49.886 13.974,49.81 18.041,49.735 C20.025,49.737 22.01,49.738 23.994,49.739 C31.091,50.121 37.848,48.917 44.116,45.432 C54.248,40.702 62.685,34.287 66.31,23.093 C67.262,21.416 68.213,19.738 69.165,18.061 C72.888,20.605 74.967,17.256 77.553,15.722" id="Fill-1" fill="#EBD65D" sketch:type="MSShapeGroup"></path>
            <path d="M5.861,58.691 C7.842,57.447 9.765,58.297 11.578,59.016 C36.754,68.985 68.721,50.644 77.685,31.59 C78.594,29.659 79.916,27.923 81.047,26.097 C84.224,36.168 80.511,47.334 70.674,55.121 C53.662,68.586 34.926,71.874 14.537,63.601 C13,62.977 11.465,62.345 9.932,61.718 C8.956,61.133 7.979,60.546 7.002,59.959 C6.623,59.536 6.242,59.113 5.861,58.691" id="Fill-2" fill="#DBBD38" sketch:type="MSShapeGroup"></path>
            <path d="M73.879,0.544 C74.261,1.335 74.643,2.126 75.023,2.915 C74.029,7.547 76.021,11.591 77.553,15.724 C74.967,17.256 72.888,20.605 69.165,18.06 C70.916,13.137 69.991,8.098 69.816,3.092 C70.359,0.949 71.735,0.134 73.879,0.544" id="Fill-3" fill="#ABAC42" sketch:type="MSShapeGroup"></path>
            <path d="M2.639,56.051 C1.988,55.375 1.338,54.699 0.686,54.022 C1.109,52.065 2.315,50.724 4.027,49.78 C4.631,49.839 5.235,49.9 5.839,49.96 C4.43,51.81 2.724,53.505 2.639,56.051" id="Fill-4" fill="#7D563A" sketch:type="MSShapeGroup"></path>
        </g>
    </g>
</svg>