<?xml version="1.0" encoding="UTF-8" standalone="no"?>
<svg width="15px" height="19px" viewBox="0 0 15 19" version="1.1" xmlns="http://www.w3.org/2000/svg" xmlns:xlink="http://www.w3.org/1999/xlink" xmlns:sketch="http://www.bohemiancoding.com/sketch/ns">
    <!-- Generator: Sketch 3.3.3 (12081) - http://www.bohemiancoding.com/sketch -->
    <title>butterfly_divider</title>
    <desc>Created with Sketch.</desc>
    <defs></defs>
    <g id="Page-1" stroke="none" stroke-width="1" fill="none" fill-rule="evenodd" sketch:type="MSPage">
        <path d="M7.457,18.284761 C7.18,18.284761 6.956,18.060761 6.956,17.784761 L6.956,13.017761 L0.7,15.742761 C0.546,15.809761 0.367,15.794761 0.226,15.702761 C0.085,15.609761 0,15.452761 0,15.284761 L0,5.27376103 C0,5.12176103 0.068,4.97876103 0.186,4.88476103 C0.304,4.78976103 0.459,4.75376103 0.606,4.78476103 L6.956,6.16376103 L6.956,5.06376103 L4.036,0.78276103 C3.88,0.55476103 3.939,0.24276103 4.167,0.0877610296 C4.395,-0.0672389704 4.707,-0.00923897043 4.862,0.21876103 L7.444,4.00376103 L9.871,0.22976103 C10.02,-0.00223897043 10.329,-0.0702389704 10.562,0.0797610296 C10.793,0.22976103 10.861,0.53876103 10.711,0.77076103 L7.956,5.05576103 L7.956,6.16376103 L14.307,4.78476103 C14.454,4.75376103 14.608,4.78976103 14.727,4.88476103 C14.845,4.97876103 14.913,5.12176103 14.913,5.27376103 L14.913,15.284761 C14.913,15.452761 14.828,15.609761 14.687,15.702761 C14.546,15.794761 14.367,15.809761 14.214,15.742761 L7.956,13.017761 L7.956,17.784761 C7.956,18.060761 7.733,18.284761 7.457,18.284761 L7.457,18.284761 Z M7.658,11.797761 L13.913,14.520761 L13.913,5.89376103 L7.564,7.27276103 C7.552,7.27476103 7.541,7.27776103 7.53,7.27876103 C7.527,7.27976103 7.525,7.28076103 7.524,7.27976103 L7.523,7.27976103 C7.522,7.27976103 7.521,7.28076103 7.52,7.28076103 L7.518,7.28076103 L7.515,7.28076103 L7.513,7.28076103 C7.513,7.28176103 7.512,7.28176103 7.512,7.28176103 L7.511,7.28176103 L7.51,7.28176103 C7.51,7.28176103 7.509,7.28076103 7.508,7.28176103 L7.504,7.28176103 C7.504,7.28176103 7.503,7.28176103 7.503,7.28276103 L7.499,7.28276103 L7.498,7.28276103 L7.497,7.28276103 C7.497,7.28276103 7.497,7.28276103 7.496,7.28276103 L7.494,7.28276103 C7.494,7.28276103 7.494,7.28276103 7.493,7.28276103 L7.492,7.28276103 L7.491,7.28276103 L7.487,7.28276103 L7.48,7.28376103 L7.479,7.28376103 L7.477,7.28376103 L7.475,7.28376103 C7.475,7.28376103 7.475,7.28376103 7.474,7.28376103 L7.473,7.28376103 C7.472,7.28376103 7.473,7.28376103 7.471,7.28476103 L7.468,7.28476103 L7.457,7.28476103 L7.455,7.28476103 L7.453,7.28476103 L7.452,7.28476103 C7.452,7.28476103 7.452,7.28476103 7.451,7.28476103 C7.451,7.28476103 7.451,7.28476103 7.45,7.28476103 C7.45,7.28476103 7.45,7.28476103 7.449,7.28476103 L7.448,7.28476103 L7.447,7.28476103 L7.442,7.28476103 C7.441,7.28376103 7.44,7.28376103 7.44,7.28376103 C7.439,7.28476103 7.437,7.28376103 7.434,7.28376103 L7.433,7.28376103 C7.431,7.28376103 7.43,7.28376103 7.429,7.28276103 L7.428,7.28276103 L7.427,7.28276103 L7.426,7.28276103 L7.422,7.28276103 L7.419,7.28276103 C7.418,7.28276103 7.415,7.28176103 7.416,7.28276103 L7.415,7.28276103 L7.414,7.28276103 C7.414,7.28276103 7.414,7.28276103 7.413,7.28276103 L7.411,7.28276103 L7.41,7.28276103 C7.41,7.28276103 7.41,7.28276103 7.409,7.28176103 L7.408,7.28176103 C7.408,7.28176103 7.408,7.28176103 7.407,7.28176103 L7.406,7.28176103 L7.404,7.28176103 L7.401,7.28176103 L7.4,7.28076103 L7.397,7.28076103 L7.395,7.28076103 C7.379,7.27876103 7.364,7.27576103 7.349,7.27276103 L1,5.89376103 L1,14.520761 L7.255,11.796761 C7.268,11.791761 7.28,11.786761 7.293,11.782761 L7.295,11.781761 C7.347,11.763761 7.401,11.755761 7.454,11.754761 L7.455,11.754761 L7.457,11.754761 L7.459,11.754761 C7.509,11.754761 7.56,11.762761 7.608,11.778761 L7.61,11.778761 L7.61,11.779761 L7.612,11.779761 C7.628,11.784761 7.643,11.790761 7.658,11.797761 L7.658,11.797761 Z" id="butterfly_divider" fill="#9E9F9E" sketch:type="MSShapeGroup"></path>
    </g>
</svg>