<?xml version="1.0" encoding="UTF-8" standalone="no"?>
<svg width="399px" height="264px" viewBox="0 0 399 264" version="1.1" xmlns="http://www.w3.org/2000/svg" xmlns:xlink="http://www.w3.org/1999/xlink" xmlns:sketch="http://www.bohemiancoding.com/sketch/ns">
    <!-- Generator: Sketch 3.3.3 (12081) - http://www.bohemiancoding.com/sketch -->
    <title>calendar_book</title>
    <desc>Created with Sketch.</desc>
    <defs></defs>
    <g id="Page-1" stroke="none" stroke-width="1" fill="none" fill-rule="evenodd" sketch:type="MSPage">
        <g id="calendar_book" sketch:type="MSLayerGroup" transform="translate(0.000000, 5.000000)">
            <path d="M371.767,1.685 L371.503,2.597 C370.819,2.284 370.304,2.152 369.729,2.152 C368.828,2.152 368.253,2.572 368.253,3.292 C368.253,3.892 368.625,4.227 369.512,4.503 L370.268,4.743 C371.635,5.175 372.15,5.954 372.15,6.878 C372.15,8.197 371.035,9.037 369.512,9.037 C368.744,9.037 367.941,8.917 367.161,8.557 L367.426,7.657 C368.109,7.993 368.744,8.149 369.464,8.149 C370.328,8.149 371.023,7.741 371.023,6.962 C371.023,6.386 370.711,5.967 369.596,5.618 L368.84,5.379 C367.749,5.031 367.125,4.455 367.125,3.424 C367.125,2.104 368.025,1.265 369.68,1.265 C370.412,1.265 371.107,1.373 371.767,1.685" id="Fill-1" fill="#1A1918" sketch:type="MSShapeGroup"></path>
            <path d="M373.533,3.796 C374.289,3.399 374.84,3.208 375.668,3.208 C376.916,3.208 377.791,3.699 377.791,5.259 L377.791,8.929 L376.916,8.929 L376.783,8.305 L376.76,8.305 C376.268,8.833 375.668,9.037 374.961,9.037 C373.881,9.037 373.09,8.413 373.09,7.418 C373.09,6.23 374.109,5.606 375.645,5.606 L376.724,5.606 L376.724,5.127 C376.724,4.311 376.268,4.071 375.572,4.071 C375.164,4.071 374.625,4.18 373.941,4.564 L373.533,3.796 L373.533,3.796 Z M376.735,6.326 L375.848,6.351 C374.648,6.386 374.193,6.817 374.193,7.382 C374.193,8.065 374.673,8.257 375.213,8.257 C375.74,8.257 376.316,8.018 376.735,7.477 L376.735,6.326 L376.735,6.326 Z" id="Fill-2" fill="#1A1918" sketch:type="MSShapeGroup"></path>
            <path d="M78.869,1.685 L78.606,2.597 C77.922,2.284 77.406,2.152 76.831,2.152 C75.931,2.152 75.355,2.572 75.355,3.292 C75.355,3.892 75.727,4.227 76.615,4.503 L77.37,4.743 C78.737,5.175 79.253,5.954 79.253,6.878 C79.253,8.197 78.138,9.037 76.615,9.037 C75.847,9.037 75.044,8.917 74.264,8.557 L74.528,7.657 C75.211,7.993 75.847,8.149 76.566,8.149 C77.43,8.149 78.126,7.741 78.126,6.962 C78.126,6.386 77.814,5.967 76.699,5.618 L75.943,5.379 C74.852,5.031 74.228,4.455 74.228,3.424 C74.228,2.104 75.127,1.265 76.783,1.265 C77.514,1.265 78.21,1.373 78.869,1.685" id="Fill-3" fill="#1A1918" sketch:type="MSShapeGroup"></path>
            <path d="M84.354,3.292 L85.409,3.292 L85.409,8.929 L84.582,8.929 L84.437,8.221 L84.39,8.221 C83.97,8.677 83.358,9.037 82.543,9.037 C81.379,9.037 80.576,8.365 80.576,7.034 L80.576,3.292 L81.631,3.292 L81.631,6.901 C81.631,7.873 82.135,8.197 82.759,8.197 C83.394,8.197 83.898,7.909 84.354,7.43 L84.354,3.292" id="Fill-4" fill="#1A1918" sketch:type="MSShapeGroup"></path>
            <path d="M326.282,1.373 L326.282,2.284 L322.948,2.284 L322.948,4.731 L326.019,4.731 L326.019,5.631 L322.948,5.631 L322.948,8.929 L321.845,8.929 L321.845,1.373 L326.282,1.373" id="Fill-5" fill="#1A1918" sketch:type="MSShapeGroup"></path>
            <path d="M274.684,1.373 L274.684,2.309 L272.321,2.309 L272.321,8.929 L271.218,8.929 L271.218,2.309 L268.903,2.309 L268.903,1.373 L274.684,1.373" id="Fill-6" fill="#1A1918" sketch:type="MSShapeGroup"></path>
            <path d="M276.678,8.929 L275.623,8.929 L275.623,0.413 L276.678,0.413 L276.678,4.012 C277.205,3.556 277.842,3.208 278.609,3.208 C279.855,3.208 280.443,3.999 280.443,5.043 L280.443,8.929 L279.389,8.929 L279.389,5.307 C279.389,4.443 279.029,4.071 278.32,4.071 C277.781,4.071 277.218,4.359 276.678,4.851 L276.678,8.929" id="Fill-7" fill="#1A1918" sketch:type="MSShapeGroup"></path>
            <path d="M222.332,1.373 L223.615,5.822 C223.735,6.218 223.939,7.046 224.012,7.609 L224.035,7.609 C224.131,7.046 224.335,6.23 224.455,5.822 L225.774,1.373 L226.758,1.373 L228.125,5.822 C228.245,6.23 228.437,7.022 228.533,7.609 L228.557,7.609 C228.664,7.01 228.856,6.194 228.965,5.822 L230.199,1.373 L231.315,1.373 L229.097,8.929 L227.98,8.929 L226.83,4.911 C226.602,4.096 226.434,3.567 226.254,2.836 L226.23,2.836 C226.074,3.556 225.858,4.299 225.69,4.911 L224.575,8.929 L223.472,8.929 L221.205,1.373 L222.332,1.373" id="Fill-8" fill="#1A1918" sketch:type="MSShapeGroup"></path>
            <path d="M177.158,1.373 L177.158,2.309 L174.795,2.309 L174.795,8.929 L173.691,8.929 L173.691,2.309 L171.377,2.309 L171.377,1.373 L177.158,1.373" id="Fill-9" fill="#1A1918" sketch:type="MSShapeGroup"></path>
            <path d="M181.862,3.292 L182.917,3.292 L182.917,8.929 L182.09,8.929 L181.946,8.221 L181.898,8.221 C181.478,8.677 180.867,9.037 180.051,9.037 C178.888,9.037 178.084,8.365 178.084,7.034 L178.084,3.292 L179.14,3.292 L179.14,6.901 C179.14,7.873 179.643,8.197 180.267,8.197 C180.902,8.197 181.406,7.909 181.862,7.43 L181.862,3.292" id="Fill-10" fill="#1A1918" sketch:type="MSShapeGroup"></path>
            <path d="M125.268,1.373 L126.706,1.373 L128.29,6.194 C128.446,6.662 128.59,7.094 128.722,7.537 L128.746,7.537 C128.877,7.094 129.009,6.71 129.177,6.194 L130.725,1.373 L132.164,1.373 L132.823,8.929 L131.72,8.929 L131.408,4.923 C131.348,4.144 131.312,3.364 131.288,2.572 L131.264,2.572 C131.048,3.352 130.809,4.144 130.557,4.923 L129.225,8.929 L128.218,8.929 L126.887,4.911 C126.623,4.096 126.395,3.388 126.179,2.572 L126.155,2.572 C126.119,3.352 126.059,4.144 125.999,4.923 L125.711,8.929 L124.632,8.929 L125.268,1.373" id="Fill-11" fill="#1A1918" sketch:type="MSShapeGroup"></path>
            <path d="M56.248,15.028 L395.978,15.028 L395.978,173.11 L56.248,173.11 L56.248,15.028 Z" id="Fill-12" fill="#2C3947" sketch:type="MSShapeGroup"></path>
            <path d="M348.192,175.441 L299.386,175.441 C298.815,175.441 298.352,174.919 298.352,174.275 L298.352,15.028 L251.598,15.028 L251.598,174.275 C251.598,174.919 251.135,175.441 250.564,175.441 L201.662,175.441 C201.092,175.441 200.63,174.919 200.63,174.275 L200.63,13.863 C200.63,13.22 201.092,12.697 201.662,12.697 C202.233,12.697 202.695,13.22 202.695,13.863 L202.695,173.11 L249.531,173.11 L249.531,13.863 C249.531,13.22 249.994,12.697 250.564,12.697 L299.386,12.697 C299.954,12.697 300.418,13.22 300.418,13.863 L300.418,173.11 L347.158,173.11 L347.158,13.863 C347.158,13.22 347.621,12.697 348.192,12.697 C348.762,12.697 349.225,13.22 349.225,13.863 L349.225,174.275 C349.225,174.919 348.762,175.441 348.192,175.441" id="Fill-13" fill="#415460" sketch:type="MSShapeGroup"></path>
            <path d="M397.011,175.441 L55.216,175.441 C54.646,175.441 54.183,174.919 54.183,174.275 L54.183,13.863 C54.183,13.22 54.646,12.697 55.216,12.697 L397.011,12.697 C397.582,12.697 398.043,13.22 398.043,13.863 L398.043,174.275 C398.043,174.919 397.582,175.441 397.011,175.441 L397.011,175.441 Z M153.874,173.11 L395.978,173.11 L395.978,135.342 L153.874,135.342 L153.874,173.11 Z M105.068,173.11 L151.81,173.11 L151.81,135.342 L105.068,135.342 L105.068,173.11 Z M56.248,173.11 L103.003,173.11 L103.003,135.342 L56.248,135.342 L56.248,173.11 Z M153.874,133.011 L395.978,133.011 L395.978,95.259 L153.874,95.259 L153.874,133.011 Z M105.068,133.011 L151.81,133.011 L151.81,95.259 L105.068,95.259 L105.068,133.011 Z M56.248,133.011 L103.003,133.011 L103.003,95.259 L56.248,95.259 L56.248,133.011 Z M153.874,92.927 L395.978,92.927 L395.978,55.113 L153.874,55.113 L153.874,92.927 Z M105.068,92.927 L151.81,92.927 L151.81,55.113 L105.068,55.113 L105.068,92.927 Z M56.248,92.927 L103.003,92.927 L103.003,55.113 L56.248,55.113 L56.248,92.927 Z M153.874,52.781 L395.978,52.781 L395.978,15.028 L153.874,15.028 L153.874,52.781 Z M105.068,52.781 L151.81,52.781 L151.81,15.028 L105.068,15.028 L105.068,52.781 Z M56.248,52.781 L103.003,52.781 L103.003,15.028 L56.248,15.028 L56.248,52.781 Z" id="Fill-14" fill="#415460" sketch:type="MSShapeGroup"></path>
            <path d="M126.038,66.384 C126.038,71.491 121.897,75.632 116.79,75.632 C111.682,75.632 107.542,71.491 107.542,66.384 C107.542,61.276 111.682,57.136 116.79,57.136 C121.897,57.136 126.038,61.276 126.038,66.384" id="Fill-15" fill="#4F84B7" sketch:type="MSShapeGroup"></path>
            <path d="M113.706,71.023 L114.065,69.807 C114.545,70.013 115.008,70.219 115.898,70.219 C117.903,70.219 118.862,68.917 118.931,66.501 C118.365,67.17 117.424,67.58 116.463,67.58 C114.527,67.58 113.072,66.314 113.072,64.067 C113.072,61.808 114.614,60.334 116.79,60.334 C118.742,60.334 120.508,61.773 120.508,65.439 C120.508,69.861 118.538,71.435 115.95,71.435 C114.922,71.435 114.219,71.265 113.706,71.023 L113.706,71.023 Z M116.652,61.498 C115.334,61.498 114.58,62.493 114.58,63.947 C114.58,65.56 115.419,66.382 116.773,66.382 C117.715,66.382 118.4,65.901 118.76,65.269 C118.896,65.01 118.931,64.805 118.931,64.564 C118.931,62.936 118.04,61.498 116.652,61.498 L116.652,61.498 Z" id="Fill-16" fill="#FFFFFF" sketch:type="MSShapeGroup"></path>
            <path d="M174.996,66.384 C174.996,71.491 170.855,75.632 165.748,75.632 C160.641,75.632 156.5,71.491 156.5,66.384 C156.5,61.276 160.641,57.136 165.748,57.136 C170.855,57.136 174.996,61.276 174.996,66.384" id="Fill-17" fill="#52A4A0" sketch:type="MSShapeGroup"></path>
            <path d="M161.188,60.487 L162.285,60.487 L162.285,71.281 L160.813,71.281 L160.813,62.065 L158.875,62.955 L158.533,61.704 L161.188,60.487" id="Fill-18" fill="#FFFFFF" sketch:type="MSShapeGroup"></path>
            <path d="M172.963,65.885 C172.963,69.824 170.992,71.435 168.766,71.435 C166.367,71.435 164.568,69.824 164.568,65.885 C164.568,62.114 166.539,60.334 168.766,60.334 C171.165,60.334 172.963,61.944 172.963,65.885 L172.963,65.885 Z M168.782,70.253 C170.153,70.253 171.387,69.311 171.387,65.885 C171.387,62.304 170.12,61.516 168.749,61.516 C167.378,61.516 166.145,62.459 166.145,65.885 C166.145,69.481 167.412,70.253 168.782,70.253 L168.782,70.253 Z" id="Fill-19" fill="#FFFFFF" sketch:type="MSShapeGroup"></path>
            <path d="M223.955,66.384 C223.955,71.491 219.814,75.632 214.707,75.632 C209.6,75.632 205.459,71.491 205.459,66.384 C205.459,61.276 209.6,57.136 214.707,57.136 C219.814,57.136 223.955,61.276 223.955,66.384" id="Fill-20" fill="#545594" sketch:type="MSShapeGroup"></path>
            <path d="M212.041,60.682 L213.137,60.682 L213.137,71.476 L211.665,71.476 L211.665,62.258 L209.73,63.149 L209.389,61.898 L212.041,60.682" id="Fill-21" fill="#FFFFFF" sketch:type="MSShapeGroup"></path>
            <path d="M218.283,60.682 L219.379,60.682 L219.379,71.476 L217.906,71.476 L217.906,62.258 L215.971,63.149 L215.629,61.898 L218.283,60.682" id="Fill-22" fill="#FFFFFF" sketch:type="MSShapeGroup"></path>
            <path d="M272.913,66.384 C272.913,71.491 268.773,75.632 263.665,75.632 C258.558,75.632 254.417,71.491 254.417,66.384 C254.417,61.276 258.558,57.136 263.665,57.136 C268.773,57.136 272.913,61.276 272.913,66.384" id="Fill-23" fill="#4F84B7" sketch:type="MSShapeGroup"></path>
            <path d="M259.901,60.508 L260.998,60.508 L260.998,71.303 L259.526,71.303 L259.526,62.085 L257.588,62.977 L257.248,61.726 L259.901,60.508" id="Fill-24" fill="#FFFFFF" sketch:type="MSShapeGroup"></path>
            <path d="M264.242,62.427 L263.574,61.419 C264.585,60.563 265.526,60.356 266.382,60.356 C268.747,60.356 269.827,61.744 269.827,63.561 C269.827,65.223 268.422,66.918 266.193,69.076 L265.183,70.053 L270.082,70.053 L270.082,71.303 L263.591,71.303 L263.316,70.224 L264.738,68.802 C267.256,66.282 268.285,64.965 268.285,63.61 C268.285,62.445 267.651,61.589 266.382,61.589 C265.648,61.589 265.029,61.811 264.242,62.427" id="Fill-25" fill="#FFFFFF" sketch:type="MSShapeGroup"></path>
            <path d="M321.872,66.384 C321.872,71.491 317.731,75.632 312.624,75.632 C307.517,75.632 303.376,71.491 303.376,66.384 C303.376,61.276 307.517,57.136 312.624,57.136 C317.731,57.136 321.872,61.276 321.872,66.384" id="Fill-26" fill="#52A4A0" sketch:type="MSShapeGroup"></path>
            <path d="M308.972,60.487 L310.067,60.487 L310.067,71.281 L308.596,71.281 L308.596,62.065 L306.658,62.955 L306.317,61.704 L308.972,60.487" id="Fill-27" fill="#FFFFFF" sketch:type="MSShapeGroup"></path>
            <path d="M312.523,61.14 C313.414,60.557 314.424,60.334 315.283,60.334 C317.218,60.334 318.556,61.498 318.556,63.092 C318.556,64.429 317.749,65.354 316.755,65.711 C318.006,65.986 318.93,66.98 318.93,68.282 C318.93,70.596 316.943,71.435 315.042,71.435 C314.099,71.435 313.055,71.248 312.335,70.903 L312.679,69.739 C313.466,70.031 313.996,70.219 315.024,70.219 C316.172,70.219 317.354,69.687 317.354,68.249 C317.354,66.947 316.343,66.382 314.991,66.382 L313.704,66.382 L313.704,65.217 L314.698,65.217 C316.018,65.217 317.012,64.582 317.012,63.265 C317.012,62.304 316.207,61.533 315.161,61.533 C314.424,61.533 313.877,61.687 313.003,62.184 L312.523,61.14" id="Fill-28" fill="#FFFFFF" sketch:type="MSShapeGroup"></path>
            <path d="M370.83,66.384 C370.83,71.491 366.69,75.632 361.582,75.632 C356.475,75.632 352.334,71.491 352.334,66.384 C352.334,61.276 356.475,57.136 361.582,57.136 C366.69,57.136 370.83,61.276 370.83,66.384" id="Fill-29" fill="#545594" sketch:type="MSShapeGroup"></path>
            <path d="M357.296,60.487 L358.392,60.487 L358.392,71.281 L356.92,71.281 L356.92,62.065 L354.982,62.955 L354.642,61.704 L357.296,60.487" id="Fill-30" fill="#FFFFFF" sketch:type="MSShapeGroup"></path>
            <path d="M365.474,60.487 L366.826,60.487 L366.826,67.29 L368.523,67.29 L368.523,68.541 L366.826,68.541 L366.826,71.281 L365.422,71.281 L365.422,68.541 L360.281,68.541 L360.281,67.597 L365.474,60.487 L365.474,60.487 Z M361.978,67.29 L365.422,67.29 L365.422,64.308 L365.507,62.149 L365.474,62.149 L364.633,63.606 L361.978,67.29 L361.978,67.29 Z" id="Fill-31" fill="#FFFFFF" sketch:type="MSShapeGroup"></path>
            <path d="M77.079,66.384 C77.079,71.491 72.939,75.632 67.831,75.632 C62.724,75.632 58.583,71.491 58.583,66.384 C58.583,61.276 62.724,57.136 67.831,57.136 C72.939,57.136 77.079,61.276 77.079,66.384" id="Fill-32" fill="#545594" sketch:type="MSShapeGroup"></path>
            <path d="M71.231,63.024 C71.231,64.032 70.564,65.028 69.176,65.576 C70.753,66.227 71.505,67.032 71.505,68.367 C71.505,70.355 69.948,71.435 67.857,71.435 C65.802,71.435 64.157,70.321 64.157,68.507 C64.157,67.102 64.858,66.364 66.384,65.696 C65.218,65.165 64.517,64.291 64.517,63.177 C64.517,61.671 65.613,60.334 67.857,60.334 C70.083,60.334 71.231,61.619 71.231,63.024 L71.231,63.024 Z M65.681,68.452 C65.681,69.415 66.401,70.27 67.857,70.27 C69.193,70.27 69.999,69.415 69.999,68.452 C69.999,67.29 69.004,66.622 67.721,66.242 C66.52,66.639 65.681,67.238 65.681,68.452 L65.681,68.452 Z M67.908,65.061 C68.953,64.652 69.793,64.051 69.793,63.059 C69.793,62.098 68.919,61.465 67.857,61.465 C66.588,61.465 65.938,62.254 65.938,63.092 C65.938,64.154 66.862,64.686 67.908,65.061 L67.908,65.061 Z" id="Fill-33" fill="#FFFFFF" sketch:type="MSShapeGroup"></path>
            <path d="M126.038,106.276 C126.038,111.384 121.897,115.524 116.79,115.524 C111.682,115.524 107.542,111.384 107.542,106.276 C107.542,101.169 111.682,97.028 116.79,97.028 C121.897,97.028 126.038,101.169 126.038,106.276" id="Fill-34" fill="#545594" sketch:type="MSShapeGroup"></path>
            <path d="M112.606,100.38 L113.703,100.38 L113.703,111.174 L112.23,111.174 L112.23,101.957 L110.294,102.846 L109.952,101.597 L112.606,100.38" id="Fill-35" fill="#FFFFFF" sketch:type="MSShapeGroup"></path>
            <path d="M122.721,100.569 L122.36,101.787 C121.88,101.58 121.332,101.442 120.699,101.442 C118.694,101.442 117.667,103.001 117.597,105.246 C118.231,104.439 119.191,104.082 120.15,104.082 C122.086,104.082 123.627,105.351 123.627,107.594 C123.627,109.855 122.034,111.327 119.859,111.327 C117.905,111.327 116.022,109.889 116.022,106.224 C116.022,101.804 118.231,100.227 120.647,100.227 C121.435,100.227 122.086,100.329 122.721,100.569 L122.721,100.569 Z M119.91,110.162 C121.23,110.162 122.12,109.084 122.12,107.627 C122.12,106.017 121.212,105.28 119.859,105.28 C118.848,105.28 118.128,105.846 117.768,106.48 C117.631,106.737 117.597,106.994 117.597,107.232 C117.597,108.859 118.523,110.162 119.91,110.162 L119.91,110.162 Z" id="Fill-36" fill="#FFFFFF" sketch:type="MSShapeGroup"></path>
            <path d="M174.996,106.276 C174.996,111.384 170.855,115.524 165.748,115.524 C160.641,115.524 156.5,111.384 156.5,106.276 C156.5,101.169 160.641,97.028 165.748,97.028 C170.855,97.028 174.996,101.169 174.996,106.276" id="Fill-37" fill="#4F84B7" sketch:type="MSShapeGroup"></path>
            <path d="M161.908,100.336 L163.005,100.336 L163.005,111.13 L161.533,111.13 L161.533,101.912 L159.594,102.804 L159.252,101.553 L161.908,100.336" id="Fill-38" fill="#FFFFFF" sketch:type="MSShapeGroup"></path>
            <path d="M172.245,100.336 L172.245,101.398 L167.584,111.439 L166.298,110.872 L170.736,101.586 L165.527,101.586 L165.527,100.336 L172.245,100.336" id="Fill-39" fill="#FFFFFF" sketch:type="MSShapeGroup"></path>
            <path d="M223.955,106.276 C223.955,111.384 219.814,115.524 214.707,115.524 C209.6,115.524 205.459,111.384 205.459,106.276 C205.459,101.169 209.6,97.028 214.707,97.028 C219.814,97.028 223.955,101.169 223.955,106.276" id="Fill-40" fill="#52A4A0" sketch:type="MSShapeGroup"></path>
            <path d="M210.712,100.574 L211.808,100.574 L211.808,111.368 L210.336,111.368 L210.336,102.151 L208.4,103.04 L208.059,101.791 L210.712,100.574" id="Fill-41" fill="#FFFFFF" sketch:type="MSShapeGroup"></path>
            <path d="M221.082,103.11 C221.082,104.121 220.414,105.115 219.026,105.663 C220.604,106.312 221.355,107.119 221.355,108.456 C221.355,110.441 219.797,111.522 217.707,111.522 C215.652,111.522 214.008,110.408 214.008,108.593 C214.008,107.189 214.71,106.452 216.233,105.781 C215.068,105.25 214.367,104.378 214.367,103.265 C214.367,101.758 215.463,100.421 217.707,100.421 C219.934,100.421 221.082,101.706 221.082,103.11 L221.082,103.11 Z M215.531,108.541 C215.531,109.5 216.252,110.356 217.707,110.356 C219.045,110.356 219.85,109.5 219.85,108.541 C219.85,107.375 218.856,106.709 217.57,106.331 C216.37,106.726 215.531,107.325 215.531,108.541 L215.531,108.541 Z M217.758,105.148 C218.803,104.738 219.643,104.138 219.643,103.145 C219.643,102.185 218.77,101.552 217.707,101.552 C216.439,101.552 215.787,102.339 215.787,103.18 C215.787,104.242 216.713,104.773 217.758,105.148 L217.758,105.148 Z" id="Fill-42" fill="#FFFFFF" sketch:type="MSShapeGroup"></path>
            <path d="M272.913,106.276 C272.913,111.384 268.773,115.524 263.665,115.524 C258.558,115.524 254.417,111.384 254.417,106.276 C254.417,101.169 258.558,97.028 263.665,97.028 C268.773,97.028 272.913,101.169 272.913,106.276" id="Fill-43" fill="#545594" sketch:type="MSShapeGroup"></path>
            <path d="M266.526,102.954 C266.526,104.118 265.653,105.148 264.812,105.915 C263.889,106.756 263.322,107.304 263.322,108.109 C263.322,108.436 263.357,108.641 263.477,109.002 L262.191,109.242 C262.055,108.898 261.97,108.471 261.97,108.092 C261.97,107.084 262.466,106.396 263.46,105.405 C264.265,104.598 264.985,103.946 264.985,102.971 C264.985,102.166 264.521,101.377 263.15,101.377 C262.619,101.377 262.02,101.495 261.455,101.908 L260.804,100.779 C261.455,100.298 262.433,100.074 263.237,100.074 C265.292,100.074 266.526,101.292 266.526,102.954 L266.526,102.954 Z M262.979,110.338 C263.545,110.338 264.008,110.8 264.008,111.398 C264.008,112.05 263.545,112.479 262.979,112.479 C262.414,112.479 261.935,112.05 261.935,111.398 C261.935,110.8 262.414,110.338 262.979,110.338 L262.979,110.338 Z" id="Fill-44" fill="#FFFFFF" sketch:type="MSShapeGroup"></path>
            <path d="M77.079,106.276 C77.079,111.384 72.939,115.524 67.831,115.524 C62.724,115.524 58.583,111.384 58.583,106.276 C58.583,101.169 62.724,97.028 67.831,97.028 C72.939,97.028 77.079,101.169 77.079,106.276" id="Fill-45" fill="#52A4A0" sketch:type="MSShapeGroup"></path>
            <path d="M63.983,100.363 L65.08,100.363 L65.08,111.157 L63.607,111.157 L63.607,101.939 L61.669,102.829 L61.327,101.58 L63.983,100.363" id="Fill-46" fill="#FFFFFF" sketch:type="MSShapeGroup"></path>
            <path d="M73.94,100.329 L73.94,101.58 L69.95,101.613 L69.624,104.458 C69.898,104.406 70.241,104.373 70.634,104.373 C72.332,104.373 74.336,105.23 74.336,107.645 C74.336,109.683 72.863,111.31 70.068,111.31 C69.263,111.31 68.356,111.124 67.706,110.797 L68.048,109.581 C68.596,109.855 69.3,110.062 70.035,110.062 C71.767,110.062 72.759,109.256 72.759,107.695 C72.759,106.189 71.629,105.469 70.139,105.469 C69.52,105.469 68.87,105.554 68.22,105.692 L68.751,100.363 L73.94,100.329" id="Fill-47" fill="#FFFFFF" sketch:type="MSShapeGroup"></path>
            <path d="M126.038,26.491 C126.038,31.599 121.897,35.739 116.79,35.739 C111.682,35.739 107.542,31.599 107.542,26.491 C107.542,21.384 111.682,17.243 116.79,17.243 C121.897,17.243 126.038,21.384 126.038,26.491" id="Fill-48" fill="#4F84B7" sketch:type="MSShapeGroup"></path>
            <path d="M114.331,22.536 L113.662,21.524 C114.673,20.669 115.617,20.463 116.473,20.463 C118.836,20.463 119.915,21.852 119.915,23.668 C119.915,25.328 118.511,27.025 116.284,29.184 L115.272,30.16 L120.173,30.16 L120.173,31.412 L113.681,31.412 L113.407,30.331 L114.829,28.91 C117.347,26.39 118.375,25.072 118.375,23.72 C118.375,22.553 117.74,21.695 116.473,21.695 C115.736,21.695 115.12,21.92 114.331,22.536" id="Fill-49" fill="#FFFFFF" sketch:type="MSShapeGroup"></path>
            <path d="M174.996,26.491 C174.996,31.599 170.855,35.739 165.748,35.739 C160.641,35.739 156.5,31.599 156.5,26.491 C156.5,21.384 160.641,17.243 165.748,17.243 C170.855,17.243 174.996,21.384 174.996,26.491" id="Fill-50" fill="#52A4A0" sketch:type="MSShapeGroup"></path>
            <path d="M162.956,21.247 C163.847,20.664 164.856,20.441 165.714,20.441 C167.65,20.441 168.986,21.606 168.986,23.2 C168.986,24.536 168.181,25.461 167.188,25.82 C168.439,26.094 169.363,27.089 169.363,28.392 C169.363,30.703 167.376,31.542 165.474,31.542 C164.532,31.542 163.486,31.355 162.767,31.011 L163.11,29.846 C163.898,30.137 164.429,30.326 165.457,30.326 C166.605,30.326 167.787,29.795 167.787,28.356 C167.787,27.055 166.776,26.488 165.423,26.488 L164.137,26.488 L164.137,25.325 L165.13,25.325 C166.45,25.325 167.444,24.689 167.444,23.372 C167.444,22.411 166.639,21.641 165.594,21.641 C164.856,21.641 164.309,21.795 163.435,22.293 L162.956,21.247" id="Fill-51" fill="#FFFFFF" sketch:type="MSShapeGroup"></path>
            <path d="M223.955,26.491 C223.955,31.599 219.814,35.739 214.707,35.739 C209.6,35.739 205.459,31.599 205.459,26.491 C205.459,21.384 209.6,17.243 214.707,17.243 C219.814,17.243 223.955,21.384 223.955,26.491" id="Fill-52" fill="#545594" sketch:type="MSShapeGroup"></path>
            <path d="M215.778,20.789 L217.133,20.789 L217.133,27.59 L218.826,27.59 L218.826,28.842 L217.133,28.842 L217.133,31.583 L215.727,31.583 L215.727,28.842 L210.588,28.842 L210.588,27.899 L215.778,20.789 L215.778,20.789 Z M212.281,27.59 L215.727,27.59 L215.727,24.609 L215.811,22.451 L215.778,22.451 L214.937,23.908 L212.281,27.59 L212.281,27.59 Z" id="Fill-53" fill="#FFFFFF" sketch:type="MSShapeGroup"></path>
            <path d="M272.913,26.491 C272.913,31.599 268.773,35.739 263.665,35.739 C258.558,35.739 254.417,31.599 254.417,26.491 C254.417,21.384 258.558,17.243 263.665,17.243 C268.773,17.243 272.913,21.384 272.913,26.491" id="Fill-54" fill="#4F84B7" sketch:type="MSShapeGroup"></path>
            <path d="M266.586,20.544 L266.586,21.795 L262.594,21.828 L262.269,24.673 C262.544,24.621 262.885,24.588 263.279,24.588 C264.977,24.588 266.98,25.443 266.98,27.86 C266.98,29.897 265.508,31.524 262.715,31.524 C261.909,31.524 261.002,31.339 260.351,31.011 L260.693,29.795 C261.24,30.07 261.944,30.276 262.68,30.276 C264.412,30.276 265.404,29.471 265.404,27.91 C265.404,26.403 264.273,25.684 262.783,25.684 C262.166,25.684 261.515,25.769 260.865,25.906 L261.397,20.578 L266.586,20.544" id="Fill-55" fill="#FFFFFF" sketch:type="MSShapeGroup"></path>
            <path d="M321.872,26.491 C321.872,31.599 317.731,35.739 312.624,35.739 C307.517,35.739 303.376,31.599 303.376,26.491 C303.376,21.384 307.517,17.243 312.624,17.243 C317.731,17.243 321.872,21.384 321.872,26.491" id="Fill-56" fill="#52A4A0" sketch:type="MSShapeGroup"></path>
            <path d="M315.519,20.784 L315.158,22.002 C314.679,21.795 314.129,21.657 313.498,21.657 C311.493,21.657 310.465,23.216 310.397,25.461 C311.03,24.654 311.991,24.297 312.948,24.297 C314.885,24.297 316.428,25.565 316.428,27.809 C316.428,30.07 314.834,31.542 312.657,31.542 C310.705,31.542 308.82,30.104 308.82,26.438 C308.82,22.019 311.03,20.441 313.446,20.441 C314.234,20.441 314.885,20.544 315.519,20.784 L315.519,20.784 Z M312.709,30.377 C314.029,30.377 314.919,29.299 314.919,27.842 C314.919,26.231 314.011,25.495 312.657,25.495 C311.647,25.495 310.929,26.061 310.567,26.694 C310.431,26.952 310.397,27.209 310.397,27.447 C310.397,29.074 311.321,30.377 312.709,30.377 L312.709,30.377 Z" id="Fill-57" fill="#FFFFFF" sketch:type="MSShapeGroup"></path>
            <path d="M370.83,26.491 C370.83,31.599 366.69,35.739 361.582,35.739 C356.475,35.739 352.334,31.599 352.334,26.491 C352.334,21.384 356.475,17.243 361.582,17.243 C366.69,17.243 370.83,21.384 370.83,26.491" id="Fill-58" fill="#4F84B7" sketch:type="MSShapeGroup"></path>
            <path d="M364.94,20.551 L364.94,21.613 L360.28,31.653 L358.996,31.087 L363.434,21.801 L358.225,21.801 L358.225,20.551 L364.94,20.551" id="Fill-59" fill="#FFFFFF" sketch:type="MSShapeGroup"></path>
            <path d="M77.079,26.491 C77.079,31.599 72.939,35.739 67.831,35.739 C62.724,35.739 58.583,31.599 58.583,26.491 C58.583,21.384 62.724,17.243 67.831,17.243 C72.939,17.243 77.079,21.384 77.079,26.491" id="Fill-60" fill="#52A4A0" sketch:type="MSShapeGroup"></path>
            <path d="M68.071,20.595 L69.167,20.595 L69.167,31.389 L67.695,31.389 L67.695,22.172 L65.756,23.061 L65.415,21.811 L68.071,20.595" id="Fill-61" fill="#FFFFFF" sketch:type="MSShapeGroup"></path>
            <path d="M85.516,241.46 L1.423,245.845 L1.423,132.924 L85.516,128.539 L85.516,241.46" id="Fill-62" fill="#4D4D4C" sketch:type="MSShapeGroup"></path>
            <path d="M1.423,246.345 C1.295,246.345 1.172,246.296 1.079,246.207 C0.979,246.113 0.923,245.981 0.923,245.845 L0.923,132.924 C0.923,132.658 1.131,132.439 1.397,132.425 L85.49,128.04 C85.614,128.033 85.76,128.082 85.86,128.176 C85.96,128.271 86.016,128.402 86.016,128.539 L86.016,241.46 C86.016,241.726 85.807,241.945 85.542,241.959 L1.449,246.344 C1.44,246.345 1.432,246.345 1.423,246.345 L1.423,246.345 Z M1.923,133.398 L1.923,245.318 L85.016,240.985 L85.016,129.065 L1.923,133.398 L1.923,133.398 Z" id="Fill-63" fill="#343433" sketch:type="MSShapeGroup"></path>
            <path d="M84.094,239.892 L3.677,244.071 L3.677,135.044 L84.094,130.865 L84.094,239.892" id="Fill-64" fill="#E7AFAD" sketch:type="MSShapeGroup"></path>
            <path d="M3.677,244.571 C3.549,244.571 3.426,244.523 3.333,244.434 C3.233,244.34 3.177,244.208 3.177,244.071 L3.177,135.044 C3.177,134.778 3.385,134.559 3.651,134.545 L84.068,130.366 C84.201,130.35 84.338,130.408 84.438,130.503 C84.538,130.597 84.594,130.728 84.594,130.865 L84.594,239.892 C84.594,240.157 84.385,240.377 84.12,240.391 L3.703,244.57 C3.694,244.571 3.686,244.571 3.677,244.571 L3.677,244.571 Z M4.177,135.519 L4.177,243.545 L83.594,239.417 L83.594,131.392 L4.177,135.519 L4.177,135.519 Z" id="Fill-65" fill="#343433" sketch:type="MSShapeGroup"></path>
            <path d="M85.784,242.38 L3.677,244.071 L3.677,135.044 L85.784,133.353 L85.784,242.38" id="Fill-66" fill="#9696BE" sketch:type="MSShapeGroup"></path>
            <path d="M3.677,244.571 C3.546,244.571 3.42,244.521 3.327,244.429 C3.231,244.334 3.177,244.206 3.177,244.071 L3.177,135.044 C3.177,134.772 3.395,134.55 3.667,134.544 L85.774,132.853 C85.898,132.848 86.038,132.901 86.134,132.996 C86.23,133.091 86.284,133.219 86.284,133.353 L86.284,242.38 C86.284,242.652 86.066,242.874 85.794,242.88 L3.687,244.571 L3.677,244.571 L3.677,244.571 Z M4.177,135.534 L4.177,243.56 L85.284,241.89 L85.284,133.864 L4.177,135.534 L4.177,135.534 Z" id="Fill-67" fill="#343433" sketch:type="MSShapeGroup"></path>
            <path d="M87.512,244.921 L3.677,244.071 L3.677,135.044 L87.512,135.894 L87.512,244.921" id="Fill-68" fill="#8FCAA7" sketch:type="MSShapeGroup"></path>
            <path d="M87.512,245.421 L87.507,245.421 L3.672,244.571 C3.398,244.568 3.177,244.346 3.177,244.071 L3.177,135.044 C3.177,134.91 3.23,134.782 3.325,134.689 C3.419,134.595 3.537,134.555 3.682,134.544 L87.517,135.394 C87.791,135.397 88.012,135.619 88.012,135.894 L88.012,244.921 C88.012,245.055 87.959,245.183 87.863,245.276 C87.77,245.369 87.644,245.421 87.512,245.421 L87.512,245.421 Z M4.177,243.576 L87.012,244.416 L87.012,136.389 L4.177,135.549 L4.177,243.576 L4.177,243.576 Z" id="Fill-69" fill="#343433" sketch:type="MSShapeGroup"></path>
            <path d="M89.274,247.514 L3.677,244.071 L3.677,135.044 L89.274,138.488 L89.274,247.514" id="Fill-70" fill="#9696BE" sketch:type="MSShapeGroup"></path>
            <path d="M89.274,248.014 L89.254,248.014 L3.657,244.571 C3.389,244.56 3.177,244.34 3.177,244.071 L3.177,135.044 C3.177,134.908 3.232,134.777 3.331,134.684 C3.429,134.589 3.564,134.547 3.697,134.544 L89.294,137.988 C89.563,137.999 89.774,138.22 89.774,138.488 L89.774,247.514 C89.774,247.649 89.719,247.78 89.621,247.874 C89.527,247.964 89.403,248.014 89.274,248.014 L89.274,248.014 Z M4.177,243.591 L88.774,246.993 L88.774,138.969 L4.177,135.565 L4.177,243.591 L4.177,243.591 Z" id="Fill-71" fill="#343433" sketch:type="MSShapeGroup"></path>
            <path d="M91.073,250.164 L3.677,244.071 L3.677,135.044 L91.073,141.137 L91.073,250.164" id="Fill-72" fill="#E7AFAD" sketch:type="MSShapeGroup"></path>
            <path d="M91.073,250.664 C91.062,250.664 91.05,250.664 91.039,250.663 L3.642,244.57 C3.38,244.552 3.177,244.334 3.177,244.071 L3.177,135.044 C3.177,134.905 3.234,134.772 3.336,134.679 C3.437,134.584 3.574,134.531 3.711,134.545 L91.108,140.638 C91.37,140.656 91.573,140.874 91.573,141.137 L91.573,250.164 C91.573,250.303 91.516,250.435 91.414,250.529 C91.321,250.616 91.199,250.664 91.073,250.664 L91.073,250.664 Z M4.177,243.604 L90.573,249.628 L90.573,141.603 L4.177,135.58 L4.177,243.604 L4.177,243.604 Z" id="Fill-73" fill="#343433" sketch:type="MSShapeGroup"></path>
            <path d="M92.911,252.867 L3.677,244.071 L3.677,135.044 L92.911,143.841 L92.911,252.867" id="Fill-74" fill="#FFFFFF" sketch:type="MSShapeGroup"></path>
            <path d="M92.911,253.367 C92.895,253.367 92.878,253.366 92.862,253.365 L3.628,244.569 C3.372,244.544 3.177,244.328 3.177,244.071 L3.177,135.044 C3.177,134.902 3.236,134.769 3.341,134.674 C3.446,134.579 3.589,134.541 3.726,134.546 L92.96,143.343 C93.216,143.368 93.411,143.584 93.411,143.841 L93.411,252.867 C93.411,253.009 93.352,253.143 93.247,253.237 C93.154,253.321 93.035,253.367 92.911,253.367 L92.911,253.367 Z M4.177,243.618 L92.411,252.315 L92.411,144.294 L4.177,135.596 L4.177,243.618 L4.177,243.618 Z" id="Fill-75" fill="#343433" sketch:type="MSShapeGroup"></path>
            <path d="M97.042,257.75 L3.677,248.862 L3.677,135.94 L97.042,144.83 L97.042,257.75" id="Fill-76" fill="#36A0CE" sketch:type="MSShapeGroup"></path>
            <path d="M97.042,258.25 C97.026,258.25 97.01,258.249 96.995,258.248 L3.629,249.36 C3.373,249.336 3.177,249.12 3.177,248.862 L3.177,135.94 C3.177,135.8 3.236,135.665 3.34,135.57 C3.444,135.476 3.585,135.432 3.724,135.442 L97.089,144.332 C97.346,144.356 97.542,144.572 97.542,144.83 L97.542,257.75 C97.542,257.891 97.482,258.025 97.378,258.12 C97.286,258.204 97.166,258.25 97.042,258.25 L97.042,258.25 Z M4.177,248.407 L96.542,257.2 L96.542,145.285 L4.177,136.49 L4.177,248.407 L4.177,248.407 Z" id="Fill-77" fill="#343433" sketch:type="MSShapeGroup"></path>
            <path d="M50.358,169.83 C49.383,169.76 49.542,169.168 49.146,168.131 C48.61,166.728 47.971,165.362 47.243,164.042 C46.507,162.707 45.683,161.416 44.786,160.186 C43.954,159.045 42.832,158.049 42.069,156.876 C41.335,155.746 40.398,154.733 39.293,154.034 C38.761,153.696 36.698,152.441 37.47,153.931 C38.682,156.272 40.73,157.005 42.39,158.771 C44.372,160.879 46.024,163.341 47.313,165.955 C47.962,167.268 48.458,168.612 48.981,169.971 C49.183,170.494 48.16,171.592 48.387,172.506 C48.575,173.266 49.026,173.411 48.568,173.997 C48.279,174.366 48.043,174.784 47.851,175.226 C47.421,176.208 47.196,177.305 47.063,178.41 C46.749,181.013 46.867,183.646 47.024,186.318 C46.991,185.834 46.962,185.351 46.938,184.866 C47.069,186.136 47.116,187.41 47.228,188.68 C47.201,188.345 47.204,188.004 47.132,187.669 C47.299,189.549 47.548,191.429 47.847,193.308 C48.133,195.103 48.687,196.978 48.853,198.766 C48.796,198.498 48.749,198.229 48.679,197.963 C48.737,198.231 48.796,198.498 48.853,198.766 C48.794,198.499 48.91,199.034 48.853,198.766 C49.304,200.784 49.045,202.865 48.983,204.862 C48.915,207.101 48.868,209.343 48.878,211.594 C48.882,212.709 48.53,221.502 50.358,221.713 C52.188,221.994 51.837,213.107 51.841,211.992 C51.85,209.745 51.804,207.489 51.735,205.233 C51.673,203.219 51.415,201.069 51.866,199.172 C51.81,199.425 51.925,198.921 51.866,199.172 C51.924,198.92 51.981,198.668 52.04,198.416 C51.97,198.663 51.923,198.92 51.866,199.172 C52.034,197.43 52.587,195.703 52.872,193.985 C53.171,192.187 53.42,190.373 53.587,188.538 C53.515,188.853 53.518,189.196 53.49,189.523 C53.603,188.283 53.649,187.022 53.779,185.788 C53.757,186.265 53.728,186.742 53.694,187.217 C53.852,184.587 53.97,181.985 53.655,179.299 C53.523,178.156 53.298,176.999 52.869,175.901 C52.675,175.407 52.44,174.927 52.151,174.48 C51.692,173.771 52.145,173.746 52.333,173.037 C52.559,172.184 51.536,170.81 51.737,170.342 C52.261,169.124 52.757,167.914 53.404,166.775 C54.694,164.509 56.347,162.492 58.329,160.917 C59.989,159.599 62.038,159.419 63.249,157.403 C64.021,156.121 61.958,156.821 61.427,157.015 C60.321,157.417 59.384,158.178 58.649,159.108 C57.888,160.076 56.765,160.77 55.933,161.687 C55.036,162.676 54.212,163.744 53.476,164.882 C52.748,166.005 52.108,167.199 51.573,168.457 C51.177,169.389 51.336,170.023 50.358,169.83" id="Fill-78" fill="#1E3E85" sketch:type="MSShapeGroup"></path>
            <path d="M52.944,176.162 C54.094,182.167 53.874,188.99 52.663,194.737 C57.452,199.031 59.609,201.237 65.323,201.415 C68.69,201.519 72.055,201.546 75.419,201.612 L75.419,175.802 C67.858,175.653 60.263,174.922 52.944,176.162" id="Fill-79" fill="#1E3E85" sketch:type="MSShapeGroup"></path>
            <path d="M52.944,176.162 C54.094,182.167 53.874,188.99 52.663,194.737 C56.595,198.431 58.662,200.815 63.361,201.969 C66.751,202.802 70.523,202.69 73.924,203.017 C73.924,194.414 73.923,185.809 73.923,177.205 C66.877,176.525 59.827,175.328 52.944,176.162" id="Fill-80" fill="#438EC0" sketch:type="MSShapeGroup"></path>
            <path d="M52.944,176.162 C54.094,182.167 53.874,188.99 52.663,194.737 C56.079,198.102 58.524,201.231 62.679,202.764 C65.728,203.89 69.247,204.18 72.356,204.837 L72.356,179.029 C65.925,177.669 59.335,175.723 52.944,176.162" id="Fill-81" fill="#005799" sketch:type="MSShapeGroup"></path>
            <path d="M52.944,176.162 C54.094,182.167 53.874,188.99 52.663,194.737 C55.681,197.847 58.208,201.594 61.898,203.481 C64.569,204.847 67.782,205.519 70.559,206.47 C70.559,197.866 70.559,189.266 70.558,180.662 C64.924,178.732 58.709,176.026 52.944,176.162" id="Fill-82" fill="#0075B1" sketch:type="MSShapeGroup"></path>
            <path d="M47.774,175.466 C45.396,179.529 47.515,190.602 48.056,194.115 C40.373,194.7 33.374,196.878 25.301,194.86 L25.301,169.052 C33.374,171.07 40.146,175.364 47.774,175.466" id="Fill-83" fill="#1E3E85" sketch:type="MSShapeGroup"></path>
            <path d="M47.774,175.466 C45.396,179.529 47.515,190.602 48.056,194.115 C40.972,194.852 34.272,197.965 26.795,196.669 C26.795,186.349 26.796,181.182 26.795,170.857 C34.272,172.152 40.577,175.598 47.774,175.466" id="Fill-84" fill="#438EC0" sketch:type="MSShapeGroup"></path>
            <path d="M47.774,175.466 C45.396,179.529 47.515,190.602 48.056,194.115 C41.606,195.059 35.216,199.31 28.362,198.911 L28.362,173.103 C35.213,173.504 40.999,175.897 47.774,175.466" id="Fill-85" fill="#005799" sketch:type="MSShapeGroup"></path>
            <path d="M47.774,175.466 C45.892,179.653 47.515,190.602 48.056,194.115 C42.327,195.233 36.295,200.58 30.163,201.029 C30.163,190.705 30.161,185.545 30.163,175.222 C36.293,174.775 41.526,176.169 47.774,175.466" id="Fill-86" fill="#0075B1" sketch:type="MSShapeGroup"></path>
            <path d="M15.944,229.537 C15.944,229.053 15.815,228.68 15.557,228.419 C15.298,228.158 14.922,228.005 14.43,227.962 C14.09,227.932 13.775,227.964 13.484,228.059 C13.194,228.153 12.947,228.292 12.745,228.474 L12.285,227.893 C12.519,227.682 12.828,227.517 13.212,227.398 C13.595,227.28 14.03,227.243 14.515,227.286 C14.822,227.312 15.108,227.38 15.375,227.487 C15.642,227.596 15.876,227.742 16.078,227.928 C16.279,228.113 16.437,228.339 16.55,228.606 C16.664,228.871 16.72,229.177 16.72,229.521 L16.72,231.981 C16.72,232.196 16.727,232.421 16.744,232.654 C16.76,232.888 16.785,233.086 16.817,233.249 L16.078,233.184 C16.054,233.046 16.033,232.896 16.017,232.734 C16.001,232.573 15.993,232.416 15.993,232.264 L15.968,232.262 C15.71,232.615 15.417,232.859 15.09,232.994 C14.763,233.13 14.369,233.177 13.909,233.136 C13.691,233.117 13.466,233.066 13.236,232.986 C13.006,232.906 12.796,232.789 12.606,232.636 C12.417,232.483 12.259,232.292 12.133,232.065 C12.008,231.837 11.946,231.566 11.946,231.253 C11.946,230.819 12.057,230.486 12.279,230.253 C12.501,230.021 12.798,229.858 13.169,229.767 C13.541,229.675 13.967,229.632 14.448,229.638 C14.929,229.645 15.427,229.67 15.944,229.716 L15.944,229.537 L15.944,229.537 Z M15.702,230.343 C15.363,230.312 15.021,230.296 14.678,230.294 C14.335,230.292 14.024,230.32 13.745,230.38 C13.466,230.438 13.238,230.541 13.061,230.685 C12.883,230.83 12.794,231.034 12.794,231.298 C12.794,231.498 12.832,231.669 12.909,231.812 C12.985,231.954 13.088,232.073 13.218,232.169 C13.347,232.265 13.491,232.337 13.648,232.387 C13.806,232.438 13.965,232.47 14.127,232.483 C14.417,232.509 14.676,232.482 14.902,232.401 C15.128,232.322 15.318,232.202 15.472,232.044 C15.625,231.886 15.742,231.698 15.823,231.481 C15.904,231.265 15.944,231.031 15.944,230.783 L15.944,230.363 L15.702,230.343 L15.702,230.343 Z" id="Fill-87" fill="#E4E5E3" sketch:type="MSShapeGroup"></path>
            <path d="M17.127,233.527 L15.865,233.416 L15.832,233.228 C15.811,233.109 15.793,232.982 15.778,232.848 C15.594,233.013 15.396,233.139 15.185,233.226 C14.823,233.375 14.388,233.427 13.887,233.385 C13.653,233.365 13.406,233.31 13.154,233.223 C12.898,233.134 12.661,233.002 12.449,232.83 C12.236,232.659 12.056,232.441 11.915,232.185 C11.769,231.921 11.696,231.607 11.696,231.253 C11.696,230.755 11.831,230.36 12.098,230.08 C12.353,229.815 12.693,229.627 13.109,229.523 C13.477,229.434 13.898,229.387 14.362,229.387 L14.451,229.388 C14.856,229.394 15.273,229.412 15.692,229.444 C15.678,229.071 15.575,228.793 15.379,228.595 C15.164,228.378 14.837,228.248 14.408,228.211 C14.101,228.183 13.82,228.213 13.562,228.296 C13.306,228.38 13.088,228.502 12.912,228.659 L12.714,228.838 L11.944,227.864 L12.118,227.707 C12.378,227.472 12.722,227.288 13.138,227.159 C13.551,227.032 14.02,226.993 14.537,227.037 C14.865,227.065 15.178,227.139 15.468,227.255 C15.762,227.375 16.023,227.539 16.247,227.743 C16.475,227.953 16.654,228.211 16.78,228.508 C16.906,228.803 16.97,229.144 16.97,229.521 L16.97,231.981 C16.97,232.19 16.978,232.409 16.994,232.637 C17.009,232.858 17.032,233.046 17.062,233.2 L17.127,233.527 L17.127,233.527 Z M16.294,232.952 L16.522,232.972 C16.511,232.879 16.502,232.778 16.495,232.672 C16.478,232.433 16.47,232.202 16.47,231.981 L16.47,229.521 C16.47,229.212 16.42,228.936 16.32,228.703 C16.222,228.472 16.084,228.272 15.909,228.111 C15.73,227.948 15.519,227.815 15.281,227.719 C15.038,227.621 14.773,227.56 14.493,227.535 C14.041,227.495 13.636,227.528 13.286,227.638 C13.033,227.715 12.816,227.815 12.637,227.935 L12.787,228.123 C12.97,227.997 13.177,227.896 13.407,227.821 C13.729,227.716 14.081,227.681 14.452,227.713 C15.001,227.761 15.433,227.94 15.734,228.243 C16.04,228.551 16.194,228.986 16.194,229.537 L16.194,229.989 L15.922,229.965 C15.422,229.921 14.925,229.894 14.445,229.888 L14.362,229.887 C13.939,229.887 13.558,229.929 13.23,230.01 C12.906,230.089 12.647,230.229 12.46,230.426 C12.282,230.612 12.196,230.883 12.196,231.253 C12.196,231.522 12.249,231.755 12.353,231.944 C12.462,232.143 12.6,232.31 12.763,232.441 C12.93,232.576 13.117,232.681 13.318,232.75 C13.531,232.824 13.737,232.87 13.93,232.887 C14.351,232.923 14.706,232.883 14.994,232.764 C15.278,232.647 15.537,232.429 15.766,232.114 L15.849,232.001 L16.218,232.031 L16.243,232.264 C16.243,232.408 16.25,232.557 16.266,232.709 C16.274,232.793 16.284,232.874 16.294,232.952 L16.294,232.952 Z M14.334,232.743 L14.334,232.743 C14.26,232.743 14.184,232.739 14.105,232.732 C13.926,232.718 13.747,232.681 13.571,232.625 C13.389,232.566 13.219,232.481 13.069,232.37 C12.911,232.253 12.783,232.104 12.689,231.931 C12.593,231.752 12.544,231.539 12.544,231.298 C12.544,230.956 12.665,230.685 12.903,230.491 C13.111,230.321 13.377,230.202 13.694,230.135 C13.977,230.074 14.297,230.044 14.645,230.044 L14.68,230.044 C15.024,230.046 15.376,230.063 15.724,230.094 L16.194,230.134 L16.194,230.783 C16.194,231.06 16.148,231.324 16.058,231.568 C15.965,231.816 15.828,232.035 15.651,232.218 C15.47,232.405 15.246,232.546 14.985,232.638 C14.791,232.707 14.571,232.743 14.334,232.743 L14.334,232.743 Z M14.645,230.294 L14.645,230.544 C14.333,230.544 14.047,230.571 13.797,230.624 C13.559,230.675 13.365,230.76 13.219,230.879 C13.099,230.977 13.044,231.109 13.044,231.298 C13.044,231.458 13.072,231.587 13.129,231.694 C13.188,231.803 13.268,231.895 13.366,231.968 C13.472,232.046 13.592,232.106 13.724,232.148 C13.864,232.193 14.006,232.223 14.148,232.234 C14.212,232.24 14.274,232.243 14.334,232.243 C14.513,232.243 14.676,232.217 14.818,232.166 C15.006,232.1 15.166,232.001 15.292,231.87 C15.422,231.735 15.52,231.579 15.589,231.394 C15.659,231.206 15.694,231.001 15.694,230.783 L15.681,230.592 C15.345,230.561 15.008,230.546 14.677,230.544 L14.645,230.294 L14.645,230.294 Z" id="Fill-88" fill="#E4E5E3" sketch:type="MSShapeGroup"></path>
            <path d="M25.99,229.282 C25.779,229.048 25.533,228.858 25.251,228.714 C24.968,228.568 24.673,228.482 24.366,228.455 C23.97,228.42 23.615,228.463 23.3,228.583 C22.985,228.703 22.716,228.877 22.494,229.105 C22.271,229.334 22.101,229.607 21.979,229.925 C21.858,230.242 21.797,230.58 21.797,230.94 C21.797,231.3 21.858,231.649 21.979,231.988 C22.101,232.327 22.271,232.628 22.494,232.892 C22.716,233.155 22.985,233.373 23.3,233.545 C23.615,233.717 23.97,233.82 24.366,233.856 C24.673,233.882 24.974,233.856 25.269,233.779 C25.563,233.701 25.82,233.567 26.038,233.379 L26.22,233.563 C25.978,233.781 25.693,233.931 25.366,234.009 C25.039,234.088 24.706,234.113 24.366,234.083 C23.954,234.047 23.577,233.941 23.233,233.768 C22.89,233.593 22.591,233.366 22.336,233.088 C22.082,232.81 21.884,232.484 21.743,232.112 C21.602,231.739 21.531,231.341 21.531,230.917 C21.531,230.493 21.602,230.107 21.743,229.76 C21.884,229.412 22.082,229.12 22.336,228.882 C22.591,228.645 22.89,228.467 23.233,228.35 C23.577,228.231 23.954,228.19 24.366,228.227 C24.722,228.259 25.059,228.353 25.378,228.509 C25.697,228.664 25.97,228.868 26.196,229.12 L25.99,229.282" id="Fill-89" fill="#E4E5E3" sketch:type="MSShapeGroup"></path>
            <path d="M24.643,234.346 C24.544,234.346 24.444,234.341 24.344,234.332 C23.903,234.293 23.492,234.179 23.121,233.99 C22.751,233.803 22.426,233.556 22.152,233.257 C21.876,232.955 21.66,232.6 21.509,232.201 C21.358,231.802 21.281,231.369 21.281,230.917 C21.281,230.463 21.358,230.042 21.512,229.665 C21.665,229.288 21.884,228.963 22.166,228.699 C22.446,228.437 22.778,228.241 23.153,228.113 C23.528,227.983 23.94,227.936 24.389,227.978 C24.772,228.013 25.142,228.115 25.488,228.284 C25.834,228.453 26.135,228.678 26.382,228.953 L26.56,229.151 L25.961,229.624 L25.804,229.449 C25.615,229.238 25.39,229.066 25.137,228.936 C24.884,228.807 24.618,228.728 24.344,228.704 C23.989,228.675 23.668,228.71 23.389,228.816 C23.109,228.923 22.869,229.079 22.673,229.279 C22.477,229.481 22.322,229.728 22.212,230.015 C22.103,230.301 22.047,230.613 22.047,230.94 C22.047,231.27 22.104,231.594 22.214,231.904 C22.326,232.214 22.484,232.492 22.685,232.731 C22.886,232.969 23.133,233.169 23.419,233.325 C23.703,233.481 24.029,233.574 24.388,233.606 C24.661,233.629 24.939,233.606 25.206,233.537 C25.461,233.47 25.687,233.353 25.875,233.19 L26.051,233.037 L26.582,233.572 L26.388,233.748 C26.115,233.995 25.791,234.164 25.424,234.252 C25.167,234.314 24.905,234.346 24.643,234.346" id="Fill-90" fill="#E4E5E3" sketch:type="MSShapeGroup"></path>
            <path d="M33.176,231.921 C33.176,232.352 33.104,232.742 32.963,233.09 C32.822,233.438 32.622,233.73 32.364,233.967 C32.105,234.204 31.796,234.379 31.437,234.491 C31.077,234.603 30.683,234.641 30.255,234.602 C29.827,234.565 29.435,234.459 29.08,234.283 C28.724,234.107 28.417,233.879 28.159,233.596 C27.9,233.312 27.7,232.985 27.559,232.613 C27.417,232.24 27.347,231.839 27.347,231.406 C27.347,230.974 27.417,230.586 27.559,230.243 C27.7,229.899 27.9,229.611 28.159,229.378 C28.417,229.144 28.724,228.972 29.08,228.859 C29.435,228.746 29.827,228.709 30.255,228.747 C30.683,228.784 31.077,228.892 31.437,229.067 C31.796,229.243 32.105,229.47 32.364,229.749 C32.622,230.028 32.822,230.352 32.963,230.72 C33.104,231.088 33.176,231.488 33.176,231.921 L33.176,231.921 Z M32.909,231.897 C32.909,231.529 32.848,231.176 32.727,230.837 C32.606,230.498 32.431,230.197 32.2,229.933 C31.97,229.668 31.691,229.452 31.364,229.282 C31.037,229.114 30.667,229.012 30.255,228.975 C29.843,228.938 29.476,228.977 29.153,229.088 C28.829,229.199 28.552,229.366 28.322,229.591 C28.092,229.815 27.917,230.084 27.795,230.401 C27.674,230.72 27.614,231.062 27.614,231.43 C27.614,231.806 27.674,232.163 27.795,232.502 C27.917,232.841 28.092,233.142 28.322,233.406 C28.552,233.671 28.829,233.889 29.153,234.062 C29.476,234.234 29.843,234.339 30.255,234.375 C30.667,234.411 31.037,234.372 31.364,234.257 C31.691,234.142 31.97,233.973 32.2,233.749 C32.431,233.524 32.606,233.255 32.727,232.937 C32.848,232.62 32.909,232.273 32.909,231.897 L32.909,231.897 Z" id="Fill-91" fill="#E4E5E3" sketch:type="MSShapeGroup"></path>
            <path d="M30.574,234.867 C30.462,234.867 30.349,234.862 30.233,234.852 C29.776,234.812 29.351,234.696 28.969,234.507 C28.585,234.317 28.25,234.067 27.974,233.764 C27.695,233.459 27.477,233.102 27.325,232.702 C27.174,232.303 27.097,231.867 27.097,231.406 C27.097,230.942 27.175,230.519 27.328,230.147 C27.482,229.772 27.706,229.45 27.992,229.192 C28.275,228.936 28.615,228.744 29.004,228.621 C29.389,228.499 29.816,228.456 30.277,228.498 C30.732,228.537 31.159,228.653 31.546,228.843 C31.933,229.031 32.269,229.279 32.547,229.579 C32.826,229.881 33.044,230.234 33.197,230.63 C33.349,231.026 33.426,231.461 33.426,231.921 C33.426,232.382 33.348,232.807 33.195,233.184 C33.04,233.565 32.817,233.89 32.533,234.151 C32.248,234.412 31.904,234.607 31.511,234.729 C31.22,234.821 30.904,234.867 30.574,234.867 L30.574,234.867 Z M29.962,229.211 C29.696,229.211 29.451,229.249 29.234,229.324 C28.946,229.423 28.698,229.573 28.497,229.77 C28.293,229.968 28.136,230.21 28.028,230.491 C27.919,230.777 27.864,231.094 27.864,231.43 C27.864,231.776 27.92,232.108 28.03,232.418 C28.14,232.725 28.302,233.002 28.511,233.242 C28.719,233.481 28.974,233.683 29.271,233.841 C29.562,233.997 29.901,234.093 30.277,234.126 C30.651,234.16 30.99,234.124 31.281,234.022 C31.573,233.918 31.823,233.767 32.025,233.569 C32.232,233.369 32.385,233.133 32.494,232.849 C32.604,232.56 32.659,232.24 32.659,231.897 C32.659,231.56 32.603,231.232 32.492,230.921 C32.382,230.613 32.22,230.336 32.011,230.097 C31.805,229.859 31.548,229.659 31.249,229.504 C30.953,229.352 30.611,229.258 30.233,229.224 C30.141,229.216 30.05,229.211 29.962,229.211 L29.962,229.211 Z" id="Fill-92" fill="#E4E5E3" sketch:type="MSShapeGroup"></path>
            <path d="M35.163,234.868 L35.163,225.796 L35.429,225.819 L35.429,234.892 L35.163,234.868" id="Fill-93" fill="#E4E5E3" sketch:type="MSShapeGroup"></path>
            <path d="M35.679,235.164 L34.913,235.097 L34.913,225.523 L35.679,225.591 L35.679,235.164" id="Fill-94" fill="#E4E5E3" sketch:type="MSShapeGroup"></path>
            <path d="M37.901,235.109 L37.901,226.038 L38.167,226.061 L38.167,235.133 L37.901,235.109" id="Fill-95" fill="#E4E5E3" sketch:type="MSShapeGroup"></path>
            <path d="M38.417,235.405 L37.651,235.338 L37.651,225.766 L38.417,225.833 L38.417,235.405" id="Fill-96" fill="#E4E5E3" sketch:type="MSShapeGroup"></path>
            <path d="M44.469,234.441 C44.469,234.649 44.479,234.872 44.499,235.11 C44.519,235.348 44.541,235.544 44.565,235.698 L44.311,235.676 C44.294,235.594 44.282,235.495 44.274,235.378 C44.266,235.262 44.256,235.141 44.245,235.016 C44.232,234.891 44.224,234.768 44.22,234.647 C44.216,234.527 44.214,234.427 44.214,234.347 L44.178,234.344 C44.016,234.833 43.737,235.183 43.342,235.392 C42.946,235.601 42.522,235.685 42.069,235.646 C41.843,235.626 41.619,235.573 41.397,235.49 C41.174,235.406 40.975,235.293 40.797,235.149 C40.619,235.006 40.476,234.829 40.367,234.619 C40.257,234.41 40.203,234.169 40.203,233.897 C40.203,233.505 40.306,233.198 40.512,232.977 C40.718,232.754 40.975,232.591 41.282,232.486 C41.589,232.381 41.918,232.324 42.269,232.315 C42.62,232.307 42.942,232.315 43.232,232.34 L44.202,232.426 L44.202,231.981 C44.202,231.366 44.036,230.901 43.705,230.588 C43.374,230.274 42.942,230.095 42.408,230.048 C42.077,230.019 41.768,230.051 41.482,230.146 C41.195,230.24 40.938,230.378 40.712,230.558 L40.567,230.341 C40.825,230.14 41.118,229.996 41.445,229.908 C41.772,229.821 42.094,229.792 42.408,229.819 C43.046,229.876 43.549,230.082 43.917,230.438 C44.285,230.795 44.469,231.321 44.469,232.018 L44.469,234.441 L44.469,234.441 Z M44.202,232.653 L43.342,232.578 C43.034,232.551 42.711,232.54 42.372,232.546 C42.033,232.553 41.722,232.599 41.439,232.686 C41.156,232.773 40.924,232.913 40.742,233.104 C40.561,233.297 40.47,233.568 40.47,233.921 C40.47,234.177 40.52,234.396 40.621,234.576 C40.722,234.757 40.852,234.906 41.009,235.024 C41.167,235.142 41.34,235.233 41.53,235.298 C41.72,235.362 41.899,235.402 42.069,235.418 C42.481,235.454 42.825,235.408 43.099,235.28 C43.374,235.152 43.594,234.978 43.759,234.757 C43.925,234.535 44.04,234.286 44.105,234.008 C44.169,233.728 44.202,233.454 44.202,233.182 L44.202,232.653 L44.202,232.653 Z" id="Fill-97" fill="#E4E5E3" sketch:type="MSShapeGroup"></path>
            <path d="M44.862,235.976 L44.103,235.908 L44.066,235.726 C44.047,235.634 44.034,235.524 44.025,235.395 C44.02,235.322 44.014,235.248 44.007,235.171 C43.854,235.353 43.67,235.501 43.459,235.612 C43.021,235.844 42.545,235.939 42.047,235.894 C41.803,235.873 41.555,235.816 41.309,235.725 C41.061,235.631 40.837,235.503 40.64,235.344 C40.437,235.181 40.27,234.976 40.145,234.734 C40.018,234.491 39.953,234.209 39.953,233.897 C39.953,233.441 40.08,233.075 40.329,232.807 C40.562,232.555 40.855,232.367 41.201,232.25 C41.529,232.137 41.887,232.075 42.263,232.065 C42.623,232.059 42.955,232.065 43.254,232.091 L43.952,232.152 L43.952,231.981 C43.952,231.44 43.811,231.032 43.533,230.77 C43.242,230.494 42.866,230.339 42.386,230.297 C42.092,230.273 41.814,230.3 41.561,230.383 C41.303,230.468 41.07,230.593 40.868,230.753 L40.656,230.922 L40.23,230.287 L40.413,230.144 C40.696,229.924 41.021,229.763 41.38,229.667 C41.734,229.573 42.09,229.542 42.43,229.57 C43.125,229.632 43.683,229.863 44.091,230.259 C44.507,230.663 44.719,231.255 44.719,232.018 L44.719,234.441 C44.719,234.643 44.728,234.858 44.748,235.09 C44.767,235.319 44.789,235.51 44.813,235.659 L44.862,235.976 L44.862,235.976 Z M42.55,232.794 L42.377,232.796 C42.06,232.802 41.769,232.846 41.513,232.926 C41.27,233 41.077,233.115 40.923,233.276 C40.787,233.422 40.72,233.633 40.72,233.921 C40.72,234.133 40.76,234.313 40.839,234.454 C40.923,234.603 41.03,234.728 41.159,234.824 C41.295,234.926 41.448,235.006 41.61,235.061 C41.781,235.119 41.943,235.155 42.092,235.169 C42.449,235.198 42.761,235.163 42.994,235.054 C43.231,234.943 43.42,234.793 43.559,234.607 C43.705,234.411 43.804,234.196 43.861,233.951 C43.921,233.69 43.952,233.432 43.952,233.182 L43.952,232.883 L43.32,232.827 C43.073,232.806 42.817,232.794 42.55,232.794 L42.55,232.794 Z" id="Fill-98" fill="#E4E5E3" sketch:type="MSShapeGroup"></path>
            <path d="M47.159,231.907 C47.4,231.376 47.745,230.991 48.192,230.75 C48.64,230.51 49.129,230.413 49.661,230.46 C50.072,230.496 50.449,230.603 50.792,230.781 C51.134,230.96 51.428,231.19 51.674,231.472 C51.92,231.753 52.109,232.079 52.243,232.452 C52.376,232.823 52.442,233.222 52.442,233.646 C52.442,234.062 52.374,234.441 52.236,234.785 C52.099,235.129 51.908,235.42 51.662,235.658 C51.416,235.897 51.122,236.074 50.78,236.192 C50.437,236.31 50.064,236.352 49.661,236.315 C49.396,236.292 49.136,236.233 48.882,236.139 C48.628,236.044 48.392,235.917 48.174,235.759 C47.956,235.6 47.759,235.41 47.582,235.19 C47.404,234.971 47.263,234.72 47.159,234.44 L47.123,234.435 L47.123,235.924 L46.844,235.899 L46.844,226.827 L47.123,226.852 L47.123,231.903 L47.159,231.907 L47.159,231.907 Z M52.175,233.621 C52.175,233.262 52.117,232.913 52,232.574 C51.883,232.236 51.716,231.933 51.499,231.666 C51.281,231.398 51.017,231.178 50.706,231.002 C50.397,230.827 50.047,230.722 49.661,230.687 C49.29,230.655 48.95,230.696 48.64,230.813 C48.329,230.93 48.061,231.101 47.835,231.324 C47.61,231.549 47.433,231.819 47.304,232.136 C47.175,232.452 47.11,232.795 47.11,233.163 C47.11,233.53 47.175,233.884 47.304,234.224 C47.433,234.563 47.61,234.864 47.835,235.129 C48.061,235.393 48.329,235.61 48.64,235.781 C48.95,235.953 49.29,236.055 49.661,236.088 C50.047,236.122 50.397,236.081 50.706,235.964 C51.017,235.848 51.281,235.677 51.499,235.452 C51.716,235.227 51.883,234.956 52,234.639 C52.117,234.32 52.175,233.981 52.175,233.621 L52.175,233.621 Z" id="Fill-99" fill="#E4E5E3" sketch:type="MSShapeGroup"></path>
            <path d="M49.937,236.578 C49.839,236.578 49.74,236.573 49.639,236.565 C49.351,236.539 49.067,236.475 48.794,236.373 C48.522,236.272 48.263,236.133 48.027,235.961 C47.793,235.79 47.578,235.583 47.387,235.348 C47.382,235.341 47.377,235.335 47.373,235.329 L47.373,236.196 L46.594,236.129 L46.594,226.555 L47.373,226.622 L47.373,231.1 C47.573,230.864 47.808,230.674 48.074,230.53 C48.564,230.267 49.105,230.157 49.683,230.211 C50.124,230.25 50.536,230.367 50.907,230.56 C51.277,230.752 51.598,231.004 51.862,231.308 C52.128,231.611 52.335,231.968 52.478,232.368 C52.62,232.765 52.692,233.194 52.692,233.646 C52.692,234.092 52.617,234.507 52.469,234.878 C52.318,235.254 52.105,235.577 51.836,235.838 C51.565,236.101 51.237,236.299 50.861,236.429 C50.571,236.528 50.261,236.578 49.937,236.578 L49.937,236.578 Z M49.421,230.927 C49.173,230.927 48.939,230.968 48.728,231.047 C48.453,231.15 48.212,231.303 48.011,231.502 C47.811,231.701 47.651,231.946 47.535,232.231 C47.419,232.515 47.36,232.829 47.36,233.163 C47.36,233.498 47.42,233.825 47.538,234.135 C47.655,234.444 47.819,234.725 48.026,234.967 C48.231,235.206 48.478,235.407 48.76,235.562 C49.038,235.716 49.348,235.809 49.683,235.839 C49.763,235.846 49.841,235.85 49.918,235.85 C50.173,235.85 50.408,235.81 50.618,235.731 C50.893,235.627 51.128,235.476 51.319,235.278 C51.511,235.078 51.662,234.834 51.765,234.553 C51.872,234.264 51.925,233.951 51.925,233.621 C51.925,233.291 51.871,232.966 51.764,232.656 C51.657,232.347 51.502,232.066 51.305,231.824 C51.109,231.583 50.867,231.38 50.583,231.22 C50.305,231.062 49.987,230.968 49.639,230.936 C49.565,230.93 49.493,230.927 49.421,230.927 L49.421,230.927 Z" id="Fill-100" fill="#E4E5E3" sketch:type="MSShapeGroup"></path>
            <path d="M59.773,234.269 C59.773,234.7 59.702,235.09 59.561,235.438 C59.419,235.785 59.219,236.077 58.961,236.315 C58.702,236.552 58.394,236.727 58.034,236.839 C57.675,236.951 57.281,236.988 56.852,236.95 C56.424,236.912 56.033,236.807 55.677,236.631 C55.321,236.455 55.015,236.227 54.756,235.943 C54.498,235.66 54.298,235.333 54.157,234.96 C54.015,234.588 53.944,234.185 53.944,233.754 C53.944,233.321 54.015,232.934 54.157,232.591 C54.298,232.247 54.498,231.959 54.756,231.726 C55.015,231.492 55.321,231.319 55.677,231.206 C56.033,231.094 56.424,231.057 56.852,231.095 C57.281,231.132 57.675,231.239 58.034,231.414 C58.394,231.59 58.702,231.817 58.961,232.097 C59.219,232.376 59.419,232.699 59.561,233.067 C59.702,233.435 59.773,233.836 59.773,234.269 L59.773,234.269 Z M59.506,234.245 C59.506,233.877 59.446,233.523 59.325,233.185 C59.203,232.846 59.028,232.545 58.797,232.28 C58.567,232.016 58.289,231.799 57.961,231.63 C57.634,231.462 57.265,231.358 56.852,231.322 C56.44,231.286 56.073,231.324 55.75,231.435 C55.427,231.547 55.15,231.714 54.92,231.938 C54.69,232.162 54.514,232.432 54.393,232.749 C54.271,233.066 54.211,233.409 54.211,233.777 C54.211,234.153 54.271,234.511 54.393,234.85 C54.514,235.189 54.69,235.489 54.92,235.754 C55.15,236.019 55.427,236.236 55.75,236.409 C56.073,236.582 56.44,236.685 56.852,236.723 C57.265,236.759 57.634,236.72 57.961,236.604 C58.289,236.489 58.567,236.32 58.797,236.096 C59.028,235.872 59.203,235.603 59.325,235.285 C59.446,234.968 59.506,234.62 59.506,234.245 L59.506,234.245 Z" id="Fill-101" fill="#E4E5E3" sketch:type="MSShapeGroup"></path>
            <path d="M57.171,237.215 C57.06,237.215 56.946,237.21 56.831,237.199 C56.371,237.158 55.946,237.043 55.566,236.854 C55.184,236.666 54.849,236.416 54.572,236.112 C54.293,235.807 54.074,235.448 53.923,235.049 C53.772,234.65 53.694,234.214 53.694,233.754 C53.694,233.29 53.772,232.867 53.926,232.495 C54.08,232.119 54.303,231.798 54.589,231.54 C54.872,231.284 55.213,231.092 55.602,230.968 C55.988,230.847 56.414,230.804 56.874,230.846 C57.329,230.885 57.756,231.001 58.144,231.19 C58.529,231.378 58.865,231.626 59.145,231.927 C59.424,232.228 59.643,232.582 59.794,232.978 C59.946,233.373 60.023,233.808 60.023,234.269 C60.023,234.73 59.945,235.155 59.792,235.531 C59.638,235.911 59.415,236.236 59.13,236.499 C58.845,236.76 58.502,236.955 58.109,237.077 C57.817,237.169 57.502,237.215 57.171,237.215 L57.171,237.215 Z M56.559,231.559 C56.294,231.559 56.048,231.597 55.831,231.671 C55.544,231.771 55.295,231.921 55.095,232.117 C54.889,232.317 54.735,232.553 54.626,232.839 C54.517,233.126 54.461,233.441 54.461,233.777 C54.461,234.123 54.517,234.455 54.628,234.766 C54.738,235.073 54.9,235.351 55.108,235.59 C55.316,235.829 55.572,236.03 55.868,236.189 C56.157,236.344 56.496,236.44 56.875,236.474 C57.248,236.506 57.587,236.472 57.878,236.369 C58.17,236.266 58.421,236.114 58.623,235.917 C58.829,235.717 58.982,235.481 59.091,235.195 C59.201,234.908 59.256,234.589 59.256,234.245 C59.256,233.907 59.2,233.579 59.089,233.269 C58.979,232.961 58.817,232.684 58.609,232.444 C58.401,232.205 58.144,232.006 57.846,231.853 C57.548,231.699 57.207,231.604 56.831,231.571 C56.738,231.563 56.647,231.559 56.559,231.559 L56.559,231.559 Z" id="Fill-102" fill="#E4E5E3" sketch:type="MSShapeGroup"></path>
            <path d="M61.723,231.596 L63.093,236.277 L63.117,236.279 L64.644,231.853 L65.444,231.925 L66.995,236.621 L67.019,236.624 L68.376,232.184 L69.249,232.261 L67.455,237.718 L66.559,237.639 L65.044,232.958 L65.02,232.955 L63.529,237.372 L62.632,237.293 L60.839,231.519 L61.723,231.596" id="Fill-103" fill="#E4E5E3" sketch:type="MSShapeGroup"></path>
            <path d="M67.631,237.984 L66.372,237.873 L65.026,233.716 L63.703,237.639 L62.443,237.527 L60.49,231.237 L61.915,231.361 L63.124,235.492 L64.471,231.587 L65.63,231.69 L66.999,235.835 L68.197,231.917 L69.585,232.039 L67.631,237.984 L67.631,237.984 Z M66.746,237.404 L67.279,237.451 L68.913,232.482 L68.556,232.45 L67.196,236.898 L66.831,236.852 L66.758,236.699 L65.258,232.159 L64.816,232.12 L63.29,236.545 L62.925,236.515 L62.854,236.348 L61.531,231.83 L61.188,231.8 L62.821,237.059 L63.355,237.106 L64.848,232.683 L65.208,232.726 L65.282,232.881 L66.746,237.404 L66.746,237.404 Z" id="Fill-104" fill="#E4E5E3" sketch:type="MSShapeGroup"></path>
            <path d="M70.642,233.031 C70.634,232.791 70.622,232.574 70.606,232.38 L71.394,232.449 C71.409,232.603 71.421,232.772 71.43,232.957 C71.438,233.142 71.442,233.294 71.442,233.414 L71.466,233.416 C71.627,233.102 71.87,232.857 72.193,232.683 C72.516,232.507 72.88,232.438 73.283,232.473 C73.389,232.482 73.483,232.494 73.568,232.51 C73.653,232.525 73.74,232.549 73.829,232.581 L73.72,233.352 C73.671,233.331 73.59,233.308 73.478,233.282 C73.364,233.256 73.252,233.237 73.138,233.228 C72.92,233.208 72.71,233.229 72.508,233.292 C72.306,233.353 72.13,233.464 71.981,233.622 C71.832,233.78 71.71,233.989 71.618,234.249 C71.524,234.508 71.478,234.825 71.478,235.2 L71.478,238.073 L70.654,238.001 L70.654,233.621 C70.654,233.469 70.65,233.273 70.642,233.031" id="Fill-105" fill="#E4E5E3" sketch:type="MSShapeGroup"></path>
            <path d="M71.728,238.346 L70.404,238.231 L70.404,233.621 C70.404,233.471 70.4,233.277 70.392,233.04 C70.385,232.804 70.373,232.591 70.357,232.4 L70.333,232.104 L71.622,232.219 L71.642,232.424 C71.652,232.525 71.662,232.634 71.669,232.748 C71.789,232.639 71.924,232.544 72.074,232.463 C72.438,232.266 72.854,232.183 73.305,232.224 C73.42,232.234 73.522,232.247 73.614,232.264 C73.711,232.282 73.812,232.309 73.914,232.346 L74.105,232.415 L73.922,233.708 L73.623,233.582 C73.583,233.565 73.516,233.547 73.423,233.526 C73.319,233.502 73.218,233.485 73.117,233.477 C72.927,233.46 72.752,233.478 72.583,233.531 C72.42,233.58 72.284,233.666 72.163,233.794 C72.037,233.927 71.933,234.108 71.853,234.333 C71.77,234.563 71.728,234.856 71.728,235.2 L71.728,238.346 L71.728,238.346 Z M70.904,237.772 L71.228,237.801 L71.228,235.2 C71.228,234.797 71.28,234.448 71.382,234.164 C71.485,233.875 71.626,233.634 71.799,233.45 C71.979,233.26 72.193,233.126 72.436,233.053 C72.666,232.981 72.909,232.957 73.161,232.978 C73.277,232.988 73.395,233.007 73.512,233.034 L73.551,232.761 C73.541,232.759 73.532,232.757 73.523,232.756 C73.445,232.741 73.357,232.731 73.26,232.722 C72.916,232.691 72.59,232.751 72.313,232.902 C72.032,233.054 71.828,233.26 71.688,233.53 L71.612,233.679 L71.216,233.647 L71.192,233.414 C71.192,233.297 71.188,233.147 71.18,232.968 C71.175,232.867 71.169,232.772 71.163,232.68 L70.876,232.654 C70.882,232.772 70.888,232.894 70.892,233.023 C70.9,233.268 70.904,233.467 70.904,233.621 L70.904,237.772 L70.904,237.772 Z" id="Fill-106" fill="#E4E5E3" sketch:type="MSShapeGroup"></path>
            <path d="M76.022,230.698 C76.022,230.866 75.961,230.999 75.84,231.097 C75.719,231.193 75.585,231.235 75.44,231.223 C75.294,231.21 75.162,231.145 75.04,231.026 C74.919,230.907 74.858,230.764 74.858,230.596 C74.858,230.428 74.919,230.295 75.04,230.198 C75.162,230.101 75.294,230.058 75.44,230.071 C75.585,230.084 75.719,230.149 75.84,230.269 C75.961,230.387 76.022,230.53 76.022,230.698 L76.022,230.698 Z M75.852,238.459 L75.028,238.387 L75.028,232.771 L75.852,232.843 L75.852,238.459 L75.852,238.459 Z" id="Fill-107" fill="#E4E5E3" sketch:type="MSShapeGroup"></path>
            <path d="M76.102,238.731 L74.778,238.616 L74.778,232.498 L76.102,232.613 L76.102,238.731 L76.102,238.731 Z M75.278,238.157 L75.602,238.187 L75.602,233.072 L75.278,233.043 L75.278,238.157 L75.278,238.157 Z M75.49,231.475 L75.418,231.472 C75.215,231.454 75.029,231.364 74.866,231.206 C74.697,231.04 74.608,230.829 74.608,230.596 C74.608,230.352 74.704,230.147 74.884,230.003 C75.036,229.881 75.206,229.818 75.388,229.818 L75.463,229.822 C75.666,229.84 75.853,229.931 76.015,230.091 C76.183,230.254 76.272,230.465 76.272,230.698 C76.272,230.941 76.177,231.147 75.997,231.291 C75.844,231.413 75.674,231.475 75.49,231.475 L75.49,231.475 Z M75.409,230.32 C75.317,230.32 75.258,230.344 75.197,230.394 C75.153,230.428 75.108,230.479 75.108,230.596 C75.108,230.696 75.143,230.776 75.215,230.849 C75.294,230.925 75.375,230.966 75.461,230.974 L75.49,231.225 L75.49,230.975 C75.56,230.975 75.621,230.951 75.684,230.901 C75.745,230.852 75.772,230.791 75.772,230.698 C75.772,230.599 75.738,230.519 75.665,230.447 C75.586,230.369 75.505,230.328 75.419,230.32 L75.409,230.32 L75.409,230.32 Z" id="Fill-108" fill="#E4E5E3" sketch:type="MSShapeGroup"></path>
            <path d="M80.602,233.946 L79.002,233.806 L79.002,237.082 C79.002,237.29 79.023,237.463 79.063,237.602 C79.104,237.742 79.162,237.853 79.239,237.936 C79.315,238.019 79.407,238.079 79.512,238.116 C79.616,238.154 79.73,238.178 79.851,238.189 C79.964,238.198 80.083,238.192 80.208,238.172 C80.333,238.15 80.452,238.117 80.566,238.071 L80.602,238.782 C80.457,238.825 80.305,238.854 80.148,238.868 C79.99,238.883 79.818,238.881 79.633,238.865 C79.479,238.852 79.317,238.817 79.148,238.763 C78.978,238.707 78.821,238.617 78.676,238.493 C78.53,238.367 78.411,238.205 78.318,238.005 C78.225,237.805 78.179,237.549 78.179,237.236 L78.179,233.732 L77.003,233.629 L77.003,232.944 L78.179,233.049 L78.179,231.465 L79.002,231.537 L79.002,233.121 L80.602,233.263 L80.602,233.946" id="Fill-109" fill="#E4E5E3" sketch:type="MSShapeGroup"></path>
            <path d="M79.921,239.128 C79.823,239.128 79.719,239.123 79.612,239.114 C79.439,239.099 79.257,239.06 79.071,239.001 C78.87,238.935 78.683,238.828 78.513,238.684 C78.339,238.532 78.198,238.34 78.091,238.11 C77.983,237.878 77.929,237.584 77.929,237.236 L77.929,233.961 L76.753,233.857 L76.753,232.671 L77.929,232.775 L77.929,231.192 L79.252,231.308 L79.252,232.893 L80.852,233.034 L80.852,234.219 L79.252,234.078 L79.252,237.082 C79.252,237.264 79.27,237.416 79.303,237.533 C79.333,237.635 79.373,237.713 79.422,237.767 C79.472,237.819 79.528,237.856 79.595,237.881 C79.678,237.911 79.771,237.931 79.873,237.94 C79.965,237.945 80.064,237.941 80.168,237.925 C80.274,237.907 80.377,237.878 80.472,237.84 L80.798,237.708 L80.862,238.966 L80.673,239.022 C80.509,239.07 80.34,239.102 80.169,239.117 C80.091,239.125 80.008,239.128 79.921,239.128 L79.921,239.128 Z M77.253,233.4 L78.429,233.504 L78.429,237.236 C78.429,237.511 78.468,237.733 78.545,237.899 C78.621,238.065 78.721,238.201 78.839,238.304 C78.958,238.405 79.088,238.48 79.226,238.525 C79.375,238.573 79.521,238.605 79.655,238.616 C79.823,238.631 79.98,238.633 80.125,238.619 C80.198,238.613 80.271,238.603 80.342,238.589 L80.333,238.402 C80.305,238.408 80.278,238.413 80.251,238.418 C80.1,238.442 79.964,238.45 79.829,238.438 C79.684,238.425 79.548,238.396 79.426,238.352 C79.286,238.302 79.161,238.22 79.056,238.107 C78.952,237.995 78.874,237.849 78.823,237.672 C78.775,237.507 78.752,237.314 78.752,237.082 L78.752,233.533 L80.352,233.674 L80.352,233.491 L78.752,233.35 L78.752,231.767 L78.429,231.737 L78.429,233.322 L77.253,233.218 L77.253,233.4 L77.253,233.4 Z" id="Fill-110" fill="#E4E5E3" sketch:type="MSShapeGroup"></path>
            <path d="M87.048,236.472 L87.048,236.651 C87.048,236.716 87.044,236.783 87.036,236.854 L82.334,236.44 C82.342,236.72 82.399,236.989 82.504,237.247 C82.609,237.504 82.754,237.732 82.941,237.933 C83.126,238.134 83.344,238.299 83.595,238.429 C83.845,238.559 84.116,238.637 84.407,238.663 C84.835,238.7 85.205,238.635 85.516,238.466 C85.827,238.298 86.063,238.093 86.225,237.851 L86.843,238.386 C86.503,238.779 86.129,239.051 85.722,239.198 C85.314,239.346 84.875,239.399 84.407,239.358 C83.986,239.321 83.597,239.213 83.237,239.033 C82.878,238.853 82.569,238.62 82.311,238.334 C82.052,238.047 81.848,237.717 81.699,237.344 C81.549,236.97 81.474,236.571 81.474,236.147 C81.474,235.724 81.547,235.338 81.693,234.991 C81.838,234.644 82.04,234.35 82.298,234.108 C82.557,233.867 82.859,233.689 83.208,233.57 C83.555,233.453 83.93,233.412 84.335,233.448 C84.778,233.487 85.17,233.596 85.509,233.773 C85.849,233.952 86.131,234.177 86.357,234.448 C86.584,234.721 86.755,235.029 86.873,235.376 C86.989,235.722 87.048,236.088 87.048,236.472 L87.048,236.472 Z M86.212,236.134 C86.188,235.603 86.016,235.15 85.697,234.774 C85.378,234.398 84.924,234.184 84.335,234.132 C84.06,234.107 83.805,234.136 83.571,234.215 C83.336,234.294 83.13,234.412 82.953,234.568 C82.775,234.725 82.633,234.908 82.529,235.118 C82.424,235.329 82.363,235.554 82.347,235.792 L86.212,236.134 L86.212,236.134 Z" id="Fill-111" fill="#E4E5E3" sketch:type="MSShapeGroup"></path>
            <path d="M84.707,239.622 C84.601,239.622 84.494,239.617 84.385,239.607 C83.935,239.567 83.511,239.45 83.125,239.257 C82.74,239.065 82.403,238.81 82.125,238.502 C81.847,238.193 81.625,237.835 81.466,237.437 C81.306,237.035 81.224,236.602 81.224,236.147 C81.224,235.692 81.304,235.272 81.462,234.895 C81.62,234.517 81.844,234.19 82.128,233.926 C82.411,233.662 82.747,233.463 83.127,233.334 C83.507,233.205 83.918,233.162 84.357,233.199 C84.832,233.241 85.259,233.359 85.626,233.552 C85.993,233.746 86.304,233.993 86.549,234.288 C86.795,234.583 86.983,234.922 87.109,235.296 C87.235,235.667 87.298,236.063 87.298,236.472 L87.298,236.651 C87.298,236.725 87.294,236.802 87.285,236.884 L87.256,237.125 L82.612,236.715 C82.637,236.864 82.678,237.011 82.736,237.152 C82.829,237.38 82.959,237.585 83.124,237.762 C83.289,237.941 83.485,238.091 83.71,238.207 C83.93,238.321 84.172,238.391 84.429,238.414 C84.8,238.443 85.13,238.39 85.397,238.246 C85.67,238.099 85.879,237.919 86.017,237.712 L86.174,237.477 L87.195,238.36 L87.032,238.549 C86.665,238.975 86.252,239.273 85.807,239.434 C85.46,239.559 85.091,239.622 84.707,239.622 L84.707,239.622 Z M84.055,233.685 C83.785,233.685 83.526,233.727 83.288,233.808 C82.971,233.915 82.703,234.073 82.469,234.291 C82.237,234.507 82.054,234.774 81.924,235.088 C81.791,235.403 81.724,235.76 81.724,236.147 C81.724,236.537 81.794,236.908 81.931,237.251 C82.068,237.595 82.258,237.902 82.496,238.167 C82.732,238.429 83.02,238.645 83.349,238.81 C83.679,238.975 84.042,239.075 84.429,239.109 C84.855,239.146 85.263,239.098 85.637,238.963 C85.936,238.855 86.219,238.668 86.483,238.405 L86.259,238.211 C86.092,238.392 85.883,238.552 85.634,238.685 C85.282,238.876 84.86,238.954 84.385,238.912 C84.062,238.883 83.757,238.795 83.48,238.65 C83.203,238.507 82.96,238.322 82.757,238.102 C82.552,237.882 82.388,237.625 82.273,237.341 C82.157,237.056 82.093,236.755 82.085,236.446 L82.077,236.166 L86.798,236.583 L86.798,236.472 C86.798,236.117 86.744,235.775 86.636,235.456 C86.529,235.141 86.371,234.856 86.165,234.608 C85.962,234.364 85.702,234.157 85.393,233.995 C85.085,233.833 84.722,233.733 84.313,233.697 C84.225,233.69 84.139,233.685 84.055,233.685 L84.055,233.685 Z M86.475,236.408 L82.081,236.02 L82.097,235.775 C82.115,235.506 82.186,235.247 82.305,235.007 C82.424,234.769 82.586,234.558 82.788,234.381 C82.99,234.202 83.227,234.067 83.491,233.978 C83.758,233.888 84.048,233.856 84.356,233.883 C85.01,233.94 85.525,234.185 85.888,234.612 C86.242,235.03 86.435,235.538 86.462,236.122 L86.475,236.408 L86.475,236.408 Z M82.632,235.566 L85.933,235.858 C85.873,235.506 85.732,235.202 85.507,234.936 C85.229,234.608 84.838,234.427 84.313,234.381 C84.075,234.359 83.853,234.383 83.651,234.452 C83.45,234.52 83.271,234.622 83.119,234.756 C82.965,234.891 82.842,235.05 82.752,235.23 C82.699,235.337 82.659,235.45 82.632,235.566 L82.632,235.566 Z" id="Fill-112" fill="#E4E5E3" sketch:type="MSShapeGroup"></path>
            <path d="M17.423,239.318 C17.423,239.679 17.356,239.99 17.223,240.254 C17.09,240.519 16.91,240.733 16.684,240.897 C16.458,241.061 16.193,241.178 15.89,241.247 C15.587,241.316 15.266,241.336 14.927,241.306 L12.709,241.11 L12.709,245.286 L12.443,245.263 L12.443,236.767 L14.769,236.972 C15.076,236.999 15.387,237.06 15.702,237.156 C16.017,237.252 16.302,237.392 16.557,237.574 C16.811,237.756 17.019,237.991 17.181,238.277 C17.342,238.564 17.423,238.91 17.423,239.318 L17.423,239.318 Z M17.156,239.295 C17.156,238.935 17.088,238.629 16.95,238.376 C16.813,238.124 16.635,237.917 16.417,237.754 C16.199,237.59 15.955,237.465 15.684,237.377 C15.413,237.289 15.145,237.233 14.878,237.21 L12.709,237.019 L12.709,240.882 L14.939,241.079 C15.206,241.103 15.472,241.09 15.738,241.041 C16.005,240.993 16.243,240.898 16.454,240.757 C16.664,240.615 16.833,240.424 16.962,240.184 C17.092,239.943 17.156,239.647 17.156,239.295 L17.156,239.295 Z" id="Fill-113" fill="#E4E5E3" sketch:type="MSShapeGroup"></path>
            <path d="M12.959,245.56 L12.193,245.491 L12.193,236.493 L14.791,236.723 C15.114,236.751 15.445,236.816 15.775,236.917 C16.114,237.021 16.426,237.173 16.703,237.371 C16.983,237.571 17.217,237.835 17.398,238.154 C17.581,238.477 17.673,238.868 17.673,239.318 C17.673,239.716 17.597,240.068 17.446,240.366 C17.295,240.667 17.088,240.913 16.83,241.1 C16.58,241.282 16.282,241.414 15.946,241.491 C15.619,241.565 15.27,241.587 14.904,241.555 L12.959,241.384 L12.959,245.56 L12.959,245.56 Z M12.959,240.653 L14.961,240.83 C15.206,240.852 15.45,240.84 15.693,240.795 C15.925,240.754 16.133,240.671 16.314,240.55 C16.488,240.432 16.632,240.269 16.742,240.065 C16.851,239.863 16.906,239.603 16.906,239.295 C16.906,238.978 16.847,238.71 16.73,238.495 C16.612,238.277 16.456,238.095 16.268,237.954 C16.074,237.809 15.852,237.694 15.607,237.614 C15.355,237.533 15.103,237.481 14.856,237.459 L12.959,237.292 L12.959,240.653 L12.959,240.653 Z" id="Fill-114" fill="#E4E5E3" sketch:type="MSShapeGroup"></path>
            <path d="M25.384,244.539 C25.271,244.949 25.085,245.298 24.827,245.588 C24.568,245.877 24.231,246.093 23.815,246.236 C23.398,246.38 22.888,246.425 22.282,246.371 C21.676,246.317 21.165,246.183 20.749,245.966 C20.333,245.749 19.996,245.474 19.737,245.139 C19.479,244.804 19.293,244.422 19.18,243.991 C19.067,243.561 19.01,243.106 19.01,242.626 L19.01,237.347 L19.277,237.37 L19.277,242.602 C19.277,242.937 19.311,243.299 19.379,243.685 C19.448,244.071 19.59,244.435 19.804,244.778 C20.018,245.121 20.321,245.418 20.713,245.668 C21.104,245.919 21.627,246.073 22.282,246.131 C22.92,246.188 23.435,246.129 23.827,245.955 C24.219,245.782 24.523,245.543 24.742,245.238 C24.96,244.934 25.105,244.594 25.178,244.221 C25.251,243.847 25.287,243.484 25.287,243.132 L25.287,237.9 L25.554,237.924 L25.554,243.204 C25.554,243.684 25.497,244.129 25.384,244.539" id="Fill-115" fill="#E4E5E3" sketch:type="MSShapeGroup"></path>
            <path d="M22.755,246.643 C22.598,246.643 22.433,246.636 22.26,246.62 C21.623,246.563 21.076,246.418 20.633,246.188 C20.187,245.954 19.818,245.653 19.54,245.291 C19.261,244.931 19.059,244.515 18.938,244.055 C18.82,243.606 18.76,243.125 18.76,242.626 L18.76,237.074 L19.527,237.142 L19.527,242.602 C19.527,242.922 19.56,243.272 19.625,243.641 C19.688,243.993 19.82,244.331 20.016,244.645 C20.209,244.956 20.489,245.228 20.847,245.457 C21.203,245.685 21.693,245.828 22.304,245.882 C22.894,245.935 23.375,245.882 23.726,245.727 C24.074,245.573 24.347,245.359 24.539,245.093 C24.735,244.818 24.867,244.51 24.932,244.173 C25.002,243.817 25.037,243.468 25.037,243.132 L25.037,237.628 L25.804,237.695 L25.804,243.204 C25.804,243.703 25.744,244.175 25.625,244.606 C25.502,245.051 25.296,245.436 25.013,245.754 C24.727,246.074 24.351,246.315 23.896,246.473 C23.568,246.586 23.185,246.643 22.755,246.643" id="Fill-116" fill="#E4E5E3" sketch:type="MSShapeGroup"></path>
            <path d="M32.909,244.801 C32.909,245.257 32.821,245.623 32.648,245.9 C32.474,246.177 32.252,246.387 31.981,246.531 C31.711,246.675 31.412,246.767 31.085,246.806 C30.758,246.845 30.444,246.852 30.146,246.825 L27.517,246.593 L27.517,238.097 L29.855,238.304 C30.178,238.332 30.499,238.393 30.818,238.484 C31.137,238.577 31.422,238.71 31.673,238.884 C31.923,239.059 32.125,239.28 32.279,239.55 C32.432,239.819 32.509,240.149 32.509,240.542 C32.509,240.846 32.46,241.105 32.363,241.32 C32.267,241.536 32.135,241.717 31.969,241.862 C31.804,242.008 31.616,242.121 31.406,242.202 C31.196,242.284 30.982,242.339 30.764,242.367 L30.764,242.392 C30.982,242.435 31.216,242.514 31.466,242.628 C31.717,242.741 31.949,242.897 32.164,243.091 C32.377,243.286 32.555,243.526 32.696,243.81 C32.837,244.095 32.909,244.425 32.909,244.801 L32.909,244.801 Z M32.242,240.554 C32.242,240.21 32.174,239.916 32.036,239.672 C31.899,239.428 31.717,239.228 31.491,239.071 C31.265,238.916 31.004,238.795 30.709,238.709 C30.415,238.623 30.105,238.565 29.782,238.537 L27.783,238.36 L27.783,242.02 L29.843,242.202 C30.134,242.228 30.422,242.218 30.709,242.171 C30.996,242.124 31.252,242.037 31.479,241.908 C31.705,241.78 31.889,241.605 32.03,241.382 C32.171,241.158 32.242,240.882 32.242,240.554 L32.242,240.554 Z M32.642,244.814 C32.642,244.429 32.563,244.095 32.406,243.809 C32.248,243.522 32.048,243.285 31.806,243.096 C31.563,242.906 31.297,242.761 31.006,242.659 C30.715,242.558 30.432,242.494 30.158,242.47 L27.783,242.261 L27.783,246.376 L30.025,246.574 C30.396,246.606 30.744,246.6 31.066,246.553 C31.39,246.505 31.667,246.411 31.897,246.272 C32.127,246.132 32.309,245.941 32.442,245.701 C32.575,245.462 32.642,245.165 32.642,244.814 L32.642,244.814 Z" id="Fill-117" fill="#E4E5E3" sketch:type="MSShapeGroup"></path>
            <path d="M30.511,247.091 C30.379,247.091 30.251,247.085 30.124,247.074 L27.267,246.821 L27.267,237.823 L29.877,238.055 C30.212,238.084 30.553,238.148 30.887,238.244 C31.233,238.345 31.545,238.49 31.815,238.679 C32.096,238.874 32.324,239.125 32.496,239.426 C32.67,239.732 32.759,240.108 32.759,240.542 C32.759,240.88 32.703,241.176 32.591,241.423 C32.481,241.67 32.327,241.881 32.134,242.05 C31.969,242.195 31.782,242.315 31.576,242.403 C31.844,242.525 32.098,242.694 32.332,242.905 C32.567,243.121 32.765,243.388 32.92,243.698 C33.079,244.019 33.159,244.389 33.159,244.801 C33.159,245.301 33.058,245.716 32.86,246.033 C32.664,246.346 32.408,246.587 32.099,246.752 C31.801,246.91 31.47,247.012 31.115,247.054 C30.908,247.078 30.707,247.091 30.511,247.091 L30.511,247.091 Z M28.033,246.147 L30.047,246.325 C30.191,246.338 30.333,246.344 30.47,246.344 C30.665,246.344 30.854,246.331 31.03,246.306 C31.318,246.263 31.566,246.18 31.768,246.058 C31.961,245.94 32.11,245.784 32.223,245.58 C32.335,245.379 32.392,245.121 32.392,244.814 C32.392,244.47 32.325,244.181 32.187,243.929 C32.046,243.675 31.866,243.46 31.652,243.293 C31.432,243.121 31.187,242.987 30.924,242.896 C30.653,242.801 30.388,242.741 30.136,242.719 L28.033,242.534 L28.033,246.147 L28.033,246.147 Z M28.033,241.792 L29.865,241.953 C30.134,241.977 30.405,241.968 30.668,241.924 C30.926,241.882 31.157,241.804 31.354,241.691 C31.544,241.584 31.7,241.435 31.819,241.248 C31.934,241.066 31.992,240.832 31.992,240.554 C31.992,240.255 31.934,239.999 31.818,239.795 C31.701,239.585 31.542,239.411 31.349,239.277 C31.146,239.138 30.906,239.027 30.639,238.949 C30.36,238.867 30.064,238.813 29.76,238.786 L28.033,238.634 L28.033,241.792 L28.033,241.792 Z" id="Fill-118" fill="#E4E5E3" sketch:type="MSShapeGroup"></path>
            <path d="M34.933,247.248 L34.933,238.752 L35.199,238.775 L35.199,247.031 L39.464,247.407 L39.464,247.647 L34.933,247.248" id="Fill-119" fill="#E4E5E3" sketch:type="MSShapeGroup"></path>
            <path d="M39.714,247.921 L34.683,247.477 L34.683,238.478 L35.449,238.547 L35.449,246.803 L39.714,247.179 L39.714,247.921" id="Fill-120" fill="#E4E5E3" sketch:type="MSShapeGroup"></path>
            <path d="M40.967,247.78 L40.967,239.284 L41.233,239.308 L41.233,247.804 L40.967,247.78" id="Fill-121" fill="#E4E5E3" sketch:type="MSShapeGroup"></path>
            <path d="M41.483,248.077 L40.717,248.009 L40.717,239.011 L41.483,239.079 L41.483,248.077" id="Fill-122" fill="#E4E5E3" sketch:type="MSShapeGroup"></path>
            <path d="M49.212,248.43 C48.659,248.593 48.095,248.649 47.521,248.599 C46.876,248.542 46.286,248.378 45.753,248.106 C45.22,247.836 44.759,247.485 44.372,247.055 C43.984,246.625 43.683,246.124 43.469,245.553 C43.254,244.982 43.148,244.372 43.148,243.725 C43.148,243.077 43.254,242.486 43.469,241.953 C43.683,241.42 43.984,240.973 44.372,240.61 C44.759,240.249 45.222,239.979 45.758,239.804 C46.296,239.627 46.884,239.566 47.521,239.623 C48.055,239.67 48.574,239.806 49.079,240.03 C49.584,240.255 50.014,240.567 50.37,240.966 L50.2,241.143 C50.03,240.952 49.838,240.781 49.625,240.63 C49.41,240.48 49.184,240.35 48.946,240.24 C48.707,240.132 48.467,240.046 48.225,239.984 C47.982,239.923 47.748,239.883 47.521,239.862 C46.908,239.809 46.349,239.869 45.844,240.045 C45.339,240.221 44.906,240.483 44.547,240.837 C44.188,241.189 43.909,241.614 43.711,242.112 C43.513,242.611 43.414,243.156 43.414,243.748 C43.414,244.341 43.511,244.902 43.705,245.435 C43.898,245.969 44.175,246.443 44.535,246.859 C44.894,247.274 45.327,247.615 45.831,247.88 C46.336,248.145 46.899,248.304 47.521,248.358 C48.055,248.406 48.582,248.351 49.103,248.192 C49.625,248.034 50.054,247.767 50.394,247.388 L50.587,247.585 C50.224,247.985 49.766,248.267 49.212,248.43" id="Fill-123" fill="#E4E5E3" sketch:type="MSShapeGroup"></path>
            <path d="M47.927,248.866 C47.785,248.866 47.643,248.86 47.499,248.848 C46.824,248.788 46.198,248.614 45.64,248.329 C45.081,248.046 44.591,247.673 44.186,247.222 C43.779,246.771 43.459,246.238 43.234,245.641 C43.011,245.045 42.898,244.4 42.898,243.725 C42.898,243.048 43.012,242.42 43.237,241.86 C43.463,241.296 43.787,240.815 44.201,240.428 C44.614,240.042 45.112,239.753 45.681,239.566 C46.249,239.38 46.876,239.314 47.544,239.374 C48.102,239.423 48.652,239.567 49.181,239.802 C49.715,240.04 50.178,240.376 50.556,240.8 L50.71,240.972 L50.193,241.511 L50.013,241.309 C49.856,241.133 49.677,240.973 49.48,240.834 C49.279,240.693 49.064,240.569 48.841,240.468 C48.614,240.364 48.386,240.283 48.163,240.227 C47.939,240.17 47.715,240.131 47.499,240.111 C46.925,240.062 46.395,240.117 45.926,240.281 C45.456,240.444 45.051,240.691 44.722,241.015 C44.389,241.341 44.127,241.741 43.943,242.204 C43.758,242.671 43.664,243.19 43.664,243.748 C43.664,244.309 43.757,244.848 43.94,245.35 C44.122,245.852 44.386,246.305 44.724,246.696 C45.062,247.086 45.473,247.41 45.948,247.658 C46.42,247.906 46.957,248.058 47.544,248.109 C48.044,248.155 48.542,248.102 49.03,247.953 C49.512,247.808 49.897,247.567 50.208,247.221 L50.386,247.022 L50.931,247.578 L50.773,247.753 C50.38,248.185 49.879,248.494 49.283,248.67 C48.839,248.801 48.383,248.866 47.927,248.866" id="Fill-124" fill="#E4E5E3" sketch:type="MSShapeGroup"></path>
            <path d="M59.191,249.389 L58.173,246.863 L53.193,246.423 L52.139,248.767 L51.848,248.74 L55.568,240.573 L55.907,240.602 L59.482,249.414 L59.191,249.389 L59.191,249.389 Z M55.726,240.755 L53.29,246.204 L58.088,246.627 L55.726,240.755 L55.726,240.755 Z" id="Fill-125" fill="#E4E5E3" sketch:type="MSShapeGroup"></path>
            <path d="M59.867,249.698 L59.017,249.624 L57.999,247.099 L53.348,246.687 L52.294,249.031 L51.474,248.957 L55.414,240.309 L55.642,240.329 L55.738,240.115 L55.83,240.345 L56.082,240.366 L56.139,240.509 L59.867,249.698 L59.867,249.698 Z M53.662,245.986 L57.704,246.342 L55.713,241.395 L53.662,245.986 L53.662,245.986 Z" id="Fill-126" fill="#E4E5E3" sketch:type="MSShapeGroup"></path>
            <path d="M62.378,241.414 L62.378,249.67 L62.111,249.647 L62.111,241.391 L59.191,241.133 L59.191,240.893 L65.298,241.432 L65.298,241.672 L62.378,241.414" id="Fill-127" fill="#E4E5E3" sketch:type="MSShapeGroup"></path>
            <path d="M62.628,249.942 L61.861,249.876 L61.861,241.619 L58.941,241.361 L58.941,240.619 L65.548,241.203 L65.548,241.945 L62.628,241.688 L62.628,249.942" id="Fill-128" fill="#E4E5E3" sketch:type="MSShapeGroup"></path>
            <path d="M66.801,250.06 L66.801,241.565 L67.067,241.588 L67.067,250.084 L66.801,250.06" id="Fill-129" fill="#E4E5E3" sketch:type="MSShapeGroup"></path>
            <path d="M67.317,250.356 L66.551,250.289 L66.551,241.292 L67.317,241.359 L67.317,250.356" id="Fill-130" fill="#E4E5E3" sketch:type="MSShapeGroup"></path>
            <path d="M77.803,246.783 C77.803,247.44 77.692,248.032 77.47,248.56 C77.248,249.088 76.94,249.533 76.549,249.895 C76.157,250.256 75.69,250.525 75.149,250.701 C74.608,250.877 74.023,250.939 73.393,250.883 C72.763,250.827 72.176,250.663 71.636,250.391 C71.094,250.119 70.628,249.769 70.236,249.338 C69.844,248.907 69.537,248.408 69.315,247.841 C69.093,247.272 68.982,246.661 68.982,246.005 C68.982,245.349 69.093,244.757 69.315,244.228 C69.537,243.7 69.844,243.255 70.236,242.894 C70.628,242.532 71.092,242.264 71.629,242.087 C72.167,241.91 72.754,241.85 73.393,241.906 C74.031,241.963 74.618,242.126 75.156,242.397 C75.692,242.669 76.157,243.019 76.549,243.45 C76.94,243.881 77.248,244.38 77.47,244.948 C77.692,245.516 77.803,246.128 77.803,246.783 L77.803,246.783 Z M77.537,246.76 C77.537,246.168 77.435,245.604 77.233,245.071 C77.032,244.537 76.747,244.062 76.379,243.646 C76.012,243.229 75.573,242.889 75.065,242.624 C74.556,242.359 73.998,242.199 73.393,242.147 C72.786,242.093 72.229,242.153 71.72,242.328 C71.211,242.504 70.773,242.767 70.405,243.119 C70.038,243.47 69.753,243.895 69.551,244.393 C69.349,244.892 69.249,245.436 69.249,246.028 C69.249,246.62 69.347,247.183 69.545,247.717 C69.743,248.25 70.023,248.725 70.388,249.141 C70.751,249.557 71.187,249.897 71.696,250.162 C72.205,250.428 72.771,250.587 73.393,250.643 C74.015,250.697 74.58,250.637 75.089,250.462 C75.598,250.287 76.034,250.023 76.397,249.672 C76.761,249.319 77.042,248.895 77.24,248.395 C77.438,247.898 77.537,247.352 77.537,246.76 L77.537,246.76 Z" id="Fill-131" fill="#E4E5E3" sketch:type="MSShapeGroup"></path>
            <path d="M73.835,251.152 C73.683,251.152 73.528,251.146 73.371,251.132 C72.711,251.073 72.089,250.899 71.523,250.614 C70.957,250.33 70.462,249.957 70.051,249.506 C69.64,249.055 69.314,248.524 69.082,247.932 C68.85,247.338 68.732,246.69 68.732,246.005 C68.732,245.318 68.851,244.688 69.085,244.131 C69.319,243.571 69.65,243.094 70.066,242.71 C70.483,242.326 70.982,242.036 71.551,241.85 C72.12,241.663 72.745,241.596 73.415,241.657 C74.083,241.717 74.706,241.891 75.269,242.174 C75.831,242.459 76.324,242.832 76.734,243.282 C77.145,243.734 77.471,244.264 77.703,244.857 C77.935,245.451 78.053,246.1 78.053,246.783 C78.053,247.47 77.935,248.101 77.7,248.657 C77.465,249.217 77.134,249.694 76.718,250.078 C76.301,250.463 75.799,250.753 75.227,250.939 C74.79,251.081 74.322,251.152 73.835,251.152 L73.835,251.152 Z M72.973,242.378 C72.557,242.378 72.163,242.44 71.801,242.565 C71.328,242.728 70.917,242.976 70.578,243.3 C70.239,243.623 69.972,244.022 69.783,244.486 C69.594,244.952 69.498,245.471 69.498,246.028 C69.498,246.588 69.593,247.127 69.779,247.63 C69.966,248.133 70.234,248.586 70.576,248.976 C70.918,249.367 71.333,249.691 71.811,249.94 C72.287,250.189 72.826,250.341 73.415,250.394 C73.555,250.406 73.692,250.412 73.826,250.412 C74.25,250.412 74.648,250.35 75.008,250.226 C75.479,250.064 75.888,249.816 76.224,249.492 C76.561,249.166 76.824,248.766 77.007,248.304 C77.193,247.837 77.287,247.317 77.287,246.76 C77.287,246.202 77.19,245.663 77,245.16 C76.81,244.657 76.538,244.204 76.192,243.81 C75.846,243.42 75.428,243.095 74.949,242.846 C74.47,242.597 73.938,242.445 73.371,242.395 C73.235,242.384 73.103,242.378 72.973,242.378 L72.973,242.378 Z" id="Fill-132" fill="#E4E5E3" sketch:type="MSShapeGroup"></path>
            <path d="M86.176,251.77 L80.021,243.067 L79.984,243.064 L79.984,251.224 L79.718,251.2 L79.718,242.704 L80.093,242.737 L86.261,251.43 L86.297,251.433 L86.297,243.285 L86.564,243.309 L86.564,251.805 L86.176,251.77" id="Fill-133" fill="#E4E5E3" sketch:type="MSShapeGroup"></path>
            <path d="M86.815,252.078 L86.039,252.01 L80.234,243.802 L80.234,251.496 L79.468,251.429 L79.468,242.431 L80.23,242.498 L86.047,250.696 L86.047,243.013 L86.815,243.079 L86.815,252.078" id="Fill-134" fill="#E4E5E3" sketch:type="MSShapeGroup"></path>
            <path d="M3.677,248.862 L1.423,245.845 L1.423,132.924 L3.677,135.94 L3.677,248.862" id="Fill-135" fill="#343433" sketch:type="MSShapeGroup"></path>
            <path d="M3.677,249.362 C3.522,249.362 3.373,249.29 3.276,249.161 L1.022,246.144 C0.958,246.058 0.923,245.952 0.923,245.845 L0.923,132.924 C0.923,132.708 1.061,132.518 1.265,132.449 C1.469,132.381 1.695,132.452 1.823,132.625 L4.077,135.642 C4.142,135.728 4.177,135.833 4.177,135.94 L4.177,248.862 C4.177,249.078 4.039,249.269 3.835,249.337 C3.783,249.354 3.729,249.362 3.677,249.362 L3.677,249.362 Z M1.923,245.679 L3.177,247.357 L3.177,136.106 L1.923,134.429 L1.923,245.679 L1.923,245.679 Z" id="Fill-136" fill="#343433" sketch:type="MSShapeGroup"></path>
        </g>
    </g>
</svg>