<?xml version="1.0" encoding="UTF-8" standalone="no"?>
<svg width="181px" height="226px" viewBox="0 0 181 226" version="1.1" xmlns="http://www.w3.org/2000/svg" xmlns:xlink="http://www.w3.org/1999/xlink" xmlns:sketch="http://www.bohemiancoding.com/sketch/ns">
    <!-- Generator: Sketch 3.3.3 (12081) - http://www.bohemiancoding.com/sketch -->
    <title>collabowrite_logo_inverted</title>
    <desc>Created with Sketch.</desc>
    <defs></defs>
    <g id="Page-1" stroke="none" stroke-width="1" fill="none" fill-rule="evenodd" sketch:type="MSPage">
        <g id="collabowrite_logo_inverted" sketch:type="MSLayerGroup">
            <path d="M90.348,50.357 C86.832,50.564 87.407,48.496 85.979,45.174 C84.053,40.689 81.749,36.368 79.129,32.249 C76.477,28.077 73.51,24.1 70.283,20.355 C67.29,16.883 63.248,14.033 60.504,10.423 C57.86,6.946 54.484,3.955 50.506,2.097 C48.591,1.202 41.167,-2.096 43.943,2.58 C48.306,9.929 55.679,11.466 61.656,16.668 C68.791,22.882 74.741,30.437 79.385,38.668 C81.719,42.805 83.505,47.111 85.388,51.457 C86.11,53.132 82.431,57.3 83.246,60.281 C83.922,62.757 85.547,63.045 83.9,65.229 C82.86,66.606 82.009,68.12 81.314,69.698 C79.769,73.208 78.96,77.01 78.48,80.799 C77.349,89.722 77.776,98.552 78.342,107.494 C78.22,105.876 78.119,104.257 78.035,102.637 C78.504,106.858 78.672,111.134 79.076,115.368 C78.978,114.253 78.989,113.098 78.731,112.002 C79.33,118.269 80.226,124.498 81.303,130.699 C82.332,136.625 84.323,142.7 84.925,148.654 C84.721,147.777 84.549,146.891 84.299,146.025 C84.508,146.901 84.717,147.778 84.925,148.654 C84.711,147.782 85.13,149.534 84.925,148.654 C86.548,155.258 85.617,162.396 85.395,169.162 C85.147,176.743 84.983,184.329 85.014,191.915 C85.03,195.679 83.764,225.499 90.348,225.38 C96.933,225.499 95.668,195.679 95.684,191.915 C95.714,184.329 95.55,176.743 95.302,169.162 C95.08,162.396 94.148,155.258 95.772,148.654 C95.566,149.534 95.985,147.782 95.772,148.654 C95.98,147.778 96.19,146.901 96.398,146.025 C96.148,146.891 95.977,147.777 95.772,148.654 C96.375,142.7 98.365,136.625 99.395,130.699 C100.471,124.498 101.367,118.269 101.966,112.002 C101.708,113.098 101.719,114.253 101.621,115.368 C102.024,111.134 102.192,106.858 102.662,102.637 C102.578,104.257 102.477,105.876 102.354,107.494 C102.921,98.552 103.348,89.722 102.217,80.799 C101.737,77.01 100.928,73.208 99.383,69.698 C98.687,68.12 97.838,66.606 96.797,65.229 C95.148,63.045 96.775,62.757 97.451,60.281 C98.266,57.3 94.586,53.132 95.309,51.457 C97.191,47.111 98.979,42.805 101.312,38.668 C105.956,30.437 111.905,22.882 119.041,16.668 C125.018,11.466 132.391,9.929 136.754,2.58 C139.529,-2.096 132.105,1.202 130.19,2.097 C126.213,3.955 122.837,6.946 120.192,10.423 C117.449,14.033 113.407,16.883 110.414,20.355 C107.186,24.1 104.22,28.077 101.567,32.249 C98.948,36.368 96.645,40.689 94.718,45.174 C93.291,48.496 93.864,50.564 90.348,50.357" id="Fill-1" fill="#006AA7" sketch:type="MSShapeGroup"></path>
            <path d="M99.656,70.546 C103.862,91.144 103.087,112.839 98.644,133.33 C112.662,143.736 126.142,152.138 144.223,150.111 C156.225,148.766 168.453,147.522 180.565,146.186 L180.565,59.12 C153.304,61.837 126.309,63.869 99.656,70.546" id="Fill-2" fill="#006AA7" sketch:type="MSShapeGroup"></path>
            <path d="M99.656,70.546 C103.862,91.144 103.087,112.839 98.644,133.33 C110.275,142.484 122.299,152.014 137.155,152.871 C149.543,153.586 162.411,152.425 175.185,151.603 L175.185,64.54 C149.707,65.24 124.745,65.618 99.656,70.546" id="Fill-3" fill="#00A3DB" sketch:type="MSShapeGroup"></path>
            <path d="M99.656,70.546 C103.862,91.144 103.087,112.839 98.644,133.33 C109.684,142.44 120.825,153.3 134.694,155.856 C145.737,157.892 157.792,157.952 169.543,158.456 L169.543,71.393 C145.98,69.476 123.199,67.337 99.656,70.546" id="Fill-4" fill="#0082BD" sketch:type="MSShapeGroup"></path>
            <path d="M99.656,70.546 C103.862,91.144 103.087,112.839 98.644,133.33 C109.01,142.612 118.906,154.083 131.885,158.635 C141.585,162.037 152.597,163.073 163.065,164.781 C163.065,135.76 163.065,106.738 163.066,77.716 C141.683,73.306 121.585,69.13 99.656,70.546" id="Fill-5" fill="#00A1D8" sketch:type="MSShapeGroup"></path>
            <path d="M81.042,70.546 C76.904,90.281 77.697,113.391 82.054,133.33 C64.816,145.645 57.045,152.109 36.474,150.111 C24.349,148.934 12.243,147.491 0.131,146.186 L0.131,59.12 C27.347,62.053 54.697,63.038 81.042,70.546" id="Fill-6" fill="#006AA7" sketch:type="MSShapeGroup"></path>
            <path d="M81.042,70.546 C76.904,90.281 77.697,113.391 82.054,133.33 C67.903,144.003 60.458,151.114 43.542,152.873 C31.341,154.142 17.752,152.047 5.511,151.603 C5.511,122.582 5.51,93.561 5.511,64.54 C30.881,65.459 56.261,64.608 81.042,70.546" id="Fill-7" fill="#00A3DB" sketch:type="MSShapeGroup"></path>
            <path d="M81.042,70.546 C76.904,90.281 77.697,113.391 82.054,133.33 C69.751,143.133 60.959,152.572 45.999,155.855 C35.02,158.266 22.348,157.654 11.153,158.456 C11.153,129.435 11.152,100.414 11.153,71.392 C34.315,69.737 58.032,66.165 81.042,70.546" id="Fill-8" fill="#0082BD" sketch:type="MSShapeGroup"></path>
            <path d="M81.042,70.546 C76.904,90.281 77.697,113.391 82.054,133.33 C71.19,142.451 62.094,153.947 48.812,158.634 C39.196,162.026 27.63,162.835 17.634,164.781 C17.635,135.76 17.63,106.738 17.634,77.717 C37.917,73.765 60.291,67.469 81.042,70.546" id="Fill-9" fill="#00A1D8" sketch:type="MSShapeGroup"></path>
        </g>
    </g>
</svg>