<?xml version="1.0" encoding="UTF-8" standalone="no"?>
<svg width="214px" height="30px" viewBox="0 0 214 30" version="1.1" xmlns="http://www.w3.org/2000/svg" xmlns:xlink="http://www.w3.org/1999/xlink" xmlns:sketch="http://www.bohemiancoding.com/sketch/ns">
    <!-- Generator: Sketch 3.3.3 (12081) - http://www.bohemiancoding.com/sketch -->
    <title>collabowrite_text</title>
    <desc>Created with Sketch.</desc>
    <defs></defs>
    <g id="Page-1" stroke="none" stroke-width="1" fill="none" fill-rule="evenodd" sketch:type="MSPage">
        <text id="collabowrite_text" sketch:type="MSTextLayer" font-family="Avenir Next" font-size="48" font-weight="260">
            <tspan x="-35" y="73" fill="#0075B1">collabo</tspan>
            <tspan x="122.44" y="73" font-weight="normal" fill="#1E3E85">write</tspan>
        </text>
        <g id="collabowrite_text" sketch:type="MSLayerGroup">
            <path d="M9.636,12.602 C8.886,12.602 8.175,12.737 7.503,13.009 C6.831,13.279 6.231,13.687 5.701,14.229 C5.171,14.772 4.751,15.451 4.44,16.265 C4.131,17.079 3.976,18.028 3.976,19.114 C3.976,20.174 4.131,21.11 4.44,21.925 C4.751,22.738 5.164,23.424 5.682,23.979 C6.198,24.535 6.806,24.955 7.503,25.239 C8.201,25.524 8.925,25.666 9.674,25.666 C10.553,25.666 11.296,25.537 11.903,25.278 C12.51,25.02 13.015,24.696 13.415,24.309 C13.815,23.921 14.133,23.501 14.365,23.049 C14.598,22.597 14.766,22.19 14.869,21.828 L18.087,23.224 C17.854,23.895 17.518,24.574 17.078,25.259 C16.639,25.944 16.07,26.571 15.373,27.139 C14.675,27.708 13.855,28.166 12.911,28.516 C11.968,28.864 10.889,29.038 9.674,29.038 C8.304,29.038 7.044,28.786 5.895,28.282 C4.744,27.778 3.756,27.081 2.929,26.19 C2.102,25.298 1.449,24.251 0.972,23.049 C0.493,21.847 0.254,20.536 0.254,19.114 C0.254,17.667 0.493,16.336 0.972,15.121 C1.449,13.906 2.108,12.866 2.948,12 C3.788,11.135 4.783,10.456 5.934,9.965 C7.083,9.475 8.317,9.228 9.636,9.228 C10.876,9.228 11.968,9.403 12.911,9.752 C13.855,10.101 14.668,10.56 15.354,11.128 C16.038,11.697 16.587,12.337 17.001,13.047 C17.414,13.758 17.725,14.462 17.932,15.16 L14.637,16.556 C14.507,16.09 14.326,15.625 14.094,15.16 C13.861,14.694 13.544,14.275 13.144,13.9 C12.743,13.525 12.258,13.216 11.69,12.97 C11.121,12.725 10.437,12.602 9.636,12.602" id="Fill-1" fill="#005799" sketch:type="MSShapeGroup"></path>
            <path d="M30.144,9.228 C31.539,9.228 32.818,9.48 33.981,9.984 C35.144,10.488 36.152,11.181 37.005,12.059 C37.857,12.937 38.517,13.978 38.981,15.18 C39.447,16.381 39.68,17.693 39.68,19.114 C39.68,20.536 39.447,21.853 38.981,23.068 C38.517,24.283 37.857,25.33 37.005,26.209 C36.152,27.088 35.144,27.778 33.981,28.282 C32.818,28.786 31.539,29.038 30.144,29.038 C28.747,29.038 27.468,28.786 26.306,28.282 C25.143,27.778 24.135,27.088 23.281,26.209 C22.429,25.33 21.77,24.283 21.305,23.068 C20.839,21.853 20.606,20.536 20.606,19.114 C20.606,17.693 20.839,16.381 21.305,15.18 C21.77,13.978 22.429,12.937 23.281,12.059 C24.135,11.181 25.143,10.488 26.306,9.984 C27.468,9.48 28.747,9.228 30.144,9.228 L30.144,9.228 Z M30.144,25.782 C30.918,25.782 31.655,25.641 32.353,25.356 C33.051,25.071 33.671,24.645 34.214,24.076 C34.756,23.508 35.183,22.81 35.493,21.982 C35.803,21.156 35.958,20.199 35.958,19.114 C35.958,18.028 35.803,17.079 35.493,16.265 C35.183,15.451 34.756,14.76 34.214,14.19 C33.671,13.623 33.051,13.196 32.353,12.911 C31.655,12.627 30.918,12.485 30.144,12.485 C29.368,12.485 28.631,12.627 27.934,12.911 C27.235,13.196 26.615,13.623 26.072,14.19 C25.53,14.76 25.104,15.451 24.793,16.265 C24.483,17.079 24.328,18.028 24.328,19.114 C24.328,20.199 24.483,21.156 24.793,21.982 C25.104,22.81 25.53,23.508 26.072,24.076 C26.615,24.645 27.235,25.071 27.934,25.356 C28.631,25.641 29.368,25.782 30.144,25.782 L30.144,25.782 Z" id="Fill-2" fill="#005799" sketch:type="MSShapeGroup"></path>
            <path d="M44.331,0.39 L47.976,0.39 L47.976,28.457 L44.331,28.457 L44.331,0.39 Z" id="Fill-3" fill="#005799" sketch:type="MSShapeGroup"></path>
            <path d="M54.178,0.39 L57.822,0.39 L57.822,28.457 L54.178,28.457 L54.178,0.39 Z" id="Fill-4" fill="#005799" sketch:type="MSShapeGroup"></path>
            <path d="M62.861,23.456 C62.861,22.629 63.003,21.886 63.288,21.227 C63.572,20.567 63.966,20.006 64.47,19.541 C64.975,19.075 65.575,18.701 66.272,18.416 C66.971,18.132 67.72,17.926 68.522,17.796 L73.561,17.06 C74.129,16.982 74.511,16.815 74.704,16.556 C74.898,16.298 74.995,16 74.995,15.664 C74.995,14.76 74.679,13.978 74.046,13.318 C73.412,12.659 72.385,12.33 70.964,12.33 C69.671,12.33 68.677,12.685 67.979,13.397 C67.281,14.107 66.867,15.005 66.738,16.09 L63.249,15.276 C63.352,14.397 63.617,13.584 64.044,12.834 C64.47,12.085 65.019,11.445 65.691,10.915 C66.363,10.386 67.146,9.972 68.037,9.675 C68.929,9.378 69.878,9.228 70.886,9.228 C72.281,9.228 73.47,9.416 74.452,9.791 C75.435,10.166 76.235,10.663 76.856,11.283 C77.477,11.903 77.928,12.627 78.213,13.454 C78.497,14.281 78.64,15.147 78.64,16.052 L78.64,25.395 C78.64,26.222 78.665,26.881 78.717,27.371 C78.769,27.863 78.819,28.225 78.872,28.457 L75.306,28.457 C75.253,28.225 75.208,27.914 75.17,27.526 C75.131,27.139 75.111,26.609 75.111,25.937 C74.904,26.273 74.633,26.622 74.298,26.984 C73.961,27.346 73.548,27.682 73.057,27.992 C72.565,28.302 71.991,28.554 71.332,28.748 C70.673,28.941 69.93,29.038 69.103,29.038 C68.147,29.038 67.287,28.884 66.524,28.573 C65.763,28.264 65.109,27.856 64.567,27.352 C64.024,26.849 63.605,26.261 63.308,25.588 C63.01,24.917 62.861,24.206 62.861,23.456 L62.861,23.456 Z M69.606,25.976 C70.356,25.976 71.061,25.879 71.72,25.685 C72.379,25.491 72.946,25.182 73.425,24.755 C73.903,24.328 74.284,23.76 74.568,23.049 C74.853,22.338 74.995,21.478 74.995,20.471 L74.995,19.618 L69.297,20.471 C68.522,20.601 67.875,20.892 67.358,21.343 C66.841,21.796 66.583,22.435 66.583,23.262 C66.583,23.96 66.855,24.587 67.397,25.143 C67.94,25.698 68.677,25.976 69.606,25.976 L69.606,25.976 Z" id="Fill-5" fill="#005799" sketch:type="MSShapeGroup"></path>
            <path d="M84.299,28.457 L84.299,0.39 L87.904,0.39 L87.904,12.446 C88.343,11.619 89.093,10.883 90.152,10.236 C91.212,9.591 92.518,9.268 94.068,9.268 C95.489,9.268 96.729,9.519 97.789,10.023 C98.849,10.527 99.74,11.226 100.465,12.117 C101.188,13.009 101.73,14.049 102.093,15.237 C102.454,16.427 102.636,17.693 102.636,19.036 C102.636,20.433 102.441,21.73 102.054,22.933 C101.666,24.135 101.105,25.182 100.367,26.073 C99.631,26.965 98.726,27.669 97.654,28.185 C96.581,28.702 95.348,28.961 93.951,28.961 C92.556,28.961 91.348,28.677 90.327,28.108 C89.306,27.54 88.498,26.751 87.904,25.743 L87.904,28.457 L84.299,28.457 L84.299,28.457 Z M98.914,19.036 C98.914,17.021 98.423,15.425 97.44,14.249 C96.458,13.073 95.114,12.485 93.409,12.485 C92.607,12.485 91.864,12.64 91.18,12.95 C90.495,13.261 89.906,13.693 89.416,14.249 C88.925,14.805 88.544,15.489 88.273,16.304 C88.001,17.117 87.865,18.028 87.865,19.036 C87.865,20.045 88.001,20.962 88.273,21.789 C88.544,22.616 88.925,23.32 89.416,23.901 C89.906,24.483 90.495,24.93 91.18,25.239 C91.864,25.55 92.607,25.705 93.409,25.705 C95.089,25.705 96.426,25.098 97.421,23.883 C98.416,22.668 98.914,21.053 98.914,19.036 L98.914,19.036 Z" id="Fill-6" fill="#005799" sketch:type="MSShapeGroup"></path>
            <path d="M115.273,9.228 C116.668,9.228 117.947,9.48 119.11,9.984 C120.273,10.488 121.281,11.181 122.135,12.059 C122.987,12.937 123.647,13.978 124.111,15.18 C124.576,16.381 124.81,17.693 124.81,19.114 C124.81,20.536 124.576,21.853 124.111,23.068 C123.647,24.283 122.987,25.33 122.135,26.209 C121.281,27.088 120.273,27.778 119.11,28.282 C117.947,28.786 116.668,29.038 115.273,29.038 C113.877,29.038 112.598,28.786 111.436,28.282 C110.273,27.778 109.265,27.088 108.411,26.209 C107.559,25.33 106.899,24.283 106.435,23.068 C105.969,21.853 105.736,20.536 105.736,19.114 C105.736,17.693 105.969,16.381 106.435,15.18 C106.899,13.978 107.559,12.937 108.411,12.059 C109.265,11.181 110.273,10.488 111.436,9.984 C112.598,9.48 113.877,9.228 115.273,9.228 L115.273,9.228 Z M115.273,25.782 C116.048,25.782 116.784,25.641 117.482,25.356 C118.181,25.071 118.801,24.645 119.343,24.076 C119.886,23.508 120.313,22.81 120.622,21.982 C120.933,21.156 121.088,20.199 121.088,19.114 C121.088,18.028 120.933,17.079 120.622,16.265 C120.313,15.451 119.886,14.76 119.343,14.19 C118.801,13.623 118.181,13.196 117.482,12.911 C116.784,12.627 116.048,12.485 115.273,12.485 C114.497,12.485 113.761,12.627 113.064,12.911 C112.365,13.196 111.745,13.623 111.202,14.19 C110.66,14.76 110.233,15.451 109.923,16.265 C109.613,17.079 109.458,18.028 109.458,19.114 C109.458,20.199 109.613,21.156 109.923,21.982 C110.233,22.81 110.66,23.508 111.202,24.076 C111.745,24.645 112.365,25.071 113.064,25.356 C113.761,25.641 114.497,25.782 115.273,25.782 L115.273,25.782 Z" id="Fill-7" fill="#005799" sketch:type="MSShapeGroup"></path>
            <path d="M143.339,9.81 L148.185,23.844 L152.294,9.81 L156.132,9.81 L150.084,28.457 L146.324,28.457 L141.362,14.269 L136.517,28.457 L132.679,28.457 L126.553,9.81 L130.546,9.81 L134.732,23.844 L139.579,9.81 L143.339,9.81" id="Fill-8" fill="#438EC0" sketch:type="MSShapeGroup"></path>
            <path d="M170.166,13.493 C169.623,13.415 169.093,13.377 168.576,13.377 C167.051,13.377 165.817,13.822 164.874,14.714 C163.931,15.606 163.459,17.073 163.459,19.114 L163.459,28.457 L159.815,28.457 L159.815,9.81 L163.382,9.81 L163.382,13.066 C163.717,12.344 164.111,11.755 164.565,11.303 C165.016,10.851 165.487,10.488 165.98,10.217 C166.47,9.946 166.974,9.759 167.491,9.655 C168.008,9.552 168.499,9.5 168.964,9.5 C169.222,9.5 169.461,9.514 169.682,9.539 C169.9,9.565 170.063,9.591 170.166,9.616 L170.166,13.493" id="Fill-9" fill="#438EC0" sketch:type="MSShapeGroup"></path>
            <path d="M173.228,2.755 C173.228,2.006 173.48,1.379 173.983,0.875 C174.487,0.37 175.102,0.118 175.825,0.118 C176.574,0.118 177.201,0.37 177.705,0.875 C178.209,1.379 178.461,2.006 178.461,2.755 C178.461,3.478 178.209,4.092 177.705,4.596 C177.201,5.1 176.574,5.353 175.825,5.353 C175.102,5.353 174.487,5.1 173.983,4.596 C173.48,4.092 173.228,3.478 173.228,2.755 L173.228,2.755 Z M174.042,9.81 L177.647,9.81 L177.647,28.456 L174.042,28.456 L174.042,9.81 Z" id="Fill-10" fill="#438EC0" sketch:type="MSShapeGroup"></path>
            <path d="M188.734,9.81 L192.766,9.81 L192.766,13.105 L188.734,13.105 L188.734,22.797 C188.734,23.649 188.928,24.289 189.315,24.716 C189.703,25.143 190.375,25.356 191.331,25.356 C191.564,25.356 191.822,25.343 192.106,25.317 C192.391,25.292 192.61,25.253 192.766,25.2 L192.766,28.302 C192.61,28.355 192.314,28.425 191.874,28.516 C191.435,28.606 190.905,28.65 190.284,28.65 C188.682,28.65 187.416,28.192 186.485,27.274 C185.555,26.357 185.09,25.046 185.09,23.34 L185.09,13.105 L181.523,13.105 L181.523,9.81 L182.531,9.81 C183.539,9.81 184.27,9.539 184.722,8.996 C185.174,8.453 185.4,7.769 185.4,6.941 L185.4,3.918 L188.734,3.918 L188.734,9.81" id="Fill-11" fill="#438EC0" sketch:type="MSShapeGroup"></path>
            <path d="M213.661,23.145 C213.402,23.974 213.022,24.742 212.518,25.453 C212.014,26.164 211.405,26.784 210.695,27.314 C209.984,27.844 209.177,28.264 208.273,28.573 C207.367,28.884 206.373,29.038 205.287,29.038 C204.047,29.038 202.857,28.818 201.721,28.38 C200.583,27.94 199.582,27.294 198.717,26.441 C197.851,25.588 197.166,24.542 196.662,23.301 C196.158,22.06 195.906,20.652 195.906,19.075 C195.906,17.602 196.151,16.265 196.643,15.064 C197.133,13.861 197.786,12.828 198.6,11.962 C199.414,11.096 200.364,10.425 201.449,9.946 C202.535,9.468 203.659,9.228 204.822,9.228 C206.243,9.228 207.517,9.468 208.641,9.946 C209.765,10.425 210.701,11.09 211.451,11.942 C212.2,12.795 212.775,13.822 213.176,15.024 C213.576,16.226 213.777,17.551 213.777,18.998 C213.777,19.23 213.771,19.45 213.758,19.657 C213.744,19.864 213.725,20.032 213.699,20.161 L199.666,20.161 C199.691,20.988 199.847,21.75 200.132,22.448 C200.415,23.145 200.81,23.747 201.314,24.251 C201.817,24.755 202.412,25.143 203.097,25.414 C203.781,25.685 204.512,25.821 205.287,25.821 C206.812,25.821 207.975,25.459 208.776,24.735 C209.577,24.012 210.158,23.12 210.521,22.06 L213.661,23.145 L213.661,23.145 Z M209.978,17.215 C209.926,15.871 209.474,14.74 208.621,13.822 C207.769,12.905 206.515,12.446 204.861,12.446 C204.086,12.446 203.394,12.582 202.787,12.853 C202.18,13.125 201.663,13.487 201.236,13.939 C200.81,14.392 200.467,14.902 200.209,15.47 C199.95,16.039 199.808,16.62 199.782,17.215 L209.978,17.215 L209.978,17.215 Z" id="Fill-12" fill="#438EC0" sketch:type="MSShapeGroup"></path>
        </g>
    </g>
</svg>