<?xml version="1.0" encoding="UTF-8" standalone="no"?>
<svg width="210px" height="282px" viewBox="0 0 210 282" version="1.1" xmlns="http://www.w3.org/2000/svg" xmlns:xlink="http://www.w3.org/1999/xlink" xmlns:sketch="http://www.bohemiancoding.com/sketch/ns">
    <!-- Generator: Sketch 3.3.3 (12081) - http://www.bohemiancoding.com/sketch -->
    <title>collabowrite_book</title>
    <desc>Created with Sketch.</desc>
    <defs></defs>
    <g id="Page-1" stroke="none" stroke-width="1" fill="none" fill-rule="evenodd" sketch:type="MSPage">
        <g id="Imported-Layers" sketch:type="MSLayerGroup" transform="translate(1.000000, 0.000000)">
            <path d="M181.309633,243.220402 L1.96843878,252.555136 L1.96843878,12.1702803 L181.309633,2.83554545 L181.309633,243.220402" id="Fill-1" fill="#4D4D4C" sketch:type="MSShapeGroup"></path>
            <path d="M1.96843878,253.61953 C1.69545918,253.61953 1.43314286,253.51522 1.23480612,253.325758 C1.02154082,253.125652 0.902112245,252.844652 0.902112245,252.555136 L0.902112245,12.1702803 C0.902112245,11.6040227 1.34570408,11.1356894 1.9129898,11.1080152 L181.254184,1.7732803 C181.5165,1.74134848 181.83,1.86268939 182.043265,2.06492424 C182.256531,2.2650303 182.375959,2.54390152 182.375959,2.83554545 L182.375959,243.220402 C182.375959,243.786659 181.930235,244.252864 181.365082,244.282667 L2.02388776,253.617402 C2.00469388,253.61953 1.98763265,253.61953 1.96843878,253.61953 L1.96843878,253.61953 Z M3.03476531,13.1793258 L3.03476531,251.433265 L180.243306,242.209227 L180.243306,3.95528788 L3.03476531,13.1793258 L3.03476531,13.1793258 Z" id="Fill-2" fill="#343433" sketch:type="MSShapeGroup"></path>
            <path d="M178.277,239.882462 L6.77543878,248.778667 L6.77543878,16.6833106 L178.277,7.78710606 L178.277,239.882462" id="Fill-3" fill="#88B0D3" sketch:type="MSShapeGroup"></path>
            <path d="M6.77543878,249.843061 C6.50245918,249.843061 6.24014286,249.73875 6.04180612,249.551417 C5.82854082,249.351311 5.70911224,249.070311 5.70911224,248.778667 L5.70911224,16.6833106 C5.70911224,16.117053 6.15270408,15.6508485 6.7199898,15.6210455 L178.221551,6.72484091 C178.505194,6.6907803 178.797367,6.81425 179.010633,7.01648485 C179.223898,7.21659091 179.343327,7.49759091 179.343327,7.78710606 L179.343327,239.882462 C179.343327,240.446591 178.897602,240.914924 178.332449,240.944727 L6.83088776,249.840932 C6.81169388,249.843061 6.7925,249.843061 6.77543878,249.843061 L6.77543878,249.843061 Z M7.84176531,17.6944848 L7.84176531,247.658924 L177.210673,238.871288 L177.210673,8.90897727 L7.84176531,17.6944848 L7.84176531,17.6944848 Z" id="Fill-4" fill="#343433" sketch:type="MSShapeGroup"></path>
            <path d="M181.881184,245.178886 L6.77543878,248.778667 L6.77543878,16.6833106 L181.881184,13.0856591 L181.881184,245.178886" id="Fill-5" fill="#438EC0" sketch:type="MSShapeGroup"></path>
            <path d="M6.77543878,249.843061 C6.49606122,249.843061 6.22734694,249.734492 6.0290102,249.540773 C5.82427551,249.338538 5.70911224,249.066053 5.70911224,248.778667 L5.70911224,16.6833106 C5.70911224,16.1042803 6.17403061,15.6316894 6.75411224,15.6189167 L181.859857,12.0191364 C182.149898,12.0042348 182.422878,12.1213182 182.627612,12.323553 C182.832347,12.5257879 182.94751,12.7982727 182.94751,13.0856591 L182.94751,245.178886 C182.94751,245.757917 182.482592,246.230508 181.90251,246.24328 L6.79676531,249.843061 L6.77543878,249.843061 L6.77543878,249.843061 Z M7.84176531,17.7264167 L7.84176531,247.692985 L180.814857,244.13578 L180.814857,14.1713409 L7.84176531,17.7264167 L7.84176531,17.7264167 Z" id="Fill-6" fill="#343433" sketch:type="MSShapeGroup"></path>
            <path d="M185.566408,250.588136 L6.77543878,248.778667 L6.77543878,16.6833106 L185.566408,18.4927803 L185.566408,250.588136" id="Fill-7" fill="#2473AD" sketch:type="MSShapeGroup"></path>
            <path d="M185.566408,251.65253 L185.555745,251.65253 L6.76477551,249.843061 C6.17829592,249.836674 5.70911224,249.364083 5.70911224,248.778667 L5.70911224,16.6833106 C5.70911224,16.398053 5.82214286,16.1255682 6.0247449,15.9254621 C6.22734694,15.7274848 6.45554082,15.6167879 6.78610204,15.6189167 L185.577071,17.4283864 C186.161418,17.4347727 186.632735,17.9073636 186.632735,18.4927803 L186.632735,250.588136 C186.632735,250.873394 186.519704,251.145879 186.314969,251.343856 C186.116633,251.541833 185.847918,251.65253 185.566408,251.65253 L185.566408,251.65253 Z M7.84176531,247.724917 L184.500082,249.513098 L184.500082,19.5465303 L7.84176531,17.7583485 L7.84176531,247.724917 L7.84176531,247.724917 Z" id="Fill-8" fill="#343433" sketch:type="MSShapeGroup"></path>
            <path d="M189.324143,256.108083 L6.77543878,248.778667 L6.77543878,16.6833106 L189.324143,24.0148561 L189.324143,256.108083" id="Fill-9" fill="#438EC0" sketch:type="MSShapeGroup"></path>
            <path d="M189.324143,257.172477 L189.28149,257.172477 L6.73278571,249.843061 C6.16123469,249.821773 5.70911224,249.351311 5.70911224,248.778667 L5.70911224,16.6833106 C5.70911224,16.3937955 5.82640816,16.1149242 6.03754082,15.916947 C6.24654082,15.7147121 6.52805102,15.625303 6.81809184,15.6189167 L189.366796,22.9504621 C189.938347,22.9738788 190.390469,23.4443409 190.390469,24.0148561 L190.390469,256.108083 C190.390469,256.39547 190.273173,256.674341 190.064173,256.874447 C189.863704,257.066038 189.599255,257.172477 189.324143,257.172477 L189.324143,257.172477 Z M7.84176531,247.756848 L188.257816,254.998985 L188.257816,25.038803 L7.84176531,17.7902803 L7.84176531,247.756848 L7.84176531,247.756848 Z" id="Fill-10" fill="#343433" sketch:type="MSShapeGroup"></path>
            <path d="M193.425235,261.549265 L7.01216327,248.978773 L6.5109898,16.8834167 L192.924061,29.4539091 L193.425235,261.549265" id="Fill-11" fill="#88B0D3" sketch:type="MSShapeGroup"></path>
            <path d="M193.425235,262.613659 C193.401776,262.613659 193.378316,262.613659 193.354857,262.61153 L6.93965306,250.041038 C6.38089796,250.004848 5.94583673,249.540773 5.94583673,248.980902 L5.44466327,16.8855455 C5.44253061,16.5896439 5.56622449,16.3065152 5.78162245,16.1042803 C5.99702041,15.9041742 6.29132653,15.7913485 6.58136735,15.8211515 L192.996571,28.3916439 C193.555327,28.4299621 193.990388,28.8919091 193.990388,29.4517803 L194.491561,261.249106 C194.519286,261.344902 194.534214,261.447083 194.534214,261.549265 C194.534214,262.147455 194.086357,262.713712 193.446561,262.613659 L193.425235,262.613659 L193.425235,262.613659 Z M8.07635714,247.9825 L192.356776,260.410364 L191.859867,30.4501818 L7.57944898,18.0223182 L8.07635714,247.9825 L8.07635714,247.9825 Z" id="Fill-12" fill="#343433" sketch:type="MSShapeGroup"></path>
            <path d="M197.080602,267.503485 L6.77543878,248.778667 L6.77543878,16.6833106 L197.080602,35.4102576 L197.080602,267.503485" id="Fill-13" fill="#FFFFFF" sketch:type="MSShapeGroup"></path>
            <path d="M197.080602,268.567879 C197.04648,268.567879 197.010224,268.56575 196.976102,268.563621 L6.67093878,249.838803 C6.12497959,249.785583 5.70911224,249.325765 5.70911224,248.778667 L5.70911224,16.6833106 C5.70911224,16.3810227 5.83493878,16.0978939 6.05886735,15.8956591 C6.28279592,15.6934242 6.58563265,15.6061439 6.87993878,15.6231742 L197.185102,34.3501212 C197.731061,34.4033409 198.146929,34.8631591 198.146929,35.4102576 L198.146929,267.503485 C198.146929,267.805773 198.021102,268.088902 197.797173,268.291136 C197.598837,268.469955 197.345051,268.567879 197.080602,268.567879 L197.080602,268.567879 Z M7.84176531,247.814326 L196.014276,266.328394 L196.014276,36.3745985 L7.84176531,17.8584015 L7.84176531,247.814326 L7.84176531,247.814326 Z" id="Fill-14" fill="#343433" sketch:type="MSShapeGroup"></path>
            <path d="M205.890592,277.898356 L6.77543878,258.977689 L6.77543878,18.5907045 L205.890592,37.5156288 L205.890592,277.898356" id="Fill-15" fill="#36A0CE" sketch:type="MSShapeGroup"></path>
            <path d="M205.890592,278.96275 C205.856469,278.96275 205.822347,278.960621 205.790357,278.958492 L6.67307143,260.037826 C6.12711224,259.986735 5.70911224,259.526917 5.70911224,258.977689 L5.70911224,18.5907045 C5.70911224,18.2926742 5.83493878,18.0052879 6.05673469,17.803053 C6.27853061,17.602947 6.57496939,17.5135379 6.87567347,17.5305682 L205.990827,36.4554924 C206.538918,36.5065833 206.956918,36.9664015 206.956918,37.5156288 L206.956918,277.898356 C206.956918,278.198515 206.828959,278.483773 206.607163,278.686008 C206.410959,278.864826 206.155041,278.96275 205.890592,278.96275 L205.890592,278.96275 Z M7.84176531,258.009091 L204.824265,276.727523 L204.824265,38.4842273 L7.84176531,19.7615379 L7.84176531,258.009091 L7.84176531,258.009091 Z" id="Fill-16" fill="#343433" sketch:type="MSShapeGroup"></path>
            <path d="M106.329816,90.7353258 C104.25048,90.5863106 104.589571,89.3260682 103.745041,87.1185152 C102.601939,84.1339545 101.239173,81.2239015 99.686602,78.4139015 C98.1169694,75.5719697 96.3596633,72.8237045 94.4466735,70.2052955 C92.6723061,67.7763485 90.2794694,65.6560758 88.6522551,63.1590076 C87.0868878,60.7534773 85.0864592,58.5970152 82.7320102,57.1089924 C81.5974388,56.3894621 77.1977755,53.7178333 78.8441837,56.8897273 C81.4289592,61.8732197 85.7945,63.4336212 89.3368367,67.1930606 C93.5637551,71.6805455 97.086898,76.9216212 99.8358878,82.4862727 C101.21998,85.2813712 102.277776,88.1424621 103.393153,91.0354848 C103.823949,92.1488409 101.642245,94.48625 102.126357,96.4319621 C102.527296,98.0498409 103.489122,98.3585152 102.512367,99.6059848 C101.896031,100.391508 101.392724,101.281341 100.983255,102.222265 C100.066214,104.312735 99.5863673,106.648015 99.3005918,109.000326 C98.6330714,114.541561 98.8847245,120.14453 99.219551,125.83478 C99.1491735,124.804447 99.0873265,123.776242 99.0361429,122.74378 C99.3155204,125.447341 99.4157551,128.159417 99.6546122,130.862977 C99.5970306,130.149833 99.6034286,129.423917 99.4498776,128.710773 C99.8060306,132.712894 100.337061,136.715015 100.974724,140.715008 C101.584663,144.536182 102.766153,148.527659 103.120173,152.333932 C102.998612,151.763417 102.898378,151.192902 102.749092,150.624515 C102.872786,151.192902 102.998612,151.763417 103.120173,152.333932 C102.994347,151.765545 103.241735,152.904447 103.120173,152.333932 C104.082,156.629826 103.529643,161.059833 103.397418,165.311023 C103.252398,170.077379 103.152163,174.850121 103.17349,179.642023 C103.18202,182.015621 102.431327,200.734053 106.329816,201.183227 C110.232571,201.781417 109.48401,182.862879 109.492541,180.48928 C109.511735,175.705894 109.413633,170.903348 109.26648,166.100803 C109.134255,161.813424 108.584031,157.23653 109.545857,153.19822 C109.426429,153.736803 109.671684,152.663894 109.545857,153.19822 C109.669551,152.661765 109.791112,152.125311 109.916939,151.588856 C109.767653,152.114667 109.667418,152.661765 109.545857,153.19822 C109.904143,149.489871 111.0835,145.813455 111.691306,142.156197 C112.328969,138.328636 112.86,134.467015 113.216153,130.560689 C113.062602,131.233386 113.069,131.961432 113.009286,132.657545 C113.248143,130.017848 113.348378,127.333447 113.625622,124.706523 C113.578704,125.721955 113.516857,126.737386 113.444347,127.748561 C113.781306,122.149848 114.032959,116.610742 113.361173,110.892818 C113.079663,108.459614 112.599816,105.996606 111.684908,103.659197 C111.271173,102.607576 110.77,101.585758 110.153663,100.634189 C109.174776,99.1248788 110.140867,99.0716591 110.541806,97.5623485 C111.023786,95.7464924 108.842082,92.8236667 109.270745,91.8252652 C110.388255,89.2324015 111.446051,86.6565682 112.825878,84.2318788 C115.577,79.4080455 119.102276,75.1142803 123.329194,71.7614394 C126.869398,68.955697 131.239204,68.5725152 133.821847,64.2808788 C135.468255,61.5517727 131.068592,63.0419242 129.936153,63.4549091 C127.577439,64.3106818 125.579143,65.9306894 124.011643,67.9104621 C122.388694,69.9711288 119.993724,71.4485076 118.219357,73.4027348 C116.306367,75.5059773 114.549061,77.7795227 112.979429,80.2020833 C111.426857,82.5927121 110.061959,85.1344848 108.92099,87.8125 C108.076459,89.7965303 108.415551,91.1461818 106.329816,90.7353258" id="Fill-17" fill="#1E3E85" sketch:type="MSShapeGroup"></path>
            <path d="M111.844857,104.214811 C114.297408,116.998182 113.828224,131.522902 111.245582,143.757045 C121.458857,152.898061 126.05899,157.594167 138.244969,157.973091 C145.425612,158.196614 152.60199,158.251962 159.776235,158.392462 L159.776235,103.448447 C143.651245,103.131258 127.453745,101.575114 111.844857,104.214811" id="Fill-18" fill="#1E3E85" sketch:type="MSShapeGroup"></path>
            <path d="M111.844857,104.214811 C114.297408,116.998182 113.828224,131.522902 111.245582,143.757045 C119.631173,151.620788 124.039367,156.693689 134.060704,159.152439 C141.290398,160.92572 149.334765,160.687295 156.587918,161.383409 C156.587918,143.069447 156.585786,124.751227 156.585786,106.435136 C141.559112,104.987561 126.523908,102.439402 111.844857,104.214811" id="Fill-19" fill="#438EC0" sketch:type="MSShapeGroup"></path>
            <path d="M111.844857,104.214811 C114.297408,116.998182 113.828224,131.522902 111.245582,143.757045 C118.530724,150.920417 123.745061,157.579265 132.606235,160.844826 C139.108694,163.241841 146.6135,163.859189 153.243918,165.257803 L153.243918,110.318045 C139.528827,107.422894 125.474643,103.280273 111.844857,104.214811" id="Fill-20" fill="#005799" sketch:type="MSShapeGroup"></path>
            <path d="M111.844857,104.214811 C114.297408,116.998182 113.828224,131.522902 111.245582,143.757045 C117.681929,150.377576 123.071143,158.354144 130.9385,162.369038 C136.636949,165.279091 143.489163,166.709636 149.411541,168.734114 C149.411541,150.418023 149.411541,132.110447 149.409408,113.794356 C137.394041,109.685795 124.139602,103.925295 111.844857,104.214811" id="Fill-21" fill="#0075B1" sketch:type="MSShapeGroup"></path>
            <path d="M100.819041,102.733174 C95.7475918,111.382439 100.266684,134.954508 101.420449,142.432939 C85.0352755,143.67828 70.1088367,148.31478 52.8919286,144.018886 L52.8919286,89.0791288 C70.1088367,93.3750227 84.5511633,102.516038 100.819041,102.733174" id="Fill-22" fill="#1E3E85" sketch:type="MSShapeGroup"></path>
            <path d="M100.819041,102.733174 C95.7475918,111.382439 100.266684,134.954508 101.420449,142.432939 C86.3127347,143.999727 72.0239592,150.628773 56.0781122,147.869864 C56.0781122,125.900773 56.0802449,114.901326 56.0781122,92.9215909 C72.0239592,95.6783712 85.4703367,103.014174 100.819041,102.733174" id="Fill-23" fill="#438EC0" sketch:type="MSShapeGroup"></path>
            <path d="M100.819041,102.733174 C95.7475918,111.382439 100.266684,134.954508 101.420449,142.432939 C87.6648367,144.442515 74.0371837,153.489864 59.4199796,152.642606 L59.4199796,97.7049773 C74.0307857,98.5564924 86.3703163,103.650682 100.819041,102.733174" id="Fill-24" fill="#005799" sketch:type="MSShapeGroup"></path>
            <path d="M100.819041,102.733174 C96.8053878,111.646409 100.266684,134.954508 101.420449,142.432939 C89.2024796,144.812924 76.3383163,156.195553 63.2608878,157.151379 C63.2608878,135.173773 63.2566224,124.189227 63.2608878,102.21375 C76.334051,101.262182 87.4942245,104.229712 100.819041,102.733174" id="Fill-25" fill="#0075B1" sketch:type="MSShapeGroup"></path>
            <path d="M32.9366939,217.838864 C32.9366939,216.80853 32.6615816,216.014492 32.1113571,215.458879 C31.559,214.903265 30.7571224,214.577561 29.7078571,214.486023 C28.9827551,214.422159 28.3109694,214.49028 27.6903673,214.692515 C27.071898,214.892621 26.5451327,215.188523 26.1143367,215.575962 L25.1333163,214.339136 C25.6323571,213.889962 26.2913469,213.538712 27.1102857,213.285386 C27.9270918,213.034189 28.8547959,212.955424 29.8891327,213.046962 C30.5438571,213.104439 31.1537959,213.247068 31.7232143,213.474848 C32.2926327,213.706886 32.7895408,214.017689 33.2224694,214.413644 C33.6511327,214.80747 33.9880918,215.288576 34.2290816,215.854833 C34.4722041,216.421091 34.5916327,217.0725 34.5916327,217.804803 L34.5916327,223.039492 C34.5916327,223.499311 34.6086939,223.978288 34.6428163,224.474295 C34.6769388,224.972432 34.7302551,225.393932 34.7985,225.740924 L33.2224694,225.602553 C33.1712857,225.30878 33.1265,224.989462 33.0923776,224.644598 C33.0561224,224.301864 33.0411939,223.967644 33.0411939,223.644068 L32.9878776,223.639811 C32.4376531,224.391273 31.8127857,224.910697 31.1154082,225.198083 C30.4180306,225.487598 29.5777653,225.587652 28.5967449,225.500371 C28.1318265,225.459924 27.6519796,225.351356 27.1614694,225.181053 C26.6709592,225.01075 26.223102,224.761682 25.817898,224.435977 C25.4148265,224.110273 25.0778673,223.703674 24.8091531,223.218311 C24.5425714,222.735076 24.4103469,222.158174 24.4103469,221.491864 C24.4103469,220.56797 24.6470714,219.859083 25.1205204,219.363076 C25.5939694,218.869197 26.2273673,218.522205 27.0185816,218.328485 C27.8119286,218.132636 28.7204388,218.041098 29.7462449,218.053871 C30.772051,218.068773 31.8341122,218.121992 32.9366939,218.219917 L32.9366939,217.838864 L32.9366939,217.838864 Z M32.4205918,219.554667 C31.6976224,219.490803 30.9682551,219.454614 30.2367551,219.450356 C29.5031224,219.446098 28.842,219.505705 28.2469898,219.633432 C27.6519796,219.756902 27.1657347,219.976167 26.7882551,220.284841 C26.4086429,220.591386 26.2188367,221.025659 26.2188367,221.587659 C26.2188367,222.013417 26.2998776,222.377439 26.4640918,222.683985 C26.6261735,222.984144 26.8458367,223.23747 27.1230816,223.441833 C27.3981939,223.646197 27.7052959,223.79947 28.0401224,223.905909 C28.3770816,224.014477 28.7161735,224.082598 29.0616633,224.110273 C29.6822653,224.165621 30.2324898,224.108144 30.7144694,223.935712 C31.196449,223.767538 31.6016531,223.512083 31.9300816,223.175735 C32.2563776,222.839386 32.505898,222.439174 32.6786429,221.975098 C32.8513878,221.517409 32.9366939,221.019273 32.9366939,220.491333 L32.9366939,219.597242 L32.4205918,219.554667 L32.4205918,219.554667 Z" id="Fill-26" fill="#E4E5E3" sketch:type="MSShapeGroup"></path>
            <path d="M35.4596224,226.332727 L32.7682143,226.096432 L32.6978367,225.69622 C32.653051,225.442894 32.6146633,225.172538 32.5826735,224.88728 C32.1902653,225.23853 31.768,225.506758 31.3180102,225.691962 C30.5459898,226.009152 29.6161531,226.121977 28.5498265,226.030439 C28.0507857,225.987864 27.5240204,225.872909 26.9865918,225.685576 C26.4406327,225.496114 25.9351939,225.215114 25.4830714,224.848962 C25.0288163,224.484939 24.6449388,224.020864 24.3442347,223.478023 C24.0328673,222.913894 23.8771837,222.245455 23.8771837,221.491864 C23.8771837,220.431727 24.1650918,219.590856 24.7345102,218.994795 C25.2783367,218.428538 26.0034388,218.030455 26.8906224,217.809061 C27.6754388,217.619598 28.5732857,217.519545 29.5628367,217.519545 L29.7526429,217.521674 C30.6163673,217.534447 31.5056837,217.572765 32.3992653,217.640886 C32.3694082,216.846848 32.1497449,216.255045 31.7317449,215.833545 C31.2732245,215.371598 30.5758469,215.094856 29.6609388,215.016091 C29.0104796,214.958614 28.4069388,215.022477 27.8567143,215.197038 C27.3107551,215.375856 26.8458367,215.635568 26.4704898,215.969788 L26.0482245,216.350841 L24.4060816,214.277402 L24.7771633,213.943182 C25.3316531,213.442917 26.0652857,213.05122 26.9524694,212.776606 C27.8311224,212.508379 28.835602,212.421098 29.936051,212.516894 C30.6355612,212.5765 31.3030816,212.73403 31.921551,212.98097 C32.548551,213.236424 33.1051735,213.585545 33.5828878,214.019818 C34.0691327,214.466864 34.4508776,215.016091 34.7195918,215.648341 C34.9883061,216.276333 35.1247959,217.00225 35.1247959,217.804803 L35.1247959,223.039492 C35.1247959,223.486538 35.1418571,223.952742 35.1759796,224.438106 C35.2079694,224.908568 35.2570204,225.30878 35.321,225.636614 L35.4596224,226.332727 L35.4596224,226.332727 Z M33.6831224,225.108674 L34.1693673,225.15125 C34.1459082,224.953273 34.1267143,224.738265 34.1117857,224.512614 C34.0755306,224.003833 34.0584694,223.512083 34.0584694,223.039492 L34.0584694,217.804803 C34.0584694,217.147008 33.9518367,216.561591 33.7385714,216.063455 C33.5295714,215.571705 33.2331327,215.145947 32.862051,214.803212 C32.4803061,214.45622 32.0303163,214.173091 31.5227449,213.968727 C31.0045102,213.760106 30.4372245,213.63025 29.8422143,213.57703 C28.8825204,213.494008 28.0145306,213.564258 27.268102,213.796295 C26.7285408,213.960212 26.2657551,214.170962 25.8840102,214.428545 L26.2039082,214.828758 C26.5941837,214.56053 27.0356429,214.343394 27.5261531,214.185864 C28.2128673,213.962341 28.9635612,213.889962 29.7547755,213.955955 C30.925602,214.058136 31.8469082,214.437061 32.4888367,215.084212 C33.1414286,215.739879 33.4698571,216.665902 33.4698571,217.838864 L33.4698571,218.801076 L32.8897755,218.749985 C31.823449,218.656318 30.7635204,218.60097 29.7398469,218.586068 L29.5628367,218.583939 C28.6585918,218.583939 27.8481837,218.673348 27.1465408,218.84578 C26.4576939,219.013955 25.9074694,219.314114 25.504398,219.731356 C25.1269184,220.127311 24.9435102,220.704212 24.9435102,221.491864 C24.9435102,222.064508 25.0565408,222.560515 25.2783367,222.962856 C25.5107959,223.384356 25.805102,223.744121 26.1527245,224.020864 C26.5088776,224.30825 26.9076837,224.531773 27.3363469,224.678659 C27.790602,224.836189 28.2299286,224.934114 28.6415306,224.970303 C29.5415102,225.046939 30.298602,224.961788 30.9106735,224.708462 C31.5163469,224.459394 32.0687041,223.995318 32.5570816,223.32475 L32.7340918,223.084197 L33.5210408,223.148061 L33.5743571,223.644068 C33.5743571,223.950614 33.5892857,224.267803 33.6234082,224.591379 C33.6404694,224.770197 33.6617959,224.942629 33.6831224,225.108674 L33.6831224,225.108674 Z M29.5009898,224.663758 L29.5009898,224.663758 C29.3453061,224.663758 29.1832245,224.655242 29.0147449,224.640341 C28.633,224.610538 28.2512551,224.531773 27.8759082,224.412561 C27.4877653,224.286962 27.1252143,224.106015 26.8053163,223.86972 C26.4683571,223.620652 26.1953776,223.305591 25.9949082,222.935182 C25.7901735,222.554129 25.6856735,222.100697 25.6856735,221.587659 C25.6856735,220.859614 25.9437245,220.284841 26.4512959,219.869727 C26.8948878,219.507833 27.4621735,219.254508 28.1382245,219.111879 C28.7417653,218.982023 29.4242143,218.918159 30.1663776,218.918159 L30.2410204,218.918159 C30.9746531,218.922417 31.7253469,218.958606 32.4675102,219.024598 L33.4698571,219.10975 L33.4698571,220.491333 C33.4698571,221.083136 33.3717551,221.643008 33.1798163,222.162432 C32.9814796,222.690371 32.6893061,223.156576 32.3118265,223.546144 C31.9258163,223.944227 31.448102,224.244386 30.8914796,224.440235 C30.4777449,224.587121 30.0085612,224.663758 29.5009898,224.663758 L29.5009898,224.663758 Z M30.1663776,219.450356 L30.1663776,219.982553 C29.5009898,219.982553 28.891051,220.04003 28.3578878,220.152856 C27.8503163,220.261424 27.4365816,220.442371 27.1252143,220.695697 C26.8692959,220.902189 26.752,221.185318 26.752,221.587659 C26.752,221.928265 26.8117143,222.202879 26.9332755,222.430659 C27.059102,222.662697 27.2297143,222.858545 27.4387143,223.013947 C27.6647755,223.179992 27.9206939,223.30772 28.2022041,223.397129 C28.5007755,223.492924 28.8036122,223.556788 29.106449,223.580205 C29.2429388,223.592977 29.3751633,223.599364 29.5009898,223.599364 C29.8848673,223.599364 30.2324898,223.544015 30.5353265,223.435447 C30.9362653,223.294947 31.2774898,223.084197 31.5462041,222.805326 C31.823449,222.517939 32.032449,222.185848 32.179602,221.792023 C32.3288878,221.391811 32.4035306,220.955409 32.4035306,220.491333 L32.3758061,220.084735 C31.6592347,220.020871 30.9405306,219.986811 30.2346224,219.982553 L30.1663776,219.450356 L30.1663776,219.450356 Z" id="Fill-27" fill="#E4E5E3" sketch:type="MSShapeGroup"></path>
            <path d="M54.3613265,217.296023 C53.9113367,216.797886 53.3867041,216.393417 52.7852959,216.086871 C52.1817551,215.776068 51.5526224,215.592992 50.897898,215.535515 C50.0533673,215.461008 49.2962755,215.552545 48.6244898,215.808 C47.9527041,216.063455 47.3790204,216.433864 46.9055714,216.919227 C46.4299898,217.40672 46.0674388,217.987879 45.8072551,218.664833 C45.5492041,219.339659 45.4191122,220.059189 45.4191122,220.825553 C45.4191122,221.591917 45.5492041,222.334864 45.8072551,223.056523 C46.0674388,223.778182 46.4299898,224.418947 46.9055714,224.980947 C47.3790204,225.540818 47.9527041,226.004894 48.6244898,226.371045 C49.2962755,226.737197 50.0533673,226.956462 50.897898,227.03097 C51.5526224,227.088447 52.194551,227.033098 52.8236837,226.869182 C53.4528163,226.703136 53.9987755,226.417879 54.4636939,226.017667 L54.8518367,226.409364 C54.3357347,226.873439 53.7279286,227.192758 53.030551,227.358803 C52.3331735,227.526977 51.623,227.580197 50.897898,227.516333 C50.0192449,227.439697 49.2152347,227.214045 48.481602,226.845765 C47.750102,226.473227 47.1124388,225.989992 46.5686122,225.398189 C46.0269184,224.806386 45.6046531,224.112402 45.303949,223.320492 C45.0032449,222.526455 44.8518265,221.679197 44.8518265,220.776591 C44.8518265,219.873985 45.0032449,219.052273 45.303949,218.313583 C45.6046531,217.572765 46.0269184,216.951159 46.5686122,216.444508 C47.1124388,215.939985 47.750102,215.561061 48.481602,215.311992 C49.2152347,215.058667 50.0192449,214.971386 50.897898,215.05228 C51.6571224,215.118273 52.3758265,215.318379 53.0561429,215.65047 C53.7364592,215.980432 54.3186735,216.414705 54.8006531,216.951159 L54.3613265,217.296023" id="Fill-28" fill="#E4E5E3" sketch:type="MSShapeGroup"></path>
            <path d="M51.4886429,228.076205 C51.2775102,228.076205 51.0642449,228.065561 50.8509796,228.046402 C49.9104796,227.963379 49.0339592,227.720697 48.2427449,227.318356 C47.4536633,226.920273 46.760551,226.394462 46.1762041,225.757955 C45.5897245,225.115061 45.1269388,224.359341 44.8049082,223.509955 C44.4828776,222.660568 44.3186633,221.738803 44.3186633,220.776591 C44.3186633,219.810121 44.4828776,218.913902 44.8113061,218.111348 C45.137602,217.308795 45.6046531,216.616939 46.2060612,216.054939 C46.8032041,215.499326 47.5112449,215.079955 48.3109898,214.80747 C49.1107347,214.532856 49.9915204,214.430674 50.946949,214.522212 C51.7658878,214.594591 52.5528367,214.811727 53.2907347,215.171492 C54.0286327,215.531258 54.6705612,216.010235 55.1973265,216.595652 L55.5769388,217.017152 L54.2994796,218.024068 L53.9646531,217.65153 C53.5615816,217.202356 53.0817347,216.836205 52.5421735,216.561591 C52.0026122,216.284848 51.4353265,216.118803 50.8509796,216.065583 C50.0917551,216.005977 49.4093061,216.078356 48.8142959,216.304008 C48.2171531,216.531788 47.7053163,216.863879 47.2873163,217.289636 C46.8693163,217.719652 46.5387551,218.247591 46.3041633,218.856424 C46.0717041,219.465258 45.9522755,220.129439 45.9522755,220.825553 C45.9522755,221.528053 46.0738367,222.21778 46.3084286,222.877705 C46.5472857,223.537629 46.8842449,224.129432 47.3129082,224.636083 C47.7415714,225.144864 48.2683367,225.570621 48.8782755,225.902712 C49.483949,226.232674 50.1791939,226.43278 50.9448163,226.500902 C51.5270306,226.547735 52.1220408,226.500902 52.6893265,226.354015 C53.2331531,226.211386 53.7151327,225.962318 54.1160714,225.613197 L54.4914184,225.289621 L55.6238571,226.428523 L55.2101224,226.803189 C54.6279082,227.329 53.9369286,227.688765 53.1542449,227.876098 C52.6061531,228.005955 52.047398,228.076205 51.4886429,228.076205" id="Fill-29" fill="#E4E5E3" sketch:type="MSShapeGroup"></path>
            <path d="M69.6865714,222.913894 C69.6865714,223.83353 69.5330204,224.661629 69.2323163,225.402447 C68.9316122,226.143265 68.5050816,226.764871 67.9548571,227.269394 C67.4025,227.773917 66.7435102,228.146455 65.9778878,228.384879 C65.2101327,228.625432 64.3698673,228.704197 63.4570918,228.623303 C62.5443163,228.542409 61.7083163,228.316758 60.9512245,227.942091 C60.192,227.567424 59.5372755,227.082061 58.987051,226.479614 C58.4346939,225.877167 58.0081633,225.178924 57.7074592,224.387015 C57.4046224,223.592977 57.2553367,222.739333 57.2553367,221.817568 C57.2553367,220.897932 57.4046224,220.071962 57.7074592,219.341788 C58.0081633,218.609485 58.4346939,217.996394 58.987051,217.500386 C59.5372755,217.004379 60.192,216.636098 60.9512245,216.395545 C61.7083163,216.154992 62.5443163,216.076227 63.4570918,216.157121 C64.3698673,216.235886 65.2101327,216.465795 65.9778878,216.838333 C66.7435102,217.213 67.4025,217.696235 67.9548571,218.290167 C68.5050816,218.884098 68.9316122,219.573826 69.2323163,220.35722 C69.5330204,221.140614 69.6865714,221.992129 69.6865714,222.913894 L69.6865714,222.913894 Z M69.1171531,222.862803 C69.1171531,222.079409 68.9870612,221.327947 68.7290102,220.606288 C68.4709592,219.884629 68.0977449,219.243864 67.605102,218.681864 C67.1145918,218.117735 66.5195816,217.657917 65.8222041,217.296023 C65.1248265,216.938386 64.3378776,216.72125 63.4570918,216.642485 C62.5784388,216.56372 61.7957551,216.644614 61.1069082,216.883038 C60.4159286,217.119333 59.8251837,217.474841 59.3346735,217.953818 C58.8441633,218.428538 58.470949,219.003311 58.2107653,219.678136 C57.9527143,220.35722 57.8247551,221.087394 57.8247551,221.868659 C57.8247551,222.669083 57.9527143,223.429061 58.2107653,224.15072 C58.470949,224.872379 58.8441633,225.513144 59.3346735,226.075144 C59.8251837,226.639273 60.4159286,227.103348 61.1069082,227.471629 C61.7957551,227.83778 62.5784388,228.061303 63.4570918,228.137939 C64.3378776,228.214576 65.1248265,228.131553 65.8222041,227.886742 C66.5195816,227.641932 67.1145918,227.282167 67.605102,226.805318 C68.0977449,226.326341 68.4709592,225.753697 68.7290102,225.078871 C68.9870612,224.401917 69.1171531,223.663227 69.1171531,222.862803 L69.1171531,222.862803 Z" id="Fill-30" fill="#E4E5E3" sketch:type="MSShapeGroup"></path>
            <path d="M64.1374082,229.185303 C63.898551,229.185303 63.6575612,229.174659 63.4101735,229.153371 C62.435551,229.070348 61.5291735,228.82128 60.7145,228.418939 C59.8955612,228.01447 59.1832551,227.482273 58.5925102,226.83725 C57.9975,226.18797 57.5325816,225.425864 57.2084184,224.576477 C56.8863878,223.727091 56.7221735,222.798939 56.7221735,221.817568 C56.7221735,220.829811 56.8885204,219.929333 57.2148163,219.137424 C57.5432449,218.339129 58.0209592,217.653659 58.630898,217.104432 C59.2344388,216.561591 59.9595408,216.150735 60.7891429,215.888894 C61.6102143,215.629182 62.5208571,215.537644 63.5040102,215.627053 C64.4743673,215.710076 65.3850102,215.957015 66.2103469,216.361485 C67.0356837,216.761697 67.7522551,217.289636 68.3451327,217.928273 C68.9401429,218.571167 69.4050612,219.322629 69.7313571,220.165629 C70.0555204,221.008629 70.2197347,221.934652 70.2197347,222.913894 C70.2197347,223.895265 70.0533878,224.8 69.7270918,225.602553 C69.3965306,226.411492 68.920949,227.105477 68.3152755,227.661091 C67.7074694,228.216705 66.9738367,228.631818 66.1357041,228.893659 C65.515102,229.087379 64.8411837,229.185303 64.1374082,229.185303 L64.1374082,229.185303 Z M62.8322245,217.144879 C62.2649388,217.144879 61.7424388,217.225773 61.2796531,217.385432 C60.665449,217.596182 60.136551,217.9155 59.7078878,218.334871 C59.2728265,218.756371 58.938,219.271538 58.7076735,219.869727 C58.4752143,220.478561 58.3579184,221.153386 58.3579184,221.868659 C58.3579184,222.60522 58.4773469,223.311977 58.7119388,223.971902 C58.9465306,224.625439 59.2920204,225.215114 59.7377449,225.726023 C60.1813367,226.234803 60.7251633,226.664818 61.3585612,227.001167 C61.9791633,227.333258 62.7021327,227.537621 63.5040102,227.607871 C64.3037551,227.675992 65.0245918,227.603614 65.6451939,227.386477 C66.2679286,227.165083 66.8010918,226.843636 67.2318878,226.422136 C67.6733469,225.996379 67.9996429,225.493985 68.232102,224.889409 C68.4666939,224.276318 68.5839898,223.592977 68.5839898,222.862803 C68.5839898,222.14753 68.4645612,221.447159 68.2278367,220.785106 C67.9932449,220.129439 67.6477551,219.539765 67.2020306,219.030985 C66.7627041,218.524333 66.2146122,218.098576 65.576949,217.768614 C64.9456837,217.447167 64.2163163,217.244932 63.4101735,217.172553 C63.2139694,217.155523 63.019898,217.144879 62.8322245,217.144879 L62.8322245,217.144879 Z" id="Fill-31" fill="#E4E5E3" sketch:type="MSShapeGroup"></path>
            <path d="M73.9241531,229.187432 L73.9241531,209.875068 L74.4914388,209.92403 L74.4914388,229.238523 L73.9241531,229.187432" id="Fill-32" fill="#E4E5E3" sketch:type="MSShapeGroup"></path>
            <path d="M75.024602,229.817553 L73.3909898,229.674924 L73.3909898,209.293909 L75.024602,209.438667 L75.024602,229.817553" id="Fill-33" fill="#E4E5E3" sketch:type="MSShapeGroup"></path>
            <path d="M79.7633571,229.70047 L79.7633571,210.390235 L80.3327755,210.441326 L80.3327755,229.751561 L79.7633571,229.70047" id="Fill-34" fill="#E4E5E3" sketch:type="MSShapeGroup"></path>
            <path d="M80.8638061,230.330591 L79.2301939,230.187962 L79.2301939,209.811205 L80.8638061,209.953833 L80.8638061,230.330591" id="Fill-35" fill="#E4E5E3" sketch:type="MSShapeGroup"></path>
            <path d="M93.7706224,228.278439 C93.7706224,228.721227 93.791949,229.195947 93.834602,229.702598 C93.8772551,230.20925 93.9241735,230.626492 93.9753571,230.954326 L93.4336633,230.907492 C93.3974082,230.732932 93.3718163,230.522182 93.3547551,230.273114 C93.3376939,230.026174 93.3163673,229.768591 93.2929082,229.502492 C93.2651837,229.236394 93.2481224,228.972424 93.2395918,228.71697 C93.2310612,228.461515 93.2267959,228.248636 93.2267959,228.078333 L93.1500204,228.071947 C92.8045306,229.112924 92.2095204,229.858 91.3671224,230.302917 C90.5225918,230.747833 89.6162143,230.92878 88.6522551,230.843629 C88.1702755,230.801053 87.6925612,230.688227 87.2169796,230.511538 C86.7435306,230.33272 86.3191327,230.092167 85.9395204,229.785621 C85.5599082,229.481205 85.2549388,229.104409 85.0224796,228.657364 C84.7878878,228.212447 84.6727245,227.699409 84.6727245,227.120379 C84.6727245,226.285894 84.8923878,225.632356 85.3317143,225.161894 C85.7710408,224.687174 86.3191327,224.340182 86.9738571,224.116659 C87.6285816,223.893136 88.3302245,223.771795 89.0787857,223.752636 C89.8273469,223.735606 90.5140612,223.750508 91.1325306,223.805856 L93.2012041,223.988932 L93.2012041,223.041621 C93.2012041,221.732417 92.8471837,220.74253 92.1412755,220.07622 C91.4353673,219.40778 90.5140612,219.026727 89.3752245,218.926674 C88.6693163,218.864939 88.0103265,218.933061 87.4003878,219.133167 C86.7883163,219.335402 86.2402245,219.629174 85.7582449,220.012356 L85.4490102,219.550409 C85.9992347,219.122523 86.624102,218.815977 87.3214796,218.628644 C88.0188571,218.443439 88.7055714,218.381705 89.3752245,218.439182 C90.7358571,218.560523 91.8085816,218.999053 92.593398,219.756902 C93.3782143,220.516879 93.7706224,221.636621 93.7706224,223.120386 L93.7706224,228.278439 L93.7706224,228.278439 Z M93.2012041,224.472167 L91.3671224,224.312508 C90.7102653,224.25503 90.0214184,224.231614 89.298449,224.244386 C88.5754796,224.259288 87.9122245,224.357212 87.3086837,224.544545 C86.7051429,224.727621 86.2103673,225.025652 85.8222245,225.434379 C85.4362143,225.843106 85.2421429,226.420008 85.2421429,227.17147 C85.2421429,227.716439 85.3487755,228.182644 85.5641735,228.565826 C85.7795714,228.951136 86.0568163,229.268326 86.3916429,229.519523 C86.728602,229.77072 87.097551,229.964439 87.5027551,230.102811 C87.9079592,230.239053 88.2897041,230.324205 88.6522551,230.358265 C89.5309082,230.434902 90.2645408,230.336977 90.8488878,230.064492 C91.4353673,229.792008 91.904551,229.423727 92.2564388,228.951136 C92.6104592,228.478545 92.8557143,227.948477 92.9943367,227.356674 C93.1308265,226.760614 93.2012041,226.177326 93.2012041,225.598295 L93.2012041,224.472167 L93.2012041,224.472167 Z" id="Fill-36" fill="#E4E5E3" sketch:type="MSShapeGroup"></path>
            <path d="M94.6087551,231.546129 L92.9900714,231.401371 L92.9111633,231.013932 C92.8706429,230.818083 92.8429184,230.583917 92.8237245,230.309303 C92.8130612,230.153902 92.8002653,229.996371 92.7853367,229.832455 C92.4590408,230.222023 92.0666327,230.534955 91.6145102,230.77125 C90.6825408,231.265129 89.6652653,231.465235 88.6053367,231.373697 C88.0849694,231.326864 87.5560714,231.205523 87.0314388,231.011803 C86.5046735,230.811697 86.0248265,230.539212 85.6046939,230.200735 C85.1717653,229.853742 84.8177449,229.417341 84.5490306,228.902174 C84.2781837,228.384879 84.1395612,227.784561 84.1395612,227.120379 C84.1395612,226.149652 84.4104082,225.370515 84.9414388,224.8 C85.4383469,224.263545 86.0632143,223.863333 86.8011122,223.614265 C87.5006224,223.373712 88.2641122,223.241727 89.0659898,223.220439 C89.8358776,223.205538 90.5417857,223.218311 91.179449,223.275788 L92.6680408,223.405644 L92.6680408,223.041621 C92.6680408,221.889947 92.3673367,221.021402 91.7744592,220.463659 C91.1538571,219.876114 90.3519796,219.546152 89.3283061,219.456742 C88.7034388,219.405652 88.1062959,219.463129 87.5688673,219.639818 C87.0186429,219.820765 86.5217347,220.086864 86.0909388,220.42747 L85.6388163,220.787235 L84.7281735,219.435455 L85.1205816,219.131038 C85.7241224,218.662705 86.4172347,218.31997 87.1828571,218.115606 C87.9378163,217.9155 88.6970408,217.851636 89.4221429,217.909114 C90.9043367,218.041098 92.0943571,218.532848 92.9644796,219.375848 C93.8516633,220.235879 94.3037857,221.496121 94.3037857,223.120386 L94.3037857,228.278439 C94.3037857,228.708455 94.3229796,229.166144 94.3656327,229.660023 C94.4061531,230.147515 94.4530714,230.554114 94.5042551,230.871303 L94.6087551,231.546129 L94.6087551,231.546129 Z M89.6780612,224.772326 L89.3069796,224.776583 C88.6330612,224.789356 88.0124592,224.883023 87.4665,225.053326 C86.9482653,225.210856 86.5366633,225.455667 86.2082347,225.798402 C85.9181939,226.109205 85.7753061,226.558379 85.7753061,227.17147 C85.7753061,227.622773 85.8606122,228.005955 86.0290918,228.306114 C86.2082347,228.625432 86.4364286,228.889402 86.7115408,229.093765 C87.0015816,229.310902 87.3278776,229.481205 87.6733673,229.600417 C88.038051,229.721758 88.3835408,229.798394 88.7013061,229.828197 C89.4626633,229.887803 90.128051,229.815424 90.6249592,229.583386 C91.1282653,229.347091 91.5334694,229.027773 91.8299082,228.631818 C92.1412755,228.214576 92.3524082,227.756886 92.4739694,227.235333 C92.6019286,226.67972 92.6680408,226.130492 92.6680408,225.598295 L92.6680408,224.961788 L91.3202041,224.842576 C90.7934388,224.797871 90.2474796,224.772326 89.6780612,224.772326 L89.6780612,224.772326 Z" id="Fill-37" fill="#E4E5E3" sketch:type="MSShapeGroup"></path>
            <path d="M99.5074592,222.884091 C100.021429,221.753705 100.757194,220.934121 101.71049,220.421083 C102.665918,219.910174 103.708786,219.703682 104.843357,219.803735 C105.719878,219.880371 106.523888,220.11028 107.255388,220.487076 C107.984755,220.868129 108.611755,221.355621 109.136388,221.958068 C109.66102,222.556258 110.064092,223.250242 110.349867,224.04428 C110.631378,224.834061 110.774265,225.683447 110.774265,226.586053 C110.774265,227.471629 110.629245,228.278439 110.334939,229.010742 C110.042765,229.743045 109.635429,230.362523 109.110796,230.869174 C108.586163,231.377955 107.959163,231.75475 107.229796,232.005947 C106.498296,232.255015 105.704949,232.346553 104.843357,232.267788 C104.278204,232.218826 103.723714,232.093227 103.18202,231.893121 C102.640327,231.690886 102.13702,231.42053 101.672102,231.084182 C101.209316,230.745705 100.787051,230.341235 100.409571,229.872902 C100.029959,229.406697 99.7292551,228.872371 99.5074592,228.274182 L99.4306837,228.267795 L99.4306837,231.435432 L98.8356735,231.382212 L98.8356735,212.069848 L99.4306837,212.120939 L99.4306837,222.875576 L99.5074592,222.884091 L99.5074592,222.884091 Z M110.204847,226.532833 C110.204847,225.768598 110.081153,225.025652 109.831633,224.303992 C109.582112,223.584462 109.225959,222.939439 108.763173,222.371053 C108.298255,221.800538 107.735235,221.332205 107.074112,220.957538 C106.410857,220.585 105.666561,220.361477 104.843357,220.289098 C104.052143,220.218848 103.327041,220.306129 102.665918,220.555197 C102.002663,220.804265 101.431112,221.168288 100.949133,221.643008 C100.469286,222.121985 100.091806,222.696758 99.8166939,223.371583 C99.5415816,224.04428 99.4029592,224.774455 99.4029592,225.557848 C99.4029592,226.339114 99.5415816,227.092705 99.8166939,227.816492 C100.091806,228.538152 100.469286,229.178917 100.949133,229.743045 C101.431112,230.305045 102.002663,230.766992 102.665918,231.131015 C103.327041,231.497167 104.052143,231.714303 104.843357,231.784553 C105.666561,231.856932 106.410857,231.769652 107.074112,231.520583 C107.735235,231.273644 108.298255,230.909621 108.763173,230.430644 C109.225959,229.951667 109.582112,229.374765 109.831633,228.699939 C110.081153,228.020856 110.204847,227.299197 110.204847,226.532833 L110.204847,226.532833 Z" id="Fill-38" fill="#E4E5E3" sketch:type="MSShapeGroup"></path>
            <path d="M105.431969,232.827659 C105.222969,232.827659 105.011837,232.817015 104.796439,232.797856 C104.182235,232.744636 103.576561,232.608394 102.994347,232.391258 C102.412133,232.17625 101.861908,231.880348 101.358602,231.514197 C100.859561,231.150174 100.401041,230.709515 99.9937041,230.20925 C99.9830408,230.194348 99.9723776,230.181576 99.9638469,230.168803 L99.9638469,232.014462 L98.3025102,231.871833 L98.3025102,211.490818 L99.9638469,211.633447 L99.9638469,221.166159 C100.390378,220.663765 100.891551,220.259295 101.458837,219.95275 C102.503837,219.392879 103.657602,219.158712 104.890276,219.273667 C105.830776,219.356689 106.709429,219.605758 107.500643,220.016614 C108.289724,220.425341 108.974306,220.961795 109.537327,221.608947 C110.104612,222.25397 110.546071,223.013947 110.851041,223.865462 C111.153878,224.710591 111.307429,225.623841 111.307429,226.586053 C111.307429,227.535492 111.14748,228.418939 110.831847,229.20872 C110.509816,230.009144 110.055561,230.696742 109.481878,231.252356 C108.903929,231.812227 108.204418,232.233727 107.402541,232.51047 C106.784071,232.72122 106.122949,232.827659 105.431969,232.827659 L105.431969,232.827659 Z M104.33152,220.797879 C103.802622,220.797879 103.305714,220.885159 102.853592,221.053333 C102.267112,221.272598 101.753143,221.598303 101.32448,222.021932 C100.897949,222.445561 100.556724,222.967114 100.309337,223.571689 C100.061949,224.178394 99.9361224,224.846833 99.9361224,225.557848 C99.9361224,226.270992 100.064082,226.967106 100.315735,227.62703 C100.565255,228.284826 100.91501,228.883015 101.356469,229.398182 C101.793663,229.906962 102.320429,230.334848 102.921837,230.666939 C103.514714,230.992644 104.175837,231.190621 104.890276,231.254485 C105.060888,231.269386 105.227235,231.277902 105.391449,231.277902 C105.935276,231.277902 106.436449,231.19275 106.884306,231.022447 C107.470786,230.803182 107.971959,230.481735 108.379296,230.060235 C108.788765,229.634477 109.110796,229.115053 109.330459,228.516864 C109.558653,227.901644 109.671684,227.235333 109.671684,226.532833 C109.671684,225.830333 109.55652,225.138477 109.328327,224.478553 C109.100133,223.820758 108.769571,223.222568 108.349439,222.707402 C107.931439,222.194364 107.415337,221.76222 106.809663,221.421614 C106.216786,221.087394 105.538602,220.885159 104.796439,220.819167 C104.638622,220.804265 104.485071,220.797879 104.33152,220.797879 L104.33152,220.797879 Z" id="Fill-39" fill="#E4E5E3" sketch:type="MSShapeGroup"></path>
            <path d="M126.408745,227.912288 C126.408745,228.829795 126.257327,229.660023 125.956622,230.400841 C125.653786,231.13953 125.227255,231.761136 124.677031,232.265659 C124.124673,232.772311 123.467816,233.144848 122.700061,233.383273 C121.934439,233.621697 121.094173,233.700462 120.181398,233.619568 C119.26649,233.538674 118.432622,233.315152 117.673398,232.940485 C116.914173,232.565818 116.261582,232.078326 115.709224,231.475879 C115.159,230.873432 114.732469,230.177318 114.431765,229.38328 C114.128929,228.591371 113.97751,227.735598 113.97751,226.815962 C113.97751,225.894197 114.128929,225.070356 114.431765,224.340182 C114.732469,223.607879 115.159,222.994788 115.709224,222.49878 C116.261582,222.000644 116.914173,221.632364 117.673398,221.391811 C118.432622,221.153386 119.26649,221.074621 120.181398,221.155515 C121.094173,221.23428 121.934439,221.462061 122.700061,221.834598 C123.467816,222.209265 124.124673,222.6925 124.677031,223.288561 C125.227255,223.882492 125.653786,224.570091 125.956622,225.353485 C126.257327,226.139008 126.408745,226.990523 126.408745,227.912288 L126.408745,227.912288 Z M125.839327,227.861197 C125.839327,227.077803 125.711367,226.324212 125.453316,225.604682 C125.193133,224.883023 124.819918,224.242258 124.327276,223.678129 C123.836765,223.116129 123.243888,222.654182 122.544378,222.294417 C121.847,221.93678 121.060051,221.715386 120.181398,221.63875 C119.300612,221.562114 118.517929,221.643008 117.829082,221.877174 C117.140235,222.117727 116.54949,222.473235 116.05898,222.950083 C115.566337,223.426932 115.193122,224.001705 114.935071,224.67653 C114.674888,225.351356 114.546929,226.08153 114.546929,226.864924 C114.546929,227.665348 114.674888,228.427455 114.935071,229.149114 C115.193122,229.868644 115.566337,230.509409 116.05898,231.073538 C116.54949,231.637667 117.140235,232.099614 117.829082,232.467894 C118.517929,232.836174 119.300612,233.057568 120.181398,233.136333 C121.060051,233.21297 121.847,233.129947 122.544378,232.885136 C123.243888,232.638197 123.836765,232.278432 124.327276,231.801583 C124.819918,231.324735 125.193133,230.752091 125.453316,230.075136 C125.711367,229.400311 125.839327,228.659492 125.839327,227.861197 L125.839327,227.861197 Z" id="Fill-40" fill="#E4E5E3" sketch:type="MSShapeGroup"></path>
            <path d="M120.859582,234.183697 C120.622857,234.183697 120.379735,234.173053 120.13448,234.149636 C119.153459,234.062356 118.247082,233.817545 117.436673,233.417333 C116.622,233.014992 115.907561,232.482795 115.316816,231.835644 C114.719673,231.186364 114.254755,230.422129 113.932724,229.572742 C113.608561,228.723356 113.444347,227.795205 113.444347,226.815962 C113.444347,225.828205 113.610694,224.927727 113.939122,224.135818 C114.267551,223.335394 114.743133,222.652053 115.353071,222.102826 C115.956612,221.557856 116.683847,221.149129 117.513449,220.885159 C118.336653,220.627576 119.247296,220.53178 120.226184,220.625447 C121.196541,220.70847 122.107184,220.955409 122.934653,221.355621 C123.755724,221.757962 124.472296,222.285902 125.069439,222.926667 C125.664449,223.567432 126.1315,224.321023 126.453531,225.164023 C126.777694,226.004894 126.941908,226.930917 126.941908,227.912288 C126.941908,228.893659 126.775561,229.798394 126.451398,230.598818 C126.120837,231.407758 125.645255,232.099614 125.037449,232.659485 C124.429643,233.215098 123.698143,233.630212 122.86001,233.889924 C122.237276,234.085773 121.56549,234.183697 120.859582,234.183697 L120.859582,234.183697 Z M119.554398,222.143273 C118.989245,222.143273 118.464612,222.224167 118.001827,222.381697 C117.389755,222.594576 116.858724,222.913894 116.432194,223.331136 C115.992867,223.756894 115.664439,224.259288 115.43198,224.868121 C115.19952,225.479083 115.080092,226.149652 115.080092,226.864924 C115.080092,227.601485 115.19952,228.308242 115.436245,228.970295 C115.670837,229.623833 116.016327,230.215636 116.459918,230.724417 C116.90351,231.233197 117.449469,231.661083 118.080735,231.997432 C118.697071,232.329523 119.420041,232.531758 120.228316,232.606265 C121.023796,232.676515 121.746765,232.602008 122.367367,232.382742 C122.990102,232.163477 123.525398,231.839902 123.956194,231.42053 C124.39552,230.994773 124.721816,230.492379 124.954276,229.883545 C125.188867,229.272583 125.306163,228.5935 125.306163,227.861197 C125.306163,227.141667 125.186735,226.443424 124.95001,225.7835 C124.715418,225.127833 124.369929,224.538159 123.926337,224.02725 C123.482745,223.51847 122.934653,223.094841 122.299122,222.769136 C121.663592,222.441303 120.934224,222.241197 120.13448,222.168818 C119.936143,222.151788 119.742071,222.143273 119.554398,222.143273 L119.554398,222.143273 Z" id="Fill-41" fill="#E4E5E3" sketch:type="MSShapeGroup"></path>
            <path d="M130.567418,222.222038 L133.489153,232.186894 L133.540337,232.191152 L136.796898,222.769136 L138.50302,222.922409 L141.810765,232.919197 L141.861949,232.925583 L144.758092,223.473765 L146.615633,223.637682 L142.791786,235.254477 L140.880929,235.086303 L137.649959,225.121447 L137.598776,225.115061 L134.41899,234.517917 L132.506,234.349742 L128.682153,222.058121 L130.567418,222.222038" id="Fill-42" fill="#E4E5E3" sketch:type="MSShapeGroup"></path>
            <path d="M143.167133,235.820735 L140.482122,235.584439 L137.611571,226.735068 L134.790071,235.086303 L132.102929,234.847879 L127.937857,221.457803 L130.976888,221.721773 L133.555265,230.515795 L136.427949,222.202879 L138.899694,222.422144 L141.817163,231.24597 L144.374214,222.905379 L147.334337,223.165091 L143.167133,235.820735 L143.167133,235.820735 Z M141.279735,234.586038 L142.416439,234.686091 L145.901194,224.108144 L145.139837,224.040023 L142.239429,233.508871 L141.46101,233.413076 L141.305327,233.085242 L138.106347,223.420545 L137.163714,223.337523 L133.909286,232.757409 L133.130867,232.693545 L132.979449,232.338038 L130.157949,222.720174 L129.426449,222.656311 L132.909071,233.851606 L134.047908,233.94953 L137.231959,224.53603 L137.999714,224.627568 L138.157531,224.95753 L141.279735,234.586038 L141.279735,234.586038 Z" id="Fill-43" fill="#E4E5E3" sketch:type="MSShapeGroup"></path>
            <path d="M149.588551,225.276848 C149.57149,224.765939 149.545898,224.303992 149.511776,223.891008 L151.192306,224.037894 C151.224296,224.365727 151.249888,224.725492 151.269082,225.119318 C151.28401,225.513144 151.294673,225.83672 151.294673,226.092174 L151.345857,226.096432 C151.689214,225.430121 152.207449,224.906439 152.896296,224.53603 C153.585143,224.161364 154.361429,224.014477 155.220888,224.088985 C155.446949,224.108144 155.647418,224.133689 155.828694,224.16775 C156.009969,224.199682 156.19551,224.250773 156.385316,224.318894 L156.152857,225.960189 C156.048357,225.915485 155.875612,225.866523 155.636755,225.811174 C155.393633,225.755826 155.154776,225.715379 154.911653,225.69622 C154.446735,225.653644 153.998878,225.700477 153.568082,225.832462 C153.137286,225.962318 152.761939,226.198614 152.444173,226.534962 C152.124276,226.871311 151.866224,227.316227 151.67002,227.869712 C151.469551,228.421068 151.371449,229.095894 151.371449,229.894189 L151.371449,236.010197 L149.614143,235.856924 L149.614143,226.532833 C149.614143,226.209258 149.605612,225.789886 149.588551,225.276848" id="Fill-44" fill="#E4E5E3" sketch:type="MSShapeGroup"></path>
            <path d="M151.904612,236.591356 L149.08098,236.344417 L149.08098,226.532833 C149.08098,226.213515 149.072449,225.80053 149.055388,225.296008 C149.040459,224.793614 149.014867,224.340182 148.980745,223.933583 L148.927429,223.305591 L151.678551,223.548273 L151.721204,223.984674 C151.742531,224.199682 151.763857,224.43172 151.778786,224.674402 C152.034704,224.442364 152.322612,224.240129 152.64251,224.067697 C153.416663,223.648326 154.30598,223.471636 155.267806,223.558917 C155.513061,223.580205 155.730592,223.607879 155.926796,223.644068 C156.133663,223.682386 156.349061,223.739864 156.566592,223.818629 L156.973929,223.965515 L156.583653,226.718038 L155.94599,226.449811 C155.858551,226.413621 155.717796,226.375303 155.519459,226.330598 C155.297663,226.279508 155.082265,226.243318 154.866867,226.224159 C154.463796,226.190098 154.088449,226.230545 153.725898,226.341242 C153.380408,226.445553 153.090367,226.628629 152.832316,226.901114 C152.563602,227.184242 152.341806,227.569553 152.171194,228.04853 C151.994184,228.538152 151.904612,229.159758 151.904612,229.894189 L151.904612,236.591356 L151.904612,236.591356 Z M150.147306,235.369432 L150.838286,235.431167 L150.838286,229.894189 C150.838286,229.036288 150.949184,228.293341 151.166714,227.688765 C151.386378,227.073545 151.687082,226.560508 152.056031,226.168811 C152.439908,225.764341 152.896296,225.479083 153.414531,225.323682 C153.902908,225.170409 154.41901,225.119318 154.960704,225.164023 C155.208092,225.185311 155.459745,225.225758 155.709265,225.283235 L155.792439,224.702076 C155.771112,224.697818 155.751918,224.693561 155.732724,224.691432 C155.566378,224.6595 155.378704,224.636083 155.171837,224.619053 C154.433939,224.553061 153.740827,224.680788 153.152214,225.002235 C152.552939,225.325811 152.117878,225.764341 151.819306,226.339114 L151.657224,226.656303 L150.812694,226.588182 L150.76151,226.092174 C150.76151,225.843106 150.750847,225.523788 150.735918,225.142735 C150.725255,224.927727 150.712459,224.725492 150.699663,224.529644 L150.087592,224.474295 C150.100388,224.725492 150.113184,224.985205 150.121714,225.259818 C150.138776,225.779242 150.147306,226.205 150.147306,226.532833 L150.147306,235.369432 L150.147306,235.369432 Z" id="Fill-45" fill="#E4E5E3" sketch:type="MSShapeGroup"></path>
            <path d="M161.062224,220.310386 C161.062224,220.668023 160.932133,220.951152 160.674082,221.159773 C160.416031,221.364136 160.130255,221.453545 159.82102,221.428 C159.509653,221.400326 159.228143,221.261955 158.967959,221.008629 C158.709908,220.755303 158.579816,220.450886 158.579816,220.09325 C158.579816,219.735614 158.709908,219.452485 158.967959,219.245992 C159.228143,219.0395 159.509653,218.947962 159.82102,218.975636 C160.130255,219.003311 160.416031,219.141682 160.674082,219.397136 C160.932133,219.648333 161.062224,219.95275 161.062224,220.310386 L161.062224,220.310386 Z M160.699673,236.831909 L158.942367,236.678636 L158.942367,224.721235 L160.699673,224.876636 L160.699673,236.831909 L160.699673,236.831909 Z" id="Fill-46" fill="#E4E5E3" sketch:type="MSShapeGroup"></path>
            <path d="M161.232837,237.410939 L158.409204,237.166129 L158.409204,224.142205 L161.232837,224.387015 L161.232837,237.410939 L161.232837,237.410939 Z M159.475531,236.189015 L160.16651,236.252879 L160.16651,225.364129 L159.475531,225.302394 L159.475531,236.189015 L159.475531,236.189015 Z M159.927653,221.964455 L159.774102,221.958068 C159.341173,221.91975 158.9445,221.728159 158.596878,221.391811 C158.236459,221.038432 158.046653,220.589258 158.046653,220.09325 C158.046653,219.573826 158.251388,219.137424 158.635265,218.830879 C158.959429,218.571167 159.32198,218.437053 159.710122,218.437053 L159.870071,218.445568 C160.303,218.483886 160.701806,218.677606 161.047296,219.018212 C161.405582,219.365205 161.595388,219.814379 161.595388,220.310386 C161.595388,220.827682 161.392786,221.266212 161.008908,221.572758 C160.682612,221.83247 160.320061,221.964455 159.927653,221.964455 L159.927653,221.964455 Z M159.754908,219.505705 C159.558704,219.505705 159.432878,219.556795 159.302786,219.663235 C159.208949,219.735614 159.11298,219.846311 159.11298,220.09325 C159.11298,220.306129 159.187622,220.476432 159.341173,220.631833 C159.509653,220.793621 159.682398,220.880902 159.865806,220.897932 L159.927653,221.432258 L159.927653,220.900061 C160.076939,220.900061 160.207031,220.84897 160.341388,220.74253 C160.47148,220.636091 160.529061,220.508364 160.529061,220.310386 C160.529061,220.099636 160.456551,219.929333 160.300867,219.776061 C160.132388,219.610015 159.959643,219.522735 159.776235,219.505705 L159.754908,219.505705 L159.754908,219.505705 Z" id="Fill-47" fill="#E4E5E3" sketch:type="MSShapeGroup"></path>
            <path d="M170.829776,227.224689 L167.417531,226.926659 L167.417531,233.900568 C167.417531,234.343356 167.462316,234.711636 167.547622,235.009667 C167.635061,235.305568 167.758755,235.541864 167.922969,235.720682 C168.085051,235.895242 168.281255,236.02297 168.505184,236.101735 C168.72698,236.182629 168.970102,236.23372 169.228153,236.255008 C169.469143,236.276295 169.720796,236.263523 169.98951,236.220947 C170.256092,236.174114 170.509878,236.103864 170.753,236.005939 L170.829776,237.519508 C170.518408,237.611045 170.196378,237.674909 169.861551,237.702583 C169.524592,237.734515 169.157776,237.730258 168.763235,237.696197 C168.434806,237.666394 168.089316,237.594015 167.728898,237.479061 C167.366347,237.359848 167.03152,237.168258 166.722286,236.904288 C166.410918,236.636061 166.157133,236.291197 165.958796,235.865439 C165.760459,235.439682 165.662357,234.894712 165.662357,234.228402 L165.662357,226.769129 L163.154357,226.549864 L163.154357,225.091644 L165.662357,225.315167 L165.662357,221.943167 L167.417531,222.096439 L167.417531,225.468439 L170.829776,225.770727 L170.829776,227.224689" id="Fill-48" fill="#E4E5E3" sketch:type="MSShapeGroup"></path>
            <path d="M169.377439,238.256068 C169.168439,238.256068 168.946643,238.245424 168.718449,238.226265 C168.3495,238.194333 167.961357,238.113439 167.564684,237.985712 C167.13602,237.843083 166.737214,237.617432 166.374663,237.310886 C166.003582,236.987311 165.702878,236.578583 165.474684,236.088962 C165.244357,235.595083 165.129194,234.96922 165.129194,234.228402 L165.129194,227.256621 L162.621194,227.035227 L162.621194,224.510485 L165.129194,224.731879 L165.129194,221.362008 L167.950694,221.608947 L167.950694,224.980947 L171.362939,225.283235 L171.362939,227.805848 L167.950694,227.505689 L167.950694,233.900568 C167.950694,234.288008 167.989082,234.611583 168.059459,234.860652 C168.121306,235.077788 168.208745,235.243833 168.313245,235.358788 C168.419878,235.469485 168.539306,235.54825 168.682194,235.60147 C168.859204,235.665333 169.057541,235.707909 169.275071,235.724939 C169.469143,235.739841 169.682408,235.729197 169.904204,235.695136 C170.130265,235.656818 170.349929,235.595083 170.552531,235.514189 L171.247776,235.233189 L171.384265,237.911205 L170.981194,238.030417 C170.631439,238.132598 170.27102,238.202848 169.906337,238.232652 C169.73999,238.249682 169.56298,238.256068 169.377439,238.256068 L169.377439,238.256068 Z M163.68752,226.062371 L166.19552,226.283765 L166.19552,234.228402 C166.19552,234.813818 166.278694,235.286409 166.442908,235.639788 C166.60499,235.993167 166.818255,236.282682 167.069908,236.501947 C167.321561,236.716955 167.600939,236.876614 167.895245,236.972409 C168.215143,237.074591 168.524378,237.142712 168.810153,237.166129 C169.166306,237.198061 169.503265,237.200189 169.8125,237.172515 C169.968184,237.159742 170.123867,237.138455 170.275286,237.108652 L170.253959,236.710568 C170.196378,236.723341 170.138796,236.733985 170.081214,236.744629 C169.761316,236.797848 169.46701,236.81275 169.181235,236.787205 C168.872,236.75953 168.581959,236.695667 168.321776,236.602 C168.023204,236.497689 167.756622,236.323129 167.532694,236.082576 C167.310898,235.844152 167.144551,235.533348 167.035786,235.156553 C166.933418,234.805303 166.884367,234.392318 166.884367,233.900568 L166.884367,226.3455 L170.296612,226.645659 L170.296612,226.256091 L166.884367,225.955932 L166.884367,222.586061 L166.19552,222.522197 L166.19552,225.896326 L163.68752,225.674932 L163.68752,226.062371 L163.68752,226.062371 Z" id="Fill-49" fill="#E4E5E3" sketch:type="MSShapeGroup"></path>
            <path d="M184.576857,232.602008 L184.576857,232.983061 C184.576857,233.121432 184.568327,233.264061 184.551265,233.417333 L174.525663,232.531758 C174.540592,233.129947 174.662153,233.702591 174.886082,234.251818 C175.11001,234.798917 175.419245,235.28428 175.818051,235.712167 C176.212592,236.140053 176.67751,236.491303 177.212806,236.768045 C177.745969,237.044788 178.323918,237.210833 178.94452,237.266182 C179.857296,237.344947 180.646378,237.206576 181.309633,236.846811 C181.972888,236.489174 182.476194,236.052773 182.821684,235.537606 L184.139663,236.676508 C183.414561,237.513121 182.616949,238.092152 181.748959,238.405083 C180.878837,238.720144 179.942602,238.83297 178.94452,238.745689 C178.046673,238.666924 177.217071,238.437015 176.449316,238.053833 C175.683694,237.67278 175.024704,237.174644 174.47448,236.565811 C173.922122,235.954848 173.487061,235.252348 173.169296,234.458311 C172.849398,233.662144 172.689449,232.812758 172.689449,231.910152 C172.689449,231.009674 172.845133,230.187962 173.1565,229.449273 C173.465735,228.710583 173.896531,228.08472 174.446755,227.569553 C174.999112,227.056515 175.643173,226.675462 176.385337,226.424265 C177.1275,226.175197 177.927245,226.087917 178.790969,226.164553 C179.735735,226.247576 180.571735,226.479614 181.294704,226.856409 C182.019806,227.237462 182.621214,227.716439 183.103194,228.293341 C183.587306,228.8745 183.95199,229.530167 184.203643,230.268856 C184.451031,231.005417 184.576857,231.784553 184.576857,232.602008 L184.576857,232.602008 Z M182.793959,231.882477 C182.742776,230.752091 182.375959,229.78775 181.695643,228.987326 C181.015327,228.186902 180.047102,227.731341 178.790969,227.620644 C178.20449,227.567424 177.660663,227.629159 177.161622,227.797333 C176.660449,227.965508 176.221122,228.216705 175.843643,228.548795 C175.464031,228.883015 175.161194,229.272583 174.939398,229.719629 C174.715469,230.168803 174.585378,230.64778 174.551255,231.154432 L182.793959,231.882477 L182.793959,231.882477 Z" id="Fill-50" fill="#E4E5E3" sketch:type="MSShapeGroup"></path>
            <path d="M179.584316,239.307689 C179.358255,239.307689 179.130061,239.297045 178.897602,239.275758 C177.937908,239.190606 177.033663,238.941538 176.212592,238.530682 C175.389388,238.119826 174.670684,237.579114 174.077806,236.923447 C173.484929,236.265652 173.013612,235.503545 172.672388,234.656288 C172.331163,233.800515 172.156286,232.876621 172.156286,231.910152 C172.156286,230.941553 172.326898,230.047462 172.663857,229.244909 C173.000816,228.440227 173.478531,227.744114 174.084204,227.182114 C174.687745,226.620114 175.404316,226.196485 176.214724,225.921871 C177.025133,225.647258 177.903786,225.553591 178.837888,225.634485 C179.850898,225.723894 180.761541,225.975091 181.544224,226.385947 C182.326908,226.798932 182.990163,227.324742 183.512663,227.952735 C184.037296,228.580727 184.438235,229.302386 184.706949,230.098553 C184.975663,230.888333 185.11002,231.731333 185.11002,232.602008 L185.11002,232.983061 C185.11002,233.140591 185.10149,233.304508 185.082296,233.479068 L185.020449,233.992106 L175.116408,233.119303 C175.169724,233.436492 175.257163,233.749424 175.380857,234.049583 C175.579194,234.534947 175.856439,234.971348 176.208327,235.348144 C176.560214,235.729197 176.978214,236.048515 177.458061,236.295455 C177.927245,236.538136 178.443347,236.687152 178.991439,236.736114 C179.782653,236.802106 180.486429,236.685023 181.053714,236.378477 C181.638061,236.065545 182.083786,235.682364 182.378092,235.241705 L182.712918,234.741439 L184.890357,236.621159 L184.542735,237.0235 C183.760051,237.930364 182.879265,238.562614 181.930235,238.907477 C181.190204,239.173576 180.403255,239.307689 179.584316,239.307689 L179.584316,239.307689 Z M178.193827,226.671205 C177.61801,226.671205 177.065653,226.758485 176.558082,226.930917 C175.882031,227.158697 175.31048,227.495045 174.811439,227.959121 C174.316663,228.418939 173.926388,228.987326 173.649143,229.655765 C173.3655,230.326333 173.222612,231.086311 173.222612,231.910152 C173.222612,232.740379 173.371898,233.530159 173.664071,234.260333 C173.956245,234.992636 174.361449,235.646174 174.86902,236.210303 C175.372327,236.768045 175.986531,237.227864 176.688173,237.579114 C177.391949,237.930364 178.166102,238.143242 178.991439,238.215621 C179.899949,238.290129 180.770071,238.192205 181.567684,237.904818 C182.205347,237.674909 182.808888,237.276826 183.371908,236.716955 L182.894194,236.30397 C182.538041,236.68928 182.092316,237.029886 181.561286,237.315144 C180.810592,237.719614 179.912745,237.885659 178.897602,237.79625 C178.208755,237.734515 177.558296,237.547182 176.967551,237.238508 C176.376806,236.934091 175.858571,236.540265 175.425643,236.069803 C174.988449,235.603598 174.638694,235.0565 174.393439,234.451924 C174.146051,233.84522 174.009561,233.204455 173.9925,232.546659 L173.975439,231.950598 L184.043694,232.838303 L184.043694,232.602008 C184.043694,231.846288 183.928531,231.118242 183.698204,230.439159 C183.47001,229.768591 183.133051,229.159758 182.693724,228.633947 C182.260796,228.114523 181.706306,227.673864 181.047316,227.329 C180.390459,226.984136 179.616306,226.771258 178.741918,226.694621 C178.556378,226.677591 178.372969,226.671205 178.193827,226.671205 L178.193827,226.671205 Z M183.354847,232.465765 L173.983969,231.639795 L174.018092,231.118242 C174.05648,230.545598 174.207898,229.994242 174.461684,229.483333 C174.715469,228.976682 175.060959,228.527508 175.491755,228.150712 C175.922551,227.769659 176.42799,227.482273 176.99101,227.292811 C177.562561,227.10122 178.178898,227.037356 178.835755,227.090576 C180.23051,227.211917 181.328827,227.735598 182.10298,228.642462 C182.857939,229.532295 183.269541,230.61372 183.327122,231.856932 L183.354847,232.465765 L183.354847,232.465765 Z M175.159061,230.673326 L182.198949,231.294932 C182.07099,230.545598 181.770286,229.898447 181.290439,229.334318 C180.697561,228.633947 179.863694,228.248636 178.741918,228.150712 C178.234347,228.103879 177.763031,228.15497 177.332235,228.301856 C176.903571,228.446614 176.521827,228.66375 176.197663,228.949008 C175.869235,229.236394 175.606918,229.574871 175.41498,229.958053 C175.301949,230.185833 175.216643,230.426386 175.159061,230.673326 L175.159061,230.673326 Z" id="Fill-51" fill="#E4E5E3" sketch:type="MSShapeGroup"></path>
            <path d="M36.0908878,238.660538 C36.0908878,239.42903 35.948,240.091083 35.6643571,240.653083 C35.3807143,241.217212 34.9968367,241.672773 34.5148571,242.021894 C34.0328776,242.373144 33.4677245,242.620083 32.8215306,242.76697 C32.1753367,242.913856 31.4907551,242.956432 30.7677857,242.892568 L26.0375612,242.475326 L26.0375612,251.365144 L25.4702755,251.316182 L25.4702755,233.23 L30.4308265,233.666402 C31.085551,233.723879 31.7488061,233.855864 32.4205918,234.058098 C33.0923776,234.262462 33.7001837,234.560492 34.2440102,234.947932 C34.7857041,235.335371 35.2292959,235.835636 35.5747857,236.44447 C35.9181429,237.053303 36.0908878,237.791992 36.0908878,238.660538 L36.0908878,238.660538 Z M35.5214694,238.611576 C35.5214694,237.843083 35.376449,237.193803 35.0821429,236.65522 C34.7899694,236.118765 34.4103571,235.678106 33.9454388,235.331114 C33.4805204,234.981992 32.9601531,234.715894 32.3822041,234.528561 C31.8042551,234.341227 31.2327041,234.222015 30.6632857,234.173053 L26.0375612,233.766455 L26.0375612,241.989962 L30.7933776,242.409333 C31.3627959,242.460424 31.9300816,242.43275 32.4973673,242.328439 C33.0667857,242.226258 33.5743571,242.024023 34.0243469,241.723864 C34.4722041,241.421576 34.8326224,241.014977 35.1077347,240.504068 C35.3849796,239.99103 35.5214694,239.360909 35.5214694,238.611576 L35.5214694,238.611576 Z" id="Fill-52" fill="#E4E5E3" sketch:type="MSShapeGroup"></path>
            <path d="M26.5707245,251.948432 L24.9371122,251.801545 L24.9371122,232.646712 L30.4777449,233.136333 C31.1665918,233.195939 31.8725,233.334311 32.5762755,233.549318 C33.2992449,233.770712 33.9646327,234.094288 34.5553776,234.515788 C35.1525204,234.941545 35.6515612,235.503545 36.0375714,236.182629 C36.4278469,236.868098 36.624051,237.702583 36.624051,238.660538 C36.624051,239.507795 36.4619694,240.257129 36.1399388,240.891508 C35.8179082,241.532273 35.376449,242.055955 34.8262245,242.454038 C34.2930612,242.841477 33.6575306,243.122477 32.9409592,243.286394 C32.2435816,243.443924 31.4971531,243.490758 30.7187347,243.422636 L26.5707245,243.058614 L26.5707245,251.948432 L26.5707245,251.948432 Z M26.5707245,241.50247 L30.8402959,241.879265 C31.3606633,241.926098 31.8831633,241.902682 32.401398,241.804758 C32.8961735,241.717477 33.3397653,241.540788 33.7257755,241.283205 C34.0968571,241.032008 34.4039592,240.685015 34.638551,240.250742 C34.8710102,239.820727 34.9883061,239.269371 34.9883061,238.611576 C34.9883061,237.93675 34.8624796,237.366235 34.6129592,236.908545 C34.3613061,236.44447 34.0286122,236.05703 33.6276735,235.756871 C33.2139388,235.448197 32.7404898,235.203386 32.2179898,235.033083 C31.6805612,234.860652 31.1431327,234.747826 30.6163673,234.703121 L26.5707245,234.347614 L26.5707245,241.50247 L26.5707245,241.50247 Z" id="Fill-53" fill="#E4E5E3" sketch:type="MSShapeGroup"></path>
            <path d="M53.0689388,249.774939 C52.827949,250.647742 52.4312755,251.390689 51.881051,252.008038 C51.3286939,252.623258 50.6099898,253.083076 49.7228061,253.387492 C48.8334898,253.694038 47.7458367,253.789833 46.453449,253.674879 C45.1610612,253.559924 44.0712755,253.274667 43.1840918,252.81272 C42.2969082,252.350773 41.5782041,251.765356 41.0258469,251.052212 C40.4756224,250.339068 40.078949,249.525871 39.8379592,248.608364 C39.5969694,247.695114 39.4754082,246.724386 39.4754082,245.702568 L39.4754082,234.464697 L40.0448265,234.513659 L40.0448265,245.649348 C40.0448265,246.36675 40.1173367,247.135242 40.2623571,247.956955 C40.4095102,248.778667 40.7123469,249.555674 41.1687347,250.28372 C41.6251224,251.013894 42.2713163,251.646144 43.1073163,252.178341 C43.9411837,252.712667 45.0565612,253.0405 46.453449,253.16397 C47.8140816,253.285311 48.912398,253.159712 49.748398,252.789303 C50.584398,252.421023 51.2327245,251.912242 51.6997755,251.262962 C52.1646939,250.615811 52.4739286,249.892023 52.6296122,249.097985 C52.7852959,248.301818 52.8620714,247.529068 52.8620714,246.779735 L52.8620714,235.641917 L53.4314898,235.693008 L53.4314898,246.933008 C53.4314898,247.954826 53.3099286,248.902136 53.0689388,249.774939" id="Fill-54" fill="#E4E5E3" sketch:type="MSShapeGroup"></path>
            <path d="M47.4621939,254.253909 C47.1273673,254.253909 46.7754796,254.239008 46.4065306,254.204947 C45.0480306,254.083606 43.8814694,253.774932 42.9367041,253.285311 C41.9834082,252.787174 41.1985918,252.146409 40.6057143,251.375788 C40.0107041,250.609424 39.5799082,249.723848 39.3218571,248.744606 C39.0702041,247.786652 38.9422449,246.764833 38.9422449,245.702568 L38.9422449,233.883538 L40.5779898,234.028295 L40.5779898,245.649348 C40.5779898,246.332689 40.6483673,247.077765 40.7891224,247.863288 C40.9213469,248.612621 41.2028571,249.332152 41.6208571,250.00272 C42.0324592,250.662644 42.629602,251.243803 43.3930918,251.729167 C44.1523163,252.216659 45.1973163,252.518947 46.5003673,252.633902 C47.7586327,252.746727 48.7823061,252.633902 49.533,252.303939 C50.2751633,251.976106 50.8573776,251.520545 51.2668469,250.954288 C51.6848469,250.368871 51.9663571,249.713205 52.1049796,248.995803 C52.2542653,248.237955 52.3289082,247.495008 52.3289082,246.779735 L52.3289082,235.062886 L53.9646531,235.205515 L53.9646531,246.933008 C53.9646531,247.995273 53.8366939,249.000061 53.5850408,249.915439 C53.3205918,250.864879 52.8812653,251.686591 52.2777245,252.361417 C51.6677857,253.042629 50.8659082,253.555667 49.895551,253.892015 C49.1960408,254.132568 48.3792347,254.253909 47.4621939,254.253909" id="Fill-55" fill="#E4E5E3" sketch:type="MSShapeGroup"></path>
            <path d="M69.1171531,250.332682 C69.1171531,251.303409 68.9294796,252.082545 68.5605306,252.67222 C68.189449,253.261894 67.716,253.708939 67.138051,254.015485 C66.5622347,254.32203 65.9245714,254.517879 65.2271939,254.600902 C64.5298163,254.683924 63.8601633,254.698826 63.2246327,254.641348 L57.6178878,254.14747 L57.6178878,236.061288 L62.6040306,236.501947 C63.2928776,236.561553 63.9774592,236.691409 64.6577755,236.885129 C65.3380918,237.083106 65.945898,237.366235 66.4811939,237.736644 C67.0143571,238.109182 67.4451531,238.579644 67.7735816,239.154417 C68.0998776,239.727061 68.2640918,240.429561 68.2640918,241.266174 C68.2640918,241.913326 68.1595918,242.464682 67.9527245,242.922371 C67.7479898,243.382189 67.4664796,243.7675 67.1124592,244.076174 C66.7605714,244.386977 66.3596327,244.62753 65.9117755,244.799962 C65.4639184,244.974523 65.0075306,245.091606 64.5426122,245.151212 L64.5426122,245.204432 C65.0075306,245.293841 65.5065714,245.464144 66.0397347,245.706826 C66.5750306,245.947379 67.0698061,246.27947 67.5283265,246.692455 C67.9825816,247.107568 68.3621939,247.618477 68.662898,248.220924 C68.963602,248.829758 69.1171531,249.532258 69.1171531,250.332682 L69.1171531,250.332682 Z M67.6946735,241.29172 C67.6946735,240.559417 67.5496531,239.933553 67.2553469,239.414129 C66.9631735,238.894705 66.5750306,238.468947 66.093051,238.134727 C65.6110714,237.804765 65.054449,237.547182 64.4253163,237.364106 C63.7983163,237.18103 63.1371939,237.057561 62.4483469,236.997955 L58.1851735,236.621159 L58.1851735,244.414652 L62.5784388,244.799962 C63.1990408,244.855311 63.8132449,244.834023 64.4253163,244.73397 C65.0373878,244.633917 65.5833469,244.448712 66.0674592,244.174098 C66.5494388,243.901614 66.9418469,243.529076 67.242551,243.054356 C67.5432551,242.577508 67.6946735,241.989962 67.6946735,241.29172 L67.6946735,241.29172 Z M68.5477347,250.358227 C68.5477347,249.540773 68.3792551,248.829758 68.0444286,248.220924 C67.7074694,247.609962 67.2809388,247.105439 66.7648367,246.703098 C66.246602,246.298629 65.6793163,245.989955 65.0587143,245.772818 C64.4381122,245.557811 63.8345714,245.421568 63.2502245,245.370477 L58.1851735,244.925561 L58.1851735,253.685523 L62.9665816,254.107023 C63.7577959,254.175144 64.4999592,254.162371 65.1866735,254.062318 C65.8776531,253.960136 66.468398,253.76003 66.9589082,253.464129 C67.4494184,253.166098 67.8375612,252.7595 68.1212041,252.248591 C68.4048469,251.739811 68.5477347,251.107561 68.5477347,250.358227 L68.5477347,250.358227 Z" id="Fill-56" fill="#E4E5E3" sketch:type="MSShapeGroup"></path>
            <path d="M64.003051,255.207606 C63.7215408,255.207606 63.4464286,255.194833 63.1777143,255.171417 L57.0847245,254.632833 L57.0847245,235.478 L62.650949,235.971879 C63.3653878,236.033614 64.0926224,236.167727 64.8049286,236.37422 C65.5428265,236.589227 66.2082143,236.897902 66.7840306,237.300242 C67.3833061,237.715356 67.869551,238.249682 68.2363673,238.890447 C68.607449,239.541856 68.7972551,240.34228 68.7972551,241.266174 C68.7972551,241.985705 68.6778265,242.615826 68.4389694,243.141636 C68.2043776,243.667447 67.875949,244.116621 67.4643469,244.476386 C67.1124592,244.785061 66.7136531,245.038386 66.2743265,245.227848 C66.8458776,245.487561 67.3875714,245.847326 67.8866122,246.2965 C68.3877857,246.756318 68.810051,247.324705 69.1406122,247.984629 C69.4797041,248.66797 69.6503163,249.455621 69.6503163,250.332682 C69.6503163,251.397076 69.4349184,252.280523 69.0126531,252.955348 C68.5946531,253.621659 68.0486939,254.134697 67.3897041,254.485947 C66.7541735,254.822295 66.0482653,255.039432 65.2911735,255.128841 C64.8497143,255.179932 64.421051,255.207606 64.003051,255.207606 L64.003051,255.207606 Z M58.7183367,253.19803 L63.0135,253.576955 C63.320602,253.604629 63.6234388,253.617402 63.9156122,253.617402 C64.3314796,253.617402 64.734551,253.589727 65.109898,253.536508 C65.724102,253.44497 66.253,253.26828 66.6837959,253.008568 C67.095398,252.757371 67.4131633,252.42528 67.6541531,251.991008 C67.8930102,251.563121 68.0145714,251.013894 68.0145714,250.358227 C68.0145714,249.628053 67.8716837,249.012833 67.5773776,248.476379 C67.2766735,247.935667 66.8927959,247.477977 66.4364082,247.12247 C65.9672245,246.756318 65.4447245,246.471061 64.8838367,246.275212 C64.3058878,246.075106 63.7407347,245.947379 63.2033061,245.900545 L58.7183367,245.50672 L58.7183367,253.19803 L58.7183367,253.19803 Z M58.7183367,243.927159 L62.6253571,244.269894 C63.2011735,244.323114 63.7769898,244.301826 64.3400102,244.208159 C64.888102,244.11875 65.3807449,243.952705 65.8030102,243.712152 C66.2060816,243.484371 66.5387755,243.167182 66.7925612,242.769098 C67.0378163,242.381659 67.1615102,241.883523 67.1615102,241.29172 C67.1615102,240.655212 67.0378163,240.110242 66.7904286,239.67597 C66.5409082,239.228924 66.2018163,238.858515 65.7902143,238.573258 C65.3572857,238.277356 64.845449,238.041061 64.2760306,237.875015 C63.6810204,237.700455 63.0497551,237.5855 62.4014286,237.528023 L58.7183367,237.204447 L58.7183367,243.927159 L58.7183367,243.927159 Z" id="Fill-57" fill="#E4E5E3" sketch:type="MSShapeGroup"></path>
            <path d="M73.4336429,255.541826 L73.4336429,237.455644 L74.0009286,237.504606 L74.0009286,255.079879 L83.0966939,255.880303 L83.0966939,256.391212 L73.4336429,255.541826" id="Fill-58" fill="#E4E5E3" sketch:type="MSShapeGroup"></path>
            <path d="M83.6298571,256.9745 L72.9004796,256.027189 L72.9004796,236.874485 L74.5340918,237.019242 L74.5340918,254.594515 L83.6298571,255.394939 L83.6298571,256.9745" id="Fill-59" fill="#E4E5E3" sketch:type="MSShapeGroup"></path>
            <path d="M86.3020714,256.674341 L86.3020714,238.588159 L86.8693571,238.63925 L86.8693571,256.725432 L86.3020714,256.674341" id="Fill-60" fill="#E4E5E3" sketch:type="MSShapeGroup"></path>
            <path d="M87.4025204,257.306591 L85.7689082,257.161833 L85.7689082,238.007 L87.4025204,238.151758 L87.4025204,257.306591" id="Fill-61" fill="#E4E5E3" sketch:type="MSShapeGroup"></path>
            <path d="M103.885796,258.058053 C102.706439,258.405045 101.503622,258.524258 100.27948,258.417818 C98.9017857,258.296477 97.6456531,257.947356 96.508949,257.368326 C95.3722449,256.793553 94.3890918,256.046348 93.5637551,255.13097 C92.7362857,254.215591 92.0943571,253.149068 91.6379694,251.93353 C91.179449,250.717992 90.9533878,249.419432 90.9533878,248.042106 C90.9533878,246.662652 91.179449,245.404538 91.6379694,244.269894 C92.0943571,243.13525 92.7362857,242.183682 93.5637551,241.410932 C94.3890918,240.642439 95.3765102,240.069795 96.5196122,239.695129 C97.6669796,239.318333 98.9209796,239.188477 100.27948,239.309818 C101.418316,239.409871 102.525163,239.699386 103.602153,240.176235 C104.67701,240.655212 105.596184,241.319394 106.355408,242.16878 L105.992857,242.543447 C105.630306,242.138977 105.220837,241.774955 104.766582,241.453508 C104.308061,241.134189 103.826082,240.857447 103.31851,240.62328 C102.808806,240.393371 102.296969,240.210295 101.780867,240.078311 C101.262633,239.948455 100.763592,239.863303 100.27948,239.818598 C98.9721633,239.705773 97.7800102,239.8335 96.7030204,240.208167 C95.6260306,240.582833 94.7025918,241.140576 93.9369694,241.894167 C93.1713469,242.641371 92.5763367,243.548235 92.1540714,244.608371 C91.7318061,245.670636 91.5206735,246.830826 91.5206735,248.091068 C91.5206735,249.353439 91.7275408,250.547689 92.1412755,251.684462 C92.5528776,252.819106 93.1436224,253.828152 93.9113776,254.713727 C94.677,255.597174 95.6004388,256.323091 96.6774286,256.88722 C97.7522857,257.44922 98.9529694,257.789826 100.27948,257.90478 C101.418316,258.006962 102.542224,257.889879 103.653337,257.551402 C104.766582,257.215053 105.68149,256.646667 106.406592,255.839856 L106.818194,256.259227 C106.044041,257.110742 105.067286,257.711061 103.885796,258.058053" id="Fill-62" fill="#E4E5E3" sketch:type="MSShapeGroup"></path>
            <path d="M101.145337,258.986205 C100.8425,258.986205 100.539663,258.973432 100.234694,258.947886 C98.7930204,258.820159 97.4579796,258.44975 96.2679592,257.843045 C95.0758061,257.240598 94.0308061,256.446561 93.1670816,255.486477 C92.2990918,254.524265 91.6145102,253.39175 91.1367959,252.120864 C90.6612143,250.852106 90.4180918,249.479038 90.4180918,248.042106 C90.4180918,246.600917 90.6633469,245.264038 91.1431939,244.071917 C91.6251735,242.87128 92.3161531,241.845205 93.1990714,241.023492 C94.0798571,240.20178 95.1419184,239.586561 96.355398,239.188477 C97.5667449,238.792523 98.9017857,238.652023 100.328531,238.77975 C101.518551,238.884061 102.69151,239.190606 103.819684,239.690871 C104.95852,240.197523 105.945939,240.912795 106.752082,241.815402 L107.08051,242.181553 L105.977929,243.32897 L105.594051,242.898955 C105.259224,242.524288 104.87748,242.183682 104.457347,241.88778 C104.028684,241.587621 103.570163,241.323652 103.094582,241.108644 C102.610469,240.88725 102.124224,240.714818 101.648643,240.593477 C101.168796,240.474265 100.693214,240.391242 100.232561,240.348667 C99.010551,240.242227 97.8781122,240.361439 96.877898,240.710561 C95.875551,241.057553 95.0118265,241.583364 94.3101837,242.273091 C93.6000102,242.967076 93.0412551,243.818591 92.6488469,244.80422 C92.2543061,245.798364 92.0538367,246.903205 92.0538367,248.091068 C92.0538367,249.285318 92.2521735,250.432735 92.642449,251.501386 C93.0305918,252.567909 93.5936122,253.534379 94.314449,254.366735 C95.0352857,255.196962 95.9118061,255.886689 96.9248163,256.414629 C97.9314286,256.942568 99.0766633,257.266144 100.328531,257.374712 C101.39699,257.472636 102.454786,257.357682 103.497653,257.042621 C104.525592,256.733947 105.346663,256.220909 106.009918,255.484348 L106.389531,255.06072 L107.551827,256.244326 L107.212735,256.616864 C106.376735,257.538629 105.308276,258.194295 104.037214,258.568962 C103.090316,258.847833 102.117827,258.986205 101.145337,258.986205" id="Fill-63" fill="#E4E5E3" sketch:type="MSShapeGroup"></path>
            <path d="M125.167541,260.099561 L122.9965,254.722242 L112.375888,253.785576 L110.128071,258.775455 L109.507469,258.717977 L117.440939,241.332167 L118.163908,241.39603 L125.788143,260.15278 L125.167541,260.099561 L125.167541,260.099561 Z M117.777898,241.719606 L112.582755,253.319371 L122.815224,254.219848 L117.777898,241.719606 L117.777898,241.719606 Z" id="Fill-64" fill="#E4E5E3" sketch:type="MSShapeGroup"></path>
            <path d="M126.609214,260.757356 L124.796459,260.599826 L122.623286,255.224636 L112.706449,254.349705 L110.4565,259.337455 L108.709857,259.179924 L117.11251,240.770167 L117.598755,240.812742 L117.80349,240.357182 L117.999694,240.846803 L118.53499,240.891508 L118.658684,241.195924 L126.609214,260.757356 L126.609214,260.757356 Z M113.376102,252.855295 L121.996286,253.613144 L117.750173,243.079902 L113.376102,252.855295 L113.376102,252.855295 Z" id="Fill-65" fill="#E4E5E3" sketch:type="MSShapeGroup"></path>
            <path d="M131.964306,243.122477 L131.964306,260.69775 L131.394888,260.648788 L131.394888,243.073515 L125.167541,242.524288 L125.167541,242.013379 L138.191653,243.160795 L138.191653,243.671705 L131.964306,243.122477" id="Fill-66" fill="#E4E5E3" sketch:type="MSShapeGroup"></path>
            <path d="M132.497469,261.27678 L130.861724,261.13628 L130.861724,243.558879 L124.634378,243.009652 L124.634378,241.430091 L138.724816,242.673303 L138.724816,244.252864 L132.497469,243.705765 L132.497469,261.27678" id="Fill-67" fill="#E4E5E3" sketch:type="MSShapeGroup"></path>
            <path d="M141.397031,261.530106 L141.397031,243.441795 L141.964316,243.492886 L141.964316,261.579068 L141.397031,261.530106" id="Fill-68" fill="#E4E5E3" sketch:type="MSShapeGroup"></path>
            <path d="M142.49748,262.158098 L140.863867,262.01547 L140.863867,242.862765 L142.49748,243.005394 L142.49748,262.158098" id="Fill-69" fill="#E4E5E3" sketch:type="MSShapeGroup"></path>
            <path d="M164.86048,254.551939 C164.86048,255.948424 164.623755,257.210795 164.150306,258.336924 C163.676857,259.458795 163.02,260.406106 162.186133,261.176727 C161.350133,261.94522 160.354184,262.517864 159.200418,262.89253 C158.046653,263.267197 156.799051,263.397053 155.45548,263.27997 C154.111908,263.160758 152.860041,262.811636 151.708408,262.232606 C150.55251,261.653576 149.558694,260.9085 148.722694,259.990992 C147.886694,259.073485 147.231969,258.01122 146.75852,256.804197 C146.285071,255.592917 146.048347,254.292227 146.048347,252.895742 C146.048347,251.499258 146.285071,250.239015 146.75852,249.112886 C147.231969,247.988886 147.886694,247.041576 148.722694,246.273083 C149.558694,245.502462 150.548245,244.931947 151.69348,244.555152 C152.840847,244.178356 154.092714,244.050629 155.45548,244.169841 C156.816112,244.291182 158.06798,244.638174 159.215347,245.215076 C160.358449,245.794106 161.350133,246.541311 162.186133,247.456689 C163.02,248.374197 163.676857,249.436462 164.150306,250.645614 C164.623755,251.854765 164.86048,253.157583 164.86048,254.551939 L164.86048,254.551939 Z M164.293194,254.502977 C164.293194,253.242735 164.075663,252.044227 163.644867,250.907455 C163.216204,249.770682 162.608398,248.761636 161.823582,247.871803 C161.040898,246.988356 160.104663,246.262439 159.019143,245.698311 C157.935755,245.134182 156.747867,244.793576 155.45548,244.682879 C154.160959,244.567924 152.973071,244.695652 151.887551,245.068189 C150.802031,245.442856 149.867929,246.002727 149.083112,246.752061 C148.300429,247.499265 147.692622,248.406129 147.261827,249.464136 C146.831031,250.526402 146.615633,251.686591 146.615633,252.944705 C146.615633,254.204947 146.826765,255.403455 147.249031,256.540227 C147.671296,257.674871 148.268439,258.686045 149.046857,259.571621 C149.82101,260.457197 150.750847,261.180985 151.836367,261.745114 C152.921888,262.311371 154.128969,262.649848 155.45548,262.769061 C156.78199,262.884015 157.986939,262.756288 159.072459,262.38375 C160.15798,262.011212 161.087816,261.449212 161.861969,260.702008 C162.638255,259.950545 163.237531,259.045811 163.659796,257.985674 C164.079929,256.923409 164.293194,255.765348 164.293194,254.502977 L164.293194,254.502977 Z" id="Fill-70" fill="#E4E5E3" sketch:type="MSShapeGroup"></path>
            <path d="M156.398112,263.852614 C156.073949,263.852614 155.743388,263.837712 155.408561,263.810038 C154.00101,263.684439 152.6745,263.31403 151.467418,262.707326 C150.260337,262.10275 149.204673,261.308712 148.328153,260.348629 C147.451633,259.388545 146.756388,258.258159 146.261612,256.997917 C145.766837,255.733417 145.515184,254.351833 145.515184,252.895742 C145.515184,251.433265 145.768969,250.092129 146.26801,248.906394 C146.767051,247.714273 147.472959,246.698841 148.360143,245.881386 C149.249459,245.063932 150.313653,244.446583 151.527133,244.050629 C152.73848,243.652545 154.07352,243.512045 155.502398,243.639773 C156.924878,243.7675 158.255653,244.137909 159.456337,244.740356 C160.654888,245.347061 161.706286,246.141098 162.580673,247.099053 C163.457194,248.061265 164.152439,249.189523 164.647214,250.451894 C165.14199,251.716394 165.393643,253.097977 165.393643,254.551939 C165.393643,256.014417 165.14199,257.357682 164.640816,258.541288 C164.139643,259.733409 163.433735,260.748841 162.546551,261.566295 C161.657235,262.385879 160.586643,263.003227 159.366765,263.397053 C158.434796,263.70147 157.436714,263.852614 156.398112,263.852614 L156.398112,263.852614 Z M154.559765,245.174629 C153.672582,245.174629 152.832316,245.306614 152.060296,245.570583 C151.051551,245.919705 150.172898,246.447644 149.452061,247.137371 C148.729092,247.82497 148.159673,248.674356 147.756602,249.662114 C147.353531,250.654129 147.148796,251.75897 147.148796,252.944705 C147.148796,254.136826 147.351398,255.284242 147.748071,256.355023 C148.146878,257.425803 148.718429,258.390144 149.447796,259.220371 C150.177163,260.052727 151.062214,260.742455 152.081622,261.272523 C153.096765,261.800462 154.246265,262.126167 155.502398,262.238992 C155.800969,262.264538 156.093143,262.277311 156.378918,262.277311 C157.283163,262.277311 158.129827,262.145326 158.899714,261.881356 C159.904194,261.534364 160.776449,261.008553 161.49302,260.318826 C162.211724,259.624841 162.772612,258.773326 163.162888,257.789826 C163.559561,256.795682 163.760031,255.688712 163.760031,254.502977 C163.760031,253.315114 163.553163,252.167697 163.145827,251.096917 C162.742755,250.026136 162.162673,249.061795 161.424776,248.225182 C160.686878,247.392826 159.795429,246.70097 158.773888,246.170902 C157.752347,245.640833 156.617776,245.317258 155.408561,245.212947 C155.11852,245.187402 154.83701,245.174629 154.559765,245.174629 L154.559765,245.174629 Z" id="Fill-71" fill="#E4E5E3" sketch:type="MSShapeGroup"></path>
            <path d="M182.717184,265.170333 L169.590704,246.641364 L169.511796,246.632848 L169.511796,264.005886 L168.94451,263.954795 L168.94451,245.868614 L169.744255,245.938864 L182.898459,264.444417 L182.975235,264.450803 L182.975235,247.105439 L183.544653,247.15653 L183.544653,265.242712 L182.717184,265.170333" id="Fill-72" fill="#E4E5E3" sketch:type="MSShapeGroup"></path>
            <path d="M184.077816,265.823871 L182.42501,265.679114 L170.044959,248.206023 L170.044959,264.584917 L168.411347,264.442288 L168.411347,245.287455 L170.036429,245.430083 L182.442071,262.881886 L182.442071,246.526409 L184.077816,246.666909 L184.077816,265.823871" id="Fill-73" fill="#E4E5E3" sketch:type="MSShapeGroup"></path>
            <path d="M6.77543878,258.977689 L1.96843878,252.555136 L1.96843878,12.1702803 L6.77543878,18.5907045 L6.77543878,258.977689" id="Fill-74" fill="#343433" sketch:type="MSShapeGroup"></path>
            <path d="M6.77543878,260.042083 C6.44487755,260.042083 6.12711224,259.888811 5.9202449,259.614197 L1.1132449,253.191644 C0.976755102,253.008568 0.902112245,252.782917 0.902112245,252.555136 L0.902112245,12.1702803 C0.902112245,11.7104621 1.19428571,11.3059924 1.63147959,11.1591061 C2.07080612,11.0122197 2.54638776,11.1654924 2.8215,11.5337727 L7.6285,17.9563258 C7.76712245,18.1394015 7.84176531,18.3629242 7.84176531,18.5907045 L7.84176531,258.977689 C7.84176531,259.437508 7.54745918,259.844106 7.11239796,259.988864 C7.0015,260.027182 6.88633673,260.042083 6.77543878,260.042083 L6.77543878,260.042083 Z M3.03476531,252.201758 L5.70911224,255.773864 L5.70911224,18.9440833 L3.03476531,15.3741061 L3.03476531,252.201758 L3.03476531,252.201758 Z" id="Fill-75" fill="#343433" sketch:type="MSShapeGroup"></path>
        </g>
    </g>
</svg>