<?xml version="1.0" encoding="UTF-8" standalone="no"?>
<svg width="148px" height="186px" viewBox="0 0 148 186" version="1.1" xmlns="http://www.w3.org/2000/svg" xmlns:xlink="http://www.w3.org/1999/xlink" xmlns:sketch="http://www.bohemiancoding.com/sketch/ns">
    <!-- Generator: Sketch 3.3.3 (12081) - http://www.bohemiancoding.com/sketch -->
    <title>collabowrite_logo</title>
    <desc>Created with Sketch.</desc>
    <defs></defs>
    <g id="Page-1" stroke="none" stroke-width="1" fill="none" fill-rule="evenodd" sketch:type="MSPage">
        <g id="collabowrite_logo" sketch:type="MSLayerGroup">
            <path d="M73.8757127,41.4442566 C71.0007514,41.6146195 71.4709171,39.9126372 70.3032707,37.1786018 C68.7284199,33.4874071 66.8444862,29.9311858 64.7021657,26.5412124 C62.5336796,23.1076195 60.1076243,19.8345133 57.4689724,16.7523451 C55.0216575,13.8948584 51.7165967,11.5492832 49.472884,8.57822124 C47.3109392,5.71661947 44.550453,3.255 41.2977238,1.72584956 C39.7318674,0.989256637 33.6614144,-1.72502655 35.9312928,2.12336283 C39.4988287,8.17165487 45.5275801,9.43661947 50.4148508,13.7179115 C56.2489945,18.8320885 61.1141878,25.0499204 64.9114917,31.8241062 C66.8199558,35.2288938 68.2803315,38.7727699 69.8200221,42.3495664 C70.4103867,43.7281062 67.4021436,47.1584071 68.0685525,49.6117965 C68.6213039,51.6495664 69.9500331,51.8865929 68.6033149,53.6840442 C67.7529282,54.8173274 67.0570829,56.0633628 66.4887956,57.3620708 C65.2254807,60.2508319 64.5639779,63.3799115 64.1714917,66.498292 C63.2466961,73.842 63.5958453,81.1091681 64.0586519,88.4685133 C63.958895,87.136885 63.8763094,85.8044336 63.8076243,84.4711593 C64.191116,87.9450796 64.3284862,91.4642655 64.6588287,94.948885 C64.5786961,94.0312301 64.5876906,93.0806549 64.3767293,92.1786372 C64.8665193,97.3364336 65.5991602,102.462956 66.4798011,107.566434 C67.3211934,112.443584 68.9491934,117.443363 69.4414365,122.343558 C69.2746298,121.621779 69.133989,120.892593 68.9295691,120.179867 C69.1004641,120.900823 69.2713591,121.622602 69.4414365,122.343558 C69.266453,121.625894 69.6090608,123.067805 69.4414365,122.343558 C70.7685304,127.778708 70.0072707,133.653345 69.8257459,139.221823 C69.6229613,145.461053 69.4888619,151.704398 69.5142099,157.947743 C69.5272928,161.045549 68.4921105,185.587673 73.8757127,185.489735 C79.2601326,185.587673 78.225768,161.045549 78.2388508,157.947743 C78.2633812,151.704398 78.1292818,145.461053 77.9264972,139.221823 C77.7449724,133.653345 76.982895,127.778708 78.3108066,122.343558 C78.1423646,123.067805 78.4849724,121.625894 78.3108066,122.343558 C78.480884,121.622602 78.651779,120.900823 78.8218564,120.179867 C78.6182541,120.892593 78.4784309,121.621779 78.3108066,122.343558 C78.8038674,117.443363 80.4310497,112.443584 81.272442,107.566434 C82.1530829,102.462956 82.8857238,97.3364336 83.3755138,92.1786372 C83.1645525,93.0806549 83.173547,94.0312301 83.0934144,94.948885 C83.4229392,91.4642655 83.5603094,87.9450796 83.9446188,84.4711593 C83.8759337,85.8044336 83.7933481,87.136885 83.6927735,88.4685133 C84.1563978,81.1091681 84.505547,73.842 83.5807514,66.498292 C83.1882652,63.3799115 82.5267624,60.2508319 81.2634475,57.3620708 C80.6943425,56.0633628 80.0001326,54.8173274 79.1489282,53.6840442 C77.8005746,51.8865929 79.1309392,51.6495664 79.6836906,49.6117965 C80.3500994,47.1584071 77.3410387,43.7281062 77.932221,42.3495664 C79.4710939,38.7727699 80.9322873,35.2288938 82.8407514,31.8241062 C86.6380552,25.0499204 91.5024309,18.8320885 97.3373923,13.7179115 C102.224663,9.43661947 108.253414,8.17165487 111.82095,2.12336283 C114.090011,-1.72502655 108.019558,0.989256637 106.453702,1.72584956 C103.20179,3.255 100.441304,5.71661947 98.2785414,8.57822124 C96.0356464,11.5492832 92.7305856,13.8948584 90.2832707,16.7523451 C87.6438011,19.8345133 85.2185635,23.1076195 83.0492597,26.5412124 C80.9077569,29.9311858 79.0246409,33.4874071 77.4489724,37.1786018 C76.2821436,39.9126372 76.750674,41.6146195 73.8757127,41.4442566" id="Fill-1" fill="#1E3E85" sketch:type="MSShapeGroup"></path>
            <path d="M81.486674,58.0591593 C84.9266519,75.0131416 84.2921326,92.8666726 80.6591823,109.73177 C92.1214144,118.294354 103.143735,125.212566 117.928199,123.542681 C127.741989,122.434912 137.740575,121.411912 147.644309,120.312372 L147.644309,48.6562832 C125.353547,50.8923982 103.280287,52.5647522 81.486674,58.0591593" id="Fill-2" fill="#1E3E85" sketch:type="MSShapeGroup"></path>
            <path d="M81.486674,58.0591593 C84.9266519,75.0131416 84.2921326,92.8666726 80.6591823,109.73177 C90.1671602,117.265593 100.003845,125.108867 112.14884,125.814186 C122.279072,126.402637 132.80179,125.445478 143.247646,124.770611 C143.243558,100.886071 143.245193,77.001531 143.245193,53.1169912 C122.412354,53.6939204 102.001436,54.0033717 81.486674,58.0591593" id="Fill-3" fill="#438EC0" sketch:type="MSShapeGroup"></path>
            <path d="M81.486674,58.0591593 C84.9266519,75.0131416 84.2921326,92.8666726 80.6591823,109.73177 C89.6871823,117.229381 98.7953149,126.169726 110.137348,128.272513 C119.166166,129.947336 129.023293,129.99754 138.631845,130.41069 C138.635934,106.52615 138.631845,82.6416106 138.631845,58.7562478 C119.364044,57.1810088 100.738122,55.4189469 81.486674,58.0591593" id="Fill-4" fill="#005799" sketch:type="MSShapeGroup"></path>
            <path d="M81.486674,58.0591593 C84.9266519,75.0131416 84.2921326,92.8666726 80.6591823,109.73177 C89.1352486,117.370938 97.2270055,126.811673 107.839669,130.558009 C115.77116,133.357885 124.775448,134.210522 133.334917,135.616221 C133.334917,111.731681 133.335735,87.8463186 133.335735,63.9617788 C115.85211,60.3298407 99.4167514,56.8954248 81.486674,58.0591593" id="Fill-5" fill="#0075B1" sketch:type="MSShapeGroup"></path>
            <path d="M66.2663867,58.0599823 C62.8828287,74.3004159 63.5287956,93.3234425 67.0938785,109.73177 C52.9987182,119.866301 46.6437127,125.187053 29.8240442,123.542681 C19.9096796,122.574 10.0108508,121.388044 0.107116022,120.311549 C0.107933702,96.4261858 0.106298343,72.541646 0.107116022,48.6562832 C22.3610829,51.0734602 44.7238011,51.8808319 66.2663867,58.0599823" id="Fill-6" fill="#1E3E85" sketch:type="MSShapeGroup"></path>
            <path d="M66.2663867,58.0599823 C62.8828287,74.3004159 63.5287956,93.3234425 67.0938785,109.73177 C55.5237127,118.515743 49.4352707,124.368982 35.6025856,125.816655 C25.6260773,126.86023 14.5154475,125.136027 4.50704972,124.770611 C4.50704972,100.886071 4.50377901,77.001531 4.5078674,53.1169912 C25.2532155,53.8741593 46.0018343,53.1754248 66.2663867,58.0599823" id="Fill-7" fill="#438EC0" sketch:type="MSShapeGroup"></path>
            <path d="M66.2663867,58.0599823 C62.8828287,74.3004159 63.5287956,93.3234425 67.0938785,109.73177 C57.0347845,117.79808 49.8432928,125.569752 37.612442,128.270867 C28.6351381,130.254319 18.2726851,129.75146 9.11958011,130.41069 C9.11876243,106.52615 9.11876243,82.6416106 9.11958011,58.7570708 C28.058674,57.3892301 47.4515801,54.4584956 66.2663867,58.0599823" id="Fill-8" fill="#005799" sketch:type="MSShapeGroup"></path>
            <path d="M66.2663867,58.0599823 C62.8828287,74.3004159 63.5287956,93.3234425 67.0938785,109.73177 C58.2130608,117.236788 50.7721768,126.702212 39.9133923,130.558832 C32.0514033,133.350478 22.5916685,134.014646 14.4189613,135.616221 C14.4189613,111.731681 14.4156906,87.8463186 14.4181436,63.9617788 C31.0023204,60.7076018 49.3003536,55.5275841 66.2663867,58.0599823" id="Fill-9" fill="#0075B1" sketch:type="MSShapeGroup"></path>
        </g>
    </g>
</svg>