<?xml version="1.0" encoding="UTF-8" standalone="no"?>
<svg width="70px" height="64px" viewBox="0 0 70 64" version="1.1" xmlns="http://www.w3.org/2000/svg" xmlns:xlink="http://www.w3.org/1999/xlink" xmlns:sketch="http://www.bohemiancoding.com/sketch/ns">
    <!-- Generator: Sketch 3.3.3 (12081) - http://www.bohemiancoding.com/sketch -->
    <title>crowd</title>
    <desc>Created with Sketch.</desc>
    <defs></defs>
    <g id="Page-1" stroke="none" stroke-width="1" fill="none" fill-rule="evenodd" sketch:type="MSPage">
        <g id="crowd" sketch:type="MSLayerGroup">
            <path d="M44.487,10.11 C44.487,15.218 40.347,19.358 35.239,19.358 C30.132,19.358 25.991,15.218 25.991,10.11 C25.991,5.003 30.132,0.862 35.239,0.862 C40.347,0.862 44.487,5.003 44.487,10.11" id="Fill-1" fill="#4F84B7" sketch:type="MSShapeGroup"></path>
            <path d="M44.487,32.304 C44.487,37.411 40.347,41.552 35.239,41.552 C30.132,41.552 25.991,37.411 25.991,32.304 C25.991,27.196 30.132,23.056 35.239,23.056 C40.347,23.056 44.487,27.196 44.487,32.304" id="Fill-2" fill="#52A4A0" sketch:type="MSShapeGroup"></path>
            <path d="M19.279,54.497 C19.279,59.605 15.139,63.745 10.031,63.745 C4.924,63.745 0.784,59.605 0.784,54.497 C0.784,49.39 4.924,45.249 10.031,45.249 C15.139,45.249 19.279,49.39 19.279,54.497" id="Fill-3" fill="#545594" sketch:type="MSShapeGroup"></path>
            <path d="M69.695,10.11 C69.695,15.218 65.555,19.358 60.447,19.358 C55.34,19.358 51.199,15.218 51.199,10.11 C51.199,5.003 55.34,0.862 60.447,0.862 C65.555,0.862 69.695,5.003 69.695,10.11" id="Fill-4" fill="#52A4A0" sketch:type="MSShapeGroup"></path>
            <path d="M69.694,32.304 C69.694,37.411 65.554,41.552 60.446,41.552 C55.339,41.552 51.199,37.411 51.199,32.304 C51.199,27.196 55.339,23.056 60.446,23.056 C65.554,23.056 69.694,27.196 69.694,32.304" id="Fill-5" fill="#545594" sketch:type="MSShapeGroup"></path>
            <path d="M69.695,54.497 C69.695,59.605 65.555,63.745 60.447,63.745 C55.34,63.745 51.199,59.605 51.199,54.497 C51.199,49.39 55.34,45.249 60.447,45.249 C65.555,45.249 69.695,49.39 69.695,54.497" id="Fill-6" fill="#52A4A0" sketch:type="MSShapeGroup"></path>
            <path d="M19.278,10.11 C19.278,15.218 15.138,19.358 10.03,19.358 C4.923,19.358 0.783,15.218 0.783,10.11 C0.783,5.003 4.923,0.862 10.03,0.862 C15.138,0.862 19.278,5.003 19.278,10.11" id="Fill-7" fill="#545594" sketch:type="MSShapeGroup"></path>
            <path d="M19.279,32.304 C19.279,37.411 15.139,41.552 10.031,41.552 C4.924,41.552 0.783,37.411 0.783,32.304 C0.783,27.196 4.924,23.056 10.031,23.056 C15.139,23.056 19.279,27.196 19.279,32.304" id="Fill-8" fill="#4F84B7" sketch:type="MSShapeGroup"></path>
            <path d="M44.487,54.497 C44.487,59.605 40.347,63.745 35.239,63.745 C30.132,63.745 25.991,59.605 25.991,54.497 C25.991,49.39 30.132,45.249 35.239,45.249 C40.347,45.249 44.487,49.39 44.487,54.497" id="Fill-9" fill="#4F84B7" sketch:type="MSShapeGroup"></path>
        </g>
    </g>
</svg>