<?xml version="1.0" encoding="UTF-8" standalone="no"?>
<svg width="90px" height="93px" viewBox="0 0 90 93" version="1.1" xmlns="http://www.w3.org/2000/svg" xmlns:xlink="http://www.w3.org/1999/xlink" xmlns:sketch="http://www.bohemiancoding.com/sketch/ns">
    <!-- Generator: Sketch 3.3.3 (12081) - http://www.bohemiancoding.com/sketch -->
    <title>dollar_sign</title>
    <desc>Created with Sketch.</desc>
    <defs></defs>
    <g id="Page-1" stroke="none" stroke-width="1" fill="none" fill-rule="evenodd" sketch:type="MSPage">
        <path d="M67.8907176,67.3696299 C67.7137176,66.8506299 67.6767176,66.3056299 67.6117176,65.7686299 C67.5137176,64.9466299 67.7627176,64.1226299 67.5677176,63.2916299 C67.3797176,62.4866299 67.4057176,61.6176299 66.7577176,60.9756299 C66.6847176,60.9036299 66.6787176,60.8046299 66.6827176,60.7086299 C66.7037176,60.2476299 66.3197176,59.8946299 66.3407176,59.4306299 C66.3447176,59.3606299 66.2677176,59.3056299 66.1977176,59.2726299 C66.1357176,59.2416299 66.0877176,59.1916299 66.1007176,59.1246299 C66.1557176,58.8436299 65.9757176,58.6796299 65.8157176,58.4946299 C65.5317176,58.1686299 65.5377176,58.1186299 65.8437176,57.7816299 C65.5717176,57.7616299 65.4407176,57.6096299 65.2967176,57.3906299 C64.9657176,56.8886299 64.4777176,56.4866299 64.3697176,55.8476299 C64.3607176,55.8016299 64.3247176,55.7486299 64.2867176,55.7176299 C63.9777176,55.4616299 63.6627176,55.2126299 63.4177176,54.8906299 C63.3217176,54.7636299 63.1827176,54.7066299 63.0367176,54.6836299 C62.8917176,54.6606299 62.8317176,54.6046299 62.7947176,54.4516299 C62.7027176,54.0826299 62.3847176,53.8276299 62.1057176,53.6766299 C61.8967176,53.5636299 61.6507176,53.4736299 61.4357176,53.3396299 C61.0727176,53.1136299 60.7777176,52.8216299 60.3387176,52.6606299 C59.8987176,52.4976299 59.4557176,52.3026299 59.0017176,52.1566299 C58.8677176,52.1136299 58.7407176,52.0876299 58.6447176,51.9766299 C58.4947176,51.8036299 58.3067176,51.7726299 58.0987176,51.8566299 C57.9757176,51.9066299 57.8597176,51.9236299 57.7397176,51.8366299 C57.3667176,51.5676299 57.0207176,51.2336299 56.4887176,51.3436299 C56.3407176,51.3736299 56.1917176,51.2596299 56.1007176,51.1586299 C55.8837176,50.9206299 55.6207176,50.8806299 55.3267176,50.8796299 C55.1597176,50.8776299 54.9867176,50.8606299 54.8247176,50.8186299 C54.1857176,50.6536299 53.5537176,50.4566299 52.8777176,50.5436299 C52.8127176,50.5516299 52.7417176,50.4896299 52.6717176,50.4706299 C52.3247176,50.3746299 52.1607176,50.0416299 51.8837176,49.8676299 C51.4647176,49.6056299 51.4227176,49.1966299 51.3797176,48.7896299 C51.3467176,48.4786299 51.4227176,48.1566299 51.2377176,47.8666299 C51.1877176,47.7896299 51.2207176,47.7066299 51.2607176,47.6266299 C51.3997176,47.3476299 51.3817176,47.0536299 51.3027176,46.7666299 C51.2307176,46.5036299 51.2157176,46.2336299 51.2957176,45.9856299 C51.3527176,45.8136299 51.3797176,45.6446299 51.4097176,45.4696299 C51.4707176,45.1256299 51.5497176,44.7926299 51.3917176,44.4476299 C51.3347176,44.3256299 51.4157176,44.1796299 51.4657176,44.0506299 C51.5197176,43.9106299 51.5657176,43.7606299 51.5037176,43.6186299 C51.4067176,43.3936299 51.4307176,43.1636299 51.4347176,42.9326299 C51.4377176,42.7856299 51.4677176,42.6336299 51.4037176,42.4946299 C51.2977176,42.2656299 51.3517176,42.0516299 51.4097176,41.8186299 C51.5257176,41.3486299 51.6587176,40.8386299 51.5487176,40.3876299 C51.4377176,39.9316299 51.4827176,39.5256299 51.5427176,39.0936299 C51.5487176,39.0436299 51.5257176,38.9896299 51.5257176,38.9376299 C51.5087176,38.4766299 51.4097176,38.0176299 51.5287176,37.5526299 C51.5747176,37.3736299 51.5687176,37.1686299 51.5327176,36.9866299 C51.4707176,36.6676299 51.5117176,36.3526299 51.6507176,36.0906299 C51.9887176,35.4496299 51.8277176,34.7896299 51.7607176,34.1456299 C51.7267176,33.8126299 51.6687176,33.4826299 51.6787176,33.1456299 C51.6867176,32.8916299 51.6897176,32.6376299 51.7167176,32.3856299 C51.7567176,32.0256299 51.5817176,31.7036299 51.5037176,31.3736299 C51.4617176,31.1966299 51.2757176,31.0296299 51.3147176,30.7946299 C51.3727176,30.4436299 51.3277176,30.0766299 51.3747176,29.7336299 C51.4687176,29.0346299 51.5687176,28.3426299 51.5987176,27.6346299 C51.6197176,27.1296299 51.6947176,26.6296299 51.6437176,26.1226299 C51.6177176,25.8596299 51.7617176,25.7146299 52.0197176,25.7396299 C52.1627176,25.7546299 52.2267176,25.7236299 52.2907176,25.5996299 C52.3977176,25.3936299 52.5327176,25.3786299 52.7567176,25.4916299 C53.0797176,25.6556299 53.4967176,25.6296299 53.7347176,25.9756299 C53.7427176,25.9886299 53.7937176,25.9716299 53.8247176,25.9706299 C54.0877176,25.9616299 54.2867176,26.0956299 54.4587176,26.2706299 C54.5417176,26.3556299 54.6227176,26.4326299 54.7357176,26.4716299 C55.0267176,26.5706299 55.2487176,26.7586299 55.4307176,27.0006299 C55.7067176,27.3686299 56.0937176,27.6326299 56.2237176,28.1426299 C56.2877176,28.3976299 56.4677176,28.7846299 56.8707176,28.8516299 C56.9197176,28.8596299 56.9607176,28.9366299 56.9947176,28.9886299 C57.1057176,29.1556299 57.2077176,29.3276299 57.3197176,29.4936299 C57.4957176,29.7496299 57.5987176,30.0136299 57.4427176,30.3196299 C57.3987176,30.4066299 57.3697176,30.5136299 57.4527176,30.5856299 C57.6177176,30.7296299 57.6737176,30.9476299 57.8107176,31.0996299 C58.3277176,31.6756299 58.5087176,32.3936299 58.6217176,33.1176299 C58.6667176,33.4116299 58.5777176,33.7116299 58.8847176,33.9086299 C58.9117176,33.9256299 58.9197176,33.9846299 58.9217176,34.0266299 C58.9417176,34.2986299 58.9857176,34.5736299 58.9697176,34.8436299 C58.9317176,35.4626299 58.9407176,36.0796299 58.9757176,36.6976299 C58.9797176,36.7586299 58.9737176,36.8456299 59.0097176,36.8776299 C59.3377176,37.1656299 59.4237176,37.5436299 59.3917176,38.0316299 C59.6827176,37.7596299 59.7317176,37.7466299 59.7977176,37.9306299 C59.9067176,38.2366299 60.1617176,38.4176299 60.3467176,38.6566299 C60.4867176,38.8376299 60.6407176,38.8486299 60.8017176,38.6896299 C60.9187176,38.5736299 61.0717176,38.5116299 61.2177176,38.4716299 C62.1687176,38.2056299 62.5997176,37.4686299 62.9177176,36.6276299 C62.9617176,36.5126299 62.9347176,36.3706299 63.0187176,36.2656299 C63.2537176,35.9686299 63.3227176,35.6236299 63.3127176,35.2556299 C63.3087176,35.1166299 63.3187176,34.9806299 63.4397176,34.8806299 C63.5817176,34.7626299 63.5567176,34.6206299 63.5327176,34.4516299 C63.4807176,34.0626299 63.1827176,33.7446299 63.2477176,33.3216299 C63.3117176,32.8956299 63.2267176,32.4656299 63.2447176,32.0316299 C63.2617176,31.6326299 63.4327176,31.1326299 62.9887176,30.7986299 C62.9377176,30.7606299 62.9397176,30.6786299 62.9657176,30.6186299 C63.0527176,30.4256299 63.0117176,30.2216299 62.9187176,30.0696299 C62.6087176,29.5656299 62.7047176,28.8806299 62.1907176,28.4706299 C62.1227176,28.4156299 62.0737176,28.3096299 62.0597176,28.2216299 C62.0027176,27.8666299 61.9427176,27.5236299 61.5617176,27.3556299 C61.5287176,27.3406299 61.5177176,27.2616299 61.5097176,27.2116299 C61.4907176,27.0976299 61.4277176,27.0116299 61.3317176,26.9616299 C60.6977176,26.6336299 60.5407176,25.8726299 59.9817176,25.4756299 C59.9677176,25.4656299 59.9647176,25.4376299 59.9587176,25.4176299 C59.9067176,25.2646299 59.7947176,25.1936299 59.6467176,25.1346299 C59.4497176,25.0556299 59.2617176,24.9476299 59.3317176,24.6666299 C59.3587176,24.5596299 59.2907176,24.4666299 59.2197176,24.3836299 C59.0447176,24.1786299 58.9267176,23.9166299 58.6277176,23.8406299 C58.5277176,23.8146299 58.4997176,23.7056299 58.5027176,23.6046299 C58.5117176,23.3276299 58.3177176,23.0826299 58.1427176,23.0136299 C57.7487176,22.8566299 57.8137176,22.5446299 57.7777176,22.2656299 C57.7567176,22.1096299 57.6757176,22.0586299 57.5747176,21.9596299 C57.2487176,21.6426299 56.8837176,21.5296299 56.4477176,21.5826299 C56.3987176,21.5886299 56.3257176,21.5756299 56.2987176,21.5436299 C56.0997176,21.3026299 55.6987176,21.3206299 55.5847176,20.9766299 C55.5657176,20.9206299 55.5057176,20.9166299 55.4597176,20.8926299 C55.1027176,20.7046299 54.7147176,20.5696299 54.4507176,20.2306299 C54.3297176,20.0746299 54.1387176,19.8806299 53.9467176,19.9806299 C53.7097176,20.1026299 53.6027176,20.0426299 53.4027176,19.9046299 C53.0007176,19.6256299 52.5337176,19.4436299 52.1677176,19.0996299 C51.9487176,18.8946299 51.8437176,18.6606299 51.9077176,18.3656299 C51.9367176,18.2336299 51.9227176,18.1086299 51.8487176,18.0026299 C51.6327176,17.6886299 51.6147176,17.3456299 51.6447176,16.9796299 C51.6707176,16.6666299 51.8247176,16.3436299 51.6097176,16.0336299 C51.5837176,15.9966299 51.5877176,15.9296299 51.5927176,15.8796299 C51.6787176,15.0896299 51.6087176,14.3146299 51.4077176,13.5456299 C51.3007176,13.1346299 51.4397176,12.7096299 51.3827176,12.2896299 C51.3567176,12.1076299 51.2927176,11.9166299 51.3497176,11.7266299 C51.5887176,10.9406299 51.5097176,10.1226299 51.5737176,9.32262995 C51.5957176,9.05362995 51.5547176,8.78162995 51.6247176,8.51062995 C51.8427176,7.64762995 51.5577176,6.72562995 51.9317176,5.88062995 C51.9387176,5.86462995 51.9257176,5.83962995 51.9197176,5.81962995 C51.7647176,5.30962995 51.5657176,4.82262995 51.2307176,4.39962995 C51.1227176,4.26362995 50.9707176,4.22562995 50.8147176,4.19662995 C50.7217176,4.17962995 50.6247176,4.19262995 50.5417176,4.13162995 C50.2937176,3.95162995 50.0647176,3.94062995 49.8527176,4.19662995 C49.8197176,4.23562995 49.7357176,4.25362995 49.6787176,4.24862995 C49.2087176,4.21462995 48.8037176,4.39162995 48.3807176,4.57362995 C47.4857176,4.95862995 47.1667176,5.72862995 46.9277176,6.57162995 C46.9197176,6.60062995 46.9237176,6.63462995 46.9297176,6.66562995 C47.0737176,7.41062995 46.8317176,8.14762995 46.8867176,8.90062995 C46.9297176,9.48762995 46.9527176,10.0706299 47.0867176,10.6466299 C47.1577176,10.9536299 47.3117176,11.2816299 47.2577176,11.5686299 C47.1837176,11.9596299 47.3597176,12.3086299 47.3207176,12.7006299 C47.2887176,13.0206299 47.3357176,13.4016299 47.3407176,13.7546299 C47.3437176,13.9446299 47.3707176,14.0996299 47.5087176,14.2416299 C47.6447176,14.3816299 47.6417176,15.0236299 47.4857176,15.0856299 C47.1507176,15.2186299 47.2037176,15.4456299 47.2487176,15.7006299 C47.2697176,15.8186299 47.2117176,15.9286299 47.1567176,16.0316299 C47.1167176,16.1066299 47.0667176,16.1666299 47.1077176,16.2636299 C47.2187176,16.5206299 47.1857176,16.7816299 47.0907176,17.0336299 C47.0137176,17.2356299 46.9977176,17.4166299 47.1617176,17.5906299 C47.2527176,17.6856299 47.2917176,17.8236299 47.2377176,17.9456299 C47.1337176,18.1796299 47.1097176,18.4356299 47.0187176,18.6706299 C46.9377176,18.8796299 46.8077176,19.0116299 46.5567176,18.8656299 C46.3777176,18.7606299 46.1667176,18.7816299 46.1017176,18.9796299 C45.9967176,19.3006299 45.7897176,19.3276299 45.5157176,19.2936299 C45.4127176,19.2816299 45.3017176,19.2906299 45.2017176,19.3166299 C44.6567176,19.4606299 44.1067176,19.5806299 43.5487176,19.6706299 C43.2267176,19.7226299 42.7867176,19.5406299 42.7517176,19.3126299 C42.7237176,19.1316299 42.6377176,18.9976299 42.5377176,18.8646299 C42.3657176,18.6326299 42.3277176,18.3666299 42.4087176,18.1106299 C42.5547176,17.6556299 42.5237176,17.2056299 42.5037176,16.7386299 C42.4857176,16.3026299 42.4257176,15.8606299 42.5147176,15.4156299 C42.5657176,15.1676299 42.6407176,14.8816299 42.4957176,14.6416299 C42.3947176,14.4746299 42.3827176,14.3126299 42.3737176,14.1326299 C42.3527176,13.7396299 42.2367176,13.3466299 42.4087176,12.9596299 C42.4237176,12.9246299 42.4187176,12.8726299 42.4057176,12.8336299 C42.2377176,12.2876299 42.2977176,11.7276299 42.2777176,11.1706299 C42.2687176,10.8926299 42.3787176,10.5426299 41.9857176,10.3836299 C41.9087176,10.3516299 41.9527176,10.2316299 41.9677176,10.1476299 C42.0597176,9.67162995 42.0807176,9.19862995 41.9677176,8.71962995 C41.9027176,8.44162995 41.8827176,8.14562995 42.0057176,7.88062995 C42.0927176,7.69062995 42.0567176,7.56562995 41.9217176,7.42962995 C41.8637176,7.37362995 41.8187176,7.29562995 41.7897176,7.21862995 C41.5847176,6.67062995 41.2717176,6.48862995 40.7117176,6.61062995 C40.5807176,6.63862995 40.4627176,6.61862995 40.3397176,6.58362995 C40.0307176,6.49562995 39.7167176,6.39062995 39.5217176,6.78362995 C39.5027176,6.82162995 39.4317176,6.83262995 39.3867176,6.85762995 C38.9267176,7.11162995 38.5557176,7.41362995 38.4747176,7.99562995 C38.4177176,8.40362995 38.4187176,8.77362995 38.5407176,9.17562995 C38.6217176,9.44062995 38.6267176,9.71062995 38.9127176,9.85062995 C39.1257176,9.95562995 39.1547176,10.1206299 39.0677176,10.3256299 C38.9757176,10.5446299 38.9337176,10.7736299 38.9877176,11.0076299 C39.0427176,11.2406299 39.0217176,11.4636299 38.9607176,11.6936299 C38.8867176,11.9686299 38.7887176,12.2626299 38.9287176,12.5306299 C39.0927176,12.8456299 39.0827176,13.1796299 39.1217176,13.5106299 C39.2037176,14.1976299 39.1327176,14.8466299 38.6817176,15.4116299 C38.5877176,15.5286299 38.6057176,15.6936299 38.5647176,15.8336299 C38.4317176,16.2916299 38.5787176,16.7576299 38.5047176,17.2146299 C38.4327176,17.6556299 38.4617176,18.0996299 38.3697176,18.5466299 C38.2517176,19.1176299 38.1437176,19.7066299 38.1837176,20.3026299 C38.1857176,20.3436299 38.1817176,20.3996299 38.1557176,20.4236299 C37.9377176,20.6336299 37.6317176,20.7546299 37.5107176,21.0646299 C37.0547176,21.1036299 36.6757176,21.3126299 36.3067176,21.5726299 C35.9957176,21.7916299 35.5127176,21.7276299 35.3207176,22.1606299 C35.3077176,22.1916299 35.2277176,22.2026299 35.1777176,22.2076299 C34.7747176,22.2466299 34.4207176,22.3676299 34.2187176,22.7586299 C34.1807176,22.8296299 34.1127176,22.8606299 34.0337176,22.8596299 C33.8647176,22.8596299 33.7817176,22.9816299 33.6737176,23.0846299 C33.3007176,23.4366299 32.9287176,23.7906299 32.5107176,24.0946299 C32.2987176,24.2496299 31.9907176,24.2466299 31.8527176,24.4946299 C31.7607176,24.6586299 31.6237176,24.7696299 31.4907176,24.8866299 C31.1187176,25.2156299 30.6487176,25.4406299 30.4257176,25.9246299 C30.3977176,25.9846299 30.3247176,25.9976299 30.2597176,25.9996299 C29.9527176,26.0066299 29.8207176,26.1926299 29.7457176,26.4656299 C29.6687176,26.7406299 29.4917176,26.9696299 29.2357176,27.0826299 C29.0377176,27.1696299 28.9477176,27.3026299 28.9347176,27.4846299 C28.8967176,27.9736299 28.5347176,28.2636299 28.2557176,28.5916299 C27.8257176,29.0976299 27.3957176,29.5886299 27.2867176,30.2746299 C27.2757176,30.3436299 27.2387176,30.4266299 27.1857176,30.4676299 C26.9877176,30.6196299 26.9427176,30.8236299 26.9467176,31.0556299 C26.9477176,31.1256299 26.9327176,31.2106299 26.8927176,31.2636299 C26.6367176,31.6106299 26.5897176,32.0156299 26.5217176,32.4236299 C26.4727176,32.7136299 26.4607176,33.0436299 26.2387176,33.2646299 C26.0827176,33.4216299 26.0477176,33.5686299 26.0727176,33.7716299 C26.1227176,34.1596299 26.0827176,34.5456299 26.0347176,34.9366299 C25.9887176,35.3036299 25.7447176,35.5556299 25.6127176,35.8666299 C25.3717176,36.4356299 25.1977176,37.0286299 25.2817176,37.6716299 C25.3507176,38.1956299 25.3847176,38.7356299 25.6437176,39.1966299 C25.8907176,39.6356299 25.9977176,40.0776299 26.0217176,40.5736299 C26.0407176,40.9866299 25.9947176,41.4246299 26.2157176,41.8046299 C26.4657176,42.2356299 26.6707176,42.6856299 26.6807176,43.1846299 C26.6857176,43.4596299 26.7577176,43.6666299 26.8897176,43.9096299 C27.0107176,44.1296299 27.0117176,44.4166299 27.2307176,44.6076299 C27.2687176,44.6406299 27.2397176,44.7486299 27.2457176,44.8226299 C27.2527176,44.9156299 27.2307176,45.0306299 27.2767176,45.0996299 C27.5647176,45.5516299 27.5247176,46.1656299 27.9877176,46.5316299 C28.0317176,46.5666299 28.0297176,46.6686299 28.0357176,46.7396299 C28.0727176,47.1796299 28.0877176,47.6246299 28.5137176,47.9076299 C28.5767176,47.9496299 28.6157176,48.0426299 28.6417176,48.1206299 C28.6867176,48.2596299 28.7547176,48.3536299 28.9017176,48.4106299 C29.1377176,48.5056299 29.3827176,48.7306299 29.4407176,48.8956299 C29.6257176,49.4146299 30.0497176,49.6966299 30.4027176,50.0326299 C30.7977176,50.4066299 31.0287176,50.9666299 31.6077176,51.1446299 C31.6557176,51.1596299 31.6857176,51.2396299 31.7217176,51.2916299 C31.8997176,51.5456299 32.0697176,51.8066299 32.4537176,51.6856299 C32.5047176,51.6696299 32.6167176,51.6966299 32.6267176,51.7276299 C32.7447176,52.0796299 33.0877176,52.0076299 33.3327176,52.1076299 C33.8017176,52.3006299 34.3027176,52.3816299 34.7987176,52.4756299 C35.2897176,52.5696299 35.7257176,52.8156299 36.1367176,53.0696299 C36.5227176,53.3096299 36.7207176,53.3846299 37.1277176,53.1506299 C37.2297176,53.0926299 37.3277176,53.0646299 37.4207176,53.1436299 C37.7607176,53.4286299 38.1557176,53.4146299 38.5607176,53.3746299 C38.7377176,53.3566299 38.9447176,53.3006299 39.0867176,53.4126299 C39.3017176,53.5836299 39.5487176,53.6066299 39.7947176,53.6496299 C40.1107176,53.7056299 40.3597176,53.8456299 40.4357176,54.1746299 C40.5167176,54.5256299 40.6357176,54.8656299 40.4997176,55.2486299 C40.3677176,55.6156299 40.3447176,56.0316299 40.4817176,56.3986299 C40.5797176,56.6576299 40.5877176,56.8986299 40.5907176,57.1616299 C40.5947176,57.4246299 40.3477176,57.7016299 40.4577176,57.8856299 C40.6827176,58.2586299 40.5837176,58.6266299 40.5777176,58.9926299 C40.5627176,59.9196299 40.5457176,60.8496299 40.2877176,61.7536299 C40.2557176,61.8656299 40.2577176,61.9786299 40.2587176,62.0956299 C40.2637176,62.3896299 40.2417176,62.6826299 40.2417176,62.9756299 C40.2437176,63.4356299 39.9637176,63.9006299 40.2717176,64.3536299 C40.2817176,64.3696299 40.2887176,64.4016299 40.2807176,64.4146299 C40.0407176,64.8036299 40.1687176,65.1496299 40.4007176,65.4866299 C40.4277176,65.5276299 40.4247176,65.5886299 40.4347176,65.6406299 C40.5697176,66.3246299 40.5767176,67.0126299 40.4997176,67.7036299 C40.4857176,67.8306299 40.4927176,67.9656299 40.4237176,68.0736299 C40.1027176,68.5756299 40.2057176,69.1366299 40.2077176,69.6776299 C40.2097176,70.4716299 40.4037176,71.2526299 40.3697176,72.0496299 C40.3657176,72.1456299 40.3667176,72.2406299 40.4267176,72.3236299 C40.5587176,72.5006299 40.5557176,72.6906299 40.5007176,72.8956299 C40.4567176,73.0606299 40.4407176,73.2106299 40.6267176,73.3386299 C40.8047176,73.4616299 40.7657176,73.6616299 40.5867176,73.7476299 C40.2817176,73.8976299 40.0907176,74.1766299 39.7207176,74.2936299 C39.2877176,74.4326299 38.9647176,74.4346299 38.6077176,74.2156299 C38.4607176,74.1256299 38.2947176,74.0806299 38.1557176,74.1586299 C37.7687176,74.3776299 37.4737176,74.3916299 37.3037176,73.9026299 C37.2777176,73.8286299 37.1877176,73.6366299 37.0537176,73.8066299 C36.8397176,74.0786299 36.6737176,73.9476299 36.5227176,73.7606299 C36.4327176,73.6506299 36.3607176,73.5396299 36.1997176,73.5426299 C35.5537176,73.5566299 34.9257176,73.4536299 34.2937176,73.3116299 C33.8477176,73.2136299 33.6327176,72.7696299 33.1907176,72.7046299 C33.1627176,72.6996299 33.1487176,72.5936299 33.1297176,72.5346299 C33.0597176,72.3156299 32.9587176,72.1956299 32.7197176,72.3636299 C32.5537176,72.4816299 32.3897176,72.4606299 32.3057176,72.2586299 C32.1967176,71.9956299 32.0017176,71.8996299 31.7317176,71.9036299 C31.6287176,71.9036299 31.5067176,71.9146299 31.4577176,71.7906299 C31.3827176,71.6026299 31.2367176,71.5186299 31.0507176,71.4776299 C30.9357176,71.4516299 30.8607176,71.3796299 30.8467176,71.2636299 C30.8197176,71.0496299 30.6737176,71.0346299 30.5027176,71.0246299 C30.2617176,71.0086299 30.0217176,70.9726299 29.7817176,70.9416299 C29.7157176,70.9336299 29.2067176,70.1766299 29.2397176,70.1166299 C29.4367176,69.7676299 29.3307176,69.3696299 29.4237176,69.0016299 C29.6167176,68.2486299 29.5627176,67.5506299 28.8917176,67.0206299 C28.6907176,66.8606299 27.8567176,66.7636299 27.6427176,66.8946299 C27.6247176,66.9046299 27.6027176,66.9146299 27.5917176,66.9306299 C27.3817176,67.2236299 27.0097176,67.3016299 26.7667176,67.5526299 C26.6767176,67.6456299 26.5457176,67.6846299 26.4137176,67.6416299 C25.9867176,67.4996299 25.7477176,68.0416299 25.3307176,67.9356299 C25.3227176,67.9326299 25.2997176,67.9656299 25.2957176,67.9836299 C25.2237176,68.2576299 25.0047176,68.2526299 24.7887176,68.2546299 C24.6517176,68.2546299 24.5207176,68.2516299 24.4107176,68.3676299 C24.1417176,68.6476299 23.8497176,68.9056299 23.5927176,69.1966299 C23.2117176,69.6286299 22.9267176,70.1056299 23.0167176,70.7246299 C23.0377176,70.8686299 23.0237176,71.0196299 23.0217176,71.1676299 C23.0207176,71.2636299 23.0207176,71.3636299 23.0957176,71.4346299 C23.2527176,71.5796299 23.2737176,71.7856299 23.3547176,71.9676299 C23.5397176,72.3876299 23.8017176,72.7556299 24.2457176,72.9336299 C24.3807176,72.9866299 24.4957176,73.0486299 24.5757176,73.1626299 C24.7527176,73.4166299 24.9297176,73.6596299 25.2877176,73.6576299 C25.3307176,73.6566299 25.3947176,73.7016299 25.4147176,73.7416299 C25.5597176,74.0396299 25.8217176,74.0456299 26.0917176,74.0216299 C26.7317176,73.9646299 27.2107176,74.3986299 27.7767176,74.5666299 C27.8177176,74.5786299 27.8457176,74.6426299 27.8737176,74.6886299 C28.0347176,74.9436299 28.2727176,75.0606299 28.5677176,75.0536299 C28.7517176,75.0496299 28.8837176,75.1176299 29.0117176,75.2486299 C29.1427176,75.3826299 29.2837176,75.5796299 29.4647176,75.5706299 C29.9467176,75.5456299 30.2547176,75.8906299 30.6457176,76.0566299 C31.2637176,76.3186299 31.8157176,76.7006299 32.5177176,76.8066299 C33.2127176,76.9096299 33.8827176,77.1636299 34.5317176,77.4776299 C34.8537176,77.6316299 35.1987176,77.8396299 35.5977176,77.8136299 C35.7457176,77.8026299 35.8387176,77.9246299 35.9547176,77.9906299 C36.2987176,78.1896299 36.7327176,78.2206299 37.0087176,78.5496299 C37.0127176,78.5556299 37.0297176,78.5536299 37.0397176,78.5526299 C37.7127176,78.3996299 38.0617176,79.1646299 38.6927176,79.1396299 C38.7297176,79.1366299 38.7737176,79.1996299 38.8097176,79.2386299 C38.8727176,79.3046299 38.9447176,79.3176299 39.0357176,79.3226299 C39.3087176,79.3316299 39.5797176,79.3656299 39.8527176,79.3866299 C39.9857176,79.3966299 40.0397176,79.4726299 40.1027176,79.5856299 C40.2797176,79.8986299 40.4567176,80.1996299 40.3957176,80.5836299 C40.3817176,80.6746299 40.4547176,80.7596299 40.5167176,80.8356299 C40.6567176,81.0056299 40.7947176,81.1786299 40.9337176,81.3506299 C40.9797176,81.4066299 41.0687176,81.4896299 41.0097176,81.5366299 C40.7567176,81.7416299 40.9537176,81.8986299 41.0397176,82.0746299 C41.1137176,82.2236299 41.0977176,82.3876299 41.0407176,82.5376299 C40.9047176,82.8976299 40.7627176,83.2686299 40.8617176,83.6506299 C40.9997176,84.1906299 40.6097176,84.7816299 41.0437176,85.2876299 C41.0817176,85.3316299 41.0517176,85.4326299 41.0627176,85.5046299 C41.0717176,85.5666299 41.0817176,85.6676299 41.1127176,85.6766299 C41.4257176,85.7686299 41.5077176,86.0646299 41.6577176,86.2916299 C41.9027176,86.6606299 42.2897176,86.8446299 42.6247176,87.0976299 C42.7527176,87.1956299 42.8887176,87.2076299 43.0427176,87.1506299 C43.1457176,87.1106299 43.2797176,87.0436299 43.3577176,87.1756299 C43.4937176,87.4046299 43.6807176,87.3616299 43.8847176,87.3186299 C44.0957176,87.2776299 44.3077176,87.2486299 44.5187176,87.2456299 C44.5007176,87.1646299 44.4767176,87.0856299 44.4767176,86.9996299 C44.4767176,86.9376299 44.4937176,86.8946299 44.4997176,86.8376299 C44.2597176,86.5636299 44.2057176,86.1916299 44.5677176,85.8046299 C44.6967176,85.6566299 44.7717176,85.4936299 44.8157176,85.3236299 C44.4947176,84.9506299 44.5737176,84.4736299 44.7897176,84.0086299 C44.6947176,83.8736299 44.6457176,83.7166299 44.6857176,83.5406299 C44.7227176,83.3746299 44.7607176,83.2096299 44.7977176,83.0436299 C44.6237176,82.8236299 44.5917176,82.4846299 44.7227176,82.2406299 C44.6527176,81.9746299 44.5997176,81.7016299 44.5057176,81.4386299 C44.2057176,80.6026299 44.6347176,79.5126299 45.3997176,79.0556299 C45.4447176,79.0276299 45.5267176,78.9856299 45.5387176,79.0226299 C45.6567176,79.3976299 45.8557176,79.1046299 46.0187176,79.0866299 C46.1537176,79.0716299 46.2757176,79.1046299 46.3707176,79.1936299 C46.5407176,79.3566299 46.7117176,79.3976299 46.9037176,79.2396299 C47.0327176,79.1316299 47.1537176,79.1786299 47.2297176,79.2916299 C47.3527176,79.4776299 47.5167176,79.5266299 47.7207176,79.5066299 C47.9117176,79.4906299 48.0527176,79.5426299 48.0767176,79.7666299 C48.0827176,79.8246299 48.1617176,79.8836299 48.1537176,79.9346299 C48.1137176,80.2046299 48.6687176,80.2326299 48.4297176,80.5256299 C48.2567176,80.7396299 48.2957176,81.0056299 48.1357176,81.2136299 C47.9797176,81.4156299 48.0487176,81.6966299 47.9777176,81.9426299 C47.9147176,82.1576299 47.8457176,82.3736299 47.7807176,82.5906299 C47.7707176,82.6366299 47.7597176,82.6836299 47.7497176,82.7296299 C48.0277176,82.9416299 48.1947176,83.2486299 47.9507176,83.6206299 C47.8527176,83.7716299 47.7537176,83.9206299 47.6537176,84.0696299 C47.6427176,84.0996299 47.6347176,84.1106299 47.6247176,84.1356299 C47.7437176,84.2876299 47.7927176,84.4926299 47.7847176,84.6836299 C47.7657176,85.1166299 47.7177176,85.4416299 47.5977176,85.7396299 C47.7317176,85.9646299 47.7297176,86.2386299 47.5857176,86.5116299 C47.6667176,86.6626299 47.6877176,86.8376299 47.6257176,87.0316299 C47.7407176,87.2306299 47.7357176,87.4286299 47.6557176,87.6126299 C47.7127176,87.6766299 47.7727176,87.7356299 47.8227176,87.8056299 C48.0277176,88.0846299 48.2617176,88.2486299 48.5967176,88.2826299 C48.6877176,88.2906299 48.7497176,88.3296299 48.8087176,88.4006299 C49.0157176,88.6416299 49.7837176,88.7986299 50.0537176,88.6596299 C50.1217176,88.6226299 50.1777176,88.5686299 50.1867176,88.4916299 C50.2127176,88.2506299 50.3437176,88.1396299 50.5827176,88.1276299 C50.6387176,88.1256299 50.7007176,88.0786299 50.7447176,88.0366299 C51.3287176,87.4766299 51.3897176,86.7286299 51.4767176,85.9896299 C51.4787176,85.9726299 51.4637176,85.9506299 51.4567176,85.9316299 C51.2327176,85.3086299 50.9597176,84.6936299 51.2317176,84.0096299 C51.2597176,83.9396299 51.2197176,83.8446299 51.2187176,83.7606299 C51.2157176,83.4466299 51.2017176,83.1096299 51.3837176,82.8476299 C51.5647176,82.5886299 51.5497176,82.3406299 51.4977176,82.0686299 C51.4787176,81.9666299 51.4267176,81.8646299 51.4337176,81.7646299 C51.4707176,81.2086299 51.3817176,80.6476299 51.5207176,80.0966299 C51.5377176,80.0306299 51.5397176,79.9596299 51.4897176,79.9176299 C51.2137176,79.6906299 51.3687176,79.5426299 51.5687176,79.3826299 C51.6387176,79.3276299 51.6767176,79.2296299 51.7247176,79.1496299 C51.7917176,79.0376299 51.8687176,78.9346299 52.0057176,78.9136299 C52.2037176,78.8826299 52.3607176,78.8036299 52.4747176,78.6296299 C52.5267176,78.5486299 52.6307176,78.5206299 52.7287176,78.5186299 C53.0007176,78.5046299 53.2687176,78.3126299 53.5477176,78.5166299 C53.6207176,78.5686299 53.7157176,78.4956299 53.7677176,78.4316299 C54.0587176,78.0596299 54.5087176,77.9556299 54.9067176,77.7826299 C55.1527176,77.6776299 55.3617176,77.4456299 55.6537176,77.4726299 C55.9887176,77.5036299 56.2597176,77.3406299 56.5607176,77.2516299 C56.9727176,77.1336299 57.1457176,76.6276299 57.6237176,76.6426299 C57.6567176,76.6436299 57.7107176,76.5516299 57.7247176,76.4926299 C57.7767176,76.2936299 57.9227176,76.2646299 58.0917176,76.2786299 C58.2577176,76.2906299 58.5207176,76.3816299 58.5737176,76.3106299 C58.8397176,75.9596299 59.4067176,76.3016299 59.5957176,75.8366299 C59.9747176,75.8016299 60.1897176,75.3406299 60.6277176,75.4446299 C60.7107176,75.4646299 60.7517176,75.3446299 60.8107176,75.2876299 C61.1217176,74.9856299 61.3817176,74.6006299 61.8907176,74.6046299 C62.0197176,74.6066299 62.0647176,74.4986299 62.0947176,74.3946299 C62.2347176,73.9296299 62.6437176,73.6456299 62.9877176,73.4356299 C63.3997176,73.1846299 63.7767176,72.8896299 64.1837176,72.6446299 C64.7187176,72.3236299 65.1497176,71.9316299 65.5157176,71.4306299 C65.7987176,71.0406299 66.1657176,70.7116299 66.4247176,70.3056299 C66.6417176,69.9646299 66.7707176,69.5766299 67.0587176,69.2746299 C67.3267176,68.9936299 67.2937176,68.5526299 67.5807176,68.2476299 C67.7497176,68.0686299 67.6857176,67.7186299 67.9067176,67.5176299 C67.9287176,67.4966299 67.9067176,67.4176299 67.8907176,67.3696299 L67.8907176,67.3696299 Z M39.2147176,48.5326299 C39.1207176,48.5456299 38.9937176,48.5246299 38.9387176,48.5786299 C38.5217176,48.9776299 38.0877176,48.7266299 37.6367176,48.6706299 C37.1637176,48.6106299 36.7377176,48.3686299 36.2557176,48.3766299 C36.1977176,48.3776299 36.1097176,48.3506299 36.0867176,48.3086299 C35.7977176,47.7706299 35.1917176,47.7966299 34.7397176,47.5546299 C34.4387176,47.3936299 34.4377176,47.0456299 34.2067176,46.8566299 C34.2007176,46.8506299 34.1977176,46.8316299 34.2027176,46.8256299 C34.5007176,46.4556299 34.1417176,46.4876299 33.9517176,46.4026299 C33.7947176,46.3326299 33.7687176,46.1736299 33.7747176,46.0236299 C33.7867176,45.7496299 33.7207176,45.5226299 33.4627176,45.3836299 C33.4267176,45.3636299 33.3837176,45.3306299 33.3747176,45.2956299 C33.2027176,44.6506299 32.4837176,44.4426299 32.2347176,43.8616299 C32.1847176,43.7466299 32.0637176,43.7376299 31.9577176,43.7586299 C31.7297176,43.8056299 31.6677176,43.6906299 31.6907176,43.4966299 C31.7127176,43.3106299 31.6517176,43.1616299 31.5077176,43.0506299 C31.3057176,42.8956299 31.2377176,42.6806299 31.2217176,42.4426299 C31.2117176,42.2996299 31.1767176,42.1626299 31.0697176,42.0706299 C30.8667176,41.8976299 30.6757176,41.7346299 30.6517176,41.4336299 C30.6407176,41.3046299 30.4697176,41.2726299 30.3547176,41.2246299 C30.2867176,41.1966299 30.1627176,41.1946299 30.1527176,41.1556299 C30.0617176,40.8346299 29.7527176,40.6486299 29.6487176,40.3506299 C29.5727176,40.1356299 29.5767176,39.8936299 29.5457176,39.6636299 C29.5397176,39.6216299 29.5537176,39.5596299 29.5307176,39.5406299 C29.0367176,39.1306299 29.4627176,38.6476299 29.4307176,38.2016299 C29.4197176,38.0436299 29.4827176,37.8696299 29.4747176,37.7006299 C29.4647176,37.4616299 29.5177176,37.2686299 29.7477176,37.1426299 C29.9497176,37.0316299 29.9247176,36.8236299 29.8547176,36.6656299 C29.7437176,36.4186299 29.8967176,36.2346299 29.9207176,36.0236299 C29.9877176,35.4576299 30.5537176,35.0626299 30.4107176,34.4336299 C30.3677176,34.2406299 30.5057176,34.0346299 30.6697176,33.9146299 C30.8357176,33.7916299 30.8657176,33.6166299 30.9547176,33.4616299 C31.1197176,33.1756299 31.0507176,32.7496299 31.4377176,32.5906299 C31.4557176,32.5836299 31.4817176,32.5606299 31.4807176,32.5486299 C31.4187176,32.0046299 32.0057176,31.7926299 32.1147176,31.2996299 C32.1767176,31.0226299 32.4177176,30.6676299 32.7517176,30.5016299 C32.8487176,30.4536299 32.9017176,30.3866299 32.9277176,30.2936299 C32.9717176,30.1316299 33.0277176,29.9936299 33.2357176,29.9996299 C33.2757176,30.0006299 33.3407176,29.9516299 33.3547176,29.9116299 C33.5377176,29.4016299 33.9997176,29.1486299 34.3737176,28.8226299 C34.6277176,28.5996299 34.8847176,28.3856299 35.1067176,28.1286299 C35.2797176,27.9276299 35.4627176,27.7476299 35.7827176,27.8526299 C35.9617176,27.9116299 36.0857176,27.8056299 36.0967176,27.6026299 C36.1167176,27.2306299 36.2517176,27.0956299 36.6077176,27.0876299 C36.8257176,27.0826299 37.0837176,27.1756299 37.0907176,26.7886299 C37.0937176,26.6466299 37.6327176,26.5606299 37.8097176,26.7086299 C37.9717176,26.8456299 38.1027176,26.8156299 38.2697176,26.7746299 C38.4687176,26.7266299 38.5787176,26.7616299 38.6967176,26.9986299 C38.9117176,27.4236299 38.8017176,27.8386299 38.8117176,28.1706299 C38.8187176,28.8726299 38.7137176,29.4776299 38.6617176,30.0856299 C38.6047176,30.7526299 38.5887176,31.4256299 38.6487176,32.1006299 C38.7017176,32.6966299 38.7067176,33.2986299 38.5937176,33.8926299 C38.5257176,34.2526299 38.6057176,34.6116299 38.6617176,34.9606299 C38.7287176,35.3846299 38.7237176,35.7996299 38.6667176,36.2196299 C38.6557176,36.2926299 38.6267176,36.3726299 38.6467176,36.4376299 C38.7687176,36.8386299 38.6707176,37.2516299 38.7207176,37.6556299 C38.7307176,37.7396299 38.7117176,37.8396299 38.7797176,37.8956299 C39.0587176,38.1216299 38.9847176,38.4026299 38.9587176,38.7046299 C38.8747176,39.6576299 38.7837176,40.6126299 38.8947176,41.5716299 C38.9137176,41.7366299 38.9037176,41.9116299 38.6957176,41.9876299 C38.5607176,42.0386299 38.5567176,42.1326299 38.6947176,42.1716299 C38.9077176,42.2326299 38.9017176,42.3876299 38.8877176,42.5486299 C38.8047176,43.5906299 38.9897176,44.6236299 39.0087176,45.6626299 C39.0197176,46.2686299 39.0887176,46.8886299 39.2777176,47.4826299 C39.3637176,47.7496299 39.2357176,48.0476299 39.3847176,48.3196299 C39.4397176,48.4196299 39.3397176,48.5136299 39.2147176,48.5326299 L39.2147176,48.5326299 Z M43.7997176,48.4166299 C43.7447176,47.9466299 43.6877176,47.4756299 43.6317176,47.0046299 C43.6287176,46.9836299 43.6347176,46.9546299 43.6227176,46.9426299 C43.2757176,46.5736299 43.5227176,46.1066299 43.4187176,45.6966299 C43.2777176,45.1466299 43.4237176,44.5496299 43.2027176,44.0276299 C43.0107176,43.5746299 43.1267176,43.1516299 43.1197176,42.7076299 C43.1117176,42.1346299 43.1277176,41.5556299 43.0447176,40.9756299 C42.9777176,40.5026299 42.8997176,40.0056299 43.0757176,39.5076299 C43.1837176,39.1986299 43.1957176,38.8366299 43.1667176,38.5056299 C43.1147176,37.9236299 43.3257176,37.3546299 43.2147176,36.7736299 C43.1917176,36.6566299 43.2497176,36.5256299 43.2607176,36.3996299 C43.2727176,36.2636299 43.3277176,36.0926299 43.2667176,35.9966299 C43.1137176,35.7526299 43.1157176,35.5746299 43.3327176,35.3756299 C43.4237176,35.2916299 43.3187176,35.1796299 43.2597176,35.0936299 C43.1747176,34.9686299 43.0787176,34.8376299 43.1667176,34.6876299 C43.3687176,34.3396299 43.2187176,34.0346299 43.0607176,33.7366299 C42.9967176,33.6136299 42.9827176,33.5116299 43.0107176,33.3776299 C43.1047176,32.9446299 43.2047176,32.5066299 42.9067176,32.1016299 C42.8397176,32.0106299 42.8517176,31.8966299 42.8677176,31.7936299 C42.9647176,31.1686299 42.9407176,30.5376299 42.9697176,29.9086299 C42.9937176,29.3866299 42.9447176,28.8796299 42.7337176,28.3956299 C42.7167176,28.3576299 42.7057176,28.3146299 42.7027176,28.2736299 C42.6607176,27.5556299 42.4477176,26.8766299 42.2367176,26.1986299 C42.2097176,26.1096299 42.2037176,26.0286299 42.2747176,25.9636299 C42.4157176,25.8356299 42.4707176,25.6686299 42.5027176,25.4886299 C42.5107176,25.4376299 42.5227176,25.3626299 42.5567176,25.3436299 C43.1827176,25.0046299 43.5337176,24.2206299 44.4027176,24.2546299 C44.7697176,24.2686299 45.1437176,24.1346299 45.5147176,24.0666299 C45.5557176,24.0596299 45.5997176,24.0316299 45.6367176,24.0396299 C45.9247176,24.0956299 46.2047176,24.3266299 46.5057176,24.0476299 C46.5537176,24.0026299 46.6787176,24.0936299 46.7017176,24.1716299 C46.8267176,24.5916299 47.2367176,24.7826299 47.4507176,25.1506299 C47.7937176,25.7386299 47.8777176,26.3026299 47.8277176,26.9736299 C47.7737176,27.7116299 47.5907176,28.4646299 47.8457176,29.2156299 C47.9417176,29.4956299 47.7877176,29.8086299 47.8267176,30.1206299 C47.9147176,30.8336299 47.7867176,31.5456299 47.7457176,32.2576299 C47.7287176,32.5376299 47.9097176,32.7896299 47.9017176,33.0836299 C47.8907176,33.4356299 47.8247176,33.7946299 47.9527176,34.1416299 C47.9557176,34.1506299 47.9577176,34.1676299 47.9527176,34.1736299 C47.5157176,34.6446299 48.0307176,35.1846299 47.8167176,35.6766299 C47.9157176,36.2966299 47.7457176,36.9036299 47.7267176,37.5206299 C47.7217176,37.6786299 47.6137176,37.7936299 47.5927176,37.9376299 C47.5537176,38.2006299 47.5407176,38.4666299 47.6587176,38.7156299 C47.7667176,38.9436299 47.7647176,39.1806299 47.6647176,39.3916299 C47.4197176,39.9066299 47.5077176,40.4446299 47.5207176,40.9756299 C47.5257176,41.1896299 47.5557176,41.3956299 47.4107176,41.5786299 C47.2837176,41.7396299 47.3807176,41.8886299 47.4647176,42.0166299 C47.5927176,42.2106299 47.6007176,42.4006299 47.5307176,42.6156299 C47.4327176,42.9226299 47.3167176,43.2316299 47.5157176,43.5486299 C47.5497176,43.6026299 47.5537176,43.7066299 47.5257176,43.7626299 C47.3177176,44.1786299 47.4507176,44.6396299 47.3357176,45.0696299 C47.2767176,45.2886299 47.2887176,45.5316299 47.3777176,45.7566299 C47.4187176,45.8576299 47.4277176,45.9586299 47.3867176,46.0646299 C47.3187176,46.2406299 47.3207176,46.4156299 47.4087176,46.5856299 C47.4597176,46.6836299 47.4567176,46.7866299 47.4577176,46.8946299 C47.4697176,47.7026299 47.3447176,48.5086299 47.3967176,49.3186299 C47.4077176,49.4916299 47.3027176,49.4916299 47.1927176,49.4426299 C47.0287176,49.3706299 46.8997176,49.4266299 46.7947176,49.5416299 C46.6287176,49.7226299 46.3847176,49.7826299 46.2077176,49.9516299 C46.0867176,50.0666299 45.8957176,50.0296299 45.7517176,49.9746299 C45.2957176,49.7996299 44.8177176,49.6636299 44.4667176,49.2846299 C44.3807176,49.1916299 44.2717176,49.1236299 44.2677176,48.9796299 C44.2657176,48.8786299 44.2127176,48.8206299 44.1137176,48.8146299 C43.8577176,48.7996299 43.8237176,48.6146299 43.7997176,48.4166299 L43.7997176,48.4166299 Z M48.2477176,70.3546299 C47.9237176,70.6926299 48.1257176,71.0836299 48.1277176,71.4506299 C48.1317176,71.8516299 48.1497176,72.2526299 48.1857176,72.6536299 C48.2007176,72.8246299 48.2037176,72.9896299 48.1287176,73.1456299 C47.9547176,73.5176299 48.0177176,73.9606299 47.7497176,74.3076299 C47.6207176,74.4756299 47.4967176,74.6226299 47.2817176,74.6496299 C47.0197176,74.6836299 46.8967176,74.9816299 46.6217176,74.9886299 C46.5927176,74.9886299 46.5647176,75.0156299 46.5347176,75.0266299 C46.0567176,75.1876299 45.1187176,74.6956299 45.0097176,74.2066299 C44.9617176,73.9896299 44.7537176,73.8906299 44.7017176,73.6676299 C44.6107176,73.2836299 44.6207176,72.8936299 44.5677176,72.5086299 C44.5467176,72.3556299 44.5627176,72.2016299 44.6437176,72.0496299 C44.7567176,71.8386299 44.7647176,71.5806299 44.6907176,71.3686299 C44.5527176,70.9786299 44.5367176,70.5826299 44.5687176,70.1856299 C44.6027176,69.7466299 44.4957176,69.3516299 44.2957176,68.9736299 C44.2247176,68.8396299 44.1767176,68.6926299 44.3597176,68.6366299 C44.5597176,68.5756299 44.5537176,68.4946299 44.4657176,68.3416299 C44.3867176,68.2026299 44.3647176,68.0436299 44.3807176,67.8806299 C44.4027176,67.6676299 44.3647176,67.4636299 44.3027176,67.2586299 C44.2297176,67.0146299 44.2207176,66.7726299 44.2677176,66.5116299 C44.3287176,66.1756299 44.2457176,65.8236299 44.3157176,65.4786299 C44.3297176,65.4096299 44.2827176,65.3016299 44.2287176,65.2486299 C43.9557176,64.9826299 44.0217176,64.6756299 44.1007176,64.3636299 C44.1237176,64.2726299 44.1947176,64.1766299 44.1427176,64.0886299 C43.8667176,63.6246299 44.1977176,63.1956299 44.2077176,62.7476299 C44.2107176,62.6376299 44.2787176,62.5916299 44.3857176,62.5626299 C44.6127176,62.5016299 44.5857176,62.3446299 44.4377176,62.2506299 C44.2587176,62.1366299 44.2687176,61.9866299 44.3037176,61.8386299 C44.3837176,61.5056299 44.3827176,61.1686299 44.3897176,60.8316299 C44.3927176,60.7256299 44.3927176,60.6186299 44.4647176,60.5306299 C44.5607176,60.4106299 44.5337176,60.3076299 44.4477176,60.1886299 C44.2237176,59.8756299 44.2037176,59.5186299 44.2777176,59.1596299 C44.3167176,58.9686299 44.3507176,58.7896299 44.2937176,58.5986299 C44.2557176,58.4736299 44.2497176,58.3246299 44.3517176,58.2396299 C44.5327176,58.0886299 44.4937176,57.9476299 44.3997176,57.7746299 C44.2317176,57.4666299 44.2677176,57.1116299 44.2497176,56.7856299 C44.2267176,56.3746299 44.1457176,55.9456299 44.3037176,55.5356299 C44.4187176,55.2396299 44.6537176,55.0076299 44.7137176,54.6706299 C44.7447176,54.4996299 44.9597176,54.3916299 45.1777176,54.4156299 C45.4217176,54.4446299 45.6737176,54.3366299 45.8967176,54.3696299 C46.4267176,54.4486299 46.9627176,54.5756299 47.3377176,55.0176299 C47.4257176,55.1206299 47.4787176,55.2476299 47.6417176,55.2666299 C47.7757176,55.2816299 47.7947176,55.4106299 47.7977176,55.5106299 C47.8087176,55.8286299 47.8637176,56.1376299 47.9177176,56.4496299 C47.9497176,56.6316299 47.9037176,56.8136299 47.8397176,57.0016299 C47.7077176,57.3846299 47.7357176,57.7886299 47.8217176,58.1876299 C47.9647176,58.8486299 47.9017176,59.4936299 47.6717176,60.1326299 C47.5217176,60.5496299 47.5407176,61.0016299 47.5047176,61.4406299 C47.5037176,61.4496299 47.5047176,61.4656299 47.5097176,61.4706299 C48.0147176,61.8886299 47.6687176,62.4096299 47.6907176,62.8886299 C47.7297176,63.7496299 47.7427176,64.6116299 47.9237176,65.4666299 C48.0247176,65.9396299 48.0907176,66.4396299 48.0677176,67.1266299 C48.1327176,67.5186299 48.0787176,68.1106299 48.2407176,68.6886299 C48.2957176,68.8846299 48.2547176,69.1076299 48.2527176,69.3186299 C48.2477176,69.5926299 48.2077176,69.8656299 48.2657176,70.1396299 C48.2807176,70.2086299 48.2867176,70.3136299 48.2477176,70.3546299 L48.2477176,70.3546299 Z M64.2677176,65.4536299 C64.1987176,65.8236299 63.9137176,66.1746299 63.8357176,66.5916299 C63.8047176,66.7556299 63.6187176,66.8796299 63.6037176,67.0916299 C63.5907176,67.2836299 63.3887176,67.3416299 63.2417176,67.4106299 C62.9997176,67.5236299 62.8687176,67.6996299 62.7377176,67.9346299 C62.4837176,68.3946299 62.2557176,68.8896299 61.7857176,69.1986299 C61.6657176,69.2776299 61.5577176,69.3886299 61.4717176,69.5066299 C61.2517176,69.8076299 60.9697176,70.0396299 60.6887176,70.2766299 C60.4617176,70.4676299 60.1557176,70.3226299 59.9087176,70.4806299 C59.7807176,70.5626299 59.6467176,70.6186299 59.5287176,70.7346299 C59.2487176,71.0106299 58.9407176,71.2626299 58.6387176,71.5196299 C58.5947176,71.5556299 58.5067176,71.5936299 58.4677176,71.5736299 C58.0377176,71.3546299 57.8717176,71.7656299 57.6387176,71.9446299 C57.4107176,72.1216299 57.1797176,72.2806299 56.9477176,72.4416299 C56.6197176,72.6696299 56.1417176,72.6196299 55.9197176,73.0306299 C55.8627176,73.1366299 55.6827176,73.1466299 55.5397176,73.1506299 C55.1707176,73.1596299 54.8507176,73.2516299 54.7357176,73.6656299 C54.7137176,73.7496299 54.6637176,73.8336299 54.5567176,73.7976299 C54.1777176,73.6626299 53.8307176,73.7036299 53.4987176,73.9406299 C53.3827176,74.0226299 53.2207176,74.0036299 53.0997176,73.9486299 C52.9217176,73.8716299 52.7507176,73.8096299 52.5547176,73.8186299 C52.5157176,73.8186299 52.4417176,73.7996299 52.4407176,73.7856299 C52.4137176,73.4356299 52.0707176,73.2666299 51.9707176,72.9606299 C51.9587176,72.9226299 51.9717176,72.8766299 51.9727176,72.8396299 C51.9927176,72.7736299 52.0187176,72.7096299 51.9757176,72.6526299 C51.7347176,72.3276299 51.8907176,72.0006299 51.9957176,71.6936299 C52.0617176,71.4976299 52.0807176,71.3516299 51.9317176,71.2056299 C51.8157176,71.0916299 51.7767176,70.9296299 51.8017176,70.7956299 C51.8577176,70.4886299 51.8027176,70.1886299 51.8087176,69.8856299 C51.8137176,69.6586299 51.8307176,69.4446299 51.6567176,69.2656299 C51.6117176,69.2186299 51.5827176,69.1546299 51.6047176,69.0916299 C51.7997176,68.5386299 51.5117176,67.9896299 51.6147176,67.4216299 C51.7157176,66.8666299 51.6697176,66.2846299 51.6847176,65.7156299 C51.6867176,65.6426299 51.6927176,65.5536299 51.6557176,65.4996299 C51.3997176,65.1156299 51.4717176,64.6906299 51.4697176,64.2696299 C51.4677176,63.8176299 51.4117176,63.3686299 51.2767176,62.9346299 C51.2177176,62.7446299 51.2187176,62.5786299 51.2917176,62.3846299 C51.4247176,62.0306299 51.4997176,61.6666299 51.4567176,61.2756299 C51.4237176,60.9866299 51.4847176,60.6966299 51.5397176,60.4046299 C51.5967176,60.1056299 51.5037176,59.7686299 51.4357176,59.4596299 C51.3917176,59.2546299 51.3537176,59.0746299 51.4657176,58.8816299 C51.5657176,58.7096299 51.5397176,58.5066299 51.5337176,58.3226299 C51.5217176,57.8836299 51.6257176,57.4516299 51.5717176,57.0066299 C51.4997176,56.4116299 51.7787176,55.8516299 51.8207176,55.2636299 C51.8247176,55.2126299 51.8887176,55.1226299 51.9277176,55.1206299 C52.2067176,55.1106299 52.4387176,54.9236299 52.7187176,54.9196299 C53.0847176,54.9146299 53.4497176,54.9016299 53.8157176,54.8936299 C53.8567176,54.8926299 53.9067176,54.8916299 53.9377176,54.9126299 C54.3557176,55.2026299 54.8537176,55.0916299 55.3097176,55.1916299 C55.6667176,55.2686299 56.0377176,55.2986299 56.3467176,55.5276299 C56.3787176,55.5516299 56.4377176,55.5916299 56.4547176,55.5806299 C56.8907176,55.2966299 57.1947176,55.8306299 57.5987176,55.7616299 C57.7227176,55.7406299 57.7987176,55.8516299 57.8757176,55.9436299 C58.1927176,56.3176299 58.5527176,56.6226299 59.0437176,56.7676299 C59.3507176,56.8576299 59.6587176,56.9816299 59.8477176,57.2796299 C59.8837176,57.3366299 59.9567176,57.3866299 60.0237176,57.4076299 C60.2717176,57.4836299 60.4377176,57.6436299 60.5487176,57.8726299 C60.5857176,57.9486299 60.6367176,58.0416299 60.7217176,58.0466299 C61.2077176,58.0806299 61.3947176,58.4596299 61.6527176,58.7876299 C61.8087176,58.9856299 62.0487176,59.1296299 62.1857176,59.3546299 C62.3317176,59.5956299 62.4307176,59.8176299 62.7607176,59.9326299 C63.0487176,60.0336299 63.1937176,60.4056299 63.1837176,60.7526299 C63.1767176,60.9866299 63.2057176,61.1866299 63.3967176,61.3496299 C63.8787176,61.7656299 63.9037176,62.3666299 64.0007176,62.9286299 C64.0447176,63.1866299 64.0527176,63.4436299 64.1497176,63.6966299 C64.3697176,64.2656299 64.3737176,64.8906299 64.2677176,65.4536299 L64.2677176,65.4536299 Z" id="dollar_sign" fill="#242831" sketch:type="MSShapeGroup"></path>
    </g>
</svg>