<?xml version="1.0" encoding="UTF-8" standalone="no"?>
<svg width="371px" height="182px" viewBox="0 0 371 182" version="1.1" xmlns="http://www.w3.org/2000/svg" xmlns:xlink="http://www.w3.org/1999/xlink" xmlns:sketch="http://www.bohemiancoding.com/sketch/ns">
    <!-- Generator: Sketch 3.3.3 (12081) - http://www.bohemiancoding.com/sketch -->
    <title>falling_papers</title>
    <desc>Created with Sketch.</desc>
    <defs></defs>
    <g id="Page-1" stroke="none" stroke-width="1" fill="none" fill-rule="evenodd" sketch:type="MSPage">
        <g id="falling_papers" sketch:type="MSLayerGroup" transform="translate(0.000000, 1.000000)">
            <path d="M185.666,114.221 C185.719,126.388 186.705,138.376 188.6,150.47 C172.438,149.318 156.273,148.172 140.112,147.009 C137.224,134.858 135.255,122.742 134.2,110.405 C151.354,111.683 168.51,112.949 185.666,114.221 L185.666,114.221 Z" id="Fill-1" fill="#EFF2EF" sketch:type="MSShapeGroup"></path>
            <path d="M185.666,114.221 C185.719,126.388 186.705,138.376 188.6,150.47 C172.438,149.318 156.273,148.172 140.112,147.009 C137.224,134.858 135.255,122.742 134.2,110.405 C151.354,111.683 168.51,112.949 185.666,114.221 L185.666,114.221 Z" id="Stroke-2" stroke="#989998" sketch:type="MSShapeGroup"></path>
            <path d="M188.908,150.754 L176.667,149.883 C164.476,149.015 152.283,148.148 140.093,147.27 L139.901,147.256 L139.857,147.07 C136.93,134.752 134.994,122.766 133.94,110.428 L133.913,110.122 L134.22,110.145 C145.781,111.005 157.344,111.861 168.906,112.717 L185.928,113.978 L185.928,114.22 C185.979,126.337 186.94,138.181 188.857,150.429 L188.908,150.754 L188.908,150.754 Z M140.322,146.762 C152.449,147.635 164.576,148.498 176.705,149.361 L188.29,150.186 C186.412,138.108 185.469,126.416 185.406,114.464 L168.867,113.239 C157.407,112.391 145.947,111.543 134.487,110.689 C135.54,122.832 137.45,134.637 140.322,146.762 L140.322,146.762 Z" id="Fill-3" fill="#EFF2EF" sketch:type="MSShapeGroup"></path>
            <path d="M188.908,150.754 L176.667,149.883 C164.476,149.015 152.283,148.148 140.093,147.27 L139.901,147.256 L139.857,147.07 C136.93,134.752 134.994,122.766 133.94,110.428 L133.913,110.122 L134.22,110.145 C145.781,111.005 157.344,111.861 168.906,112.717 L185.928,113.978 L185.928,114.22 C185.979,126.337 186.94,138.181 188.857,150.429 L188.908,150.754 L188.908,150.754 Z M140.322,146.762 C152.449,147.635 164.576,148.498 176.705,149.361 L188.29,150.186 C186.412,138.108 185.469,126.416 185.406,114.464 L168.867,113.239 C157.407,112.391 145.947,111.543 134.487,110.689 C135.54,122.832 137.45,134.637 140.322,146.762 L140.322,146.762 Z" id="Stroke-4" stroke="#989998" sketch:type="MSShapeGroup"></path>
            <path d="M159.392,127.518 C147.321,133.241 135.879,139.672 124.739,146.972 C118.139,132.368 111.534,117.765 104.946,103.153 C115.666,94.97 126.763,87.623 138.524,80.943 C145.475,96.469 152.435,111.991 159.392,127.518 L159.392,127.518 Z" id="Fill-5" fill="#EFF2EF" sketch:type="MSShapeGroup"></path>
            <path d="M159.392,127.518 C147.321,133.241 135.879,139.672 124.739,146.972 C118.139,132.368 111.534,117.765 104.946,103.153 C115.666,94.97 126.763,87.623 138.524,80.943 C145.475,96.469 152.435,111.991 159.392,127.518 L159.392,127.518 Z" id="Stroke-6" stroke="#989998" sketch:type="MSShapeGroup"></path>
            <path d="M124.627,147.358 L120.532,138.299 C115.253,126.622 109.974,114.944 104.707,103.261 L104.622,103.072 L104.787,102.946 C115.605,94.687 126.598,87.416 138.395,80.716 L138.646,80.573 L138.763,80.836 C142.707,89.645 146.653,98.453 150.602,107.26 L159.733,127.645 L159.503,127.754 C147.432,133.477 136.108,139.835 124.882,147.191 L124.627,147.358 L124.627,147.358 Z M105.27,103.235 C110.509,114.855 115.759,126.469 121.008,138.084 L124.852,146.585 C135.942,139.334 147.135,133.052 159.047,127.392 L150.123,107.475 C146.215,98.754 142.308,90.035 138.403,81.313 C126.782,87.928 115.939,95.103 105.27,103.235 L105.27,103.235 Z" id="Fill-7" fill="#EFF2EF" sketch:type="MSShapeGroup"></path>
            <path d="M124.627,147.358 L120.532,138.299 C115.253,126.622 109.974,114.944 104.707,103.261 L104.622,103.072 L104.787,102.946 C115.605,94.687 126.598,87.416 138.395,80.716 L138.646,80.573 L138.763,80.836 C142.707,89.645 146.653,98.453 150.602,107.26 L159.733,127.645 L159.503,127.754 C147.432,133.477 136.108,139.835 124.882,147.191 L124.627,147.358 L124.627,147.358 Z M105.27,103.235 C110.509,114.855 115.759,126.469 121.008,138.084 L124.852,146.585 C135.942,139.334 147.135,133.052 159.047,127.392 L150.123,107.475 C146.215,98.754 142.308,90.035 138.403,81.313 C126.782,87.928 115.939,95.103 105.27,103.235 L105.27,103.235 Z" id="Stroke-8" stroke="#989998" sketch:type="MSShapeGroup"></path>
            <path d="M129.156,10.896 C127.533,18.318 126.816,25.762 126.944,33.44 C111.611,30.166 96.278,26.893 80.946,23.609 C79.88,15.743 79.672,8.065 80.354,0.375 C96.62,3.883 112.888,7.387 129.156,10.896 L129.156,10.896 Z" id="Fill-9" fill="#EFF2EF" sketch:type="MSShapeGroup"></path>
            <path d="M129.156,10.896 C127.533,18.318 126.816,25.762 126.944,33.44 C111.611,30.166 96.278,26.893 80.946,23.609 C79.88,15.743 79.672,8.065 80.354,0.375 C96.62,3.883 112.888,7.387 129.156,10.896 L129.156,10.896 Z" id="Stroke-10" stroke="#989998" sketch:type="MSShapeGroup"></path>
            <path d="M127.211,33.765 L119.387,32.094 C106.555,29.354 93.723,26.613 80.892,23.865 L80.712,23.827 L80.687,23.645 C79.606,15.665 79.412,8.046 80.094,0.352 L80.12,0.056 L129.467,10.695 L129.411,10.951 C127.798,18.333 127.077,25.687 127.206,33.436 L127.211,33.765 L127.211,33.765 Z M81.181,23.392 C93.951,26.127 106.725,28.855 119.497,31.582 L126.678,33.116 C126.574,25.537 127.284,18.326 128.844,11.096 L80.589,0.693 C79.946,8.19 80.14,15.62 81.181,23.392 L81.181,23.392 Z" id="Fill-11" fill="#EFF2EF" sketch:type="MSShapeGroup"></path>
            <path d="M127.211,33.765 L119.387,32.094 C106.555,29.354 93.723,26.613 80.892,23.865 L80.712,23.827 L80.687,23.645 C79.606,15.665 79.412,8.046 80.094,0.352 L80.12,0.056 L129.467,10.695 L129.411,10.951 C127.798,18.333 127.077,25.687 127.206,33.436 L127.211,33.765 L127.211,33.765 Z M81.181,23.392 C93.951,26.127 106.725,28.855 119.497,31.582 L126.678,33.116 C126.574,25.537 127.284,18.326 128.844,11.096 L80.589,0.693 C79.946,8.19 80.14,15.62 81.181,23.392 L81.181,23.392 Z" id="Stroke-12" stroke="#989998" sketch:type="MSShapeGroup"></path>
            <path d="M88.456,49.637 C85.505,61.44 81.689,72.847 76.963,84.14 C92.935,86.875 108.905,89.616 124.878,92.341 C130.58,81.229 135.381,69.932 139.348,58.202 C122.384,55.352 105.42,52.492 88.456,49.637 L88.456,49.637 Z" id="Fill-13" fill="#EFF2EF" sketch:type="MSShapeGroup"></path>
            <path d="M88.456,49.637 C85.505,61.44 81.689,72.847 76.963,84.14 C92.935,86.875 108.905,89.616 124.878,92.341 C130.58,81.229 135.381,69.932 139.348,58.202 C122.384,55.352 105.42,52.492 88.456,49.637 L88.456,49.637 Z" id="Stroke-14" stroke="#989998" sketch:type="MSShapeGroup"></path>
            <path d="M76.722,84.039 C81.507,72.602 85.262,61.328 88.203,49.573 L88.261,49.338 L105.092,52.172 C116.525,54.098 127.958,56.024 139.39,57.944 L139.694,57.996 L139.595,58.286 C135.628,70.018 130.891,81.196 125.109,92.46 L125.022,92.631 L124.833,92.599 C112.784,90.544 100.738,88.48 88.693,86.415 L76.596,84.342 L76.722,84.039 L76.722,84.039 Z M139,58.409 C127.669,56.506 116.336,54.597 105.003,52.689 L88.652,49.935 C85.739,61.527 82.035,72.656 77.332,83.938 L88.781,85.899 C100.763,87.953 112.747,90.007 124.732,92.051 C130.412,80.96 135.083,69.951 139,58.409 L139,58.409 Z" id="Fill-15" fill="#EFF2EF" sketch:type="MSShapeGroup"></path>
            <path d="M76.722,84.039 C81.507,72.602 85.262,61.328 88.203,49.573 L88.261,49.338 L105.092,52.172 C116.525,54.098 127.958,56.024 139.39,57.944 L139.694,57.996 L139.595,58.286 C135.628,70.018 130.891,81.196 125.109,92.46 L125.022,92.631 L124.833,92.599 C112.784,90.544 100.738,88.48 88.693,86.415 L76.596,84.342 L76.722,84.039 L76.722,84.039 Z M139,58.409 C127.669,56.506 116.336,54.597 105.003,52.689 L88.652,49.935 C85.739,61.527 82.035,72.656 77.332,83.938 L88.781,85.899 C100.763,87.953 112.747,90.007 124.732,92.051 C130.412,80.96 135.083,69.951 139,58.409 L139,58.409 Z" id="Stroke-16" stroke="#989998" sketch:type="MSShapeGroup"></path>
            <path d="M147.57,77.419 C157.755,82.434 167.293,88.09 176.603,94.588 C183.46,80.608 190.316,66.627 197.157,52.64 C188.287,45.307 179.126,38.781 169.268,32.841 C162.035,47.7 154.797,62.556 147.57,77.419 L147.57,77.419 Z" id="Fill-17" fill="#EFF2EF" sketch:type="MSShapeGroup"></path>
            <path d="M147.57,77.419 C157.755,82.434 167.293,88.09 176.603,94.588 C183.46,80.608 190.316,66.627 197.157,52.64 C188.287,45.307 179.126,38.781 169.268,32.841 C162.035,47.7 154.797,62.556 147.57,77.419 L147.57,77.419 Z" id="Stroke-18" stroke="#989998" stroke-width="1.7" sketch:type="MSShapeGroup"></path>
            <path d="M42.811,124.361 C50.446,135.323 57.183,146.589 63.227,158.458 C76.207,149.06 89.194,139.666 102.168,130.256 C96.928,117.828 90.946,105.941 84.055,94.301 C70.312,104.325 56.561,114.339 42.811,124.361 L42.811,124.361 Z" id="Fill-19" fill="#EFF2EF" sketch:type="MSShapeGroup"></path>
            <path d="M42.811,124.361 C50.446,135.323 57.183,146.589 63.227,158.458 C76.207,149.06 89.194,139.666 102.168,130.256 C96.928,117.828 90.946,105.941 84.055,94.301 C70.312,104.325 56.561,114.339 42.811,124.361 L42.811,124.361 Z" id="Stroke-20" stroke="#989998" sketch:type="MSShapeGroup"></path>
            <path d="M62.992,158.576 C56.902,146.616 50.231,135.473 42.598,124.511 L42.452,124.301 L60.502,111.144 C68.304,105.46 76.104,99.777 83.901,94.09 L84.134,93.92 L84.28,94.168 C91.192,105.843 97.121,117.614 102.41,130.154 L102.49,130.346 L102.321,130.468 C91.948,137.991 81.566,145.505 71.185,153.019 L63.132,158.848 L62.992,158.576 L62.992,158.576 Z M83.977,94.683 C76.256,100.313 68.535,105.94 60.811,111.568 L43.174,124.422 C50.7,135.252 57.294,146.263 63.319,158.064 L70.878,152.595 C81.202,145.123 91.528,137.648 101.847,130.167 C96.626,117.808 90.777,106.196 83.977,94.683 L83.977,94.683 Z" id="Fill-21" fill="#EFF2EF" sketch:type="MSShapeGroup"></path>
            <path d="M62.992,158.576 C56.902,146.616 50.231,135.473 42.598,124.511 L42.452,124.301 L60.502,111.144 C68.304,105.46 76.104,99.777 83.901,94.09 L84.134,93.92 L84.28,94.168 C91.192,105.843 97.121,117.614 102.41,130.154 L102.49,130.346 L102.321,130.468 C91.948,137.991 81.566,145.505 71.185,153.019 L63.132,158.848 L62.992,158.576 L62.992,158.576 Z M83.977,94.683 C76.256,100.313 68.535,105.94 60.811,111.568 L43.174,124.422 C50.7,135.252 57.294,146.263 63.319,158.064 L70.878,152.595 C81.202,145.123 91.528,137.648 101.847,130.167 C96.626,117.808 90.777,106.196 83.977,94.683 L83.977,94.683 Z" id="Stroke-22" stroke="#989998" sketch:type="MSShapeGroup"></path>
            <path d="M236.559,103.857 C238.56,109.452 239.979,115.47 240.815,122.07 C253.791,118.176 268.997,113.611 287.05,108.181 C285.869,99.772 283.71,92.162 280.586,85.174 C263.448,92.448 248.962,98.592 236.559,103.857 L236.559,103.857 Z" id="Fill-23" fill="#EFF2EF" sketch:type="MSShapeGroup"></path>
            <path d="M236.559,103.857 C238.56,109.452 239.979,115.47 240.815,122.07 C253.791,118.176 268.997,113.611 287.05,108.181 C285.869,99.772 283.71,92.162 280.586,85.174 C263.448,92.448 248.962,98.592 236.559,103.857 L236.559,103.857 Z" id="Stroke-24" stroke="#989998" sketch:type="MSShapeGroup"></path>
            <path d="M240.609,122.102 C239.779,115.488 238.379,109.552 236.393,103.986 L236.286,103.69 L280.745,84.746 L280.876,85.038 C284.026,92.063 286.2,99.654 287.404,108.18 L287.447,108.475 L287.194,108.55 C270.132,113.65 255.623,117.977 243.14,121.7 L240.651,122.441 L240.609,122.102 L240.609,122.102 Z M280.429,85.604 L236.831,104.027 C238.76,109.467 240.137,115.265 240.975,121.701 L243.015,121.085 C255.398,117.344 269.773,113.001 286.655,107.888 C285.49,99.704 283.416,92.389 280.429,85.604 L280.429,85.604 Z" id="Fill-25" fill="#EFF2EF" sketch:type="MSShapeGroup"></path>
            <path d="M240.609,122.102 C239.779,115.488 238.379,109.552 236.393,103.986 L236.286,103.69 L280.745,84.746 L280.876,85.038 C284.026,92.063 286.2,99.654 287.404,108.18 L287.447,108.475 L287.194,108.55 C270.132,113.65 255.623,117.977 243.14,121.7 L240.651,122.441 L240.609,122.102 L240.609,122.102 Z M280.429,85.604 L236.831,104.027 C238.76,109.467 240.137,115.265 240.975,121.701 L243.015,121.085 C255.398,117.344 269.773,113.001 286.655,107.888 C285.49,99.704 283.416,92.389 280.429,85.604 L280.429,85.604 Z" id="Stroke-26" stroke="#989998" sketch:type="MSShapeGroup"></path>
            <path d="M314.518,82.175 C323.678,76.877 333.133,72.127 343.102,67.775 C334.638,60.21 326.175,52.643 317.702,45.085 C307.228,48.968 297.216,53.284 287.454,58.154 C296.477,66.159 305.495,74.169 314.518,82.175 L314.518,82.175 Z" id="Fill-27" fill="#EFF2EF" sketch:type="MSShapeGroup"></path>
            <path d="M314.518,82.175 C323.678,76.877 333.133,72.127 343.102,67.775 C334.638,60.21 326.175,52.643 317.702,45.085 C307.228,48.968 297.216,53.284 287.454,58.154 C296.477,66.159 305.495,74.169 314.518,82.175 L314.518,82.175 Z" id="Stroke-28" stroke="#989998" sketch:type="MSShapeGroup"></path>
            <path d="M343.177,67.933 C333.089,72.337 323.755,77.041 314.641,82.31 L314.411,82.441 L302.821,72.152 C297.619,67.538 292.42,62.92 287.218,58.306 L287.051,58.158 L287.355,58.005 C297.112,53.137 307.022,48.855 317.651,44.917 L317.84,44.846 L317.939,44.934 C324.481,50.77 331.016,56.609 337.549,62.449 L343.518,67.784 L343.177,67.933 L343.177,67.933 Z M287.857,58.151 C293.003,62.717 298.147,67.283 303.292,71.851 L314.623,81.907 C323.593,76.733 332.777,72.103 342.685,67.764 L337.075,62.751 C330.574,56.94 324.074,51.129 317.565,45.324 C307.151,49.192 297.426,53.39 287.857,58.151 L287.857,58.151 Z" id="Fill-29" fill="#EFF2EF" sketch:type="MSShapeGroup"></path>
            <path d="M343.177,67.933 C333.089,72.337 323.755,77.041 314.641,82.31 L314.411,82.441 L302.821,72.152 C297.619,67.538 292.42,62.92 287.218,58.306 L287.051,58.158 L287.355,58.005 C297.112,53.137 307.022,48.855 317.651,44.917 L317.84,44.846 L317.939,44.934 C324.481,50.77 331.016,56.609 337.549,62.449 L343.518,67.784 L343.177,67.933 L343.177,67.933 Z M287.857,58.151 C293.003,62.717 298.147,67.283 303.292,71.851 L314.623,81.907 C323.593,76.733 332.777,72.103 342.685,67.764 L337.075,62.751 C330.574,56.94 324.074,51.129 317.565,45.324 C307.151,49.192 297.426,53.39 287.857,58.151 L287.857,58.151 Z" id="Stroke-30" stroke="#989998" sketch:type="MSShapeGroup"></path>
            <path d="M25.657,70.272 C35.053,65.898 44.589,62.687 54.464,60.511 C48.931,42.029 43.4,23.544 37.859,5.066 C27.653,6.1 17.737,8.21 7.923,11.472 C13.837,31.068 19.746,50.67 25.657,70.272 L25.657,70.272 Z" id="Fill-31" fill="#EFF2EF" sketch:type="MSShapeGroup"></path>
            <path d="M25.657,70.272 C35.053,65.898 44.589,62.687 54.464,60.511 C48.931,42.029 43.4,23.544 37.859,5.066 C27.653,6.1 17.737,8.21 7.923,11.472 C13.837,31.068 19.746,50.67 25.657,70.272 L25.657,70.272 Z" id="Stroke-32" stroke="#989998" sketch:type="MSShapeGroup"></path>
            <path d="M54.52,60.812 C44.52,63.014 35.106,66.204 25.736,70.563 L25.577,70.637 L20.549,53.971 C16.288,39.835 12.025,25.698 7.759,11.565 L7.66,11.239 L7.855,11.176 C17.681,7.909 27.481,5.812 37.815,4.765 L37.954,4.75 L38.021,4.974 C42.086,18.526 46.144,32.082 50.202,45.638 L54.73,60.765 L54.52,60.812 L54.52,60.812 Z M8.182,11.704 C12.416,25.729 16.646,39.757 20.877,53.785 L25.738,69.905 C35.004,65.607 44.316,62.45 54.195,60.258 L49.876,45.821 C45.838,32.339 41.803,18.859 37.762,5.382 C27.562,6.426 17.885,8.494 8.182,11.704 L8.182,11.704 Z" id="Fill-33" fill="#EFF2EF" sketch:type="MSShapeGroup"></path>
            <path d="M54.52,60.812 C44.52,63.014 35.106,66.204 25.736,70.563 L25.577,70.637 L20.549,53.971 C16.288,39.835 12.025,25.698 7.759,11.565 L7.66,11.239 L7.855,11.176 C17.681,7.909 27.481,5.812 37.815,4.765 L37.954,4.75 L38.021,4.974 C42.086,18.526 46.144,32.082 50.202,45.638 L54.73,60.765 L54.52,60.812 L54.52,60.812 Z M8.182,11.704 C12.416,25.729 16.646,39.757 20.877,53.785 L25.738,69.905 C35.004,65.607 44.316,62.45 54.195,60.258 L49.876,45.821 C45.838,32.339 41.803,18.859 37.762,5.382 C27.562,6.426 17.885,8.494 8.182,11.704 L8.182,11.704 Z" id="Stroke-34" stroke="#989998" sketch:type="MSShapeGroup"></path>
            <path d="M235.591,76.953 C229.421,42.372 188.299,43.171 181.734,44.672 C195.283,61.844 215.324,73.853 235.591,76.953 L235.591,76.953 Z" id="Fill-35" fill="#C4C5C4" sketch:type="MSShapeGroup"></path>
            <path d="M235.591,76.953 C229.421,42.372 188.299,43.171 181.734,44.672 C195.283,61.844 215.324,73.853 235.591,76.953 L235.591,76.953 Z" id="Stroke-36" stroke="#989998" sketch:type="MSShapeGroup"></path>
            <path d="M235.849,76.907 L235.913,77.268 L235.55,77.211 C216.25,74.26 197.369,63.444 183.751,47.537 C182.994,46.652 182.246,45.743 181.529,44.834 L181.272,44.509 L181.677,44.417 C187.848,43.006 213.974,43.06 227.676,59.065 C231.857,63.95 234.607,69.954 235.849,76.907 L235.849,76.907 Z M184.148,47.196 C197.602,62.91 216.214,73.625 235.267,76.638 C234.012,69.931 231.326,64.135 227.277,59.405 C214.018,43.916 188.976,43.541 182.201,44.841 C182.834,45.633 183.487,46.425 184.148,47.196 L184.148,47.196 Z" id="Fill-37" fill="#414140" sketch:type="MSShapeGroup"></path>
            <path d="M235.849,76.907 L235.913,77.268 L235.55,77.211 C216.25,74.26 197.369,63.444 183.751,47.537 C182.994,46.652 182.246,45.743 181.529,44.834 L181.272,44.509 L181.677,44.417 C187.848,43.006 213.974,43.06 227.676,59.065 C231.857,63.95 234.607,69.954 235.849,76.907 L235.849,76.907 Z M184.148,47.196 C197.602,62.91 216.214,73.625 235.267,76.638 C234.012,69.931 231.326,64.135 227.277,59.405 C214.018,43.916 188.976,43.541 182.201,44.841 C182.834,45.633 183.487,46.425 184.148,47.196 L184.148,47.196 Z" id="Stroke-38" stroke="#989998" sketch:type="MSShapeGroup"></path>
            <path d="M235.591,76.953 C232.121,57.505 213.889,44.694 210,55.16 C210,55.16 198.08,40.931 181.734,44.672 C189.575,58.924 189.125,78.929 190.523,83.243 C190.523,83.243 215.541,76.654 235.591,76.953 L235.591,76.953 Z" id="Fill-39" fill="#EFF2EF" sketch:type="MSShapeGroup"></path>
            <path d="M235.591,76.953 C232.121,57.505 213.889,44.694 210,55.16 C210,55.16 198.08,40.931 181.734,44.672 C189.575,58.924 189.125,78.929 190.523,83.243 C190.523,83.243 215.541,76.654 235.591,76.953 L235.591,76.953 Z" id="Stroke-40" stroke="#989998" sketch:type="MSShapeGroup"></path>
            <path d="M235.849,76.907 L235.904,77.22 L235.586,77.215 C215.804,76.92 190.84,83.43 190.59,83.497 L190.351,83.56 L190.273,83.323 C189.875,82.092 189.636,79.726 189.303,76.451 C188.49,68.437 187.131,55.024 181.505,44.797 L181.338,44.494 L181.677,44.417 C196.618,40.997 207.945,52.509 209.915,54.669 C210.742,52.752 212.134,51.572 213.964,51.245 C217.684,50.583 222.777,53.425 227.261,58.661 C231.604,63.734 234.653,70.214 235.849,76.907 L235.849,76.907 Z M209.777,55.302 C209.291,54.732 197.751,41.503 182.131,44.853 C187.667,55.131 189.016,68.423 189.824,76.398 C190.121,79.324 190.359,81.673 190.701,82.926 C193.338,82.252 216.53,76.477 235.274,76.687 C234.06,70.195 231.08,63.925 226.862,59.001 C222.568,53.982 217.54,51.141 214.056,51.761 C212.269,52.079 210.988,53.253 210.244,55.251 L210.067,55.639 L209.777,55.302 L209.777,55.302 Z" id="Fill-41" fill="#EFF2EF" sketch:type="MSShapeGroup"></path>
            <path d="M235.849,76.907 L235.904,77.22 L235.586,77.215 C215.804,76.92 190.84,83.43 190.59,83.497 L190.351,83.56 L190.273,83.323 C189.875,82.092 189.636,79.726 189.303,76.451 C188.49,68.437 187.131,55.024 181.505,44.797 L181.338,44.494 L181.677,44.417 C196.618,40.997 207.945,52.509 209.915,54.669 C210.742,52.752 212.134,51.572 213.964,51.245 C217.684,50.583 222.777,53.425 227.261,58.661 C231.604,63.734 234.653,70.214 235.849,76.907 L235.849,76.907 Z M209.777,55.302 C209.291,54.732 197.751,41.503 182.131,44.853 C187.667,55.131 189.016,68.423 189.824,76.398 C190.121,79.324 190.359,81.673 190.701,82.926 C193.338,82.252 216.53,76.477 235.274,76.687 C234.06,70.195 231.08,63.925 226.862,59.001 C222.568,53.982 217.54,51.141 214.056,51.761 C212.269,52.079 210.988,53.253 210.244,55.251 L210.067,55.639 L209.777,55.302 L209.777,55.302 Z" id="Stroke-42" stroke="#989998" sketch:type="MSShapeGroup"></path>
            <path d="M223.999,142.983 C257.333,131.909 250.635,91.328 248.206,85.048 C233.158,100.925 224.155,122.483 223.999,142.983 L223.999,142.983 Z" id="Fill-43" fill="#C4C5C4" sketch:type="MSShapeGroup"></path>
            <path d="M223.999,142.983 C257.333,131.909 250.635,91.328 248.206,85.048 C233.158,100.925 224.155,122.483 223.999,142.983 L223.999,142.983 Z" id="Stroke-44" stroke="#989998" sketch:type="MSShapeGroup"></path>
            <path d="M224.083,143.233 L223.735,143.348 L223.738,142.981 C223.885,123.457 231.875,103.219 245.661,87.456 C246.427,86.58 247.219,85.709 248.016,84.869 L248.3,84.568 L248.45,84.954 C250.733,90.858 254.435,116.721 240.565,132.58 C236.331,137.421 230.785,141.006 224.083,143.233 L224.083,143.233 Z M246.055,87.8 C232.437,103.371 224.508,123.33 224.265,142.618 C230.723,140.412 236.071,136.921 240.171,132.235 C253.593,116.886 250.366,92.051 248.106,85.536 C247.411,86.275 246.724,87.035 246.055,87.8 L246.055,87.8 Z" id="Fill-45" fill="#414140" sketch:type="MSShapeGroup"></path>
            <path d="M224.083,143.233 L223.735,143.348 L223.738,142.981 C223.885,123.457 231.875,103.219 245.661,87.456 C246.427,86.58 247.219,85.709 248.016,84.869 L248.3,84.568 L248.45,84.954 C250.733,90.858 254.435,116.721 240.565,132.58 C236.331,137.421 230.785,141.006 224.083,143.233 L224.083,143.233 Z M246.055,87.8 C232.437,103.371 224.508,123.33 224.265,142.618 C230.723,140.412 236.071,136.921 240.171,132.235 C253.593,116.886 250.366,92.051 248.106,85.536 C247.411,86.275 246.724,87.035 246.055,87.8 L246.055,87.8 Z" id="Stroke-46" stroke="#989998" sketch:type="MSShapeGroup"></path>
            <path d="M223.999,142.983 C242.747,136.756 252.805,116.871 241.888,114.528 C241.888,114.528 254.257,100.687 248.206,85.048 C235.228,94.855 215.367,97.286 211.299,99.289 C211.299,99.289 221.413,123.101 223.999,142.983 L223.999,142.983 Z" id="Fill-47" fill="#EFF2EF" sketch:type="MSShapeGroup"></path>
            <path d="M223.999,142.983 C242.747,136.756 252.805,116.871 241.888,114.528 C241.888,114.528 254.257,100.687 248.206,85.048 C235.228,94.855 215.367,97.286 211.299,99.289 C211.299,99.289 221.413,123.101 223.999,142.983 L223.999,142.983 Z" id="Stroke-48" stroke="#989998" sketch:type="MSShapeGroup"></path>
            <path d="M224.083,143.233 L223.781,143.333 L223.74,143.018 C221.189,123.398 211.159,99.628 211.057,99.391 L210.961,99.163 L211.182,99.054 C212.343,98.482 214.65,97.905 217.844,97.106 C225.659,95.149 238.736,91.876 248.047,84.839 L248.324,84.63 L248.45,84.954 C253.981,99.249 244.217,112.115 242.362,114.374 C244.377,114.915 245.747,116.124 246.332,117.887 C247.521,121.473 245.441,126.924 240.904,132.112 C236.508,137.14 230.534,141.089 224.083,143.233 L224.083,143.233 Z M241.718,114.328 C242.211,113.764 253.643,100.444 248.085,85.466 C238.707,92.422 225.747,95.667 217.971,97.613 C215.117,98.328 212.826,98.9 211.637,99.419 C212.682,101.933 221.731,124.054 224.218,142.634 C230.467,140.499 236.243,136.649 240.511,131.768 C244.861,126.795 246.95,121.412 245.835,118.052 C245.265,116.331 243.918,115.231 241.834,114.783 L241.424,114.663 L241.718,114.328 L241.718,114.328 Z" id="Fill-49" fill="#EFF2EF" sketch:type="MSShapeGroup"></path>
            <path d="M224.083,143.233 L223.781,143.333 L223.74,143.018 C221.189,123.398 211.159,99.628 211.057,99.391 L210.961,99.163 L211.182,99.054 C212.343,98.482 214.65,97.905 217.844,97.106 C225.659,95.149 238.736,91.876 248.047,84.839 L248.324,84.63 L248.45,84.954 C253.981,99.249 244.217,112.115 242.362,114.374 C244.377,114.915 245.747,116.124 246.332,117.887 C247.521,121.473 245.441,126.924 240.904,132.112 C236.508,137.14 230.534,141.089 224.083,143.233 L224.083,143.233 Z M241.718,114.328 C242.211,113.764 253.643,100.444 248.085,85.466 C238.707,92.422 225.747,95.667 217.971,97.613 C215.117,98.328 212.826,98.9 211.637,99.419 C212.682,101.933 221.731,124.054 224.218,142.634 C230.467,140.499 236.243,136.649 240.511,131.768 C244.861,126.795 246.95,121.412 245.835,118.052 C245.265,116.331 243.918,115.231 241.834,114.783 L241.424,114.663 L241.718,114.328 L241.718,114.328 Z" id="Stroke-50" stroke="#989998" sketch:type="MSShapeGroup"></path>
            <path d="M21.232,67.706 C1.761,88.111 35.672,107.449 42.054,109.842 C43.222,94.676 35.47,78.998 21.232,67.706 L21.232,67.706 Z" id="Fill-51" fill="#C4C5C4" sketch:type="MSShapeGroup"></path>
            <path d="M21.232,67.706 C1.761,88.111 35.672,107.449 42.054,109.842 C43.222,94.676 35.47,78.998 21.232,67.706 L21.232,67.706 Z" id="Stroke-52" stroke="#989998" sketch:type="MSShapeGroup"></path>
            <path d="M20.989,67.606 L21.191,67.393 L21.447,67.595 C35.008,78.349 42.663,92.867 42.448,107.429 C42.435,108.238 42.398,109.056 42.336,109.858 L42.313,110.146 L41.921,109.999 C35.919,107.748 14.773,95.18 14.989,80.529 C15.056,76.058 17.075,71.709 20.989,67.606 L20.989,67.606 Z M41.885,107.41 C42.097,93.025 34.588,78.686 21.271,68.021 C17.54,72.006 15.617,76.219 15.553,80.548 C15.343,94.727 35.383,106.937 41.795,109.532 C41.844,108.829 41.874,108.116 41.885,107.41 L41.885,107.41 Z" id="Fill-53" fill="#414140" sketch:type="MSShapeGroup"></path>
            <path d="M20.989,67.606 L21.191,67.393 L21.447,67.595 C35.008,78.349 42.663,92.867 42.448,107.429 C42.435,108.238 42.398,109.056 42.336,109.858 L42.313,110.146 L41.921,109.999 C35.919,107.748 14.773,95.18 14.989,80.529 C15.056,76.058 17.075,71.709 20.989,67.606 L20.989,67.606 Z M41.885,107.41 C42.097,93.025 34.588,78.686 21.271,68.021 C17.54,72.006 15.617,76.219 15.553,80.548 C15.343,94.727 35.383,106.937 41.795,109.532 C41.844,108.829 41.874,108.116 41.885,107.41 L41.885,107.41 Z" id="Stroke-54" stroke="#989998" sketch:type="MSShapeGroup"></path>
            <path d="M21.232,67.706 C10.281,79.182 16.001,94.398 26.56,90.984 C26.56,90.984 26.155,103.883 42.054,109.842 C45.785,98.888 60.305,89.014 62.226,86.166 C62.226,86.165 37.277,77.481 21.232,67.706 L21.232,67.706 Z" id="Fill-55" fill="#EFF2EF" sketch:type="MSShapeGroup"></path>
            <path d="M21.232,67.706 C10.281,79.182 16.001,94.398 26.56,90.984 C26.56,90.984 26.155,103.883 42.054,109.842 C45.785,98.888 60.305,89.014 62.226,86.166 C62.226,86.165 37.277,77.481 21.232,67.706 L21.232,67.706 Z" id="Stroke-56" stroke="#989998" sketch:type="MSShapeGroup"></path>
            <path d="M20.989,67.606 L21.166,67.421 L21.42,67.576 C37.253,77.22 62.101,85.919 62.35,86.006 L62.588,86.089 L62.484,86.245 C61.937,87.058 60.456,88.366 58.408,90.177 C53.394,94.61 45.006,102.029 42.33,109.889 L42.251,110.122 L41.921,109.999 C27.386,104.552 26.346,93.307 26.281,91.272 C24.252,91.842 22.29,91.769 20.574,91.055 C17.09,89.604 14.968,85.725 15.042,80.933 C15.109,76.288 17.223,71.555 20.989,67.606 L20.989,67.606 Z M26.84,91.019 C26.832,91.54 26.825,103.752 41.861,109.56 C44.646,101.718 52.962,94.365 57.949,89.954 C59.777,88.336 61.248,87.036 61.856,86.24 C59.241,85.314 36.349,77.096 21.299,67.991 C17.69,71.85 15.669,76.443 15.602,80.951 C15.535,85.545 17.6,89.392 20.865,90.752 C22.537,91.449 24.408,91.471 26.423,90.82 L26.843,90.709 L26.84,91.019 L26.84,91.019 Z" id="Fill-57" fill="#EFF2EF" sketch:type="MSShapeGroup"></path>
            <path d="M20.989,67.606 L21.166,67.421 L21.42,67.576 C37.253,77.22 62.101,85.919 62.35,86.006 L62.588,86.089 L62.484,86.245 C61.937,87.058 60.456,88.366 58.408,90.177 C53.394,94.61 45.006,102.029 42.33,109.889 L42.251,110.122 L41.921,109.999 C27.386,104.552 26.346,93.307 26.281,91.272 C24.252,91.842 22.29,91.769 20.574,91.055 C17.09,89.604 14.968,85.725 15.042,80.933 C15.109,76.288 17.223,71.555 20.989,67.606 L20.989,67.606 Z M26.84,91.019 C26.832,91.54 26.825,103.752 41.861,109.56 C44.646,101.718 52.962,94.365 57.949,89.954 C59.777,88.336 61.248,87.036 61.856,86.24 C59.241,85.314 36.349,77.096 21.299,67.991 C17.69,71.85 15.669,76.443 15.602,80.951 C15.535,85.545 17.6,89.392 20.865,90.752 C22.537,91.449 24.408,91.471 26.423,90.82 L26.843,90.709 L26.84,91.019 L26.84,91.019 Z" id="Stroke-58" stroke="#989998" sketch:type="MSShapeGroup"></path>
            <path d="M183.981,72.891 C174.748,76.088 165.947,80.095 157.334,84.972 C153.203,69.684 149.07,54.397 144.95,39.106 C153.299,33.297 161.893,28.345 170.944,24.172 C175.287,40.412 179.637,56.65 183.981,72.891 L183.981,72.891 Z" id="Fill-59" fill="#EFF2EF" sketch:type="MSShapeGroup"></path>
            <path d="M183.981,72.891 C174.748,76.088 165.947,80.095 157.334,84.972 C153.203,69.684 149.07,54.397 144.95,39.106 C153.299,33.297 161.893,28.345 170.944,24.172 C175.287,40.412 179.637,56.65 183.981,72.891 L183.981,72.891 Z" id="Stroke-60" stroke="#989998" sketch:type="MSShapeGroup"></path>
            <path d="M157.17,85.366 L154.256,74.584 C151.066,62.781 147.879,50.979 144.697,39.174 L144.65,38.997 L144.801,38.892 C153.272,32.999 161.786,28.105 170.834,23.934 L171.116,23.804 L171.197,24.105 C173.7,33.466 176.207,42.828 178.712,52.19 L184.297,73.059 L184.066,73.138 C174.881,76.319 166.18,80.264 157.463,85.2 L157.17,85.366 L157.17,85.366 Z M145.251,39.216 C148.416,50.961 151.588,62.704 154.762,74.447 L157.498,84.579 C166.072,79.745 174.637,75.865 183.664,72.723 L178.206,52.325 C175.728,43.064 173.248,33.802 170.772,24.54 C161.911,28.645 153.558,33.448 145.251,39.216 L145.251,39.216 Z" id="Fill-61" fill="#EFF2EF" sketch:type="MSShapeGroup"></path>
            <path d="M157.17,85.366 L154.256,74.584 C151.066,62.781 147.879,50.979 144.697,39.174 L144.65,38.997 L144.801,38.892 C153.272,32.999 161.786,28.105 170.834,23.934 L171.116,23.804 L171.197,24.105 C173.7,33.466 176.207,42.828 178.712,52.19 L184.297,73.059 L184.066,73.138 C174.881,76.319 166.18,80.264 157.463,85.2 L157.17,85.366 L157.17,85.366 Z M145.251,39.216 C148.416,50.961 151.588,62.704 154.762,74.447 L157.498,84.579 C166.072,79.745 174.637,75.865 183.664,72.723 L178.206,52.325 C175.728,43.064 173.248,33.802 170.772,24.54 C161.911,28.645 153.558,33.448 145.251,39.216 L145.251,39.216 Z" id="Stroke-62" stroke="#989998" sketch:type="MSShapeGroup"></path>
            <path d="M322.101,136.899 C309.446,144.338 297.494,152.495 285.949,161.516 C278.149,146.671 270.344,131.831 262.556,116.981 C273.607,107.055 285.147,97.959 297.419,89.542 C305.64,105.33 313.872,121.113 322.101,136.899 L322.101,136.899 Z" id="Fill-63" fill="#EFF2EF" sketch:type="MSShapeGroup"></path>
            <path d="M322.101,136.899 C309.446,144.338 297.494,152.495 285.949,161.516 C278.149,146.671 270.344,131.831 262.556,116.981 C273.607,107.055 285.147,97.959 297.419,89.542 C305.64,105.33 313.872,121.113 322.101,136.899 L322.101,136.899 Z" id="Stroke-64" stroke="#989998" sketch:type="MSShapeGroup"></path>
            <path d="M285.863,161.915 L279.478,149.766 C273.757,138.879 268.035,127.993 262.323,117.102 L262.229,116.921 L262.381,116.786 C273.572,106.735 284.984,97.753 297.271,89.326 L297.515,89.159 L297.65,89.42 C303.579,100.807 309.516,112.191 315.451,123.576 L322.448,136.999 L322.233,137.125 C309.615,144.542 297.8,152.588 286.109,161.722 L285.863,161.915 L285.863,161.915 Z M262.881,117.039 C268.562,127.87 274.251,138.696 279.941,149.523 L286.035,161.117 C297.597,152.1 309.286,144.142 321.754,136.799 L314.986,123.818 C309.097,112.521 303.206,101.224 297.323,89.924 C285.204,98.252 273.934,107.126 262.881,117.039 L262.881,117.039 Z" id="Fill-65" fill="#EFF2EF" sketch:type="MSShapeGroup"></path>
            <path d="M285.863,161.915 L279.478,149.766 C273.757,138.879 268.035,127.993 262.323,117.102 L262.229,116.921 L262.381,116.786 C273.572,106.735 284.984,97.753 297.271,89.326 L297.515,89.159 L297.65,89.42 C303.579,100.807 309.516,112.191 315.451,123.576 L322.448,136.999 L322.233,137.125 C309.615,144.542 297.8,152.588 286.109,161.722 L285.863,161.915 L285.863,161.915 Z M262.881,117.039 C268.562,127.87 274.251,138.696 279.941,149.523 L286.035,161.117 C297.597,152.1 309.286,144.142 321.754,136.799 L314.986,123.818 C309.097,112.521 303.206,101.224 297.323,89.924 C285.204,98.252 273.934,107.126 262.881,117.039 L262.881,117.039 Z" id="Stroke-66" stroke="#989998" sketch:type="MSShapeGroup"></path>
            <path d="M283.113,75.954 C267.545,71.674 251.907,68.47 235.923,66.203 C242.036,49.484 248.138,32.761 254.262,16.045 C270.609,17.273 286.697,19.48 302.761,22.763 C296.203,40.49 289.659,58.222 283.113,75.954 L283.113,75.954 Z" id="Fill-67" fill="#EFF2EF" sketch:type="MSShapeGroup"></path>
            <path d="M283.113,75.954 C267.545,71.674 251.907,68.47 235.923,66.203 C242.036,49.484 248.138,32.761 254.262,16.045 C270.609,17.273 286.697,19.48 302.761,22.763 C296.203,40.49 289.659,58.222 283.113,75.954 L283.113,75.954 Z" id="Stroke-68" stroke="#989998" stroke-width="1.7" sketch:type="MSShapeGroup"></path>
            <path d="M242.464,173.967 C212.184,191.769 186.046,160.01 182.918,154.048 C204.774,153.173 226.93,160.587 242.464,173.967 L242.464,173.967 Z" id="Fill-69" fill="#C4C5C4" sketch:type="MSShapeGroup"></path>
            <path d="M242.464,173.967 C212.184,191.769 186.046,160.01 182.918,154.048 C204.774,153.173 226.93,160.587 242.464,173.967 L242.464,173.967 Z" id="Stroke-70" stroke="#989998" sketch:type="MSShapeGroup"></path>
            <path d="M223.727,179.587 C202.659,179.587 185.628,159.775 182.685,154.169 L182.494,153.803 L182.908,153.787 C184.064,153.74 185.24,153.717 186.405,153.717 C207.346,153.717 227.84,161.025 242.634,173.769 L242.911,174.007 L242.596,174.192 C236.508,177.772 230.158,179.587 223.727,179.587 L223.727,179.587 Z M183.35,154.294 C186.768,160.284 203.337,179.064 223.727,179.064 C229.953,179.064 236.102,177.335 242.014,173.926 C227.335,161.411 207.091,154.24 186.405,154.24 C185.389,154.24 184.363,154.258 183.35,154.294 L183.35,154.294 Z" id="Fill-71" fill="#414140" sketch:type="MSShapeGroup"></path>
            <path d="M223.727,179.587 C202.659,179.587 185.628,159.775 182.685,154.169 L182.494,153.803 L182.908,153.787 C184.064,153.74 185.24,153.717 186.405,153.717 C207.346,153.717 227.84,161.025 242.634,173.769 L242.911,174.007 L242.596,174.192 C236.508,177.772 230.158,179.587 223.727,179.587 L223.727,179.587 Z M183.35,154.294 C186.768,160.284 203.337,179.064 223.727,179.064 C229.953,179.064 236.102,177.335 242.014,173.926 C227.335,161.411 207.091,154.24 186.405,154.24 C185.389,154.24 184.363,154.258 183.35,154.294 L183.35,154.294 Z" id="Stroke-72" stroke="#989998" sketch:type="MSShapeGroup"></path>
            <path d="M242.464,173.967 C225.435,183.979 203.845,178.458 209.267,168.699 C209.267,168.699 190.705,168.898 182.918,154.048 C198.844,150.734 213.746,137.385 217.934,135.641 C217.934,135.641 229.198,158.93 242.464,173.967 L242.464,173.967 Z" id="Fill-73" fill="#EFF2EF" sketch:type="MSShapeGroup"></path>
            <path d="M242.464,173.967 C225.435,183.979 203.845,178.458 209.267,168.699 C209.267,168.699 190.705,168.898 182.918,154.048 C198.844,150.734 213.746,137.385 217.934,135.641 C217.934,135.641 229.198,158.93 242.464,173.967 L242.464,173.967 Z" id="Stroke-74" stroke="#989998" sketch:type="MSShapeGroup"></path>
            <path d="M223.15,179.535 C216.259,179.535 210.787,177.512 208.871,174.256 C207.929,172.654 207.92,170.828 208.84,168.954 C205.918,168.863 189.805,167.744 182.685,154.169 L182.524,153.862 L182.864,153.792 C194.29,151.415 205.363,143.725 211.981,139.131 C214.685,137.253 216.639,135.897 217.833,135.399 L218.061,135.304 L218.169,135.526 C218.281,135.759 229.571,158.957 242.659,173.794 L242.869,174.032 L242.596,174.192 C236.735,177.638 229.83,179.535 223.15,179.535 L223.15,179.535 Z M209.674,168.439 L209.495,168.827 C208.461,170.69 208.401,172.427 209.321,173.99 C211.117,177.04 216.545,179.012 223.15,179.012 C229.635,179.012 236.335,177.198 242.057,173.9 C229.707,159.797 219.013,138.423 217.809,135.982 C216.635,136.536 214.695,137.883 212.279,139.561 C205.695,144.132 194.721,151.753 183.313,154.232 C190.927,168.275 208.48,168.439 209.229,168.439 L209.674,168.439 L209.674,168.439 Z" id="Fill-75" fill="#EFF2EF" sketch:type="MSShapeGroup"></path>
            <path d="M223.15,179.535 C216.259,179.535 210.787,177.512 208.871,174.256 C207.929,172.654 207.92,170.828 208.84,168.954 C205.918,168.863 189.805,167.744 182.685,154.169 L182.524,153.862 L182.864,153.792 C194.29,151.415 205.363,143.725 211.981,139.131 C214.685,137.253 216.639,135.897 217.833,135.399 L218.061,135.304 L218.169,135.526 C218.281,135.759 229.571,158.957 242.659,173.794 L242.869,174.032 L242.596,174.192 C236.735,177.638 229.83,179.535 223.15,179.535 L223.15,179.535 Z M209.674,168.439 L209.495,168.827 C208.461,170.69 208.401,172.427 209.321,173.99 C211.117,177.04 216.545,179.012 223.15,179.012 C229.635,179.012 236.335,177.198 242.057,173.9 C229.707,159.797 219.013,138.423 217.809,135.982 C216.635,136.536 214.695,137.883 212.279,139.561 C205.695,144.132 194.721,151.753 183.313,154.232 C190.927,168.275 208.48,168.439 209.229,168.439 L209.674,168.439 L209.674,168.439 Z" id="Stroke-76" stroke="#989998" sketch:type="MSShapeGroup"></path>
            <path d="M45.254,132.807 C59.297,157.267 21.754,167.96 14.984,168.763 C17.468,153.756 28.734,140.378 45.254,132.807 L45.254,132.807 Z" id="Fill-77" fill="#C4C5C4" sketch:type="MSShapeGroup"></path>
            <path d="M45.254,132.807 C59.297,157.267 21.754,167.96 14.984,168.763 C17.468,153.756 28.734,140.378 45.254,132.807 L45.254,132.807 Z" id="Stroke-78" stroke="#989998" sketch:type="MSShapeGroup"></path>
            <path d="M48.257,146.749 C44.975,161.029 21.442,168.192 15.076,168.946 L14.66,168.996 L14.707,168.712 C14.838,167.917 14.997,167.114 15.179,166.325 C18.441,152.133 29.336,139.857 45.071,132.648 L45.367,132.513 L45.513,132.768 C48.337,137.686 49.259,142.391 48.257,146.749 L48.257,146.749 Z M15.31,168.523 C22.156,167.531 44.529,160.453 47.706,146.633 C48.676,142.414 47.813,137.864 45.141,133.104 C29.664,140.285 18.953,152.42 15.73,166.441 C15.572,167.13 15.431,167.829 15.31,168.523 L15.31,168.523 Z" id="Fill-79" fill="#414140" sketch:type="MSShapeGroup"></path>
            <path d="M48.257,146.749 C44.975,161.029 21.442,168.192 15.076,168.946 L14.66,168.996 L14.707,168.712 C14.838,167.917 14.997,167.114 15.179,166.325 C18.441,152.133 29.336,139.857 45.071,132.648 L45.367,132.513 L45.513,132.768 C48.337,137.686 49.259,142.391 48.257,146.749 L48.257,146.749 Z M15.31,168.523 C22.156,167.531 44.529,160.453 47.706,146.633 C48.676,142.414 47.813,137.864 45.141,133.104 C29.664,140.285 18.953,152.42 15.73,166.441 C15.572,167.13 15.431,167.829 15.31,168.523 L15.31,168.523 Z" id="Stroke-80" stroke="#989998" sketch:type="MSShapeGroup"></path>
            <path d="M45.254,132.807 C53.151,146.563 43.97,159.976 34.53,154.143 C34.53,154.143 31.847,166.767 14.984,168.763 C13.973,157.235 2.227,144.184 1.042,140.96 C1.041,140.959 27.34,138.474 45.254,132.807 L45.254,132.807 Z" id="Fill-81" fill="#EFF2EF" sketch:type="MSShapeGroup"></path>
            <path d="M45.254,132.807 C53.151,146.563 43.97,159.976 34.53,154.143 C34.53,154.143 31.847,166.767 14.984,168.763 C13.973,157.235 2.227,144.184 1.042,140.96 C1.041,140.959 27.34,138.474 45.254,132.807 L45.254,132.807 Z" id="Stroke-82" stroke="#989998" sketch:type="MSShapeGroup"></path>
            <path d="M48.112,147.128 C47.039,151.8 44.055,155.062 40.325,155.64 C38.489,155.924 36.564,155.527 34.731,154.489 C34.182,156.45 30.491,167.123 15.076,168.946 L14.727,168.988 L14.706,168.743 C13.981,160.472 7.604,151.266 3.792,145.766 C2.235,143.518 1.109,141.895 0.771,140.975 L0.706,140.798 L0.957,140.775 C1.221,140.75 27.426,138.227 45.102,132.636 L45.385,132.546 L45.513,132.768 C48.23,137.502 49.154,142.602 48.112,147.128 L48.112,147.128 Z M34.319,153.809 L34.7,154.017 C36.502,155.129 38.324,155.554 40.114,155.276 C43.609,154.733 46.532,151.49 47.562,147.013 C48.572,142.618 47.705,137.676 45.121,133.068 C28.333,138.321 4.142,140.844 1.381,141.12 C1.783,142.038 2.9,143.651 4.291,145.659 C8.083,151.132 14.404,160.255 15.24,168.536 C31.227,166.479 34.132,154.618 34.249,154.111 L34.319,153.809 L34.319,153.809 Z" id="Fill-83" fill="#EFF2EF" sketch:type="MSShapeGroup"></path>
            <path d="M48.112,147.128 C47.039,151.8 44.055,155.062 40.325,155.64 C38.489,155.924 36.564,155.527 34.731,154.489 C34.182,156.45 30.491,167.123 15.076,168.946 L14.727,168.988 L14.706,168.743 C13.981,160.472 7.604,151.266 3.792,145.766 C2.235,143.518 1.109,141.895 0.771,140.975 L0.706,140.798 L0.957,140.775 C1.221,140.75 27.426,138.227 45.102,132.636 L45.385,132.546 L45.513,132.768 C48.23,137.502 49.154,142.602 48.112,147.128 L48.112,147.128 Z M34.319,153.809 L34.7,154.017 C36.502,155.129 38.324,155.554 40.114,155.276 C43.609,154.733 46.532,151.49 47.562,147.013 C48.572,142.618 47.705,137.676 45.121,133.068 C28.333,138.321 4.142,140.844 1.381,141.12 C1.783,142.038 2.9,143.651 4.291,145.659 C8.083,151.132 14.404,160.255 15.24,168.536 C31.227,166.479 34.132,154.618 34.249,154.111 L34.319,153.809 L34.319,153.809 Z" id="Stroke-84" stroke="#989998" sketch:type="MSShapeGroup"></path>
            <path d="M366.603,104.235 C380.646,128.695 343.102,139.388 336.333,140.19 C338.816,125.184 350.083,111.806 366.603,104.235 L366.603,104.235 Z" id="Fill-85" fill="#C4C5C4" sketch:type="MSShapeGroup"></path>
            <path d="M366.603,104.235 C380.646,128.695 343.102,139.388 336.333,140.19 C338.816,125.184 350.083,111.806 366.603,104.235 L366.603,104.235 Z" id="Stroke-86" stroke="#989998" sketch:type="MSShapeGroup"></path>
            <path d="M369.606,118.177 C366.323,132.457 342.79,139.62 336.425,140.374 L336.008,140.424 L336.056,140.14 C336.186,139.345 336.346,138.542 336.527,137.753 C339.79,123.561 350.686,111.286 366.42,104.076 L366.715,103.941 L366.861,104.196 C369.685,109.114 370.608,113.819 369.606,118.177 L369.606,118.177 Z M336.658,139.952 C343.505,138.96 365.878,131.881 369.056,118.062 C370.025,113.842 369.162,109.292 366.489,104.532 C351.013,111.713 340.302,123.849 337.078,137.87 C336.921,138.558 336.779,139.257 336.658,139.952 L336.658,139.952 Z" id="Fill-87" fill="#414140" sketch:type="MSShapeGroup"></path>
            <path d="M369.606,118.177 C366.323,132.457 342.79,139.62 336.425,140.374 L336.008,140.424 L336.056,140.14 C336.186,139.345 336.346,138.542 336.527,137.753 C339.79,123.561 350.686,111.286 366.42,104.076 L366.715,103.941 L366.861,104.196 C369.685,109.114 370.608,113.819 369.606,118.177 L369.606,118.177 Z M336.658,139.952 C343.505,138.96 365.878,131.881 369.056,118.062 C370.025,113.842 369.162,109.292 366.489,104.532 C351.013,111.713 340.302,123.849 337.078,137.87 C336.921,138.558 336.779,139.257 336.658,139.952 L336.658,139.952 Z" id="Stroke-88" stroke="#989998" sketch:type="MSShapeGroup"></path>
            <path d="M366.603,104.235 C374.5,117.991 365.319,131.404 355.879,125.571 C355.879,125.571 353.196,138.195 336.333,140.19 C335.322,128.664 323.576,115.611 322.391,112.388 C322.391,112.388 348.689,109.902 366.603,104.235 L366.603,104.235 Z" id="Fill-89" fill="#EFF2EF" sketch:type="MSShapeGroup"></path>
            <path d="M366.603,104.235 C374.5,117.991 365.319,131.404 355.879,125.571 C355.879,125.571 353.196,138.195 336.333,140.19 C335.322,128.664 323.576,115.611 322.391,112.388 C322.391,112.388 348.689,109.902 366.603,104.235 L366.603,104.235 Z" id="Stroke-90" stroke="#989998" sketch:type="MSShapeGroup"></path>
            <path d="M369.461,118.557 C368.388,123.228 365.403,126.49 361.674,127.068 C359.838,127.352 357.913,126.955 356.08,125.917 C355.53,127.878 351.84,138.551 336.425,140.374 L336.076,140.416 L336.055,140.17 C335.33,131.9 328.952,122.694 325.141,117.194 C323.583,114.946 322.458,113.323 322.12,112.403 L322.055,112.227 L322.306,112.203 C322.569,112.178 348.774,109.655 366.45,104.064 L366.734,103.975 L366.861,104.196 C369.579,108.93 370.502,114.029 369.461,118.557 L369.461,118.557 Z M355.668,125.237 L356.049,125.444 C357.852,126.558 359.673,126.982 361.463,126.704 C364.958,126.161 367.881,122.919 368.911,118.44 C369.921,114.046 369.054,109.104 366.47,104.496 C349.682,109.749 325.49,112.272 322.729,112.547 C323.132,113.466 324.249,115.079 325.64,117.086 C329.432,122.56 335.753,131.683 336.589,139.963 C352.575,137.908 355.481,126.046 355.599,125.539 L355.668,125.237 L355.668,125.237 Z" id="Fill-91" fill="#EFF2EF" sketch:type="MSShapeGroup"></path>
            <path d="M369.461,118.557 C368.388,123.228 365.403,126.49 361.674,127.068 C359.838,127.352 357.913,126.955 356.08,125.917 C355.53,127.878 351.84,138.551 336.425,140.374 L336.076,140.416 L336.055,140.17 C335.33,131.9 328.952,122.694 325.141,117.194 C323.583,114.946 322.458,113.323 322.12,112.403 L322.055,112.227 L322.306,112.203 C322.569,112.178 348.774,109.655 366.45,104.064 L366.734,103.975 L366.861,104.196 C369.579,108.93 370.502,114.029 369.461,118.557 L369.461,118.557 Z M355.668,125.237 L356.049,125.444 C357.852,126.558 359.673,126.982 361.463,126.704 C364.958,126.161 367.881,122.919 368.911,118.44 C369.921,114.046 369.054,109.104 366.47,104.496 C349.682,109.749 325.49,112.272 322.729,112.547 C323.132,113.466 324.249,115.079 325.64,117.086 C329.432,122.56 335.753,131.683 336.589,139.963 C352.575,137.908 355.481,126.046 355.599,125.539 L355.668,125.237 L355.668,125.237 Z" id="Stroke-92" stroke="#989998" sketch:type="MSShapeGroup"></path>
            <path d="M117.73,49.11 C90.963,40.224 111.838,7.239 116.352,2.13 C124.497,14.977 125.006,32.459 117.73,49.11 L117.73,49.11 Z" id="Fill-93" fill="#C4C5C4" sketch:type="MSShapeGroup"></path>
            <path d="M117.73,49.11 C90.963,40.224 111.838,7.239 116.352,2.13 C124.497,14.977 125.006,32.459 117.73,49.11 L117.73,49.11 Z" id="Stroke-94" stroke="#989998" sketch:type="MSShapeGroup"></path>
            <path d="M106.202,40.714 C99.138,27.877 111.918,6.857 116.162,2.054 L116.439,1.74 L116.593,1.983 C117.025,2.663 117.441,3.368 117.832,4.077 C124.853,16.835 124.904,33.249 117.973,49.108 L117.843,49.405 L117.563,49.312 C112.181,47.526 108.358,44.632 106.202,40.714 L106.202,40.714 Z M116.269,2.525 C111.824,7.826 99.853,28.009 106.69,40.433 C108.778,44.226 112.453,47.044 117.617,48.814 C124.375,33.148 124.279,16.962 117.343,4.357 C117.002,3.74 116.642,3.124 116.269,2.525 L116.269,2.525 Z" id="Fill-95" fill="#414140" sketch:type="MSShapeGroup"></path>
            <path d="M106.202,40.714 C99.138,27.877 111.918,6.857 116.162,2.054 L116.439,1.74 L116.593,1.983 C117.025,2.663 117.441,3.368 117.832,4.077 C124.853,16.835 124.904,33.249 117.973,49.108 L117.843,49.405 L117.563,49.312 C112.181,47.526 108.358,44.632 106.202,40.714 L106.202,40.714 Z M116.269,2.525 C111.824,7.826 99.853,28.009 106.69,40.433 C108.778,44.226 112.453,47.044 117.617,48.814 C124.375,33.148 124.279,16.962 117.343,4.357 C117.002,3.74 116.642,3.124 116.269,2.525 L116.269,2.525 Z" id="Stroke-96" stroke="#989998" sketch:type="MSShapeGroup"></path>
            <path d="M117.73,49.11 C102.676,44.112 100.588,27.994 111.515,26.054 C111.515,26.054 105.104,14.853 116.352,2.13 C124.785,10.054 142.241,11.963 145.272,13.577 C145.272,13.577 127.315,32.951 117.73,49.11 L117.73,49.11 Z" id="Fill-97" fill="#EFF2EF" sketch:type="MSShapeGroup"></path>
            <path d="M117.73,49.11 C102.676,44.112 100.588,27.994 111.515,26.054 C111.515,26.054 105.104,14.853 116.352,2.13 C124.785,10.054 142.241,11.963 145.272,13.577 C145.272,13.577 127.315,32.951 117.73,49.11 L117.73,49.11 Z" id="Stroke-98" stroke="#989998" sketch:type="MSShapeGroup"></path>
            <path d="M106.058,40.334 C103.746,36.135 103.799,31.714 106.195,28.799 C107.375,27.363 109.075,26.378 111.134,25.93 C110.238,24.102 105.88,13.684 116.162,2.054 L116.394,1.791 L116.573,1.96 C122.624,7.646 133.512,10.262 140.019,11.825 C142.678,12.464 144.599,12.925 145.463,13.386 L145.63,13.474 L145.459,13.658 C145.278,13.852 127.416,33.192 117.957,49.136 L117.806,49.393 L117.563,49.312 C112.383,47.592 108.297,44.404 106.058,40.334 L106.058,40.334 Z M111.894,26.163 L111.472,26.262 C109.386,26.633 107.745,27.529 106.596,28.929 C104.35,31.663 104.33,36.028 106.545,40.054 C108.72,44.004 112.658,47.112 117.655,48.828 C126.677,33.726 143.038,15.729 144.913,13.684 C144.001,13.267 142.093,12.808 139.719,12.237 C133.244,10.682 122.452,8.089 116.313,2.47 C105.76,14.653 111.495,25.435 111.745,25.892 L111.894,26.163 L111.894,26.163 Z" id="Fill-99" fill="#EFF2EF" sketch:type="MSShapeGroup"></path>
            <path d="M106.058,40.334 C103.746,36.135 103.799,31.714 106.195,28.799 C107.375,27.363 109.075,26.378 111.134,25.93 C110.238,24.102 105.88,13.684 116.162,2.054 L116.394,1.791 L116.573,1.96 C122.624,7.646 133.512,10.262 140.019,11.825 C142.678,12.464 144.599,12.925 145.463,13.386 L145.63,13.474 L145.459,13.658 C145.278,13.852 127.416,33.192 117.957,49.136 L117.806,49.393 L117.563,49.312 C112.383,47.592 108.297,44.404 106.058,40.334 L106.058,40.334 Z M111.894,26.163 L111.472,26.262 C109.386,26.633 107.745,27.529 106.596,28.929 C104.35,31.663 104.33,36.028 106.545,40.054 C108.72,44.004 112.658,47.112 117.655,48.828 C126.677,33.726 143.038,15.729 144.913,13.684 C144.001,13.267 142.093,12.808 139.719,12.237 C133.244,10.682 122.452,8.089 116.313,2.47 C105.76,14.653 111.495,25.435 111.745,25.892 L111.894,26.163 L111.894,26.163 Z" id="Stroke-100" stroke="#989998" sketch:type="MSShapeGroup"></path>
        </g>
    </g>
</svg>