<?xml version="1.0" encoding="UTF-8" standalone="no"?>
<svg width="90px" height="93px" viewBox="0 0 90 93" version="1.1" xmlns="http://www.w3.org/2000/svg" xmlns:xlink="http://www.w3.org/1999/xlink" xmlns:sketch="http://www.bohemiancoding.com/sketch/ns">
    <!-- Generator: Sketch 3.3.3 (12081) - http://www.bohemiancoding.com/sketch -->
    <title>fiction</title>
    <desc>Created with Sketch.</desc>
    <defs></defs>
    <g id="Page-1" stroke="none" stroke-width="1" fill="none" fill-rule="evenodd" sketch:type="MSPage">
        <g id="fiction" sketch:type="MSLayerGroup" transform="translate(5.000000, 3.000000)" fill="#242831">
            <path d="M80.483,23.169 C80.483,23.166 80.483,23.163 80.482,23.16 C80.447,22.921 80.384,22.689 80.319,22.457 C80.279,22.311 80.239,22.167 80.208,22.019 C80.155,21.763 80.012,21.591 79.908,21.465 C79.877,21.429 79.831,21.37 79.827,21.385 C79.829,21.365 79.831,21.336 79.83,21.3 C79.824,21.192 79.786,21.027 79.616,20.914 L79.643,20.803 C79.686,20.624 79.643,20.476 79.597,20.372 C79.674,20.089 79.712,19.81 79.75,19.54 C79.771,19.382 79.793,19.226 79.823,19.07 C79.893,18.706 79.889,18.361 79.885,18.027 C79.882,17.814 79.878,17.602 79.899,17.391 C79.91,17.29 79.891,17.207 79.873,17.152 C79.859,16.992 79.816,16.85 79.781,16.733 C79.752,16.637 79.725,16.545 79.727,16.484 C79.738,16.221 79.588,16.042 79.537,15.981 C79.454,15.882 79.399,15.735 79.336,15.564 C79.266,15.372 79.187,15.159 79.046,14.957 C78.99,14.676 78.85,14.456 78.734,14.274 C78.652,14.145 78.581,14.034 78.56,13.938 L78.467,13.672 L78.282,13.561 C78.253,13.544 78.21,13.436 78.178,13.357 L78.138,13.262 C77.99,12.915 77.756,12.721 77.441,12.686 C77.441,12.685 77.441,12.685 77.44,12.685 C77.038,12.202 76.607,11.921 76.123,11.826 C75.953,11.793 75.847,11.718 75.717,11.54 C75.651,11.448 75.576,11.359 75.499,11.271 C75.394,11.148 75.285,11.021 75.258,10.932 C75.151,10.577 74.966,10.29 74.803,10.036 C74.75,9.955 74.699,9.875 74.65,9.794 C74.248,9.111 73.786,8.526 73.274,8.054 C72.883,7.695 72.495,7.416 72.12,7.226 C72.024,7.177 71.933,7.118 71.841,7.059 C71.629,6.923 71.393,6.773 71.094,6.694 C70.966,6.542 70.802,6.472 70.669,6.415 C70.475,6.321 70.284,6.284 70.115,6.251 C69.971,6.223 69.847,6.199 69.763,6.146 C69.668,6.087 69.558,6.057 69.437,6.057 L69.14,6.095 C69.048,6.095 68.935,6.069 68.814,6.042 C68.728,6.023 68.643,6.003 68.555,5.989 C68.36,5.958 68.168,5.934 67.974,5.923 C67.781,5.911 67.588,5.913 67.393,5.934 L66.837,5.982 C66.752,5.982 66.687,5.96 66.603,5.847 C66.5,5.708 66.241,5.357 65.767,5.305 C65.598,5.191 65.445,5.059 65.29,4.927 C65.111,4.774 64.931,4.623 64.689,4.456 C64.635,4.416 64.56,4.365 64.457,4.325 C64.354,4.285 64.224,4.255 64.059,4.258 C63.959,4.134 63.775,4.001 63.557,4.001 L63.451,4.013 C63.429,4.012 63.362,3.984 63.317,3.966 C63.226,3.93 63.134,3.895 63.038,3.873 L62.859,3.835 C62.64,3.789 62.433,3.746 62.285,3.665 C62.114,3.57 61.932,3.506 61.748,3.445 C61.568,3.385 61.413,3.333 61.296,3.244 C61.189,3.165 61.054,3.122 60.905,3.122 L60.748,3.135 C60.729,3.135 60.683,3.135 60.594,3.067 C60.426,2.938 60.234,2.872 60.025,2.872 L59.889,2.877 C59.781,2.877 59.755,2.855 59.735,2.838 C59.594,2.721 59.436,2.7 59.341,2.686 C59.19,2.657 59.036,2.637 58.882,2.617 C58.616,2.583 58.364,2.551 58.149,2.457 C57.921,2.359 57.616,2.401 57.445,2.442 C57.29,2.48 57.142,2.499 57.003,2.499 L56.887,2.494 C56.629,2.474 56.387,2.497 56.146,2.565 C55.999,2.607 55.911,2.582 55.873,2.548 C55.515,2.219 55.114,2.007 54.726,1.803 C54.574,1.723 54.421,1.643 54.274,1.556 C54.059,1.428 53.798,1.29 53.506,1.309 C53.503,1.309 53.501,1.308 53.498,1.308 L53.487,1.308 L53.381,1.263 C53.325,1.243 53.253,1.199 53.178,1.152 C53.016,1.051 52.815,0.926 52.54,0.888 C52.457,0.876 52.436,0.863 52.435,0.861 C52.293,0.674 52.069,0.566 51.819,0.566 L51.633,0.586 C51.428,0.632 51.192,0.572 50.897,0.483 C50.525,0.371 50.191,0.316 49.874,0.316 C49.673,0.316 49.477,0.339 49.197,0.406 C48.795,0.5 48.296,0.617 47.898,1.031 C47.784,1.151 47.668,1.234 47.563,1.273 C47.005,1.477 46.617,1.869 46.275,2.214 C46.193,2.297 46.111,2.38 46.027,2.46 L45.921,2.563 C45.72,2.76 45.623,2.849 45.45,2.866 C45.134,2.897 44.841,2.913 44.651,2.801 C44.498,2.708 44.344,2.699 44.261,2.698 C43.949,2.603 43.643,2.594 43.373,2.586 C43.204,2.581 43.035,2.579 42.868,2.548 L42.743,2.525 C42.121,2.409 41.46,2.29 40.771,2.366 L40.399,2.412 C40.09,2.452 39.78,2.493 39.467,2.493 C39.349,2.493 39.231,2.487 39.038,2.467 L39.037,2.467 C38.894,2.467 38.788,2.518 38.762,2.537 L38.487,2.609 C38.301,2.66 38.116,2.713 37.928,2.732 L37.65,2.756 C37.277,2.784 36.892,2.814 36.415,2.977 L36.273,2.968 C36.072,2.968 35.883,3.022 35.713,3.129 C35.674,3.153 35.633,3.167 35.523,3.159 C35.14,3.082 34.849,3.183 34.547,3.479 C34.198,3.204 33.819,3.161 33.49,3.142 L33.382,3.137 C33.1,3.124 32.935,3.111 32.818,3.009 C32.601,2.814 32.225,2.835 31.858,2.811 C31.704,2.799 31.55,2.789 31.395,2.787 C31.24,2.785 31.084,2.792 30.926,2.812 C30.249,2.904 29.633,3.145 29.042,3.551 C28.906,3.644 28.821,3.757 28.704,3.909 C28.655,3.959 28.586,3.97 28.521,3.974 C28.342,3.907 28.159,3.845 27.977,3.784 L27.607,3.658 C27.22,3.519 26.81,3.363 26.32,3.342 C26.156,3.335 25.984,3.343 25.801,3.371 C25.776,3.371 25.732,3.368 25.661,3.351 C25.014,3.193 24.404,3.294 24.052,3.589 L23.874,3.573 C23.548,3.573 23.303,3.724 23.149,3.835 C22.817,3.846 22.59,4.039 22.429,4.176 C22.109,4.443 21.842,4.582 21.414,4.555 L21.09,4.537 C20.337,4.493 19.561,4.474 18.941,4.577 C18.86,4.59 18.78,4.592 18.699,4.596 C18.487,4.605 18.223,4.616 17.935,4.746 C17.724,4.841 17.49,4.913 17.258,4.985 L17.085,5.039 C16.812,5.126 16.65,5.282 16.527,5.423 C16.4,5.568 16.257,5.7 16.115,5.833 C16.022,5.92 15.929,6.007 15.874,6.061 C15.777,6.103 15.519,6.213 15.431,6.525 C15.367,6.749 15.187,6.898 14.899,7.121 L14.771,7.221 C14.711,7.269 14.644,7.311 14.578,7.353 C14.452,7.433 14.31,7.523 14.188,7.647 C13.848,7.993 13.443,8.261 13.014,8.545 L12.781,8.7 C12.635,8.798 12.506,8.916 12.38,9.036 C12.25,9.159 12.138,9.265 12.011,9.321 C11.812,9.414 11.733,9.593 11.702,9.665 C11.627,9.84 11.489,9.997 11.33,10.178 C11.249,10.27 11.168,10.362 11.073,10.484 C10.829,10.795 10.504,11.209 10.571,11.781 C10.563,11.782 10.556,11.783 10.548,11.783 C10.312,11.794 10.035,11.833 9.821,11.998 C9.307,11.998 8.922,12.257 8.613,12.464 L8.464,12.563 C8.331,12.648 8.193,12.725 8.056,12.803 C7.915,12.881 7.776,12.96 7.638,13.047 C7.581,13.082 7.527,13.125 7.427,13.217 C6.981,13.298 6.572,13.506 6.21,13.836 C6.103,13.935 6.029,13.999 5.969,14.006 C5.724,14.037 5.575,14.189 5.465,14.299 L5.354,14.404 C5.298,14.458 5.244,14.515 5.18,14.557 C4.64,14.905 4.166,15.32 3.708,15.722 L3.586,15.83 C3.465,15.935 3.387,16.054 3.33,16.14 C3.307,16.175 3.275,16.223 3.276,16.226 C2.889,16.448 2.798,16.817 2.769,16.937 C2.757,16.981 2.727,17.043 2.695,17.109 C2.656,17.189 2.619,17.268 2.591,17.348 L2.534,17.518 C2.459,17.745 2.408,17.889 2.31,17.98 C2.162,18.116 2.139,18.289 2.146,18.29 C2.038,18.61 1.992,18.925 1.949,19.229 L1.915,19.461 C1.832,19.981 1.992,20.444 2.362,20.763 C2.375,20.774 2.406,20.819 2.481,20.929 L2.648,21.169 C2.816,21.414 2.99,21.666 3.218,21.898 C3.268,21.947 3.287,21.975 3.292,21.976 C3.29,21.992 3.283,22.037 3.246,22.143 C3.191,22.297 3.085,22.44 2.963,22.605 C2.86,22.745 2.759,22.884 2.675,23.037 C2.656,23.07 2.617,23.141 2.625,23.144 C2.404,23.209 2.234,23.374 2.165,23.574 C2.142,23.641 2.13,23.711 2.131,23.784 C2.131,23.856 2.076,23.944 1.986,24.081 C1.912,24.195 1.828,24.323 1.765,24.48 C1.678,24.7 1.573,24.913 1.469,25.127 C1.376,25.316 1.284,25.506 1.201,25.7 C1.11,25.912 1.045,26.133 0.982,26.355 C0.915,26.594 0.851,26.818 0.752,27.009 C0.688,27.129 0.666,27.25 0.653,27.352 C0.572,27.986 0.545,28.512 0.57,29.007 C0.603,29.64 0.773,30.159 1.089,30.59 C1.169,30.7 1.228,30.826 1.323,31.019 C1.491,31.357 1.75,31.614 2.115,31.804 C2.392,31.949 2.655,32.115 2.898,32.301 C2.877,32.375 2.856,32.448 2.831,32.52 L2.729,32.803 C2.656,32.999 2.584,33.195 2.531,33.398 C2.445,33.723 2.379,34.053 2.313,34.384 C2.226,34.823 2.143,35.238 2.013,35.64 C1.903,35.978 1.933,36.318 2.1,36.625 C2.246,36.894 2.39,37.108 2.552,37.298 C2.864,37.667 3.266,37.764 3.59,37.842 C3.705,37.87 3.82,37.896 3.927,37.941 C4.112,38.02 4.348,38.059 4.627,38.059 L4.777,38.056 C5.232,38.034 5.634,37.98 6.07,37.883 C6.101,37.883 6.128,37.887 6.151,37.893 C6.204,38.289 6.394,38.577 6.586,38.77 C6.554,38.961 6.611,39.143 6.758,39.31 C7.25,39.869 7.801,40.188 8.442,40.286 L8.806,40.343 C9.187,40.403 9.57,40.463 10.015,40.513 C10.181,40.533 10.344,40.54 10.496,40.528 C10.647,40.516 10.788,40.484 10.909,40.425 C10.945,40.441 11.009,40.47 11.094,40.485 C11.138,40.611 11.175,40.721 11.183,40.829 C11.194,40.986 11.221,41.143 11.25,41.3 C11.275,41.441 11.303,41.583 11.307,41.727 C11.334,42.677 11.882,43.316 12.414,43.817 C12.724,44.107 13.112,44.227 13.47,44.137 C13.608,44.102 13.757,44.095 13.937,44.095 L14.069,44.096 L14.073,43.597 L14.208,44.098 L14.324,44.1 C14.463,44.1 14.647,44.088 14.839,44 C15.09,43.883 15.383,43.88 15.724,43.876 L16.154,43.862 C16.278,43.862 16.367,43.874 16.44,43.899 L16.684,43.939 C16.755,43.939 16.827,43.93 16.847,43.912 C16.865,43.917 16.915,43.947 16.996,43.994 C17.149,44.083 17.289,44.193 17.429,44.302 C17.631,44.459 17.84,44.622 18.093,44.749 C18.158,44.782 18.221,44.818 18.285,44.855 C18.52,44.989 18.808,45.154 19.246,45.177 C19.465,45.459 19.751,45.615 19.985,45.742 C20.141,45.827 20.276,45.901 20.369,45.993 L20.569,46.159 L20.776,46.159 L20.94,46.134 C20.981,46.121 21.066,46.12 21.147,46.119 C21.372,46.117 21.704,46.114 22,45.866 C22.003,45.87 22.013,45.872 22.036,45.873 L22.234,45.878 C22.302,45.878 22.369,45.876 22.45,45.867 C22.514,46.073 22.613,46.287 22.797,46.435 C23.003,46.979 23.363,47.447 23.868,47.827 C24.078,47.986 24.396,48.227 24.856,48.265 C24.945,48.273 25.036,48.276 25.127,48.279 C25.296,48.285 25.456,48.29 25.562,48.333 C25.899,48.466 26.253,48.498 26.584,48.429 C26.916,48.361 27.177,48.348 27.45,48.4 C27.495,48.409 27.542,48.414 27.59,48.414 L27.787,48.395 L27.878,48.357 C28.177,48.236 28.548,48.244 29.097,48.29 L29.232,48.296 C29.388,48.296 29.529,48.266 29.662,48.205 C29.851,48.117 30.051,48.061 30.249,48.003 C30.49,47.933 30.738,47.861 30.985,47.746 C31.049,47.791 31.108,47.843 31.164,47.898 C31.402,48.133 31.66,48.325 31.924,48.501 C32.14,48.645 32.36,48.78 32.577,48.909 L32.887,49.095 C32.987,49.155 33.073,49.206 33.112,49.26 C33.317,49.537 33.581,49.705 33.92,49.783 L34.585,50.124 C34.751,50.209 34.912,50.234 35.029,50.252 C35.071,50.258 35.128,50.267 35.137,50.269 C35.566,50.527 36.068,50.668 36.627,50.689 L37.903,50.746 C38.086,50.746 38.36,50.723 38.6,50.551 L38.705,50.529 C38.891,50.48 39.068,50.404 39.243,50.326 C39.397,50.258 39.541,50.193 39.673,50.168 C39.906,50.123 40.046,49.959 40.124,49.868 C40.276,49.69 40.451,49.538 40.626,49.384 C40.849,49.188 41.08,48.984 41.284,48.732 C41.304,48.707 41.359,48.665 41.408,48.628 C41.411,48.626 41.413,48.625 41.415,48.623 C41.472,48.659 41.531,48.7 41.548,48.722 C41.748,49.024 41.998,49.258 42.22,49.465 L42.304,49.544 C42.691,49.909 43.173,50.364 43.841,50.581 C44.04,50.646 44.245,50.761 44.419,50.863 L44.519,50.922 C44.771,51.075 45.058,51.247 45.421,51.294 C45.487,51.302 45.577,51.34 45.672,51.382 C45.825,51.448 46.01,51.528 46.285,51.545 C46.678,51.779 47.109,51.879 47.574,51.835 L47.656,51.827 C47.83,51.934 48.01,51.961 48.201,51.991 C48.521,52.066 48.828,52.078 49.124,52.09 C49.278,52.096 49.431,52.102 49.583,52.118 C49.811,52.143 50.042,52.156 50.273,52.156 C50.564,52.156 50.847,52.134 51.111,52.089 C51.941,51.951 52.47,51.399 52.987,50.86 C53.155,50.685 53.299,50.487 53.441,50.288 L53.551,50.138 C53.551,50.138 53.575,50.127 53.66,50.126 C53.839,50.126 54.031,50.17 54.234,50.215 C54.458,50.266 54.69,50.318 54.948,50.327 C55.044,50.331 55.145,50.364 55.256,50.428 C55.551,50.6 55.838,50.697 56.135,50.725 C56.194,50.731 56.293,50.771 56.466,50.843 L56.606,50.907 C56.837,51.015 57.167,51.148 57.522,51.082 L57.518,51.11 C57.769,51.211 57.999,51.262 58.218,51.266 C58.462,51.27 58.72,51.313 59.094,51.432 C59.2,51.481 59.346,51.547 59.526,51.554 C59.81,51.565 60.145,51.589 60.48,51.675 C60.666,51.722 60.862,51.75 61.059,51.777 C61.18,51.794 61.303,51.811 61.424,51.835 C61.783,51.905 62.152,51.901 62.457,51.774 C62.539,51.74 62.642,51.732 62.867,51.713 C63.19,51.685 63.662,51.606 64.054,51.219 C64.298,51.194 64.48,51.074 64.596,50.985 C65.36,50.399 65.913,49.645 66.237,48.743 C66.275,48.639 66.366,48.518 66.462,48.389 L66.505,48.33 C66.92,48.273 67.334,48.332 67.747,48.497 L67.847,48.538 C68.133,48.657 68.477,48.763 68.916,48.689 L69.505,48.695 C69.677,48.695 69.849,48.689 70.019,48.668 C70.111,48.656 70.206,48.655 70.301,48.654 C70.565,48.651 70.886,48.647 71.201,48.484 L71.301,48.463 C71.656,48.361 72.11,48.197 72.474,47.829 C72.604,47.697 72.739,47.571 72.874,47.444 L72.953,47.369 C73.119,47.357 73.476,47.275 73.526,46.81 C73.788,46.532 73.94,46.209 74.074,45.924 C74.166,45.727 74.254,45.542 74.365,45.393 C74.471,45.252 74.521,45.073 74.518,44.841 C74.514,44.634 74.548,44.446 74.621,44.265 C74.682,44.114 74.69,43.971 74.702,43.804 C74.752,43.215 74.804,42.627 74.875,42.04 C74.886,41.953 74.9,41.866 74.914,41.779 C74.974,41.415 75.04,41.002 74.899,40.593 C74.899,40.563 74.908,40.533 74.915,40.501 C75.167,40.495 75.408,40.412 75.65,40.247 C75.672,40.235 75.75,40.219 75.779,40.213 C76.296,40.101 76.779,39.848 77.336,39.4 C77.384,39.374 77.432,39.349 77.526,39.285 C77.729,39.149 78.038,38.944 78.137,38.549 C78.151,38.491 78.168,38.461 78.237,38.403 C78.319,38.334 78.39,38.251 78.458,38.166 C78.482,38.136 78.506,38.105 78.534,38.076 C78.693,37.913 78.767,37.727 78.82,37.592 C78.842,37.536 78.865,37.479 78.883,37.451 C79.154,37.047 79.46,36.588 79.603,35.995 C79.628,35.892 79.666,35.794 79.704,35.694 C79.789,35.466 79.886,35.208 79.894,34.884 C79.898,34.714 79.932,34.546 79.964,34.376 C80.007,34.145 80.049,33.911 80.031,33.674 C80.318,33.259 80.302,32.828 80.29,32.481 C80.286,32.379 80.281,32.277 80.288,32.178 C80.3,32.001 80.28,31.817 80.257,31.632 C80.247,31.545 80.235,31.458 80.231,31.373 C80.225,31.222 80.196,31.08 80.146,30.844 C80.113,30.685 80.05,30.553 80,30.448 C79.969,30.383 79.931,30.302 79.931,30.272 C79.933,29.807 79.724,29.439 79.556,29.144 C79.505,29.055 79.454,28.966 79.41,28.874 L79.304,28.663 C79.261,28.58 79.217,28.496 79.167,28.458 C79.316,28.322 79.437,28.165 79.557,28.006 C79.638,27.897 79.718,27.786 79.819,27.692 C80.083,27.451 80.222,27.131 80.231,26.771 L80.316,26.534 C80.484,26.066 80.659,25.583 80.687,25.034 C80.692,24.927 80.704,24.82 80.715,24.713 C80.762,24.26 80.819,23.702 80.483,23.169 L80.483,23.169 Z M77.178,31.903 C77.129,32.159 77.127,32.387 77.172,32.62 C77.183,32.678 77.149,32.794 77.134,32.848 C76.972,33.405 76.878,33.899 76.847,34.357 C76.819,34.772 76.645,35.154 76.461,35.559 C76.397,35.7 76.333,35.84 76.218,36.018 C76.181,36.049 76.136,36.089 76.092,36.131 C76.025,36.193 75.958,36.268 75.9,36.371 C75.826,36.504 75.755,36.579 75.664,36.619 C75.438,36.717 75.295,36.898 75.19,37.029 L75.126,37.105 C74.912,37.112 74.7,37.148 74.488,37.185 C74.267,37.224 74.055,37.271 73.814,37.243 C73.79,37.24 73.766,37.239 73.735,37.237 C73.579,37.101 73.36,36.944 73.053,36.944 C73,36.944 72.946,36.949 72.8,36.976 C72.475,37.032 72.071,37.102 71.736,37.437 C71.686,37.487 71.632,37.533 71.578,37.579 C71.516,37.63 71.455,37.683 71.397,37.737 C70.97,38.143 70.881,38.618 71.126,39.189 C71.273,39.531 71.465,39.876 71.868,40.101 C71.867,40.118 71.865,40.14 71.86,40.165 C71.809,40.441 71.848,40.694 71.996,41.019 C71.819,41.231 71.745,41.493 71.776,41.795 C71.827,42.285 71.751,42.784 71.666,43.348 L71.634,43.542 C71.606,43.712 71.579,43.881 71.563,44.054 C71.545,44.257 71.506,44.278 71.476,44.295 C71.27,44.41 71.144,44.55 71.088,44.727 C71.072,44.776 71.005,44.849 70.935,44.925 C70.824,45.044 70.686,45.193 70.609,45.389 C70.579,45.414 70.461,45.448 70.391,45.468 L70.281,45.501 C69.959,45.603 69.68,45.667 69.429,45.696 C69.135,45.731 68.853,45.73 68.683,45.605 C68.53,45.494 68.351,45.439 68.1,45.439 L68.096,45.439 C68.018,45.442 67.939,45.451 67.866,45.462 C67.584,45.498 67.425,45.463 67.32,45.212 C67.282,45.115 67.163,44.821 66.812,44.77 C66.801,44.758 66.779,44.716 66.743,44.573 C66.617,44.067 66.214,44.027 66.093,44.027 C66.035,44.027 65.967,44.035 65.887,44.05 C65.069,44.201 64.581,44.77 64.223,45.187 C64.009,45.437 63.966,45.737 63.953,45.998 C63.927,46.501 63.853,46.865 63.714,47.179 C63.659,47.301 63.614,47.43 63.569,47.558 C63.521,47.695 63.477,47.832 63.41,47.948 C63.293,48.149 63.085,48.417 62.749,48.561 C62.657,48.588 62.464,48.645 62.331,48.839 C62.3,48.882 62.256,48.916 61.998,48.919 C61.602,48.924 61.206,48.945 60.81,48.966 L60.493,48.979 C60.291,48.979 60.123,48.953 59.935,48.889 C59.625,48.782 59.25,48.659 58.872,48.672 C58.571,48.471 58.229,48.351 57.852,48.315 C57.739,48.305 57.691,48.289 57.672,48.28 C57.265,48.088 56.752,48.014 56.323,48.044 C56.32,48.042 56.317,48.04 56.313,48.037 C56.087,47.873 55.876,47.76 55.646,47.684 C55.267,47.557 54.896,47.403 54.525,47.251 L54.148,47.096 C54.121,47.085 54.08,47.06 54.004,46.96 C53.47,46.266 52.838,46.175 52.044,46.748 C51.575,47.088 51.282,47.585 51.22,48.148 C51.197,48.35 51.091,48.499 50.909,48.703 L50.805,48.815 C50.62,49.072 50.379,49.177 49.973,49.177 L49.814,49.172 C49.477,49.152 49.137,49.166 48.796,49.179 L48.332,49.194 C48.178,49.194 48.005,49.149 47.822,49.102 C47.706,49.071 47.59,49.042 47.471,49.019 C47.167,48.961 46.869,48.851 46.553,48.733 C46.299,48.638 46.044,48.544 45.782,48.473 C45.4,48.369 45.003,48.233 44.686,47.946 C44.516,47.791 44.334,47.648 44.152,47.506 C43.945,47.345 43.737,47.184 43.549,46.997 C43.055,46.504 42.762,46.084 42.601,45.634 C42.424,45.14 42.023,44.843 41.5,44.821 L41.362,44.818 C40.727,44.818 40.231,45.012 39.847,45.407 C39.708,45.548 39.619,45.703 39.565,45.893 C39.515,46.072 39.445,46.192 39.34,46.282 C39.14,46.454 38.988,46.655 38.854,46.832 C38.764,46.95 38.676,47.069 38.57,47.173 C38.206,47.532 37.902,47.709 37.551,47.765 C37.349,47.798 37.136,47.753 36.865,47.825 C36.784,47.749 36.574,47.567 36.269,47.567 L36.153,47.572 C35.962,47.572 35.764,47.498 35.534,47.413 L35.161,47.279 C34.999,47.217 34.798,47.142 34.582,47.129 C34.581,47.129 34.555,47.116 34.502,47.058 C34.209,46.734 33.874,46.501 33.55,46.274 C33.421,46.185 33.293,46.096 33.168,46 C33.002,45.873 32.855,45.703 32.744,45.508 C32.595,45.249 32.42,45.011 32.244,44.773 L32.168,44.671 C31.995,44.436 31.752,44.312 31.466,44.312 L31.324,44.322 C30.75,44.398 30.278,44.577 29.879,44.868 C29.816,44.914 29.704,44.953 29.603,44.984 C29.316,45.073 29.025,45.152 28.729,45.225 C28.665,45.241 28.636,45.243 28.636,45.245 C28.22,45.156 27.734,45.193 27.266,45.254 L26.742,45.314 C26.441,45.347 26.111,45.376 25.888,45.327 C25.398,45.218 25.077,45.08 24.885,44.699 C24.691,44.314 24.622,43.991 24.66,43.65 C24.671,43.546 24.671,43.445 24.663,43.35 C24.638,43.061 24.539,42.813 24.455,42.603 L24.379,42.405 C24.237,41.999 23.834,41.737 23.352,41.737 C23.077,41.737 22.812,41.827 22.607,41.989 C22.322,42.216 21.995,42.376 21.684,42.514 C21.586,42.558 21.516,42.614 21.486,42.65 C21.201,42.769 21.034,42.785 20.868,42.702 C20.705,42.618 20.528,42.561 20.343,42.533 C20.166,42.505 20.138,42.484 20.123,42.463 C19.948,42.205 19.683,42.128 19.445,42.058 C19.21,41.969 19.024,41.787 18.739,41.507 C18.185,40.966 17.526,40.876 17.078,40.856 C16.721,40.84 16.364,40.833 16.01,40.844 C15.72,40.852 15.432,40.877 15.144,40.904 C14.973,40.919 14.802,40.935 14.566,40.948 C14.424,40.948 14.28,40.92 14.059,40.874 C14.016,40.731 13.962,40.588 13.907,40.446 C13.767,40.083 13.684,39.847 13.742,39.593 C13.799,39.347 13.7,39.149 13.666,39.081 C13.598,38.947 13.583,38.812 13.621,38.658 C13.672,38.45 13.627,38.274 13.586,38.11 C13.553,37.905 13.491,37.709 13.426,37.514 L13.373,37.353 C13.219,36.852 12.778,36.528 12.249,36.528 L12.128,36.534 C12.069,36.54 12.012,36.552 11.912,36.574 C11.666,36.618 11.466,36.729 11.306,36.819 C11.178,36.891 11.067,36.952 10.963,36.959 L10.735,36.997 L10.603,37.148 C10.322,37.471 9.916,37.418 9.33,37.3 C9.293,37.292 9.258,37.278 9.222,37.265 C9.166,37.245 9.11,37.225 9.052,37.209 C8.916,37.172 8.877,37.145 8.876,37.148 C8.872,37.138 8.86,37.092 8.864,36.973 C8.875,36.693 8.876,36.359 8.806,36.001 C8.711,35.522 8.416,35.204 8.18,34.949 L8.079,34.84 C7.95,34.702 7.768,34.619 7.534,34.619 C7.442,34.602 7.351,34.61 7.26,34.602 C7.141,34.592 7.022,34.583 6.904,34.583 C6.705,34.583 6.405,34.605 6.098,34.795 C6.079,34.807 6.049,34.82 5.982,34.821 L5.356,34.829 C5.424,34.344 5.502,33.884 5.693,33.461 C5.736,33.366 5.783,33.272 5.83,33.178 C5.989,32.857 6.17,32.495 6.215,32.088 C6.223,32.07 6.257,32.023 6.282,31.988 C6.349,31.893 6.441,31.762 6.496,31.593 C6.708,30.936 6.518,30.355 6.328,29.923 C6.281,29.816 6.219,29.733 6.134,29.615 C5.964,29.35 5.697,29.203 5.326,29.203 C5.326,29.203 5.326,29.203 5.325,29.203 L5.059,29.202 C4.826,29.202 4.593,29.21 4.361,29.251 C4.179,29.285 3.997,29.266 3.815,29.252 L3.693,29.244 C3.658,29.241 3.556,29.15 3.495,29.095 C3.494,29.095 3.494,29.094 3.493,29.094 C3.605,28.866 3.658,28.614 3.654,28.323 C3.651,28.117 3.71,27.91 3.852,27.63 C3.926,27.483 3.986,27.33 4.045,27.176 C4.129,26.956 4.202,26.766 4.318,26.62 C4.345,26.586 4.37,26.551 4.37,26.52 C4.577,26.395 4.706,26.19 4.725,25.954 C4.747,25.663 4.917,25.405 5.114,25.106 C5.202,24.974 5.289,24.841 5.365,24.705 C5.611,24.268 5.956,23.845 6.361,23.483 C6.665,23.213 6.997,22.958 7.385,22.661 C8.066,22.139 8.22,21.266 7.758,20.537 C7.732,20.496 7.718,20.465 7.71,20.431 C7.595,19.945 7.238,19.63 6.709,19.565 C6.436,19.532 6.161,19.499 5.886,19.498 C5.774,19.497 5.651,19.465 5.508,19.428 C5.464,19.416 5.421,19.405 5.378,19.394 C5.394,19.15 5.452,18.971 5.566,18.799 C5.82,18.417 6.139,18.109 6.566,17.832 C6.656,17.774 6.72,17.708 6.801,17.626 C6.858,17.579 6.913,17.528 6.967,17.478 C7.101,17.356 7.187,17.279 7.279,17.255 C7.455,17.208 7.584,17.1 7.667,17.012 C7.842,16.821 8.078,16.674 8.329,16.518 C8.481,16.422 8.634,16.326 8.779,16.22 C8.958,16.089 9.145,15.974 9.333,15.858 C9.581,15.705 9.83,15.551 10.062,15.369 C10.192,15.268 10.351,15.235 10.5,15.289 C10.763,15.384 11.04,15.412 11.351,15.387 C11.554,15.369 11.764,15.391 11.969,15.41 L12.081,15.42 C12.137,15.425 12.19,15.428 12.24,15.428 C12.269,15.428 12.294,15.421 12.322,15.419 C12.36,15.416 12.398,15.413 12.434,15.406 C12.481,15.398 12.527,15.383 12.571,15.367 C12.609,15.354 12.648,15.341 12.684,15.322 C12.722,15.302 12.758,15.273 12.794,15.247 C12.828,15.221 12.863,15.2 12.894,15.169 C12.959,15.106 13.021,15.032 13.08,14.944 C13.211,14.746 13.375,14.499 13.377,14.134 C13.377,14.039 13.378,13.909 13.7,13.773 C13.748,13.752 13.809,13.726 13.875,13.691 C14.075,13.586 14.327,13.401 14.437,13.046 C14.477,12.917 14.499,12.796 14.503,12.682 C14.507,12.567 14.492,12.459 14.459,12.356 C14.426,12.253 14.413,12.131 14.633,11.873 C14.869,11.595 15.133,11.341 15.397,11.088 L15.555,10.936 C15.632,10.861 15.78,10.824 15.952,10.781 C16.04,10.758 16.128,10.736 16.213,10.708 C16.439,10.636 16.649,10.535 16.858,10.432 C16.97,10.377 17.081,10.322 17.196,10.274 C17.763,10.037 17.836,9.493 17.891,9.087 C17.9,9.025 17.903,8.961 17.898,8.839 C18.19,8.322 18.393,8.001 18.84,7.917 C19.027,7.881 19.214,7.862 19.4,7.842 L19.765,7.81 L19.889,7.812 C19.955,7.812 20.019,7.811 20.179,7.814 C20.209,7.857 20.256,7.926 20.324,7.99 C20.392,8.054 20.481,8.114 20.598,8.141 C20.731,8.174 20.841,8.278 21.01,8.444 C21.126,8.558 21.243,8.671 21.374,8.765 C21.471,8.835 21.606,8.919 21.793,8.954 C21.964,8.986 22.136,9.003 22.308,9.006 C22.48,9.008 22.651,8.997 22.819,8.973 C23.318,8.9 23.544,8.503 23.718,8.201 C23.787,8.081 23.826,7.964 23.86,7.861 C23.877,7.81 23.892,7.758 23.916,7.71 C24.046,7.452 23.998,7.201 23.96,7.007 C23.949,6.942 23.975,6.888 24.071,6.839 C24.272,6.735 24.462,6.637 24.62,6.632 C24.814,6.625 25.005,6.599 25.197,6.573 C25.379,6.547 25.54,6.518 25.801,6.522 C26.009,6.528 26.203,6.595 26.45,6.749 C26.619,6.854 26.809,6.952 27.079,6.983 C27.111,7.083 27.133,7.189 27.155,7.294 C27.203,7.522 27.258,7.781 27.396,8.025 C27.627,8.434 27.916,8.942 28.477,9.34 C28.957,9.797 29.635,9.835 30.142,9.445 C30.145,9.441 30.149,9.439 30.154,9.436 C30.64,9.282 30.78,8.886 30.826,8.565 C30.841,8.458 30.846,8.359 30.85,8.28 C30.871,7.879 30.815,7.447 30.673,6.919 C30.599,6.643 30.621,6.466 30.949,6.145 C31.165,5.935 31.498,5.899 31.871,6.023 C31.687,6.33 31.593,6.639 31.584,6.965 C31.58,7.113 31.571,7.421 31.779,7.665 C31.791,8.195 32.162,8.476 32.361,8.627 C32.458,8.7 32.565,8.757 32.674,8.812 C32.755,8.853 32.839,8.895 32.861,8.928 C33.038,9.189 33.319,9.193 33.42,9.193 C34.237,9.284 34.792,8.762 35.108,8.457 C35.202,8.367 35.287,8.269 35.362,8.161 C35.587,7.839 35.731,7.432 35.805,6.886 C35.824,6.734 35.84,6.58 35.887,6.437 C35.91,6.365 35.999,6.301 36.154,6.245 C36.918,5.966 37.497,5.86 38.085,5.892 L38.25,5.897 C38.51,5.897 38.791,5.861 39.086,5.79 C39.323,5.733 39.564,5.697 39.806,5.661 C39.945,5.64 40.083,5.619 40.222,5.595 C40.937,5.47 41.486,5.485 42,5.641 C42.125,5.679 42.263,5.699 42.465,5.699 C42.626,5.718 42.802,5.726 43.007,5.789 C43.055,5.803 43.114,5.82 43.185,5.834 C43.19,5.835 43.192,5.836 43.197,5.837 C43.275,5.852 43.371,5.862 43.493,5.862 C43.605,5.865 43.735,5.895 43.891,5.941 C44.035,5.985 44.194,6.033 44.372,6.053 C44.479,6.147 44.591,6.214 44.697,6.274 C44.739,6.298 44.783,6.324 44.822,6.345 C44.934,6.405 45.03,6.457 45.094,6.516 C45.299,6.705 45.526,6.795 45.809,6.798 L46.129,6.804 C46.364,6.804 46.643,6.786 46.935,6.656 C47.553,6.378 47.712,5.973 47.737,5.681 C47.779,5.176 48.069,4.836 48.554,4.42 L48.645,4.344 C48.773,4.238 48.899,4.13 49.007,4.003 C49.042,3.963 49.086,3.933 49.138,3.916 L49.254,3.881 C49.43,3.831 49.656,3.765 49.858,3.601 C50.048,3.652 50.208,3.645 50.53,3.6 C50.613,3.6 50.717,3.63 50.837,3.665 C50.976,3.705 51.116,3.742 51.256,3.758 C51.506,3.787 51.768,3.849 52.08,3.951 L52.147,3.969 C52.326,4.104 52.514,4.192 52.683,4.272 C52.797,4.326 52.914,4.378 53.019,4.451 C53.16,4.548 53.273,4.706 53.404,4.89 L53.556,5.097 C53.658,5.23 53.692,5.359 53.584,5.66 C53.478,5.953 53.509,6.227 53.534,6.446 L53.545,6.552 C53.567,6.79 53.689,7.002 53.881,7.134 C53.992,7.21 54.099,7.326 54.211,7.449 C54.341,7.591 54.489,7.752 54.679,7.89 C54.818,7.99 54.995,8.096 55.245,8.118 C55.34,8.126 55.435,8.145 55.548,8.167 C56.395,8.33 56.868,7.791 57.12,7.389 C57.478,6.816 57.496,6.223 57.483,5.665 L57.483,5.605 C57.517,5.595 57.56,5.582 57.614,5.567 C57.74,5.533 57.87,5.533 58.012,5.555 C58.153,5.577 58.309,5.621 58.486,5.674 C58.631,5.717 58.779,5.738 58.927,5.757 C59.024,5.77 59.123,5.78 59.218,5.81 C59.343,5.849 59.468,5.884 59.593,5.919 C59.846,5.992 60.101,6.062 60.344,6.171 C60.439,6.214 60.541,6.245 60.644,6.274 C60.712,6.293 60.815,6.322 60.83,6.342 L60.954,6.516 L61.165,6.546 C61.418,6.583 61.671,6.669 61.939,6.762 C62.054,6.801 62.168,6.841 62.286,6.878 C62.49,6.94 62.751,7.033 62.963,7.186 C63.102,7.288 63.247,7.345 63.363,7.392 C63.443,7.423 63.533,7.459 63.561,7.492 C63.636,7.579 63.722,7.627 63.704,7.602 C63.846,7.724 63.84,7.744 63.808,7.841 C63.577,8.531 63.86,9.145 64.566,9.482 C64.605,9.501 64.642,9.524 64.679,9.546 C64.762,9.596 64.845,9.644 64.932,9.682 C65.142,9.771 65.452,9.835 65.75,9.835 C66.047,9.834 66.333,9.768 66.498,9.596 C66.835,9.553 67.1,9.408 67.332,9.28 C67.408,9.239 67.483,9.197 67.562,9.16 L67.658,9.115 C67.81,9.176 67.991,9.177 68.163,9.145 C68.359,9.107 68.555,9.128 68.751,9.145 C68.85,9.153 68.95,9.161 69.049,9.165 C69.379,9.179 69.668,9.34 70.003,9.527 L70.278,9.677 C70.398,9.739 70.512,9.77 70.603,9.794 C70.644,9.805 70.699,9.82 70.705,9.821 C70.742,9.857 70.78,9.885 70.817,9.906 C70.95,10.12 71.123,10.275 71.267,10.405 C71.307,10.441 71.345,10.475 71.379,10.508 C71.036,10.595 70.8,10.814 70.618,10.984 C70.545,11.052 70.474,11.122 70.393,11.175 C70.169,11.32 70.01,11.53 69.932,11.781 C69.927,11.794 69.92,11.817 69.864,11.864 C69.421,12.233 69.297,13.046 69.608,13.536 C69.755,13.769 70.027,14.219 70.644,14.167 C70.831,14.349 71.067,14.471 71.362,14.538 C71.641,14.601 71.92,14.754 72.242,15.021 C72.552,15.278 72.86,15.398 73.211,15.398 L73.376,15.393 C73.508,15.393 73.625,15.421 73.747,15.481 C73.881,15.548 74.021,15.582 74.165,15.582 C74.537,15.582 74.812,15.354 75.044,15.163 L75.161,15.065 C75.221,15.015 75.28,14.962 75.373,14.907 L75.52,15.165 L75.719,15.231 C75.81,15.261 75.868,15.348 75.987,15.553 C76.076,15.706 76.183,15.892 76.352,16.051 C76.355,16.142 76.363,16.27 76.419,16.406 C76.601,16.847 76.602,17.343 76.664,17.952 C76.346,17.734 75.892,17.703 75.484,17.756 C75.379,17.77 75.277,17.797 75.178,17.838 C74.881,17.962 74.616,18.205 74.425,18.537 L74.381,18.623 C73.712,19.058 73.881,19.799 73.946,20.085 C74.066,20.612 74.601,20.866 74.776,20.949 L75.17,21.14 C75.492,21.297 75.814,21.455 76.148,21.595 C76.312,21.663 76.482,21.81 76.661,21.965 C76.735,22.029 76.809,22.092 76.886,22.154 L76.926,22.25 C77.129,22.661 77.259,23.126 77.373,23.537 C77.438,23.776 77.446,24.066 77.444,24.32 C77.444,24.454 77.412,24.592 77.375,24.753 C77.347,24.876 77.32,25 77.303,25.125 C77.291,25.209 77.167,25.318 77.036,25.432 L77.021,25.445 C76.906,25.425 76.79,25.413 76.674,25.402 C76.52,25.388 76.387,25.375 76.269,25.336 C76.184,25.309 76.093,25.294 76,25.287 C75.721,25.269 75.424,25.334 75.202,25.395 C74.983,25.457 74.746,25.641 74.719,25.892 C74.704,25.91 74.645,25.952 74.606,25.979 C74.522,26.038 74.44,26.098 74.34,26.196 C74.3,26.236 74.26,26.277 74.213,26.311 C73.978,26.483 73.872,26.729 73.909,26.989 C73.921,27.075 73.95,27.164 73.994,27.251 C74.063,27.388 74.113,27.532 74.16,27.68 C74.299,28.108 74.654,28.305 74.868,28.423 C75.033,28.514 75.204,28.593 75.375,28.673 C75.658,28.805 75.926,28.929 76.144,29.102 C76.329,29.248 76.345,29.335 76.345,29.404 C76.345,29.636 76.415,29.817 76.554,29.943 C76.618,30.001 76.657,30.104 76.716,30.267 C76.761,30.39 76.807,30.512 76.88,30.609 C76.889,30.844 76.938,31.061 77.009,31.271 C77.056,31.411 77.106,31.549 77.182,31.68 C77.185,31.69 77.19,31.718 77.191,31.756 C77.192,31.795 77.189,31.846 77.178,31.903 L77.178,31.903 Z M4.833,35.083 L5.293,35.006 C5.31,35.042 5.319,35.077 5.317,35.109 L4.833,35.086 L4.833,35.083 L4.833,35.083 Z" id="Fill-1" sketch:type="MSShapeGroup"></path>
            <path d="M32.574,59.372 C32.508,59.173 32.404,59.026 32.321,58.908 C32.283,58.855 32.244,58.804 32.217,58.746 C32.058,58.386 31.787,57.889 31.283,57.724 C31.194,57.694 31.11,57.623 31.005,57.531 C30.877,57.421 30.719,57.284 30.501,57.194 C30.444,57.17 30.367,57.138 30.267,57.119 L30.062,57.08 C29.857,57.04 29.652,57 29.444,56.981 C29.174,56.957 28.915,56.852 28.552,56.621 C28.329,56.478 27.983,56.288 27.568,56.288 C27.378,56.288 27.189,56.328 26.971,56.353 C26.895,56.29 26.739,56.158 26.491,56.158 L26.355,56.171 C26.31,56.18 26.262,56.18 26.215,56.181 C26.008,56.188 25.646,56.2 25.381,56.514 C25.32,56.538 25.261,56.565 25.202,56.592 C25.139,56.622 25.084,56.648 25.046,56.656 C24.481,56.779 24.201,57.205 23.997,57.516 L23.893,57.67 C23.865,57.708 23.832,57.744 23.799,57.781 C23.671,57.923 23.495,58.12 23.449,58.417 C23.424,58.582 23.325,58.73 23.159,58.978 C23.092,59.079 23.04,59.188 22.989,59.299 C22.943,59.4 22.903,59.488 22.861,59.521 C22.662,59.678 22.642,59.906 22.65,60.03 C22.487,60.256 22.455,60.493 22.453,60.699 C22.453,60.769 22.456,60.834 22.458,60.895 C22.469,61.159 22.521,61.415 22.574,61.67 C22.596,61.774 22.617,61.878 22.635,61.982 C22.698,62.357 22.833,62.709 23.046,63.057 C23.095,63.136 23.134,63.219 23.174,63.301 C23.275,63.511 23.402,63.772 23.644,64 L23.898,64.245 C24.211,64.552 24.536,64.87 24.969,65.105 C25.422,65.351 25.857,65.507 26.262,65.571 C26.779,65.652 27.326,65.688 28.036,65.688 L28.262,65.687 L28.485,65.661 L28.636,65.666 C28.695,65.669 28.757,65.673 28.823,65.675 C29.022,65.68 29.254,65.666 29.525,65.537 C30.294,65.464 30.782,64.942 31.124,64.486 L31.277,64.285 C31.736,63.683 32.256,63 32.4,62.173 C32.436,62.12 32.47,62.065 32.519,61.957 C32.589,61.806 32.721,61.525 32.598,61.188 C32.583,61.147 32.598,61.068 32.632,60.898 C32.747,60.322 32.728,59.837 32.574,59.372 L32.574,59.372 Z M26.048,59.108 L26.395,59.491 C26.47,59.457 26.573,59.409 26.73,59.302 C27.1,59.722 27.568,59.787 27.888,59.799 C28.399,59.819 28.82,59.962 29.18,60.241 C29.225,60.275 29.275,60.303 29.339,60.335 C29.58,60.463 29.631,60.627 29.489,60.924 C29.421,61.066 29.33,61.255 29.313,61.49 C29.219,61.632 29.134,61.78 29.049,61.928 C28.918,62.159 28.793,62.377 28.636,62.548 C28.554,62.638 28.454,62.697 28.338,62.726 C28.071,62.792 27.795,62.823 27.519,62.825 C27.256,62.827 26.988,62.804 26.713,62.75 C26.333,62.675 26.016,62.493 25.794,62.223 C25.519,61.886 25.394,61.589 25.4,61.3 C25.409,61.097 25.443,60.941 25.506,60.826 C25.741,60.397 25.997,59.978 26.255,59.563 C26.26,59.561 26.267,59.558 26.276,59.552 L26.27,59.54 C26.277,59.528 26.284,59.517 26.291,59.505 C26.284,59.518 26.275,59.529 26.269,59.538 L26.047,59.108 L26.048,59.108 L26.048,59.108 Z" id="Fill-2" sketch:type="MSShapeGroup"></path>
            <path d="M25.942,72.186 C25.902,72.008 25.858,71.829 25.852,71.642 C25.84,71.298 25.697,70.954 25.458,70.696 L25.273,70.5 C25.073,70.287 24.872,70.075 24.674,69.835 C24.469,69.585 24.16,69.21 23.613,69.21 C23.588,69.21 23.563,69.21 23.542,69.211 C23.538,69.21 23.534,69.208 23.53,69.207 C23.01,69.027 22.458,68.936 21.796,68.923 C21.575,68.918 21.343,68.923 21.096,68.935 C20.993,68.94 20.752,68.953 20.577,69.112 C20.493,69.098 20.413,69.091 20.337,69.091 C20.086,69.091 19.742,69.168 19.452,69.527 L19.334,69.479 C19.252,69.448 19.172,69.44 19.09,69.423 C19.019,69.407 18.946,69.379 18.877,69.374 C18.429,69.334 18.017,69.491 17.681,69.824 L17.563,69.892 C17.212,70.12 16.681,70.465 16.597,71.161 C16.527,71.3 16.464,71.44 16.401,71.581 C16.318,71.769 16.235,71.956 16.13,72.136 C15.903,72.528 15.824,72.964 15.763,73.377 C15.655,74.11 15.802,74.865 16.199,75.62 C16.362,75.93 16.565,76.205 16.761,76.472 L16.976,76.768 C17.116,76.968 17.325,77.086 17.594,77.134 C17.637,77.163 17.681,77.191 17.731,77.221 C17.829,77.274 17.922,77.335 18.015,77.395 C18.222,77.527 18.457,77.678 18.742,77.778 C18.91,77.837 19.069,77.853 19.197,77.866 C19.279,77.874 19.365,77.883 19.406,77.901 C19.819,78.078 20.233,78.147 20.612,78.174 C20.739,78.184 20.861,78.189 20.979,78.191 L21.064,78.192 C21.691,78.192 22.28,78.047 22.773,77.904 C23.451,77.708 23.948,77.405 24.327,76.957 C24.736,76.719 24.976,76.364 25.189,76.05 C25.295,75.893 25.399,75.733 25.533,75.599 C25.681,75.448 25.713,75.271 25.729,75.175 C25.826,74.892 25.855,74.608 25.881,74.359 C25.897,74.203 25.911,74.047 25.964,73.824 C26.017,73.606 26.065,73.389 26.073,73.105 L26.05,72.821 C26.035,72.605 25.989,72.396 25.942,72.186 L25.942,72.186 Z M19.779,75.03 C19.325,74.927 19.006,74.694 18.805,74.32 C18.682,74.09 18.619,73.864 18.614,73.63 C18.613,73.586 18.618,73.543 18.623,73.498 L18.636,73.323 L18.625,73.263 C18.607,73.164 18.623,73.038 18.642,72.892 C18.648,72.837 18.655,72.782 18.661,72.727 C18.697,72.712 18.734,72.695 18.771,72.68 C18.844,72.647 18.908,72.618 18.964,72.607 C19.083,72.583 19.197,72.542 19.312,72.499 C19.409,72.462 19.492,72.431 19.563,72.427 C19.897,72.405 20.067,72.152 20.22,72.004 C20.39,72.192 20.582,72.232 20.713,72.232 L20.886,72.211 C21.041,72.177 21.183,72.145 21.283,72.197 C21.377,72.245 21.488,72.272 21.597,72.272 L21.782,72.26 L21.897,72.194 C21.961,72.157 22.122,72.174 22.269,72.199 L22.42,72.222 C22.691,72.259 22.866,72.42 22.954,72.714 C23.008,72.893 22.983,73.095 22.955,73.328 C22.942,73.432 22.93,73.534 22.928,73.607 C22.916,73.64 22.896,73.669 22.877,73.7 C22.806,73.818 22.709,73.981 22.685,74.204 C22.643,74.595 22.428,74.865 21.895,75.198 C21.659,75.346 21.41,75.374 21.035,75.374 L20.893,75.373 C20.646,75.372 20.386,75.299 20.02,75.121 C19.963,75.093 19.877,75.05 19.779,75.03 L19.779,75.03 Z M21.063,77.685 L21.063,77.685 L21.064,77.692 L21.063,77.685 L21.063,77.685 Z" id="Fill-3" sketch:type="MSShapeGroup"></path>
            <path d="M17.153,80.517 C17.094,80.331 17.012,80.181 16.915,80.048 C16.83,79.915 16.731,79.8 16.607,79.704 C16.492,79.614 16.384,79.516 16.275,79.418 C16.214,79.361 16.146,79.314 16.083,79.259 C15.998,79.185 15.919,79.105 15.826,79.037 C15.813,79.028 15.801,79.023 15.789,79.015 C15.774,79.005 15.763,78.991 15.748,78.981 C15.579,78.862 15.407,78.799 15.268,78.748 C15.209,78.727 15.15,78.705 15.092,78.677 L14.9,78.609 L14.787,78.609 C14.548,78.609 14.329,78.723 14.201,78.912 C14.168,78.928 14.048,78.929 13.965,78.93 C13.85,78.931 13.749,78.954 13.644,78.972 C13.185,78.912 12.667,79 12.192,79.209 C11.967,79.279 11.75,79.353 11.547,79.441 C11.535,79.444 11.528,79.455 11.516,79.459 C11.368,79.489 11.189,79.569 11.048,79.736 C10.897,79.845 10.76,79.964 10.666,80.078 C10.665,80.08 10.663,80.082 10.661,80.084 C10.522,80.205 10.398,80.333 10.29,80.454 C10.259,80.488 10.23,80.519 10.2,80.551 C10.12,80.633 10.039,80.709 9.954,80.765 C9.726,80.914 9.536,81.145 9.446,81.38 C9.393,81.517 9.318,81.644 9.246,81.771 C9.129,81.976 8.997,82.207 8.9,82.553 C8.888,82.6 8.869,82.671 8.856,82.693 C8.662,83.014 8.597,83.347 8.541,83.642 C8.522,83.737 8.503,83.834 8.48,83.929 C8.439,84.09 8.454,84.237 8.465,84.344 C8.468,84.381 8.474,84.431 8.476,84.431 C8.383,84.631 8.438,84.809 8.51,84.941 C8.53,84.988 8.551,85.03 8.575,85.068 C8.591,85.345 8.706,85.559 8.799,85.719 L8.851,85.81 C8.89,85.883 8.935,85.942 8.982,85.994 C9.125,86.181 9.305,86.276 9.472,86.359 C9.751,86.617 10.073,86.755 10.357,86.877 C10.485,86.932 10.614,86.988 10.736,87.056 C10.816,87.103 10.899,87.147 10.985,87.189 C11.234,87.312 11.502,87.408 11.799,87.408 C11.842,87.408 11.885,87.406 11.928,87.402 C12.146,87.422 12.346,87.383 12.497,87.352 C12.562,87.339 12.627,87.323 12.689,87.319 C13.03,87.303 13.524,87.229 13.86,86.825 C14.131,86.713 14.46,86.575 14.702,86.274 C14.828,86.228 14.948,86.166 15.06,86.083 C15.192,85.99 15.318,85.878 15.434,85.733 C15.498,85.652 15.572,85.58 15.64,85.502 C15.773,85.357 15.903,85.211 16.041,85.07 C16.163,84.946 16.284,84.821 16.405,84.692 C16.758,84.314 16.956,83.928 17.01,83.512 C17.038,83.294 17.089,83.099 17.164,82.928 C17.318,82.569 17.366,82.209 17.303,81.812 C17.382,81.325 17.273,80.886 17.153,80.517 L17.153,80.517 Z M13.098,83.668 C13.058,83.7 13.018,83.733 12.917,83.824 C12.806,83.915 12.637,84.053 12.582,84.314 C12.546,84.334 12.417,84.349 12.323,84.358 C12.303,84.359 12.273,84.359 12.235,84.365 C12.122,84.38 11.941,84.433 11.765,84.617 C11.736,84.615 11.691,84.611 11.64,84.604 C11.597,84.598 11.559,84.595 11.512,84.585 L11.414,84.566 C11.397,84.529 11.372,84.458 11.35,84.33 C11.34,84.272 11.343,84.185 11.347,84.092 L11.352,83.901 C11.343,83.609 11.403,83.346 11.54,83.073 C11.606,82.941 11.641,82.8 11.663,82.657 C11.665,82.641 11.67,82.624 11.672,82.606 C11.689,82.472 11.691,82.339 11.687,82.21 C11.687,82.199 11.689,82.188 11.688,82.179 C12.001,82.19 12.322,82.144 12.628,82.052 C12.631,82.053 12.633,82.055 12.635,82.056 C12.708,82.1 12.781,82.139 12.848,82.174 C13.167,82.344 13.504,82.474 13.832,82.55 C13.74,82.724 13.622,82.894 13.498,83.072 C13.364,83.266 13.231,83.459 13.098,83.668 L13.098,83.668 Z" id="Fill-4" sketch:type="MSShapeGroup"></path>
        </g>
    </g>
</svg>