<?xml version="1.0" encoding="UTF-8" standalone="no"?>
<svg width="208px" height="63px" viewBox="0 0 208 63" version="1.1" xmlns="http://www.w3.org/2000/svg" xmlns:xlink="http://www.w3.org/1999/xlink" xmlns:sketch="http://www.bohemiancoding.com/sketch/ns">
    <!-- Generator: Sketch 3.3.3 (12081) - http://www.bohemiancoding.com/sketch -->
    <title>first_page</title>
    <desc>Created with Sketch.</desc>
    <defs></defs>
    <g id="Page-1" stroke="none" stroke-width="1" fill="none" fill-rule="evenodd" sketch:type="MSPage">
        <g id="Imported-Layers" sketch:type="MSLayerGroup" transform="translate(-1.000000, 0.000000)">
            <path d="M191.686,55.453 L191.686,55.333 C191.686,55.043 191.525,54.773 191.525,54.493 C191.516,53.953 191.285,53.513 191.005,53.073 C190.815,52.783 190.516,52.602 190.325,52.323 C190.115,52.023 189.885,51.763 189.585,51.543 C189.165,51.253 188.766,50.913 188.355,50.602 C188.005,50.333 187.685,49.983 187.175,50.063 C186.795,50.123 186.455,49.963 186.085,49.933 C185.705,49.893 185.425,49.673 185.125,49.473 C184.646,49.153 184.396,49.243 184.215,49.773 C184.155,49.963 184.035,50.053 183.845,50.023 C183.465,49.963 183.085,49.983 182.705,49.883 C182.025,49.713 181.335,49.633 180.655,49.443 C180.405,49.373 180.125,49.393 179.875,49.343 C178.985,49.173 178.075,49.223 177.185,49.223 C176.435,49.223 175.675,49.293 174.915,49.293 C174.255,49.283 173.615,49.363 172.965,49.413 C172.555,49.453 172.115,49.503 171.726,49.443 C171.195,49.363 170.695,49.383 170.165,49.453 C169.685,49.513 169.215,49.623 168.695,49.493 C168.325,49.403 167.865,49.343 167.476,49.602 C167.435,49.633 167.335,49.653 167.285,49.633 C166.915,49.433 166.535,49.583 166.155,49.593 C165.675,49.613 165.195,49.583 164.715,49.683 C164.285,49.773 163.845,49.543 163.415,49.753 C163.385,49.773 163.325,49.763 163.295,49.743 C163.115,49.653 162.935,49.683 162.745,49.703 C162.295,49.773 161.845,49.733 161.396,49.743 C160.365,49.783 159.335,49.663 158.305,49.743 C157.835,49.783 157.335,49.743 156.896,49.873 C156.226,50.053 155.555,49.993 154.896,50.023 C154.186,50.053 153.495,50.213 152.785,50.233 C152.095,50.253 151.415,50.483 150.715,50.433 C150.215,50.403 149.726,50.493 149.235,50.513 C148.525,50.553 147.815,50.563 147.115,50.443 C147.065,50.453 147.016,50.463 146.965,50.473 C146.845,50.483 146.726,50.503 146.606,50.483 C145.915,50.413 145.215,50.383 144.516,50.393 C143.835,50.413 143.165,50.383 142.485,50.383 C141.825,50.393 141.155,50.413 140.485,50.403 C140.255,50.403 140.025,50.343 139.795,50.373 C139.295,50.453 138.795,50.393 138.295,50.393 C137.485,50.383 136.675,50.263 135.855,50.293 C134.976,50.323 134.095,50.314 133.215,50.373 C132.665,50.403 132.105,50.393 131.555,50.443 C130.356,50.533 129.165,50.553 127.965,50.573 C127.135,50.593 126.305,50.523 125.465,50.543 C123.995,50.583 122.525,50.633 121.055,50.593 C120.275,50.563 119.505,50.403 118.726,50.533 C118.315,50.593 117.915,50.433 117.505,50.473 C117.275,50.493 117.055,50.623 116.835,50.602 C116.106,50.543 115.375,50.623 114.635,50.543 C113.915,50.463 113.185,50.443 112.455,50.423 C111.505,50.403 110.545,50.323 109.595,50.343 C108.726,50.373 107.845,50.383 106.976,50.373 C106.335,50.363 105.705,50.273 105.065,50.283 C103.965,50.303 102.855,50.303 101.755,50.293 C100.455,50.283 99.165,50.343 97.865,50.263 C96.565,50.193 95.255,50.193 93.945,50.093 C93.675,50.073 93.396,50.013 93.135,50.033 C92.495,50.053 91.856,50.123 91.205,50.083 C90.686,50.043 90.145,50.093 89.625,50.083 C88.505,50.043 87.385,50.073 86.266,49.993 C85.476,49.943 84.686,49.973 83.896,49.963 C82.535,49.943 81.186,49.913 79.825,49.893 C79.715,49.893 79.606,49.893 79.495,49.873 C78.425,49.663 77.335,49.703 76.255,49.613 C75.686,49.564 75.115,49.613 74.535,49.602 C73.606,49.583 72.665,49.483 71.735,49.564 C71.565,49.583 71.405,49.643 71.245,49.623 C70.525,49.513 69.805,49.593 69.085,49.553 C67.965,49.493 66.845,49.493 65.735,49.473 C64.125,49.443 62.525,49.433 60.925,49.403 C60.275,49.393 59.635,49.383 58.985,49.343 C58.146,49.293 57.305,49.323 56.455,49.303 C55.646,49.283 54.825,49.123 54.016,49.293 L53.955,49.293 C53.235,49.173 52.505,49.243 51.785,49.213 C51.325,49.193 50.865,49.303 50.415,49.173 C49.965,49.043 49.485,49.093 49.025,48.993 C48.705,48.933 48.345,48.923 48.005,48.923 C47.575,48.933 47.175,48.793 46.755,48.743 C45.646,48.623 44.525,48.803 43.405,48.653 C42.766,48.573 42.125,48.503 41.476,48.483 C40.516,48.463 39.575,48.352 38.625,48.283 C38.075,48.233 37.525,48.253 36.976,48.213 C36.235,48.163 35.495,48.233 34.745,48.133 C33.976,48.033 33.186,48.093 32.405,48.033 C31.565,47.953 30.735,47.813 29.896,47.693 C29.535,47.643 29.165,47.593 28.805,47.563 C28.415,47.533 27.995,47.493 27.585,47.493 C26.835,47.483 26.095,47.363 25.345,47.283 C24.235,47.153 23.125,47.033 22.005,46.953 C21.365,46.903 20.715,46.923 20.075,46.813 C19.226,46.663 18.356,46.753 17.485,46.693 C16.625,46.633 15.755,46.513 14.875,46.653 C14.315,46.743 13.735,46.703 13.165,46.793 C12.476,46.903 11.815,47.143 11.096,47.143 C10.875,47.133 10.635,47.223 10.405,47.293 C10.095,47.383 9.855,47.602 9.555,47.703 C8.565,48.053 7.505,48.213 6.675,48.923 C6.635,48.953 6.575,48.973 6.525,48.983 C6.225,49.063 5.975,49.253 5.715,49.403 C5.225,49.663 4.935,50.163 4.485,50.483 C3.875,50.923 3.325,51.443 2.865,52.033 C2.575,52.403 2.365,52.843 2.105,53.233 C1.605,53.963 1.405,54.803 1.225,55.613 C1.035,56.433 1.225,57.243 1.765,57.993 C2.265,58.683 2.845,59.093 3.635,59.314 C3.985,59.403 4.425,59.453 4.645,59.653 C4.965,59.943 5.335,60.033 5.675,60.163 C6.445,60.473 7.295,60.533 8.075,60.843 C8.575,61.043 9.145,61.063 9.685,61.143 C10.815,61.303 11.955,61.393 13.085,61.433 C14.516,61.483 15.945,61.602 17.365,61.663 C18.646,61.713 19.915,61.483 21.186,61.683 C21.705,61.763 22.245,61.553 22.766,61.733 C22.805,61.743 22.875,61.723 22.925,61.713 C23.465,61.653 24.016,61.573 24.555,61.513 C25.325,61.423 26.095,61.313 26.865,61.173 C27.425,61.073 27.976,60.923 28.555,61.102 C28.896,61.213 29.235,61.243 29.595,61.133 C29.825,61.053 30.095,61.043 30.335,61.083 C31.055,61.203 31.766,61.093 32.465,61.043 C33.436,60.973 34.396,60.963 35.365,60.963 C36.215,60.963 37.065,60.933 37.915,60.883 C38.705,60.833 39.495,60.783 40.285,60.783 C41.025,60.793 41.745,60.873 42.485,60.814 C43.016,60.763 43.545,60.883 44.075,60.843 C45.305,60.743 46.525,60.933 47.755,60.883 C48.646,60.852 49.535,60.843 50.425,60.843 C50.965,60.843 51.516,60.683 52.055,60.763 C52.535,60.833 53.005,60.814 53.476,60.803 C54.295,60.773 55.125,60.743 55.945,60.723 C56.245,60.713 56.535,60.753 56.805,60.913 C56.995,61.013 57.215,61.043 57.445,61.043 C57.865,61.043 58.285,61.033 58.715,61.123 C59.055,61.193 59.405,61.333 59.745,61.293 C60.325,61.233 60.905,61.323 61.465,61.093 C61.905,60.913 62.365,61.203 62.815,61.053 C63.315,60.893 63.845,60.973 64.345,60.863 C64.745,60.773 65.135,60.703 65.545,60.683 C65.885,60.653 66.186,60.803 66.505,60.833 C67.075,60.893 67.646,60.723 68.215,60.823 C68.615,60.893 69.016,60.993 69.415,61.003 C70.115,61.023 70.815,61.003 71.516,60.973 C71.985,60.953 72.445,61.153 72.896,61.102 C73.715,61.013 74.505,61.093 75.295,61.303 C75.825,61.443 76.365,61.443 76.915,61.423 C77.455,61.403 78.016,61.433 78.516,61.303 C79.215,61.123 79.905,61.253 80.585,61.173 C80.635,61.163 80.675,61.193 80.715,61.203 C81.695,61.453 82.686,61.323 83.665,61.313 C84.125,61.313 84.595,61.293 85.055,61.303 C85.856,61.313 86.665,61.383 87.455,61.253 C88.476,61.083 89.485,61.023 90.516,61.113 C90.955,61.153 91.405,61.183 91.856,61.213 C92.495,61.253 93.135,61.143 93.766,61.153 C95.775,61.163 97.775,61.353 99.785,61.253 C101.075,61.183 102.375,61.303 103.665,61.333 C104.245,61.343 104.815,61.343 105.385,61.313 C105.936,61.283 106.495,61.303 107.025,61.133 C107.445,60.993 107.875,61.053 108.305,61.003 C109.055,60.913 109.825,60.923 110.565,61.003 C111.385,61.083 112.195,61.053 113.016,61.102 C113.425,61.123 113.835,61.043 114.235,61.113 C115.165,61.283 116.115,61.363 117.045,61.453 C117.896,61.533 118.726,61.763 119.595,61.743 C119.856,61.733 120.146,61.713 120.365,61.773 C120.875,61.913 121.375,61.793 121.875,61.823 C122.955,61.883 124.045,61.703 125.135,61.743 C125.345,61.753 125.545,61.813 125.755,61.793 C126.525,61.743 127.295,61.833 128.055,61.903 C129.085,61.993 130.115,61.873 131.146,61.953 C131.625,61.993 132.105,61.863 132.585,61.903 C133.455,61.973 134.325,61.923 135.186,61.923 C135.745,61.923 136.295,61.843 136.845,61.693 C137.516,61.513 138.165,61.273 138.855,61.123 C139.345,61.023 139.845,60.923 140.345,60.943 C141.235,60.973 142.135,61.003 143.035,61.063 C143.715,61.113 144.375,61.313 145.075,61.283 C145.686,61.263 146.295,61.413 146.915,61.483 C147.585,61.553 148.255,61.602 148.915,61.703 C149.165,61.733 149.415,61.753 149.665,61.763 C149.865,61.763 150.065,61.673 150.255,61.693 C151.035,61.783 151.795,61.573 152.565,61.564 C153.125,61.564 153.675,61.593 154.215,61.643 C154.775,61.683 155.335,61.823 155.905,61.833 C156.425,61.843 156.955,61.793 157.465,61.883 C158.396,62.063 159.315,61.852 160.245,61.913 C160.675,61.943 161.146,61.793 161.606,61.813 C162.325,61.833 163.055,61.823 163.775,61.923 C164.415,62.013 165.045,62.153 165.685,62.253 C166.795,62.433 167.915,62.323 169.035,62.293 C169.545,62.273 170.055,62.263 170.545,62.223 C171.065,62.183 171.595,62.043 172.125,62.033 C172.585,62.033 173.016,61.873 173.465,61.843 C174.135,61.803 174.805,61.833 175.465,61.823 C175.976,61.813 176.485,61.673 177.005,61.683 C177.615,61.703 178.215,61.503 178.825,61.493 C179.995,61.473 181.146,61.263 182.315,61.313 C182.365,61.323 182.435,61.313 182.476,61.293 C182.615,61.193 182.766,61.223 182.915,61.223 C183.855,61.173 184.805,61.183 185.726,60.953 C186.025,60.873 186.315,60.733 186.615,60.713 C187.106,60.663 187.535,60.423 188.025,60.363 C188.686,60.283 189.275,59.973 189.745,59.493 C190.035,59.203 190.385,58.953 190.555,58.602 C190.945,57.823 191.305,57.023 191.565,56.183 C191.635,55.953 191.785,55.723 191.686,55.453" id="Fill-1" fill="#22221B" sketch:type="MSShapeGroup"></path>
            <path d="M8.118,15.148 C7.82,15.194 7.497,15.126 7.177,15.046 C6.919,14.981 6.659,14.95 6.394,14.934 C5.842,14.9 5.362,14.647 4.903,14.374 C4.13,13.915 3.394,13.385 2.786,12.729 C2.428,12.344 2.067,11.904 1.964,11.341 C1.955,11.289 1.937,11.228 1.901,11.192 C1.584,10.868 1.438,10.441 1.346,10.031 C1.233,9.529 1.052,9.009 1.225,8.478 C1.292,8.271 1.165,8.092 1.165,7.895 C1.162,7.32 1.316,6.785 1.561,6.278 C1.712,5.966 1.86,5.648 2.012,5.337 C2.323,4.702 2.919,4.328 3.309,3.773 C3.648,3.293 4.16,2.992 4.575,2.59 C4.833,2.34 5.205,2.204 5.536,2.037 C5.664,1.973 5.776,1.916 5.783,1.764 C5.807,1.237 6.214,1.081 6.606,0.94 C7.669,0.556 8.717,0.827 9.766,1.038 C9.905,1.066 10.046,1.087 10.188,1.106 C10.982,1.213 11.678,1.609 12.42,1.868 C13.149,2.123 13.645,2.69 14.088,3.273 C14.397,3.677 14.565,4.181 14.807,4.634 C15.055,5.101 15.32,5.565 15.443,6.093 C15.511,6.384 15.524,6.679 15.577,6.97 C15.715,7.74 15.592,8.522 15.543,9.282 C15.502,9.896 15.26,10.538 14.919,11.102 C14.776,11.337 14.653,11.583 14.522,11.824 C14.443,11.97 14.359,12.097 14.208,12.193 C14.045,12.297 13.903,12.445 13.863,12.657 C13.819,12.886 13.599,12.97 13.464,13.123 C12.819,13.856 11.998,14.352 11.115,14.72 C10.709,14.89 10.237,14.914 9.791,14.977 C9.248,15.055 8.706,15.144 8.118,15.148 L8.118,15.148 Z M8.619,13.686 C9.238,13.706 9.738,13.574 10.225,13.399 C10.769,13.205 11.312,12.996 11.77,12.627 C12.64,11.926 13.236,11.019 13.717,10.023 C13.832,9.782 13.975,9.557 13.939,9.278 C13.918,9.121 13.945,8.974 13.977,8.822 C14.072,8.351 14.175,7.858 14.108,7.397 C14.006,6.682 13.873,5.958 13.531,5.3 C13.359,4.968 13.268,4.575 13.033,4.298 C12.629,3.816 12.258,3.268 11.565,3.119 C11.279,3.058 11.006,2.934 10.736,2.817 C10.119,2.549 9.47,2.397 8.81,2.301 C8.37,2.237 7.951,2.656 8.086,2.989 C8.127,3.09 8.229,3.164 8.062,3.248 C7.87,3.344 7.853,3.19 7.818,3.087 C7.736,2.844 7.561,2.805 7.38,2.923 C7.033,3.148 6.67,3.321 6.294,3.494 C5.561,3.832 4.877,4.275 4.355,4.935 C4.141,5.204 3.929,5.484 3.689,5.728 C3.247,6.177 3.002,6.736 2.87,7.31 C2.641,8.301 2.531,9.299 2.856,10.328 C3.21,11.456 3.928,12.234 4.877,12.853 C4.984,12.923 5.093,13.002 5.236,13.009 C5.66,13.028 6.014,13.211 6.339,13.474 C6.568,13.659 6.851,13.777 7.136,13.743 C7.662,13.681 8.192,13.831 8.619,13.686 L8.619,13.686 Z" id="Fill-2" fill="#00A3DB" sketch:type="MSShapeGroup"></path>
            <path d="M10.725,40.807 C10.266,40.746 9.782,40.833 9.338,40.62 C9.309,40.606 9.271,40.59 9.243,40.598 C8.469,40.785 7.83,40.263 7.108,40.192 C5.961,40.083 4.853,39.668 3.677,39.773 C3.363,39.8 3.045,39.769 2.726,39.812 C2.204,39.881 1.753,39.548 1.635,39.065 C1.586,38.863 1.63,38.717 1.811,38.582 C2.735,37.893 3.668,37.217 4.475,36.381 C4.969,35.869 5.583,35.478 6.112,35.003 C6.685,34.491 7.346,34.087 7.873,33.521 C8.035,33.346 8.223,33.186 8.424,33.057 C8.838,32.789 9.13,32.414 9.432,32.038 C9.623,31.8 9.823,31.568 10.012,31.326 C10.165,31.132 10.254,30.92 10.362,30.706 C10.514,30.404 10.424,30.204 10.246,29.962 C9.876,29.46 9.296,29.234 8.846,28.844 C8.533,28.574 8.114,28.604 7.785,28.375 C7.518,28.19 7.159,28.263 6.853,28.326 C6.027,28.495 5.231,28.726 4.489,29.18 C4.11,29.412 3.73,29.645 3.359,29.893 C3.146,30.034 2.973,30.181 2.876,30.446 C2.728,30.85 1.947,31.24 1.526,31.18 C1.076,31.114 0.827,30.55 1.085,30.178 C1.53,29.536 2.044,28.953 2.709,28.535 C3.384,28.11 4.075,27.692 4.821,27.413 C5.811,27.043 6.828,26.776 7.911,26.99 C8.114,27.029 8.227,27.172 8.396,27.247 C9.604,27.783 10.637,28.553 11.404,29.644 C11.704,30.069 11.76,30.528 11.576,31.047 C11.289,31.854 10.777,32.503 10.236,33.137 C9.526,33.969 8.636,34.595 7.803,35.289 C7.362,35.658 6.921,36.039 6.481,36.406 C5.862,36.924 5.233,37.427 4.677,38.013 C4.606,38.087 4.455,38.131 4.509,38.266 C4.557,38.384 4.689,38.414 4.813,38.434 C5.721,38.58 6.627,38.737 7.536,38.871 C7.79,38.908 7.976,39.065 8.201,39.152 C8.647,39.324 9.121,39.386 9.585,39.443 C10.089,39.506 10.554,39.671 11.031,39.812 C11.244,39.873 11.488,39.896 11.715,39.831 C11.942,39.768 12.043,39.886 12.111,40.072 C12.178,40.256 12.098,40.374 11.934,40.44 C11.544,40.598 11.206,40.932 10.725,40.807" id="Fill-3" fill="#4D4D4C" sketch:type="MSShapeGroup"></path>
            <path d="M42.08,41.002 C41.498,40.86 40.957,40.651 40.473,40.282 C39.88,39.831 39.346,39.31 38.721,38.893 C38.386,38.668 38.132,38.329 37.74,38.147 C36.471,37.557 35.828,37.583 34.644,38.586 C34.312,38.867 33.991,39.146 33.549,39.273 C33.248,39.359 33.039,39.283 32.824,39.111 C32.791,39.085 32.737,39.039 32.744,39.016 C32.814,38.745 32.653,38.477 32.729,38.217 C32.807,37.946 33.012,37.773 33.234,37.593 C33.87,37.077 34.636,36.749 35.207,36.13 C35.478,35.836 35.829,35.59 36.15,35.331 C36.825,34.788 37.414,34.166 37.961,33.494 C38.368,32.993 38.856,32.56 39.286,32.075 C39.691,31.619 40.044,31.132 40.306,30.565 C40.516,30.11 40.832,29.707 40.973,29.211 C41.087,28.807 41.221,28.444 40.835,28.065 C40.616,27.849 40.492,27.553 40.158,27.444 C39.69,27.292 39.182,27.215 38.756,27.406 C37.804,27.836 36.763,28.041 35.879,28.663 C35.375,29.018 34.904,29.357 34.577,29.886 C34.484,30.035 34.354,30.243 34.132,30.107 C33.928,29.984 33.728,29.819 33.792,29.523 C33.808,29.447 33.863,29.357 33.839,29.301 C33.61,28.767 34.027,28.481 34.285,28.146 C34.56,27.791 34.888,27.5 35.293,27.272 C35.987,26.882 36.739,26.64 37.461,26.322 C37.963,26.102 38.519,25.889 39.054,25.977 C39.511,26.052 39.979,26.012 40.426,26.148 C41.12,26.361 41.637,26.81 42.019,27.399 C42.275,27.797 42.292,28.289 42.27,28.744 C42.231,29.574 41.931,30.31 41.518,31.055 C40.934,32.106 40.106,32.925 39.363,33.83 C38.895,34.402 38.314,34.86 37.854,35.442 C37.669,35.677 37.463,35.924 37.218,36.122 C37.025,36.277 37.023,36.438 37.309,36.506 C38.028,36.676 38.557,37.156 39.117,37.595 C39.61,37.981 40.072,38.4 40.55,38.804 C40.709,38.938 40.86,39.082 41.006,39.231 C41.32,39.552 41.759,39.624 42.145,39.795 C42.38,39.899 42.643,39.781 42.883,39.697 C43.056,39.637 43.236,39.598 43.369,39.765 C43.492,39.918 43.434,40.104 43.336,40.227 C43.018,40.634 42.617,40.924 42.08,41.002" id="Fill-4" fill="#4D4D4C" sketch:type="MSShapeGroup"></path>
            <path d="M52.751,27.056 C52.631,28.114 52.393,29.133 51.847,30.072 C51.481,30.702 51.191,31.376 50.862,32.027 C50.775,32.201 50.608,32.329 50.581,32.541 C50.563,32.693 50.564,32.759 50.758,32.801 C51.335,32.925 51.924,32.835 52.501,32.927 C52.654,32.951 52.805,32.943 52.93,33.06 C53.095,33.215 53.305,33.152 53.499,33.16 C53.708,33.17 53.92,33.188 53.899,33.475 C53.883,33.725 53.772,33.904 53.481,33.857 C53.177,33.809 52.992,34.076 52.716,34.125 C52.279,34.203 51.854,34.275 51.407,34.202 C51.216,34.171 51.011,34.19 50.816,34.217 C50.641,34.24 50.48,34.246 50.299,34.208 C49.943,34.132 49.719,34.356 49.561,34.642 C49.306,35.103 49.038,35.563 48.87,36.062 C48.635,36.762 48.274,37.405 47.999,38.087 C47.821,38.529 47.78,38.953 47.813,39.404 C47.843,39.849 47.521,40.197 47.058,40.203 C46.695,40.209 46.481,39.885 46.457,39.44 C46.423,38.838 46.745,38.356 46.908,37.818 C47.06,37.317 47.211,36.819 47.422,36.34 C47.611,35.91 47.75,35.457 48.029,35.07 C48.049,35.044 48.067,35.016 48.078,34.984 C48.141,34.803 48.311,34.615 48.183,34.428 C48.041,34.22 47.811,34.323 47.604,34.343 C47.241,34.377 46.9,34.538 46.529,34.501 C46.386,34.486 46.273,34.585 46.187,34.679 C45.911,34.98 45.662,34.775 45.422,34.644 C45.146,34.493 45.148,34.201 45.232,33.972 C45.37,33.596 45.605,33.323 46.06,33.216 C46.922,33.014 47.807,33.041 48.672,32.885 C48.987,32.827 49.164,32.668 49.217,32.361 C49.265,32.084 49.454,31.87 49.567,31.624 C49.747,31.234 49.872,30.8 50.203,30.486 C50.481,30.223 50.51,29.839 50.648,29.51 C50.881,28.953 51.275,28.476 51.405,27.868 C51.501,27.424 51.239,27.109 50.802,27.273 C50.506,27.383 50.206,27.373 49.916,27.462 C49.004,27.74 48.077,27.966 47.176,28.288 C46.652,28.476 46.086,28.528 45.529,28.587 C45.431,28.598 45.329,28.589 45.232,28.609 C44.602,28.737 44.531,28.692 44.399,28.051 C44.307,27.595 44.431,27.379 44.825,27.304 C45.009,27.269 45.19,27.216 45.374,27.19 C46.094,27.088 46.783,26.885 47.481,26.681 C48.803,26.294 50.138,25.924 51.514,25.757 C51.741,25.73 51.975,25.726 52.204,25.738 C52.511,25.756 52.794,26.224 52.777,26.661 C52.772,26.793 52.76,26.924 52.751,27.056" id="Fill-5" fill="#4D4D4C" sketch:type="MSShapeGroup"></path>
            <path d="M20.869,36.585 C20.94,37.312 20.513,37.908 19.964,38.452 C19.738,38.676 19.538,38.928 19.299,39.135 C18.613,39.727 17.816,40.119 16.906,40.022 C15.725,39.896 14.887,39.235 14.445,38.11 C14.373,37.925 14.264,37.74 14.147,37.606 C13.793,37.204 13.637,36.706 13.43,36.24 C13.283,35.91 13.209,35.513 13.231,35.152 C13.273,34.405 13.207,33.623 13.522,32.927 C13.731,32.462 13.615,31.913 13.926,31.507 C14.244,31.089 14.374,30.585 14.633,30.143 C14.707,30.016 14.795,29.909 14.898,29.809 C15.352,29.361 15.871,29.003 16.391,28.64 C17.094,28.146 17.862,27.798 18.656,27.481 C19.13,27.291 19.572,27.256 20.063,27.385 C20.488,27.496 20.561,27.848 20.619,28.162 C20.675,28.46 20.577,28.782 20.295,28.977 C20.107,29.107 19.902,29.21 19.731,29.369 C19.626,29.466 19.451,29.523 19.34,29.4 C19.221,29.268 19.315,29.136 19.434,29.034 C19.5,28.977 19.598,28.911 19.555,28.821 C19.496,28.696 19.383,28.792 19.291,28.796 C18.904,28.813 18.568,28.938 18.27,29.197 C18.153,29.298 17.959,29.301 17.819,29.383 C17.091,29.815 16.384,30.305 15.853,30.955 C15.432,31.47 15.031,32.042 14.918,32.746 C14.885,32.944 14.732,33.119 14.679,33.316 C14.476,34.069 14.305,34.828 14.468,35.615 C14.479,35.669 14.476,35.727 14.495,35.777 C14.578,35.992 14.601,36.279 14.799,36.385 C15.044,36.513 15.141,36.19 15.292,36.072 C16.043,35.49 16.888,35.106 17.801,34.908 C18.354,34.788 18.933,34.698 19.504,34.769 C20.385,34.878 20.928,35.404 20.869,36.585 L20.869,36.585 Z M18.982,36.207 C18.164,36.223 17.379,36.354 16.705,36.86 C16.602,36.938 16.497,36.999 16.641,37.17 C16.869,37.444 16.772,37.649 16.414,37.728 C16.275,37.758 16.129,37.766 15.994,37.813 C15.712,37.91 15.66,38.172 15.865,38.383 C16.323,38.858 16.85,38.907 17.457,38.706 C17.786,38.597 18.01,38.38 18.274,38.19 C18.811,37.804 19.17,37.313 19.365,36.696 C19.485,36.318 19.377,36.19 18.982,36.207 L18.982,36.207 Z" id="Fill-6" fill="#4D4D4C" sketch:type="MSShapeGroup"></path>
            <path d="M71.008,26.744 C71.053,27.274 71.092,27.769 71.136,28.262 C71.188,28.854 70.928,29.383 70.741,29.908 C70.454,30.718 70.123,31.529 69.597,32.219 C69.175,32.771 68.673,33.262 68.208,33.782 C68.062,33.946 67.914,34.111 67.782,34.287 C67.686,34.414 67.543,34.567 67.634,34.723 C67.722,34.871 67.909,34.919 68.098,34.929 C68.587,34.954 69.081,35.057 69.52,35.235 C70.066,35.458 70.606,35.725 71.141,35.989 C71.582,36.208 72.004,36.462 72.428,36.703 C73.029,37.046 73.526,37.543 74.07,37.972 C74.261,38.122 74.441,38.262 74.715,38.249 C74.952,38.238 75.04,38.58 74.873,38.812 C74.693,39.063 74.307,39.146 73.981,38.952 C73.311,38.552 72.597,38.234 71.894,37.908 C71.103,37.541 70.345,37.112 69.546,36.757 C68.744,36.4 67.899,36.331 67.076,36.146 C66.625,36.045 66.131,36.256 65.665,36.376 C65.475,36.426 65.285,36.481 65.093,36.527 C64.718,36.616 64.457,36.267 64.342,35.856 C64.228,35.449 64.352,35.219 64.822,35.003 C65.69,34.606 66.371,33.959 67.021,33.306 C67.483,32.84 67.939,32.336 68.277,31.752 C68.421,31.505 68.66,31.33 68.845,31.111 C69.07,30.843 69.224,30.553 69.345,30.232 C69.616,29.515 69.851,28.79 69.902,28.017 C69.921,27.733 69.819,27.474 69.788,27.201 C69.774,27.073 69.674,26.995 69.544,26.962 C69.025,26.829 68.484,26.782 67.982,26.921 C67.459,27.066 66.925,27.186 66.41,27.366 C66.237,27.427 66.11,27.518 66.066,27.687 C66.002,27.931 65.845,27.972 65.638,27.905 C65.413,27.834 65.228,27.867 65.014,27.984 C64.593,28.218 64.237,27.944 64.225,27.462 C64.208,26.8 64.68,26.555 65.158,26.372 C65.666,26.178 66.175,25.965 66.719,25.869 C66.815,25.852 66.913,25.826 67.003,25.786 C67.606,25.519 68.24,25.527 68.885,25.525 C69.216,25.523 69.545,25.415 69.88,25.537 C70.207,25.656 70.536,25.779 70.79,26.028 C70.999,26.231 71.106,26.481 71.008,26.744" id="Fill-7" fill="#4D4D4C" sketch:type="MSShapeGroup"></path>
            <path d="M77.704,25.416 C78.754,25.453 79.49,26.049 80.138,26.8 C80.23,26.906 80.235,27.037 80.202,27.175 C80.18,27.269 80.162,27.37 80.169,27.466 C80.191,27.768 80.037,27.992 79.697,28.066 C79.465,28.116 79.283,27.992 79.203,27.774 C79.059,27.378 78.772,27.193 78.37,27.14 C78.288,27.129 78.2,27.077 78.138,27.021 C77.822,26.732 77.481,26.867 77.148,26.961 C77.057,26.986 76.973,27.034 76.871,27.049 C76.682,27.076 76.516,27.209 76.502,27.381 C76.474,27.726 76.377,28.077 76.724,28.383 C77.094,28.708 77.319,29.173 77.712,29.5 C77.947,29.696 78.167,29.914 78.422,30.087 C78.711,30.283 78.924,30.083 79.07,29.891 C79.393,29.466 79.679,29.014 79.968,28.565 C80.148,28.284 80.329,28.019 80.343,27.644 C80.355,27.313 80.829,27.073 81.115,27.182 C81.455,27.313 81.699,27.807 81.524,28.09 C81.297,28.459 81.336,28.894 81.157,29.281 C80.942,29.747 80.657,30.156 80.38,30.577 C80.344,30.632 80.298,30.68 80.259,30.734 C79.82,31.342 79.846,31.426 80.369,31.969 C81.103,32.73 81.664,33.6 81.873,34.658 C81.944,35.023 81.908,35.402 81.777,35.733 C81.476,36.503 81.194,37.286 80.459,37.804 C79.801,38.266 79.231,38.16 78.527,37.81 C77.778,37.438 77.345,36.764 77.002,36.077 C76.802,35.677 76.771,35.131 76.945,34.642 C77.295,33.664 77.633,32.682 78.118,31.759 C78.253,31.501 78.123,31.279 77.919,31.124 C77.082,30.49 76.348,29.747 75.743,28.899 C75.416,28.441 75.118,27.92 75.172,27.288 C75.193,27.024 75.021,26.766 75.12,26.479 C75.186,26.288 75.282,26.144 75.448,26.043 C76.139,25.617 76.886,25.398 77.704,25.416 L77.704,25.416 Z M80.823,34.791 C80.777,34.574 80.823,34.307 80.678,34.063 C80.376,33.553 80.015,33.096 79.611,32.661 C79.432,32.469 79.342,32.513 79.247,32.689 C78.903,33.329 78.482,33.932 78.326,34.664 C78.207,35.219 78.129,35.733 78.575,36.207 C78.77,36.413 78.981,36.56 79.215,36.7 C79.471,36.854 80.068,36.812 80.233,36.573 C80.596,36.052 80.829,35.479 80.823,34.791 L80.823,34.791 Z" id="Fill-8" fill="#4D4D4C" sketch:type="MSShapeGroup"></path>
            <path d="M128.961,34.024 L128.964,34.006 L128.947,33.997 C128.931,33.648 128.469,33.125 128.076,33.009 L128.07,33.004 C128.072,32.857 127.958,32.802 127.859,32.732 C127.447,32.445 126.994,32.226 126.542,32.017 C126.238,31.876 125.899,32.028 125.594,32.126 C125.311,32.216 125.044,32.243 124.755,32.165 C124.422,32.075 124.171,31.836 124.167,31.516 C124.162,31.198 124.288,30.94 124.608,30.816 C124.967,30.68 125.327,30.554 125.71,30.499 C126.433,30.395 127.202,29.558 127.333,28.898 C127.389,28.619 127.037,28.139 126.69,27.978 C126.132,27.718 125.553,27.609 124.934,27.613 C124.608,27.615 124.278,27.605 123.952,27.595 C123.551,27.583 123.213,27.775 122.84,27.84 C122.551,27.889 122.271,27.917 121.992,28.063 C121.726,28.2 121.414,28.341 121.078,28.236 C121.011,28.216 120.95,28.252 120.899,28.299 C120.867,28.329 120.836,28.362 120.798,28.383 C120.707,28.432 119.856,28.041 119.792,27.924 C119.697,27.75 119.951,27.321 120.227,27.228 C120.763,27.046 121.321,26.92 121.84,26.699 C122.665,26.347 123.549,26.315 124.407,26.192 C125.125,26.091 125.873,26.215 126.57,26.481 C126.737,26.546 126.911,26.565 127.079,26.611 C127.665,26.773 128.127,27.054 128.311,27.701 C128.493,28.336 128.625,28.952 128.426,29.608 C128.326,29.935 128.138,30.197 127.923,30.441 C127.677,30.72 127.685,30.816 127.994,31.026 C128.931,31.661 129.736,32.417 130.191,33.482 C130.706,34.686 130.495,35.815 129.685,36.777 C129.174,37.386 128.557,37.928 127.829,38.308 C127.415,38.523 126.949,38.545 126.515,38.688 C126.112,38.819 125.675,38.88 125.25,38.891 C124.609,38.908 123.965,38.85 123.356,38.621 C123.11,38.528 122.948,38.314 122.825,38.094 C122.675,37.823 122.867,37.435 123.234,37.202 C123.284,37.205 123.335,37.207 123.385,37.209 C123.455,37.297 123.571,37.259 123.658,37.307 C124.376,37.702 125.134,37.762 125.933,37.612 C126.745,37.462 127.517,37.262 128.198,36.74 C128.771,36.302 129.213,35.824 129.332,35.089 C129.402,34.659 129.254,34.18 128.961,34.024" id="Fill-9" fill="#4D4D4C" sketch:type="MSShapeGroup"></path>
            <path d="M96.478,28.29 C95.77,28.148 95.155,28.528 94.514,28.757 C94.098,28.905 93.66,29.027 93.313,29.352 C93.116,29.536 92.925,29.369 92.805,29.173 C92.682,28.974 92.712,28.793 92.904,28.654 C92.956,28.617 93.026,28.59 93.089,28.588 C93.479,28.571 93.622,28.373 93.605,27.988 C93.59,27.676 93.94,27.303 94.3,27.216 C94.61,27.141 94.913,27.053 95.197,26.905 C95.273,26.866 95.361,26.832 95.446,26.826 C96.423,26.769 97.406,26.723 98.358,26.988 C99.344,27.261 100.224,27.701 100.539,28.801 C100.597,29.001 100.676,29.199 100.535,29.399 C100.505,29.442 100.485,29.506 100.491,29.556 C100.616,30.541 100.176,31.356 99.648,32.112 C99.018,33.016 98.287,33.839 97.316,34.405 C97.205,34.47 97.112,34.541 97.119,34.683 C97.128,34.865 97.291,34.928 97.412,34.959 C98.094,35.134 98.693,35.528 99.381,35.685 C99.444,35.699 99.513,35.712 99.568,35.745 C99.94,35.969 100.334,36.14 100.732,36.313 C101.222,36.523 101.694,36.83 102.145,37.149 C102.466,37.378 102.666,37.705 102.959,37.949 C103.106,38.071 103.166,38.264 103.007,38.415 C102.82,38.592 102.594,38.71 102.319,38.593 C101.526,38.252 100.772,37.831 99.994,37.46 C99.536,37.241 99.113,36.953 98.618,36.804 C98.013,36.621 97.431,36.347 96.824,36.196 C96.393,36.088 95.942,35.957 95.459,35.996 C94.834,36.048 94.278,36.296 93.697,36.471 C93.212,36.616 92.844,36.319 92.867,35.812 C92.885,35.443 93.082,35.27 93.368,35.085 C93.797,34.81 94.291,34.753 94.746,34.572 C94.816,34.544 94.897,34.541 94.952,34.479 C95.425,33.936 96.114,33.753 96.716,33.425 C97.078,33.228 97.374,32.951 97.653,32.654 C97.913,32.379 98.153,32.085 98.424,31.822 C98.876,31.383 99.114,30.818 99.25,30.239 C99.441,29.427 98.963,28.494 98.007,28.383 C97.756,28.353 97.507,28.321 97.253,28.309 C97.002,28.295 96.754,28.221 96.478,28.29" id="Fill-10" fill="#4D4D4C" sketch:type="MSShapeGroup"></path>
            <path d="M106.309,25.456 C106.891,25.573 107.622,25.607 108.196,26.14 C108.417,26.343 108.448,26.723 108.811,26.792 C108.822,26.794 108.838,26.853 108.829,26.878 C108.708,27.227 108.834,27.629 108.569,27.953 C108.456,28.092 108.438,28.277 108.657,28.397 C109.279,28.731 109.43,29.089 109.123,29.708 C108.831,30.297 108.827,30.953 108.622,31.55 C108.356,32.326 108.442,33.158 108.154,33.921 C107.976,34.393 108.029,34.898 107.97,35.387 C107.875,36.165 107.659,36.912 107.447,37.662 C107.395,37.849 107.306,37.981 107.106,38.019 C106.885,38.061 106.716,37.977 106.583,37.81 C106.455,37.648 106.396,37.455 106.41,37.254 C106.438,36.88 106.425,36.49 106.533,36.141 C106.75,35.437 106.718,34.704 106.856,33.992 C106.957,33.467 107.115,32.951 107.142,32.411 C107.161,32.006 107.241,31.612 107.36,31.225 C107.387,31.139 107.383,31.042 107.307,30.981 C107.235,30.924 107.159,30.964 107.092,31.004 C106.454,31.391 105.712,31.409 105.014,31.567 C104.634,31.654 104.223,31.47 103.839,31.347 C103.693,31.3 103.558,31.224 103.414,31.169 C102.944,30.989 102.769,30.586 102.645,30.15 C102.361,29.152 102.809,28.329 103.316,27.543 C103.588,27.123 103.841,26.686 104.224,26.334 C104.696,25.901 105.537,25.486 106.309,25.456 L106.309,25.456 Z M106.546,26.872 C106.395,26.898 106.254,26.922 106.113,26.945 C105.733,27.009 105.354,27.063 105.164,27.477 C105.116,27.58 105.016,27.685 104.914,27.734 C104.506,27.927 104.334,28.321 104.084,28.65 C103.968,28.803 103.932,28.956 103.961,29.143 C103.998,29.378 104.234,29.639 103.892,29.839 C103.881,29.846 103.884,29.881 103.887,29.902 C103.907,30.102 104.553,30.462 104.712,30.339 C104.833,30.245 104.952,30.257 105.075,30.23 C105.313,30.176 105.555,30.201 105.796,30.17 C106.458,30.086 106.817,29.513 107.371,29.263 C107.601,29.159 107.716,28.934 107.867,28.748 C107.978,28.614 107.951,28.499 107.808,28.422 C107.58,28.301 107.572,28.125 107.661,27.92 C107.708,27.813 107.734,27.697 107.663,27.604 C107.375,27.228 107.01,26.966 106.546,26.872 L106.546,26.872 Z" id="Fill-11" fill="#4D4D4C" sketch:type="MSShapeGroup"></path>
            <path d="M32.455,8.614 C32.506,9.07 32.388,9.41 32.349,9.76 C32.278,10.393 32.372,11.031 32.273,11.663 C32.2,12.136 32.274,12.599 32.335,13.067 C32.386,13.456 32.273,13.849 32.285,14.248 C32.291,14.473 32.118,14.719 31.876,14.838 C31.689,14.93 31.505,14.976 31.372,14.727 C31.319,14.625 31.21,14.538 31.106,14.484 C30.794,14.323 30.786,14.037 30.848,13.774 C30.948,13.334 30.894,12.869 31.002,12.453 C31.142,11.92 31.025,11.398 31.105,10.873 C31.214,10.147 31.176,9.41 31.095,8.679 C31.088,8.624 31.071,8.565 31.083,8.515 C31.221,7.905 31.189,7.277 31.293,6.666 C31.337,6.408 31.238,6.339 31.023,6.346 C29.765,6.385 28.504,6.395 27.273,6.725 C26.867,6.833 26.25,6.492 26.116,6.095 C26.023,5.816 26.122,5.516 26.47,5.407 C26.984,5.248 27.417,4.9 27.968,4.827 C28.208,4.795 28.424,4.867 28.65,4.865 C29.528,4.858 30.407,4.876 31.283,4.829 C31.825,4.8 32.374,4.753 32.902,4.59 C33.1,4.528 33.315,4.484 33.52,4.492 C34.368,4.526 35.231,4.349 36.063,4.652 C36.134,4.679 36.216,4.704 36.287,4.693 C36.85,4.611 37.16,4.964 37.443,5.356 C37.678,5.679 37.594,5.94 37.205,6.007 C36.635,6.105 36.053,6.175 35.477,6.087 C34.758,5.977 34.043,5.967 33.323,6.06 C33.047,6.095 32.863,6.247 32.821,6.51 C32.704,7.244 32.636,7.986 32.455,8.614" id="Fill-12" fill="#00A3DB" sketch:type="MSShapeGroup"></path>
            <path d="M23.593,14.145 C24.518,14.133 25.324,14.067 26.125,14.213 C26.316,14.246 26.504,14.298 26.569,14.5 C26.639,14.717 26.477,14.846 26.332,14.967 C26.063,15.195 25.716,15.303 25.395,15.338 C24.646,15.418 23.897,15.603 23.139,15.505 C22.84,15.467 22.529,15.365 22.266,15.22 C21.639,14.872 20.935,14.883 20.267,14.739 C19.447,14.565 18.789,14.193 18.316,13.481 C18.016,13.027 17.744,12.554 17.523,12.066 C17.234,11.431 17.09,10.74 17.269,10.028 C17.443,9.327 17.56,8.612 18.106,8.056 C18.447,7.708 18.809,7.389 19.223,7.146 C19.639,6.901 20.006,6.582 20.432,6.362 C20.875,6.134 21.308,5.884 21.793,5.728 C22.376,5.542 22.952,5.344 23.566,5.286 C24.147,5.231 24.647,5.4 25.055,5.816 C25.215,5.979 25.267,6.196 25.178,6.398 C25.094,6.587 24.916,6.685 24.697,6.697 C24.314,6.719 23.922,6.731 23.547,6.784 C22.951,6.869 22.345,6.993 21.83,7.355 C21.588,7.525 21.307,7.619 21.037,7.732 C20.553,7.935 20.147,8.257 19.742,8.569 C19.269,8.935 19.053,9.491 18.835,10.032 C18.668,10.446 18.591,10.881 18.658,11.315 C18.723,11.723 18.91,12.103 19.129,12.453 C19.203,12.57 19.301,12.669 19.359,12.805 C19.496,13.126 19.824,13.234 20.107,13.279 C20.937,13.41 21.709,13.752 22.541,13.867 C22.935,13.922 23.285,14.197 23.593,14.145" id="Fill-13" fill="#00A3DB" sketch:type="MSShapeGroup"></path>
            <path d="M134.54,36.309 C134.402,36.332 134.229,36.268 134.048,36.163 C133.722,35.975 133.331,35.913 133.052,35.622 C132.401,34.944 131.601,34.378 131.289,33.442 C131.137,32.988 131.108,32.494 131.29,32.018 C131.399,31.73 131.355,31.384 131.629,31.154 C131.987,30.852 132.263,30.465 132.685,30.225 C132.996,30.048 133.26,29.795 133.592,29.638 C133.797,29.54 133.926,29.53 134.072,29.717 C134.199,29.878 134.289,30.049 134.336,30.243 C134.409,30.547 134.621,30.63 134.888,30.556 C135.579,30.365 136.283,30.398 136.98,30.449 C137.904,30.516 138.521,31.331 138.518,32.246 C138.517,32.73 138.402,33.211 138.514,33.702 C138.606,34.109 138.27,34.378 138.038,34.631 C137.122,35.635 135.982,36.217 134.54,36.309 L134.54,36.309 Z M132.15,32.583 C132.167,32.765 132.154,32.94 132.22,33.109 C132.63,34.181 133.612,34.564 134.521,35.036 C134.565,35.059 134.63,35.047 134.684,35.041 C135.378,34.961 135.964,34.625 136.519,34.232 C136.635,34.15 136.731,34.021 136.828,33.9 C137.185,33.461 137.22,32.941 137.286,32.418 C137.314,32.198 137.247,32.045 137.096,31.928 C136.785,31.688 136.438,31.558 136.031,31.569 C135.186,31.595 134.426,31.92 133.683,32.265 C133.141,32.517 132.803,32.455 132.529,31.934 C132.451,31.783 132.361,31.81 132.285,31.929 C132.157,32.131 132.096,32.35 132.15,32.583 L132.15,32.583 Z" id="Fill-14" fill="#4D4D4C" sketch:type="MSShapeGroup"></path>
            <path d="M181.936,7.459 C181.955,7.486 181.976,7.514 181.995,7.541 C181.969,7.623 182.002,7.697 182.047,7.758 C182.407,8.253 182.614,8.837 182.979,9.331 C183.409,9.911 183.63,10.611 184.035,11.214 C184.291,11.595 184.468,12.021 184.772,12.389 C185.019,12.689 185.361,12.95 185.435,13.385 C185.456,13.504 185.582,13.517 185.654,13.395 C185.71,13.302 185.749,13.197 185.792,13.097 C186.175,12.176 186.228,11.182 186.426,10.22 C186.552,9.613 186.481,8.999 186.577,8.392 C186.638,8.011 186.69,7.606 186.538,7.22 C186.582,7.09 186.629,6.961 186.6,6.82 C186.816,6.546 186.671,6.243 186.67,5.951 C186.719,5.758 186.7,5.567 186.659,5.376 C186.844,5.135 186.843,4.816 186.999,4.56 C187.158,4.3 187.494,4.103 187.737,4.171 C188.046,4.257 188.139,4.486 188.191,4.786 C188.247,5.098 188.103,5.372 188.107,5.665 C188.122,6.572 187.932,7.463 187.932,8.373 C187.932,9.279 187.823,10.189 187.719,11.093 C187.646,11.738 187.501,12.376 187.389,13.018 C187.374,13.074 187.36,13.13 187.346,13.187 C187.088,13.542 187.012,13.97 186.943,14.381 C186.872,14.803 186.632,15.111 186.381,15.408 C186.222,15.596 185.941,15.636 185.716,15.507 C185.247,15.24 184.879,14.812 184.649,14.37 C184.379,13.852 183.956,13.449 183.732,12.888 C183.555,12.438 183.271,11.986 182.963,11.586 C182.684,11.221 182.573,10.758 182.229,10.433 C182.065,10.276 181.971,10.054 181.895,9.832 C181.859,9.729 181.818,9.618 181.745,9.543 C181.258,9.03 180.953,8.394 180.608,7.795 C180.298,7.256 179.844,6.838 179.526,6.315 C179.482,6.243 179.43,6.19 179.339,6.232 C179.248,6.273 179.2,6.349 179.22,6.445 C179.356,7.148 179.023,7.795 178.983,8.476 C178.951,9.02 178.777,9.555 178.867,10.107 C178.859,10.178 178.852,10.248 178.845,10.319 C178.705,10.584 178.624,10.858 178.704,11.16 C178.701,11.211 178.698,11.262 178.695,11.313 C178.644,11.337 178.633,11.376 178.653,11.427 C178.616,11.519 178.612,11.613 178.633,11.709 C178.415,11.894 178.56,12.142 178.519,12.356 C178.512,12.405 178.505,12.453 178.498,12.502 C178.406,12.856 178.386,13.219 178.359,13.582 C178.332,13.973 178.419,14.381 178.255,14.75 C178.068,15.172 177.887,15.585 177.806,16.047 C177.731,16.477 177.326,16.602 176.961,16.369 C176.78,16.253 176.713,16.106 176.723,15.901 C176.732,15.716 176.768,15.527 176.693,15.347 C176.725,15.273 176.71,15.205 176.666,15.141 C176.829,14.761 176.71,14.353 176.778,13.964 C176.782,13.944 176.739,13.917 176.719,13.894 C176.735,13.806 176.752,13.717 176.768,13.629 C176.884,13.516 176.856,13.375 176.843,13.236 C176.853,13.217 176.863,13.197 176.873,13.177 C176.992,13.154 177.002,13.049 176.989,12.973 C176.934,12.661 176.983,12.351 176.976,12.04 C176.982,11.948 176.989,11.856 176.995,11.765 C177.082,11.734 177.124,11.662 177.109,11.584 C176.978,10.885 177.349,10.232 177.269,9.522 C177.217,9.051 177.187,8.555 177.253,8.07 C177.22,7.883 177.356,7.711 177.305,7.522 C177.253,6.849 177.584,6.231 177.578,5.557 C177.576,5.317 177.619,5.097 177.513,4.866 C177.365,4.544 177.494,4.179 177.811,4.049 C178.048,3.953 178.124,3.78 178.19,3.561 C178.355,3.004 178.709,2.837 179.267,3.019 C179.404,3.065 179.536,3.187 179.696,3.076 C179.926,3.16 179.949,3.39 180.042,3.57 C180.024,3.643 180.049,3.694 180.121,3.719 L180.133,3.731 C180.231,3.973 180.274,4.228 180.298,4.488 C180.31,4.621 180.277,4.784 180.479,4.817 C180.496,4.846 180.516,4.875 180.533,4.903 C180.502,5.014 180.531,5.106 180.575,5.215 C180.685,5.489 180.842,5.734 181.001,5.981 C181.316,6.472 181.565,7.003 181.936,7.459" id="Fill-15" fill="#00A3DB" sketch:type="MSShapeGroup"></path>
            <path d="M154.189,36.506 C154.165,36.523 154.142,36.54 154.119,36.558 C154.003,36.597 153.917,36.68 153.82,36.748 C153.405,37.039 153.044,37.402 152.578,37.625 C152.251,37.782 151.899,37.902 151.625,38.159 C151.525,38.156 151.427,38.158 151.355,38.243 C151.226,38.27 151.091,38.278 150.97,38.324 C150.256,38.595 149.529,38.758 148.755,38.702 C148.444,38.68 148.254,38.538 148.152,38.278 C148.054,38.023 148.247,37.519 148.483,37.445 C148.87,37.324 149.253,37.088 149.683,37.333 C149.798,37.398 149.935,37.369 150.067,37.323 C150.558,37.153 151.053,37.006 151.536,36.807 C151.985,36.622 152.413,36.43 152.792,36.127 C153.297,35.723 153.811,35.32 154.094,34.721 C154.279,34.325 154.427,33.89 154.209,33.46 C154.021,33.089 153.683,32.856 153.318,32.661 C152.83,32.4 152.291,32.296 151.773,32.121 C151.209,31.93 150.656,31.797 150.047,31.937 C149.621,32.034 149.185,32.079 148.898,31.553 C148.677,31.146 148.761,30.684 149.207,30.537 C149.404,30.472 149.623,30.461 149.812,30.378 C150.074,30.264 150.393,30.248 150.578,29.982 C151.077,29.779 151.507,29.452 151.973,29.19 C152.019,29.165 152.033,29.082 152.062,29.026 C152.185,28.996 152.266,28.916 152.322,28.807 C152.43,28.756 152.48,28.658 152.522,28.555 C152.864,28.279 153.046,27.915 153.085,27.483 C153.122,27.079 153.034,26.996 152.645,26.878 C152.452,26.819 152.247,26.918 152.07,26.797 C151.838,26.638 151.563,26.615 151.3,26.549 C150.65,26.386 150.011,26.513 149.37,26.606 C148.87,26.678 148.753,26.888 148.908,27.354 C148.95,27.477 149.115,27.638 148.967,27.74 C148.801,27.856 148.605,27.764 148.455,27.633 C148.364,27.554 148.279,27.467 148.191,27.383 C148.015,27.217 147.794,27.108 147.565,27.132 C147.234,27.166 147.101,26.977 147.007,26.731 C146.901,26.455 146.91,26.162 147.131,25.959 C147.444,25.67 147.807,25.453 148.244,25.372 C148.61,25.304 148.967,25.187 149.327,25.092 C149.347,25.082 149.366,25.072 149.386,25.063 C149.595,25.065 149.795,24.986 150.008,25.009 C150.846,25.1 151.685,25.183 152.522,25.273 C152.575,25.277 152.624,25.321 152.677,25.323 C153.153,25.344 153.518,25.673 153.959,25.793 C154.255,25.873 154.637,26.331 154.594,26.565 C154.508,27.035 154.31,27.471 154.274,27.966 C154.252,28.295 153.978,28.612 153.796,28.923 C153.67,29.14 153.537,29.363 153.359,29.535 C153.094,29.791 152.779,29.996 152.497,30.238 C152.351,30.363 152.098,30.497 152.151,30.684 C152.21,30.888 152.494,30.92 152.697,31.002 C153.33,31.259 154.025,31.349 154.589,31.799 C155.131,32.232 155.576,32.664 155.527,33.444 C155.483,34.153 155.276,34.786 154.949,35.41 C154.737,35.813 154.344,36.075 154.189,36.506" id="Fill-16" fill="#4D4D4C" sketch:type="MSShapeGroup"></path>
            <path d="M204.314,9.035 C204.411,8.979 204.482,8.905 204.48,8.783 C204.548,8.746 204.572,8.691 204.543,8.617 C204.618,8.588 204.635,8.53 204.621,8.458 C204.753,8.409 204.811,8.285 204.811,8.173 C204.811,7.941 204.957,7.785 205.06,7.61 C205.173,7.423 205.248,7.219 205.344,7.027 C205.533,6.649 205.547,6.207 205.784,5.858 C206.088,5.414 206.368,4.967 206.521,4.44 C206.587,4.209 206.789,4.026 206.81,3.757 C206.817,3.664 206.918,3.563 207.001,3.494 C207.198,3.332 207.43,3.282 207.68,3.354 C207.858,3.406 208.009,3.494 208.029,3.704 C208.089,4.33 207.955,4.951 207.606,5.434 C207.275,5.893 207.109,6.404 206.902,6.898 C206.71,7.359 206.539,7.833 206.325,8.285 C205.921,9.143 205.644,10.053 205.215,10.903 C205.049,11.234 204.881,11.568 204.723,11.903 C204.585,12.196 204.249,12.275 204.136,12.554 C203.938,13.039 203.493,13.125 203.077,13.14 C202.75,13.15 202.493,12.873 202.303,12.603 C202.071,12.274 201.855,11.935 201.646,11.593 C201.478,11.321 201.246,11.09 201.09,10.827 C200.774,10.295 200.534,9.716 200.205,9.19 C199.748,8.457 199.402,7.669 199.009,6.905 C198.758,6.42 198.508,5.933 198.239,5.455 C198.118,5.242 198.164,5.042 198.25,4.858 C198.337,4.676 198.531,4.756 198.692,4.743 C199.081,4.713 199.395,4.847 199.668,5.106 C199.669,5.144 199.671,5.181 199.673,5.218 C199.482,5.589 199.798,5.804 199.936,6.073 C199.944,6.12 199.953,6.168 199.962,6.216 C200.082,6.443 200.199,6.683 200.338,6.888 C200.517,7.153 200.555,7.51 200.848,7.699 C200.862,7.735 200.878,7.771 200.894,7.806 C200.87,7.936 200.934,7.997 201.057,8.012 L201.063,8.019 C201.114,8.485 201.378,8.848 201.648,9.206 C201.676,9.296 201.739,9.353 201.818,9.396 C201.712,9.76 202.032,9.957 202.146,10.235 C202.138,10.331 202.203,10.393 202.251,10.461 C202.237,10.7 202.389,10.829 202.569,10.938 C202.581,11.016 202.633,11.05 202.704,11.065 C202.726,11.236 202.726,11.434 202.92,11.502 C203.114,11.571 203.19,11.363 203.323,11.289 C203.643,11.11 203.674,10.762 203.812,10.493 C204.045,10.039 204.398,9.606 204.314,9.035" id="Fill-17" fill="#00A3DB" sketch:type="MSShapeGroup"></path>
            <path d="M178.217,27.299 C178.282,27.307 178.339,27.29 178.385,27.241 C178.821,26.991 179.237,26.712 179.606,26.366 C179.625,26.369 179.639,26.361 179.646,26.343 C179.709,26.34 179.796,26.363 179.834,26.33 C180.314,25.92 181.008,25.82 181.378,25.254 C181.435,25.164 181.543,25.158 181.645,25.149 C182.03,25.12 182.407,25.237 182.797,25.206 C182.99,25.19 183.163,25.488 183.105,25.696 C183.051,25.889 183.058,26.093 183.008,26.279 C182.898,26.681 183.102,27.107 182.924,27.483 C182.645,28.076 182.717,28.703 182.684,29.318 C182.658,29.808 182.73,30.302 182.722,30.793 C182.717,31.087 182.587,31.383 182.607,31.672 C182.649,32.266 182.441,32.812 182.339,33.376 C182.297,33.606 182.267,33.829 182.291,34.057 C182.329,34.431 182.259,34.807 182.329,35.181 C182.357,35.33 182.355,35.486 182.357,35.641 C182.363,36.012 182.103,36.272 181.739,36.32 C181.332,36.375 181.022,36.199 180.723,35.97 C180.718,35.861 180.718,35.753 180.661,35.655 C180.762,35.56 180.732,35.434 180.754,35.316 C180.849,34.8 180.75,34.269 180.898,33.753 C180.948,33.574 181.039,33.356 180.898,33.16 C180.898,33.086 180.898,33.013 180.899,32.94 C181.155,32.422 181.161,31.872 181.097,31.315 C181.094,31.237 181.091,31.159 181.088,31.082 C181.389,30.653 181.216,30.152 181.296,29.689 C181.386,29.168 181.098,28.672 181.15,28.136 C181.19,27.721 181.063,27.639 180.646,27.719 C180.228,27.8 179.815,27.96 179.588,28.333 C179.473,28.522 179.373,28.721 179.229,28.893 C179.161,28.898 179.094,28.904 179.026,28.909 C178.785,28.899 178.529,28.782 178.317,29 C178.16,28.937 177.995,28.992 177.835,28.976 C177.82,28.915 177.784,28.894 177.725,28.913 C177.703,28.905 177.683,28.898 177.662,28.892 C177.647,28.841 177.646,28.779 177.617,28.739 C177.376,28.4 177.458,28.1 177.647,27.756 C177.786,27.504 178.096,27.531 178.217,27.299" id="Fill-18" fill="#4D4D4C" sketch:type="MSShapeGroup"></path>
            <path d="M189.75,10.321 C189.752,10.227 189.753,10.131 189.753,10.036 C189.836,9.686 189.882,9.326 190.069,9.007 C190.356,8.518 190.666,8.038 190.911,7.528 C191.056,7.228 191.244,7.034 191.543,6.907 C191.796,6.8 192,6.632 192.153,6.379 C192.274,6.181 192.474,6.015 192.729,5.966 C193.663,5.785 194.529,5.841 195.359,6.422 C196.119,6.953 196.362,7.726 196.589,8.53 C196.634,8.69 196.539,8.888 196.581,9.049 C196.728,9.604 196.565,10.117 196.393,10.623 C196.339,10.784 196.397,10.965 196.294,11.093 C195.789,11.726 195.422,12.512 194.545,12.745 C194.291,12.813 194.092,13.075 193.785,12.957 C193.506,12.851 193.219,12.905 192.937,12.933 C192.828,12.943 192.729,12.953 192.617,12.935 C192.245,12.875 191.899,12.736 191.543,12.629 C190.706,12.374 190.109,11.872 189.886,10.997 C189.829,10.774 189.795,10.547 189.75,10.321 L189.75,10.321 Z M190.901,10.161 C190.923,10.615 191.112,10.964 191.378,11.175 C192.036,11.695 192.875,11.732 193.644,11.65 C194.113,11.601 194.527,11.164 194.827,10.718 C195.103,10.307 195.122,9.843 195.22,9.385 C195.373,8.669 195.138,8.116 194.666,7.624 C194.557,7.509 194.49,7.337 194.307,7.299 C193.984,7.231 193.664,7.145 193.338,7.1 C193.098,7.067 192.876,7.147 192.762,7.387 C192.616,7.692 192.375,7.826 192.046,7.811 C191.843,7.802 191.707,7.867 191.671,8.088 C191.659,8.16 191.624,8.242 191.574,8.294 C191.058,8.84 191.162,9.594 190.901,10.161 L190.901,10.161 Z" id="Fill-19" fill="#00A3DB" sketch:type="MSShapeGroup"></path>
            <path d="M175.534,38.332 C175.53,38.31 175.518,38.294 175.496,38.285 C175.481,38.232 175.47,38.179 175.449,38.129 C175.238,37.593 175.385,37.333 175.933,37.217 C176.142,37.172 176.347,37.181 176.554,37.163 C176.759,37.146 176.973,37.222 177.169,37.107 C177.286,37.106 177.404,37.106 177.523,37.104 C177.783,37.222 178.067,37.22 178.326,37.163 C178.858,37.046 179.392,37.104 179.924,37.084 C180.428,37.065 180.939,37.125 181.435,37.063 C182.172,36.969 182.911,36.977 183.658,36.81 C184.388,36.646 185.209,36.584 186.005,36.759 C186.36,36.838 186.569,37.003 186.682,37.292 C186.798,37.589 186.601,37.801 186.387,37.999 C186.129,38.237 185.833,38.232 185.522,38.214 C185.204,38.195 184.878,38.137 184.57,38.185 C183.972,38.281 183.395,38.457 182.773,38.278 C182.111,38.089 181.432,38.352 180.745,38.246 C180.16,38.157 179.544,38.269 178.941,38.296 C178.84,38.301 178.714,38.251 178.653,38.39 C178.602,38.396 178.55,38.399 178.498,38.404 C178.422,38.406 178.346,38.402 178.27,38.409 C177.356,38.485 176.44,38.575 175.534,38.332" id="Fill-20" fill="#4D4D4C" sketch:type="MSShapeGroup"></path>
            <path d="M158.642,35.057 C158.714,34.357 158.567,33.753 158.554,33.141 C158.535,32.338 158.536,31.523 158.666,30.744 C158.766,30.146 158.784,29.53 158.962,28.941 C159.052,28.644 158.988,28.329 158.945,28.023 C158.86,27.399 159.348,27.011 159.931,27.237 C160.109,27.307 160.321,27.785 160.226,28.01 C159.97,28.608 160.066,29.226 160.064,29.844 C160.063,30.166 160.038,30.499 159.993,30.821 C159.893,31.548 159.898,32.279 159.857,33.009 C159.81,33.869 159.908,34.73 159.952,35.589 C159.961,35.766 159.946,35.935 159.922,36.112 C159.877,36.445 159.816,36.793 160.067,37.093 C160.151,37.194 160.139,37.325 160.06,37.431 C159.97,37.552 159.854,37.489 159.765,37.433 C159.44,37.229 159.06,37.093 158.984,36.621 C158.91,36.152 158.648,35.727 158.642,35.237 C158.641,35.149 158.642,35.061 158.642,35.057" id="Fill-21" fill="#4D4D4C" sketch:type="MSShapeGroup"></path>
        </g>
    </g>
</svg>