<?xml version="1.0" encoding="UTF-8" standalone="no"?>
<svg width="567px" height="203px" viewBox="0 0 567 203" version="1.1" xmlns="http://www.w3.org/2000/svg" xmlns:xlink="http://www.w3.org/1999/xlink" xmlns:sketch="http://www.bohemiancoding.com/sketch/ns">
    <!-- Generator: Sketch 3.3.3 (12081) - http://www.bohemiancoding.com/sketch -->
    <title>flying_papers</title>
    <desc>Created with Sketch.</desc>
    <defs></defs>
    <g id="Page-1" stroke="none" stroke-width="1" fill="none" fill-rule="evenodd" sketch:type="MSPage">
        <g id="flying_papers" sketch:type="MSLayerGroup" transform="translate(1.000000, 0.000000)">
            <path d="M309.666,136.221 C309.719,148.388 310.705,160.376 312.6,172.47 C296.438,171.318 280.273,170.172 264.112,169.009 C261.224,156.858 259.255,144.742 258.2,132.405 C275.354,133.683 292.51,134.949 309.666,136.221 L309.666,136.221 Z" id="Fill-1" fill="#C8CCCA" sketch:type="MSShapeGroup"></path>
            <path d="M309.666,136.221 C309.719,148.388 310.705,160.376 312.6,172.47 C296.438,171.318 280.273,170.172 264.112,169.009 C261.224,156.858 259.255,144.742 258.2,132.405 C275.354,133.683 292.51,134.949 309.666,136.221 L309.666,136.221 Z" id="Stroke-2" stroke="#7A7B7A" sketch:type="MSShapeGroup"></path>
            <path d="M312.908,172.754 L300.667,171.883 C288.476,171.015 276.283,170.148 264.093,169.27 L263.901,169.256 L263.857,169.07 C260.93,156.752 258.994,144.766 257.94,132.428 L257.913,132.122 L258.22,132.145 C269.781,133.005 281.344,133.861 292.906,134.717 L309.928,135.978 L309.928,136.22 C309.979,148.337 310.94,160.181 312.857,172.429 L312.908,172.754 L312.908,172.754 Z M264.322,168.762 C276.449,169.635 288.576,170.498 300.705,171.361 L312.29,172.186 C310.412,160.108 309.469,148.416 309.406,136.464 L292.867,135.239 C281.407,134.391 269.947,133.543 258.487,132.689 C259.54,144.832 261.45,156.637 264.322,168.762 L264.322,168.762 Z" id="Fill-3" fill="#C8CCCA" sketch:type="MSShapeGroup"></path>
            <path d="M312.908,172.754 L300.667,171.883 C288.476,171.015 276.283,170.148 264.093,169.27 L263.901,169.256 L263.857,169.07 C260.93,156.752 258.994,144.766 257.94,132.428 L257.913,132.122 L258.22,132.145 C269.781,133.005 281.344,133.861 292.906,134.717 L309.928,135.978 L309.928,136.22 C309.979,148.337 310.94,160.181 312.857,172.429 L312.908,172.754 L312.908,172.754 Z M264.322,168.762 C276.449,169.635 288.576,170.498 300.705,171.361 L312.29,172.186 C310.412,160.108 309.469,148.416 309.406,136.464 L292.867,135.239 C281.407,134.391 269.947,133.543 258.487,132.689 C259.54,144.832 261.45,156.637 264.322,168.762 L264.322,168.762 Z" id="Stroke-4" stroke="#7A7B7A" sketch:type="MSShapeGroup"></path>
            <path d="M45.47,188.715 C34.384,191.158 23.772,194.376 13.182,198.467 C9.856,183.255 6.531,168.043 3.223,152.828 C13.585,147.822 24.039,143.667 35.028,140.25 C38.509,156.405 41.997,172.559 45.47,188.715 L45.47,188.715 Z" id="Fill-5" fill="#C8CCCA" sketch:type="MSShapeGroup"></path>
            <path d="M45.47,188.715 C34.384,191.158 23.772,194.376 13.182,198.467 C9.856,183.255 6.531,168.043 3.223,152.828 C13.585,147.822 24.039,143.667 35.028,140.25 C38.509,156.405 41.997,172.559 45.47,188.715 L45.47,188.715 Z" id="Stroke-6" stroke="#7A7B7A" stroke-width="1.7" sketch:type="MSShapeGroup"></path>
            <path d="M283.392,149.518 C271.321,155.241 259.879,161.672 248.739,168.972 C242.139,154.368 235.534,139.765 228.946,125.153 C239.666,116.97 250.763,109.623 262.524,102.943 C269.475,118.469 276.435,133.991 283.392,149.518 L283.392,149.518 Z" id="Fill-7" fill="#C8CCCA" sketch:type="MSShapeGroup"></path>
            <path d="M283.392,149.518 C271.321,155.241 259.879,161.672 248.739,168.972 C242.139,154.368 235.534,139.765 228.946,125.153 C239.666,116.97 250.763,109.623 262.524,102.943 C269.475,118.469 276.435,133.991 283.392,149.518 L283.392,149.518 Z" id="Stroke-8" stroke="#7A7B7A" sketch:type="MSShapeGroup"></path>
            <path d="M248.626,169.358 L244.532,160.299 C239.253,148.622 233.974,136.944 228.707,125.261 L228.622,125.072 L228.787,124.946 C239.605,116.687 250.598,109.416 262.395,102.716 L262.645,102.573 L262.763,102.836 C266.707,111.645 270.653,120.453 274.602,129.26 L283.733,149.645 L283.503,149.754 C271.432,155.477 260.108,161.835 248.882,169.191 L248.626,169.358 L248.626,169.358 Z M229.27,125.235 C234.509,136.855 239.759,148.469 245.008,160.084 L248.852,168.585 C259.942,161.334 271.135,155.052 283.047,149.392 L274.123,129.475 C270.215,120.754 266.308,112.035 262.403,103.313 C250.782,109.928 239.939,117.103 229.27,125.235 L229.27,125.235 Z" id="Fill-9" fill="#C8CCCA" sketch:type="MSShapeGroup"></path>
            <path d="M248.626,169.358 L244.532,160.299 C239.253,148.622 233.974,136.944 228.707,125.261 L228.622,125.072 L228.787,124.946 C239.605,116.687 250.598,109.416 262.395,102.716 L262.645,102.573 L262.763,102.836 C266.707,111.645 270.653,120.453 274.602,129.26 L283.733,149.645 L283.503,149.754 C271.432,155.477 260.108,161.835 248.882,169.191 L248.626,169.358 L248.626,169.358 Z M229.27,125.235 C234.509,136.855 239.759,148.469 245.008,160.084 L248.852,168.585 C259.942,161.334 271.135,155.052 283.047,149.392 L274.123,129.475 C270.215,120.754 266.308,112.035 262.403,103.313 C250.782,109.928 239.939,117.103 229.27,125.235 L229.27,125.235 Z" id="Stroke-10" stroke="#7A7B7A" sketch:type="MSShapeGroup"></path>
            <path d="M253.156,32.896 C251.533,40.318 250.816,47.762 250.944,55.44 C235.611,52.166 220.278,48.893 204.946,45.609 C203.88,37.743 203.672,30.065 204.354,22.375 C220.62,25.883 236.888,29.387 253.156,32.896 L253.156,32.896 Z" id="Fill-11" fill="#C8CCCA" sketch:type="MSShapeGroup"></path>
            <path d="M253.156,32.896 C251.533,40.318 250.816,47.762 250.944,55.44 C235.611,52.166 220.278,48.893 204.946,45.609 C203.88,37.743 203.672,30.065 204.354,22.375 C220.62,25.883 236.888,29.387 253.156,32.896 L253.156,32.896 Z" id="Stroke-12" stroke="#7A7B7A" sketch:type="MSShapeGroup"></path>
            <path d="M251.211,55.765 L243.387,54.094 C230.555,51.354 217.723,48.613 204.892,45.865 L204.712,45.827 L204.687,45.645 C203.606,37.665 203.412,30.046 204.094,22.352 L204.12,22.056 L253.467,32.695 L253.411,32.951 C251.798,40.333 251.077,47.687 251.206,55.436 L251.211,55.765 L251.211,55.765 Z M205.181,45.392 C217.951,48.127 230.725,50.855 243.497,53.582 L250.678,55.116 C250.574,47.537 251.284,40.326 252.844,33.096 L204.589,22.693 C203.946,30.19 204.14,37.62 205.181,45.392 L205.181,45.392 Z" id="Fill-13" fill="#C8CCCA" sketch:type="MSShapeGroup"></path>
            <path d="M251.211,55.765 L243.387,54.094 C230.555,51.354 217.723,48.613 204.892,45.865 L204.712,45.827 L204.687,45.645 C203.606,37.665 203.412,30.046 204.094,22.352 L204.12,22.056 L253.467,32.695 L253.411,32.951 C251.798,40.333 251.077,47.687 251.206,55.436 L251.211,55.765 L251.211,55.765 Z M205.181,45.392 C217.951,48.127 230.725,50.855 243.497,53.582 L250.678,55.116 C250.574,47.537 251.284,40.326 252.844,33.096 L204.589,22.693 C203.946,30.19 204.14,37.62 205.181,45.392 L205.181,45.392 Z" id="Stroke-14" stroke="#7A7B7A" sketch:type="MSShapeGroup"></path>
            <path d="M0.824,87.825 C16.489,86.682 31.847,86.464 47.193,87.096 C47.419,71.929 47.656,56.761 47.869,41.595 C32.552,40.023 17.13,39.324 1.361,39.54 C1.189,55.634 1.007,71.73 0.824,87.825 L0.824,87.825 Z" id="Fill-15" fill="#C8CCCA" sketch:type="MSShapeGroup"></path>
            <path d="M0.824,87.825 C16.489,86.682 31.847,86.464 47.193,87.096 C47.419,71.929 47.656,56.761 47.869,41.595 C32.552,40.023 17.13,39.324 1.361,39.54 C1.189,55.634 1.007,71.73 0.824,87.825 L0.824,87.825 Z" id="Stroke-16" stroke="#7A7B7A" stroke-width="1.7" sketch:type="MSShapeGroup"></path>
            <path d="M212.456,71.637 C209.505,83.44 205.689,94.847 200.963,106.14 C216.935,108.875 232.905,111.616 248.878,114.341 C254.58,103.229 259.381,91.932 263.348,80.202 C246.384,77.352 229.42,74.492 212.456,71.637 L212.456,71.637 Z" id="Fill-17" fill="#C8CCCA" sketch:type="MSShapeGroup"></path>
            <path d="M212.456,71.637 C209.505,83.44 205.689,94.847 200.963,106.14 C216.935,108.875 232.905,111.616 248.878,114.341 C254.58,103.229 259.381,91.932 263.348,80.202 C246.384,77.352 229.42,74.492 212.456,71.637 L212.456,71.637 Z" id="Stroke-18" stroke="#7A7B7A" sketch:type="MSShapeGroup"></path>
            <path d="M200.722,106.039 C205.507,94.602 209.262,83.328 212.203,71.573 L212.261,71.338 L229.092,74.172 C240.525,76.098 251.957,78.024 263.39,79.944 L263.694,79.996 L263.595,80.286 C259.628,92.018 254.891,103.196 249.109,114.46 L249.022,114.631 L248.833,114.599 C236.784,112.544 224.738,110.48 212.693,108.415 L200.596,106.342 L200.722,106.039 L200.722,106.039 Z M263,80.409 C251.669,78.506 240.336,76.597 229.003,74.689 L212.652,71.935 C209.739,83.527 206.035,94.656 201.332,105.938 L212.781,107.899 C224.763,109.953 236.747,112.007 248.732,114.051 C254.412,102.96 259.082,91.951 263,80.409 L263,80.409 Z" id="Fill-19" fill="#C8CCCA" sketch:type="MSShapeGroup"></path>
            <path d="M200.722,106.039 C205.507,94.602 209.262,83.328 212.203,71.573 L212.261,71.338 L229.092,74.172 C240.525,76.098 251.957,78.024 263.39,79.944 L263.694,79.996 L263.595,80.286 C259.628,92.018 254.891,103.196 249.109,114.46 L249.022,114.631 L248.833,114.599 C236.784,112.544 224.738,110.48 212.693,108.415 L200.596,106.342 L200.722,106.039 L200.722,106.039 Z M263,80.409 C251.669,78.506 240.336,76.597 229.003,74.689 L212.652,71.935 C209.739,83.527 206.035,94.656 201.332,105.938 L212.781,107.899 C224.763,109.953 236.747,112.007 248.732,114.051 C254.412,102.96 259.082,91.951 263,80.409 L263,80.409 Z" id="Stroke-20" stroke="#7A7B7A" sketch:type="MSShapeGroup"></path>
            <path d="M71.322,64.13 C69.98,75.573 69.415,86.516 69.574,97.293 C56.415,101.66 43.256,106.03 30.099,110.384 C29.134,99.891 28.906,89.162 29.44,77.891 C43.399,73.308 57.361,68.714 71.322,64.13 L71.322,64.13 Z" id="Fill-21" fill="#C8CCCA" sketch:type="MSShapeGroup"></path>
            <path d="M71.322,64.13 C69.98,75.573 69.415,86.516 69.574,97.293 C56.415,101.66 43.256,106.03 30.099,110.384 C29.134,99.891 28.906,89.162 29.44,77.891 C43.399,73.308 57.361,68.714 71.322,64.13 L71.322,64.13 Z" id="Stroke-22" stroke="#7A7B7A" sketch:type="MSShapeGroup"></path>
            <path d="M69.805,97.595 L63.09,99.824 C52.078,103.48 41.064,107.135 30.054,110.778 L29.899,110.83 L29.877,110.586 C28.899,99.942 28.682,89.287 29.217,78.012 L29.237,77.579 L71.587,63.664 L71.54,64.059 C70.206,75.439 69.637,86.256 69.798,97.134 L69.805,97.595 L69.805,97.595 Z M30.298,109.94 C41.259,106.313 52.22,102.674 63.18,99.036 L69.343,96.991 C69.205,86.339 69.767,75.731 71.056,64.596 L29.643,78.204 C29.142,89.176 29.356,99.565 30.298,109.94 L30.298,109.94 Z" id="Fill-23" fill="#C8CCCA" sketch:type="MSShapeGroup"></path>
            <path d="M69.805,97.595 L63.09,99.824 C52.078,103.48 41.064,107.135 30.054,110.778 L29.899,110.83 L29.877,110.586 C28.899,99.942 28.682,89.287 29.217,78.012 L29.237,77.579 L71.587,63.664 L71.54,64.059 C70.206,75.439 69.637,86.256 69.798,97.134 L69.805,97.595 L69.805,97.595 Z M30.298,109.94 C41.259,106.313 52.22,102.674 63.18,99.036 L69.343,96.991 C69.205,86.339 69.767,75.731 71.056,64.596 L29.643,78.204 C29.142,89.176 29.356,99.565 30.298,109.94 L30.298,109.94 Z" id="Stroke-24" stroke="#7A7B7A" sketch:type="MSShapeGroup"></path>
            <path d="M271.57,99.419 C281.755,104.434 291.293,110.09 300.602,116.588 C307.46,102.608 314.316,88.627 321.157,74.64 C312.287,67.307 303.126,60.781 293.268,54.841 C286.035,69.7 278.797,84.556 271.57,99.419 L271.57,99.419 Z" id="Fill-25" fill="#C8CCCA" sketch:type="MSShapeGroup"></path>
            <path d="M271.57,99.419 C281.755,104.434 291.293,110.09 300.602,116.588 C307.46,102.608 314.316,88.627 321.157,74.64 C312.287,67.307 303.126,60.781 293.268,54.841 C286.035,69.7 278.797,84.556 271.57,99.419 L271.57,99.419 Z" id="Stroke-26" stroke="#7A7B7A" stroke-width="1.7" sketch:type="MSShapeGroup"></path>
            <path d="M166.811,146.361 C174.446,157.323 181.183,168.589 187.227,180.458 C200.207,171.06 213.194,161.666 226.168,152.256 C220.928,139.828 214.946,127.941 208.055,116.301 C194.312,126.325 180.561,136.339 166.811,146.361 L166.811,146.361 Z" id="Fill-27" fill="#C8CCCA" sketch:type="MSShapeGroup"></path>
            <path d="M166.811,146.361 C174.446,157.323 181.183,168.589 187.227,180.458 C200.207,171.06 213.194,161.666 226.168,152.256 C220.928,139.828 214.946,127.941 208.055,116.301 C194.312,126.325 180.561,136.339 166.811,146.361 L166.811,146.361 Z" id="Stroke-28" stroke="#7A7B7A" sketch:type="MSShapeGroup"></path>
            <path d="M186.992,180.576 C180.902,168.616 174.231,157.473 166.598,146.511 L166.452,146.301 L184.501,133.144 C192.304,127.46 200.104,121.777 207.901,116.09 L208.134,115.92 L208.28,116.168 C215.192,127.843 221.121,139.614 226.41,152.154 L226.49,152.346 L226.321,152.468 C215.948,159.991 205.566,167.505 195.185,175.019 L187.132,180.848 L186.992,180.576 L186.992,180.576 Z M207.977,116.683 C200.256,122.313 192.535,127.94 184.811,133.568 L167.174,146.422 C174.7,157.252 181.294,168.263 187.319,180.064 L194.878,174.595 C205.202,167.123 215.528,159.648 225.847,152.167 C220.626,139.808 214.777,128.196 207.977,116.683 L207.977,116.683 Z" id="Fill-29" fill="#C8CCCA" sketch:type="MSShapeGroup"></path>
            <path d="M186.992,180.576 C180.902,168.616 174.231,157.473 166.598,146.511 L166.452,146.301 L184.501,133.144 C192.304,127.46 200.104,121.777 207.901,116.09 L208.134,115.92 L208.28,116.168 C215.192,127.843 221.121,139.614 226.41,152.154 L226.49,152.346 L226.321,152.468 C215.948,159.991 205.566,167.505 195.185,175.019 L187.132,180.848 L186.992,180.576 L186.992,180.576 Z M207.977,116.683 C200.256,122.313 192.535,127.94 184.811,133.568 L167.174,146.422 C174.7,157.252 181.294,168.263 187.319,180.064 L194.878,174.595 C205.202,167.123 215.528,159.648 225.847,152.167 C220.626,139.808 214.777,128.196 207.977,116.683 L207.977,116.683 Z" id="Stroke-30" stroke="#7A7B7A" sketch:type="MSShapeGroup"></path>
            <path d="M360.559,125.857 C362.56,131.452 363.979,137.47 364.815,144.07 C377.791,140.176 392.997,135.611 411.05,130.181 C409.869,121.772 407.71,114.162 404.586,107.174 C387.448,114.448 372.962,120.592 360.559,125.857 L360.559,125.857 Z" id="Fill-31" fill="#C8CCCA" sketch:type="MSShapeGroup"></path>
            <path d="M360.559,125.857 C362.56,131.452 363.979,137.47 364.815,144.07 C377.791,140.176 392.997,135.611 411.05,130.181 C409.869,121.772 407.71,114.162 404.586,107.174 C387.448,114.448 372.962,120.592 360.559,125.857 L360.559,125.857 Z" id="Stroke-32" stroke="#7A7B7A" sketch:type="MSShapeGroup"></path>
            <path d="M364.609,144.102 C363.779,137.488 362.379,131.552 360.393,125.986 L360.286,125.69 L404.745,106.746 L404.876,107.038 C408.026,114.063 410.2,121.654 411.404,130.18 L411.447,130.475 L411.194,130.55 C394.132,135.65 379.623,139.977 367.14,143.7 L364.651,144.441 L364.609,144.102 L364.609,144.102 Z M404.429,107.604 L360.831,126.027 C362.76,131.467 364.137,137.265 364.975,143.701 L367.015,143.085 C379.398,139.344 393.773,135.001 410.655,129.888 C409.49,121.704 407.416,114.389 404.429,107.604 L404.429,107.604 Z" id="Fill-33" fill="#C8CCCA" sketch:type="MSShapeGroup"></path>
            <path d="M364.609,144.102 C363.779,137.488 362.379,131.552 360.393,125.986 L360.286,125.69 L404.745,106.746 L404.876,107.038 C408.026,114.063 410.2,121.654 411.404,130.18 L411.447,130.475 L411.194,130.55 C394.132,135.65 379.623,139.977 367.14,143.7 L364.651,144.441 L364.609,144.102 L364.609,144.102 Z M404.429,107.604 L360.831,126.027 C362.76,131.467 364.137,137.265 364.975,143.701 L367.015,143.085 C379.398,139.344 393.773,135.001 410.655,129.888 C409.49,121.704 407.416,114.389 404.429,107.604 L404.429,107.604 Z" id="Stroke-34" stroke="#7A7B7A" sketch:type="MSShapeGroup"></path>
            <path d="M438.518,104.175 C447.678,98.877 457.133,94.127 467.102,89.775 C458.638,82.21 450.175,74.643 441.702,67.085 C431.228,70.968 421.216,75.284 411.454,80.154 C420.477,88.159 429.495,96.169 438.518,104.175 L438.518,104.175 Z" id="Fill-35" fill="#C8CCCA" sketch:type="MSShapeGroup"></path>
            <path d="M438.518,104.175 C447.678,98.877 457.133,94.127 467.102,89.775 C458.638,82.21 450.175,74.643 441.702,67.085 C431.228,70.968 421.216,75.284 411.454,80.154 C420.477,88.159 429.495,96.169 438.518,104.175 L438.518,104.175 Z" id="Stroke-36" stroke="#7A7B7A" sketch:type="MSShapeGroup"></path>
            <path d="M467.177,89.933 C457.089,94.337 447.755,99.041 438.641,104.31 L438.411,104.441 L426.821,94.152 C421.619,89.538 416.42,84.92 411.218,80.306 L411.051,80.158 L411.355,80.005 C421.112,75.137 431.022,70.855 441.651,66.917 L441.84,66.846 L441.939,66.934 C448.481,72.77 455.016,78.609 461.549,84.449 L467.518,89.784 L467.177,89.933 L467.177,89.933 Z M411.857,80.151 C417.003,84.717 422.147,89.283 427.292,93.851 L438.623,103.907 C447.593,98.733 456.777,94.103 466.685,89.764 L461.075,84.751 C454.574,78.94 448.074,73.129 441.565,67.324 C431.151,71.192 421.426,75.39 411.857,80.151 L411.857,80.151 Z" id="Fill-37" fill="#C8CCCA" sketch:type="MSShapeGroup"></path>
            <path d="M467.177,89.933 C457.089,94.337 447.755,99.041 438.641,104.31 L438.411,104.441 L426.821,94.152 C421.619,89.538 416.42,84.92 411.218,80.306 L411.051,80.158 L411.355,80.005 C421.112,75.137 431.022,70.855 441.651,66.917 L441.84,66.846 L441.939,66.934 C448.481,72.77 455.016,78.609 461.549,84.449 L467.518,89.784 L467.177,89.933 L467.177,89.933 Z M411.857,80.151 C417.003,84.717 422.147,89.283 427.292,93.851 L438.623,103.907 C447.593,98.733 456.777,94.103 466.685,89.764 L461.075,84.751 C454.574,78.94 448.074,73.129 441.565,67.324 C431.151,71.192 421.426,75.39 411.857,80.151 L411.857,80.151 Z" id="Stroke-38" stroke="#7A7B7A" sketch:type="MSShapeGroup"></path>
            <path d="M78.428,45.577 C86.632,50.883 94.222,56.873 101.426,63.664 C109.083,49.801 116.742,35.94 124.388,22.073 C117.667,14.441 110.501,7.583 102.705,1.372 C94.616,16.108 86.52,30.841 78.428,45.577 L78.428,45.577 Z" id="Fill-39" fill="#C8CCCA" sketch:type="MSShapeGroup"></path>
            <path d="M78.428,45.577 C86.632,50.883 94.222,56.873 101.426,63.664 C109.083,49.801 116.742,35.94 124.388,22.073 C117.667,14.441 110.501,7.583 102.705,1.372 C94.616,16.108 86.52,30.841 78.428,45.577 L78.428,45.577 Z" id="Stroke-40" stroke="#7A7B7A" sketch:type="MSShapeGroup"></path>
            <path d="M101.246,63.854 C93.958,56.982 86.448,51.076 78.287,45.797 L78.08,45.664 L88.481,26.73 C93.146,18.235 97.812,9.741 102.476,1.246 L102.626,0.974 L102.869,1.167 C110.662,7.376 117.765,14.158 124.585,21.9 L124.706,22.039 L124.618,22.2 C118.714,32.905 112.803,43.607 106.893,54.309 L101.492,64.085 L101.246,63.854 L101.246,63.854 Z M102.786,1.771 C98.171,10.175 93.555,18.578 88.939,26.981 L78.775,45.49 C86.794,50.693 94.186,56.504 101.36,63.242 L106.434,54.056 C112.316,43.408 118.196,32.76 124.07,22.108 C117.38,14.527 110.412,7.87 102.786,1.771 L102.786,1.771 Z" id="Fill-41" fill="#C8CCCA" sketch:type="MSShapeGroup"></path>
            <path d="M101.246,63.854 C93.958,56.982 86.448,51.076 78.287,45.797 L78.08,45.664 L88.481,26.73 C93.146,18.235 97.812,9.741 102.476,1.246 L102.626,0.974 L102.869,1.167 C110.662,7.376 117.765,14.158 124.585,21.9 L124.706,22.039 L124.618,22.2 C118.714,32.905 112.803,43.607 106.893,54.309 L101.492,64.085 L101.246,63.854 L101.246,63.854 Z M102.786,1.771 C98.171,10.175 93.555,18.578 88.939,26.981 L78.775,45.49 C86.794,50.693 94.186,56.504 101.36,63.242 L106.434,54.056 C112.316,43.408 118.196,32.76 124.07,22.108 C117.38,14.527 110.412,7.87 102.786,1.771 L102.786,1.771 Z" id="Stroke-42" stroke="#7A7B7A" sketch:type="MSShapeGroup"></path>
            <path d="M149.657,92.272 C159.053,87.898 168.589,84.687 178.464,82.511 C172.931,64.029 167.4,45.544 161.859,27.066 C151.653,28.1 141.737,30.21 131.923,33.472 C137.837,53.068 143.746,72.67 149.657,92.272 L149.657,92.272 Z" id="Fill-43" fill="#C8CCCA" sketch:type="MSShapeGroup"></path>
            <path d="M149.657,92.272 C159.053,87.898 168.589,84.687 178.464,82.511 C172.931,64.029 167.4,45.544 161.859,27.066 C151.653,28.1 141.737,30.21 131.923,33.472 C137.837,53.068 143.746,72.67 149.657,92.272 L149.657,92.272 Z" id="Stroke-44" stroke="#7A7B7A" sketch:type="MSShapeGroup"></path>
            <path d="M178.52,82.812 C168.52,85.014 159.106,88.204 149.736,92.563 L149.577,92.637 L144.549,75.971 C140.288,61.835 136.025,47.698 131.759,33.565 L131.66,33.239 L131.855,33.176 C141.681,29.909 151.481,27.812 161.815,26.765 L161.954,26.75 L162.021,26.974 C166.086,40.526 170.144,54.082 174.202,67.638 L178.729,82.765 L178.52,82.812 L178.52,82.812 Z M132.182,33.704 C136.416,47.729 140.646,61.757 144.877,75.785 L149.738,91.905 C159.004,87.607 168.316,84.45 178.195,82.258 L173.875,67.821 C169.838,54.339 165.803,40.859 161.762,27.382 C151.562,28.426 141.885,30.494 132.182,33.704 L132.182,33.704 Z" id="Fill-45" fill="#C8CCCA" sketch:type="MSShapeGroup"></path>
            <path d="M178.52,82.812 C168.52,85.014 159.106,88.204 149.736,92.563 L149.577,92.637 L144.549,75.971 C140.288,61.835 136.025,47.698 131.759,33.565 L131.66,33.239 L131.855,33.176 C141.681,29.909 151.481,27.812 161.815,26.765 L161.954,26.75 L162.021,26.974 C166.086,40.526 170.144,54.082 174.202,67.638 L178.729,82.765 L178.52,82.812 L178.52,82.812 Z M132.182,33.704 C136.416,47.729 140.646,61.757 144.877,75.785 L149.738,91.905 C159.004,87.607 168.316,84.45 178.195,82.258 L173.875,67.821 C169.838,54.339 165.803,40.859 161.762,27.382 C151.562,28.426 141.885,30.494 132.182,33.704 L132.182,33.704 Z" id="Stroke-46" stroke="#7A7B7A" sketch:type="MSShapeGroup"></path>
            <path d="M476.904,48.79 C487.421,59.033 497.083,69.804 506.143,81.316 C517.259,68.761 528.378,56.209 539.481,43.644 C531.115,31.37 522.076,19.784 512.167,8.684 C500.418,22.056 488.66,35.421 476.904,48.79 L476.904,48.79 Z" id="Fill-47" fill="#C8CCCA" sketch:type="MSShapeGroup"></path>
            <path d="M476.904,48.79 C487.421,59.033 497.083,69.804 506.143,81.316 C517.259,68.761 528.378,56.209 539.481,43.644 C531.115,31.37 522.076,19.784 512.167,8.684 C500.418,22.056 488.66,35.421 476.904,48.79 L476.904,48.79 Z" id="Stroke-48" stroke="#7A7B7A" sketch:type="MSShapeGroup"></path>
            <path d="M505.937,81.478 C496.763,69.821 487.208,59.189 476.721,48.978 L476.544,48.804 L486.539,37.437 C495.019,27.796 503.497,18.156 511.971,8.511 L512.164,8.289 L512.362,8.509 C522.283,19.623 531.225,31.067 539.698,43.497 L539.812,43.665 L539.679,43.817 C531.535,53.033 523.382,62.241 515.229,71.448 L506.133,81.725 L505.937,81.478 L505.937,81.478 Z M512.169,9.078 C503.76,18.649 495.346,28.215 486.933,37.782 L477.264,48.776 C487.622,58.88 497.078,69.396 506.155,80.909 L514.839,71.102 C522.945,61.944 531.051,52.788 539.151,43.624 C530.782,31.36 521.95,20.055 512.169,9.078 L512.169,9.078 Z" id="Fill-49" fill="#C8CCCA" sketch:type="MSShapeGroup"></path>
            <path d="M505.937,81.478 C496.763,69.821 487.208,59.189 476.721,48.978 L476.544,48.804 L486.539,37.437 C495.019,27.796 503.497,18.156 511.971,8.511 L512.164,8.289 L512.362,8.509 C522.283,19.623 531.225,31.067 539.698,43.497 L539.812,43.665 L539.679,43.817 C531.535,53.033 523.382,62.241 515.229,71.448 L506.133,81.725 L505.937,81.478 L505.937,81.478 Z M512.169,9.078 C503.76,18.649 495.346,28.215 486.933,37.782 L477.264,48.776 C487.622,58.88 497.078,69.396 506.155,80.909 L514.839,71.102 C522.945,61.944 531.051,52.788 539.151,43.624 C530.782,31.36 521.95,20.055 512.169,9.078 L512.169,9.078 Z" id="Stroke-50" stroke="#7A7B7A" sketch:type="MSShapeGroup"></path>
            <path d="M359.591,98.953 C353.421,64.372 312.299,65.171 305.734,66.672 C319.283,83.844 339.324,95.853 359.591,98.953 L359.591,98.953 Z" id="Fill-51" fill="#A3A4A2" sketch:type="MSShapeGroup"></path>
            <path d="M359.591,98.953 C353.421,64.372 312.299,65.171 305.734,66.672 C319.283,83.844 339.324,95.853 359.591,98.953 L359.591,98.953 Z" id="Stroke-52" stroke="#7A7B7A" sketch:type="MSShapeGroup"></path>
            <path d="M359.849,98.907 L359.913,99.268 L359.55,99.211 C340.25,96.26 321.369,85.444 307.751,69.537 C306.994,68.652 306.246,67.743 305.529,66.834 L305.272,66.509 L305.677,66.417 C311.848,65.006 337.974,65.06 351.676,81.065 C355.857,85.95 358.607,91.954 359.849,98.907 L359.849,98.907 Z M308.148,69.196 C321.602,84.91 340.214,95.625 359.267,98.638 C358.012,91.931 355.326,86.135 351.277,81.405 C338.018,65.916 312.976,65.541 306.201,66.841 C306.834,67.633 307.487,68.425 308.148,69.196 L308.148,69.196 Z" id="Fill-53" fill="#1A1918" sketch:type="MSShapeGroup"></path>
            <path d="M359.849,98.907 L359.913,99.268 L359.55,99.211 C340.25,96.26 321.369,85.444 307.751,69.537 C306.994,68.652 306.246,67.743 305.529,66.834 L305.272,66.509 L305.677,66.417 C311.848,65.006 337.974,65.06 351.676,81.065 C355.857,85.95 358.607,91.954 359.849,98.907 L359.849,98.907 Z M308.148,69.196 C321.602,84.91 340.214,95.625 359.267,98.638 C358.012,91.931 355.326,86.135 351.277,81.405 C338.018,65.916 312.976,65.541 306.201,66.841 C306.834,67.633 307.487,68.425 308.148,69.196 L308.148,69.196 Z" id="Stroke-54" stroke="#7A7B7A" sketch:type="MSShapeGroup"></path>
            <path d="M359.591,98.953 C356.121,79.505 337.889,66.694 334,77.16 C334,77.16 322.08,62.931 305.734,66.672 C313.575,80.924 313.125,100.929 314.523,105.243 C314.523,105.243 339.541,98.654 359.591,98.953 L359.591,98.953 Z" id="Fill-55" fill="#C8CCCA" sketch:type="MSShapeGroup"></path>
            <path d="M359.591,98.953 C356.121,79.505 337.889,66.694 334,77.16 C334,77.16 322.08,62.931 305.734,66.672 C313.575,80.924 313.125,100.929 314.523,105.243 C314.523,105.243 339.541,98.654 359.591,98.953 L359.591,98.953 Z" id="Stroke-56" stroke="#7A7B7A" sketch:type="MSShapeGroup"></path>
            <path d="M359.849,98.907 L359.904,99.22 L359.586,99.215 C339.804,98.92 314.84,105.43 314.59,105.497 L314.351,105.56 L314.273,105.323 C313.875,104.092 313.636,101.726 313.303,98.451 C312.49,90.437 311.131,77.024 305.505,66.797 L305.338,66.494 L305.677,66.417 C320.618,62.997 331.945,74.509 333.915,76.669 C334.742,74.752 336.134,73.572 337.964,73.245 C341.684,72.583 346.777,75.425 351.261,80.661 C355.604,85.734 358.653,92.214 359.849,98.907 L359.849,98.907 Z M333.777,77.302 C333.291,76.732 321.751,63.503 306.131,66.853 C311.667,77.131 313.016,90.423 313.824,98.398 C314.121,101.324 314.359,103.673 314.701,104.926 C317.338,104.252 340.53,98.477 359.274,98.687 C358.06,92.195 355.08,85.925 350.862,81.001 C346.568,75.982 341.54,73.141 338.056,73.761 C336.269,74.079 334.988,75.253 334.244,77.251 L334.067,77.639 L333.777,77.302 L333.777,77.302 Z" id="Fill-57" fill="#C8CCCA" sketch:type="MSShapeGroup"></path>
            <path d="M359.849,98.907 L359.904,99.22 L359.586,99.215 C339.804,98.92 314.84,105.43 314.59,105.497 L314.351,105.56 L314.273,105.323 C313.875,104.092 313.636,101.726 313.303,98.451 C312.49,90.437 311.131,77.024 305.505,66.797 L305.338,66.494 L305.677,66.417 C320.618,62.997 331.945,74.509 333.915,76.669 C334.742,74.752 336.134,73.572 337.964,73.245 C341.684,72.583 346.777,75.425 351.261,80.661 C355.604,85.734 358.653,92.214 359.849,98.907 L359.849,98.907 Z M333.777,77.302 C333.291,76.732 321.751,63.503 306.131,66.853 C311.667,77.131 313.016,90.423 313.824,98.398 C314.121,101.324 314.359,103.673 314.701,104.926 C317.338,104.252 340.53,98.477 359.274,98.687 C358.06,92.195 355.08,85.925 350.862,81.001 C346.568,75.982 341.54,73.141 338.056,73.761 C336.269,74.079 334.988,75.253 334.244,77.251 L334.067,77.639 L333.777,77.302 L333.777,77.302 Z" id="Stroke-58" stroke="#7A7B7A" sketch:type="MSShapeGroup"></path>
            <path d="M347.999,164.983 C381.333,153.909 374.635,113.328 372.206,107.048 C357.158,122.925 348.155,144.483 347.999,164.983 L347.999,164.983 Z" id="Fill-59" fill="#A3A4A2" sketch:type="MSShapeGroup"></path>
            <path d="M347.999,164.983 C381.333,153.909 374.635,113.328 372.206,107.048 C357.158,122.925 348.155,144.483 347.999,164.983 L347.999,164.983 Z" id="Stroke-60" stroke="#7A7B7A" sketch:type="MSShapeGroup"></path>
            <path d="M348.083,165.233 L347.735,165.348 L347.738,164.981 C347.885,145.457 355.875,125.219 369.661,109.456 C370.427,108.58 371.219,107.709 372.016,106.869 L372.3,106.568 L372.45,106.954 C374.733,112.858 378.435,138.721 364.565,154.58 C360.331,159.421 354.785,163.006 348.083,165.233 L348.083,165.233 Z M370.055,109.8 C356.437,125.371 348.508,145.33 348.265,164.618 C354.723,162.412 360.071,158.921 364.171,154.235 C377.593,138.886 374.366,114.051 372.106,107.536 C371.411,108.275 370.724,109.035 370.055,109.8 L370.055,109.8 Z" id="Fill-61" fill="#1A1918" sketch:type="MSShapeGroup"></path>
            <path d="M348.083,165.233 L347.735,165.348 L347.738,164.981 C347.885,145.457 355.875,125.219 369.661,109.456 C370.427,108.58 371.219,107.709 372.016,106.869 L372.3,106.568 L372.45,106.954 C374.733,112.858 378.435,138.721 364.565,154.58 C360.331,159.421 354.785,163.006 348.083,165.233 L348.083,165.233 Z M370.055,109.8 C356.437,125.371 348.508,145.33 348.265,164.618 C354.723,162.412 360.071,158.921 364.171,154.235 C377.593,138.886 374.366,114.051 372.106,107.536 C371.411,108.275 370.724,109.035 370.055,109.8 L370.055,109.8 Z" id="Stroke-62" stroke="#7A7B7A" sketch:type="MSShapeGroup"></path>
            <path d="M347.999,164.983 C366.747,158.756 376.805,138.871 365.888,136.528 C365.888,136.528 378.257,122.687 372.206,107.048 C359.228,116.855 339.367,119.286 335.299,121.289 C335.299,121.289 345.413,145.101 347.999,164.983 L347.999,164.983 Z" id="Fill-63" fill="#C8CCCA" sketch:type="MSShapeGroup"></path>
            <path d="M347.999,164.983 C366.747,158.756 376.805,138.871 365.888,136.528 C365.888,136.528 378.257,122.687 372.206,107.048 C359.228,116.855 339.367,119.286 335.299,121.289 C335.299,121.289 345.413,145.101 347.999,164.983 L347.999,164.983 Z" id="Stroke-64" stroke="#7A7B7A" sketch:type="MSShapeGroup"></path>
            <path d="M348.083,165.233 L347.781,165.333 L347.74,165.018 C345.189,145.398 335.159,121.628 335.057,121.391 L334.961,121.163 L335.182,121.054 C336.343,120.482 338.65,119.905 341.844,119.106 C349.659,117.149 362.736,113.876 372.047,106.839 L372.324,106.63 L372.45,106.954 C377.981,121.249 368.217,134.115 366.362,136.374 C368.377,136.915 369.747,138.124 370.332,139.887 C371.521,143.473 369.441,148.924 364.904,154.112 C360.508,159.14 354.534,163.089 348.083,165.233 L348.083,165.233 Z M365.718,136.328 C366.211,135.764 377.643,122.444 372.085,107.466 C362.707,114.422 349.747,117.667 341.971,119.613 C339.117,120.328 336.826,120.9 335.637,121.419 C336.682,123.933 345.731,146.054 348.218,164.634 C354.467,162.499 360.243,158.649 364.511,153.768 C368.861,148.795 370.95,143.412 369.835,140.052 C369.265,138.331 367.918,137.231 365.834,136.783 L365.424,136.663 L365.718,136.328 L365.718,136.328 Z" id="Fill-65" fill="#C8CCCA" sketch:type="MSShapeGroup"></path>
            <path d="M348.083,165.233 L347.781,165.333 L347.74,165.018 C345.189,145.398 335.159,121.628 335.057,121.391 L334.961,121.163 L335.182,121.054 C336.343,120.482 338.65,119.905 341.844,119.106 C349.659,117.149 362.736,113.876 372.047,106.839 L372.324,106.63 L372.45,106.954 C377.981,121.249 368.217,134.115 366.362,136.374 C368.377,136.915 369.747,138.124 370.332,139.887 C371.521,143.473 369.441,148.924 364.904,154.112 C360.508,159.14 354.534,163.089 348.083,165.233 L348.083,165.233 Z M365.718,136.328 C366.211,135.764 377.643,122.444 372.085,107.466 C362.707,114.422 349.747,117.667 341.971,119.613 C339.117,120.328 336.826,120.9 335.637,121.419 C336.682,123.933 345.731,146.054 348.218,164.634 C354.467,162.499 360.243,158.649 364.511,153.768 C368.861,148.795 370.95,143.412 369.835,140.052 C369.265,138.331 367.918,137.231 365.834,136.783 L365.424,136.663 L365.718,136.328 L365.718,136.328 Z" id="Stroke-66" stroke="#7A7B7A" sketch:type="MSShapeGroup"></path>
            <path d="M498.452,167.521 C509.572,175.206 521.387,184.576 534.393,196.214 C544.915,181.518 555.109,167.294 564.963,153.506 C551.06,144.482 538.379,137.256 526.454,131.397 C517.39,143.1 508.054,155.135 498.452,167.521 L498.452,167.521 Z" id="Fill-67" fill="#C8CCCA" sketch:type="MSShapeGroup"></path>
            <path d="M498.452,167.521 C509.572,175.206 521.387,184.576 534.393,196.214 C544.915,181.518 555.109,167.294 564.963,153.506 C551.06,144.482 538.379,137.256 526.454,131.397 C517.39,143.1 508.054,155.135 498.452,167.521 L498.452,167.521 Z" id="Stroke-68" stroke="#7A7B7A" sketch:type="MSShapeGroup"></path>
            <path d="M534.179,196.411 C521.034,184.622 509.377,175.375 498.3,167.699 L498.123,167.576 L506.303,157.032 C513.086,148.287 519.73,139.719 526.239,131.321 L526.387,131.13 L526.609,131.238 C538.56,137.094 551.104,144.213 565.187,153.331 L565.392,153.464 L565.273,153.629 C558.073,163.713 550.688,174.029 543.129,184.591 L534.477,196.679 L534.179,196.411 L534.179,196.411 Z M526.518,131.666 C520.051,140.023 513.443,148.546 506.702,157.245 L498.782,167.464 C509.758,175.045 521.31,184.165 534.309,195.752 L542.546,184.256 C550.053,173.783 557.384,163.552 564.537,153.549 C550.679,144.541 538.307,137.483 526.518,131.666 L526.518,131.666 Z" id="Fill-69" fill="#C8CCCA" sketch:type="MSShapeGroup"></path>
            <path d="M534.179,196.411 C521.034,184.622 509.377,175.375 498.3,167.699 L498.123,167.576 L506.303,157.032 C513.086,148.287 519.73,139.719 526.239,131.321 L526.387,131.13 L526.609,131.238 C538.56,137.094 551.104,144.213 565.187,153.331 L565.392,153.464 L565.273,153.629 C558.073,163.713 550.688,174.029 543.129,184.591 L534.477,196.679 L534.179,196.411 L534.179,196.411 Z M526.518,131.666 C520.051,140.023 513.443,148.546 506.702,157.245 L498.782,167.464 C509.758,175.045 521.31,184.165 534.309,195.752 L542.546,184.256 C550.053,173.783 557.384,163.552 564.537,153.549 C550.679,144.541 538.307,137.483 526.518,131.666 L526.518,131.666 Z" id="Stroke-70" stroke="#7A7B7A" sketch:type="MSShapeGroup"></path>
            <path d="M145.232,89.706 C125.761,110.111 159.672,129.449 166.054,131.842 C167.222,116.676 159.47,100.998 145.232,89.706 L145.232,89.706 Z" id="Fill-71" fill="#A3A4A2" sketch:type="MSShapeGroup"></path>
            <path d="M145.232,89.706 C125.761,110.111 159.672,129.449 166.054,131.842 C167.222,116.676 159.47,100.998 145.232,89.706 L145.232,89.706 Z" id="Stroke-72" stroke="#7A7B7A" sketch:type="MSShapeGroup"></path>
            <path d="M144.989,89.606 L145.191,89.393 L145.447,89.595 C159.008,100.349 166.663,114.867 166.448,129.429 C166.435,130.238 166.398,131.056 166.336,131.858 L166.313,132.146 L165.921,131.999 C159.919,129.748 138.772,117.18 138.989,102.529 C139.056,98.058 141.075,93.709 144.989,89.606 L144.989,89.606 Z M165.885,129.41 C166.097,115.025 158.588,100.686 145.271,90.021 C141.54,94.006 139.617,98.219 139.553,102.548 C139.343,116.727 159.383,128.937 165.795,131.532 C165.844,130.829 165.874,130.116 165.885,129.41 L165.885,129.41 Z" id="Fill-73" fill="#1A1918" sketch:type="MSShapeGroup"></path>
            <path d="M144.989,89.606 L145.191,89.393 L145.447,89.595 C159.008,100.349 166.663,114.867 166.448,129.429 C166.435,130.238 166.398,131.056 166.336,131.858 L166.313,132.146 L165.921,131.999 C159.919,129.748 138.772,117.18 138.989,102.529 C139.056,98.058 141.075,93.709 144.989,89.606 L144.989,89.606 Z M165.885,129.41 C166.097,115.025 158.588,100.686 145.271,90.021 C141.54,94.006 139.617,98.219 139.553,102.548 C139.343,116.727 159.383,128.937 165.795,131.532 C165.844,130.829 165.874,130.116 165.885,129.41 L165.885,129.41 Z" id="Stroke-74" stroke="#7A7B7A" sketch:type="MSShapeGroup"></path>
            <path d="M145.232,89.706 C134.281,101.182 140.001,116.398 150.56,112.984 C150.56,112.984 150.155,125.883 166.054,131.842 C169.785,120.888 184.305,111.014 186.226,108.166 C186.226,108.165 161.277,99.481 145.232,89.706 L145.232,89.706 Z" id="Fill-75" fill="#C8CCCA" sketch:type="MSShapeGroup"></path>
            <path d="M145.232,89.706 C134.281,101.182 140.001,116.398 150.56,112.984 C150.56,112.984 150.155,125.883 166.054,131.842 C169.785,120.888 184.305,111.014 186.226,108.166 C186.226,108.165 161.277,99.481 145.232,89.706 L145.232,89.706 Z" id="Stroke-76" stroke="#7A7B7A" sketch:type="MSShapeGroup"></path>
            <path d="M144.989,89.606 L145.166,89.421 L145.42,89.576 C161.253,99.22 186.101,107.919 186.35,108.006 L186.588,108.089 L186.484,108.245 C185.937,109.058 184.456,110.366 182.408,112.177 C177.394,116.61 169.006,124.029 166.33,131.889 L166.251,132.122 L165.921,131.999 C151.386,126.552 150.346,115.307 150.281,113.272 C148.252,113.842 146.29,113.769 144.574,113.055 C141.09,111.604 138.968,107.725 139.042,102.933 C139.109,98.288 141.223,93.555 144.989,89.606 L144.989,89.606 Z M150.84,113.019 C150.832,113.54 150.825,125.752 165.861,131.56 C168.646,123.718 176.962,116.365 181.949,111.954 C183.777,110.336 185.248,109.036 185.856,108.24 C183.241,107.314 160.349,99.096 145.299,89.991 C141.69,93.85 139.669,98.443 139.602,102.951 C139.535,107.545 141.6,111.392 144.865,112.752 C146.537,113.449 148.408,113.471 150.423,112.82 L150.843,112.709 L150.84,113.019 L150.84,113.019 Z" id="Fill-77" fill="#C8CCCA" sketch:type="MSShapeGroup"></path>
            <path d="M144.989,89.606 L145.166,89.421 L145.42,89.576 C161.253,99.22 186.101,107.919 186.35,108.006 L186.588,108.089 L186.484,108.245 C185.937,109.058 184.456,110.366 182.408,112.177 C177.394,116.61 169.006,124.029 166.33,131.889 L166.251,132.122 L165.921,131.999 C151.386,126.552 150.346,115.307 150.281,113.272 C148.252,113.842 146.29,113.769 144.574,113.055 C141.09,111.604 138.968,107.725 139.042,102.933 C139.109,98.288 141.223,93.555 144.989,89.606 L144.989,89.606 Z M150.84,113.019 C150.832,113.54 150.825,125.752 165.861,131.56 C168.646,123.718 176.962,116.365 181.949,111.954 C183.777,110.336 185.248,109.036 185.856,108.24 C183.241,107.314 160.349,99.096 145.299,89.991 C141.69,93.85 139.669,98.443 139.602,102.951 C139.535,107.545 141.6,111.392 144.865,112.752 C146.537,113.449 148.408,113.471 150.423,112.82 L150.843,112.709 L150.84,113.019 L150.84,113.019 Z" id="Stroke-78" stroke="#7A7B7A" sketch:type="MSShapeGroup"></path>
            <path d="M489.856,194.559 C482.222,187.229 474.174,180.362 465.53,173.758 C475.553,168.43 485.574,163.099 495.606,157.779 C504.853,164.047 513.546,170.626 521.866,177.684 C511.193,183.306 500.527,188.935 489.856,194.559 L489.856,194.559 Z" id="Fill-79" fill="#C8CCCA" sketch:type="MSShapeGroup"></path>
            <path d="M489.856,194.559 C482.222,187.229 474.174,180.362 465.53,173.758 C475.553,168.43 485.574,163.099 495.606,157.779 C504.853,164.047 513.546,170.626 521.866,177.684 C511.193,183.306 500.527,188.935 489.856,194.559 L489.856,194.559 Z" id="Stroke-80" stroke="#7A7B7A" sketch:type="MSShapeGroup"></path>
            <path d="M465.123,173.669 L472.192,169.91 C479.93,165.796 487.668,161.683 495.411,157.576 L495.528,157.514 L495.696,157.628 C505.078,163.987 513.682,170.508 521.997,177.563 L522.256,177.783 L522.059,177.887 C515.907,181.128 509.756,184.372 503.604,187.615 L489.894,194.843 L489.703,194.66 C482.108,187.37 474.165,180.577 465.418,173.894 L465.123,173.669 L465.123,173.669 Z M495.683,158.044 C487.977,162.129 480.278,166.223 472.579,170.316 L465.936,173.847 C474.523,180.423 482.34,187.11 489.816,194.273 L503.22,187.209 C509.304,184 515.389,180.792 521.476,177.585 C513.316,170.679 504.874,164.283 495.683,158.044 L495.683,158.044 Z" id="Fill-81" fill="#C8CCCA" sketch:type="MSShapeGroup"></path>
            <path d="M465.123,173.669 L472.192,169.91 C479.93,165.796 487.668,161.683 495.411,157.576 L495.528,157.514 L495.696,157.628 C505.078,163.987 513.682,170.508 521.997,177.563 L522.256,177.783 L522.059,177.887 C515.907,181.128 509.756,184.372 503.604,187.615 L489.894,194.843 L489.703,194.66 C482.108,187.37 474.165,180.577 465.418,173.894 L465.123,173.669 L465.123,173.669 Z M495.683,158.044 C487.977,162.129 480.278,166.223 472.579,170.316 L465.936,173.847 C474.523,180.423 482.34,187.11 489.816,194.273 L503.22,187.209 C509.304,184 515.389,180.792 521.476,177.585 C513.316,170.679 504.874,164.283 495.683,158.044 L495.683,158.044 Z" id="Stroke-82" stroke="#7A7B7A" sketch:type="MSShapeGroup"></path>
            <path d="M307.98,94.891 C298.748,98.088 289.947,102.095 281.334,106.972 C277.203,91.684 273.07,76.397 268.95,61.106 C277.299,55.297 285.893,50.345 294.944,46.172 C299.287,62.412 303.637,78.65 307.98,94.891 L307.98,94.891 Z" id="Fill-83" fill="#C8CCCA" sketch:type="MSShapeGroup"></path>
            <path d="M307.98,94.891 C298.748,98.088 289.947,102.095 281.334,106.972 C277.203,91.684 273.07,76.397 268.95,61.106 C277.299,55.297 285.893,50.345 294.944,46.172 C299.287,62.412 303.637,78.65 307.98,94.891 L307.98,94.891 Z" id="Stroke-84" stroke="#7A7B7A" sketch:type="MSShapeGroup"></path>
            <path d="M281.17,107.366 L278.256,96.584 C275.066,84.781 271.879,72.979 268.697,61.174 L268.65,60.997 L268.801,60.892 C277.272,54.999 285.786,50.106 294.834,45.934 L295.116,45.804 L295.197,46.105 C297.7,55.466 300.207,64.828 302.712,74.19 L308.297,95.059 L308.066,95.138 C298.881,98.319 290.18,102.264 281.463,107.2 L281.17,107.366 L281.17,107.366 Z M269.251,61.216 C272.416,72.961 275.588,84.704 278.762,96.447 L281.498,106.579 C290.072,101.745 298.637,97.865 307.664,94.723 L302.206,74.325 C299.728,65.064 297.248,55.802 294.772,46.54 C285.911,50.645 277.558,55.448 269.251,61.216 L269.251,61.216 Z" id="Fill-85" fill="#C8CCCA" sketch:type="MSShapeGroup"></path>
            <path d="M281.17,107.366 L278.256,96.584 C275.066,84.781 271.879,72.979 268.697,61.174 L268.65,60.997 L268.801,60.892 C277.272,54.999 285.786,50.106 294.834,45.934 L295.116,45.804 L295.197,46.105 C297.7,55.466 300.207,64.828 302.712,74.19 L308.297,95.059 L308.066,95.138 C298.881,98.319 290.18,102.264 281.463,107.2 L281.17,107.366 L281.17,107.366 Z M269.251,61.216 C272.416,72.961 275.588,84.704 278.762,96.447 L281.498,106.579 C290.072,101.745 298.637,97.865 307.664,94.723 L302.206,74.325 C299.728,65.064 297.248,55.802 294.772,46.54 C285.911,50.645 277.558,55.448 269.251,61.216 L269.251,61.216 Z" id="Stroke-86" stroke="#7A7B7A" sketch:type="MSShapeGroup"></path>
            <path d="M509.574,121.543 C501.491,115.055 492.998,109.662 483.927,105.195 C493.706,88.565 503.484,71.932 513.271,55.308 C522.937,58.746 532.064,63.159 540.818,68.668 C530.4,86.288 519.988,103.916 509.574,121.543 L509.574,121.543 Z" id="Fill-87" fill="#C8CCCA" sketch:type="MSShapeGroup"></path>
            <path d="M509.574,121.543 C501.491,115.055 492.998,109.662 483.927,105.195 C493.706,88.565 503.484,71.932 513.271,55.308 C522.937,58.746 532.064,63.159 540.818,68.668 C530.4,86.288 519.988,103.916 509.574,121.543 L509.574,121.543 Z" id="Stroke-88" stroke="#7A7B7A" sketch:type="MSShapeGroup"></path>
            <path d="M483.606,105.378 L491.61,91.767 C498.784,79.569 505.956,67.372 513.136,55.18 L513.254,54.978 L513.388,55.026 C523.173,58.507 532.19,62.88 540.953,68.396 L541.128,68.504 L540.954,68.796 C533.44,81.504 525.931,94.217 518.421,106.93 L509.564,121.917 L509.429,121.807 C501.368,115.339 492.985,109.996 483.8,105.473 L483.606,105.378 L483.606,105.378 Z M513.29,55.638 C506.151,67.763 499.019,79.892 491.885,92.023 L484.246,105.013 C493.316,109.497 501.608,114.783 509.583,121.167 L518.146,106.671 C525.6,94.056 533.054,81.441 540.509,68.831 C531.854,63.4 522.946,59.084 513.29,55.638 L513.29,55.638 Z" id="Fill-89" fill="#C8CCCA" sketch:type="MSShapeGroup"></path>
            <path d="M483.606,105.378 L491.61,91.767 C498.784,79.569 505.956,67.372 513.136,55.18 L513.254,54.978 L513.388,55.026 C523.173,58.507 532.19,62.88 540.953,68.396 L541.128,68.504 L540.954,68.796 C533.44,81.504 525.931,94.217 518.421,106.93 L509.564,121.917 L509.429,121.807 C501.368,115.339 492.985,109.996 483.8,105.473 L483.606,105.378 L483.606,105.378 Z M513.29,55.638 C506.151,67.763 499.019,79.892 491.885,92.023 L484.246,105.013 C493.316,109.497 501.608,114.783 509.583,121.167 L518.146,106.671 C525.6,94.056 533.054,81.441 540.509,68.831 C531.854,63.4 522.946,59.084 513.29,55.638 L513.29,55.638 Z" id="Stroke-90" stroke="#7A7B7A" sketch:type="MSShapeGroup"></path>
            <path d="M446.101,158.899 C433.446,166.338 421.494,174.495 409.949,183.516 C402.149,168.671 394.344,153.831 386.556,138.981 C397.607,129.055 409.147,119.959 421.419,111.542 C429.64,127.33 437.872,143.113 446.101,158.899 L446.101,158.899 Z" id="Fill-91" fill="#C8CCCA" sketch:type="MSShapeGroup"></path>
            <path d="M446.101,158.899 C433.446,166.338 421.494,174.495 409.949,183.516 C402.149,168.671 394.344,153.831 386.556,138.981 C397.607,129.055 409.147,119.959 421.419,111.542 C429.64,127.33 437.872,143.113 446.101,158.899 L446.101,158.899 Z" id="Stroke-92" stroke="#7A7B7A" sketch:type="MSShapeGroup"></path>
            <path d="M409.863,183.915 L403.478,171.766 C397.757,160.879 392.035,149.993 386.323,139.102 L386.229,138.921 L386.381,138.786 C397.572,128.735 408.984,119.753 421.271,111.326 L421.515,111.159 L421.65,111.42 C427.579,122.807 433.516,134.191 439.451,145.576 L446.448,158.999 L446.233,159.125 C433.615,166.543 421.8,174.588 410.109,183.722 L409.863,183.915 L409.863,183.915 Z M386.881,139.039 C392.562,149.87 398.251,160.696 403.941,171.523 L410.035,183.117 C421.597,174.1 433.286,166.142 445.754,158.799 L438.986,145.818 C433.097,134.521 427.206,123.224 421.323,111.924 C409.204,120.252 397.934,129.126 386.881,139.039 L386.881,139.039 Z" id="Fill-93" fill="#C8CCCA" sketch:type="MSShapeGroup"></path>
            <path d="M409.863,183.915 L403.478,171.766 C397.757,160.879 392.035,149.993 386.323,139.102 L386.229,138.921 L386.381,138.786 C397.572,128.735 408.984,119.753 421.271,111.326 L421.515,111.159 L421.65,111.42 C427.579,122.807 433.516,134.191 439.451,145.576 L446.448,158.999 L446.233,159.125 C433.615,166.543 421.8,174.588 410.109,183.722 L409.863,183.915 L409.863,183.915 Z M386.881,139.039 C392.562,149.87 398.251,160.696 403.941,171.523 L410.035,183.117 C421.597,174.1 433.286,166.142 445.754,158.799 L438.986,145.818 C433.097,134.521 427.206,123.224 421.323,111.924 C409.204,120.252 397.934,129.126 386.881,139.039 L386.881,139.039 Z" id="Stroke-94" stroke="#7A7B7A" sketch:type="MSShapeGroup"></path>
            <path d="M407.113,97.954 C391.545,93.674 375.907,90.47 359.923,88.203 C366.036,71.484 372.138,54.761 378.262,38.045 C394.609,39.273 410.697,41.48 426.761,44.763 C420.203,62.49 413.659,80.222 407.113,97.954 L407.113,97.954 Z" id="Fill-95" fill="#C8CCCA" sketch:type="MSShapeGroup"></path>
            <path d="M407.113,97.954 C391.545,93.674 375.907,90.47 359.923,88.203 C366.036,71.484 372.138,54.761 378.262,38.045 C394.609,39.273 410.697,41.48 426.761,44.763 C420.203,62.49 413.659,80.222 407.113,97.954 L407.113,97.954 Z" id="Stroke-96" stroke="#7A7B7A" stroke-width="1.7" sketch:type="MSShapeGroup"></path>
            <path d="M366.464,195.967 C336.184,213.769 310.046,182.01 306.918,176.048 C328.774,175.173 350.93,182.587 366.464,195.967 L366.464,195.967 Z" id="Fill-97" fill="#A3A4A2" sketch:type="MSShapeGroup"></path>
            <path d="M366.464,195.967 C336.184,213.769 310.046,182.01 306.918,176.048 C328.774,175.173 350.93,182.587 366.464,195.967 L366.464,195.967 Z" id="Stroke-98" stroke="#7A7B7A" sketch:type="MSShapeGroup"></path>
            <path d="M347.727,201.587 C326.659,201.587 309.628,181.775 306.685,176.169 L306.494,175.803 L306.908,175.787 C308.064,175.74 309.24,175.717 310.405,175.717 C331.346,175.717 351.84,183.025 366.634,195.769 L366.911,196.007 L366.596,196.192 C360.508,199.772 354.158,201.587 347.727,201.587 L347.727,201.587 Z M307.35,176.294 C310.768,182.284 327.337,201.064 347.727,201.064 C353.953,201.064 360.102,199.335 366.014,195.926 C351.335,183.411 331.091,176.24 310.405,176.24 C309.389,176.24 308.363,176.258 307.35,176.294 L307.35,176.294 Z" id="Fill-99" fill="#1A1918" sketch:type="MSShapeGroup"></path>
            <path d="M347.727,201.587 C326.659,201.587 309.628,181.775 306.685,176.169 L306.494,175.803 L306.908,175.787 C308.064,175.74 309.24,175.717 310.405,175.717 C331.346,175.717 351.84,183.025 366.634,195.769 L366.911,196.007 L366.596,196.192 C360.508,199.772 354.158,201.587 347.727,201.587 L347.727,201.587 Z M307.35,176.294 C310.768,182.284 327.337,201.064 347.727,201.064 C353.953,201.064 360.102,199.335 366.014,195.926 C351.335,183.411 331.091,176.24 310.405,176.24 C309.389,176.24 308.363,176.258 307.35,176.294 L307.35,176.294 Z" id="Stroke-100" stroke="#7A7B7A" sketch:type="MSShapeGroup"></path>
            <path d="M366.464,195.967 C349.435,205.979 327.845,200.458 333.267,190.699 C333.267,190.699 314.705,190.898 306.918,176.048 C322.844,172.734 337.746,159.385 341.934,157.641 C341.934,157.641 353.198,180.93 366.464,195.967 L366.464,195.967 Z" id="Fill-101" fill="#C8CCCA" sketch:type="MSShapeGroup"></path>
            <path d="M366.464,195.967 C349.435,205.979 327.845,200.458 333.267,190.699 C333.267,190.699 314.705,190.898 306.918,176.048 C322.844,172.734 337.746,159.385 341.934,157.641 C341.934,157.641 353.198,180.93 366.464,195.967 L366.464,195.967 Z" id="Stroke-102" stroke="#7A7B7A" sketch:type="MSShapeGroup"></path>
            <path d="M347.15,201.535 C340.259,201.535 334.787,199.512 332.871,196.256 C331.929,194.654 331.92,192.828 332.84,190.954 C329.918,190.863 313.805,189.744 306.685,176.169 L306.524,175.862 L306.864,175.792 C318.29,173.415 329.363,165.725 335.981,161.131 C338.685,159.253 340.639,157.897 341.833,157.399 L342.061,157.304 L342.169,157.526 C342.281,157.759 353.571,180.957 366.659,195.794 L366.869,196.032 L366.596,196.192 C360.735,199.638 353.83,201.535 347.15,201.535 L347.15,201.535 Z M333.674,190.439 L333.495,190.827 C332.461,192.69 332.401,194.427 333.321,195.99 C335.117,199.04 340.545,201.012 347.15,201.012 C353.635,201.012 360.335,199.198 366.057,195.9 C353.707,181.797 343.013,160.423 341.809,157.982 C340.635,158.536 338.695,159.883 336.279,161.561 C329.695,166.132 318.721,173.753 307.312,176.232 C314.927,190.275 332.48,190.439 333.229,190.439 L333.674,190.439 L333.674,190.439 Z" id="Fill-103" fill="#C8CCCA" sketch:type="MSShapeGroup"></path>
            <path d="M347.15,201.535 C340.259,201.535 334.787,199.512 332.871,196.256 C331.929,194.654 331.92,192.828 332.84,190.954 C329.918,190.863 313.805,189.744 306.685,176.169 L306.524,175.862 L306.864,175.792 C318.29,173.415 329.363,165.725 335.981,161.131 C338.685,159.253 340.639,157.897 341.833,157.399 L342.061,157.304 L342.169,157.526 C342.281,157.759 353.571,180.957 366.659,195.794 L366.869,196.032 L366.596,196.192 C360.735,199.638 353.83,201.535 347.15,201.535 L347.15,201.535 Z M333.674,190.439 L333.495,190.827 C332.461,192.69 332.401,194.427 333.321,195.99 C335.117,199.04 340.545,201.012 347.15,201.012 C353.635,201.012 360.335,199.198 366.057,195.9 C353.707,181.797 343.013,160.423 341.809,157.982 C340.635,158.536 338.695,159.883 336.279,161.561 C329.695,166.132 318.721,173.753 307.312,176.232 C314.927,190.275 332.48,190.439 333.229,190.439 L333.674,190.439 L333.674,190.439 Z" id="Stroke-104" stroke="#7A7B7A" sketch:type="MSShapeGroup"></path>
            <path d="M121.757,151.388 C109.125,156.2 95.418,162.481 80.012,170.683 C73.297,153.902 66.787,137.658 60.506,121.919 C76.159,116.469 90.198,112.476 103.177,109.629 C109.19,123.157 115.386,137.069 121.757,151.388 L121.757,151.388 Z" id="Fill-105" fill="#C8CCCA" sketch:type="MSShapeGroup"></path>
            <path d="M121.757,151.388 C109.125,156.2 95.418,162.481 80.012,170.683 C73.297,153.902 66.787,137.658 60.506,121.919 C76.159,116.469 90.198,112.476 103.177,109.629 C109.19,123.157 115.386,137.069 121.757,151.388 L121.757,151.388 Z" id="Stroke-106" stroke="#7A7B7A" sketch:type="MSShapeGroup"></path>
            <path d="M79.819,171.115 L74.299,157.312 C69.476,145.252 64.764,133.473 60.176,121.963 L60.101,121.775 L60.332,121.695 C76.181,116.197 90.062,112.275 103.064,109.438 L103.306,109.385 L103.404,109.606 C107.721,119.314 112.132,129.219 116.635,139.329 L122.063,151.52 L121.862,151.597 C109.274,156.409 95.748,162.611 80.173,170.925 L79.819,171.115 L79.819,171.115 Z M60.91,122.061 C65.472,133.481 70.152,145.165 74.945,157.126 L80.204,170.253 C95.591,162.1 108.983,155.998 121.45,151.254 L116.196,139.442 C111.722,129.385 107.338,119.532 103.049,109.875 C90.214,112.713 76.517,116.617 60.91,122.061 L60.91,122.061 Z" id="Fill-107" fill="#C8CCCA" sketch:type="MSShapeGroup"></path>
            <path d="M79.819,171.115 L74.299,157.312 C69.476,145.252 64.764,133.473 60.176,121.963 L60.101,121.775 L60.332,121.695 C76.181,116.197 90.062,112.275 103.064,109.438 L103.306,109.385 L103.404,109.606 C107.721,119.314 112.132,129.219 116.635,139.329 L122.063,151.52 L121.862,151.597 C109.274,156.409 95.748,162.611 80.173,170.925 L79.819,171.115 L79.819,171.115 Z M60.91,122.061 C65.472,133.481 70.152,145.165 74.945,157.126 L80.204,170.253 C95.591,162.1 108.983,155.998 121.45,151.254 L116.196,139.442 C111.722,129.385 107.338,119.532 103.049,109.875 C90.214,112.713 76.517,116.617 60.91,122.061 L60.91,122.061 Z" id="Stroke-108" stroke="#7A7B7A" sketch:type="MSShapeGroup"></path>
            <path d="M169.254,154.807 C183.297,179.267 145.754,189.96 138.984,190.763 C141.468,175.756 152.734,162.378 169.254,154.807 L169.254,154.807 Z" id="Fill-109" fill="#A3A4A2" sketch:type="MSShapeGroup"></path>
            <path d="M169.254,154.807 C183.297,179.267 145.754,189.96 138.984,190.763 C141.468,175.756 152.734,162.378 169.254,154.807 L169.254,154.807 Z" id="Stroke-110" stroke="#7A7B7A" sketch:type="MSShapeGroup"></path>
            <path d="M172.257,168.749 C168.975,183.029 145.442,190.192 139.076,190.946 L138.66,190.996 L138.707,190.712 C138.838,189.917 138.997,189.114 139.179,188.325 C142.441,174.133 153.336,161.857 169.071,154.648 L169.367,154.513 L169.513,154.768 C172.337,159.686 173.259,164.391 172.257,168.749 L172.257,168.749 Z M139.31,190.523 C146.156,189.531 168.529,182.453 171.706,168.633 C172.676,164.414 171.813,159.864 169.141,155.104 C153.664,162.285 142.953,174.42 139.729,188.441 C139.572,189.13 139.431,189.829 139.31,190.523 L139.31,190.523 Z" id="Fill-111" fill="#1A1918" sketch:type="MSShapeGroup"></path>
            <path d="M172.257,168.749 C168.975,183.029 145.442,190.192 139.076,190.946 L138.66,190.996 L138.707,190.712 C138.838,189.917 138.997,189.114 139.179,188.325 C142.441,174.133 153.336,161.857 169.071,154.648 L169.367,154.513 L169.513,154.768 C172.337,159.686 173.259,164.391 172.257,168.749 L172.257,168.749 Z M139.31,190.523 C146.156,189.531 168.529,182.453 171.706,168.633 C172.676,164.414 171.813,159.864 169.141,155.104 C153.664,162.285 142.953,174.42 139.729,188.441 C139.572,189.13 139.431,189.829 139.31,190.523 L139.31,190.523 Z" id="Stroke-112" stroke="#7A7B7A" sketch:type="MSShapeGroup"></path>
            <path d="M169.254,154.807 C177.151,168.563 167.97,181.976 158.53,176.143 C158.53,176.143 155.847,188.767 138.984,190.763 C137.973,179.235 126.227,166.184 125.041,162.96 C125.041,162.959 151.34,160.474 169.254,154.807 L169.254,154.807 Z" id="Fill-113" fill="#C8CCCA" sketch:type="MSShapeGroup"></path>
            <path d="M169.254,154.807 C177.151,168.563 167.97,181.976 158.53,176.143 C158.53,176.143 155.847,188.767 138.984,190.763 C137.973,179.235 126.227,166.184 125.041,162.96 C125.041,162.959 151.34,160.474 169.254,154.807 L169.254,154.807 Z" id="Stroke-114" stroke="#7A7B7A" sketch:type="MSShapeGroup"></path>
            <path d="M172.112,169.128 C171.039,173.8 168.055,177.062 164.325,177.64 C162.489,177.924 160.564,177.527 158.731,176.489 C158.182,178.45 154.491,189.123 139.076,190.946 L138.727,190.988 L138.706,190.743 C137.981,182.472 131.603,173.266 127.792,167.766 C126.235,165.518 125.109,163.895 124.771,162.975 L124.706,162.798 L124.957,162.775 C125.221,162.75 151.426,160.227 169.102,154.636 L169.385,154.546 L169.513,154.768 C172.23,159.502 173.154,164.602 172.112,169.128 L172.112,169.128 Z M158.319,175.809 L158.7,176.017 C160.502,177.129 162.324,177.554 164.114,177.276 C167.609,176.733 170.532,173.49 171.562,169.013 C172.572,164.618 171.705,159.676 169.121,155.068 C152.333,160.321 128.142,162.844 125.381,163.12 C125.783,164.038 126.9,165.651 128.291,167.659 C132.083,173.132 138.404,182.255 139.24,190.536 C155.227,188.479 158.132,176.618 158.249,176.111 L158.319,175.809 L158.319,175.809 Z" id="Fill-115" fill="#C8CCCA" sketch:type="MSShapeGroup"></path>
            <path d="M172.112,169.128 C171.039,173.8 168.055,177.062 164.325,177.64 C162.489,177.924 160.564,177.527 158.731,176.489 C158.182,178.45 154.491,189.123 139.076,190.946 L138.727,190.988 L138.706,190.743 C137.981,182.472 131.603,173.266 127.792,167.766 C126.235,165.518 125.109,163.895 124.771,162.975 L124.706,162.798 L124.957,162.775 C125.221,162.75 151.426,160.227 169.102,154.636 L169.385,154.546 L169.513,154.768 C172.23,159.502 173.154,164.602 172.112,169.128 L172.112,169.128 Z M158.319,175.809 L158.7,176.017 C160.502,177.129 162.324,177.554 164.114,177.276 C167.609,176.733 170.532,173.49 171.562,169.013 C172.572,164.618 171.705,159.676 169.121,155.068 C152.333,160.321 128.142,162.844 125.381,163.12 C125.783,164.038 126.9,165.651 128.291,167.659 C132.083,173.132 138.404,182.255 139.24,190.536 C155.227,188.479 158.132,176.618 158.249,176.111 L158.319,175.809 L158.319,175.809 Z" id="Stroke-116" stroke="#7A7B7A" sketch:type="MSShapeGroup"></path>
            <path d="M490.602,126.235 C504.645,150.695 467.102,161.388 460.333,162.19 C462.816,147.184 474.083,133.806 490.602,126.235 L490.602,126.235 Z" id="Fill-117" fill="#A3A4A2" sketch:type="MSShapeGroup"></path>
            <path d="M490.602,126.235 C504.645,150.695 467.102,161.388 460.333,162.19 C462.816,147.184 474.083,133.806 490.602,126.235 L490.602,126.235 Z" id="Stroke-118" stroke="#7A7B7A" sketch:type="MSShapeGroup"></path>
            <path d="M493.606,140.177 C490.323,154.457 466.79,161.62 460.425,162.374 L460.008,162.424 L460.056,162.14 C460.186,161.345 460.346,160.542 460.527,159.753 C463.79,145.561 474.685,133.286 490.42,126.076 L490.715,125.941 L490.861,126.196 C493.685,131.114 494.608,135.819 493.606,140.177 L493.606,140.177 Z M460.658,161.952 C467.505,160.96 489.878,153.881 493.056,140.062 C494.025,135.842 493.162,131.292 490.489,126.532 C475.013,133.713 464.302,145.849 461.078,159.87 C460.921,160.558 460.779,161.257 460.658,161.952 L460.658,161.952 Z" id="Fill-119" fill="#1A1918" sketch:type="MSShapeGroup"></path>
            <path d="M493.606,140.177 C490.323,154.457 466.79,161.62 460.425,162.374 L460.008,162.424 L460.056,162.14 C460.186,161.345 460.346,160.542 460.527,159.753 C463.79,145.561 474.685,133.286 490.42,126.076 L490.715,125.941 L490.861,126.196 C493.685,131.114 494.608,135.819 493.606,140.177 L493.606,140.177 Z M460.658,161.952 C467.505,160.96 489.878,153.881 493.056,140.062 C494.025,135.842 493.162,131.292 490.489,126.532 C475.013,133.713 464.302,145.849 461.078,159.87 C460.921,160.558 460.779,161.257 460.658,161.952 L460.658,161.952 Z" id="Stroke-120" stroke="#7A7B7A" sketch:type="MSShapeGroup"></path>
            <path d="M490.602,126.235 C498.5,139.991 489.319,153.404 479.879,147.571 C479.879,147.571 477.196,160.195 460.333,162.19 C459.322,150.664 447.576,137.611 446.391,134.388 C446.391,134.388 472.689,131.902 490.602,126.235 L490.602,126.235 Z" id="Fill-121" fill="#C8CCCA" sketch:type="MSShapeGroup"></path>
            <path d="M490.602,126.235 C498.5,139.991 489.319,153.404 479.879,147.571 C479.879,147.571 477.196,160.195 460.333,162.19 C459.322,150.664 447.576,137.611 446.391,134.388 C446.391,134.388 472.689,131.902 490.602,126.235 L490.602,126.235 Z" id="Stroke-122" stroke="#7A7B7A" sketch:type="MSShapeGroup"></path>
            <path d="M493.461,140.557 C492.388,145.228 489.403,148.49 485.674,149.068 C483.838,149.352 481.913,148.955 480.08,147.917 C479.53,149.878 475.84,160.551 460.425,162.374 L460.076,162.416 L460.055,162.17 C459.33,153.9 452.952,144.694 449.141,139.194 C447.583,136.946 446.458,135.323 446.12,134.403 L446.055,134.227 L446.306,134.203 C446.569,134.178 472.774,131.655 490.45,126.064 L490.734,125.975 L490.861,126.196 C493.579,130.93 494.502,136.029 493.461,140.557 L493.461,140.557 Z M479.668,147.237 L480.049,147.444 C481.852,148.558 483.673,148.982 485.463,148.704 C488.958,148.161 491.881,144.919 492.911,140.44 C493.921,136.046 493.054,131.104 490.47,126.496 C473.682,131.749 449.49,134.272 446.729,134.547 C447.132,135.466 448.249,137.079 449.64,139.086 C453.432,144.56 459.753,153.683 460.589,161.963 C476.575,159.908 479.481,148.046 479.599,147.539 L479.668,147.237 L479.668,147.237 Z" id="Fill-123" fill="#C8CCCA" sketch:type="MSShapeGroup"></path>
            <path d="M493.461,140.557 C492.388,145.228 489.403,148.49 485.674,149.068 C483.838,149.352 481.913,148.955 480.08,147.917 C479.53,149.878 475.84,160.551 460.425,162.374 L460.076,162.416 L460.055,162.17 C459.33,153.9 452.952,144.694 449.141,139.194 C447.583,136.946 446.458,135.323 446.12,134.403 L446.055,134.227 L446.306,134.203 C446.569,134.178 472.774,131.655 490.45,126.064 L490.734,125.975 L490.861,126.196 C493.579,130.93 494.502,136.029 493.461,140.557 L493.461,140.557 Z M479.668,147.237 L480.049,147.444 C481.852,148.558 483.673,148.982 485.463,148.704 C488.958,148.161 491.881,144.919 492.911,140.44 C493.921,136.046 493.054,131.104 490.47,126.496 C473.682,131.749 449.49,134.272 446.729,134.547 C447.132,135.466 448.249,137.079 449.64,139.086 C453.432,144.56 459.753,153.683 460.589,161.963 C476.575,159.908 479.481,148.046 479.599,147.539 L479.668,147.237 L479.668,147.237 Z" id="Stroke-124" stroke="#7A7B7A" sketch:type="MSShapeGroup"></path>
        </g>
    </g>
</svg>