<?xml version="1.0" encoding="UTF-8" standalone="no"?>
<svg width="151px" height="138px" viewBox="0 0 151 138" version="1.1" xmlns="http://www.w3.org/2000/svg" xmlns:xlink="http://www.w3.org/1999/xlink" xmlns:sketch="http://www.bohemiancoding.com/sketch/ns">
    <!-- Generator: Sketch 3.3.3 (12081) - http://www.bohemiancoding.com/sketch -->
    <title>Imported Layers</title>
    <desc>Created with Sketch.</desc>
    <defs></defs>
    <g id="Page-1" stroke="none" stroke-width="1" fill="none" fill-rule="evenodd" sketch:type="MSPage">
        <g id="Imported-Layers" sketch:type="MSLayerGroup" transform="translate(-1.000000, 0.000000)">
            <path d="M10.5,42.126 C9.307,42.126 8.34,41.159 8.34,39.966 L8.34,27.927 C8.34,26.733 9.307,25.767 10.5,25.767 L149.315,25.767 C150.508,25.767 151.475,24.8 151.475,23.606 L151.475,14.677 C151.475,13.483 150.508,12.517 149.315,12.517 L6.035,12.517 C4.842,12.517 3.875,13.483 3.875,14.677 L3.875,53.216 C3.875,54.409 4.842,55.376 6.035,55.376 L19.715,55.376 C20.908,55.376 21.875,54.409 21.875,53.216 L21.875,44.286 C21.875,43.093 20.908,42.126 19.715,42.126" id="Fill-1" fill="#343433" sketch:type="MSShapeGroup"></path>
            <path d="M13.359,44.912 L13.827,44.912 L13.827,52.468 L13.215,52.468 L13.215,45.607 L11.645,46.291 L11.501,45.764 L13.359,44.912" id="Fill-2" fill="#F2F2F1" sketch:type="MSShapeGroup"></path>
            <path d="M25.475,53.216 C25.475,54.409 26.442,55.376 27.635,55.376 L41.315,55.376 C42.508,55.376 43.475,54.409 43.475,53.216 L43.475,44.286 C43.475,43.093 42.508,42.126 41.315,42.126 L27.635,42.126 C26.442,42.126 25.475,43.093 25.475,44.286 L25.475,53.216" id="Fill-3" fill="#BFE4EF" sketch:type="MSShapeGroup"></path>
            <path d="M32.531,45.968 L32.255,45.548 C32.962,44.948 33.67,44.816 34.27,44.816 C35.757,44.816 36.512,45.739 36.512,46.975 C36.512,48.138 35.733,49.229 34.09,50.908 L33.01,51.964 L36.812,51.964 L36.812,52.468 L32.267,52.468 L32.159,52.072 L33.178,51.076 C35.181,49.038 35.865,48.198 35.865,46.999 C35.865,45.968 35.325,45.319 34.27,45.319 C33.718,45.319 33.13,45.451 32.531,45.968" id="Fill-4" fill="#4D4D4C" sketch:type="MSShapeGroup"></path>
            <path d="M47.075,53.216 C47.075,54.409 48.043,55.376 49.235,55.376 L62.915,55.376 C64.108,55.376 65.075,54.409 65.075,53.216 L65.075,44.286 C65.075,43.093 64.108,42.126 62.915,42.126 L49.235,42.126 C48.043,42.126 47.075,43.093 47.075,44.286 L47.075,53.216" id="Fill-5" fill="#BFE4EF" sketch:type="MSShapeGroup"></path>
            <path d="M53.783,45.38 C54.383,44.972 55.018,44.816 55.666,44.816 C56.973,44.816 57.873,45.668 57.873,46.783 C57.873,47.719 57.309,48.355 56.602,48.605 C57.489,48.834 58.137,49.529 58.137,50.44 C58.137,52 56.794,52.564 55.522,52.564 C54.862,52.564 54.119,52.42 53.639,52.18 L53.783,51.7 C54.239,51.928 54.838,52.06 55.51,52.06 C56.529,52.06 57.513,51.568 57.513,50.44 C57.513,49.493 56.697,48.918 55.522,48.918 L54.599,48.918 L54.599,48.426 L55.294,48.426 C56.373,48.426 57.273,47.851 57.273,46.819 C57.273,45.932 56.661,45.319 55.63,45.319 C55.042,45.319 54.586,45.44 53.975,45.8 L53.783,45.38" id="Fill-6" fill="#4D4D4C" sketch:type="MSShapeGroup"></path>
            <path d="M68.675,53.216 C68.675,54.409 69.643,55.376 70.835,55.376 L84.515,55.376 C85.708,55.376 86.675,54.409 86.675,53.216 L86.675,44.286 C86.675,43.093 85.708,42.126 84.515,42.126 L70.835,42.126 C69.643,42.126 68.675,43.093 68.675,44.286 L68.675,53.216" id="Fill-7" fill="#BFE4EF" sketch:type="MSShapeGroup"></path>
            <path d="M78.453,44.912 L79.16,44.912 L79.16,49.913 L80.468,49.913 L80.468,50.417 L79.16,50.417 L79.16,52.468 L78.537,52.468 L78.537,50.417 L74.699,50.417 L74.699,50.069 L78.453,44.912 L78.453,44.912 Z M75.466,49.913 L78.537,49.913 L78.537,47.167 L78.597,45.476 L78.573,45.476 L77.517,47.095 L75.466,49.913 L75.466,49.913 Z" id="Fill-8" fill="#4D4D4C" sketch:type="MSShapeGroup"></path>
            <path d="M90.275,53.216 C90.275,54.409 91.243,55.376 92.436,55.376 L106.115,55.376 C107.308,55.376 108.275,54.409 108.275,53.216 L108.275,44.286 C108.275,43.093 107.308,42.126 106.115,42.126 L92.436,42.126 C91.243,42.126 90.275,43.093 90.275,44.286 L90.275,53.216" id="Fill-9" fill="#BFE4EF" sketch:type="MSShapeGroup"></path>
            <path d="M101.157,44.888 L101.157,45.403 L98.122,45.428 L97.846,48.03 C98.026,47.994 98.362,47.958 98.722,47.958 C100.065,47.958 101.313,48.726 101.313,50.177 C101.313,51.605 100.245,52.564 98.518,52.564 C97.954,52.564 97.307,52.468 96.911,52.24 L97.067,51.748 C97.415,51.952 97.99,52.06 98.494,52.06 C99.741,52.06 100.689,51.496 100.689,50.213 C100.689,49.146 99.849,48.439 98.506,48.439 C98.05,48.439 97.69,48.486 97.27,48.594 L97.643,44.912 L101.157,44.888" id="Fill-10" fill="#4D4D4C" sketch:type="MSShapeGroup"></path>
            <path d="M111.876,53.216 C111.876,54.409 112.843,55.376 114.036,55.376 L127.715,55.376 C128.908,55.376 129.875,54.409 129.875,53.216 L129.875,44.286 C129.875,43.093 128.908,42.126 127.715,42.126 L114.036,42.126 C112.843,42.126 111.876,43.093 111.876,44.286 L111.876,53.216" id="Fill-11" fill="#BFE4EF" sketch:type="MSShapeGroup"></path>
            <path d="M122.961,45.044 L122.816,45.535 C122.469,45.38 122.133,45.319 121.701,45.319 C120.154,45.319 119.051,46.519 118.967,48.63 C119.278,48.078 120.094,47.503 121.09,47.503 C122.385,47.503 123.477,48.366 123.477,49.938 C123.477,51.496 122.433,52.564 121.006,52.564 C119.686,52.564 118.391,51.689 118.391,49.002 C118.391,46.052 120.046,44.816 121.617,44.816 C122.169,44.816 122.517,44.876 122.961,45.044 L122.961,45.044 Z M121.029,52.06 C122.049,52.06 122.852,51.269 122.852,49.974 C122.852,48.654 122.049,48.006 120.969,48.006 C120.07,48.006 119.362,48.57 119.11,49.218 C119.063,49.373 119.015,49.445 119.015,49.697 C119.015,51.173 119.902,52.06 121.029,52.06 L121.029,52.06 Z" id="Fill-12" fill="#4D4D4C" sketch:type="MSShapeGroup"></path>
            <path d="M133.476,53.216 C133.476,54.409 134.442,55.376 135.636,55.376 L149.315,55.376 C150.508,55.376 151.475,54.409 151.475,53.216 L151.475,44.286 C151.475,43.093 150.508,42.126 149.315,42.126 L135.636,42.126 C134.442,42.126 133.476,43.093 133.476,44.286 L133.476,53.216" id="Fill-13" fill="#BFE4EF" sketch:type="MSShapeGroup"></path>
            <path d="M144.891,44.912 L144.891,45.272 L141.389,52.576 L140.824,52.324 L144.195,45.416 L140.189,45.416 L140.189,44.912 L144.891,44.912" id="Fill-14" fill="#4D4D4C" sketch:type="MSShapeGroup"></path>
            <path d="M8.086,16.358 L7.81,15.939 C8.518,15.339 9.226,15.207 9.825,15.207 C11.313,15.207 12.068,16.13 12.068,17.365 C12.068,18.528 11.289,19.62 9.646,21.299 L8.566,22.355 L12.368,22.355 L12.368,22.858 L7.822,22.858 L7.714,22.463 L8.734,21.467 C10.737,19.429 11.42,18.589 11.42,17.39 C11.42,16.358 10.881,15.71 9.825,15.71 C9.273,15.71 8.686,15.842 8.086,16.358" id="Fill-15" fill="#777776" sketch:type="MSShapeGroup"></path>
            <path d="M17.612,15.278 L17.612,15.794 L14.578,15.818 L14.302,18.421 C14.482,18.385 14.818,18.349 15.177,18.349 C16.521,18.349 17.768,19.116 17.768,20.567 C17.768,21.995 16.701,22.954 14.974,22.954 C14.41,22.954 13.762,22.858 13.366,22.631 L13.523,22.139 C13.87,22.343 14.446,22.45 14.95,22.45 C16.197,22.45 17.144,21.887 17.144,20.603 C17.144,19.536 16.305,18.829 14.961,18.829 C14.506,18.829 14.146,18.877 13.726,18.984 L14.098,15.303 L17.612,15.278" id="Fill-16" fill="#777776" sketch:type="MSShapeGroup"></path>
            <path d="M29.507,16.358 L29.231,15.939 C29.938,15.339 30.646,15.207 31.246,15.207 C32.733,15.207 33.489,16.13 33.489,17.365 C33.489,18.528 32.709,19.62 31.066,21.299 L29.986,22.355 L33.789,22.355 L33.789,22.858 L29.243,22.858 L29.135,22.463 L30.154,21.467 C32.157,19.429 32.841,18.589 32.841,17.39 C32.841,16.358 32.301,15.71 31.246,15.71 C30.694,15.71 30.106,15.842 29.507,16.358" id="Fill-17" fill="#777776" sketch:type="MSShapeGroup"></path>
            <path d="M39.416,15.435 L39.272,15.926 C38.925,15.771 38.589,15.71 38.157,15.71 C36.61,15.71 35.506,16.909 35.422,19.021 C35.734,18.469 36.55,17.894 37.545,17.894 C38.841,17.894 39.932,18.757 39.932,20.328 C39.932,21.887 38.889,22.954 37.461,22.954 C36.142,22.954 34.847,22.079 34.847,19.393 C34.847,16.442 36.502,15.207 38.073,15.207 C38.624,15.207 38.973,15.267 39.416,15.435 L39.416,15.435 Z M37.485,22.45 C38.505,22.45 39.309,21.659 39.309,20.364 C39.309,19.045 38.505,18.397 37.425,18.397 C36.526,18.397 35.818,18.961 35.566,19.608 C35.519,19.764 35.471,19.836 35.471,20.088 C35.471,21.564 36.358,22.45 37.485,22.45 L37.485,22.45 Z" id="Fill-18" fill="#777776" sketch:type="MSShapeGroup"></path>
            <path d="M51.161,16.358 L50.885,15.939 C51.592,15.339 52.3,15.207 52.899,15.207 C54.387,15.207 55.143,16.13 55.143,17.365 C55.143,18.528 54.363,19.62 52.72,21.299 L51.64,22.355 L55.442,22.355 L55.442,22.858 L50.896,22.858 L50.789,22.463 L51.808,21.467 C53.811,19.429 54.495,18.589 54.495,17.39 C54.495,16.358 53.955,15.71 52.899,15.71 C52.348,15.71 51.76,15.842 51.161,16.358" id="Fill-19" fill="#777776" sketch:type="MSShapeGroup"></path>
            <path d="M61.346,15.303 L61.346,15.662 L57.844,22.967 L57.28,22.715 L60.65,15.807 L56.645,15.807 L56.645,15.303 L61.346,15.303" id="Fill-20" fill="#777776" sketch:type="MSShapeGroup"></path>
            <path d="M72.701,16.358 L72.425,15.939 C73.132,15.339 73.84,15.207 74.439,15.207 C75.927,15.207 76.683,16.13 76.683,17.365 C76.683,18.528 75.903,19.62 74.26,21.299 L73.18,22.355 L76.982,22.355 L76.982,22.858 L72.437,22.858 L72.329,22.463 L73.348,21.467 C75.351,19.429 76.035,18.589 76.035,17.39 C76.035,16.358 75.495,15.71 74.439,15.71 C73.888,15.71 73.3,15.842 72.701,16.358" id="Fill-21" fill="#777776" sketch:type="MSShapeGroup"></path>
            <path d="M82.85,17.09 C82.85,17.797 82.466,18.444 81.327,18.864 C82.406,19.225 83.042,19.908 83.042,20.844 C83.042,22.187 81.938,22.954 80.547,22.954 C79.108,22.954 78.017,22.175 78.017,20.903 C78.017,19.92 78.557,19.284 79.696,18.9 C78.76,18.553 78.269,17.953 78.269,17.113 C78.269,16.059 79.048,15.207 80.559,15.207 C82.035,15.207 82.85,16.106 82.85,17.09 L82.85,17.09 Z M78.604,20.867 C78.604,21.719 79.252,22.45 80.547,22.45 C81.759,22.45 82.466,21.719 82.466,20.867 C82.466,19.992 81.699,19.368 80.487,19.164 C79.372,19.356 78.604,19.944 78.604,20.867 L78.604,20.867 Z M80.476,18.673 C81.435,18.469 82.202,17.941 82.202,17.102 C82.202,16.214 81.423,15.71 80.559,15.71 C79.48,15.71 78.904,16.334 78.904,17.102 C78.904,17.965 79.588,18.469 80.476,18.673 L80.476,18.673 Z" id="Fill-22" fill="#777776" sketch:type="MSShapeGroup"></path>
            <path d="M94.289,16.358 L94.013,15.939 C94.72,15.339 95.428,15.207 96.027,15.207 C97.515,15.207 98.27,16.13 98.27,17.365 C98.27,18.528 97.491,19.62 95.848,21.299 L94.768,22.355 L98.57,22.355 L98.57,22.858 L94.024,22.858 L93.916,22.463 L94.936,21.467 C96.939,19.429 97.623,18.589 97.623,17.39 C97.623,16.358 97.083,15.71 96.027,15.71 C95.476,15.71 94.888,15.842 94.289,16.358" id="Fill-23" fill="#777776" sketch:type="MSShapeGroup"></path>
            <path d="M100.096,22.727 L100.24,22.234 C100.54,22.379 101.044,22.45 101.463,22.45 C103.035,22.45 103.958,21.407 104.042,19.236 C103.73,19.788 102.999,20.28 101.943,20.28 C100.648,20.28 99.544,19.38 99.544,17.81 C99.544,16.142 100.684,15.207 102.051,15.207 C103.347,15.207 104.63,16.202 104.63,18.769 C104.63,21.839 103.298,22.954 101.488,22.954 C100.888,22.954 100.48,22.895 100.096,22.727 L100.096,22.727 Z M102.027,15.71 C101.008,15.71 100.168,16.49 100.168,17.785 C100.168,19.105 100.972,19.776 102.051,19.776 C103.011,19.776 103.706,19.273 103.946,18.625 C104.018,18.433 104.006,18.361 104.006,18.241 C104.006,17.054 103.287,15.71 102.027,15.71 L102.027,15.71 Z" id="Fill-24" fill="#777776" sketch:type="MSShapeGroup"></path>
            <path d="M115.132,15.771 C115.732,15.362 116.368,15.207 117.016,15.207 C118.322,15.207 119.223,16.059 119.223,17.174 C119.223,18.109 118.658,18.745 117.951,18.996 C118.838,19.225 119.486,19.92 119.486,20.831 C119.486,22.391 118.143,22.954 116.872,22.954 C116.212,22.954 115.468,22.811 114.989,22.57 L115.132,22.091 C115.588,22.318 116.188,22.45 116.859,22.45 C117.879,22.45 118.862,21.959 118.862,20.831 C118.862,19.884 118.047,19.309 116.872,19.309 L115.948,19.309 L115.948,18.816 L116.644,18.816 C117.723,18.816 118.623,18.241 118.623,17.21 C118.623,16.322 118.011,15.71 116.98,15.71 C116.392,15.71 115.936,15.83 115.324,16.19 L115.132,15.771" id="Fill-25" fill="#777776" sketch:type="MSShapeGroup"></path>
            <path d="M126.637,19.08 C126.637,21.719 125.354,22.954 123.831,22.954 C122.283,22.954 121,21.719 121,19.08 C121,16.562 122.283,15.207 123.831,15.207 C125.378,15.207 126.637,16.442 126.637,19.08 L126.637,19.08 Z M123.855,22.45 C124.994,22.45 126.014,21.407 126.014,19.08 C126.014,16.646 124.934,15.71 123.795,15.71 C122.655,15.71 121.624,16.754 121.624,19.08 C121.624,21.527 122.715,22.45 123.855,22.45 L123.855,22.45 Z" id="Fill-26" fill="#777776" sketch:type="MSShapeGroup"></path>
            <path d="M138.148,15.771 C138.748,15.362 139.384,15.207 140.031,15.207 C141.339,15.207 142.238,16.059 142.238,17.174 C142.238,18.109 141.675,18.745 140.967,18.996 C141.855,19.225 142.502,19.92 142.502,20.831 C142.502,22.391 141.159,22.954 139.888,22.954 C139.229,22.954 138.484,22.811 138.005,22.57 L138.148,22.091 C138.605,22.318 139.204,22.45 139.875,22.45 C140.895,22.45 141.879,21.959 141.879,20.831 C141.879,19.884 141.063,19.309 139.888,19.309 L138.965,19.309 L138.965,18.816 L139.66,18.816 C140.739,18.816 141.639,18.241 141.639,17.21 C141.639,16.322 141.027,15.71 139.996,15.71 C139.408,15.71 138.952,15.83 138.34,16.19 L138.148,15.771" id="Fill-27" fill="#777776" sketch:type="MSShapeGroup"></path>
            <path d="M145.899,15.303 L146.367,15.303 L146.367,22.858 L145.756,22.858 L145.756,15.998 L144.185,16.682 L144.041,16.154 L145.899,15.303" id="Fill-28" fill="#777776" sketch:type="MSShapeGroup"></path>
            <path d="M3.875,69.056 C3.875,70.249 4.842,71.216 6.035,71.216 L19.715,71.216 C20.908,71.216 21.875,70.249 21.875,69.056 L21.875,60.126 C21.875,58.933 20.908,57.966 19.715,57.966 L6.035,57.966 C4.842,57.966 3.875,58.933 3.875,60.126 L3.875,69.056" id="Fill-29" fill="#BFE4EF" sketch:type="MSShapeGroup"></path>
            <path d="M15.194,62.539 C15.194,63.246 14.811,63.894 13.671,64.314 C14.751,64.674 15.386,65.357 15.386,66.293 C15.386,67.636 14.283,68.403 12.892,68.403 C11.452,68.403 10.361,67.624 10.361,66.353 C10.361,65.369 10.9,64.733 12.04,64.35 C11.104,64.002 10.613,63.402 10.613,62.563 C10.613,61.508 11.393,60.656 12.903,60.656 C14.379,60.656 15.194,61.556 15.194,62.539 L15.194,62.539 Z M10.949,66.316 C10.949,67.168 11.596,67.899 12.892,67.899 C14.103,67.899 14.811,67.168 14.811,66.316 C14.811,65.441 14.043,64.817 12.831,64.613 C11.716,64.806 10.949,65.394 10.949,66.316 L10.949,66.316 Z M12.819,64.122 C13.779,63.918 14.547,63.391 14.547,62.551 C14.547,61.663 13.767,61.159 12.903,61.159 C11.824,61.159 11.248,61.783 11.248,62.551 C11.248,63.414 11.932,63.918 12.819,64.122 L12.819,64.122 Z" id="Fill-30" fill="#4D4D4C" sketch:type="MSShapeGroup"></path>
            <path d="M25.475,69.056 C25.475,70.249 26.442,71.216 27.635,71.216 L41.315,71.216 C42.508,71.216 43.475,70.249 43.475,69.056 L43.475,60.126 C43.475,58.933 42.508,57.966 41.315,57.966 L27.635,57.966 C26.442,57.966 25.475,58.933 25.475,60.126 L25.475,69.056" id="Fill-31" fill="#BFE4EF" sketch:type="MSShapeGroup"></path>
            <path d="M32.44,68.176 L32.584,67.684 C32.884,67.828 33.388,67.899 33.808,67.899 C35.379,67.899 36.302,66.856 36.386,64.686 C36.075,65.237 35.343,65.729 34.288,65.729 C32.992,65.729 31.889,64.829 31.889,63.259 C31.889,61.591 33.028,60.656 34.396,60.656 C35.691,60.656 36.974,61.651 36.974,64.218 C36.974,67.288 35.643,68.403 33.832,68.403 C33.232,68.403 32.824,68.344 32.44,68.176 L32.44,68.176 Z M34.372,61.159 C33.352,61.159 32.513,61.94 32.513,63.234 C32.513,64.554 33.316,65.226 34.396,65.226 C35.355,65.226 36.051,64.722 36.29,64.074 C36.362,63.882 36.351,63.81 36.351,63.69 C36.351,62.503 35.631,61.159 34.372,61.159 L34.372,61.159 Z" id="Fill-32" fill="#4D4D4C" sketch:type="MSShapeGroup"></path>
            <path d="M47.075,69.056 C47.075,70.249 48.043,71.216 49.235,71.216 L62.915,71.216 C64.108,71.216 65.075,70.249 65.075,69.056 L65.075,60.126 C65.075,58.933 64.108,57.966 62.915,57.966 L49.235,57.966 C48.043,57.966 47.075,58.933 47.075,60.126 L47.075,69.056" id="Fill-33" fill="#BFE4EF" sketch:type="MSShapeGroup"></path>
            <path d="M53.11,60.752 L53.578,60.752 L53.578,68.308 L52.966,68.308 L52.966,61.447 L51.395,62.131 L51.251,61.604 L53.11,60.752" id="Fill-34" fill="#4D4D4C" sketch:type="MSShapeGroup"></path>
            <path d="M60.932,64.529 C60.932,67.168 59.648,68.403 58.126,68.403 C56.578,68.403 55.295,67.168 55.295,64.529 C55.295,62.011 56.578,60.656 58.126,60.656 C59.672,60.656 60.932,61.892 60.932,64.529 L60.932,64.529 Z M58.149,67.899 C59.289,67.899 60.308,66.856 60.308,64.529 C60.308,62.095 59.229,61.159 58.089,61.159 C56.95,61.159 55.919,62.203 55.919,64.529 C55.919,66.977 57.01,67.899 58.149,67.899 L58.149,67.899 Z" id="Fill-35" fill="#4D4D4C" sketch:type="MSShapeGroup"></path>
            <path d="M68.675,69.056 C68.675,70.249 69.643,71.216 70.835,71.216 L84.515,71.216 C85.708,71.216 86.675,70.249 86.675,69.056 L86.675,60.126 C86.675,58.933 85.708,57.966 84.515,57.966 L70.835,57.966 C69.643,57.966 68.675,58.933 68.675,60.126 L68.675,69.056" id="Fill-36" fill="#BFE4EF" sketch:type="MSShapeGroup"></path>
            <path d="M76.126,60.752 L76.593,60.752 L76.593,68.308 L75.981,68.308 L75.981,61.447 L74.411,62.131 L74.267,61.604 L76.126,60.752" id="Fill-37" fill="#4D4D4C" sketch:type="MSShapeGroup"></path>
            <path d="M80.193,60.752 L80.661,60.752 L80.661,68.308 L80.049,68.308 L80.049,61.447 L78.478,62.131 L78.335,61.604 L80.193,60.752" id="Fill-38" fill="#4D4D4C" sketch:type="MSShapeGroup"></path>
            <path d="M90.275,69.056 C90.275,70.249 91.243,71.216 92.436,71.216 L106.115,71.216 C107.308,71.216 108.275,70.249 108.275,69.056 L108.275,60.126 C108.275,58.933 107.308,57.966 106.115,57.966 L92.436,57.966 C91.243,57.966 90.275,58.933 90.275,60.126 L90.275,69.056" id="Fill-39" fill="#BFE4EF" sketch:type="MSShapeGroup"></path>
            <path d="M96.903,60.752 L97.371,60.752 L97.371,68.308 L96.759,68.308 L96.759,61.447 L95.189,62.131 L95.044,61.604 L96.903,60.752" id="Fill-40" fill="#4D4D4C" sketch:type="MSShapeGroup"></path>
            <path d="M99.364,61.808 L99.088,61.388 C99.796,60.788 100.503,60.656 101.103,60.656 C102.59,60.656 103.346,61.579 103.346,62.815 C103.346,63.978 102.566,65.069 100.923,66.748 L99.844,67.804 L103.646,67.804 L103.646,68.308 L99.1,68.308 L98.992,67.912 L100.012,66.916 C102.015,64.878 102.698,64.038 102.698,62.839 C102.698,61.808 102.159,61.159 101.103,61.159 C100.551,61.159 99.964,61.291 99.364,61.808" id="Fill-41" fill="#4D4D4C" sketch:type="MSShapeGroup"></path>
            <path d="M111.876,69.056 C111.876,70.249 112.843,71.216 114.036,71.216 L127.715,71.216 C128.908,71.216 129.875,70.249 129.875,69.056 L129.875,60.126 C129.875,58.933 128.908,57.966 127.715,57.966 L114.036,57.966 C112.843,57.966 111.876,58.933 111.876,60.126 L111.876,69.056" id="Fill-42" fill="#BFE4EF" sketch:type="MSShapeGroup"></path>
            <path d="M118.42,60.752 L118.887,60.752 L118.887,68.308 L118.275,68.308 L118.275,61.447 L116.705,62.131 L116.56,61.604 L118.42,60.752" id="Fill-43" fill="#4D4D4C" sketch:type="MSShapeGroup"></path>
            <path d="M120.616,61.22 C121.216,60.811 121.852,60.656 122.5,60.656 C123.807,60.656 124.706,61.508 124.706,62.623 C124.706,63.559 124.143,64.194 123.436,64.445 C124.322,64.674 124.971,65.369 124.971,66.28 C124.971,67.84 123.627,68.403 122.355,68.403 C121.695,68.403 120.952,68.26 120.473,68.02 L120.616,67.54 C121.072,67.768 121.672,67.899 122.344,67.899 C123.363,67.899 124.346,67.408 124.346,66.28 C124.346,65.333 123.531,64.758 122.355,64.758 L121.432,64.758 L121.432,64.266 L122.127,64.266 C123.207,64.266 124.106,63.69 124.106,62.659 C124.106,61.772 123.494,61.159 122.463,61.159 C121.875,61.159 121.42,61.279 120.809,61.64 L120.616,61.22" id="Fill-44" fill="#4D4D4C" sketch:type="MSShapeGroup"></path>
            <path d="M133.476,69.056 C133.476,70.249 134.442,71.216 135.636,71.216 L149.315,71.216 C150.508,71.216 151.475,70.249 151.475,69.056 L151.475,60.126 C151.475,58.933 150.508,57.966 149.315,57.966 L135.636,57.966 C134.442,57.966 133.476,58.933 133.476,60.126 L133.476,69.056" id="Fill-45" fill="#BFE4EF" sketch:type="MSShapeGroup"></path>
            <path d="M139.744,60.752 L140.211,60.752 L140.211,68.308 L139.6,68.308 L139.6,61.447 L138.029,62.131 L137.885,61.604 L139.744,60.752" id="Fill-46" fill="#4D4D4C" sketch:type="MSShapeGroup"></path>
            <path d="M145.287,60.752 L145.994,60.752 L145.994,65.753 L147.302,65.753 L147.302,66.257 L145.994,66.257 L145.994,68.308 L145.371,68.308 L145.371,66.257 L141.533,66.257 L141.533,65.909 L145.287,60.752 L145.287,60.752 Z M142.301,65.753 L145.371,65.753 L145.371,63.007 L145.431,61.315 L145.406,61.315 L144.352,62.935 L142.301,65.753 L142.301,65.753 Z" id="Fill-47" fill="#4D4D4C" sketch:type="MSShapeGroup"></path>
            <path d="M3.875,84.896 C3.875,86.089 4.842,87.056 6.035,87.056 L19.715,87.056 C20.908,87.056 21.875,86.089 21.875,84.896 L21.875,75.966 C21.875,74.773 20.908,73.806 19.715,73.806 L6.035,73.806 C4.842,73.806 3.875,74.773 3.875,75.966 L3.875,84.896" id="Fill-48" fill="#BFE4EF" sketch:type="MSShapeGroup"></path>
            <path d="M25.475,84.896 C25.475,86.089 26.442,87.056 27.635,87.056 L41.315,87.056 C42.508,87.056 43.475,86.089 43.475,84.896 L43.475,75.966 C43.475,74.773 42.508,73.806 41.315,73.806 L27.635,73.806 C26.442,73.806 25.475,74.773 25.475,75.966 L25.475,84.896" id="Fill-49" fill="#BFE4EF" sketch:type="MSShapeGroup"></path>
            <path d="M47.075,84.896 C47.075,86.089 48.043,87.056 49.235,87.056 L62.915,87.056 C64.108,87.056 65.075,86.089 65.075,84.896 L65.075,75.966 C65.075,74.773 64.108,73.806 62.915,73.806 L49.235,73.806 C48.043,73.806 47.075,74.773 47.075,75.966 L47.075,84.896" id="Fill-50" fill="#BFE4EF" sketch:type="MSShapeGroup"></path>
            <path d="M68.675,84.896 C68.675,86.089 69.643,87.056 70.835,87.056 L84.515,87.056 C85.708,87.056 86.675,86.089 86.675,84.896 L86.675,75.966 C86.675,74.773 85.708,73.806 84.515,73.806 L70.835,73.806 C69.643,73.806 68.675,74.773 68.675,75.966 L68.675,84.896" id="Fill-51" fill="#BFE4EF" sketch:type="MSShapeGroup"></path>
            <path d="M90.275,84.896 C90.275,86.089 91.243,87.056 92.436,87.056 L106.115,87.056 C107.308,87.056 108.275,86.089 108.275,84.896 L108.275,75.966 C108.275,74.773 107.308,73.806 106.115,73.806 L92.436,73.806 C91.243,73.806 90.275,74.773 90.275,75.966 L90.275,84.896" id="Fill-52" fill="#BFE4EF" sketch:type="MSShapeGroup"></path>
            <path d="M111.876,84.896 C111.876,86.089 112.843,87.056 114.036,87.056 L127.715,87.056 C128.908,87.056 129.875,86.089 129.875,84.896 L129.875,75.966 C129.875,74.773 128.908,73.806 127.715,73.806 L114.036,73.806 C112.843,73.806 111.876,74.773 111.876,75.966 L111.876,84.896" id="Fill-53" fill="#BFE4EF" sketch:type="MSShapeGroup"></path>
            <path d="M133.476,84.896 C133.476,86.089 134.442,87.056 135.636,87.056 L149.315,87.056 C150.508,87.056 151.475,86.089 151.475,84.896 L151.475,75.966 C151.475,74.773 150.508,73.806 149.315,73.806 L135.636,73.806 C134.442,73.806 133.476,74.773 133.476,75.966 L133.476,84.896" id="Fill-54" fill="#BFE4EF" sketch:type="MSShapeGroup"></path>
            <path d="M3.875,116.575 C3.875,117.769 4.842,118.735 6.035,118.735 L19.715,118.735 C20.908,118.735 21.875,117.769 21.875,116.575 L21.875,107.646 C21.875,106.452 20.908,105.485 19.715,105.485 L6.035,105.485 C4.842,105.485 3.875,106.452 3.875,107.646 L3.875,116.575" id="Fill-55" fill="#BFE4EF" sketch:type="MSShapeGroup"></path>
            <path d="M7.889,109.328 L7.613,108.908 C8.32,108.309 9.028,108.176 9.627,108.176 C11.115,108.176 11.87,109.1 11.87,110.334 C11.87,111.498 11.091,112.59 9.448,114.268 L8.368,115.324 L12.17,115.324 L12.17,115.828 L7.624,115.828 L7.517,115.432 L8.536,114.435 C10.539,112.398 11.223,111.559 11.223,110.359 C11.223,109.328 10.683,108.68 9.627,108.68 C9.076,108.68 8.488,108.81 7.889,109.328" id="Fill-56" fill="#4D4D4C" sketch:type="MSShapeGroup"></path>
            <path d="M13.696,115.695 L13.84,115.203 C14.14,115.348 14.644,115.42 15.063,115.42 C16.635,115.42 17.558,114.377 17.642,112.205 C17.331,112.758 16.599,113.25 15.544,113.25 C14.248,113.25 13.145,112.35 13.145,110.779 C13.145,109.111 14.284,108.176 15.651,108.176 C16.947,108.176 18.23,109.172 18.23,111.738 C18.23,114.809 16.898,115.924 15.088,115.924 C14.488,115.924 14.08,115.863 13.696,115.695 L13.696,115.695 Z M15.627,108.68 C14.608,108.68 13.769,109.459 13.769,110.754 C13.769,112.074 14.572,112.746 15.651,112.746 C16.611,112.746 17.307,112.242 17.546,111.594 C17.618,111.402 17.606,111.33 17.606,111.211 C17.606,110.023 16.887,108.68 15.627,108.68 L15.627,108.68 Z" id="Fill-57" fill="#4D4D4C" sketch:type="MSShapeGroup"></path>
            <path d="M25.475,116.575 C25.475,117.769 26.442,118.735 27.635,118.735 L41.315,118.735 C42.508,118.735 43.475,117.769 43.475,116.575 L43.475,107.646 C43.475,106.452 42.508,105.485 41.315,105.485 L27.635,105.485 C26.442,105.485 25.475,106.452 25.475,107.646 L25.475,116.575" id="Fill-58" fill="#BFE4EF" sketch:type="MSShapeGroup"></path>
            <path d="M28.732,108.74 C29.332,108.332 29.968,108.176 30.616,108.176 C31.923,108.176 32.822,109.027 32.822,110.143 C32.822,111.078 32.259,111.715 31.551,111.965 C32.438,112.193 33.086,112.889 33.086,113.801 C33.086,115.359 31.743,115.924 30.472,115.924 C29.812,115.924 29.068,115.779 28.589,115.539 L28.732,115.06 C29.188,115.287 29.788,115.42 30.46,115.42 C31.479,115.42 32.462,114.928 32.462,113.801 C32.462,112.853 31.647,112.277 30.472,112.277 L29.548,112.277 L29.548,111.785 L30.244,111.785 C31.323,111.785 32.223,111.211 32.223,110.18 C32.223,109.291 31.611,108.68 30.58,108.68 C29.992,108.68 29.536,108.799 28.924,109.16 L28.732,108.74" id="Fill-59" fill="#4D4D4C" sketch:type="MSShapeGroup"></path>
            <path d="M40.237,112.049 C40.237,114.688 38.954,115.924 37.431,115.924 C35.884,115.924 34.601,114.688 34.601,112.049 C34.601,109.531 35.884,108.176 37.431,108.176 C38.978,108.176 40.237,109.412 40.237,112.049 L40.237,112.049 Z M37.455,115.42 C38.594,115.42 39.614,114.377 39.614,112.049 C39.614,109.615 38.534,108.68 37.395,108.68 C36.255,108.68 35.224,109.723 35.224,112.049 C35.224,114.496 36.315,115.42 37.455,115.42 L37.455,115.42 Z" id="Fill-60" fill="#4D4D4C" sketch:type="MSShapeGroup"></path>
            <path d="M10.516,76.592 L10.983,76.592 L10.983,84.148 L10.372,84.148 L10.372,77.287 L8.801,77.971 L8.657,77.443 L10.516,76.592" id="Fill-61" fill="#4D4D4C" sketch:type="MSShapeGroup"></path>
            <path d="M16.79,76.568 L16.79,77.084 L13.756,77.107 L13.48,79.711 C13.66,79.674 13.996,79.639 14.355,79.639 C15.699,79.639 16.946,80.406 16.946,81.857 C16.946,83.285 15.879,84.244 14.152,84.244 C13.588,84.244 12.94,84.148 12.545,83.92 L12.701,83.428 C13.048,83.633 13.624,83.74 14.128,83.74 C15.375,83.74 16.323,83.176 16.323,81.893 C16.323,80.826 15.483,80.119 14.14,80.119 C13.684,80.119 13.324,80.166 12.904,80.273 L13.276,76.592 L16.79,76.568" id="Fill-62" fill="#4D4D4C" sketch:type="MSShapeGroup"></path>
            <path d="M31.936,76.592 L32.403,76.592 L32.403,84.148 L31.792,84.148 L31.792,77.287 L30.221,77.971 L30.077,77.443 L31.936,76.592" id="Fill-63" fill="#4D4D4C" sketch:type="MSShapeGroup"></path>
            <path d="M38.594,76.725 L38.45,77.215 C38.103,77.061 37.767,77 37.335,77 C35.788,77 34.684,78.199 34.6,80.31 C34.912,79.758 35.727,79.184 36.723,79.184 C38.019,79.184 39.11,80.047 39.11,81.617 C39.11,83.176 38.066,84.244 36.639,84.244 C35.32,84.244 34.024,83.369 34.024,80.682 C34.024,77.732 35.68,76.496 37.251,76.496 C37.802,76.496 38.15,76.557 38.594,76.725 L38.594,76.725 Z M36.663,83.74 C37.683,83.74 38.486,82.949 38.486,81.654 C38.486,80.334 37.683,79.686 36.603,79.686 C35.704,79.686 34.996,80.25 34.744,80.898 C34.696,81.053 34.648,81.125 34.648,81.377 C34.648,82.853 35.536,83.74 36.663,83.74 L36.663,83.74 Z" id="Fill-64" fill="#4D4D4C" sketch:type="MSShapeGroup"></path>
            <path d="M53.59,76.592 L54.058,76.592 L54.058,84.148 L53.446,84.148 L53.446,77.287 L51.875,77.971 L51.731,77.443 L53.59,76.592" id="Fill-65" fill="#4D4D4C" sketch:type="MSShapeGroup"></path>
            <path d="M60.524,76.592 L60.524,76.951 L57.022,84.256 L56.459,84.004 L59.829,77.096 L55.823,77.096 L55.823,76.592 L60.524,76.592" id="Fill-66" fill="#4D4D4C" sketch:type="MSShapeGroup"></path>
            <path d="M75.129,76.592 L75.597,76.592 L75.597,84.148 L74.985,84.148 L74.985,77.287 L73.415,77.971 L73.27,77.443 L75.129,76.592" id="Fill-67" fill="#4D4D4C" sketch:type="MSShapeGroup"></path>
            <path d="M82.028,78.379 C82.028,79.086 81.644,79.734 80.504,80.154 C81.584,80.514 82.22,81.197 82.22,82.133 C82.22,83.477 81.116,84.244 79.725,84.244 C78.286,84.244 77.194,83.465 77.194,82.193 C77.194,81.209 77.734,80.574 78.874,80.19 C77.938,79.842 77.446,79.242 77.446,78.402 C77.446,77.348 78.226,76.496 79.737,76.496 C81.212,76.496 82.028,77.397 82.028,78.379 L82.028,78.379 Z M77.782,82.156 C77.782,83.008 78.43,83.74 79.725,83.74 C80.936,83.74 81.644,83.008 81.644,82.156 C81.644,81.281 80.876,80.658 79.665,80.453 C78.55,80.647 77.782,81.234 77.782,82.156 L77.782,82.156 Z M79.653,79.963 C80.612,79.758 81.38,79.231 81.38,78.391 C81.38,77.504 80.601,77 79.737,77 C78.658,77 78.082,77.623 78.082,78.391 C78.082,79.254 78.766,79.758 79.653,79.963 L79.653,79.963 Z" id="Fill-68" fill="#4D4D4C" sketch:type="MSShapeGroup"></path>
            <path d="M96.718,76.592 L97.186,76.592 L97.186,84.148 L96.574,84.148 L96.574,77.287 L95.003,77.971 L94.859,77.443 L96.718,76.592" id="Fill-69" fill="#4D4D4C" sketch:type="MSShapeGroup"></path>
            <path d="M99.274,84.016 L99.418,83.523 C99.718,83.668 100.222,83.74 100.642,83.74 C102.213,83.74 103.136,82.697 103.22,80.525 C102.909,81.078 102.177,81.57 101.122,81.57 C99.826,81.57 98.723,80.67 98.723,79.1 C98.723,77.432 99.862,76.496 101.23,76.496 C102.525,76.496 103.808,77.492 103.808,80.059 C103.808,83.129 102.477,84.244 100.666,84.244 C100.066,84.244 99.658,84.184 99.274,84.016 L99.274,84.016 Z M101.206,77 C100.186,77 99.347,77.779 99.347,79.074 C99.347,80.395 100.15,81.066 101.23,81.066 C102.189,81.066 102.885,80.563 103.124,79.914 C103.196,79.723 103.185,79.65 103.185,79.531 C103.185,78.344 102.465,77 101.206,77 L101.206,77 Z" id="Fill-70" fill="#4D4D4C" sketch:type="MSShapeGroup"></path>
            <path d="M115.48,77.648 L115.205,77.228 C115.912,76.629 116.62,76.496 117.219,76.496 C118.707,76.496 119.462,77.42 119.462,78.654 C119.462,79.818 118.683,80.91 117.04,82.588 L115.96,83.645 L119.762,83.645 L119.762,84.148 L115.216,84.148 L115.108,83.752 L116.128,82.756 C118.131,80.719 118.814,79.879 118.814,78.68 C118.814,77.648 118.275,77 117.219,77 C116.667,77 116.08,77.131 115.48,77.648" id="Fill-71" fill="#4D4D4C" sketch:type="MSShapeGroup"></path>
            <path d="M126.553,80.369 C126.553,83.008 125.27,84.244 123.747,84.244 C122.199,84.244 120.916,83.008 120.916,80.369 C120.916,77.852 122.199,76.496 123.747,76.496 C125.294,76.496 126.553,77.732 126.553,80.369 L126.553,80.369 Z M123.771,83.74 C124.91,83.74 125.93,82.697 125.93,80.369 C125.93,77.935 124.85,77 123.711,77 C122.571,77 121.54,78.043 121.54,80.369 C121.54,82.816 122.631,83.74 123.771,83.74 L123.771,83.74 Z" id="Fill-72" fill="#4D4D4C" sketch:type="MSShapeGroup"></path>
            <path d="M138.496,77.648 L138.221,77.228 C138.928,76.629 139.636,76.496 140.235,76.496 C141.723,76.496 142.479,77.42 142.479,78.654 C142.479,79.818 141.699,80.91 140.056,82.588 L138.977,83.645 L142.778,83.645 L142.778,84.148 L138.232,84.148 L138.125,83.752 L139.145,82.756 C141.147,80.719 141.83,79.879 141.83,78.68 C141.83,77.648 141.291,77 140.235,77 C139.684,77 139.096,77.131 138.496,77.648" id="Fill-73" fill="#4D4D4C" sketch:type="MSShapeGroup"></path>
            <path d="M145.815,76.592 L146.283,76.592 L146.283,84.148 L145.672,84.148 L145.672,77.287 L144.101,77.971 L143.957,77.443 L145.815,76.592" id="Fill-74" fill="#4D4D4C" sketch:type="MSShapeGroup"></path>
            <path d="M3.875,100.735 C3.875,101.929 4.842,102.896 6.035,102.896 L19.715,102.896 C20.908,102.896 21.875,101.929 21.875,100.735 L21.875,91.806 C21.875,90.612 20.908,89.646 19.715,89.646 L6.035,89.646 C4.842,89.646 3.875,90.612 3.875,91.806 L3.875,100.735" id="Fill-75" fill="#BFE4EF" sketch:type="MSShapeGroup"></path>
            <path d="M8.075,93.488 L7.799,93.068 C8.506,92.469 9.214,92.336 9.813,92.336 C11.301,92.336 12.057,93.26 12.057,94.494 C12.057,95.658 11.277,96.75 9.634,98.428 L8.554,99.484 L12.356,99.484 L12.356,99.988 L7.81,99.988 L7.703,99.592 L8.722,98.596 C10.725,96.559 11.409,95.719 11.409,94.52 C11.409,93.488 10.869,92.84 9.813,92.84 C9.262,92.84 8.674,92.971 8.075,93.488" id="Fill-76" fill="#4D4D4C" sketch:type="MSShapeGroup"></path>
            <path d="M13.787,93.488 L13.511,93.068 C14.218,92.469 14.926,92.336 15.525,92.336 C17.013,92.336 17.769,93.26 17.769,94.494 C17.769,95.658 16.989,96.75 15.346,98.428 L14.266,99.484 L18.068,99.484 L18.068,99.988 L13.523,99.988 L13.415,99.592 L14.434,98.596 C16.437,96.559 17.121,95.719 17.121,94.52 C17.121,93.488 16.581,92.84 15.525,92.84 C14.974,92.84 14.386,92.971 13.787,93.488" id="Fill-77" fill="#4D4D4C" sketch:type="MSShapeGroup"></path>
            <path d="M25.475,100.735 C25.475,101.929 26.442,102.896 27.635,102.896 L41.315,102.896 C42.508,102.896 43.475,101.929 43.475,100.735 L43.475,91.806 C43.475,90.612 42.508,89.646 41.315,89.646 L27.635,89.646 C26.442,89.646 25.475,90.612 25.475,91.806 L25.475,100.735" id="Fill-78" fill="#BFE4EF" sketch:type="MSShapeGroup"></path>
            <path d="M29.591,93.488 L29.315,93.068 C30.022,92.469 30.73,92.336 31.33,92.336 C32.817,92.336 33.573,93.26 33.573,94.494 C33.573,95.658 32.793,96.75 31.15,98.428 L30.07,99.484 L33.873,99.484 L33.873,99.988 L29.327,99.988 L29.219,99.592 L30.238,98.596 C32.241,96.559 32.925,95.719 32.925,94.52 C32.925,93.488 32.385,92.84 31.33,92.84 C30.778,92.84 30.19,92.971 29.591,93.488" id="Fill-79" fill="#4D4D4C" sketch:type="MSShapeGroup"></path>
            <path d="M35.039,92.9 C35.638,92.492 36.274,92.336 36.922,92.336 C38.229,92.336 39.128,93.187 39.128,94.303 C39.128,95.238 38.565,95.875 37.857,96.125 C38.745,96.353 39.393,97.049 39.393,97.961 C39.393,99.52 38.049,100.084 36.778,100.084 C36.118,100.084 35.374,99.94 34.895,99.699 L35.039,99.221 C35.495,99.447 36.094,99.58 36.766,99.58 C37.785,99.58 38.769,99.088 38.769,97.961 C38.769,97.014 37.953,96.438 36.778,96.438 L35.854,96.438 L35.854,95.945 L36.55,95.945 C37.629,95.945 38.529,95.371 38.529,94.34 C38.529,93.451 37.917,92.84 36.886,92.84 C36.298,92.84 35.842,92.959 35.23,93.32 L35.039,92.9" id="Fill-80" fill="#4D4D4C" sketch:type="MSShapeGroup"></path>
            <path d="M47.075,100.735 C47.075,101.929 48.043,102.896 49.235,102.896 L62.915,102.896 C64.108,102.896 65.075,101.929 65.075,100.735 L65.075,91.806 C65.075,90.612 64.108,89.646 62.915,89.646 L49.235,89.646 C48.043,89.646 47.075,90.612 47.075,91.806 L47.075,100.735" id="Fill-81" fill="#BFE4EF" sketch:type="MSShapeGroup"></path>
            <path d="M50.915,93.488 L50.639,93.068 C51.347,92.469 52.054,92.336 52.654,92.336 C54.141,92.336 54.896,93.26 54.896,94.494 C54.896,95.658 54.117,96.75 52.474,98.428 L51.395,99.484 L55.197,99.484 L55.197,99.988 L50.651,99.988 L50.543,99.592 L51.562,98.596 C53.565,96.559 54.249,95.719 54.249,94.52 C54.249,93.488 53.71,92.84 52.654,92.84 C52.102,92.84 51.515,92.971 50.915,93.488" id="Fill-82" fill="#4D4D4C" sketch:type="MSShapeGroup"></path>
            <path d="M59.709,92.432 L60.417,92.432 L60.417,97.434 L61.724,97.434 L61.724,97.938 L60.417,97.938 L60.417,99.988 L59.793,99.988 L59.793,97.938 L55.955,97.938 L55.955,97.59 L59.709,92.432 L59.709,92.432 Z M56.723,97.434 L59.793,97.434 L59.793,94.687 L59.853,92.996 L59.829,92.996 L58.773,94.615 L56.723,97.434 L56.723,97.434 Z" id="Fill-83" fill="#4D4D4C" sketch:type="MSShapeGroup"></path>
            <path d="M68.675,100.735 C68.675,101.929 69.643,102.896 70.835,102.896 L84.515,102.896 C85.708,102.896 86.675,101.929 86.675,100.735 L86.675,91.806 C86.675,90.612 85.708,89.646 84.515,89.646 L70.835,89.646 C69.643,89.646 68.675,90.612 68.675,91.806 L68.675,100.735" id="Fill-84" fill="#BFE4EF" sketch:type="MSShapeGroup"></path>
            <path d="M72.886,93.488 L72.61,93.068 C73.318,92.469 74.025,92.336 74.625,92.336 C76.112,92.336 76.868,93.26 76.868,94.494 C76.868,95.658 76.088,96.75 74.445,98.428 L73.366,99.484 L77.168,99.484 L77.168,99.988 L72.622,99.988 L72.514,99.592 L73.534,98.596 C75.537,96.559 76.22,95.719 76.22,94.52 C76.22,93.488 75.681,92.84 74.625,92.84 C74.073,92.84 73.486,92.971 72.886,93.488" id="Fill-85" fill="#4D4D4C" sketch:type="MSShapeGroup"></path>
            <path d="M82.412,92.408 L82.412,92.924 L79.377,92.947 L79.102,95.551 C79.282,95.514 79.618,95.478 79.977,95.478 C81.32,95.478 82.568,96.246 82.568,97.697 C82.568,99.125 81.5,100.084 79.773,100.084 C79.209,100.084 78.562,99.988 78.166,99.76 L78.322,99.268 C78.67,99.473 79.246,99.58 79.749,99.58 C80.997,99.58 81.944,99.016 81.944,97.732 C81.944,96.666 81.105,95.959 79.761,95.959 C79.306,95.959 78.946,96.006 78.526,96.113 L78.898,92.432 L82.412,92.408" id="Fill-86" fill="#4D4D4C" sketch:type="MSShapeGroup"></path>
            <path d="M90.275,100.735 C90.275,101.929 91.243,102.896 92.436,102.896 L106.115,102.896 C107.308,102.896 108.275,101.929 108.275,100.735 L108.275,91.806 C108.275,90.612 107.308,89.646 106.115,89.646 L92.436,89.646 C91.243,89.646 90.275,90.612 90.275,91.806 L90.275,100.735" id="Fill-87" fill="#BFE4EF" sketch:type="MSShapeGroup"></path>
            <path d="M94.307,93.488 L94.031,93.068 C94.738,92.469 95.446,92.336 96.045,92.336 C97.533,92.336 98.289,93.26 98.289,94.494 C98.289,95.658 97.509,96.75 95.866,98.428 L94.786,99.484 L98.588,99.484 L98.588,99.988 L94.042,99.988 L93.935,99.592 L94.954,98.596 C96.957,96.559 97.641,95.719 97.641,94.52 C97.641,93.488 97.101,92.84 96.045,92.84 C95.494,92.84 94.906,92.971 94.307,93.488" id="Fill-88" fill="#4D4D4C" sketch:type="MSShapeGroup"></path>
            <path d="M104.216,92.565 L104.072,93.055 C103.725,92.9 103.389,92.84 102.957,92.84 C101.41,92.84 100.306,94.039 100.222,96.15 C100.534,95.598 101.35,95.023 102.345,95.023 C103.641,95.023 104.732,95.887 104.732,97.457 C104.732,99.016 103.688,100.084 102.261,100.084 C100.942,100.084 99.646,99.209 99.646,96.522 C99.646,93.572 101.302,92.336 102.873,92.336 C103.424,92.336 103.773,92.397 104.216,92.565 L104.216,92.565 Z M102.285,99.58 C103.305,99.58 104.108,98.789 104.108,97.494 C104.108,96.174 103.305,95.525 102.225,95.525 C101.326,95.525 100.618,96.09 100.366,96.738 C100.318,96.893 100.27,96.965 100.27,97.217 C100.27,98.693 101.158,99.58 102.285,99.58 L102.285,99.58 Z" id="Fill-89" fill="#4D4D4C" sketch:type="MSShapeGroup"></path>
            <path d="M111.876,100.735 C111.876,101.929 112.843,102.896 114.036,102.896 L127.715,102.896 C128.908,102.896 129.875,101.929 129.875,100.735 L129.875,91.806 C129.875,90.612 128.908,89.646 127.715,89.646 L114.036,89.646 C112.843,89.646 111.876,90.612 111.876,91.806 L111.876,100.735" id="Fill-90" fill="#BFE4EF" sketch:type="MSShapeGroup"></path>
            <path d="M115.96,93.488 L115.685,93.068 C116.392,92.469 117.1,92.336 117.699,92.336 C119.186,92.336 119.942,93.26 119.942,94.494 C119.942,95.658 119.162,96.75 117.52,98.428 L116.44,99.484 L120.242,99.484 L120.242,99.988 L115.696,99.988 L115.588,99.592 L116.608,98.596 C118.611,96.559 119.295,95.719 119.295,94.52 C119.295,93.488 118.755,92.84 117.699,92.84 C117.148,92.84 116.56,92.971 115.96,93.488" id="Fill-91" fill="#4D4D4C" sketch:type="MSShapeGroup"></path>
            <path d="M126.146,92.432 L126.146,92.791 L122.644,100.096 L122.08,99.844 L125.45,92.935 L121.444,92.935 L121.444,92.432 L126.146,92.432" id="Fill-92" fill="#4D4D4C" sketch:type="MSShapeGroup"></path>
            <path d="M133.476,100.735 C133.476,101.929 134.442,102.896 135.636,102.896 L149.315,102.896 C150.508,102.896 151.475,101.929 151.475,100.735 L151.475,91.806 C151.475,90.612 150.508,89.646 149.315,89.646 L135.636,89.646 C134.442,89.646 133.476,90.612 133.476,91.806 L133.476,100.735" id="Fill-93" fill="#BFE4EF" sketch:type="MSShapeGroup"></path>
            <path d="M137.501,93.488 L137.225,93.068 C137.933,92.469 138.641,92.336 139.24,92.336 C140.727,92.336 141.482,93.26 141.482,94.494 C141.482,95.658 140.703,96.75 139.06,98.428 L137.98,99.484 L141.783,99.484 L141.783,99.988 L137.236,99.988 L137.129,99.592 L138.148,98.596 C140.151,96.559 140.835,95.719 140.835,94.52 C140.835,93.488 140.295,92.84 139.24,92.84 C138.688,92.84 138.101,92.971 137.501,93.488" id="Fill-94" fill="#4D4D4C" sketch:type="MSShapeGroup"></path>
            <path d="M147.65,94.219 C147.65,94.926 147.267,95.574 146.127,95.994 C147.207,96.353 147.842,97.037 147.842,97.973 C147.842,99.316 146.738,100.084 145.348,100.084 C143.908,100.084 142.816,99.305 142.816,98.033 C142.816,97.049 143.357,96.414 144.496,96.029 C143.56,95.682 143.068,95.082 143.068,94.242 C143.068,93.187 143.849,92.336 145.359,92.336 C146.835,92.336 147.65,93.236 147.65,94.219 L147.65,94.219 Z M143.404,97.996 C143.404,98.848 144.053,99.58 145.348,99.58 C146.559,99.58 147.267,98.848 147.267,97.996 C147.267,97.121 146.499,96.498 145.287,96.293 C144.172,96.486 143.404,97.074 143.404,97.996 L143.404,97.996 Z M145.275,95.803 C146.234,95.598 147.002,95.07 147.002,94.231 C147.002,93.344 146.223,92.84 145.359,92.84 C144.28,92.84 143.705,93.463 143.705,94.231 C143.705,95.094 144.389,95.598 145.275,95.803 L145.275,95.803 Z" id="Fill-95" fill="#4D4D4C" sketch:type="MSShapeGroup"></path>
            <path d="M20.905,5.593 C20.905,7.992 19.262,9.49 17.079,9.49 C14.896,9.49 13.301,8.052 13.301,5.593 C13.301,3.194 14.944,1.659 17.127,1.659 C19.31,1.659 20.905,3.135 20.905,5.593 L20.905,5.593 Z M17.127,8.123 C18.158,8.123 18.986,7.296 18.986,5.593 C18.986,3.83 18.123,3.026 17.079,3.026 C16.047,3.026 15.22,3.89 15.22,5.593 C15.22,7.296 16.084,8.123 17.127,8.123 L17.127,8.123 Z" id="Fill-96" fill="#636462" sketch:type="MSShapeGroup"></path>
            <path d="M26.294,7.908 L26.618,9.107 C26.354,9.263 25.647,9.49 24.879,9.49 C23.104,9.49 21.761,8.447 21.761,6.504 C21.761,4.705 23.044,3.471 24.915,3.471 C25.407,3.471 26.019,3.555 26.618,3.878 L26.247,5.09 C25.923,4.897 25.515,4.754 25.119,4.754 C24.196,4.754 23.56,5.329 23.56,6.457 C23.56,7.74 24.399,8.195 25.167,8.195 C25.683,8.195 26.091,8.016 26.294,7.908" id="Fill-97" fill="#636462" sketch:type="MSShapeGroup"></path>
            <path d="M31.239,4.873 L29.763,4.873 L29.763,7.309 C29.763,7.836 30.015,8.016 30.423,8.016 C30.747,8.016 31.095,7.943 31.274,7.836 L31.539,9.047 C31.274,9.191 30.663,9.359 30.039,9.359 C28.552,9.359 28.001,8.783 28.001,7.619 L28.001,4.873 L27.101,4.873 L27.101,3.602 L28.001,3.602 L28.001,1.852 L29.763,1.852 L29.763,3.602 L31.239,3.602 L31.239,4.873" id="Fill-98" fill="#636462" sketch:type="MSShapeGroup"></path>
            <path d="M35.007,9.49 C33.304,9.49 32.033,8.424 32.033,6.565 C32.033,4.598 33.352,3.471 35.055,3.471 C36.758,3.471 38.029,4.502 38.029,6.444 C38.029,8.34 36.71,9.49 35.007,9.49 L35.007,9.49 Z M35.019,4.766 C34.419,4.766 33.855,5.174 33.855,6.504 C33.855,7.668 34.419,8.195 35.043,8.195 C35.643,8.195 36.206,7.764 36.206,6.504 C36.206,5.258 35.643,4.766 35.019,4.766 L35.019,4.766 Z" id="Fill-99" fill="#636462" sketch:type="MSShapeGroup"></path>
            <path d="M42.219,9.49 C41.475,9.49 40.96,9.251 40.587,8.831 L40.54,8.831 L40.432,9.359 L39.148,9.359 L39.148,0.783 L40.911,0.783 L40.911,3.998 C41.271,3.698 41.787,3.471 42.387,3.471 C43.981,3.471 44.953,4.598 44.953,6.504 C44.953,8.352 43.778,9.49 42.219,9.49 L42.219,9.49 Z M41.847,4.814 C41.463,4.814 41.079,5.065 40.923,5.258 L40.923,7.848 C41.091,8.052 41.403,8.195 41.727,8.195 C42.459,8.195 43.13,7.68 43.13,6.553 C43.13,5.389 42.65,4.814 41.847,4.814 L41.847,4.814 Z" id="Fill-100" fill="#636462" sketch:type="MSShapeGroup"></path>
            <path d="M51.241,6.996 L47.523,6.996 L47.523,7.044 C47.523,7.848 48.219,8.195 49.166,8.195 C49.814,8.195 50.318,8.039 50.654,7.871 L50.978,9.096 C50.546,9.299 49.898,9.49 48.938,9.49 C47.2,9.49 45.736,8.592 45.736,6.553 C45.736,4.717 46.924,3.471 48.639,3.471 C50.222,3.471 51.241,4.466 51.241,6.24 L51.241,6.996 L51.241,6.996 Z M49.43,5.785 C49.43,5.245 49.19,4.717 48.579,4.717 C48.027,4.717 47.619,5.137 47.559,5.809 L49.43,5.785 L49.43,5.785 Z" id="Fill-101" fill="#636462" sketch:type="MSShapeGroup"></path>
            <path d="M52.336,9.359 L52.336,3.602 L53.728,3.602 L53.907,4.609 C54.183,4.022 54.735,3.471 55.67,3.471 C56.018,3.471 56.33,3.578 56.51,3.686 L56.222,5.065 C56.054,4.969 55.778,4.873 55.382,4.873 C54.651,4.873 54.099,5.293 54.099,6.481 L54.099,9.359 L52.336,9.359" id="Fill-102" fill="#636462" sketch:type="MSShapeGroup"></path>
            <path d="M13.637,31.393 L15.316,31.393 L16.971,33.922 C17.559,34.822 18.17,35.854 18.47,36.609 L18.494,36.609 C18.41,35.662 18.41,34.678 18.41,33.719 L18.41,31.393 L20.089,31.393 L20.089,38.947 L18.41,38.947 L16.659,36.369 C16.084,35.529 15.592,34.654 15.256,33.683 L15.232,33.683 C15.316,34.678 15.316,35.59 15.316,36.549 L15.316,38.947 L13.637,38.947 L13.637,31.393" id="Fill-103" fill="#00A3DB" sketch:type="MSShapeGroup"></path>
            <path d="M24.255,39.08 C22.552,39.08 21.281,38.012 21.281,36.153 C21.281,34.187 22.6,33.059 24.303,33.059 C26.006,33.059 27.278,34.09 27.278,36.033 C27.278,37.928 25.959,39.08 24.255,39.08 L24.255,39.08 Z M24.268,34.355 C23.668,34.355 23.104,34.762 23.104,36.094 C23.104,37.257 23.668,37.784 24.292,37.784 C24.891,37.784 25.455,37.353 25.455,36.094 C25.455,34.846 24.891,34.355 24.268,34.355 L24.268,34.355 Z" id="Fill-104" fill="#00A3DB" sketch:type="MSShapeGroup"></path>
            <path d="M31.947,33.191 L33.83,33.191 L31.815,38.947 L29.704,38.947 L27.785,33.191 L29.68,33.191 L30.376,35.709 L30.771,37.713 L30.819,37.713 L31.215,35.709 L31.947,33.191" id="Fill-105" fill="#00A3DB" sketch:type="MSShapeGroup"></path>
            <path d="M39.818,36.585 L36.1,36.585 L36.1,36.633 C36.1,37.437 36.795,37.784 37.743,37.784 C38.391,37.784 38.894,37.629 39.23,37.461 L39.554,38.684 C39.123,38.888 38.475,39.08 37.515,39.08 C35.776,39.08 34.313,38.18 34.313,36.141 C34.313,34.307 35.501,33.059 37.215,33.059 C38.798,33.059 39.818,34.055 39.818,35.83 L39.818,36.585 L39.818,36.585 Z M38.007,35.373 C38.007,34.834 37.767,34.307 37.155,34.307 C36.603,34.307 36.196,34.727 36.136,35.398 L38.007,35.373 L38.007,35.373 Z" id="Fill-106" fill="#00A3DB" sketch:type="MSShapeGroup"></path>
            <path d="M42.687,38.947 L40.913,38.947 L40.913,33.191 L42.291,33.191 L42.496,33.91 C43.011,33.383 43.611,33.059 44.354,33.059 C45.158,33.059 45.746,33.359 46.045,33.935 C46.561,33.406 47.221,33.059 47.953,33.059 C49.176,33.059 49.883,33.742 49.883,35.014 L49.883,38.947 L48.108,38.947 L48.108,35.193 C48.108,34.714 47.832,34.402 47.401,34.402 C47.017,34.402 46.561,34.606 46.286,34.966 L46.286,38.947 L44.51,38.947 L44.51,35.193 C44.51,34.714 44.234,34.402 43.803,34.402 C43.419,34.402 42.963,34.654 42.687,35.014 L42.687,38.947" id="Fill-107" fill="#00A3DB" sketch:type="MSShapeGroup"></path>
            <path d="M54.375,39.08 C53.631,39.08 53.116,38.84 52.744,38.42 L52.696,38.42 L52.588,38.947 L51.305,38.947 L51.305,30.373 L53.067,30.373 L53.067,33.587 C53.427,33.287 53.943,33.059 54.543,33.059 C56.138,33.059 57.109,34.187 57.109,36.094 C57.109,37.94 55.934,39.08 54.375,39.08 L54.375,39.08 Z M54.003,34.402 C53.619,34.402 53.235,34.654 53.08,34.846 L53.08,37.437 C53.248,37.641 53.559,37.784 53.883,37.784 C54.615,37.784 55.287,37.269 55.287,36.141 C55.287,34.979 54.807,34.402 54.003,34.402 L54.003,34.402 Z" id="Fill-108" fill="#00A3DB" sketch:type="MSShapeGroup"></path>
            <path d="M63.397,36.585 L59.68,36.585 L59.68,36.633 C59.68,37.437 60.375,37.784 61.323,37.784 C61.97,37.784 62.474,37.629 62.81,37.461 L63.134,38.684 C62.702,38.888 62.054,39.08 61.095,39.08 C59.356,39.08 57.893,38.18 57.893,36.141 C57.893,34.307 59.08,33.059 60.795,33.059 C62.378,33.059 63.397,34.055 63.397,35.83 L63.397,36.585 L63.397,36.585 Z M61.586,35.373 C61.586,34.834 61.347,34.307 60.735,34.307 C60.183,34.307 59.775,34.727 59.715,35.398 L61.586,35.373 L61.586,35.373 Z" id="Fill-109" fill="#00A3DB" sketch:type="MSShapeGroup"></path>
            <path d="M64.493,38.947 L64.493,33.191 L65.884,33.191 L66.063,34.198 C66.339,33.611 66.891,33.059 67.827,33.059 C68.174,33.059 68.486,33.167 68.666,33.275 L68.378,34.654 C68.21,34.559 67.935,34.463 67.539,34.463 C66.807,34.463 66.255,34.882 66.255,36.069 L66.255,38.947 L64.493,38.947" id="Fill-110" fill="#00A3DB" sketch:type="MSShapeGroup"></path>
            <path d="M3.875,134.685 C3.875,135.48 4.52,136.125 5.315,136.125 L12.529,136.125 C13.324,136.125 13.969,135.48 13.969,134.685 L13.969,127.472 C13.969,126.676 13.324,126.031 12.529,126.031 L5.315,126.031 C4.52,126.031 3.875,126.676 3.875,127.472 L3.875,134.685" id="Fill-111" fill="#343433" sketch:type="MSShapeGroup"></path>
            <path d="M21.539,127.776 L21.539,128.412 L18.436,128.412 L18.436,130.868 L21.301,130.868 L21.301,131.493 L18.436,131.493 L18.436,134.564 L17.66,134.564 L17.66,127.776 L21.539,127.776" id="Fill-112" fill="#343433" sketch:type="MSShapeGroup"></path>
            <path d="M22.656,127.69 C22.656,127.389 22.882,127.174 23.162,127.174 C23.421,127.174 23.668,127.378 23.668,127.69 C23.668,128.003 23.432,128.197 23.162,128.197 C22.882,128.197 22.656,127.992 22.656,127.69 L22.656,127.69 Z M22.785,129.5 L23.539,129.5 L23.539,134.563 L22.785,134.563 L22.785,129.5 Z" id="Fill-113" fill="#343433" sketch:type="MSShapeGroup"></path>
            <path d="M25.165,134.564 L25.165,129.5 L25.704,129.5 L25.843,130.513 C26.091,129.877 26.705,129.435 27.438,129.435 C27.793,129.435 28.052,129.5 28.213,129.576 L28.073,130.243 C27.901,130.157 27.685,130.093 27.405,130.093 C26.587,130.093 25.908,130.686 25.908,131.849 L25.908,134.564 L25.165,134.564" id="Fill-114" fill="#343433" sketch:type="MSShapeGroup"></path>
            <path d="M31.809,130.298 C31.389,130.093 31.023,130.018 30.613,130.018 C29.881,130.018 29.525,130.341 29.525,130.793 C29.525,131.202 29.751,131.407 30.527,131.633 L30.851,131.73 C31.734,132 32.219,132.441 32.219,133.174 C32.219,134.035 31.54,134.66 30.344,134.66 C29.698,134.66 29.138,134.542 28.739,134.348 L28.933,133.756 C29.321,133.949 29.762,134.068 30.29,134.068 C31.012,134.068 31.454,133.788 31.454,133.238 C31.454,132.775 31.141,132.549 30.43,132.322 L30.085,132.215 C29.202,131.935 28.771,131.504 28.771,130.836 C28.771,129.996 29.504,129.435 30.527,129.435 C31.002,129.435 31.551,129.511 31.992,129.716 L31.809,130.298" id="Fill-115" fill="#343433" sketch:type="MSShapeGroup"></path>
            <path d="M36.03,130.071 L34.435,130.071 L34.435,133.206 C34.435,133.788 34.737,133.949 35.2,133.949 C35.556,133.949 35.922,133.863 36.181,133.777 L36.299,134.348 C36.008,134.456 35.556,134.564 35.06,134.564 C34.134,134.564 33.681,134.133 33.681,133.303 L33.681,130.071 L32.852,130.071 L32.852,129.5 L33.681,129.5 L33.681,127.885 L34.435,127.885 L34.435,129.5 L36.03,129.5 L36.03,130.071" id="Fill-116" fill="#343433" sketch:type="MSShapeGroup"></path>
            <path d="M40.378,134.305 L40.378,137.041 L39.635,137.041 L39.635,129.435 L40.26,129.435 L40.368,130.082 C40.723,129.737 41.219,129.435 41.897,129.435 C43.179,129.435 44.062,130.319 44.062,131.913 C44.062,133.81 42.835,134.66 41.585,134.66 C41.122,134.66 40.68,134.521 40.378,134.305 L40.378,134.305 Z M40.378,130.75 L40.378,133.713 C40.702,133.96 41.1,134.068 41.488,134.068 C42.382,134.068 43.276,133.508 43.276,131.924 C43.276,130.75 42.781,130.05 41.736,130.05 C41.111,130.05 40.604,130.438 40.378,130.75 L40.378,130.75 Z" id="Fill-117" fill="#343433" sketch:type="MSShapeGroup"></path>
            <path d="M45.233,129.953 C45.901,129.598 46.418,129.435 47.108,129.435 C48.131,129.435 48.907,129.888 48.907,131.267 L48.907,134.564 L48.325,134.564 L48.207,133.949 L48.185,133.949 C47.754,134.445 47.194,134.66 46.537,134.66 C45.578,134.66 44.878,134.09 44.878,133.195 C44.878,132.129 45.783,131.579 47.129,131.579 L48.153,131.579 L48.153,131.202 C48.153,130.341 47.711,130.05 47.054,130.05 C46.656,130.05 46.139,130.147 45.524,130.491 L45.233,129.953 L45.233,129.953 Z M48.153,132.129 L47.313,132.14 C46.117,132.172 45.665,132.603 45.665,133.163 C45.665,133.842 46.149,134.079 46.72,134.079 C47.216,134.079 47.787,133.853 48.153,133.314 L48.153,132.129 L48.153,132.129 Z" id="Fill-118" fill="#343433" sketch:type="MSShapeGroup"></path>
            <path d="M52.233,129.435 C52.47,129.435 52.664,129.468 52.847,129.5 L54.991,129.5 L54.991,130.071 L54.517,130.071 L53.612,129.975 C53.967,130.243 54.205,130.696 54.205,131.17 C54.205,132.301 53.364,132.926 52.211,132.926 C52.007,132.926 51.813,132.915 51.619,132.883 C51.285,133.001 51.102,133.249 51.102,133.486 C51.102,133.831 51.382,133.96 51.781,133.96 L53.105,133.96 C54.215,133.96 54.829,134.499 54.829,135.307 C54.829,136.373 53.838,137.041 52.265,137.041 C50.832,137.041 49.917,136.481 49.917,135.49 C49.917,134.962 50.262,134.596 50.822,134.402 C50.563,134.251 50.402,134.014 50.402,133.648 C50.402,133.195 50.703,132.883 51.113,132.7 C50.596,132.463 50.197,131.945 50.197,131.181 C50.197,130.05 51.048,129.435 52.233,129.435 L52.233,129.435 Z M51.296,134.564 C50.908,134.714 50.671,135.005 50.671,135.382 C50.671,136.082 51.274,136.438 52.298,136.438 C53.569,136.438 54.075,135.889 54.075,135.36 C54.075,134.714 53.547,134.564 52.836,134.564 L51.296,134.564 L51.296,134.564 Z M52.233,129.996 C51.511,129.996 50.973,130.384 50.973,131.159 C50.973,131.978 51.501,132.366 52.211,132.366 C52.922,132.366 53.429,131.978 53.429,131.202 C53.429,130.405 52.944,129.996 52.233,129.996 L52.233,129.996 Z" id="Fill-119" fill="#343433" sketch:type="MSShapeGroup"></path>
            <path d="M60.116,132.086 L56.496,132.086 L56.496,132.183 C56.496,133.368 57.196,134.068 58.306,134.068 C58.801,134.068 59.211,133.992 59.674,133.81 L59.835,134.369 C59.437,134.542 58.866,134.66 58.273,134.66 C56.873,134.66 55.71,133.874 55.71,132.043 C55.71,130.459 56.658,129.435 58.08,129.435 C59.308,129.435 60.116,130.319 60.116,131.645 L60.116,132.086 L60.116,132.086 Z M59.34,131.525 C59.34,130.728 58.963,130.007 58.037,130.007 C57.207,130.007 56.636,130.6 56.518,131.536 L59.34,131.525 L59.34,131.525 Z" id="Fill-120" fill="#343433" sketch:type="MSShapeGroup"></path>
            <path d="M71.965,134.685 C71.965,135.48 72.609,136.125 73.405,136.125 L80.618,136.125 C81.414,136.125 82.059,135.48 82.059,134.685 L82.059,127.472 C82.059,126.676 81.414,126.031 80.618,126.031 L73.405,126.031 C72.609,126.031 71.965,126.676 71.965,127.472 L71.965,134.685" id="Fill-121" fill="#BFE4EF" sketch:type="MSShapeGroup"></path>
            <path d="M88.523,127.776 L89.244,127.776 L91.873,134.564 L91.054,134.564 L90.311,132.624 L87.402,132.624 L86.659,134.564 L85.851,134.564 L88.523,127.776 L88.523,127.776 Z M87.618,132 L90.074,132 L89.535,130.545 C89.331,130.05 89.115,129.393 88.878,128.639 L88.856,128.639 C88.62,129.393 88.426,129.91 88.178,130.545 L87.618,132 L87.618,132 Z" id="Fill-122" fill="#00A3DB" sketch:type="MSShapeGroup"></path>
            <path d="M92.817,126.915 L93.56,126.915 L93.56,134.563 L92.817,134.563 L92.817,126.915 Z" id="Fill-123" fill="#00A3DB" sketch:type="MSShapeGroup"></path>
            <path d="M95.197,126.915 L95.94,126.915 L95.94,134.563 L95.197,134.563 L95.197,126.915 Z" id="Fill-124" fill="#00A3DB" sketch:type="MSShapeGroup"></path>
            <path d="M101.884,134.66 C100.548,134.66 99.524,133.756 99.524,132.086 C99.524,130.384 100.591,129.435 101.927,129.435 C103.263,129.435 104.265,130.309 104.265,131.978 C104.265,133.68 103.22,134.66 101.884,134.66 L101.884,134.66 Z M101.895,130.028 C101.087,130.028 100.311,130.556 100.311,132.032 C100.311,133.497 101.108,134.068 101.916,134.068 C102.724,134.068 103.478,133.551 103.478,132.032 C103.478,130.61 102.703,130.028 101.895,130.028 L101.895,130.028 Z" id="Fill-125" fill="#00A3DB" sketch:type="MSShapeGroup"></path>
            <path d="M108.086,130.071 L106.491,130.071 L106.491,133.206 C106.491,133.788 106.793,133.949 107.256,133.949 C107.612,133.949 107.978,133.863 108.237,133.777 L108.355,134.348 C108.064,134.456 107.612,134.564 107.116,134.564 C106.19,134.564 105.737,134.133 105.737,133.303 L105.737,130.071 L104.908,130.071 L104.908,129.5 L105.737,129.5 L105.737,127.885 L106.491,127.885 L106.491,129.5 L108.086,129.5 L108.086,130.071" id="Fill-126" fill="#00A3DB" sketch:type="MSShapeGroup"></path>
            <path d="M110.131,134.564 L109.377,134.564 L109.377,126.915 L110.131,126.915 L110.131,130.168 C110.605,129.748 111.176,129.435 111.865,129.435 C112.986,129.435 113.514,130.136 113.514,131.073 L113.514,134.564 L112.759,134.564 L112.759,131.277 C112.759,130.405 112.361,130.05 111.671,130.05 C111.176,130.05 110.626,130.33 110.131,130.782 L110.131,134.564" id="Fill-127" fill="#00A3DB" sketch:type="MSShapeGroup"></path>
            <path d="M119.133,132.086 L115.514,132.086 L115.514,132.183 C115.514,133.368 116.214,134.068 117.324,134.068 C117.819,134.068 118.229,133.992 118.691,133.81 L118.854,134.369 C118.455,134.542 117.884,134.66 117.291,134.66 C115.891,134.66 114.727,133.874 114.727,132.043 C114.727,130.459 115.675,129.435 117.097,129.435 C118.325,129.435 119.133,130.319 119.133,131.645 L119.133,132.086 L119.133,132.086 Z M118.357,131.525 C118.357,130.728 117.98,130.007 117.054,130.007 C116.225,130.007 115.654,130.6 115.535,131.536 L118.357,131.525 L118.357,131.525 Z" id="Fill-128" fill="#00A3DB" sketch:type="MSShapeGroup"></path>
            <path d="M120.305,134.564 L120.305,129.5 L120.844,129.5 L120.983,130.513 C121.231,129.877 121.846,129.435 122.578,129.435 C122.934,129.435 123.191,129.5 123.354,129.576 L123.213,130.243 C123.041,130.157 122.826,130.093 122.545,130.093 C121.727,130.093 121.049,130.686 121.049,131.849 L121.049,134.564 L120.305,134.564" id="Fill-129" fill="#00A3DB" sketch:type="MSShapeGroup"></path>
            <path d="M127.314,134.305 L127.314,137.041 L126.571,137.041 L126.571,129.435 L127.195,129.435 L127.304,130.082 C127.659,129.737 128.154,129.435 128.834,129.435 C130.115,129.435 130.998,130.319 130.998,131.913 C130.998,133.81 129.77,134.66 128.521,134.66 C128.058,134.66 127.616,134.521 127.314,134.305 L127.314,134.305 Z M127.314,130.75 L127.314,133.713 C127.638,133.96 128.036,134.068 128.424,134.068 C129.318,134.068 130.213,133.508 130.213,131.924 C130.213,130.75 129.717,130.05 128.672,130.05 C128.047,130.05 127.541,130.438 127.314,130.75 L127.314,130.75 Z" id="Fill-130" fill="#00A3DB" sketch:type="MSShapeGroup"></path>
            <path d="M132.17,129.953 C132.838,129.598 133.355,129.435 134.044,129.435 C135.067,129.435 135.843,129.888 135.843,131.267 L135.843,134.564 L135.262,134.564 L135.143,133.949 L135.121,133.949 C134.69,134.445 134.13,134.66 133.473,134.66 C132.515,134.66 131.814,134.09 131.814,133.195 C131.814,132.129 132.719,131.579 134.065,131.579 L135.089,131.579 L135.089,131.202 C135.089,130.341 134.648,130.05 133.99,130.05 C133.592,130.05 133.074,130.147 132.46,130.491 L132.17,129.953 L132.17,129.953 Z M135.089,132.129 L134.249,132.14 C133.053,132.172 132.601,132.603 132.601,133.163 C132.601,133.842 133.085,134.079 133.656,134.079 C134.151,134.079 134.723,133.853 135.089,133.314 L135.089,132.129 L135.089,132.129 Z" id="Fill-131" fill="#00A3DB" sketch:type="MSShapeGroup"></path>
            <path d="M139.17,129.435 C139.406,129.435 139.601,129.468 139.783,129.5 L141.928,129.5 L141.928,130.071 L141.453,130.071 L140.549,129.975 C140.904,130.243 141.141,130.696 141.141,131.17 C141.141,132.301 140.301,132.926 139.148,132.926 C138.943,132.926 138.749,132.915 138.556,132.883 C138.222,133.001 138.038,133.249 138.038,133.486 C138.038,133.831 138.318,133.96 138.717,133.96 L140.042,133.96 C141.151,133.96 141.766,134.499 141.766,135.307 C141.766,136.373 140.774,137.041 139.202,137.041 C137.77,137.041 136.854,136.481 136.854,135.49 C136.854,134.962 137.198,134.596 137.759,134.402 C137.5,134.251 137.338,134.014 137.338,133.648 C137.338,133.195 137.64,132.883 138.049,132.7 C137.532,132.463 137.134,131.945 137.134,131.181 C137.134,130.05 137.984,129.435 139.17,129.435 L139.17,129.435 Z M138.232,134.564 C137.845,134.714 137.607,135.005 137.607,135.382 C137.607,136.082 138.211,136.438 139.234,136.438 C140.506,136.438 141.012,135.889 141.012,135.36 C141.012,134.714 140.483,134.564 139.773,134.564 L138.232,134.564 L138.232,134.564 Z M139.17,129.996 C138.448,129.996 137.909,130.384 137.909,131.159 C137.909,131.978 138.437,132.366 139.148,132.366 C139.859,132.366 140.365,131.978 140.365,131.202 C140.365,130.405 139.881,129.996 139.17,129.996 L139.17,129.996 Z" id="Fill-132" fill="#00A3DB" sketch:type="MSShapeGroup"></path>
            <path d="M147.052,132.086 L143.433,132.086 L143.433,132.183 C143.433,133.368 144.133,134.068 145.242,134.068 C145.737,134.068 146.146,133.992 146.61,133.81 L146.772,134.369 C146.373,134.542 145.802,134.66 145.21,134.66 C143.81,134.66 142.645,133.874 142.645,132.043 C142.645,130.459 143.594,129.435 145.016,129.435 C146.244,129.435 147.052,130.319 147.052,131.645 L147.052,132.086 L147.052,132.086 Z M146.276,131.525 C146.276,130.728 145.899,130.007 144.973,130.007 C144.144,130.007 143.572,130.6 143.454,131.536 L146.276,131.525 L146.276,131.525 Z" id="Fill-133" fill="#00A3DB" sketch:type="MSShapeGroup"></path>
            <path d="M150.959,130.298 C150.539,130.093 150.173,130.018 149.764,130.018 C149.031,130.018 148.675,130.341 148.675,130.793 C148.675,131.202 148.901,131.407 149.677,131.633 L150,131.73 C150.884,132 151.368,132.441 151.368,133.174 C151.368,134.035 150.689,134.66 149.494,134.66 C148.848,134.66 148.287,134.542 147.889,134.348 L148.083,133.756 C148.471,133.949 148.912,134.068 149.44,134.068 C150.162,134.068 150.603,133.788 150.603,133.238 C150.603,132.775 150.291,132.549 149.58,132.322 L149.235,132.215 C148.353,131.935 147.921,131.504 147.921,130.836 C147.921,129.996 148.653,129.435 149.677,129.435 C150.151,129.435 150.7,129.511 151.143,129.716 L150.959,130.298" id="Fill-134" fill="#00A3DB" sketch:type="MSShapeGroup"></path>
            <path d="M2.187,31.495 C3.793,31.495 4.452,29.507 2.48,29.507 C0.874,29.507 0.215,31.495 2.187,31.495" id="Fill-135" fill="#FFFFFF" sketch:type="MSShapeGroup"></path>
        </g>
    </g>
</svg>