<?xml version="1.0" encoding="UTF-8" standalone="no"?>
<svg width="152px" height="144px" viewBox="0 0 152 144" version="1.1" xmlns="http://www.w3.org/2000/svg" xmlns:xlink="http://www.w3.org/1999/xlink" xmlns:sketch="http://www.bohemiancoding.com/sketch/ns">
    <!-- Generator: Sketch 3.3.3 (12081) - http://www.bohemiancoding.com/sketch -->
    <title>lightbulb</title>
    <desc>Created with Sketch.</desc>
    <defs></defs>
    <g id="Page-1" stroke="none" stroke-width="1" fill="none" fill-rule="evenodd" sketch:type="MSPage">
        <g id="lightbulb" sketch:type="MSLayerGroup" transform="translate(19.000000, 4.000000)">
            <path d="M92.61,56.121 C92.24,55.621 92.33,55.1 92.5,54.58 C92.56,54.41 92.612,54.249 92.562,54.069 C92.422,53.549 92.44,52.99 92.2,52.499 C92.01,52.12 92.122,51.68 91.952,51.319 C91.822,51.049 91.79,50.779 91.79,50.49 C91.8,50.1 91.84,49.68 91.67,49.35 C91.4,48.83 91.34,48.3 91.27,47.75 C91.25,47.52 91.242,47.259 91.062,47.1 C90.762,46.819 90.671,46.449 90.561,46.079 C90.521,45.949 90.471,45.82 90.381,45.721 C90.071,45.371 90.111,44.8 89.641,44.54 C89.611,44.52 89.619,44.43 89.589,44.38 C89.119,43.55 88.831,42.61 88.06,41.971 C87.991,41.911 87.953,41.81 87.933,41.72 C87.803,41.189 87.481,40.79 87.121,40.4 C86.981,40.25 86.863,40.089 86.763,39.899 C86.373,39.149 85.891,38.471 85.06,38.15 C84.881,38.081 84.751,37.95 84.621,37.81 C84.301,37.48 84.001,37.129 83.631,36.85 C83.271,36.58 82.761,36.469 82.641,35.939 C82.641,35.909 82.591,35.88 82.551,35.87 C82.281,35.81 82.159,35.58 81.999,35.39 C81.879,35.23 81.731,35.11 81.541,35.06 C81.271,34.98 81.081,34.79 80.891,34.6 C80.501,34.23 80.2,33.75 79.58,33.71 C79.52,33.71 79.461,33.63 79.391,33.59 C78.991,33.29 78.591,32.99 78.191,32.689 C77.871,32.45 77.511,32.309 77.121,32.318 C76.801,32.318 76.561,32.21 76.371,31.96 C76.231,31.77 76.02,31.62 75.79,31.6 C75.26,31.56 74.85,31.21 74.36,31.07 C73.79,30.9 73.243,30.8 72.663,30.9 C72.173,30.98 71.671,30.95 71.241,30.75 C70.581,30.44 69.921,30.39 69.221,30.5 C69.081,30.52 68.949,30.53 68.829,30.46 C68.429,30.2 67.981,30.2 67.541,30.24 C67.031,30.3 66.541,30.27 66.061,30.12 C65.721,30.02 65.381,29.98 65.031,30.03 C64.801,30.06 64.572,30.01 64.352,29.91 C64.212,29.84 64.072,29.789 63.912,29.778 C63.162,29.739 62.412,29.719 61.662,29.728 C61.062,29.739 60.453,29.78 59.893,29.54 C59.533,29.38 59.195,29.38 58.835,29.49 C58.665,29.54 58.503,29.62 58.333,29.63 C57.343,29.63 56.373,29.81 55.383,29.79 C55.233,29.78 55.082,29.799 54.922,29.849 C54.222,30.049 53.513,30.2 52.783,30.21 C52.163,30.21 51.552,30.39 50.932,30.34 C50.842,30.34 50.743,30.379 50.663,30.429 C50.473,30.559 50.261,30.57 50.051,30.56 C49.831,30.54 49.632,30.59 49.432,30.67 C49.242,30.76 49.042,30.84 48.832,30.87 C48.452,30.91 48.042,30.83 47.852,31.3 C47.842,31.34 47.75,31.37 47.7,31.37 C47.03,31.4 46.462,31.8 45.811,31.9 C45.202,31.991 44.702,32.381 44.082,32.481 C43.932,32.501 43.822,32.629 43.702,32.729 C43.312,33.099 42.713,33.14 42.363,33.569 C41.943,33.569 41.613,33.89 41.203,33.9 C41.023,33.9 40.862,33.979 40.732,34.109 C40.572,34.279 40.343,34.34 40.143,34.46 C39.583,34.81 38.911,34.99 38.441,35.52 C38.281,35.72 38.01,35.92 37.77,35.95 C37.18,36.02 36.69,36.18 36.48,36.8 C35.899,36.82 35.611,37.33 35.161,37.57 C35.141,37.58 35.121,37.58 35.111,37.59 C34.581,37.9 34.011,38.139 33.491,38.479 C32.891,38.869 32.321,39.29 31.791,39.77 C31.371,40.149 30.892,40.49 30.522,40.93 C30.162,41.359 29.781,41.758 29.391,42.158 C29.051,42.508 28.571,42.75 28.531,43.33 C28.521,43.42 28.391,43.499 28.311,43.589 C28.021,43.959 27.711,44.33 27.441,44.72 C27.251,44.99 27.081,45.26 26.861,45.51 C26.391,46.07 26.181,46.71 26.291,47.44 C26.321,47.641 26.3,47.81 26.16,47.97 C26.05,48.1 25.991,48.28 25.881,48.411 C25.491,48.86 25.28,49.42 24.94,49.911 C24.64,50.331 24.27,50.759 24.24,51.339 C24.231,51.529 24.1,51.689 24,51.859 C23.71,52.31 23.592,52.83 23.562,53.34 C23.512,53.92 23.388,54.47 23.208,55.02 C23.008,55.62 22.81,56.219 22.86,56.879 C22.89,57.349 22.92,57.839 22.67,58.289 C22.63,58.369 22.642,58.48 22.642,58.57 C22.612,59.42 22.571,60.259 22.541,61.099 C22.531,61.349 22.49,61.599 22.67,61.818 C22.84,62.019 22.79,62.24 22.75,62.479 C22.67,63.02 22.832,63.578 22.712,64.128 C22.702,64.188 22.748,64.279 22.798,64.339 C23.008,64.649 23,64.989 23.01,65.338 C23.03,65.998 22.942,66.648 23.122,67.298 C23.242,67.688 23.3,68.079 23.2,68.489 C23.16,68.689 23.208,68.929 23.308,69.108 C23.528,69.499 23.588,69.939 23.718,70.359 C23.868,70.849 23.87,71.349 24.02,71.829 C24.29,72.629 24.57,73.43 24.85,74.22 C25.02,74.7 25.19,75.17 25.62,75.49 C25.75,76.13 26.208,76.619 26.448,77.199 C26.578,77.539 26.7,77.838 26.99,78.059 C27.25,78.258 27.398,78.508 27.368,78.849 C27.348,78.999 27.329,79.23 27.469,79.279 C27.959,79.419 28.1,79.758 28.15,80.199 C28.16,80.258 28.241,80.329 28.301,80.369 C28.751,80.759 28.922,81.379 29.432,81.72 C29.522,81.779 29.54,81.919 29.61,82.019 C30.09,82.798 30.589,83.569 31.23,84.239 C31.539,84.569 31.911,84.859 32.051,85.339 C32.081,85.459 32.201,85.559 32.301,85.648 C32.721,86.019 33.063,86.469 33.423,86.889 C33.733,87.258 34.021,87.669 34.381,87.959 C34.951,88.409 35.451,88.95 36.061,89.359 C36.401,89.58 36.751,89.779 37.081,90.009 C37.781,90.489 38.361,91.168 39.191,91.478 C39.241,91.498 39.29,91.548 39.31,91.598 C39.49,92.008 39.872,92.089 40.242,92.199 C40.472,92.259 40.652,92.357 40.742,92.618 C40.872,92.977 41.09,93.269 41.53,93.258 C41.68,93.249 41.791,93.329 41.891,93.429 C42.331,93.889 42.901,94.189 43.361,94.639 C43.741,95.008 44.264,95.239 44.644,95.599 C45.214,96.119 45.822,96.58 46.462,97.019 C46.822,97.279 47.202,97.588 47.352,97.978 C47.602,98.628 48.322,99.007 48.322,99.768 C48.322,99.817 48.372,99.878 48.412,99.908 C49.032,100.408 48.954,101.199 49.214,101.849 C49.394,102.298 49.492,102.829 49.432,103.369 C49.392,103.679 49.464,104.019 49.694,104.289 C49.864,104.499 49.862,104.758 49.822,105.008 C49.722,105.598 49.712,106.2 49.742,106.8 C49.752,106.95 49.773,107.12 49.694,107.249 C49.404,107.709 49.484,108.18 49.624,108.65 C49.734,109.05 49.702,109.449 49.602,109.849 C49.372,110.719 48.984,111.548 49.044,112.478 C49.054,112.638 48.934,112.759 48.874,112.899 C48.734,113.209 48.632,113.52 48.732,113.85 C48.842,114.21 48.782,114.528 48.582,114.848 C48.422,115.098 48.352,115.37 48.422,115.68 C48.462,115.819 48.452,115.989 48.422,116.129 C48.362,116.479 48.482,116.779 48.652,117.06 C48.722,117.18 48.811,117.289 48.852,117.409 C49.062,117.969 49.214,118.54 49.624,119 C49.704,119.09 49.704,119.21 49.694,119.33 C49.644,119.749 49.603,120.169 49.553,120.6 C49.503,120.98 49.392,121.359 49.752,121.669 C49.792,121.709 49.803,121.81 49.803,121.89 C49.803,122.35 49.916,122.823 49.674,123.249 C49.593,123.404 49.581,123.569 49.65,123.742 C49.826,124.165 49.583,124.588 49.598,125.014 C49.605,125.159 49.468,125.247 49.34,125.307 C49.027,125.45 48.961,125.728 49.057,125.984 C49.199,126.39 49.239,126.818 49.306,127.235 C50.494,127.766 51.613,128.374 52.53,129.332 C52.622,129.398 52.645,129.483 52.598,129.586 C52.312,130.171 52.18,130.674 52.2,131.311 C52.498,131.373 52.549,131.495 52.585,131.935 C52.625,132.431 52.684,132.923 52.797,133.399 C52.888,133.766 52.997,134.087 53.255,134.375 C53.357,134.481 53.361,134.616 53.402,134.74 C53.552,135.236 53.85,135.59 54.598,135.769 C55.149,135.903 55.813,135.916 56.288,136.049 C56.677,136.154 57.054,136.17 57.427,136.109 C57.818,136.051 58.219,135.997 58.634,136.061 C58.772,136.074 58.938,136.073 59.043,136.002 C59.527,135.714 60.12,135.633 60.693,135.436 C61.094,135.307 61.414,135.074 61.565,134.602 C61.672,134.256 61.751,133.886 61.914,133.581 C62.143,133.129 62.374,132.663 62.622,132.202 C62.789,131.881 62.897,131.611 62.826,131.325 C62.735,130.99 62.805,130.64 62.868,130.269 C62.939,129.817 63.198,129.379 63.193,128.937 C63.185,128.656 63.328,128.45 63.563,128.253 C63.966,127.922 64.404,127.641 64.721,127.212 C64.857,127.028 65.084,126.841 65.345,126.775 C65.358,126.565 65.587,126.431 65.625,126.24 C65.722,125.657 65.931,125.123 66.236,124.59 C66.471,124.189 66.577,123.72 66.68,123.279 C66.793,122.81 66.491,122.35 66.471,121.859 C66.471,121.799 66.451,121.749 66.451,121.689 C66.461,121.359 66.371,121.079 66.121,120.859 C65.961,120.709 65.961,120.539 66.061,120.338 C66.511,119.419 66.861,118.479 66.881,117.439 C66.891,117.169 66.981,116.91 67.051,116.649 C67.101,116.49 67.331,116.409 67.281,116.209 C67.221,116.019 67.011,115.989 66.891,115.869 C66.731,115.719 66.621,115.548 66.641,115.308 C66.781,114.038 66.721,112.739 67.111,111.489 C67.151,111.359 67.231,111.208 67.201,111.098 C66.991,110.488 67.269,109.97 67.399,109.399 C67.489,108.98 67.519,108.529 67.599,108.089 C67.749,107.179 67.763,106.249 68.023,105.349 C68.103,105.068 68.281,104.83 68.281,104.54 C68.301,103.89 68.491,103.277 68.56,102.648 C68.641,101.938 68.673,101.229 68.913,100.539 C68.983,100.329 69.091,100.098 69.091,99.878 C69.101,99.008 69.503,98.289 69.903,97.559 C70.133,97.119 70.463,96.729 70.683,96.289 C70.923,95.829 71.229,95.407 71.519,94.987 C71.73,94.667 71.891,94.368 71.941,93.998 C71.951,93.848 71.94,93.679 72.069,93.568 C72.579,93.159 72.911,92.569 73.461,92.199 C73.731,92.029 73.931,91.789 73.871,91.429 C73.841,91.189 73.981,91.058 74.141,90.898 C74.471,90.578 74.812,90.27 75.092,89.9 C75.392,89.5 75.761,89.179 76.201,88.899 C76.721,88.569 77.421,88.389 77.621,87.669 C77.641,87.589 77.761,87.53 77.831,87.48 C78.111,87.28 78.31,87.009 78.461,86.72 C78.591,86.47 78.741,86.279 79.031,86.189 C79.281,86.12 79.401,85.93 79.531,85.69 C79.81,85.22 80.171,84.79 80.511,84.35 C80.621,84.21 80.801,84.159 80.971,84.119 C81.081,84.089 81.199,84.048 81.249,83.929 C81.469,83.469 81.951,83.179 82.111,82.659 C82.161,82.479 82.34,82.37 82.481,82.23 C82.76,81.96 83,81.659 83.14,81.289 C83.33,80.789 83.551,80.31 83.861,79.859 C84.051,79.589 84.338,79.379 84.448,79.079 C84.668,78.479 84.928,77.889 85.198,77.299 C85.318,77.029 85.44,76.799 85.67,76.609 C85.89,76.429 86.14,76.289 86.27,75.999 C86.62,75.249 87.202,74.639 87.552,73.889 C87.942,73.059 88.69,72.439 88.89,71.509 C88.92,71.399 89.02,71.318 89.09,71.229 C89.21,71.068 89.33,70.908 89.35,70.718 C89.39,70.438 89.52,70.199 89.65,69.969 C90.03,69.338 90.34,68.679 90.26,67.909 C90.24,67.709 90.33,67.58 90.48,67.47 C91.06,67.049 90.958,66.239 91.458,65.759 C91.528,65.699 91.49,65.499 91.481,65.369 C91.481,65.129 91.52,64.899 91.65,64.699 C91.85,64.399 91.91,64.069 91.89,63.709 C91.88,63.519 91.838,63.309 92.038,63.179 C92.338,62.999 92.34,62.708 92.34,62.419 C92.34,61.999 92.3,61.569 92.52,61.18 C92.57,61.1 92.58,60.99 92.57,60.89 C92.5,59.99 92.71,59.089 92.65,58.18 C92.62,57.66 92.602,57.14 92.702,56.62 C92.742,56.439 92.72,56.26 92.61,56.121 L92.61,56.121 Z M52.651,120.31 C52.641,120.15 52.614,120.009 52.494,119.899 C52.254,119.669 52.304,119.439 52.523,119.249 C52.804,119.009 52.974,118.759 52.954,118.369 C52.944,118.059 53.143,117.889 53.443,117.799 C53.833,117.679 54.223,117.62 54.633,117.72 C55.653,117.96 56.663,117.829 57.683,117.699 C57.803,117.679 57.923,117.599 58.053,117.549 C58.173,117.489 58.291,117.378 58.411,117.378 C59.021,117.358 59.512,117.059 59.992,116.739 C60.482,116.399 61.082,116.269 61.561,115.909 C61.822,115.719 62.084,115.849 62.204,116.159 C62.224,116.229 62.252,116.309 62.242,116.379 C62.172,117.049 62.463,117.649 62.543,118.289 C62.553,118.409 62.612,118.498 62.682,118.599 C62.952,118.978 62.954,118.98 62.644,119.359 C62.574,119.43 62.514,119.499 62.474,119.589 C62.324,119.899 62.082,120.07 61.732,120.03 C61.542,120.001 61.372,120.049 61.262,120.189 C60.872,120.71 60.241,120.77 59.701,121 C59.421,121.13 59.142,121.22 58.922,121.47 C58.662,121.779 58.265,121.73 57.915,121.81 C57.315,121.95 56.721,122.159 56.091,122.089 C55.491,122.009 54.863,122.099 54.283,121.838 C54.093,121.749 53.953,121.891 53.793,121.94 C53.463,122.06 53.354,122.019 53.244,121.669 C53.184,121.508 53.142,121.349 53.022,121.209 C52.792,120.949 52.691,120.64 52.651,120.31 L52.651,120.31 Z M53.623,111.759 C53.513,111.659 53.473,111.499 53.463,111.339 C53.453,111.019 53.543,110.9 53.873,110.83 C53.953,110.81 54.032,110.799 54.102,110.789 C54.242,110.789 54.373,110.79 54.443,110.79 C55.033,110.75 55.533,110.898 56.053,110.928 C56.563,110.948 57.053,110.919 57.553,110.919 C57.723,110.909 57.901,110.879 58.071,110.909 C58.431,110.989 58.725,110.969 59.005,110.669 C59.215,110.449 59.573,110.439 59.883,110.429 C60.123,110.429 60.312,110.337 60.492,110.178 C60.762,109.928 61.07,109.729 61.37,109.509 C61.64,109.319 61.884,109.12 62.064,108.83 C62.114,108.75 62.182,108.679 62.252,108.619 C62.372,108.519 62.512,108.43 62.672,108.509 C62.812,108.58 62.822,108.719 62.822,108.858 C62.852,109.369 62.612,109.798 62.412,110.229 C62.052,111.008 61.672,111.779 61.492,112.64 C61.382,113.149 60.932,113.459 60.412,113.409 C60.012,113.369 59.712,113.429 59.422,113.799 C59.112,114.179 58.573,114.319 58.063,114.259 C57.753,114.229 57.493,114.209 57.303,114.519 C57.193,114.699 56.973,114.719 56.783,114.669 C56.463,114.569 56.151,114.49 55.821,114.6 C55.741,114.62 55.633,114.579 55.553,114.539 C55.313,114.429 55.183,114.5 55.033,114.72 C54.763,115.11 54.233,115.079 54.073,114.629 C53.943,114.239 53.663,113.929 53.553,113.509 C53.453,113.089 53.462,112.759 53.672,112.419 C53.812,112.179 53.873,111.979 53.623,111.759 L53.623,111.759 Z M58.934,131.148 C58.583,131.49 58.351,131.926 57.94,132.202 C57.475,132.515 56.873,132.39 56.693,131.931 C56.627,131.765 56.615,131.572 56.749,131.403 C56.885,131.225 57.075,131.202 57.276,131.229 C57.323,131.24 57.382,131.242 57.429,131.253 C57.738,131.273 58.031,131.222 58.329,131.09 C58.5,131.014 58.659,130.937 58.828,130.91 C59.007,130.882 59.075,131.021 58.934,131.148 L58.934,131.148 Z M62.208,125.948 C62.084,126.112 61.906,126.164 61.731,126.216 C61.451,126.3 61.191,126.453 61.032,126.699 C60.622,127.325 60.098,127.429 59.414,127.364 C59.135,127.282 58.785,127.434 58.444,127.737 C58.242,127.929 58.002,128.06 57.736,128.045 C57.589,128.042 57.433,128.08 57.286,128.169 C57.051,128.306 56.782,128.29 56.542,128.183 C56.5,128.167 56.47,128.143 56.426,128.139 C55.604,128.145 55.309,127.596 54.941,127.152 C54.827,127.015 54.726,126.91 54.541,126.896 C54.435,126.888 54.302,126.87 54.25,126.779 C54.088,126.488 53.81,126.473 53.503,126.497 C53.204,126.53 53.03,126.374 52.953,126.109 C52.909,125.939 52.866,125.769 52.849,125.591 C52.779,124.963 53.453,124.389 54.081,124.61 C54.395,124.721 54.683,124.73 55.025,124.633 C55.368,124.536 55.718,124.564 56.023,124.751 C56.3,124.928 56.621,124.943 56.94,124.803 C57.224,124.692 57.494,124.68 57.729,124.854 C57.898,124.978 58.081,124.93 58.262,124.798 C58.698,124.465 59.146,124.161 59.701,124.325 C59.817,124.366 59.923,124.285 60.018,124.203 C60.092,124.142 60.183,124.071 60.272,124.081 C60.667,124.133 60.994,124.04 61.22,123.665 C61.262,123.594 61.382,123.554 61.473,123.544 C62.031,123.534 62.512,123.24 63.002,123.029 C63.342,122.879 63.439,122.957 63.448,123.331 C63.488,124.352 62.881,125.158 62.208,125.948 L62.208,125.948 Z M88.59,57.239 C88.18,58.099 88.331,59.009 88.371,59.909 C88.391,60.189 88.42,60.45 88.25,60.689 C88.23,60.72 88.201,60.759 88.201,60.799 C88.141,61.819 87.58,62.719 87.48,63.739 C87.45,64.019 87.24,64.121 87.01,64.181 C86.74,64.26 86.682,64.429 86.782,64.669 C86.822,64.779 86.852,64.889 86.892,64.999 C87.002,65.319 86.972,65.6 86.692,65.84 C86.382,66.1 86.22,66.439 86.231,66.849 C86.231,66.969 86.24,67.1 86.15,67.18 C85.86,67.419 85.852,67.79 85.722,68.089 C85.562,68.47 85.448,68.838 85.368,69.229 C85.338,69.409 85.22,69.599 85.08,69.729 C84.7,70.108 84.528,70.6 84.378,71.1 C84.208,71.609 84.058,72.109 83.528,72.399 C83.189,72.579 82.91,72.879 82.92,73.329 C82.92,73.409 82.882,73.539 82.812,73.589 C82.342,73.909 82.232,74.479 81.942,74.919 C81.812,75.109 81.671,75.219 81.461,75.289 C81.241,75.349 81.041,75.498 81.061,75.728 C81.121,76.288 80.76,76.619 80.43,76.959 C80.29,77.109 80.201,77.249 80.201,77.459 C80.191,77.849 80,78.159 79.76,78.449 C79.36,78.909 78.981,79.399 78.571,79.859 C78.101,80.37 77.881,81.039 77.461,81.589 C77.331,81.759 77.231,81.95 77.041,82.06 C76.251,82.52 75.64,83.189 75.12,83.929 C74.76,84.449 74.251,84.789 73.791,85.209 C73.181,85.759 72.671,86.4 72.211,87.08 C72.081,87.28 71.941,87.459 71.751,87.589 C71.501,87.749 71.293,87.95 71.093,88.149 C70.893,88.37 70.681,88.559 70.371,88.599 C70.161,88.639 70.031,88.749 70.141,88.959 C70.301,89.299 70.159,89.508 69.919,89.719 C69.809,89.818 69.701,89.939 69.571,90.02 C69.351,90.14 69.223,90.308 69.153,90.538 C69.113,90.648 69.063,90.769 68.983,90.839 C68.573,91.179 68.541,91.619 68.581,92.099 C68.611,92.508 68.611,92.539 68.191,92.519 C67.861,92.499 67.671,92.658 67.551,92.908 C67.301,93.428 67.031,93.929 66.571,94.309 C66.501,94.378 66.431,94.469 66.461,94.559 C66.581,95.119 66.149,95.448 65.899,95.838 C65.779,96.038 65.671,96.219 65.651,96.459 C65.621,96.829 65.461,97.148 65.241,97.458 C64.921,97.928 64.651,98.449 64.711,99.059 C64.761,99.639 64.731,100.218 64.441,100.748 C64.401,100.828 64.361,100.939 64.371,101.028 C64.421,101.519 64.311,101.969 64.141,102.429 C64.021,102.769 63.963,103.138 64.003,103.507 C64.043,103.808 63.912,103.969 63.602,104.028 C63.242,104.088 62.892,104.209 62.622,104.489 C62.492,104.619 62.432,104.759 62.432,104.949 C62.452,105.929 62.014,106.418 61.044,106.458 C60.704,106.478 60.423,106.579 60.133,106.759 C59.733,107.029 59.311,107.278 58.821,107.349 C58.581,107.389 58.415,107.54 58.255,107.709 C57.855,108.1 57.465,108.129 57.024,107.799 C56.955,107.759 56.901,107.699 56.841,107.649 C56.691,107.549 56.543,107.529 56.473,107.74 C56.373,108.1 56.143,108.099 55.843,108.009 C55.613,107.929 55.363,107.878 55.113,107.818 C54.723,107.739 54.364,107.839 53.994,107.999 C53.624,108.169 53.473,108.039 53.563,107.648 C53.623,107.358 53.603,107.069 53.593,106.789 C53.563,105.959 53.543,105.129 53.522,104.299 C53.503,103.6 53.232,102.939 53.252,102.24 C53.252,102.18 53.223,102.107 53.193,102.078 C52.803,101.788 52.853,101.37 52.863,100.959 C52.873,100.62 52.735,100.328 52.665,100.008 C52.655,99.988 52.651,99.979 52.651,99.959 C52.648,99.956 52.646,99.951 52.643,99.947 C52.604,99.782 52.563,99.602 52.74,99.48 C52.879,99.385 53.215,99.525 53.301,99.765 C53.431,100.122 53.762,100.275 53.974,100.544 C54.08,100.679 54.237,100.694 54.397,100.681 C54.744,100.652 55.086,100.677 55.431,100.751 C55.684,100.807 55.932,100.72 56.148,100.589 C56.34,100.475 56.54,100.423 56.756,100.435 C57.402,100.469 58.019,100.331 58.621,100.114 C58.826,100.04 59.039,100.059 59.25,100.041 C59.881,99.986 60.211,99.638 60.237,99.003 C60.242,98.885 60.221,98.74 60.308,98.673 C60.715,98.356 60.692,97.853 60.854,97.435 C61.006,97.034 60.981,96.631 60.788,96.208 C60.553,95.689 60.458,95.113 60.387,94.545 C60.346,94.221 60.367,93.89 60.361,93.562 C60.357,93.407 60.372,93.24 60.279,93.113 C59.97,92.695 59.972,92.162 59.741,91.715 C59.65,91.538 59.684,91.337 59.701,91.145 C59.77,90.401 59.673,89.713 59.296,89.031 C59.023,88.538 58.939,87.938 58.832,87.37 C58.754,86.956 58.754,86.522 58.506,86.152 C58.465,86.091 58.426,85.998 58.443,85.935 C58.591,85.374 58.296,84.95 58.05,84.511 C58.025,84.468 58,84.425 57.978,84.382 C57.931,84.292 57.895,84.201 57.865,84.108 C56.734,84.203 55.396,84.106 53.95,83.81 C53.981,84.21 54.117,84.584 54.415,84.899 C54.456,84.942 54.482,84.989 54.529,85.03 C54.725,85.198 54.856,85.411 54.934,85.654 C55.106,86.186 55.315,86.702 55.578,87.196 C55.728,87.48 55.77,87.781 55.688,88.094 C55.588,88.479 55.561,88.853 55.797,89.207 C55.85,89.284 55.898,89.397 55.881,89.478 C55.693,90.314 56.288,91.023 56.254,91.835 C56.248,91.993 56.369,92.157 56.428,92.32 C56.506,92.539 56.586,92.755 56.416,92.977 C56.33,93.089 56.32,93.244 56.375,93.366 C56.56,93.781 56.533,94.282 56.926,94.617 C57.098,94.763 57.045,95.249 56.879,95.419 C56.73,95.575 56.555,95.532 56.412,95.413 C56.234,95.266 56.07,95.101 55.91,94.935 C55.57,94.583 55.164,94.472 54.696,94.584 C54.377,94.66 54.059,94.732 53.727,94.733 C53.615,94.734 53.484,94.758 53.397,94.82 C52.887,95.183 52.303,95.269 51.703,95.314 C51.392,95.339 51.096,95.381 50.906,95.694 C50.821,95.835 50.679,95.871 50.531,95.855 C50.61,96.095 50.701,96.319 50.788,96.549 C50.701,96.32 50.609,96.097 50.53,95.858 C50.481,95.849 50.432,95.839 50.382,95.829 C50.172,95.759 50.072,95.598 50.092,95.388 C50.112,94.988 49.922,94.728 49.602,94.528 C49.492,94.449 49.362,94.378 49.332,94.238 C49.272,93.938 49.054,93.769 48.874,93.549 C48.273,92.829 47.56,92.258 46.81,91.718 C46.61,91.568 46.422,91.419 46.172,91.358 C45.992,91.318 45.852,91.219 45.732,91.079 C45.642,90.989 45.542,90.858 45.422,90.828 C44.712,90.668 44.39,90.008 43.88,89.599 C43.67,89.419 43.512,89.209 43.512,88.909 C43.512,88.669 43.392,88.549 43.152,88.569 C42.932,88.58 42.732,88.489 42.522,88.489 C42.172,88.479 41.902,88.349 41.662,88.099 C41.402,87.819 41.013,87.769 40.653,87.709 C40.273,87.639 39.963,87.48 39.763,87.14 C39.683,87.009 39.571,86.899 39.451,86.799 C38.781,86.249 38.199,85.609 37.599,84.979 C37.409,84.779 37.22,84.6 36.92,84.6 C36.67,84.589 36.493,84.429 36.353,84.239 C36.023,83.779 35.571,83.439 35.201,83.019 C35.131,82.95 35.061,82.859 34.971,82.85 C34.471,82.759 34.293,82.398 34.173,81.968 C34.153,81.918 34.131,81.839 34.081,81.819 C33.601,81.569 33.461,81.039 33.111,80.669 C33.041,80.589 32.94,80.507 32.899,80.397 C32.739,79.988 32.481,79.669 32.121,79.419 C32.011,79.339 31.923,79.239 31.923,79.089 C31.913,78.769 31.711,78.559 31.491,78.369 C31.341,78.239 31.221,78.099 31.131,77.919 C30.951,77.569 30.761,77.219 30.381,76.999 C30.141,76.859 29.97,76.589 29.92,76.289 C29.85,75.949 29.69,75.639 29.51,75.339 C29.4,75.139 29.291,74.929 29.221,74.709 C29.151,74.489 29.041,74.299 28.871,74.119 C28.541,73.769 28.3,73.349 28.21,72.859 C28.17,72.669 28.13,72.48 28.04,72.31 C27.6,71.51 27.411,70.628 27.281,69.729 C27.271,69.619 27.22,69.509 27.18,69.399 C27.15,69.33 27.07,69.268 27.07,69.198 C27.1,68.478 26.701,67.83 26.711,67.12 C26.721,66.19 26.761,65.239 26.531,64.358 C26.321,63.519 26.471,62.619 26.051,61.829 C25.991,61.709 25.99,61.569 26.03,61.43 C26.18,60.87 26.138,60.278 26.208,59.708 C26.358,58.448 26.33,57.16 26.92,55.99 C26.94,55.939 26.981,55.88 26.971,55.83 C26.891,55.25 27.15,54.72 27.4,54.25 C27.67,53.73 27.879,53.23 27.879,52.65 C27.879,52.561 27.959,52.47 28.019,52.399 C28.399,51.919 28.601,51.33 28.931,50.819 C29.011,50.689 29.08,50.529 29.08,50.39 C29.1,49.919 29.339,49.569 29.659,49.29 C30.009,48.979 30.179,48.58 30.269,48.14 C30.319,47.919 30.413,47.769 30.593,47.62 C30.983,47.31 31.371,46.99 31.521,46.48 C31.541,46.43 31.571,46.37 31.621,46.34 C32.151,45.92 32.331,45.259 32.691,44.73 C32.721,44.68 32.741,44.6 32.781,44.589 C33.171,44.43 33.381,44.06 33.701,43.84 C33.991,43.64 34.281,43.45 34.521,43.2 C34.551,43.17 34.571,43.13 34.611,43.12 C35.441,42.96 35.839,42.09 36.649,41.88 C36.699,41.86 36.771,41.821 36.781,41.781 C36.961,41.162 37.632,41.12 38.022,40.75 C38.272,40.51 38.731,40.529 39.031,40.269 C39.071,40.24 39.161,40.249 39.201,40.22 C40.111,39.359 41.351,39.091 42.381,38.401 C43.061,37.952 43.864,37.61 44.614,37.23 C45.284,36.891 46.012,36.74 46.672,36.35 C47.132,36.069 47.71,35.99 48.21,35.709 C48.43,35.58 48.742,35.67 49.012,35.66 C49.202,35.66 49.422,35.7 49.532,35.51 C49.712,35.21 49.991,35.169 50.291,35.18 C50.501,35.18 50.712,35.16 50.902,35.04 C50.982,34.99 51.082,34.949 51.172,34.959 C52.002,35.049 52.753,34.688 53.543,34.559 C53.693,34.539 53.843,34.529 54.003,34.52 C54.133,34.52 54.303,34.56 54.393,34.49 C54.813,34.22 55.285,34.311 55.735,34.251 C56.185,34.191 56.635,34.12 57.095,34.069 C57.515,34.029 57.931,33.979 58.341,34.149 C58.611,34.259 58.883,34.23 59.113,34.06 C59.333,33.89 59.562,33.879 59.822,33.939 C60.162,34.029 60.502,34.04 60.852,33.96 C60.912,33.95 60.972,33.91 61.022,33.93 C61.512,34.14 62.043,33.959 62.543,34.099 C62.613,34.119 62.692,34.149 62.762,34.149 C64.042,34.1 65.271,34.48 66.531,34.649 C67.491,34.779 68.451,34.74 69.391,34.88 C70.121,34.99 70.863,34.939 71.573,35.089 C72.153,35.219 72.722,35.35 73.322,35.29 C73.442,35.28 73.551,35.34 73.641,35.42 C73.771,35.53 73.942,35.619 74.112,35.599 C74.762,35.519 75.182,35.95 75.662,36.26 C76.172,36.59 76.682,36.94 77.202,37.26 C78.242,37.9 79.272,38.561 79.992,39.591 C80.132,39.791 80.303,39.911 80.522,40.01 C80.863,40.15 81.154,40.369 81.294,40.739 C81.384,40.729 81.432,40.759 81.472,40.829 C81.962,41.149 82.542,41.3 82.922,41.79 C83.102,42.02 83.292,42.23 83.342,42.53 C83.412,42.9 83.612,43.169 83.992,43.259 C84.172,43.299 84.25,43.419 84.28,43.588 C84.33,43.798 84.492,43.96 84.542,44.161 C84.742,44.931 85.29,45.449 85.78,46.008 C86,46.269 86.182,46.529 86.112,46.89 C86.072,47.1 86.162,47.27 86.322,47.391 C86.602,47.601 86.753,47.87 86.833,48.2 C86.893,48.42 87.032,48.62 87.162,48.81 C87.532,49.359 87.691,49.97 87.621,50.62 C87.591,50.98 87.619,51.319 87.749,51.649 C87.829,51.85 87.871,52.049 87.881,52.269 C87.921,53.1 88.071,53.909 88.381,54.689 C88.491,54.959 88.43,55.258 88.42,55.548 C88.39,55.928 88.379,56.319 88.569,56.68 C88.669,56.859 88.67,57.059 88.59,57.239 L88.59,57.239 Z" id="Fill-1" fill="#2D271E" sketch:type="MSShapeGroup"></path>
            <path d="M44.205,26.001 C44.439,25.907 44.575,25.764 44.637,25.534 C44.836,24.773 44.722,24.004 44.557,23.259 C44.476,22.896 44.364,22.539 44.335,22.166 C44.315,21.927 44.311,21.688 44.206,21.455 C43.863,20.69 43.669,19.869 43.127,19.184 C42.869,18.86 42.75,18.476 42.672,18.081 C42.604,17.73 42.45,17.424 42.219,17.127 C41.698,16.457 41.014,15.886 40.726,15.067 C40.709,15.026 40.672,14.993 40.645,14.957 C40.1,14.218 39.342,13.616 39.012,12.737 C38.997,12.698 38.962,12.66 38.926,12.634 C38.264,12.145 37.714,11.547 37.171,10.95 C36.842,10.589 36.41,10.202 36.325,9.776 C36.23,9.316 35.987,9.08 35.649,8.853 C35.056,8.452 34.436,8.096 33.684,8.037 C33.244,8.002 32.65,8.257 32.501,8.575 C32.299,8.998 32.555,9.271 32.87,9.544 C33.088,9.733 33.335,9.936 33.257,10.274 C33.322,10.32 33.34,10.373 33.287,10.437 C33.755,11.085 34.247,11.718 34.675,12.388 C34.84,12.646 35.216,12.768 35.211,13.127 L35.209,13.128 C35.508,13.313 35.455,13.611 35.488,13.88 C35.491,13.879 35.5,13.87 35.5,13.87 C35.913,14.13 36.182,14.496 36.195,14.953 C36.206,15.277 36.359,15.472 36.565,15.699 C37.451,16.674 38.335,17.654 38.715,18.929 C38.817,19.276 39.064,19.555 39.319,19.815 C39.731,20.235 39.97,20.736 40.099,21.276 C40.208,21.731 40.433,22.095 40.816,22.381 C40.963,22.492 41.126,22.579 41.144,22.786 C41.194,23.444 41.85,23.939 41.744,24.648 C41.734,24.721 41.866,24.827 41.949,24.902 C42.069,25.012 42.158,25.135 42.231,25.278 C42.6,26.011 43.439,26.309 44.205,26.001" id="Fill-2" fill="#00A3DB" sketch:type="MSShapeGroup"></path>
            <path d="M89.089,8.167 C89.021,8.123 88.899,8.14 88.808,8.155 C88.062,8.282 87.44,8.564 87.252,9.398 C87.187,9.682 87.095,9.943 86.746,10.026 C86.573,10.066 86.48,10.243 86.448,10.424 C86.355,10.951 85.901,11.298 85.769,11.808 C85.728,11.958 85.553,12.019 85.412,12.086 C85.237,12.171 85.04,12.27 84.975,12.448 C84.778,12.977 84.279,13.308 84.107,13.858 C84.019,14.146 83.818,14.401 83.772,14.712 C83.747,14.879 83.655,14.991 83.522,15.081 C83.133,15.345 82.878,15.742 82.555,16.071 C82.414,16.214 82.305,16.385 82.386,16.59 C82.534,16.955 82.391,17.231 82.134,17.466 C81.715,17.849 81.415,18.334 81.2,18.831 C80.902,19.518 80.534,20.149 80.115,20.76 C80.019,20.901 79.946,21.061 79.881,21.221 C79.821,21.365 79.78,21.521 79.651,21.616 C79.405,21.799 79.304,22.078 79.189,22.336 C78.88,23.021 78.691,23.746 78.551,24.481 C78.429,25.121 78.105,25.486 77.474,25.572 C77.201,25.608 77.039,25.693 77.035,25.989 C77.034,26.082 77.002,26.177 76.977,26.27 C76.773,27.056 77.31,27.674 78.209,27.594 C78.439,27.607 78.687,27.496 78.917,27.292 C79.18,27.062 79.496,26.894 79.829,26.802 C80.473,26.624 80.987,26.221 81.488,25.827 C81.855,25.539 82.198,25.171 82.251,24.643 C82.261,24.535 82.316,24.412 82.39,24.331 C82.639,24.059 82.718,23.744 82.744,23.383 C82.784,22.809 82.949,22.281 83.525,21.992 C83.606,21.951 83.691,21.874 83.728,21.793 C83.962,21.249 84.191,20.705 84.458,20.173 C84.763,19.564 85.018,18.923 85.101,18.232 C85.108,18.163 85.16,18.086 85.215,18.035 C85.419,17.84 85.534,17.609 85.551,17.324 C85.56,17.183 85.658,17.079 85.756,16.984 C86.041,16.71 86.261,16.412 86.24,15.98 C86.229,15.759 86.395,15.595 86.526,15.428 C86.862,15.009 87.251,14.621 87.33,14.048 C87.35,13.912 87.458,13.808 87.562,13.726 C88.012,13.375 88.222,12.873 88.389,12.362 C88.513,11.984 88.706,11.671 88.962,11.375 C89.378,10.891 89.704,10.345 89.991,9.776 C90.05,9.659 90.173,9.531 90.1,9.402 C89.835,8.934 89.55,8.474 89.089,8.167" id="Fill-3" fill="#00A3DB" sketch:type="MSShapeGroup"></path>
            <path d="M59.521,4.408 C59.522,4.982 59.476,5.552 59.587,6.134 C59.669,6.561 59.722,7.006 59.773,7.445 C59.856,8.151 59.804,8.867 59.963,9.57 C60.08,10.093 60.104,10.631 60.001,11.177 C59.89,11.78 60.056,12.364 60.315,12.91 C60.429,13.148 60.497,13.383 60.444,13.633 C60.298,14.349 60.386,15.1 60.11,15.795 C60.059,15.924 60.079,16.062 60.116,16.194 C60.195,16.477 60.182,16.767 60.177,17.056 C60.172,17.384 60.144,17.71 60.342,18.007 C60.433,18.141 60.463,18.325 60.326,18.433 C59.935,18.74 59.981,19.116 60.081,19.53 C60.13,19.732 60.157,19.966 60.105,20.162 C59.968,20.679 60.132,21.148 60.267,21.625 C60.431,22.215 60.297,22.669 59.755,23.008 C59.374,23.247 59.108,24.093 59.37,24.336 C59.769,24.704 60.085,25.292 60.829,25.135 C61.329,25.257 61.745,25.041 61.898,24.546 C62.045,24.065 62.136,23.585 62.571,23.264 C62.62,23.227 62.626,23.122 62.636,23.047 C62.659,22.867 62.733,22.714 62.874,22.598 C63.034,22.465 63.097,22.294 63.097,22.089 C63.101,21.389 63.509,20.719 63.259,19.995 C63.237,19.934 63.298,19.849 63.306,19.772 C63.435,18.699 63.542,17.623 63.368,16.548 C63.306,16.164 63.266,15.786 63.283,15.399 C63.315,14.678 63.012,13.98 63.128,13.25 C63.142,13.163 63.074,13.065 63.061,12.971 C62.981,12.36 62.794,11.736 62.864,11.142 C62.92,10.666 62.91,10.22 62.8,9.784 C62.609,9.036 62.703,8.242 62.399,7.513 C62.337,7.363 62.356,7.168 62.375,6.998 C62.483,6.06 61.924,5.215 62.002,4.281 C62.007,4.215 61.939,4.145 61.908,4.073 C61.749,3.685 61.536,3.315 61.591,2.867 C61.614,2.686 61.538,2.515 61.375,2.42 C61.091,2.256 60.995,1.99 60.962,1.696 C60.905,1.189 60.472,0.936 60.214,0.567 C60.116,0.425 59.894,0.453 59.724,0.505 C59.431,0.594 59.116,1.023 59.103,1.341 C59.097,1.475 59.136,1.622 59.093,1.741 C58.89,2.312 59.017,2.84 59.278,3.352 C59.449,3.686 59.519,4.032 59.521,4.408" id="Fill-4" fill="#00A3DB" sketch:type="MSShapeGroup"></path>
            <path d="M94.102,35.433 C94.279,35.574 94.435,35.571 94.673,35.483 C94.779,35.442 94.902,35.392 95.004,35.394 C95.683,35.406 96.277,35.132 96.869,34.824 C97.021,34.745 97.182,34.692 97.3,34.57 C97.545,34.316 97.876,34.132 98.184,33.931 C98.248,33.84 98.345,33.777 98.465,33.734 C98.486,33.546 98.667,33.418 98.826,33.271 C99.368,32.769 100.185,32.402 100.361,31.718 C100.368,31.694 100.413,31.669 100.435,31.643 C100.889,31.091 101.567,30.635 101.897,30.03 C101.913,30.004 101.943,29.977 101.975,29.957 C102.454,29.649 102.794,29.259 103.162,28.885 C103.33,28.715 103.514,28.547 103.835,28.54 C104.288,28.527 104.348,28.481 104.401,28.129 C104.516,27.374 105.2,26.769 106.153,26.554 C107.125,26.334 107.517,25.739 107.195,25.099 C107.076,24.861 106.742,24.672 106.418,24.778 C105.915,24.944 105.606,24.812 105.285,24.65 L105.28,24.63 C104.945,24.835 104.613,25.042 104.192,25.101 C103.993,25.129 103.881,25.257 103.782,25.412 C103.404,26.009 103.029,26.621 102.133,26.921 C101.981,26.973 101.873,27.071 101.742,27.145 C101.659,27.378 101.526,27.585 101.199,27.697 C100.666,28.232 100.147,28.776 99.512,29.251 C99.393,29.34 99.251,29.415 99.184,29.531 C99.03,29.791 98.756,29.947 98.441,30.067 C98.111,30.193 97.815,30.333 97.638,30.614 C97.53,30.786 97.296,30.88 97.081,30.97 C96.449,31.233 96.042,31.739 95.406,32.001 C95.391,32.008 95.374,32.025 95.369,32.037 C95.267,32.404 94.809,32.642 94.608,32.974 C94.497,33.158 94.311,33.298 94.106,33.441 C93.556,33.833 92.957,34.074 92.274,34.189 C91.845,34.26 91.685,34.415 91.567,34.747 C91.382,35.265 91.728,35.589 92.399,35.535 C92.591,35.52 92.772,35.453 92.956,35.408 C93.37,35.31 93.815,35.206 94.102,35.433" id="Fill-5" fill="#00A3DB" sketch:type="MSShapeGroup"></path>
            <path d="M27.691,33.901 C27.628,33.87 27.599,33.776 27.539,33.73 C27.223,33.482 27.002,33.119 26.627,32.945 C26.389,32.835 26.229,32.669 26.068,32.466 C25.668,31.957 25.281,31.422 24.617,31.206 C24.495,31.167 24.394,31.06 24.289,30.975 C23.979,30.722 23.708,30.384 23.356,30.225 C22.505,29.84 21.941,29.055 21.096,28.677 C21.08,28.669 21.068,28.65 21.055,28.637 C20.772,28.348 20.485,28.064 20.209,27.77 C19.967,27.515 19.703,27.278 19.377,27.155 C18.462,26.811 17.657,26.235 16.73,25.917 C16.611,25.876 16.498,25.765 16.428,25.656 C16.162,25.245 15.768,25.161 15.32,25.182 C15.109,25.191 14.897,25.189 14.685,25.187 C14.373,25.186 14.078,25.061 13.951,24.799 C13.712,24.307 13.197,24.237 12.818,23.963 C12.662,23.851 12.432,23.873 12.254,23.94 C11.86,24.092 11.468,24.262 11.188,24.603 C10.971,24.868 11.14,25.161 11.136,25.441 C11.135,25.519 11.145,25.596 11.144,25.672 C11.141,25.882 11.235,26.027 11.396,26.164 C11.773,26.487 12.232,26.712 12.547,27.113 C12.641,27.232 12.779,27.245 12.917,27.21 C13.448,27.073 13.877,27.316 14.234,27.64 C14.781,28.137 15.469,28.401 16.055,28.83 C16.299,29.007 16.508,29.258 16.827,29.326 C17.145,29.394 17.357,29.605 17.587,29.82 C17.948,30.159 18.25,30.558 18.723,30.789 C19.449,31.145 20.131,31.581 20.524,32.338 C20.579,32.442 20.652,32.537 20.772,32.568 C21.148,32.668 21.361,33.057 21.775,33.112 C21.93,33.133 22.063,33.3 22.113,33.48 L22.148,33.481 L22.16,33.515 C22.814,33.871 23.514,34.141 24.113,34.599 C24.295,34.738 24.503,34.832 24.72,34.921 C25.107,35.081 25.574,35.207 25.764,35.602 C26.125,36.349 26.652,36.396 27.351,36.172 C27.711,36.057 27.911,35.779 28.168,35.56 C28.356,35.4 28.213,35.162 28.221,34.956 C28.237,34.501 28.141,34.12 27.691,33.901" id="Fill-6" fill="#00A3DB" sketch:type="MSShapeGroup"></path>
            <path d="M2.967,51.158 C3.224,51.402 3.501,51.393 3.822,51.319 C4.111,51.252 4.398,51.343 4.656,51.489 C4.92,51.641 5.176,51.808 5.389,52.029 C5.516,52.002 5.626,52.029 5.71,52.133 C6.338,52.011 6.932,52.108 7.5,52.4 C7.969,52.641 8.465,52.793 9,52.768 C9.18,52.76 9.339,52.822 9.492,52.914 C10.213,53.35 11.047,53.55 11.754,54.017 C11.832,54.069 11.929,54.106 12.022,54.123 C12.795,54.262 13.516,54.581 14.296,54.729 C15.189,54.899 16.086,55.123 16.965,55.391 C17.283,55.488 17.672,55.565 17.922,55.22 C18.248,54.769 18.751,54.387 18.588,53.713 C18.576,53.664 18.606,53.6 18.628,53.547 C18.729,53.295 18.65,53.094 18.455,52.929 C17.766,52.346 17.057,51.818 16.065,52.066 C15.789,52.135 15.492,52.132 15.337,51.863 C15.142,51.526 14.832,51.48 14.508,51.424 C14.338,51.395 14.121,51.41 14.032,51.254 C13.801,50.85 13.373,50.846 13.017,50.683 C12.357,50.38 11.69,50.183 10.955,50.251 C10.668,50.278 10.422,50.189 10.264,49.927 C10.133,49.711 9.918,49.566 9.691,49.586 C9.047,49.643 8.49,49.392 7.92,49.173 C7.83,49.139 7.731,49.135 7.638,49.11 C7.055,48.954 6.373,49.164 5.885,48.645 C5.862,48.622 5.813,48.621 5.773,48.617 C5.031,48.544 4.284,48.525 3.541,48.452 C3.022,48.401 2.492,48.478 1.957,48.33 C1.297,48.147 0.751,48.633 0.724,49.32 C0.705,49.758 0.626,50.198 0.933,50.581 C0.963,50.62 0.949,50.693 0.959,50.75 C1.023,51.125 1.023,51.121 1.424,51.103 C1.79,51.086 2.156,51.081 2.523,51.076 C2.676,51.073 2.849,51.046 2.967,51.158" id="Fill-7" fill="#00A3DB" sketch:type="MSShapeGroup"></path>
            <path d="M18.298,72.386 C18.1,72.258 17.865,72.259 17.628,72.267 C17.007,72.287 16.375,72.163 15.779,72.455 C15.716,72.485 15.618,72.484 15.552,72.458 C15.19,72.317 14.875,72.462 14.555,72.603 C14.326,72.705 14.099,72.831 13.835,72.751 C13.575,72.671 13.346,72.751 13.108,72.844 C12.586,73.049 12.055,73.266 11.501,73.311 C10.715,73.376 10.013,73.686 9.356,73.878 C8.724,74.205 8.151,74.419 7.506,74.286 C7.328,74.249 7.158,74.298 7.012,74.403 C6.327,74.891 5.542,75.039 4.727,75.083 C4.527,75.093 4.315,75.127 4.197,75.277 C3.904,75.643 3.538,75.74 3.088,75.774 C2.528,75.817 2.34,76.186 2.524,76.717 C2.581,76.88 2.687,77.04 2.598,77.214 C2.398,77.605 2.61,77.876 2.851,78.139 C3.374,78.715 4.144,78.484 4.773,78.715 C4.788,78.72 4.811,78.707 4.828,78.699 C5.239,78.491 5.69,78.368 6.063,78.074 C6.696,77.572 7.488,77.505 8.24,77.415 C8.58,77.374 8.914,77.383 9.237,77.239 C9.448,77.146 9.677,77.096 9.897,77.024 C10.554,76.81 11.253,76.705 11.891,76.473 C12.856,76.123 13.874,75.991 14.833,75.632 C15.195,75.497 15.529,75.303 15.895,75.179 C16.698,74.906 17.497,74.572 18.342,75.057 C18.498,75.147 18.674,75.119 18.849,75.068 C19.247,74.951 19.575,74.722 19.648,74.315 C19.73,73.87 19.596,73.412 19.284,73.087 C19.009,72.802 18.638,72.604 18.298,72.386" id="Fill-8" fill="#00A3DB" sketch:type="MSShapeGroup"></path>
            <path d="M114.079,48.059 C114.001,47.828 113.664,47.762 113.571,47.545 C113.507,47.575 113.478,47.564 113.48,47.515 C112.957,47.599 112.426,47.785 111.936,47.606 C111.803,47.558 111.654,47.67 111.512,47.723 C110.679,48.03 109.826,48.305 108.958,48.488 C108.425,48.601 107.894,48.72 107.395,48.919 C106.908,49.111 106.414,49.269 105.915,49.417 C104.979,49.694 104.026,49.89 103.081,50.108 C102.913,50.145 102.737,50.169 102.598,50.093 C102.547,50.143 102.49,50.16 102.418,50.145 C102.385,50.189 102.36,50.254 102.313,50.273 C101.624,50.545 100.939,50.858 100.191,50.878 C99.74,50.89 99.339,51.031 98.953,51.222 C98.618,51.387 98.285,51.528 97.906,51.558 C97.776,51.568 97.645,51.586 97.533,51.657 C97.163,51.893 96.757,52.015 96.317,52.081 C95.976,52.132 95.779,52.336 95.648,52.564 C95.513,52.795 95.688,52.916 95.875,53.03 C95.978,53.093 96.104,53.141 96.147,53.248 C96.203,53.219 96.228,53.228 96.228,53.274 C96.341,53.233 96.434,53.237 96.503,53.301 C96.658,53.227 96.816,53.173 96.989,53.174 C97.289,52.971 97.558,53.021 97.815,53.115 C98.055,53.2 98.299,53.2 98.592,53.165 C99.163,53.099 99.713,53.174 100.296,53.1 C100.568,53.063 100.843,53.036 101.119,52.996 C101.667,52.919 102.221,52.874 102.761,52.859 C103.024,52.85 103.269,52.821 103.521,52.748 C104.484,52.464 105.444,52.174 106.334,51.723 C106.355,51.713 106.373,51.701 106.393,51.696 C107.658,51.386 108.731,50.675 109.968,50.311 C110.468,50.165 110.971,50.024 111.473,49.882 C111.539,49.819 111.621,49.785 111.719,49.777 C111.745,49.749 111.765,49.707 111.798,49.695 C112.583,49.381 113.149,48.836 113.88,48.465 C114.138,48.334 114.137,48.221 114.079,48.059" id="Fill-9" fill="#00A3DB" sketch:type="MSShapeGroup"></path>
            <path d="M113.239,74.117 C112.987,73.946 112.714,73.857 112.397,73.795 C111.67,73.653 110.931,73.623 110.208,73.427 C110.103,73.398 109.957,73.398 109.87,73.428 C109.356,73.607 108.751,73.526 108.17,73.513 C107.727,73.501 107.251,73.407 106.843,73.488 C106.408,73.575 106.056,73.511 105.643,73.308 C104.797,72.893 103.851,72.669 102.901,72.553 C102.204,72.469 101.525,72.54 100.807,72.471 C99.546,72.349 98.442,72.051 97.447,71.391 C96.647,70.859 95.69,70.505 94.673,70.268 C94.438,70.217 94.205,70.158 93.967,70.12 C93.685,70.075 93.452,70.124 93.338,70.292 C93.231,70.449 93.228,70.62 93.406,70.798 C93.507,70.898 93.601,71.008 93.767,71.062 C94.094,71.169 94.231,71.368 94.404,71.562 C94.801,72.014 94.929,72.521 95.474,72.954 C95.774,73.191 96.105,73.402 96.419,73.627 C97,74.044 97.803,74.232 98.425,74.616 C98.489,74.655 98.607,74.658 98.703,74.667 C100.239,74.834 101.772,75.05 103.29,75.41 C105.276,75.883 107.119,75.787 108.898,75.434 C109.547,75.304 110.282,75.486 110.939,75.388 C110.977,75.382 111.035,75.4 111.075,75.419 C111.694,75.704 112.389,75.629 113.026,75.833 C113.276,75.912 113.514,75.871 113.635,75.729 C113.896,75.421 113.879,75.055 113.836,74.68 C113.806,74.402 113.487,74.287 113.239,74.117" id="Fill-10" fill="#00A3DB" sketch:type="MSShapeGroup"></path>
            <path d="M72.361,60.286 C71.957,60.011 71.431,59.863 70.983,59.602 C70.863,59.532 70.713,59.547 70.59,59.611 C70.266,59.778 69.898,59.853 69.609,60.097 C69.465,60.218 69.313,60.368 69.107,60.366 C68.728,60.362 68.432,60.472 68.268,60.846 C68.229,60.934 68.115,60.957 68.018,60.973 C67.781,61.007 67.607,61.163 67.404,61.268 C66.458,61.761 65.574,62.386 64.537,62.693 C64.131,62.813 63.602,62.521 63.477,62.019 C63.367,61.58 63.214,61.294 62.735,61.19 C62.451,61.129 62.359,60.695 62.572,60.475 C62.832,60.206 63.047,59.922 63.197,59.581 C63.291,59.366 63.477,59.271 63.713,59.283 C63.91,59.292 64.11,59.284 64.242,59.113 C64.479,58.805 64.801,58.654 65.165,58.564 C65.456,58.492 65.647,58.249 65.897,58.106 C66.065,58.008 66.086,57.823 66.072,57.644 C66.043,57.264 66.139,56.937 66.356,56.611 C66.651,56.169 66.554,55.962 66.044,55.743 C65.645,55.571 65.631,55.54 65.744,55.09 C65.838,54.718 65.803,54.647 65.416,54.6 C65.074,54.557 64.733,54.495 64.39,54.455 C63.869,54.395 63.43,54.505 63.054,54.852 C62.795,55.089 62.491,55.254 62.199,55.438 C61.424,55.928 60.876,56.648 60.29,57.33 C60.23,57.4 60.15,57.496 60.154,57.576 C60.193,58.182 59.677,58.425 59.356,58.782 C59.103,59.062 58.617,59.04 58.291,58.792 C58.139,58.676 57.999,58.538 57.875,58.392 C57.526,57.977 57.148,57.627 56.654,57.358 C56.113,57.064 55.926,56.485 55.914,55.874 C55.908,55.554 56.004,55.223 55.607,55.022 C55.328,54.879 55.148,54.57 54.759,54.603 C54.426,54.631 54.146,54.394 53.828,54.312 C53.578,54.248 53.34,54.216 53.09,54.297 C52.697,54.426 52.572,54.538 52.585,54.955 C52.594,55.254 52.451,55.427 52.258,55.59 C52.043,55.77 51.978,55.958 52.203,56.169 C52.389,56.343 52.389,56.538 52.297,56.75 C52.211,56.947 52.232,57.144 52.361,57.297 C52.638,57.626 52.571,57.97 52.475,58.336 C52.332,58.881 52.408,58.981 52.98,58.965 C53.262,58.957 53.354,59.094 53.492,59.315 C53.801,59.808 54.08,60.368 54.762,60.469 C54.851,60.482 54.957,60.536 55.01,60.604 C55.301,60.981 55.527,61.405 55.768,61.811 C55.922,62.073 55.9,62.444 55.936,62.768 C55.953,62.918 55.973,63.108 55.9,63.221 C55.574,63.726 55.746,64.134 56.092,64.528 C56.114,64.554 56.113,64.6 56.131,64.666 C55.929,64.831 55.658,64.918 55.531,65.218 C55.42,65.477 54.99,65.417 54.903,65.128 C54.777,64.708 54.48,64.591 54.111,64.469 C53.72,64.339 53.375,64.197 52.955,64.408 C52.658,64.558 52.399,64.322 52.179,64.139 C51.852,63.869 51.508,63.634 51.147,63.41 C50.832,63.214 50.527,63.112 50.18,63.103 C49.912,63.097 49.725,62.998 49.525,62.81 C49.004,62.319 48.413,61.936 47.713,61.712 C47.145,61.53 46.555,61.415 46,61.202 C45.43,60.983 44.938,61.133 44.465,61.434 C44.271,61.558 44.101,61.716 43.861,61.76 C43.767,61.778 43.648,61.815 43.625,61.906 C43.559,62.164 43.395,62.26 43.15,62.339 C42.857,62.434 42.837,62.739 42.9,62.978 C43.054,63.549 43.066,64.12 43.018,64.7 C43.007,64.835 43.015,64.975 43.107,65.085 C43.369,65.401 43.34,65.764 43.285,66.133 C43.162,66.971 43.147,67.821 43.006,68.659 C42.965,68.901 42.986,69.164 43.031,69.408 C43.172,70.145 43.084,70.867 42.924,71.586 C42.89,71.739 42.853,71.89 42.893,72.043 C42.98,72.369 42.94,72.694 42.902,73.02 C42.877,73.25 42.824,73.51 42.991,73.689 C43.264,73.983 43.213,74.314 43.215,74.664 C43.219,75.354 43.195,76.042 43.33,76.736 C43.413,77.167 43.407,77.648 43.183,78.09 C43.02,78.411 43.106,78.764 43.176,79.109 C43.272,79.572 43.328,80.004 43.184,80.513 C42.846,81.703 42.371,82.878 42.431,84.155 C42.44,84.369 42.443,84.58 42.529,84.778 C42.568,84.865 42.606,85.004 42.668,85.019 C43.065,85.113 43.346,85.478 43.766,85.492 C44.222,85.508 44.691,85.61 45.109,85.304 C45.527,84.997 46.054,84.984 46.529,84.85 C46.977,84.725 47.297,84.482 47.528,84.125 C47.697,83.864 47.882,83.731 48.186,83.769 C48.551,83.813 48.816,83.65 49.028,83.37 C49.352,82.94 49.76,82.699 50.32,82.765 C50.573,82.793 50.758,82.657 50.906,82.457 C51.16,82.116 51.457,81.813 51.786,81.546 C52.283,81.144 52.771,81.229 53.086,81.788 C53.261,82.097 53.477,82.362 53.734,82.595 C53.81,82.664 53.858,82.734 53.897,82.807 C53.971,82.949 53.988,83.105 53.961,83.309 C53.939,83.479 53.938,83.646 53.95,83.81 C55.396,84.106 56.734,84.203 57.865,84.108 C57.833,84.003 57.811,83.894 57.808,83.777 C57.799,83.485 57.809,83.32 57.878,83.196 C57.955,83.058 58.109,82.974 58.424,82.848 C58.607,82.775 58.792,82.694 58.877,82.511 C59.156,81.915 59.714,81.563 60.117,81.077 C60.227,80.947 60.384,80.857 60.522,80.753 C60.69,80.626 60.808,80.686 60.975,80.806 C61.544,81.212 62.057,81.718 62.732,81.947 C63.177,82.098 63.557,82.362 63.959,82.58 C65.094,83.197 66.318,83.284 67.563,83.296 C67.947,83.3 68.213,83.083 68.422,82.786 C68.598,82.534 68.765,82.274 68.935,82.018 C69.033,81.871 69.121,81.71 69.11,81.535 C69.066,80.76 69.262,80 69.232,79.227 C69.231,79.17 69.252,79.102 69.228,79.056 C68.897,78.378 69.107,77.697 69.281,77.051 C69.467,76.361 69.582,75.62 70.113,75.068 C70.228,74.949 70.26,74.806 70.283,74.649 C70.438,73.589 70.604,72.532 70.748,71.471 C70.781,71.237 70.973,71.118 71.053,70.923 C71.251,70.442 71.458,69.964 71.66,69.484 C71.784,69.192 71.829,68.889 71.752,68.578 C71.67,68.245 71.704,67.971 72.051,67.798 C72.215,67.717 72.322,67.551 72.33,67.378 C72.366,66.664 72.789,66.074 72.948,65.404 C73.212,64.291 73.602,63.196 73.41,62.014 C73.293,61.285 72.922,60.667 72.361,60.286 L72.361,60.286 Z M54.512,68.783 C54.473,69.146 54.283,69.463 54.25,69.841 C54.169,70.727 54.098,71.628 54.195,72.496 C54.277,73.213 54.092,73.81 53.883,74.439 C53.81,74.66 53.768,74.881 53.74,75.113 C53.676,75.655 53.423,76.13 53.126,76.578 C52.967,76.819 52.727,76.925 52.43,76.905 C52.194,76.889 51.985,76.935 51.791,77.106 C51.258,77.576 50.906,77.695 50.193,77.694 C49.507,77.62 49.065,78.069 48.643,78.536 C48.551,78.638 48.459,78.716 48.346,78.792 C48.188,78.896 48.045,79.032 47.921,79.176 C47.636,79.508 47.385,79.571 46.92,79.401 C46.599,79.283 46.58,79.015 46.586,78.736 C46.594,78.365 46.557,78.005 46.375,77.671 C46.238,77.421 46.23,77.144 46.279,76.88 C46.395,76.248 46.346,75.61 46.375,74.976 C46.389,74.706 46.361,74.435 46.444,74.172 C46.486,74.038 46.484,73.898 46.41,73.779 C46.186,73.417 46.273,73.068 46.465,72.739 C46.766,72.226 46.908,71.684 46.846,71.09 C46.83,70.935 46.832,70.773 46.699,70.666 C46.186,70.251 46.176,69.694 46.25,69.11 C46.275,68.919 46.334,68.725 46.315,68.537 C46.27,68.107 46.346,67.744 46.693,67.447 C46.876,67.292 46.854,67.019 46.959,66.814 C47.104,66.532 47.361,66.439 47.561,66.664 C47.963,67.112 48.544,67.258 49.004,67.605 C49.294,67.822 49.645,67.955 49.87,68.264 C49.912,68.322 49.987,68.371 50.057,68.393 C50.533,68.544 50.81,68.883 51.045,69.308 C51.43,70.004 52.16,70.071 52.724,69.525 C53.094,69.167 53.553,68.905 53.826,68.441 C53.939,68.251 54.158,68.259 54.348,68.337 C54.553,68.42 54.531,68.606 54.512,68.783 L54.512,68.783 Z M60.387,68.675 C60.17,68.906 60.073,69.145 60.095,69.452 C60.102,69.545 60.094,69.653 60.053,69.734 C59.686,70.437 59.679,71.219 59.537,71.972 C59.466,72.352 59.402,72.73 59.505,73.116 C59.614,73.529 59.35,73.902 59.363,74.31 C59.373,74.597 59.32,74.885 59.295,75.172 C59.248,75.72 59.166,76.227 58.881,76.748 C58.607,77.247 58.389,77.814 58.192,78.375 C57.926,79.137 57.367,79.756 56.619,80.141 C56.326,80.292 56.158,80.127 56.174,79.801 C56.221,78.792 56.346,77.786 56.195,76.768 C56.107,76.169 56.107,75.55 56.622,75.049 C56.914,74.765 57.018,74.358 56.993,73.929 C56.971,73.526 56.966,73.123 57.094,72.727 C57.174,72.482 57.133,72.214 57.054,71.984 C56.802,71.245 57.047,70.537 57.166,69.827 C57.246,69.355 57.454,68.917 57.738,68.513 C57.982,68.168 58.16,67.777 58.18,67.337 C58.19,67.116 58.268,66.923 58.423,66.765 C58.522,66.665 58.585,66.55 58.586,66.407 C58.588,66.049 58.838,65.913 59.125,65.816 C59.403,65.721 59.695,65.742 59.983,65.731 C60.271,65.721 60.351,65.887 60.33,66.198 C60.248,66.514 60.252,66.901 60.217,67.284 C60.197,67.506 60.239,67.68 60.398,67.859 C60.654,68.15 60.656,68.388 60.387,68.675 L60.387,68.675 Z M68.785,66.051 C68.606,66.534 68.607,67.034 68.617,67.536 C68.625,67.962 68.603,68.382 68.429,68.782 C68.383,68.885 68.344,69.009 68.356,69.118 C68.401,69.495 68.272,69.786 67.99,70.033 C67.838,70.166 67.787,70.367 67.781,70.56 C67.768,71.04 67.664,71.514 67.687,71.998 C67.705,72.428 67.613,72.842 67.395,73.218 C67.184,73.582 67.086,73.953 67.201,74.377 C67.277,74.649 67.266,74.917 66.943,75.058 C66.729,75.15 66.648,75.333 66.598,75.555 C66.549,75.758 66.354,75.961 66.381,76.141 C66.458,76.655 66.393,77.081 65.973,77.433 C65.906,77.49 65.963,77.69 65.959,77.825 C65.947,78.173 65.846,78.265 65.516,78.287 C65.221,78.306 65.018,78.095 64.761,78.028 C64.471,77.953 64.362,77.758 64.322,77.487 C64.311,77.419 64.256,77.305 64.211,77.3 C63.69,77.237 63.447,76.673 62.905,76.612 C62.496,76.566 62.406,76.376 62.416,75.964 C62.42,75.792 62.435,75.619 62.445,75.446 C62.44,74.852 62.404,74.263 62.715,73.706 C62.871,73.425 62.868,73.06 62.828,72.741 C62.727,71.923 63.082,71.195 63.26,70.44 C63.367,69.984 63.575,69.54 63.697,69.073 C63.876,68.394 64.315,67.902 64.908,67.528 C65.264,67.303 65.594,67.034 65.928,66.775 C66.156,66.598 66.365,66.398 66.659,66.326 C66.731,66.309 66.826,66.272 66.855,66.216 C67.106,65.742 67.681,65.684 68.008,65.29 C68.231,65.023 68.757,65.311 68.816,65.71 C68.832,65.821 68.824,65.947 68.785,66.051 L68.785,66.051 Z" id="Fill-11" fill="#00A3DB" sketch:type="MSShapeGroup"></path>
        </g>
    </g>
</svg>