<?xml version="1.0" encoding="UTF-8" standalone="no"?>
<svg width="472px" height="204px" viewBox="0 0 472 204" version="1.1" xmlns="http://www.w3.org/2000/svg" xmlns:xlink="http://www.w3.org/1999/xlink" xmlns:sketch="http://www.bohemiancoding.com/sketch/ns">
    <!-- Generator: Sketch 3.3.3 (12081) - http://www.bohemiancoding.com/sketch -->
    <title>monkey_evolution</title>
    <desc>Created with Sketch.</desc>
    <defs></defs>
    <g id="Page-1" stroke="none" stroke-width="1" fill="none" fill-rule="evenodd" sketch:type="MSPage">
        <g id="monkey_evolution" sketch:type="MSLayerGroup">
            <path d="M217.00988,199.572792 C218.578165,199.572792 220.149724,199.634808 221.713096,199.545864 C222.449547,199.50384 223.490158,199.99548 223.864729,198.934272 C224.263452,197.802888 223.856132,196.801248 222.946928,196.015032 C221.740933,194.971776 220.324114,194.246352 218.823785,193.833048 C215.387559,192.887304 212.977207,190.340568 210.283164,188.340144 C207.371747,186.17856 206.974252,179.92596 209.339164,176.795376 C212.463042,172.660296 215.094043,168.215544 217.972711,163.927464 C219.524621,161.616144 221.041325,159.259128 223.490977,157.727496 C223.758703,157.560216 224.030113,157.257888 224.11608,156.964944 C224.802179,154.626696 226.548128,153.232152 228.528236,152.10444 C230.798994,150.810672 232.544944,148.859616 234.358848,147.109296 C235.59882,145.912632 236.573932,144.071328 237.096694,142.190448 C237.512201,140.693088 238.048472,139.198584 239.151716,138.025992 C239.547983,137.604936 240.253731,136.90848 240.643039,137.664912 C241.79991,139.912176 243.759549,141.930144 243.411997,144.705768 C243.101287,147.189264 242.622737,149.663376 242.041846,152.10036 C240.637717,157.99392 240.329055,163.892376 241.622245,169.841016 C242.529811,174.013632 243.453343,178.182984 244.32161,182.363352 C245.211164,186.644088 245.819892,190.919112 244.229093,195.206376 C243.728846,196.55604 243.846744,198.042792 244.020725,199.454472 C244.214765,201.0318 244.877939,202.481424 246.74629,202.458168 C254.115303,202.365144 261.447473,203.453688 268.816076,203.124024 C271.530588,203.003256 274.252468,202.767432 276.876919,201.926952 C278.464853,201.418584 278.692052,200.46876 277.915483,199.12848 C276.90885,197.392032 275.183369,196.726992 273.387886,196.268808 C270.688111,195.579696 267.865936,195.508296 265.189495,194.647008 C259.058817,192.67392 255.727799,187.82076 256.633728,181.622424 C258.060371,171.863472 259.03753,162.08208 258.853724,152.20848 C258.831618,151.0212 259.061273,149.883696 259.599181,148.861248 C261.412267,145.41324 261.1515,141.836304 260.574703,138.157776 C258.81115,126.91452 254.86035,116.397912 249.888999,106.244424 C248.749731,103.918008 248.604815,102.00816 249.580337,99.593616 C252.304264,92.848968 252.251455,92.772264 259.007237,95.947728 C263.547934,98.082384 266.901877,101.274168 267.892545,106.387632 C268.156996,107.753616 268.741981,109.147752 267.371011,110.517816 C266.663625,111.223656 267.135625,112.360344 268.411622,112.580664 C270.891157,113.008656 273.373558,113.423184 275.859643,113.812416 C276.250588,113.873616 276.703348,113.87076 277.065637,113.734488 C281.121644,112.208976 282.713672,107.182008 280.266477,103.629552 C278.436198,100.973064 275.633263,99.520176 273.067761,97.722528 C269.884524,95.492808 266.481866,93.494832 263.944201,90.42708 C261.906373,87.963576 259.775209,85.576368 257.678023,83.161824 C256.337755,81.61836 256.239098,80.129976 257.44059,78.413928 C259.171802,75.941448 260.432652,73.255992 261.255889,70.355928 C263.483663,62.514984 263.70595,54.54552 262.565044,46.5426 C262.123747,43.44792 262.03123,40.154952 259.637662,37.63596 C258.958931,36.921552 257.966626,36.101472 258.470966,35.007216 C258.984312,33.892152 260.261127,33.867672 261.350043,33.892968 C263.80297,33.951312 266.25303,34.123488 268.706366,34.188768 C270.262779,34.230384 272.055806,34.542912 273.24256,33.475584 C275.307816,31.618368 277.363657,29.366616 278.17584,26.863536 C279.048201,24.174 278.465263,20.95284 276.741419,18.46404 C275.836309,17.157624 275.364309,15.921792 275.281617,14.425656 C275.185415,12.681864 274.602477,11.161656 273.446834,9.793224 C272.034928,8.121648 271.072097,6.152232 270.2812,4.121616 C269.970491,3.323976 269.611476,2.645472 268.822626,2.257056 C263.323192,-0.450432 257.476205,-0.566712 252.311223,2.206464 C247.460635,4.810728 243.240472,8.615736 240.866553,14.013168 C239.422716,17.295936 237.460212,20.350632 235.76748,23.526504 C235.235712,24.523656 234.529554,25.249488 233.502862,25.762752 C229.644989,27.693 227.145804,30.645288 226.302099,34.99212 C225.834193,37.399728 224.761651,39.651888 223.157752,41.549088 C222.02094,42.893856 221.409755,44.406312 220.984014,46.074624 C219.222099,52.97676 219.365787,60.240384 216.953388,67.018488 C216.514956,68.249016 216.497353,69.547272 216.534605,70.844712 C216.668059,75.532224 216.753207,80.221776 216.934147,84.907656 C217.006605,86.784456 216.654959,88.49112 215.874297,90.214104 C214.504964,93.235752 213.132357,96.268824 213.671084,99.783336 C214.218817,103.35864 214.928659,106.956792 218.226519,108.952728 C221.011441,110.638176 221.374959,113.067 220.810852,115.580688 C218.916711,124.019352 217.542876,132.504936 217.343514,141.160656 C217.330824,141.719208 217.295618,142.278576 216.840812,142.655568 C214.098463,144.932616 212.075372,148.08564 208.479493,149.335752 C207.241159,149.765784 206.331136,150.7458 205.539011,151.79436 C203.872479,154.000824 202.761048,156.491664 202.218637,159.161616 C200.401457,168.113952 196.9595,176.387376 192.081075,184.094496 C190.827594,186.07452 190.457117,188.252424 190.816132,190.549464 C190.994616,191.688192 191.426498,192.433608 192.82162,192.677592 C196.438376,193.309584 199.996184,194.248392 203.465159,195.475248 C204.147983,195.716784 204.825485,195.88488 205.216021,196.707408 C206.043351,198.448752 207.652163,199.158264 209.467296,199.523832 C211.976305,200.029752 214.492274,199.803312 217.00988,199.572792 L217.00988,199.572792 Z M151.126786,124.840248 C153.652579,125.914512 156.078897,126.66564 158.217429,127.909224 C164.477058,131.548992 171.225471,131.466984 178.027511,130.665264 C182.006147,130.196064 185.918467,129.1422 189.95114,129.055296 C190.792389,129.037752 192.134293,128.768472 192.028676,130.279296 C191.882123,132.374376 193.244087,132.823176 194.811552,133.02024 C197.700454,133.383768 200.508711,132.80604 203.299365,132.129576 C203.994879,131.961072 204.22699,131.485752 204.430446,130.8558 C205.635622,127.125048 204.206931,123.67092 200.622106,122.00628 C197.460975,120.537888 194.143056,120.101736 190.658526,120.54972 C184.488958,121.342464 178.308746,121.53096 172.101107,120.788808 C167.350814,120.220872 163.969034,117.339984 160.385846,114.603936 C158.336146,113.038848 157.760576,111.313416 158.260413,108.971496 C159.149148,104.810304 160.66749,100.7964 160.780066,96.449568 C160.848021,93.820824 161.350314,91.188 161.831729,88.58904 C162.358585,85.74324 163.439313,85.363392 165.832472,87.021096 C167.365141,88.083936 169.02758,88.803648 170.855403,89.185944 C174.435317,89.934624 180.017034,86.015376 180.054286,82.355208 C180.10996,76.87128 179.484448,71.484456 175.507858,67.122528 C174.886029,66.440352 174.37514,65.540712 174.134432,64.654536 C173.677988,62.972352 172.445794,62.288544 171.003594,61.754472 C164.536416,59.362368 154.996531,62.44032 151.330241,68.28288 C149.822952,70.684776 147.856354,72.212328 145.177866,72.965088 C141.127591,74.103816 138.028683,76.020192 136.055535,80.205864 C133.500267,85.625736 130.782071,90.907296 129.6252,96.840432 C129.471688,97.62624 129.280923,98.494464 128.82366,99.117888 C125.164739,104.110176 122.971761,109.8132 120.609304,115.450128 C119.53267,118.018896 119.084413,120.617856 119.099969,123.375936 C119.12535,128.111592 119.122484,132.794208 117.623792,137.45112 C116.4354,141.143112 115.953575,145.42956 118.460947,148.6752 C122.546428,153.963696 124.422966,160.216296 127.250873,166.052328 C128.052822,167.707992 127.914866,168.672504 126.04979,169.712904 C118.176437,174.106248 109.888805,177.923496 104.457735,185.720376 C102.428094,188.635128 101.918432,190.851384 104.513818,193.21248 C106.315032,194.851416 107.591438,196.791456 108.926793,198.747 C109.625991,199.771488 110.280978,200.90532 111.710897,201.47448 C111.778033,200.19948 111.833707,199.137456 111.88979,198.06564 C112.770338,197.962008 113.469127,198.282288 114.087681,198.663768 C117.214834,200.590344 120.664978,200.61972 124.156059,200.454072 C124.610866,200.43204 125.225325,200.64828 125.458664,200.180712 C125.722297,199.651128 125.349363,198.978336 124.956371,198.742512 C122.303674,197.150088 121.270023,193.697592 117.749877,192.981144 C115.172503,192.456456 115.066068,191.13168 117.097346,189.36912 C117.506713,189.013752 117.966432,188.715096 118.415917,188.40828 C120.779601,186.79464 123.438029,185.741184 125.816042,184.047984 C129.59982,181.353144 133.430265,178.801512 136.517301,175.288632 C137.148135,174.570552 137.909967,173.67744 138.870342,173.939376 C139.735334,174.174792 139.855688,175.31352 140.04809,176.16828 C140.805828,179.533056 141.13455,183.01656 142.846931,186.114504 C144.292815,188.728968 145.662966,191.389128 147.208326,193.944024 C148.255896,195.677616 148.94486,197.487096 148.9772,199.484256 C149.007493,201.339432 149.958453,202.201944 151.677794,202.410432 C154.109433,202.7046 156.585693,202.781304 158.968618,203.293752 C162.823625,204.122808 166.391667,203.205624 169.956024,202.000392 C171.129679,201.603816 172.183389,200.962848 173.012357,200.022816 C174.589648,198.234552 174.295722,197.150088 172.071223,196.361832 C168.857284,195.222696 165.484101,195.414048 162.165363,195.14028 C158.523636,194.839992 156.311827,192.8616 155.5983,189.277728 C155.213905,187.348704 154.848749,185.4156 154.486869,183.482496 C153.452399,177.956544 151.810019,172.499136 152.325412,166.787952 C152.52068,164.621064 152.742557,162.486 152.137513,160.355832 C151.8223,159.248112 152.079792,158.279928 152.613606,157.246872 C154.217915,154.139136 154.838515,150.822096 154.025513,147.376944 C152.288569,140.01744 152.674602,132.411096 151.126786,124.840248 L151.126786,124.840248 Z M83.645523,165.999288 C86.994144,166.568448 88.8870564,168.353448 90.5908413,170.42772 C91.0587476,170.997288 91.3813287,171.703536 92.1669037,171.965472 C94.590765,172.77372 95.6800902,174.588912 95.998987,177.005088 C96.0833166,177.644016 96.0382862,178.337208 96.8594761,178.694616 C99.5989592,179.886792 102.355636,180.677496 105.365301,179.741544 C106.498019,179.38944 107.058442,178.835376 106.924579,177.562416 C106.324038,171.844296 103.823216,167.070288 99.6832888,163.156752 C95.5364024,159.237096 90.2236392,157.35948 85.1257936,155.096304 C79.6087563,152.646264 76.8262897,148.42224 76.4648187,142.297344 C76.1553374,137.04924 76.9421405,131.679552 75.0103382,126.558336 C74.5764094,125.40696 75.8217034,124.216416 77.0276982,124.762728 C79.7761873,126.007944 81.7869974,124.662768 83.7797953,123.217632 C86.7771795,121.044624 86.6629662,118.136808 83.5927147,116.162088 C81.3313721,114.707568 81.0018317,113.814456 81.8664146,111.228552 C82.3298179,109.843392 82.0518578,108.769536 80.7991951,107.931912 C79.6677051,107.176296 78.5521804,106.387224 77.4956045,105.531648 C74.3299705,102.969408 70.6997051,102.57324 66.8770373,103.302336 C62.2278578,104.189328 58.8157849,107.078784 55.7156496,110.422752 C55.2137658,110.964168 54.8621197,111.78792 54.0953755,111.91644 C50.0229939,112.598616 46.3071709,114.316704 42.4390633,115.617 C34.6827892,118.223304 28.4469037,122.398368 24.4199618,129.677496 C23.5226297,131.299296 22.5290963,133.11612 20.7115074,134.000256 C19.8149939,134.436 19.428961,134.959056 19.1481353,135.899496 C17.8659983,140.189208 15.2431847,143.34468 10.8686904,144.753912 C9.68439202,145.1358 9.10063487,145.8498 8.65606245,146.89836 C6.60513443,151.734384 7.24906852,156.319896 9.91404683,160.714464 C11.5527424,163.417056 13.7416271,165.65004 16.0639653,167.77164 C17.3899046,168.982992 17.5974536,170.443632 16.5228656,170.914464 C14.6659775,171.728424 13.0342411,172.874088 11.3173565,173.91 C9.22344493,175.173576 7.45702689,176.63952 6.00909627,178.57752 C4.91158369,180.04632 3.77640937,181.500432 2.52538422,182.838264 C-0.15555941,185.704464 -0.372933218,187.421736 2.22982134,190.318944 C3.41657589,191.640048 4.10390286,193.076616 4.63976409,194.678832 C5.00532871,195.771864 5.41960798,196.848984 5.79172246,197.940384 C6.02669905,198.629496 6.37302342,199.202328 7.19585082,199.16724 C11.0418526,199.004448 14.7228794,200.115432 18.4878265,200.562192 C21.2956739,200.89512 21.4663799,200.43816 21.1446175,197.646624 C20.9599931,196.039512 19.7151084,196.366728 18.8898248,196.141104 C15.4757051,195.207192 14.6328187,194.284296 14.3532212,190.758768 C14.1796496,188.572704 14.7785533,186.601248 15.9702203,184.780752 C17.6142376,182.269104 19.8547025,180.35028 22.4599133,178.989192 C26.1802394,177.046296 29.1784423,174.638688 30.1081145,170.296344 C30.2509835,169.63008 30.5891206,168.89976 31.5761041,168.837744 C35.0868343,168.617832 38.4264493,171.991176 37.9712333,175.392672 C37.8824007,176.056488 37.617131,176.69868 37.4157225,177.34536 C35.9248083,182.132832 35.2763712,187.032912 35.7311778,192.023568 C35.9055681,193.935864 35.9772073,195.75432 35.4675455,197.642136 C34.9300468,199.63236 35.851941,201.018744 37.800118,201.789048 C38.8489159,202.203984 39.9263695,202.270896 41.019379,202.14972 C47.6781405,201.412056 54.3626921,201.501408 61.0451969,201.4602 C61.9245169,201.455304 63.3155455,202.02324 63.613974,201.02772 C63.9574328,199.880832 62.8365863,198.976296 61.8782585,198.278208 C60.986248,197.627448 59.9828899,197.170896 58.9254952,196.920384 C57.0739289,196.483008 55.2010755,196.128456 53.3278127,195.791856 C49.1743764,195.04644 48.2680382,193.856712 48.4518439,189.731832 C48.7752437,182.468616 49.535438,175.227024 49.5661405,167.947488 C49.5710529,166.795296 49.2873617,165.886272 48.5726071,164.97072 C46.6072368,162.452544 44.449464,160.075944 42.7784284,157.334184 C41.3214918,154.94412 41.474595,151.444296 43.2508378,149.115432 C44.9931032,146.831448 47.3940399,146.766984 49.9173773,147.376536 C52.871778,148.090536 55.6546539,149.594424 58.8366626,149.262312 C59.1625186,149.22804 59.6480278,149.343504 59.6386123,149.720496 C59.5984944,151.307616 60.3910286,152.958384 59.5853946,154.469208 C58.0167008,157.41048 57.9049436,159.135504 60.2371067,161.44152 C64.2431709,165.403608 67.5762359,170.029104 72.2299185,173.36124 C74.9026748,175.275168 76.6920173,177.938592 77.5807528,181.112424 C77.9176618,182.316432 78.3728777,183.3654 79.2014363,184.327464 C80.0913998,185.36256 81.0149315,186.686928 80.5179601,188.02476 C79.4372316,190.932984 80.2621058,193.812648 80.2346782,196.700472 C80.2293565,197.228424 80.1728638,197.808192 80.8147511,198.10032 C84.6067164,199.825752 88.4510807,201.122784 92.5881422,199.288416 C93.3536583,198.94896 94.3803504,198.610728 94.152333,197.44752 C93.4007355,193.617624 93.5071709,189.541296 91.743209,186.003528 C88.5849436,179.667288 86.8164788,172.816152 83.645523,165.999288 L83.645523,165.999288 Z" id="Fill-1" fill="#4D4D4C" sketch:type="MSShapeGroup"></path>
            <path d="M217.00988,199.572792 C214.492274,199.803312 211.976305,200.029752 209.467296,199.523832 C207.652163,199.158264 206.043351,198.448752 205.216021,196.707408 C204.825485,195.88488 204.147983,195.716784 203.465159,195.475248 C199.996184,194.248392 196.438376,193.309584 192.82162,192.677592 C191.426498,192.433608 190.994616,191.688192 190.816132,190.549464 C190.457117,188.252424 190.827594,186.07452 192.081075,184.094496 C196.9595,176.387376 200.401457,168.113952 202.218637,159.161616 C202.761048,156.491664 203.872479,154.000824 205.539011,151.79436 C206.331136,150.7458 207.241159,149.765784 208.479493,149.335752 C212.075372,148.08564 214.098463,144.932616 216.840812,142.655568 C217.295618,142.278576 217.330824,141.719208 217.343514,141.160656 C217.542876,132.504936 218.916711,124.019352 220.810852,115.580688 C221.374959,113.067 221.011441,110.638176 218.226519,108.952728 C214.928659,106.956792 214.218817,103.35864 213.671084,99.783336 C213.132357,96.268824 214.504964,93.235752 215.874297,90.214104 C216.654959,88.49112 217.006605,86.784456 216.934147,84.907656 C216.753207,80.221776 216.668059,75.532224 216.534605,70.844712 C216.497353,69.547272 216.514956,68.249016 216.953388,67.018488 C219.365787,60.240384 219.222099,52.97676 220.984014,46.074624 C221.409755,44.406312 222.02094,42.893856 223.157752,41.549088 C224.761651,39.651888 225.834193,37.399728 226.302099,34.99212 C227.145804,30.645288 229.644989,27.693 233.502862,25.762752 C234.529554,25.249488 235.235712,24.523656 235.76748,23.526504 C237.460212,20.350632 239.422716,17.295936 240.866553,14.013168 C243.240472,8.615736 247.460635,4.810728 252.311223,2.206464 C257.476205,-0.566712 263.323192,-0.450432 268.822626,2.257056 C269.611476,2.645472 269.970491,3.323976 270.2812,4.121616 C271.072097,6.152232 272.034928,8.121648 273.446834,9.793224 C274.602477,11.161656 275.185415,12.681864 275.281617,14.425656 C275.364309,15.921792 275.836309,17.157624 276.741419,18.46404 C278.465263,20.95284 279.048201,24.174 278.17584,26.863536 C277.363657,29.366616 275.307816,31.618368 273.24256,33.475584 C272.055806,34.542912 270.262779,34.230384 268.706366,34.188768 C266.25303,34.123488 263.80297,33.951312 261.350043,33.892968 C260.261127,33.867672 258.984312,33.892152 258.470966,35.007216 C257.966626,36.101472 258.958931,36.921552 259.637662,37.63596 C262.03123,40.154952 262.123747,43.44792 262.565044,46.5426 C263.70595,54.54552 263.483663,62.514984 261.255889,70.355928 C260.432652,73.255992 259.171802,75.941448 257.44059,78.413928 C256.239098,80.129976 256.337755,81.61836 257.678023,83.161824 C259.775209,85.576368 261.906373,87.963576 263.944201,90.42708 C266.481866,93.494832 269.884524,95.492808 273.067761,97.722528 C275.633263,99.520176 278.436198,100.973064 280.266477,103.629552 C282.713672,107.182008 281.121644,112.208976 277.065637,113.734488 C276.703348,113.87076 276.250588,113.873616 275.859643,113.812416 C273.373558,113.423184 270.891157,113.008656 268.411622,112.580664 C267.135625,112.360344 266.663625,111.223656 267.371011,110.517816 C268.741981,109.147752 268.156996,107.753616 267.892545,106.387632 C266.901877,101.274168 263.547934,98.082384 259.007237,95.947728 C252.251455,92.772264 252.304264,92.848968 249.580337,99.593616 C248.604815,102.00816 248.749731,103.918008 249.888999,106.244424 C254.86035,116.397912 258.81115,126.91452 260.574703,138.157776 C261.1515,141.836304 261.412267,145.41324 259.599181,148.861248 C259.061273,149.883696 258.831618,151.0212 258.853724,152.20848 C259.03753,162.08208 258.060371,171.863472 256.633728,181.622424 C255.727799,187.82076 259.058817,192.67392 265.189495,194.647008 C267.865936,195.508296 270.688111,195.579696 273.387886,196.268808 C275.183369,196.726992 276.90885,197.392032 277.915483,199.12848 C278.692052,200.46876 278.464853,201.418584 276.876919,201.926952 C274.252468,202.767432 271.530588,203.003256 268.816076,203.124024 C261.447473,203.453688 254.115303,202.365144 246.74629,202.458168 C244.877939,202.481424 244.214765,201.0318 244.020725,199.454472 C243.846744,198.042792 243.728846,196.55604 244.229093,195.206376 C245.819892,190.919112 245.211164,186.644088 244.32161,182.363352 C243.453343,178.182984 242.529811,174.013632 241.622245,169.841016 C240.329055,163.892376 240.637717,157.99392 242.041846,152.10036 C242.622737,149.663376 243.101287,147.189264 243.411997,144.705768 C243.759549,141.930144 241.79991,139.912176 240.643039,137.664912 C240.253731,136.90848 239.547983,137.604936 239.151716,138.025992 C238.048472,139.198584 237.512201,140.693088 237.096694,142.190448 C236.573932,144.071328 235.59882,145.912632 234.358848,147.109296 C232.544944,148.859616 230.798994,150.810672 228.528236,152.10444 C226.548128,153.232152 224.802179,154.626696 224.11608,156.964944 C224.030113,157.257888 223.758703,157.560216 223.490977,157.727496 C221.041325,159.259128 219.524621,161.616144 217.972711,163.927464 C215.094043,168.215544 212.463042,172.660296 209.339164,176.795376 C206.974252,179.92596 207.371747,186.17856 210.283164,188.340144 C212.977207,190.340568 215.387559,192.887304 218.823785,193.833048 C220.324114,194.246352 221.740933,194.971776 222.946928,196.015032 C223.856132,196.801248 224.263452,197.802888 223.864729,198.934272 C223.490158,199.99548 222.449547,199.50384 221.713096,199.545864 C220.149724,199.634808 218.578165,199.572792 217.00988,199.572792" id="Fill-2" fill="#4D4D4C" sketch:type="MSShapeGroup"></path>
            <path d="M151.126786,123.584424 C152.674602,131.155272 152.288569,138.761616 154.025513,146.12112 C154.838515,149.566272 154.217915,152.883312 152.613606,155.991048 C152.079792,157.024104 151.8223,157.992288 152.137513,159.100008 C152.742557,161.230176 152.52068,163.36524 152.325412,165.532128 C151.810019,171.243312 153.452399,176.70072 154.486869,182.226672 C154.848749,184.159776 155.213905,186.092472 155.5983,188.021904 C156.311827,191.605776 158.523636,193.584168 162.165363,193.884456 C165.484101,194.158224 168.857284,193.966872 172.071223,195.106008 C174.295722,195.894264 174.589648,196.978728 173.012357,198.766992 C172.183389,199.706616 171.129679,200.347992 169.956024,200.74416 C166.391667,201.9498 162.823625,202.866984 158.968618,202.03752 C156.585693,201.52548 154.109433,201.448776 151.677794,201.1542 C149.958453,200.94612 149.007493,200.083608 148.9772,198.228024 C148.94486,196.231272 148.255896,194.421792 147.208326,192.6882 C145.662966,190.133304 144.292815,187.473144 142.846931,184.85868 C141.13455,181.760736 140.805828,178.277232 140.04809,174.912456 C139.855688,174.057696 139.735334,172.918968 138.870342,172.683552 C137.909967,172.421616 137.148135,173.314728 136.517301,174.032808 C133.430265,177.545688 129.59982,180.09732 125.816042,182.791752 C123.438029,184.48536 120.779601,185.538816 118.415917,187.152456 C117.966432,187.459272 117.506713,187.757928 117.097346,188.113296 C115.066068,189.875856 115.172503,191.200632 117.749877,191.72532 C121.270023,192.441768 122.303674,195.894264 124.956371,197.486688 C125.349363,197.722512 125.722297,198.395304 125.458664,198.92448 C125.225325,199.392456 124.610866,199.176216 124.156059,199.19784 C120.664978,199.363896 117.214834,199.334112 114.087681,197.407944 C113.469127,197.026464 112.770338,196.706184 111.88979,196.809816 C111.833707,197.881632 111.778033,198.943656 111.710897,200.218248 C110.280978,199.649496 109.625991,198.515664 108.926793,197.491176 C107.591438,195.535632 106.315032,193.595592 104.513818,191.956656 C101.918432,189.59556 102.428094,187.379304 104.457735,184.464552 C109.888805,176.667672 118.176437,172.850424 126.04979,168.45708 C127.914866,167.41668 128.052822,166.452168 127.250873,164.796504 C124.422966,158.960064 122.546428,152.707872 118.460947,147.419376 C115.953575,144.173736 116.4354,139.887288 117.623792,136.195296 C119.122484,131.538384 119.12535,126.855768 119.099969,122.119704 C119.084413,119.362032 119.53267,116.763072 120.609304,114.194304 C122.971761,108.557376 125.164739,102.854352 128.82366,97.862064 C129.280923,97.23864 129.471688,96.370416 129.6252,95.584608 C130.782071,89.651472 133.500267,84.369912 136.055535,78.95004 C138.028683,74.764368 141.127591,72.847992 145.177866,71.709264 C147.856354,70.956504 149.822952,69.428952 151.330241,67.027056 C154.996531,61.184496 164.536416,58.106544 171.003594,60.498648 C172.445794,61.03272 173.677988,61.716528 174.134432,63.398712 C174.37514,64.28448 174.886029,65.184528 175.507858,65.866296 C179.484448,70.228632 180.10996,75.615456 180.054286,81.098976 C180.017034,84.759552 174.435317,88.6788 170.855403,87.93012 C169.02758,87.547824 167.365141,86.827704 165.832472,85.765272 C163.439313,84.10716 162.358585,84.487416 161.831729,87.333216 C161.350314,89.932176 160.848021,92.565 160.780066,95.193744 C160.66749,99.540576 159.149148,103.55448 158.260413,107.715672 C157.760576,110.057592 158.336146,111.782616 160.385846,113.347704 C163.969034,116.083752 167.350814,118.965048 172.101107,119.532984 C178.308746,120.275136 184.488958,120.08664 190.658526,119.293896 C194.143056,118.845912 197.460975,119.282064 200.622106,120.750456 C204.206931,122.415096 205.635622,125.869224 204.430446,129.599568 C204.22699,130.22952 203.994879,130.705248 203.299365,130.873752 C200.508711,131.550216 197.700454,132.127944 194.811552,131.764416 C193.244087,131.567352 191.882123,131.118552 192.028676,129.023064 C192.134293,127.512648 190.792389,127.78152 189.95114,127.799472 C185.918467,127.886376 182.006147,128.94024 178.027511,129.40944 C171.225471,130.210752 164.477058,130.293168 158.217429,126.6534 C156.078897,125.409816 153.652579,124.658688 151.126786,123.584424 L151.126786,123.584424 Z M148.206772,147.740472 C148.155601,147.489552 148.177707,147.107256 148.009048,146.848176 C145.60238,143.150064 143.582154,139.23612 141.511986,135.350328 C141.10221,134.580432 140.479154,134.553912 139.787733,134.695896 C138.91046,134.875416 138.306234,135.350328 138.258338,136.327488 C138.206758,137.37768 138.543667,138.321792 139.02672,139.23204 C140.813606,142.592736 143.071674,145.648656 145.241728,148.760064 C145.669107,149.37288 145.962623,150.43776 147.030661,150.034248 C147.968111,149.679696 148.090512,148.716 148.206772,147.740472 L148.206772,147.740472 Z" id="Fill-3" fill="#4D4D4C" sketch:type="MSShapeGroup"></path>
            <path d="M83.645523,163.33872 C86.8164788,170.155584 88.5849436,177.00672 91.743209,183.342552 C93.5071709,186.880728 93.4007355,190.956648 94.152333,194.786952 C94.3803504,195.949752 93.3536583,196.288392 92.5881422,196.627848 C88.4510807,198.462216 84.6067164,197.165184 80.8147511,195.439752 C80.1728638,195.147624 80.2293565,194.567856 80.2346782,194.039904 C80.2621058,191.15208 79.4372316,188.272008 80.5179601,185.363784 C81.0149315,184.02636 80.0913998,182.701992 79.2014363,181.666896 C78.3728777,180.704424 77.9176618,179.655456 77.5807528,178.451856 C76.6920173,175.277616 74.9026748,172.614192 72.2299185,170.700672 C67.5762359,167.368536 64.2431709,162.74304 60.2371067,158.780952 C57.9049436,156.474936 58.0167008,154.749504 59.5853946,151.808232 C60.3910286,150.297816 59.5984944,148.647048 59.6386123,147.05952 C59.6480278,146.682936 59.1625186,146.567064 58.8366626,146.601336 C55.6546539,146.933856 52.871778,145.42956 49.9173773,144.71556 C47.3940399,144.106008 44.9931032,144.170472 43.2508378,146.454864 C41.474595,148.783728 41.3214918,152.283144 42.7784284,154.673616 C44.449464,157.414968 46.6072368,159.791568 48.5726071,162.309744 C49.2873617,163.225296 49.5710529,164.134728 49.5661405,165.286512 C49.535438,172.566456 48.7752437,179.80764 48.4518439,187.071264 C48.2680382,191.195736 49.1743764,192.385464 53.3278127,193.13088 C55.2010755,193.46748 57.0739289,193.82244 58.9254952,194.259816 C59.9828899,194.50992 60.986248,194.966472 61.8782585,195.617232 C62.8365863,196.315728 63.9574328,197.220264 63.613974,198.366744 C63.3155455,199.362672 61.9245169,198.794328 61.0451969,198.799632 C54.3626921,198.840432 47.6781405,198.751488 41.019379,199.488744 C39.9263695,199.60992 38.8489159,199.543008 37.800118,199.12848 C35.851941,198.358176 34.9300468,196.971384 35.4675455,194.98116 C35.9772073,193.093752 35.9055681,191.274888 35.7311778,189.363 C35.2763712,184.372344 35.9248083,179.472264 37.4157225,174.684384 C37.617131,174.037704 37.8824007,173.395512 37.9712333,172.731696 C38.4264493,169.3302 35.0868343,165.957264 31.5761041,166.177176 C30.5891206,166.238784 30.2509835,166.969104 30.1081145,167.635368 C29.1784423,171.97812 26.1802394,174.385728 22.4599133,176.328624 C19.8547025,177.689712 17.6142376,179.608536 15.9702203,182.119776 C14.7785533,183.94068 14.1796496,185.912136 14.3532212,188.097792 C14.6328187,191.623728 15.4757051,192.546624 18.8898248,193.480536 C19.7151084,193.705752 20.9599931,193.378944 21.1446175,194.985648 C21.4663799,197.777592 21.2956739,198.234144 18.4878265,197.901624 C14.7228794,197.454864 11.0418526,196.343472 7.19585082,196.506672 C6.37302342,196.54176 6.02669905,195.96852 5.79172246,195.279408 C5.41960798,194.188008 5.00532871,193.110888 4.63976409,192.018264 C4.10390286,190.41564 3.41657589,188.97948 2.22982134,187.657968 C-0.372933218,184.761168 -0.15555941,183.043896 2.52538422,180.177288 C3.77640937,178.839864 4.91158369,177.385752 6.00909627,175.916952 C7.45702689,173.978952 9.22344493,172.5126 11.3173565,171.249024 C13.0342411,170.213112 14.6659775,169.067856 16.5228656,168.253896 C17.5974536,167.782656 17.3899046,166.322016 16.0639653,165.111072 C13.7416271,162.989064 11.5527424,160.756488 9.91404683,158.053896 C7.24906852,153.65892 6.60513443,149.073408 8.65606245,144.237384 C9.10063487,143.188824 9.68439202,142.474824 10.8686904,142.093344 C15.2431847,140.683704 17.8659983,137.528232 19.1481353,133.23852 C19.428961,132.298488 19.8149939,131.775024 20.7115074,131.33928 C22.5290963,130.455144 23.5226297,128.638728 24.4199618,127.01652 C28.4469037,119.7378 34.6827892,115.562328 42.4390633,112.956024 C46.3071709,111.656136 50.0229939,109.93764 54.0953755,109.255464 C54.8621197,109.127352 55.2137658,108.303192 55.7156496,107.762184 C58.8157849,104.418216 62.2278578,101.52876 66.8770373,100.641768 C70.6997051,99.912672 74.3299705,100.308432 77.4956045,102.87108 C78.5521804,103.726248 79.6677051,104.51532 80.7991951,105.271344 C82.0518578,106.10856 82.3298179,107.182416 81.8664146,108.567984 C81.0018317,111.15348 81.3313721,112.047 83.5927147,113.501112 C86.6629662,115.475832 86.7771795,118.383648 83.7797953,120.556656 C81.7869974,122.001792 79.7761873,123.346968 77.0276982,122.101752 C75.8217034,121.555848 74.5764094,122.746392 75.0103382,123.897768 C76.9421405,129.018984 76.1553374,134.388672 76.4648187,139.636368 C76.8262897,145.761672 79.6087563,149.985288 85.1257936,152.435328 C90.2236392,154.698912 95.5364024,156.576528 99.6832888,160.496184 C103.823216,164.40972 106.324038,169.183728 106.924579,174.901848 C107.058442,176.174808 106.498019,176.728464 105.365301,177.080568 C102.355636,178.01652 99.5989592,177.226224 96.8594761,176.03364 C96.0382862,175.676232 96.0833166,174.983448 95.998987,174.344112 C95.6800902,171.928344 94.590765,170.112744 92.1669037,169.304904 C91.3813287,169.04256 91.0587476,168.33672 90.5908413,167.766744 C88.8870564,165.692472 86.994144,163.907472 83.645523,163.33872" id="Fill-4" fill="#4D4D4C" sketch:type="MSShapeGroup"></path>
            <path d="M406.65686,146.71272 L422.835039,112.90992 L421.873027,112.45296 L406.260184,145.071336 L406.079653,144.322248 L394.00333,147.23496 L393.941925,147.25128 L393.937832,147.25128 L370.133148,152.98776 L370.317363,153.75072 L370.775854,155.652 L376.801735,154.19952 C376.658456,153.9996 376.429211,153.85272 376.122186,153.7956 C376.523365,153.84456 376.748517,153.98736 376.854952,154.18728 L394.138422,150.0216 L394.138422,150.01752 L394.208014,150.0012 L406.722359,146.98608 L406.530366,146.19048 L406.65686,146.71272 L406.65686,146.71272 Z M372.397766,154.663416 C373.44902,154.622208 374.394657,153.998784 375.4017,153.823752 C374.386879,154.006536 373.435511,154.648728 372.397766,154.663416 L372.397766,154.663416 Z M375.974814,153.77928 L375.937971,153.77928 L375.897034,153.77928 L375.872472,153.77928 L375.868378,153.77928 L375.843816,153.77928 L375.827441,153.77928 C375.749662,153.7752 375.671882,153.7752 375.667788,153.7752 C375.667788,153.7752 375.667788,153.7752 375.667788,153.77112 C375.675976,153.77112 375.737381,153.77112 375.897034,153.7752 L375.937971,153.7752 L375.950252,153.7752 L375.974814,153.7752 L375.978907,153.77928 L375.974814,153.77928 L375.974814,153.77928 Z" id="Fill-5" fill="#222833" sketch:type="MSShapeGroup"></path>
            <path d="M390.727986,148.027704 C389.563747,145.911 388.297166,147.670296 387.465742,148.818 M370.133148,152.98776 C366.97652,153.757656 362.270439,158.808288 359.391362,160.47456 C355.245703,162.895224 350.673894,163.710816 346.455778,165.659832 C344.777374,166.435848 348.123129,169.906704 348.776479,170.21148 C351.204434,171.34572 356.887674,166.095168 358.604968,165.18492 C359.991084,164.450112 378.042526,158.129784 376.928638,154.45656 C376.889339,153.49776 389.036892,151.251312 390.532309,150.89064 C396.017415,149.56872 402.446113,155.955144 407.586123,159.27912 C407.717121,159.37296 407.50425,159.22608 407.586123,159.27912 C413.337318,163.415832 420.290005,166.169832 425.617506,170.8602 C430.605232,175.251504 436.141918,175.97448 441.632756,179.280096 C445.700635,181.728096 449.202359,179.877 453.556385,180.942288 C456.082179,181.560408 457.850234,181.703616 460.202047,180.72768 C462.860885,179.725632 466.619282,177.723576 469.511049,178.34496 C473.828232,179.603232 471.033485,186.124296 469.077121,188.15328 C463.498269,193.325904 455.547136,192.594768 450.277356,197.1864 C447.928409,199.232928 443.923164,202.167672 440.900399,199.33248 C435.987178,194.5548 428.701676,195.101928 423.678335,190.496832 C418.132642,185.411928 408.746269,183.325008 402.121075,179.95248 C399.839265,178.484904 391.478765,169.965048 388.79209,171.43752 C379.833096,175.716624 371.406689,184.74852 363.322102,190.5156 C353.428114,197.574 340.892892,204.849456 328.191056,201.703368 C305.312361,196.036248 306.549467,151.860864 309.100642,135.68856 C310.06552,128.677488 312.515171,121.423656 318.352333,117.22248 C318.765794,116.891184 319.168611,116.549688 319.568153,116.20248 C320.487181,115.37424 321.589197,113.29752 322.806245,112.921752 C324.539504,112.386048 325.913339,114.695736 327.526245,112.53048 C330.483101,108.57696 328.382231,107.03472 326.732073,103.82376 C323.691705,97.743744 324.509211,89.366688 328.360944,83.992104 C330.606321,80.85948 338.619268,76.13688 342.742411,77.35272 C344.113381,77.75868 344.911646,79.22748 346.316184,79.6212 C350.000076,80.586528 349.81668,79.770528 353.087112,81.40008 C353.683559,81.655896 360.17448,90.713904 357.680208,91.85712 C357.401839,91.773072 356.718196,90.934224 356.202394,90.80856 C355.522435,90.575592 352.798508,94.63968 352.98477,95.19864 C352.98477,96.174984 353.604142,99.14196 353.860815,100.28232 C354.035206,101.673192 355.117162,102.596904 355.13804,104.0604 C355.14418,105.116712 353.327001,104.999208 352.927459,105.8352 C351.285898,108.571248 351.624444,111.423576 348.448985,113.23632 C343.941447,115.570488 343.570151,111.372984 339.10928,116.048664 C332.690817,122.775768 339.43882,119.406504 339.647598,123.820248 C339.537069,126.03936 339.88503,128.2752 339.88503,130.49472 C340.22808,135.072888 339.306186,153.503064 346.695667,153.274992 C351.804156,153.116688 356.350994,150.097896 361.065672,148.5732 C364.895299,147.350424 367.728527,146.576448 371.738276,145.893456 C373.733939,145.553592 375.996101,145.317768 377.77439,145.0032 C379.984971,144.611928 383.257041,145.082352 385.265395,144.814296 C387.965988,144.45444 389.536319,142.760016 391.028871,143.897928 C393.184187,145.541352 392.211941,146.88 392.837863,147.5226" id="Fill-6" fill="#4D4D4C" sketch:type="MSShapeGroup"></path>
            <path d="M398.804794,109.281168 C398.591514,109.477824 398.520284,109.316664 398.255833,109.180392 C397.899684,108.995568 397.52757,108.84216 397.145631,108.718128 C396.759188,108.591648 396.362921,108.49332 395.96256,108.425184 C395.591265,108.360312 395.184354,108.390504 394.822064,108.304416 C394.472465,108.221592 394.101578,108.208128 393.75116,108.296664 C393.582911,108.339912 392.938567,108.516984 393.359806,108.669168 C394.020933,108.908664 394.569894,108.62184 395.220788,108.639792 C395.999813,108.662232 396.771879,108.831144 397.497277,109.111032 C397.861613,109.251792 398.20016,109.432128 398.546484,109.608384 C398.679938,109.676928 398.663563,110.13348 398.871521,110.279952 C399.043865,110.401944 399.161762,110.334624 399.171178,110.559432 C399.176909,110.700192 399.20229,110.84136 399.240361,110.976816 C399.3251,111.27996 399.472472,111.562704 399.639903,111.827904 C400.033714,112.452144 400.522088,112.989072 401.0252,113.526 C400.933093,113.43012 400.841804,113.3322 400.752153,113.235096 C401.002276,113.477856 401.236434,113.739384 401.482873,113.98704 C401.418193,113.922168 401.358834,113.84832 401.285148,113.792016 C401.650304,114.157992 402.032652,114.505608 402.424826,114.842616 C402.799806,115.164936 403.243559,115.44564 403.593159,115.79244 C403.534619,115.746336 403.476899,115.699416 403.415903,115.658208 C403.474852,115.70268 403.533801,115.746336 403.593159,115.79244 C403.533801,115.74756 403.651698,115.836912 403.593159,115.79244 C404.041006,116.125776 404.35499,116.6268 404.693946,117.066624 C405.073839,117.559896 405.459053,118.049904 405.857776,118.528488 C406.055091,118.765536 407.531677,120.72108 407.944729,120.370608 C408.369242,120.035232 406.731365,118.21188 406.536097,117.972384 C406.141467,117.490536 405.735376,117.01848 405.323552,116.550912 C404.95676,116.133528 404.524468,115.729608 404.282533,115.22736 C404.315691,115.293456 404.250602,115.160448 404.282533,115.22736 C404.249783,115.161672 404.217443,115.094352 404.184694,115.028256 C404.214578,115.0968 404.249783,115.161672 404.282533,115.22736 C404.009894,114.81936 403.819539,114.330576 403.575147,113.900952 C403.320111,113.452152 403.051566,113.010288 402.762144,112.581888 C402.803081,112.664712 402.864486,112.73856 402.916066,112.813632 C402.720798,112.524768 402.507927,112.245288 402.317572,111.95316 C402.396989,112.05924 402.474768,112.168176 402.552139,112.276296 C402.121075,111.680616 401.686737,111.098808 401.148829,110.592072 C400.920402,110.377056 400.670279,110.177952 400.389044,110.035968 C400.262141,109.97232 400.129506,109.920912 399.99114,109.888272 C399.772128,109.834416 399.860142,109.732824 399.774175,109.540248 C399.671015,109.308912 399.219074,109.23588 399.177318,109.09308 C399.070474,108.719352 398.958307,108.353376 398.891171,107.969856 C398.756489,107.207304 398.740114,106.418232 398.869065,105.653232 C398.977547,105.012264 399.366036,104.531232 399.26001,103.838856 C399.191646,103.398216 398.892399,103.993488 398.817894,104.149752 C398.661925,104.474112 398.603386,104.840088 398.616895,105.197904 C398.630814,105.569184 398.522741,105.95964 398.513325,106.335816 C398.50391,106.741776 398.52315,107.147736 398.572683,107.550432 C398.620579,107.947416 398.699587,108.341136 398.811754,108.724656 C398.894446,109.010256 399.038952,109.111032 398.804794,109.281168" id="Fill-7" fill="#1E3E85" sketch:type="MSShapeGroup"></path>
            <path d="M400.451677,110.07636 C401.744458,111.111048 402.90051,112.616568 403.664798,114.106584 C405.40297,113.989488 406.233984,113.994792 407.437932,112.798128 C408.147365,112.092288 408.84247,111.370536 409.544125,110.65776 C408.02783,108.818496 406.513173,106.97964 404.997287,105.140784 C403.421634,106.743 401.732996,108.228528 400.451677,110.07636" id="Fill-8" fill="#1E3E85" sketch:type="MSShapeGroup"></path>
            <path d="M400.451677,110.07636 C401.744458,111.111048 402.90051,112.616568 403.664798,114.106584 C405.121325,114.0462 405.96544,114.110256 407.132954,113.340768 C407.975022,112.78548 408.729485,111.945408 409.484357,111.280368 C407.969291,109.441104 406.453814,107.602656 404.938338,105.764616 C403.373738,107.141616 401.715802,108.40968 400.451677,110.07636" id="Fill-9" fill="#438EC0" sketch:type="MSShapeGroup"></path>
            <path d="M400.451677,110.07636 C401.744458,111.111048 402.90051,112.616568 403.664798,114.106584 C404.957578,114.087408 406.010879,114.228576 407.133363,113.657784 C407.95701,113.239584 408.729894,112.539864 409.483948,112.008648 C407.968472,110.169384 406.453405,108.331344 404.938338,106.492896 C403.37906,107.592048 401.683872,108.600624 400.451677,110.07636" id="Fill-10" fill="#005799" sketch:type="MSShapeGroup"></path>
            <path d="M400.451677,110.07636 C401.744458,111.111048 402.90051,112.616568 403.664798,114.106584 C404.831493,114.118824 406.010061,114.373416 407.098977,113.97888 C407.887417,113.692872 408.665214,113.143704 409.402484,112.746312 C407.887417,110.907456 406.371941,109.0686 404.856056,107.229744 C403.360229,108.035136 401.608958,108.800544 400.451677,110.07636" id="Fill-11" fill="#0075B1" sketch:type="MSShapeGroup"></path>
            <path d="M399.266151,111.044544 C399.495396,112.426848 401.880777,114.334656 402.60945,114.969912 C401.136139,116.754912 400.086113,118.737384 398.072846,120.048696 C396.254439,117.841008 395.345235,116.736144 393.526827,114.53172 C395.538866,113.217552 397.683129,112.672056 399.266151,111.044544" id="Fill-12" fill="#1E3E85" sketch:type="MSShapeGroup"></path>
            <path d="M399.266151,111.044544 C399.495396,112.426848 401.880777,114.334656 402.60945,114.969912 C401.285967,116.658216 400.460683,118.771656 398.69795,120.11112 C396.879133,117.903432 395.970338,116.800608 394.151521,114.59496 C395.913846,113.255496 397.812899,112.628808 399.266151,111.044544" id="Fill-13" fill="#438EC0" sketch:type="MSShapeGroup"></path>
            <path d="M399.266151,111.044544 C399.495396,112.426848 401.880777,114.334656 402.60945,114.969912 C401.452579,116.565192 400.8897,118.856112 399.414342,120.252696 C397.595934,118.045416 396.68714,116.943408 394.868323,114.73572 C396.343681,113.339952 397.952083,112.601064 399.266151,111.044544" id="Fill-14" fill="#005799" sketch:type="MSShapeGroup"></path>
            <path d="M402.60945,114.969912 C401.631063,116.446872 401.33591,118.894464 400.157343,120.315528 C398.339344,118.107432 397.429731,117.006648 395.611324,114.79896 C396.789891,113.378304 398.108052,112.545576 399.266151,111.044544 C399.495396,112.426848 401.880777,114.334656 402.60945,114.969912 Z" id="Fill-15" fill="#0075B1" sketch:type="MSShapeGroup"></path>
        </g>
    </g>
</svg>