<?xml version="1.0" encoding="UTF-8" standalone="no"?>
<svg width="107px" height="44px" viewBox="0 0 107 44" version="1.1" xmlns="http://www.w3.org/2000/svg" xmlns:xlink="http://www.w3.org/1999/xlink" xmlns:sketch="http://www.bohemiancoding.com/sketch/ns">
    <!-- Generator: Sketch 3.3.3 (12081) - http://www.bohemiancoding.com/sketch -->
    <title>organize</title>
    <desc>Created with Sketch.</desc>
    <defs></defs>
    <g id="Page-1" stroke="none" stroke-width="1" fill="none" fill-rule="evenodd" sketch:type="MSPage">
        <g id="Imported-Layers" sketch:type="MSLayerGroup">
            <path d="M5.746,28.503 C2.854,29.728 0.825,32.592 0.825,35.93 C0.825,40.382 4.433,43.99 8.886,43.99 C12.636,43.99 15.788,41.43 16.688,37.961 C14.966,36.648 13.804,34.639 13.621,32.353 C13.522,32.356 13.422,32.357 13.323,32.357 C10.209,32.357 7.451,30.84 5.746,28.503" id="Fill-1" fill="#65ABA7" sketch:type="MSShapeGroup"></path>
            <path d="M74.547,18.283 C69.695,20.169 66.25,24.873 66.25,30.391 C66.25,37.57 72.07,43.389 79.248,43.389 C82.298,43.389 85.096,42.331 87.314,40.572 C84.206,38.376 82.154,34.799 82.045,30.731 C77.613,28.928 74.485,24.584 74.485,19.504 C74.485,19.092 74.507,18.685 74.547,18.283" id="Fill-2" fill="#6F6BA3" sketch:type="MSShapeGroup"></path>
            <path d="M98.69,18.659 C98.708,18.94 98.731,19.219 98.731,19.504 C98.731,24.165 96.097,28.207 92.238,30.235 L92.246,30.391 C92.246,34.521 90.314,38.192 87.314,40.572 C89.346,42.01 91.819,42.861 94.496,42.861 C101.383,42.861 106.967,37.277 106.967,30.391 C106.967,24.977 103.51,20.383 98.69,18.659" id="Fill-3" fill="#6E96C2" sketch:type="MSShapeGroup"></path>
            <path d="M92.238,30.235 C90.556,31.12 88.643,31.627 86.608,31.627 C84.992,31.627 83.454,31.305 82.045,30.731 C82.154,34.799 84.206,38.376 87.314,40.572 C90.314,38.192 92.246,34.521 92.246,30.391 L92.238,30.235" id="Fill-4" fill="#577FB3" sketch:type="MSShapeGroup"></path>
            <path d="M86.608,7.381 C80.325,7.381 75.159,12.161 74.547,18.283 C76.007,17.716 77.588,17.393 79.248,17.393 C82.299,17.393 85.097,18.45 87.314,20.209 C89.346,18.773 91.819,17.922 94.496,17.922 C95.97,17.922 97.377,18.19 98.69,18.659 C98.254,12.359 93.019,7.381 86.608,7.381" id="Fill-5" fill="#75B2AF" sketch:type="MSShapeGroup"></path>
            <path d="M79.248,17.393 C77.588,17.393 76.007,17.716 74.547,18.283 C74.507,18.685 74.485,19.092 74.485,19.504 C74.485,24.584 77.613,28.928 82.045,30.731 C82.041,30.617 82.027,30.506 82.027,30.391 C82.027,26.182 84.119,22.467 87.314,20.209 C85.097,18.45 82.299,17.393 79.248,17.393" id="Fill-6" fill="#5B9AA4" sketch:type="MSShapeGroup"></path>
            <path d="M94.496,17.922 C91.819,17.922 89.346,18.773 87.314,20.209 C90.277,22.56 92.19,26.171 92.238,30.235 C96.097,28.207 98.731,24.165 98.731,19.504 C98.731,19.219 98.708,18.94 98.69,18.659 C97.377,18.19 95.97,17.922 94.496,17.922" id="Fill-7" fill="#5BA2A9" sketch:type="MSShapeGroup"></path>
            <path d="M87.314,20.209 L87.314,20.209 C84.119,22.467 82.027,26.182 82.027,30.391 C82.027,30.506 82.041,30.617 82.045,30.731 C83.454,31.305 84.992,31.627 86.608,31.627 C88.643,31.627 90.556,31.12 92.238,30.235 C92.19,26.171 90.277,22.56 87.314,20.209" id="Fill-8" fill="#406D7E" sketch:type="MSShapeGroup"></path>
            <path d="M25.111,0.906 C19.015,0.906 14.072,5.849 14.072,11.945 C14.072,12.526 14.117,13.096 14.204,13.652 C16.815,13.896 19.115,15.21 20.661,17.152 C20.918,17.122 21.18,17.106 21.445,17.106 C24.706,17.106 27.405,19.506 27.872,22.636 C32.632,21.411 36.15,17.088 36.15,11.945 C36.15,5.849 31.208,0.906 25.111,0.906" id="Fill-9" fill="#62609B" sketch:type="MSShapeGroup"></path>
            <path d="M27.872,22.636 C26.989,22.864 26.065,22.984 25.111,22.984 C24.28,22.984 23.47,22.893 22.691,22.718 C22.694,22.807 22.695,22.896 22.695,22.984 C22.695,23.314 22.678,23.638 22.646,23.959 C24.475,24.239 26.097,25.151 27.28,26.467 C27.705,25.603 27.943,24.631 27.943,23.603 C27.943,23.275 27.919,22.952 27.872,22.636" id="Fill-10" fill="#65ABA7" sketch:type="MSShapeGroup"></path>
            <path d="M21.445,17.106 C21.18,17.106 20.918,17.122 20.661,17.152 C21.883,18.688 22.633,20.617 22.691,22.718 C23.47,22.893 24.28,22.984 25.111,22.984 C26.065,22.984 26.989,22.864 27.872,22.636 C27.405,19.506 24.706,17.106 21.445,17.106" id="Fill-11" fill="#559DA2" sketch:type="MSShapeGroup"></path>
            <path d="M13.323,13.611 C8.147,13.611 3.95,17.808 3.95,22.984 C3.95,25.048 4.616,26.955 5.746,28.503 C6.711,28.095 7.772,27.869 8.886,27.869 C10.773,27.869 12.509,28.518 13.883,29.605 C14.212,28.423 14.812,27.353 15.61,26.467 C15.185,25.603 14.947,24.631 14.947,23.603 C14.947,21.871 15.625,20.296 16.731,19.131 C15.424,17.608 14.525,15.726 14.204,13.652 C13.914,13.625 13.62,13.611 13.323,13.611" id="Fill-12" fill="#5F8DBD" sketch:type="MSShapeGroup"></path>
            <path d="M8.886,27.869 C7.772,27.869 6.711,28.095 5.746,28.503 C7.451,30.84 10.209,32.357 13.323,32.357 C13.422,32.357 13.522,32.356 13.621,32.353 C13.604,32.143 13.596,31.931 13.596,31.717 C13.596,30.985 13.696,30.277 13.883,29.605 C12.509,28.518 10.773,27.869 8.886,27.869" id="Fill-13" fill="#5088B6" sketch:type="MSShapeGroup"></path>
            <path d="M14.204,13.652 C14.525,15.726 15.424,17.608 16.731,19.131 C17.746,18.062 19.12,17.338 20.661,17.152 C19.115,15.21 16.815,13.896 14.204,13.652" id="Fill-14" fill="#5280B4" sketch:type="MSShapeGroup"></path>
            <path d="M16.731,19.131 C15.625,20.296 14.947,21.871 14.947,23.603 C14.947,24.631 15.185,25.603 15.61,26.467 C17.047,24.871 19.129,23.867 21.445,23.867 C21.853,23.867 22.254,23.898 22.646,23.959 C22.678,23.638 22.695,23.314 22.695,22.984 C22.695,22.896 22.694,22.807 22.691,22.718 C20.33,22.19 18.253,20.905 16.731,19.131" id="Fill-15" fill="#5088B6" sketch:type="MSShapeGroup"></path>
            <path d="M20.661,17.152 C19.12,17.338 17.746,18.062 16.731,19.131 C18.253,20.905 20.33,22.19 22.691,22.718 C22.633,20.617 21.883,18.688 20.661,17.152" id="Fill-16" fill="#4F86B5" sketch:type="MSShapeGroup"></path>
            <path d="M27.28,26.467 C26.222,28.62 24.007,30.102 21.445,30.102 C20.837,30.102 20.249,30.018 19.69,29.862 C18.632,30.843 17.346,31.582 15.921,31.992 C16.574,33.157 16.946,34.5 16.946,35.93 C16.946,36.631 16.856,37.313 16.688,37.961 C18.008,38.968 19.657,39.566 21.445,39.566 C25.78,39.566 29.295,36.052 29.295,31.717 C29.295,29.698 28.533,27.857 27.28,26.467" id="Fill-17" fill="#62609B" sketch:type="MSShapeGroup"></path>
            <path d="M15.921,31.992 C15.188,32.204 14.416,32.328 13.621,32.353 C13.804,34.639 14.966,36.648 16.688,37.961 C16.856,37.313 16.946,36.631 16.946,35.93 C16.946,34.5 16.574,33.157 15.921,31.992" id="Fill-18" fill="#575D97" sketch:type="MSShapeGroup"></path>
            <path d="M22.646,23.959 C22.405,26.284 21.315,28.357 19.69,29.862 C20.249,30.018 20.837,30.102 21.445,30.102 C24.007,30.102 26.222,28.62 27.28,26.467 C26.097,25.151 24.475,24.239 22.646,23.959" id="Fill-19" fill="#575D97" sketch:type="MSShapeGroup"></path>
            <path d="M15.61,26.467 C14.812,27.353 14.212,28.423 13.883,29.605 C14.708,30.258 15.403,31.068 15.921,31.992 C17.346,31.582 18.632,30.843 19.69,29.862 C17.897,29.36 16.417,28.108 15.61,26.467" id="Fill-20" fill="#555A98" sketch:type="MSShapeGroup"></path>
            <path d="M13.883,29.605 C13.696,30.277 13.596,30.985 13.596,31.717 C13.596,31.931 13.604,32.143 13.621,32.353 C14.416,32.328 15.188,32.204 15.921,31.992 C15.403,31.068 14.708,30.258 13.883,29.605" id="Fill-21" fill="#545A97" sketch:type="MSShapeGroup"></path>
            <path d="M21.445,23.867 C19.129,23.867 17.047,24.871 15.61,26.467 C16.417,28.108 17.897,29.36 19.69,29.862 C21.315,28.357 22.405,26.284 22.646,23.959 C22.254,23.898 21.853,23.867 21.445,23.867" id="Fill-22" fill="#545A97" sketch:type="MSShapeGroup"></path>
            <path d="M60.335,27.869 L51.226,18.758 L51.226,26.369 L37.168,26.369 L37.168,29.369 L51.226,29.369 L51.226,36.981 L60.335,27.869" id="Fill-23" fill="#4D4D4C" sketch:type="MSShapeGroup"></path>
        </g>
    </g>
</svg>