<?xml version="1.0" encoding="UTF-8" standalone="no"?>
<svg width="90px" height="93px" viewBox="0 0 90 93" version="1.1" xmlns="http://www.w3.org/2000/svg" xmlns:xlink="http://www.w3.org/1999/xlink" xmlns:sketch="http://www.bohemiancoding.com/sketch/ns">
    <!-- Generator: Sketch 3.3.3 (12081) - http://www.bohemiancoding.com/sketch -->
    <title>plagiarism</title>
    <desc>Created with Sketch.</desc>
    <defs></defs>
    <g id="Page-1" stroke="none" stroke-width="1" fill="none" fill-rule="evenodd" sketch:type="MSPage">
        <g id="plagiarism" sketch:type="MSLayerGroup" transform="translate(0.000000, 15.000000)" fill="#242831">
            <path d="M87.472,22.718 C87.239,22.417 86.962,22.346 86.59,22.383 C86.272,22.415 85.936,22.608 85.617,22.369 C85.587,22.347 85.554,22.357 85.531,22.387 C85.31,22.67 85.003,22.609 84.71,22.584 C84.586,22.574 84.461,22.539 84.355,22.626 C84.252,22.709 84.151,22.698 84.035,22.661 C83.794,22.583 83.545,22.579 83.312,22.674 C82.971,22.814 82.609,22.812 82.255,22.861 C81.984,22.898 81.692,22.783 81.441,22.964 C81.215,23.127 80.88,22.906 80.682,23.188 C80.645,23.239 80.529,23.197 80.448,23.171 C80.147,23.07 79.847,23.043 79.551,23.202 C79.357,23.306 79.066,23.235 78.949,23.071 C78.882,22.977 78.826,23.032 78.776,23.091 C78.625,23.271 78.43,23.249 78.27,23.148 C78.137,23.065 78.013,23.039 77.876,23.062 C77.653,23.098 77.477,23.025 77.328,22.889 C77.075,22.956 76.818,22.976 76.57,22.925 C76.227,23.129 75.55,23.249 75.313,22.864 C74.708,22.922 74.011,22.908 73.606,22.635 C73.574,22.645 73.543,22.646 73.51,22.66 C73.346,22.732 73.145,22.701 72.985,22.609 C72.821,22.514 72.66,22.519 72.486,22.544 C72.212,22.583 71.93,22.675 71.665,22.641 C71.212,22.58 70.772,22.745 70.326,22.657 C70.305,22.653 70.279,22.672 70.255,22.676 C69.901,22.725 69.545,22.817 69.192,22.81 C68.839,22.801 68.494,22.698 68.161,22.912 C68.075,22.968 67.944,22.974 67.826,22.936 C67.776,22.919 67.701,22.922 67.659,22.949 C67.386,23.128 67.095,23.08 66.802,23.029 C66.602,22.995 66.431,23.039 66.241,23.135 C66.01,23.253 65.736,23.35 65.471,23.267 C65.18,23.175 64.908,23.216 64.673,23.367 C64.418,23.532 64.143,23.53 63.873,23.542 C63.245,23.57 62.616,23.379 61.987,23.502 C61.982,23.507 61.978,23.514 61.974,23.519 C61.877,23.621 61.772,23.7 61.653,23.773 C61.64,23.781 61.625,23.786 61.611,23.794 C61.571,23.944 61.542,24.088 61.597,24.198 C61.66,24.325 61.558,24.463 61.446,24.567 C61.521,24.656 61.51,24.777 61.459,24.888 C61.543,24.984 61.506,25.133 61.433,25.243 C61.54,25.426 61.565,25.621 61.453,25.821 C61.649,25.93 61.868,25.898 62.078,25.926 C62.444,25.975 62.815,26.108 63.153,25.835 C63.182,25.811 63.232,25.8 63.268,25.808 C63.781,25.913 64.283,25.675 64.819,25.813 C65.256,25.925 65.743,25.857 66.203,25.961 C66.397,26.005 66.632,26.044 66.805,25.93 C67.06,25.762 67.384,25.979 67.615,25.747 C67.628,25.734 67.699,25.786 67.745,25.798 C68.106,25.901 68.474,25.938 68.83,25.809 C68.962,25.761 69.037,25.749 69.118,25.862 C69.174,25.941 69.277,26.026 69.337,25.932 C69.543,25.607 69.898,25.676 70.186,25.573 C70.274,25.543 70.359,25.537 70.446,25.592 C70.534,25.648 70.64,25.647 70.732,25.617 C71.077,25.507 71.431,25.541 71.783,25.533 C72.381,25.518 72.978,25.541 73.577,25.499 C74.031,25.466 74.491,25.434 74.949,25.476 C75.413,25.517 75.879,25.594 76.34,25.445 C76.391,25.429 76.455,25.44 76.51,25.453 C76.943,25.551 77.317,25.883 77.803,25.785 C77.835,25.778 77.875,25.818 77.913,25.833 C78.074,25.897 78.233,25.965 78.403,25.851 C78.46,25.813 78.532,25.814 78.592,25.847 C78.971,26.058 79.376,25.995 79.778,25.968 C79.987,25.954 80.206,25.878 80.401,26.005 C80.553,26.105 80.654,26.024 80.699,25.911 C80.803,25.649 80.979,25.693 81.158,25.781 C81.514,25.957 81.899,25.879 82.238,25.82 C82.775,25.728 83.293,25.537 83.853,25.567 C84.079,25.581 84.303,25.506 84.477,25.36 C84.627,25.235 84.717,25.249 84.805,25.412 C84.837,25.471 84.854,25.595 84.944,25.538 C85.173,25.392 85.436,25.478 85.682,25.395 C85.95,25.305 86.202,25.568 86.476,25.628 C86.49,25.631 86.502,25.67 86.505,25.693 C86.524,25.853 86.649,25.887 86.772,25.897 C86.907,25.908 87.025,25.95 87.146,26.007 C87.337,26.098 87.717,25.894 87.722,25.683 C87.728,25.415 87.855,25.314 88.106,25.324 C88.245,25.33 88.329,25.273 88.315,25.122 C88.303,24.995 88.353,24.882 88.379,24.762 C88.438,24.496 88.464,24.225 88.318,23.974 C88.063,23.537 87.782,23.118 87.472,22.718" id="Fill-1" sketch:type="MSShapeGroup"></path>
            <path d="M59.565,23.404 C59.581,22.654 59.633,21.905 59.61,21.154 C59.609,21.116 59.625,21.069 59.649,21.04 C59.747,20.922 59.744,20.784 59.742,20.643 C59.738,20.301 59.801,19.976 60.008,19.691 L60.009,19.691 C60.007,19.656 60.005,19.621 60.011,19.582 C60.014,19.551 60.026,19.523 60.031,19.492 C59.906,19.377 59.853,19.214 59.891,19.041 C59.728,18.892 59.667,18.68 59.799,18.454 C59.685,18.157 59.686,17.824 59.704,17.485 C59.628,17.426 59.565,17.353 59.543,17.25 C59.479,16.954 59.451,16.665 59.482,16.364 C59.483,16.361 59.484,16.359 59.484,16.357 C59.451,16.149 59.4,15.942 59.36,15.735 C59.336,15.615 59.401,15.467 59.308,15.378 C59.125,15.203 59.174,15.023 59.218,14.813 C59.265,14.594 59.281,14.339 59.101,14.173 C59.003,14.084 58.978,14.003 58.949,13.892 C58.914,13.755 58.987,13.544 58.824,13.494 C58.597,13.425 58.614,13.282 58.624,13.115 C58.63,12.992 58.594,12.869 58.592,12.75 C58.587,12.375 58.303,12.022 58.51,11.63 C58.533,11.587 58.499,11.499 58.468,11.445 C58.374,11.28 58.268,11.118 58.097,11.027 C57.985,10.967 57.954,10.892 57.994,10.789 C58.052,10.636 58.003,10.5 57.953,10.345 C57.874,10.388 57.902,10.505 57.81,10.487 C57.725,10.47 57.753,10.383 57.741,10.322 C57.705,10.149 57.707,9.966 57.565,9.824 C57.457,9.717 57.335,9.612 57.329,9.436 C57.327,9.373 57.272,9.334 57.204,9.352 C56.928,9.427 56.877,9.243 56.853,9.042 C56.839,8.916 56.803,8.821 56.673,8.779 C56.504,8.726 56.457,8.599 56.464,8.434 C56.473,8.242 56.396,8.078 56.246,7.96 C55.967,7.743 55.679,7.535 55.42,7.291 C55.354,7.228 55.276,7.194 55.195,7.154 C55.037,7.076 54.847,6.994 54.759,6.856 C54.6,6.61 54.285,6.595 54.129,6.365 C54.114,6.344 54.05,6.345 54.013,6.354 C53.888,6.382 53.833,6.315 53.792,6.213 C53.716,6.025 53.652,5.826 53.414,5.776 C53.37,5.767 53.353,5.724 53.344,5.683 C53.278,5.381 53.062,5.159 52.802,5.103 C52.569,5.054 52.335,5.031 52.113,4.932 C52.067,4.912 51.976,4.93 51.96,4.882 C51.881,4.65 51.67,4.651 51.49,4.582 C51.225,4.48 50.916,4.455 50.708,4.25 C50.547,4.092 50.392,3.919 50.18,3.875 C49.931,3.823 49.726,3.714 49.53,3.569 C49.432,3.498 49.353,3.377 49.245,3.344 C49.004,3.27 48.766,3.22 48.633,2.966 C48.599,2.901 48.451,2.927 48.421,2.822 C48.383,2.692 48.305,2.689 48.193,2.721 C47.995,2.777 47.81,2.68 47.769,2.516 C47.694,2.215 47.464,2.197 47.25,2.162 C47.025,2.124 46.797,2.074 46.565,2.101 C46.344,2.127 46.177,2.054 46.023,1.887 C45.866,1.714 45.675,1.578 45.418,1.723 C45.358,1.757 45.283,1.757 45.235,1.701 C45.151,1.599 45.04,1.586 44.924,1.592 C44.783,1.6 44.665,1.554 44.57,1.453 C44.454,1.329 44.309,1.31 44.148,1.288 C43.722,1.231 43.264,1.268 42.917,0.931 C42.901,0.916 42.872,0.899 42.851,0.902 C42.507,0.953 42.216,0.721 41.869,0.736 C41.62,0.747 41.373,0.705 41.113,0.729 C40.845,0.753 40.552,0.736 40.276,0.56 C39.811,0.263 39.267,0.342 38.746,0.394 C38.398,0.428 38.073,0.555 37.747,0.676 C37.554,0.748 37.316,0.777 37.147,0.668 C36.891,0.503 36.673,0.375 36.419,0.643 C36.409,0.653 36.387,0.654 36.371,0.653 C36.057,0.643 35.755,0.744 35.445,0.758 C35.327,0.763 35.24,0.773 35.224,0.921 C35.21,1.049 35.106,1.062 35.023,0.997 C34.853,0.861 34.659,0.889 34.481,0.916 C34.255,0.95 34.04,0.99 33.806,0.97 C33.635,0.955 33.44,1.008 33.283,1.085 C32.797,1.328 32.335,1.627 31.759,1.604 C31.721,1.602 31.672,1.617 31.645,1.642 C31.492,1.78 31.305,1.771 31.132,1.73 C30.894,1.673 30.715,1.727 30.565,1.915 C30.466,2.038 30.338,2.079 30.194,2 C30.039,1.916 29.933,1.976 29.832,2.096 C29.765,2.177 29.696,2.249 29.562,2.208 C29.232,2.108 28.976,2.316 28.711,2.452 C28.604,2.508 28.502,2.615 28.387,2.612 C28.017,2.602 27.913,2.94 27.691,3.118 C27.554,3.23 27.434,3.367 27.263,3.422 C27.135,3.463 27.067,3.523 27.066,3.662 C27.065,3.807 26.989,3.888 26.837,3.891 C26.745,3.893 26.604,3.907 26.604,3.989 C26.606,4.366 26.369,4.547 26.082,4.705 C26.045,4.726 26.037,4.791 26.007,4.831 C25.9,4.977 25.788,5.162 25.603,5.161 C25.323,5.159 25.138,5.249 25.02,5.5 C24.994,5.556 24.935,5.6 24.886,5.642 C24.639,5.852 24.439,6.085 24.397,6.427 C24.376,6.6 24.307,6.757 24.108,6.816 C24.022,6.841 23.99,6.921 23.988,7.012 C23.988,7.079 23.979,7.147 23.93,7.195 C23.709,7.414 23.677,7.715 23.6,7.989 C23.554,8.151 23.523,8.301 23.389,8.417 C23.207,8.572 23.007,8.713 22.991,8.991 C22.987,9.054 22.923,9.124 22.87,9.171 C22.758,9.27 22.718,9.393 22.689,9.535 C22.654,9.707 22.675,9.919 22.506,10.028 C22.281,10.171 22.196,10.401 22.09,10.619 C22.05,10.701 22.011,10.778 21.944,10.843 C21.643,11.132 21.486,11.536 21.165,11.811 C21.107,11.86 21.079,11.952 21.057,12.03 C20.931,12.464 20.759,12.895 20.773,13.354 C20.783,13.668 20.689,13.959 20.594,14.233 C20.433,14.705 20.455,15.281 19.943,15.589 C19.924,15.602 19.897,15.629 19.899,15.645 C19.951,15.958 19.756,16.185 19.642,16.443 C19.588,16.562 19.571,16.711 19.551,16.846 C19.513,17.109 19.421,17.375 19.624,17.638 C19.779,17.838 19.728,18.048 19.584,18.288 C19.428,18.548 19.259,18.84 19.296,19.176 C19.307,19.282 19.296,19.368 19.178,19.374 C18.957,19.384 18.934,19.526 18.941,19.697 C18.965,20.304 18.912,20.902 18.689,21.473 C18.611,21.671 18.553,21.855 18.716,22.039 C18.739,22.065 18.739,22.117 18.74,22.157 C18.756,22.542 18.772,22.926 18.785,23.311 C18.789,23.417 18.777,23.524 18.816,23.627 C18.877,23.786 18.876,23.934 18.819,24.103 C18.77,24.253 18.745,24.445 18.795,24.588 C18.912,24.921 18.909,25.273 18.997,25.612 C19.082,25.944 19.192,26.281 19.235,26.627 C19.25,26.749 19.241,26.912 19.314,26.98 C19.603,27.251 19.618,27.654 19.83,27.967 C19.993,28.208 20.063,28.541 20.027,28.85 C20.004,29.046 20.062,29.148 20.228,29.211 C20.322,29.246 20.437,29.273 20.433,29.393 C20.421,29.646 20.481,29.876 20.601,30.092 C20.732,30.33 20.748,30.607 20.846,30.846 C20.966,31.136 20.978,31.472 21.206,31.72 C21.255,31.773 21.272,31.874 21.272,31.953 C21.269,32.342 21.579,32.637 21.586,33.023 C21.587,33.065 21.632,33.108 21.662,33.147 C21.796,33.315 21.823,33.487 21.732,33.695 C21.663,33.853 21.632,34.02 21.86,34.123 C21.961,34.168 22.09,34.354 22.006,34.417 C21.819,34.561 21.801,34.808 21.623,34.942 C21.338,35.156 21.131,35.508 20.696,35.456 C20.646,35.45 20.589,35.492 20.536,35.514 C20.07,35.707 19.725,36.084 19.304,36.327 C19.08,36.456 19.008,36.567 18.964,36.78 C18.94,36.903 18.74,36.885 18.704,36.983 C18.594,37.272 18.404,37.499 18.215,37.733 C18.162,37.8 18.142,37.916 18.06,37.945 C17.806,38.037 17.654,38.24 17.486,38.427 C17.375,38.552 17.18,38.56 17.085,38.702 C16.884,39.001 16.581,39.211 16.385,39.517 C16.311,39.632 16.224,39.788 16.111,39.82 C15.834,39.9 15.707,40.174 15.45,40.273 C15.317,40.323 15.209,40.437 15.224,40.619 C15.233,40.733 15.148,40.81 15.063,40.881 C14.956,40.97 14.825,41.049 14.76,41.165 C14.64,41.379 14.485,41.506 14.266,41.634 C13.994,41.792 13.702,41.957 13.502,42.248 C13.337,42.486 13.081,42.663 12.822,42.833 C12.607,42.975 12.421,43.204 12.215,43.381 C11.793,43.742 11.425,44.145 11.108,44.598 C10.939,44.841 10.734,45.06 10.488,45.211 C10.344,45.3 10.249,45.363 10.261,45.537 C10.27,45.667 10.229,45.746 10.085,45.785 C9.924,45.829 9.819,45.953 9.814,46.128 C9.805,46.384 9.626,46.533 9.478,46.705 C9.198,47.033 8.756,47.209 8.59,47.645 C8.582,47.665 8.556,47.68 8.535,47.693 C7.987,48.046 7.665,48.633 7.156,49.027 C7.126,49.05 7.122,49.102 7.097,49.133 C6.961,49.306 6.862,49.494 6.692,49.657 C6.495,49.845 6.352,50.102 6.111,50.264 C6.071,50.291 6.047,50.363 6.042,50.417 C6.019,50.633 5.903,50.779 5.725,50.889 C5.446,51.058 5.241,51.276 5.233,51.627 C5.231,51.731 5.154,51.777 5.07,51.823 C4.854,51.94 4.644,52.065 4.579,52.334 C4.55,52.454 4.474,52.493 4.329,52.502 C4.155,52.515 4.017,52.695 3.82,52.699 C3.807,52.699 3.778,52.739 3.782,52.755 C3.843,53.016 3.611,53.103 3.486,53.25 C3.311,53.455 3.053,53.598 2.95,53.852 C2.845,54.112 2.491,54.07 2.412,54.377 C2.381,54.495 2.197,54.67 2.052,54.714 C1.851,54.774 1.847,54.877 1.856,55.034 C1.865,55.168 1.829,55.268 1.657,55.212 C1.524,55.17 1.508,55.262 1.496,55.359 C1.461,55.643 1.377,55.892 1.216,56.147 C1.06,56.393 0.943,56.695 0.988,57.036 C1.022,57.296 1.107,57.622 0.742,57.775 C0.688,57.799 0.707,57.878 0.703,57.935 C0.644,58.638 0.59,59.34 0.745,60.039 C0.756,60.093 0.758,60.16 0.737,60.209 C0.626,60.461 0.843,60.529 0.971,60.653 C1.106,60.784 0.983,61.045 1.203,61.138 C1.233,61.15 1.269,61.156 1.293,61.175 C1.38,61.24 1.467,61.308 1.417,61.439 C1.36,61.588 1.456,61.62 1.571,61.65 C1.727,61.691 1.911,61.672 2.027,61.808 C2.144,61.942 2.298,61.975 2.456,62.025 C2.671,62.094 2.88,62.051 3.088,62.02 C3.538,61.952 3.978,62.092 4.426,62.073 C4.582,62.067 4.718,62.055 4.817,61.92 C4.903,61.803 5.022,61.763 5.163,61.778 C5.288,61.792 5.407,61.741 5.527,61.735 C5.947,61.717 6.31,61.466 6.729,61.453 C6.851,61.449 7.01,61.466 7.085,61.398 C7.414,61.108 7.842,61.238 8.207,61.103 C8.441,61.016 8.62,60.752 8.918,60.849 C8.921,60.85 8.929,60.837 8.934,60.831 C9.148,60.585 9.429,60.516 9.741,60.499 C10.069,60.481 10.322,60.348 10.486,60.031 C10.581,59.846 10.728,59.655 11.008,59.717 C11.142,59.746 11.263,59.675 11.316,59.56 C11.409,59.361 11.59,59.289 11.765,59.25 C12.231,59.146 12.572,58.888 12.82,58.49 C12.864,58.42 12.923,58.391 13.003,58.39 C13.137,58.387 13.28,58.401 13.252,58.19 C13.242,58.117 13.316,58.097 13.375,58.101 C13.579,58.114 13.719,58.025 13.818,57.853 C13.857,57.783 13.931,57.761 14.006,57.752 C14.288,57.719 14.47,57.431 14.779,57.45 C14.824,57.453 14.887,57.356 14.923,57.294 C15.142,56.92 15.365,56.554 15.765,56.341 C15.842,56.299 15.9,56.224 15.871,56.138 C15.822,55.994 15.871,55.944 16.004,55.893 C16.117,55.848 16.23,55.802 16.342,55.753 C16.465,55.699 16.619,55.69 16.692,55.547 C16.847,55.241 17.107,55.025 17.335,54.781 C17.591,54.507 17.985,54.37 18.125,53.981 C18.15,53.91 18.22,53.895 18.289,53.896 C18.581,53.898 18.771,53.758 18.859,53.484 C18.911,53.321 19.019,53.259 19.182,53.232 C19.334,53.209 19.532,53.171 19.579,53.022 C19.69,52.667 19.98,52.476 20.209,52.225 C20.438,51.974 20.599,51.624 20.873,51.458 C21.265,51.222 21.407,50.727 21.866,50.588 C21.892,50.58 21.919,50.541 21.925,50.513 C21.979,50.223 22.277,50.157 22.456,50.028 C22.754,49.814 22.881,49.476 23.159,49.259 C23.326,49.129 23.419,48.892 23.597,48.792 C23.753,48.705 23.867,48.606 23.981,48.476 C24.144,48.287 24.42,48.194 24.455,47.897 C24.457,47.88 24.488,47.861 24.51,47.851 C24.76,47.726 24.852,47.406 25.146,47.331 C25.179,47.323 25.209,47.256 25.218,47.211 C25.246,47.065 25.338,46.987 25.47,46.935 C25.61,46.881 25.664,46.788 25.629,46.626 C25.603,46.504 25.576,46.356 25.711,46.265 C25.96,46.095 26.093,45.815 26.338,45.627 C26.498,45.505 26.71,45.418 26.822,45.236 C26.999,44.952 27.403,44.941 27.543,44.618 C27.545,44.612 27.556,44.606 27.564,44.606 C27.843,44.598 27.847,44.437 27.79,44.223 C27.764,44.124 27.803,44.025 27.901,43.97 C27.995,43.917 28.055,43.982 28.118,44.035 C28.144,44.058 28.174,44.067 28.21,44.03 C28.158,43.615 28.303,43.274 28.64,43.016 C28.848,42.855 29.101,42.732 29.257,42.533 C29.545,42.161 29.994,42.143 30.356,41.941 C30.69,41.758 31.027,41.892 31.324,41.97 C31.673,42.06 32.036,42.021 32.39,42.233 C32.831,42.498 33.385,42.582 33.914,42.612 C34.124,42.624 34.279,42.751 34.474,42.772 C34.74,42.801 34.984,42.682 35.234,42.654 C35.736,42.6 36.255,42.571 36.752,42.698 C37.05,42.774 37.336,42.806 37.641,42.78 C38.275,42.728 38.916,42.87 39.55,42.729 C39.643,42.708 39.75,42.715 39.843,42.74 C40.275,42.859 40.707,42.655 41.138,42.751 C41.166,42.757 41.207,42.74 41.229,42.721 C41.402,42.565 41.6,42.567 41.806,42.62 C42.033,42.678 42.259,42.756 42.477,42.586 C42.507,42.562 42.573,42.575 42.621,42.584 C43.252,42.699 43.89,42.701 44.527,42.707 C44.664,42.708 44.801,42.678 44.883,42.848 C44.925,42.937 45.018,42.889 45.099,42.855 C45.504,42.689 45.912,42.518 46.367,42.586 C46.481,42.605 46.598,42.587 46.665,42.509 C46.883,42.252 47.136,42.304 47.407,42.383 C47.625,42.447 47.815,42.416 47.907,42.168 C47.946,42.063 48.026,42.013 48.138,42.022 C48.328,42.039 48.501,41.964 48.649,41.873 C48.837,41.757 49.012,41.699 49.227,41.769 C49.306,41.795 49.389,41.768 49.454,41.706 C49.542,41.625 49.655,41.606 49.763,41.565 C50.207,41.401 50.749,41.428 51.027,40.931 C51.044,40.9 51.094,40.875 51.131,40.871 C51.362,40.846 51.562,40.746 51.775,40.663 C52.055,40.554 52.319,40.353 52.648,40.371 C52.687,40.373 52.748,40.335 52.769,40.297 C52.87,40.118 53.035,40.103 53.214,40.099 C53.392,40.094 53.561,40.019 53.582,39.835 C53.614,39.536 53.765,39.325 53.998,39.178 C54.246,39.021 54.555,38.943 54.631,38.6 C54.634,38.586 54.68,38.585 54.695,38.569 C54.869,38.385 55.066,38.237 55.164,37.971 C55.28,37.656 55.469,37.36 55.692,37.102 C55.805,36.971 55.922,36.856 55.98,36.686 C56.032,36.53 56.11,36.348 56.287,36.331 C56.541,36.308 56.554,36.164 56.536,35.977 C56.506,35.674 56.561,35.404 56.827,35.213 C56.942,35.129 56.965,35.006 56.925,34.882 C56.853,34.658 56.965,34.523 57.144,34.452 C57.282,34.398 57.29,34.327 57.264,34.208 C57.22,34.009 57.264,33.829 57.382,33.657 C57.642,33.279 57.531,32.784 57.772,32.398 C57.775,32.393 57.771,32.382 57.771,32.374 C57.694,31.768 57.777,31.176 57.911,30.586 C57.954,30.396 58.049,30.254 58.165,30.1 C58.325,29.887 58.482,29.648 58.32,29.341 C58.249,29.207 58.248,29.033 58.355,28.898 C58.422,28.813 58.444,28.725 58.435,28.624 C58.426,28.504 58.457,28.399 58.53,28.302 C58.579,28.239 58.63,28.17 58.631,28.082 C58.635,27.738 58.879,27.44 58.822,27.085 C58.818,27.062 58.824,27.03 58.838,27.014 C59.075,26.745 59.032,26.418 59.023,26.102 C59.018,25.934 59.093,25.864 59.238,25.83 C59.398,25.793 59.543,25.734 59.664,25.611 C59.603,25.504 59.635,25.392 59.707,25.293 C59.689,25.246 59.684,25.199 59.692,25.153 C59.486,25.002 59.508,24.773 59.703,24.601 C59.709,24.595 59.715,24.589 59.722,24.584 C59.696,24.547 59.674,24.502 59.657,24.446 C59.641,24.395 59.593,24.353 59.56,24.306 C59.445,24.136 59.366,23.969 59.503,23.763 C59.571,23.662 59.563,23.528 59.565,23.404 L59.565,23.404 Z M27.171,38.818 C26.921,39.07 26.794,39.461 26.38,39.533 C26.277,39.553 26.272,39.643 26.268,39.728 C26.26,39.895 26.257,40.063 26.023,40.081 C25.958,40.086 25.92,40.154 25.98,40.208 C26.1,40.315 26.044,40.392 25.954,40.469 C25.874,40.536 25.874,40.625 25.874,40.716 C25.874,40.89 25.888,41.069 25.658,41.125 C25.606,41.137 25.592,41.194 25.586,41.245 C25.564,41.434 25.525,41.589 25.281,41.616 C25.156,41.631 25.137,41.785 25.144,41.902 C25.157,42.112 25.132,42.286 24.864,42.291 C24.811,42.292 24.762,42.331 24.762,42.383 C24.761,42.746 24.397,42.776 24.214,42.97 C24.018,43.178 23.726,43.296 23.658,43.618 C23.641,43.703 23.585,43.793 23.508,43.66 C23.431,43.528 23.403,43.595 23.375,43.68 C23.162,44.308 22.786,44.83 22.36,45.332 C22.178,45.547 21.969,45.762 21.882,46.051 C21.838,46.196 21.698,46.266 21.582,46.329 C21.337,46.466 21.15,46.644 21.021,46.892 C20.976,46.978 20.905,47.065 20.809,47.089 C20.384,47.196 20.184,47.638 19.779,47.773 C19.766,48.049 19.46,48.063 19.364,48.211 C19.076,48.663 18.589,48.902 18.275,49.322 C18.18,49.45 18.035,49.531 17.992,49.713 C17.968,49.814 17.895,49.939 17.76,49.94 C17.478,49.944 17.389,50.157 17.31,50.357 C17.262,50.482 17.208,50.554 17.076,50.564 C16.911,50.575 16.803,50.652 16.759,50.819 C16.746,50.869 16.685,50.948 16.655,50.945 C16.266,50.902 16.263,51.34 15.997,51.471 C15.807,51.564 15.686,51.794 15.44,51.834 C15.336,51.853 15.274,51.946 15.25,52.044 C15.207,52.219 15.113,52.317 14.926,52.316 C14.808,52.316 14.781,52.394 14.731,52.492 C14.595,52.765 14.546,53.106 14.111,53.142 C13.781,53.167 13.585,53.451 13.369,53.696 C13.182,53.907 13.022,54.175 12.738,54.286 C12.613,54.335 12.543,54.412 12.486,54.532 C12.345,54.832 12.113,55.039 11.804,55.169 C11.614,55.249 11.463,55.391 11.329,55.547 C11.291,55.59 11.255,55.662 11.212,55.668 C10.796,55.724 10.506,56.096 10.082,56.116 C9.779,56.131 9.576,56.363 9.303,56.447 C9.031,56.53 8.804,56.707 8.586,56.895 C8.398,57.058 8.191,57.176 7.917,57.14 C7.824,57.128 7.703,57.182 7.623,57.243 C7.31,57.482 6.905,57.468 6.57,57.641 C6.437,57.709 6.297,57.751 6.144,57.735 C5.988,57.72 5.851,57.756 5.749,57.886 C5.692,57.959 5.622,57.981 5.532,57.943 C5.355,57.869 5.187,57.889 5.009,57.965 C4.843,58.035 4.69,57.943 4.663,57.786 C4.608,57.464 4.655,57.074 4.854,56.878 C5.076,56.659 5.262,56.391 5.522,56.213 C5.725,56.074 5.726,55.808 5.919,55.664 C6.072,55.551 6.248,55.449 6.309,55.242 C6.318,55.21 6.369,55.167 6.399,55.167 C6.67,55.174 6.716,54.991 6.738,54.781 C6.741,54.752 6.763,54.72 6.786,54.697 C7.135,54.366 7.225,53.833 7.663,53.571 C7.777,53.153 8.231,53.109 8.477,52.835 C8.526,52.78 8.585,52.738 8.597,52.658 C8.658,52.279 8.915,52.036 9.196,51.817 C9.447,51.623 9.615,51.334 9.914,51.192 C9.946,51.178 9.97,51.104 9.964,51.063 C9.928,50.822 10.085,50.645 10.158,50.44 C10.171,50.403 10.192,50.351 10.222,50.34 C10.595,50.208 10.735,49.767 11.132,49.662 C11.224,49.638 11.285,49.52 11.294,49.426 C11.33,49.06 11.649,48.936 11.875,48.739 C11.965,48.661 12.079,48.609 12.142,48.499 C12.292,48.231 12.519,48.016 12.655,47.736 C12.714,47.615 12.846,47.591 12.975,47.589 C13.127,47.587 13.241,47.55 13.192,47.367 C13.171,47.309 13.169,47.247 13.21,47.221 C13.436,47.075 13.575,46.825 13.819,46.707 C13.926,46.655 13.999,46.6 14.067,46.494 C14.302,46.133 14.56,45.781 14.955,45.576 C15.19,45.454 15.192,45.175 15.375,45.023 C15.412,44.994 15.424,44.928 15.462,44.908 C16.015,44.622 16.361,44.111 16.793,43.694 C16.843,43.647 16.897,43.619 16.96,43.596 C17.128,43.533 17.331,43.508 17.326,43.247 C17.324,43.159 17.43,43.155 17.503,43.155 C17.71,43.155 17.826,43.062 17.836,42.848 C17.845,42.67 17.956,42.606 18.117,42.611 C18.281,42.615 18.431,42.614 18.46,42.395 C18.465,42.356 18.542,42.323 18.588,42.291 C18.621,42.269 18.689,42.25 18.689,42.231 C18.687,41.947 18.866,41.797 19.084,41.673 C19.007,41.368 19.265,41.295 19.429,41.138 C19.753,40.828 20.08,40.544 20.496,40.349 C20.66,40.273 20.761,40.026 20.852,39.838 C20.917,39.703 20.982,39.633 21.132,39.612 C21.389,39.577 21.612,39.466 21.81,39.29 C21.929,39.185 22.112,39.132 22.219,39.04 C22.561,38.747 23.022,38.524 23.064,37.991 C23.079,37.803 23.181,37.691 23.335,37.66 C23.51,37.626 23.535,37.518 23.553,37.383 C23.562,37.32 23.543,37.241 23.627,37.219 C23.69,37.202 23.73,37.258 23.773,37.294 C24.045,37.516 24.317,37.736 24.588,37.958 C24.606,37.973 24.629,37.998 24.628,38.016 C24.604,38.313 24.853,38.302 25.025,38.346 C25.21,38.394 25.38,38.319 25.556,38.234 C25.852,38.093 26.163,37.97 26.496,37.932 C26.571,37.923 26.635,37.958 26.702,37.997 C26.915,38.119 26.976,38.373 27.167,38.52 C27.241,38.576 27.247,38.742 27.171,38.818 L27.171,38.818 Z M56.318,18.284 C56.281,18.516 56.326,18.76 56.315,18.997 C56.291,19.458 56.303,19.93 56.232,20.378 C56.154,20.874 56.167,21.365 56.137,21.856 C56.113,22.271 56.199,22.69 56.186,23.106 C56.179,23.366 56.22,23.668 55.953,23.859 C55.895,23.9 55.86,23.969 55.9,24.032 C56.01,24.201 55.933,24.345 55.862,24.496 C55.845,24.531 55.821,24.577 55.829,24.611 C55.944,25.091 55.739,25.565 55.806,26.044 C55.835,26.254 55.768,26.45 55.631,26.618 C55.514,26.762 55.51,26.937 55.52,27.11 C55.535,27.406 55.519,27.687 55.25,27.884 C55.187,27.931 55.175,28.004 55.183,28.084 C55.24,28.679 55.087,29.242 54.899,29.796 C54.817,30.039 54.833,30.293 54.756,30.539 C54.616,30.985 54.527,31.448 54.417,31.904 C54.403,31.96 54.374,32.016 54.375,32.071 C54.388,32.41 54.166,32.613 53.96,32.837 C53.78,33.032 53.779,33.304 53.755,33.55 C53.736,33.751 53.724,33.923 53.503,34.002 C53.429,34.028 53.4,34.103 53.366,34.17 C53.332,34.236 53.293,34.312 53.22,34.329 C52.705,34.442 52.513,34.874 52.275,35.267 C52.072,35.603 51.841,35.901 51.53,36.168 C51.312,36.355 51.075,36.578 50.901,36.829 C50.776,37.009 50.621,37.065 50.419,37.053 C50.274,37.043 50.176,37.071 50.143,37.25 C50.116,37.397 49.957,37.444 49.828,37.496 C49.707,37.545 49.523,37.55 49.473,37.637 C49.29,37.946 48.982,37.917 48.732,37.892 C48.49,37.867 48.335,37.889 48.218,38.099 C47.777,38.106 47.668,38.544 47.377,38.747 C47.173,38.891 46.99,39.021 46.71,38.979 C46.501,38.95 46.269,39.056 46.113,38.828 C45.89,38.94 45.645,38.766 45.433,38.869 C45.276,38.945 45.123,38.961 44.959,38.956 C44.679,38.947 44.42,39.067 44.139,39.083 C43.932,39.096 43.723,39.171 43.509,39.149 C43.335,39.132 43.26,39.292 43.126,39.348 C42.79,39.487 42.45,39.375 42.112,39.384 C41.976,39.388 41.84,39.359 41.7,39.392 C41.58,39.419 41.448,39.427 41.337,39.368 C40.984,39.183 40.63,39.252 40.263,39.309 C40.021,39.347 39.774,39.357 39.515,39.295 C39.24,39.23 38.945,39.351 38.668,39.428 C38.572,39.454 38.484,39.462 38.386,39.467 C37.938,39.488 37.499,39.458 37.059,39.354 C36.806,39.295 36.546,39.442 36.279,39.368 C35.866,39.253 35.412,39.275 35.021,39.164 C34.645,39.058 34.304,39.17 33.954,39.104 C33.814,39.078 33.69,39.064 33.576,38.963 C33.406,38.812 33.21,38.726 32.967,38.798 C32.825,38.84 32.676,38.817 32.535,38.753 C32.184,38.59 31.835,38.416 31.445,38.361 C31.415,38.357 31.382,38.336 31.362,38.313 C31.018,37.918 30.515,37.858 30.061,37.702 C29.944,37.66 29.825,37.644 29.742,37.541 C29.677,37.461 29.593,37.411 29.492,37.395 C29.394,37.381 29.317,37.339 29.28,37.249 C29.19,37.031 29.007,36.936 28.804,36.854 C28.52,36.738 28.341,36.495 28.125,36.294 C27.948,36.131 27.774,35.933 27.498,35.917 C27.358,35.908 26.875,35.42 26.796,35.349 C26.529,35.108 26.537,34.684 26.198,34.499 C25.966,34.373 25.834,34.184 25.85,33.902 C25.86,33.736 25.772,33.677 25.615,33.743 C25.457,33.81 25.412,33.746 25.451,33.6 C25.502,33.411 25.43,33.288 25.295,33.15 C25.007,32.856 24.778,32.505 24.461,32.234 C24.427,32.205 24.392,32.145 24.399,32.106 C24.449,31.852 24.238,31.654 24.257,31.408 C24.269,31.245 24.117,31.153 24.066,31.018 C23.933,30.656 23.734,30.333 23.526,30.01 C23.433,29.866 23.432,29.665 23.223,29.606 C23.202,29.602 23.175,29.546 23.182,29.524 C23.262,29.287 23.094,29.148 22.981,28.984 C22.911,28.882 22.9,28.754 22.882,28.632 C22.831,28.29 22.808,27.946 22.602,27.639 C22.444,27.406 22.5,27.117 22.488,26.847 C22.481,26.693 22.58,26.451 22.262,26.47 C22.248,26.471 22.216,26.435 22.219,26.42 C22.287,26.084 21.925,25.889 21.944,25.562 C21.96,25.259 21.936,24.955 21.939,24.651 C21.94,24.488 21.912,24.341 21.787,24.227 C21.775,24.215 21.753,24.199 21.755,24.191 C21.834,23.877 21.478,23.656 21.579,23.328 C21.629,23.167 21.609,22.984 21.544,22.819 C21.442,22.562 21.424,22.294 21.441,22.021 C21.451,21.867 21.425,21.721 21.378,21.566 C21.307,21.336 21.5,21.145 21.568,20.933 C21.685,20.565 21.816,20.204 21.702,19.809 C21.667,19.689 21.697,19.569 21.8,19.5 C21.971,19.386 21.99,19.226 21.978,19.046 C21.968,18.883 21.981,18.735 22.173,18.669 C22.29,18.63 22.285,18.515 22.278,18.418 C22.264,18.223 22.31,18.045 22.405,17.876 C22.487,17.731 22.52,17.573 22.526,17.404 C22.533,17.208 22.56,17.014 22.676,16.843 C22.782,16.687 22.822,16.527 22.742,16.336 C22.678,16.184 22.74,16.051 22.847,15.911 C23.061,15.632 23.283,15.361 23.514,15.097 C23.565,15.04 23.588,14.949 23.6,14.871 C23.625,14.7 23.651,14.557 23.885,14.62 C23.963,14.641 23.989,14.561 24.001,14.491 C24.026,14.355 24.086,14.215 24.074,14.082 C24.046,13.778 24.239,13.606 24.415,13.417 C24.538,13.285 24.658,13.149 24.727,12.98 C24.756,12.911 24.802,12.88 24.871,12.863 C24.978,12.836 25.043,12.752 25.06,12.654 C25.156,12.101 25.47,11.628 25.626,11.098 C25.646,11.028 25.692,10.986 25.743,10.946 C25.873,10.842 25.945,10.698 25.955,10.542 C25.968,10.336 26.04,10.215 26.259,10.21 C26.32,10.209 26.363,10.175 26.394,10.119 C26.522,9.882 26.651,9.646 26.876,9.48 C26.925,9.443 26.975,9.374 26.977,9.317 C26.985,9.117 27.091,9.021 27.274,8.983 C27.379,8.962 27.395,8.879 27.386,8.793 C27.366,8.581 27.514,8.459 27.664,8.399 C27.919,8.298 28.009,8.055 28.18,7.884 C28.23,7.835 28.257,7.747 28.33,7.732 C28.579,7.68 28.62,7.501 28.624,7.29 C28.627,7.129 28.68,7.013 28.881,7.052 C28.94,7.071 28.997,7.085 29.051,7.017 C29.223,6.807 29.503,6.76 29.71,6.59 C29.901,6.435 30.149,6.357 30.416,6.401 C30.516,6.418 30.609,6.361 30.68,6.288 C30.988,5.967 31.408,5.923 31.806,5.873 C32.502,5.785 33.191,5.678 33.857,5.453 C34.079,5.378 34.259,5.168 34.527,5.259 C34.967,4.933 35.509,5.176 35.963,5.008 C36.284,4.889 36.666,4.903 36.925,4.712 C37.582,4.231 38.225,4.463 38.872,4.658 C39.142,4.739 39.383,4.786 39.651,4.665 C39.887,4.558 40.121,4.64 40.329,4.761 C40.639,4.941 40.972,5.011 41.325,5.007 C41.398,5.007 41.498,4.969 41.542,5.004 C41.881,5.279 42.257,5.038 42.611,5.089 C42.764,5.111 42.89,5.127 42.909,5.309 C42.922,5.433 43.01,5.443 43.106,5.442 C43.335,5.44 43.514,5.524 43.643,5.726 C43.727,5.857 43.864,5.923 44.025,5.898 C44.385,5.844 44.754,5.831 45.105,5.886 C45.469,5.943 45.846,6.05 46.137,6.315 C46.25,6.418 46.357,6.446 46.489,6.359 C46.555,6.316 46.646,6.291 46.691,6.359 C46.792,6.51 46.965,6.518 47.095,6.6 C47.399,6.794 47.731,6.854 48.074,6.927 C48.419,7.001 48.749,7.157 49.078,7.293 C49.211,7.348 49.262,7.497 49.337,7.614 C49.367,7.662 49.387,7.75 49.422,7.756 C49.71,7.804 49.925,7.984 50.156,8.137 C50.195,8.163 50.28,8.157 50.289,8.183 C50.368,8.432 50.615,8.533 50.761,8.727 C50.979,9.017 51.203,9.317 51.514,9.529 C51.712,9.665 51.881,9.835 52.141,9.878 C52.267,9.898 52.383,9.997 52.464,10.125 C52.564,10.283 52.71,10.355 52.914,10.373 C53.191,10.398 53.361,10.627 53.524,10.827 C53.673,11.01 53.787,11.221 53.982,11.365 C54.06,11.421 54.086,11.494 54.066,11.601 C54.036,11.767 54.124,11.919 54.252,11.999 C54.378,12.078 54.417,12.186 54.473,12.304 C54.603,12.576 54.78,12.812 54.987,13.04 C55.249,13.33 55.516,13.645 55.558,14.065 C55.571,14.198 55.603,14.305 55.73,14.366 C55.759,14.38 55.801,14.405 55.803,14.427 C55.832,14.719 56.023,14.997 55.911,15.297 C55.836,15.501 55.839,15.68 55.963,15.856 C56.021,15.937 56.077,16.025 56.061,16.127 C56.029,16.334 56.123,16.527 56.131,16.717 C56.155,17.245 56.405,17.742 56.318,18.284 L56.318,18.284 Z" id="Fill-2" sketch:type="MSShapeGroup"></path>
            <path d="M89.511,16.944 C89.526,16.584 89.44,16.427 89.108,16.324 C89.03,16.3 88.97,16.284 88.96,16.192 C88.947,16.06 88.831,16.031 88.746,15.959 C88.561,15.803 88.396,15.642 88.135,15.643 C88.118,15.643 88.096,15.613 88.083,15.593 C88.022,15.495 87.927,15.49 87.824,15.491 C87.652,15.492 87.48,15.486 87.308,15.479 C87.196,15.474 87.093,15.487 87.023,15.586 C86.932,15.717 86.829,15.757 86.698,15.637 C86.633,15.577 86.56,15.563 86.512,15.647 C86.384,15.871 86.182,15.825 85.989,15.794 C85.844,15.77 85.704,15.708 85.554,15.721 C85.196,15.753 84.843,15.801 84.477,15.799 C84.238,15.798 84.011,15.775 83.779,15.737 C83.715,15.727 83.646,15.708 83.584,15.72 C82.864,15.856 82.134,15.767 81.41,15.81 C81.182,15.823 80.952,15.839 80.725,15.85 C80.481,15.861 80.238,16.01 80,15.905 C79.778,15.807 79.555,15.816 79.328,15.811 C79.028,15.802 78.741,15.699 78.445,15.66 C78.092,15.888 77.513,15.975 77.183,15.686 C77.17,15.686 77.157,15.688 77.145,15.689 C76.901,15.797 76.21,15.961 76.03,15.638 C76.005,15.588 75.97,15.545 75.943,15.497 C75.817,15.563 75.556,15.629 75.31,15.628 C75.252,15.704 75.196,15.782 75.127,15.854 C74.854,16.14 73.786,16.479 73.613,15.905 C73.563,15.737 73.495,15.606 73.425,15.481 C73.408,15.484 73.39,15.488 73.373,15.49 C73.275,15.543 73.177,15.595 73.063,15.64 C72.799,15.743 72.151,15.915 71.948,15.589 C71.931,15.563 71.919,15.541 71.904,15.516 C71.714,15.534 71.525,15.557 71.337,15.582 C71.069,15.617 70.826,15.898 70.526,15.684 C70.507,15.67 70.452,15.703 70.415,15.718 C70.065,15.86 69.694,15.883 69.324,15.902 C69.146,15.911 69.125,15.652 68.998,15.655 C68.858,15.658 68.757,15.865 68.585,15.832 C68.367,15.789 68.166,15.861 67.956,15.882 C67.551,15.923 67.147,16.034 66.736,15.929 C66.651,15.907 66.574,15.929 66.495,15.952 C65.896,16.132 65.281,16.192 64.66,16.17 C64.447,16.162 64.262,16.19 64.083,16.302 C63.985,16.363 63.865,16.414 63.758,16.341 C63.627,16.252 63.512,16.3 63.385,16.337 C63.166,16.401 62.952,16.52 62.722,16.496 C62.565,16.48 62.418,16.577 62.318,16.564 C61.978,16.523 61.683,16.779 61.412,16.735 C61.397,16.733 61.384,16.734 61.37,16.733 C61.4,16.799 61.42,16.875 61.418,16.968 C61.413,17.128 61.282,17.824 61.403,17.927 C61.554,18.055 61.615,18.227 61.596,18.393 C61.649,18.459 61.704,18.533 61.765,18.622 C61.925,18.855 61.871,19.054 61.73,19.216 C61.726,19.293 61.718,19.374 61.706,19.465 C61.698,19.518 61.682,19.567 61.661,19.615 C61.825,19.582 61.989,19.548 62.155,19.526 C62.3,19.507 62.463,19.53 62.583,19.436 C62.741,19.315 62.891,19.231 63.1,19.3 C63.185,19.327 63.251,19.252 63.301,19.184 C63.331,19.145 63.324,19.11 63.277,19.085 C63.229,19.06 63.153,19.043 63.192,18.966 C63.223,18.906 63.296,18.918 63.349,18.927 C63.847,19.009 64.352,18.949 64.856,18.99 C65.468,19.039 66.134,19.197 66.727,18.823 C66.773,18.793 66.836,18.791 66.892,18.775 C67.535,18.598 68.192,18.731 68.842,18.685 C68.92,18.679 69.005,18.731 69.05,18.62 C69.128,18.426 69.274,18.417 69.455,18.457 C69.564,18.481 69.687,18.483 69.796,18.46 C70.026,18.413 70.247,18.422 70.478,18.459 C70.7,18.494 70.923,18.489 71.147,18.384 C71.331,18.298 71.543,18.176 71.754,18.27 C71.925,18.346 72.093,18.377 72.274,18.388 C72.358,18.394 72.435,18.378 72.515,18.37 C72.825,18.337 73.164,18.21 73.35,18.612 C73.373,18.662 73.431,18.666 73.481,18.648 C73.719,18.558 73.856,18.663 73.935,18.882 C73.958,18.946 74,18.986 74.072,19.009 C74.61,19.175 75.13,19.014 75.622,18.851 C75.924,18.751 76.246,18.708 76.523,18.708 C76.92,18.708 77.32,18.579 77.742,18.747 C78.17,18.917 78.675,18.879 79.071,19.179 C79.136,19.228 79.195,19.173 79.256,19.171 C79.388,19.169 79.555,19.093 79.633,19.257 C79.727,19.455 79.862,19.404 80.002,19.348 C80.244,19.25 80.494,19.197 80.749,19.142 C81.077,19.07 81.398,19.094 81.721,19.069 C81.785,19.064 81.875,19.068 81.907,19.029 C82.11,18.782 82.333,18.906 82.554,18.979 C82.71,19.029 82.85,19.033 83.022,18.998 C83.388,18.922 83.75,18.76 84.148,18.914 C84.339,18.987 84.571,18.915 84.781,18.969 C84.829,18.981 84.887,18.972 84.915,18.926 C85.016,18.765 85.173,18.769 85.33,18.779 C85.501,18.791 85.658,18.76 85.796,18.66 C85.888,18.592 85.973,18.579 86.061,18.661 C86.153,18.747 86.257,18.719 86.363,18.695 C86.684,18.625 87.007,18.577 87.337,18.58 C87.853,18.584 88.371,18.587 88.888,18.578 C89.247,18.571 89.507,18.287 89.506,17.929 C89.505,17.6 89.496,17.272 89.511,16.944" id="Fill-3" sketch:type="MSShapeGroup"></path>
            <path d="M87.581,30.031 C87.353,29.8 87.119,29.708 86.857,29.719 C86.758,29.723 86.659,29.7 86.558,29.675 C86.294,29.609 86.065,29.698 85.8,29.592 C85.781,29.584 85.753,29.606 85.733,29.621 C85.62,29.703 85.502,29.737 85.354,29.648 C85.247,29.581 85.132,29.564 85.074,29.703 C85.034,29.799 84.941,29.8 84.863,29.738 C84.702,29.612 84.568,29.639 84.448,29.672 C84.236,29.73 84.012,29.696 83.754,29.609 C83.649,29.574 83.56,29.574 83.518,29.648 C83.461,29.749 83.358,29.745 83.202,29.668 C83.085,29.611 82.983,29.617 82.873,29.602 C82.634,29.568 82.449,29.656 82.179,29.612 C81.94,29.573 81.681,29.468 81.456,29.558 C81.43,29.567 81.352,29.549 81.33,29.527 C81.16,29.358 80.975,29.391 80.78,29.393 C80.69,29.394 80.601,29.407 80.511,29.382 C80.312,29.326 80.094,29.274 79.838,29.274 C79.424,29.346 78.771,29.403 78.478,29.322 C78.458,29.323 78.437,29.327 78.416,29.328 C78.231,29.334 78,29.324 77.842,29.251 C77.817,29.25 77.791,29.242 77.768,29.232 C77.529,29.253 77.29,29.201 77.044,29.217 C76.755,29.234 76.41,29.285 76.129,29.182 C76.122,29.179 76.108,29.175 76.096,29.17 C76.085,29.18 76.074,29.189 76.063,29.197 C75.736,29.448 75.228,29.52 74.862,29.291 C74.828,29.271 74.802,29.243 74.776,29.219 C74.694,29.214 74.611,29.219 74.526,29.226 C74.029,29.267 73.529,29.283 73.032,29.339 C72.808,29.363 72.528,29.145 72.356,29.467 C72.344,29.49 72.263,29.481 72.215,29.481 C71.979,29.484 71.738,29.48 71.5,29.477 C71.419,29.477 71.333,29.49 71.266,29.433 C71.023,29.227 70.715,29.19 70.424,29.115 C70.357,29.098 70.292,29.094 70.237,29.139 C70.073,29.273 69.873,29.275 69.678,29.285 C69.551,29.291 69.431,29.308 69.329,29.382 C69.139,29.52 68.934,29.58 68.703,29.505 C68.643,29.486 68.59,29.502 68.544,29.543 C68.311,29.748 68.04,29.707 67.774,29.645 C67.629,29.611 67.487,29.575 67.339,29.582 C66.836,29.606 66.354,29.795 65.841,29.756 C65.714,29.747 65.583,29.768 65.505,29.666 C65.31,29.414 65.041,29.428 64.771,29.43 C64.421,29.432 64.072,29.544 63.72,29.446 C63.478,29.696 63.186,29.609 62.888,29.622 C62.664,29.631 62.444,29.67 62.218,29.619 C61.912,29.552 61.614,29.535 61.381,29.808 C61.315,29.884 61.218,29.856 61.131,29.872 C60.817,29.928 60.514,30.043 60.192,30.077 C60.094,30.088 60.04,30.235 59.978,30.332 C59.814,30.587 59.89,30.857 59.936,31.115 C59.992,31.432 60.039,31.604 60.212,31.77 C60.403,31.952 60.699,32.037 61.036,32.183 C61.129,32.224 61.222,32.239 61.319,32.243 C61.538,32.251 61.763,32.262 61.978,32.255 C62.236,32.245 62.525,32.314 62.757,32.201 C62.951,32.106 63.083,32.123 63.266,32.226 C63.473,32.341 63.701,32.421 63.95,32.297 C64.03,32.257 64.128,32.306 64.195,32.359 C64.277,32.425 64.403,32.44 64.553,32.44 C65.205,32.437 65.846,32.381 66.455,32.384 C66.721,32.385 66.978,32.369 67.262,32.373 C67.609,32.378 68.024,32.387 68.41,32.42 C68.728,32.447 69.028,32.482 69.316,32.473 C69.474,32.467 69.602,32.48 69.754,32.515 C70.176,32.611 70.611,32.685 70.989,32.57 C71.177,32.514 71.341,32.419 71.537,32.469 C71.776,32.529 72.046,32.353 72.267,32.591 C72.275,32.6 72.311,32.591 72.331,32.581 C72.629,32.428 72.993,32.43 73.353,32.302 C73.58,32.222 73.725,32.366 73.816,32.538 C74.153,32.412 74.522,32.315 74.68,32.448 C75.104,32.317 75.464,32.335 75.672,32.511 C75.887,32.35 76.228,32.141 76.474,32.118 C76.851,32.084 76.915,32.274 76.928,32.429 C77.322,32.279 77.703,32.221 77.776,32.403 C77.806,32.476 77.832,32.518 77.864,32.543 C78.223,32.498 78.56,32.507 78.905,32.491 C78.95,32.489 79.013,32.481 79.065,32.477 C79.442,32.443 79.83,32.414 80.186,32.386 C80.265,32.38 80.342,32.377 80.42,32.375 C80.735,32.366 81.018,32.519 81.345,32.393 C81.369,32.384 81.426,32.399 81.466,32.398 C81.763,32.386 82.059,32.514 82.387,32.501 C82.645,32.49 82.876,32.429 83.138,32.426 C83.536,32.421 83.949,32.428 84.318,32.422 C84.55,32.418 84.742,32.409 84.982,32.416 C85.23,32.423 85.465,32.429 85.726,32.441 C86.136,32.461 86.592,32.515 86.888,32.498 C86.907,32.497 86.958,32.506 86.989,32.514 C87.203,32.57 87.334,32.574 87.475,32.587 C87.751,32.612 87.933,32.613 88.067,32.499 C88.135,32.44 88.361,32.473 88.238,32.209 C88.23,32.192 88.249,32.163 88.262,32.143 C88.56,31.682 88.389,31.249 88.143,30.796 C87.995,30.525 87.808,30.263 87.581,30.031" id="Fill-4" sketch:type="MSShapeGroup"></path>
            <path d="M54.332,22.506 C54.223,21.969 54.146,21.425 54.241,20.873 C54.258,20.775 54.248,20.672 54.165,20.601 C54.049,20.504 54.057,20.377 54.045,20.244 C54.007,19.829 54.111,19.417 54.045,18.998 C54.002,18.725 53.941,18.452 53.911,18.185 C53.881,17.914 53.873,17.68 53.707,17.438 C53.547,17.206 53.678,16.908 53.732,16.651 C53.767,16.487 53.769,16.395 53.62,16.307 C53.46,16.211 53.392,16.075 53.503,15.893 C53.554,15.811 53.538,15.724 53.455,15.679 C53.242,15.565 53.279,15.369 53.221,15.181 C53.132,14.894 53.075,14.565 52.922,14.324 C52.703,13.982 52.47,13.665 52.387,13.259 C52.378,13.216 52.333,13.18 52.303,13.141 C52.115,12.897 51.96,12.627 51.795,12.37 C51.696,12.215 51.498,12.164 51.458,12.006 C51.383,11.71 51.238,11.451 51.112,11.179 C51.025,10.99 51.022,10.762 50.749,10.726 C50.712,10.72 50.669,10.663 50.652,10.621 C50.594,10.475 50.486,10.41 50.337,10.386 C50.21,10.365 50.109,10.295 50.159,10.151 C50.206,10.015 50.139,9.982 50.037,9.941 C49.9,9.888 49.75,9.837 49.756,9.646 C49.764,9.424 49.625,9.375 49.452,9.409 C49.3,9.44 49.185,9.401 49.107,9.284 C48.892,8.961 48.409,8.898 48.313,8.461 C48.308,8.443 48.275,8.431 48.256,8.416 C47.915,8.13 47.447,8.072 47.11,7.778 C47.094,7.765 47.063,7.766 47.039,7.763 C46.736,7.717 46.459,7.585 46.163,7.509 C45.717,7.397 45.278,7.277 44.816,7.268 C44.65,7.265 44.487,7.253 44.362,7.122 C44.311,7.07 44.24,7.04 44.185,7.085 C43.923,7.304 43.637,7.157 43.364,7.142 C43.032,7.123 42.699,7.018 42.372,7.036 C42.085,7.053 41.801,7.069 41.516,7.052 C41.448,7.047 41.381,7.038 41.329,7.082 C41.223,7.17 41.118,7.14 41.005,7.103 C40.698,7.003 40.349,7.027 40.104,7.152 C39.904,7.254 39.815,7.329 39.654,7.155 C39.631,7.129 39.575,7.118 39.539,7.124 C39.28,7.172 39.012,7.115 38.762,7.149 C38.27,7.218 37.781,7.216 37.29,7.214 C37.2,7.214 37.105,7.2 37.027,7.256 C36.723,7.48 36.352,7.446 36.031,7.411 C35.5,7.353 34.992,7.485 34.473,7.492 C34.391,7.493 34.271,7.536 34.221,7.627 C34.138,7.779 34.022,7.773 33.887,7.727 C33.789,7.693 33.694,7.698 33.679,7.821 C33.652,8.04 33.524,8.057 33.345,8.026 C33.089,7.982 32.932,8.088 32.856,8.335 C32.831,8.413 32.808,8.498 32.716,8.523 C32.286,8.64 31.967,8.914 31.692,9.248 C31.487,9.499 31.293,9.76 30.984,9.898 C30.894,9.939 30.869,10.022 30.831,10.107 C30.771,10.243 30.749,10.431 30.559,10.453 C30.418,10.47 30.381,10.553 30.32,10.658 C30.191,10.88 30.154,11.132 29.902,11.318 C29.647,11.507 29.445,11.783 29.153,11.948 C29.085,11.987 29.087,12.075 29.065,12.145 C29.037,12.237 29.025,12.349 28.925,12.395 C28.662,12.516 28.626,12.756 28.589,13.001 C28.551,13.254 28.442,13.491 28.242,13.632 C28.063,13.757 27.937,13.919 27.792,14.069 C27.535,14.335 27.471,14.728 27.193,14.982 C27.127,15.042 27.073,15.159 26.985,15.134 C26.724,15.059 26.774,15.234 26.765,15.374 C26.754,15.522 26.736,15.667 26.723,15.815 C26.716,15.885 26.69,15.949 26.618,15.966 C26.406,16.014 26.303,16.154 26.262,16.356 C26.245,16.445 26.177,16.492 26.099,16.527 C25.865,16.632 25.646,16.746 25.761,17.071 C25.782,17.131 25.718,17.173 25.7,17.224 C25.622,17.442 25.523,17.66 25.489,17.887 C25.441,18.211 25.434,18.235 25.076,18.125 C25.118,18.2 25.131,18.241 25.157,18.267 C25.332,18.441 25.371,18.597 25.113,18.73 C25.034,18.771 25.031,18.85 25.04,18.925 C25.078,19.276 24.912,19.59 24.847,19.922 C24.816,20.077 24.794,20.216 24.815,20.376 C24.842,20.599 24.987,20.834 24.784,21.053 C24.726,21.116 24.757,21.177 24.858,21.17 C25.049,21.157 25.004,21.251 24.93,21.343 C24.696,21.636 24.482,21.925 24.475,22.335 C24.469,22.691 24.508,23.03 24.665,23.346 C24.735,23.489 24.827,23.605 24.721,23.771 C24.656,23.874 24.744,23.943 24.809,24.023 C24.986,24.24 25.172,24.441 25.16,24.77 C25.153,24.99 25.24,25.219 25.236,25.45 C25.235,25.55 25.289,25.626 25.377,25.664 C25.754,25.825 25.852,26.201 25.995,26.52 C26.162,26.892 25.921,27.285 25.962,27.675 C25.969,27.745 25.876,27.764 25.821,27.797 C25.734,27.849 25.648,27.911 25.642,28.018 C25.631,28.214 25.58,28.404 25.572,28.603 C25.556,29.063 25.625,29.505 25.872,29.889 C26.102,30.248 25.944,30.725 26.317,31.063 C26.488,31.218 26.542,31.55 26.699,31.793 C26.825,31.988 26.926,32.09 27.138,32.115 C27.183,32.12 27.242,32.148 27.264,32.183 C27.373,32.364 27.549,32.448 27.732,32.522 C27.945,32.606 28.128,32.714 28.193,32.957 C28.212,33.028 28.279,33.075 28.345,33.112 C28.647,33.278 28.808,33.658 29.205,33.681 C29.272,33.894 29.484,33.985 29.606,34.159 C29.811,34.448 29.954,34.816 30.364,34.904 C30.396,34.912 30.424,34.956 30.446,34.989 C30.656,35.298 30.905,35.534 31.32,35.479 C31.39,35.469 31.445,35.51 31.498,35.55 C31.612,35.639 31.728,35.705 31.881,35.641 C31.944,35.614 32.031,35.628 32.066,35.678 C32.215,35.885 32.478,35.852 32.664,35.977 C32.775,36.053 32.942,35.963 33.038,36.068 C33.291,36.347 33.596,36.328 33.92,36.257 C34.02,36.234 34.111,36.219 34.22,36.291 C34.451,36.446 34.639,36.725 34.985,36.617 C35.003,36.611 35.034,36.63 35.051,36.645 C35.298,36.866 35.584,36.815 35.867,36.759 C36.042,36.723 36.202,36.701 36.326,36.875 C36.384,36.956 36.487,36.937 36.577,36.945 C36.975,36.981 37.359,36.87 37.752,36.851 C37.857,36.846 37.981,36.821 38.05,36.92 C38.141,37.049 38.262,37.057 38.397,37.054 C38.593,37.049 38.79,37.047 38.987,37.05 C39.201,37.052 39.395,37.009 39.535,36.828 C39.593,36.752 39.674,36.727 39.771,36.721 C40.065,36.699 40.39,36.739 40.642,36.624 C41.002,36.461 41.384,36.557 41.751,36.403 C42.112,36.252 42.551,36.29 42.838,35.942 C42.896,35.872 42.989,35.891 43.07,35.888 C43.397,35.875 43.746,35.808 44.009,35.674 C44.439,35.453 44.965,35.594 45.339,35.25 C45.358,35.232 45.403,35.243 45.435,35.239 C45.672,35.204 45.949,35.32 46.126,35.056 C46.139,35.036 46.189,35.036 46.221,35.036 C46.356,35.04 46.447,34.965 46.538,34.874 C46.728,34.683 46.931,34.532 47.234,34.632 C47.359,34.672 47.484,34.638 47.487,34.458 C47.492,34.215 47.646,34.172 47.841,34.213 C47.95,34.236 48.084,34.273 48.142,34.183 C48.361,33.839 48.783,33.807 49.065,33.547 C49.47,33.173 49.913,32.836 50.342,32.489 C50.796,32.123 51.085,31.629 51.508,31.247 C51.668,31.102 51.774,30.892 51.945,30.766 C52.147,30.617 52.358,30.426 52.412,30.231 C52.536,29.782 52.924,29.538 53.133,29.156 C53.245,28.952 53.305,28.775 53.311,28.565 C53.315,28.47 53.299,28.377 53.404,28.337 C53.534,28.288 53.555,28.2 53.516,28.081 C53.489,27.999 53.489,27.908 53.542,27.845 C53.713,27.641 53.759,27.346 54.008,27.196 C54.06,27.166 54.079,27.108 54.083,27.048 C54.108,26.588 54.255,26.145 54.194,25.671 C54.149,25.325 54.332,24.989 54.293,24.62 C54.253,24.259 54.298,23.887 54.239,23.52 C54.215,23.376 54.242,23.229 54.277,23.082 C54.323,22.895 54.375,22.713 54.332,22.506 L54.332,22.506 Z M43.937,31.993 C43.813,32.046 43.709,32.151 43.605,32.242 C43.481,32.352 43.366,32.464 43.185,32.475 C43.073,32.481 43.024,32.568 42.988,32.668 C42.94,32.801 42.838,32.839 42.711,32.778 C42.471,32.664 42.304,32.788 42.162,32.953 C41.995,33.147 41.855,33.156 41.694,32.946 C41.61,32.837 41.545,32.825 41.472,32.947 C41.377,33.105 41.264,33.074 41.146,32.978 C41.114,32.953 41.087,32.921 41.055,32.897 C40.762,32.665 40.79,32.442 41.142,32.289 C41.226,32.252 41.283,32.213 41.3,32.123 C41.322,32.013 41.389,31.953 41.5,31.938 C41.571,31.929 41.638,31.889 41.645,31.821 C41.676,31.55 41.904,31.411 42.049,31.221 C42.417,30.736 42.968,30.66 43.502,30.736 C43.731,30.77 43.997,30.915 44.219,31.063 C44.32,31.131 44.355,31.244 44.368,31.354 C44.379,31.768 44.331,31.824 43.937,31.993 L43.937,31.993 Z M50.577,24.877 C50.509,25.122 50.402,25.357 50.285,25.585 C50.331,25.628 50.346,25.686 50.306,25.765 C50.221,25.916 50.144,26.07 50.074,26.229 C50.227,26.285 50.257,26.404 50.013,26.627 C49.917,26.715 49.821,26.804 49.725,26.892 C49.652,26.958 49.345,27.068 49.027,27.134 C48.75,27.275 48.48,27.425 48.26,27.588 C48.19,27.64 47.849,27.76 47.508,27.831 C47.469,27.884 47.424,27.931 47.387,27.985 C47.355,28.028 47.295,28.069 47.22,28.108 C47.2,28.136 47.18,28.163 47.16,28.19 C46.92,28.611 45.289,28.889 45.5,28.434 C45.562,28.339 45.603,28.239 45.63,28.134 C45.51,28.109 45.404,28.055 45.382,27.939 C45.27,27.898 45.196,27.823 45.235,27.689 C45.244,27.659 45.253,27.628 45.262,27.599 C45.083,27.581 44.894,27.508 44.923,27.305 C45.067,26.315 44.655,26.156 43.934,26.007 C43.731,25.966 43.656,25.892 43.648,25.809 C43.582,25.802 43.523,25.8 43.453,25.792 C43.444,25.79 43.435,25.785 43.426,25.784 C43.288,25.874 43.03,25.97 42.765,26.033 C42.378,26.313 41.987,26.582 41.551,26.8 C41.508,26.822 41.346,26.874 41.149,26.92 C41.131,26.934 41.11,26.947 41.089,26.96 C40.885,27.157 40.711,27.379 40.586,27.639 C40.717,27.665 40.963,27.733 40.893,27.926 C40.668,28.55 40.658,28.544 40.144,28.957 C40.082,29.007 39.826,29.094 39.54,29.157 C39.234,29.289 38.181,29.584 38.272,29.058 C38.283,28.828 38.294,28.598 38.306,28.368 C38.25,28.334 38.207,28.292 38.195,28.224 C38.191,28.2 38.187,28.176 38.183,28.152 C38.051,28.115 37.96,28.036 37.983,27.881 C37.986,27.787 37.989,27.693 37.992,27.6 C37.752,27.598 37.557,27.531 37.599,27.305 C37.618,27.207 37.605,27.131 37.583,27.06 C37.38,27.062 37.21,27.016 37.186,26.855 C37.127,26.808 37.068,26.761 37.01,26.714 C36.514,26.687 36.336,26.367 36.846,26.102 C36.891,26.079 36.935,26.055 36.981,26.032 C36.924,25.975 36.866,25.918 36.809,25.86 C36.744,25.794 36.738,25.722 36.774,25.648 C36.494,25.655 36.218,25.705 35.945,25.786 C35.832,25.819 35.722,25.838 35.607,25.828 C35.481,25.816 35.377,25.852 35.306,25.954 C35.156,26.173 34.918,26.264 34.688,26.328 C34.435,26.398 34.347,26.559 34.305,26.78 C34.249,27.075 34.141,27.211 33.856,27.24 C33.671,27.259 33.65,27.347 33.651,27.498 C33.654,27.716 33.583,27.887 33.321,27.893 C33.261,27.895 33.201,27.915 33.177,27.972 C33.103,28.148 32.928,28.214 32.812,28.331 C32.661,28.483 32.533,28.701 32.442,28.913 C32.288,29.27 32.224,29.646 32.325,30.033 C32.333,30.064 32.32,30.099 32.318,30.131 C32.31,30.316 32.159,30.528 32.275,30.676 C32.479,30.936 32.661,31.231 32.985,31.376 C33.061,31.41 33.118,31.426 33.188,31.375 C33.352,31.253 33.557,31.196 33.706,31.05 C33.777,30.979 33.871,30.969 33.959,30.992 C34.261,31.072 34.54,31.002 34.818,30.893 C34.873,30.871 34.944,30.863 34.955,30.803 C35.031,30.373 35.544,30.369 35.708,30.023 C35.744,29.947 35.842,29.962 35.897,30.028 C36.023,30.177 36.176,30.178 36.345,30.132 C36.532,30.081 36.633,30.159 36.738,30.327 C37.037,30.802 36.929,31.341 37.011,31.848 C37.045,32.059 37.043,32.289 36.977,32.507 C36.955,32.576 36.954,32.66 37.016,32.715 C37.096,32.787 37.202,32.852 37.158,32.975 C37.105,33.117 37.054,33.287 36.946,33.377 C36.787,33.51 36.585,33.615 36.356,33.56 C36.112,33.5 35.862,33.55 35.621,33.516 C35.135,33.447 34.643,33.392 34.192,33.174 C34.042,33.102 33.886,33.127 33.732,33.12 C33.57,33.113 33.442,33.091 33.438,32.881 C33.434,32.731 33.34,32.661 33.185,32.699 C33.161,32.705 33.134,32.724 33.115,32.718 C32.765,32.602 32.363,32.636 32.076,32.35 C32.043,32.317 32.034,32.264 32.012,32.221 C31.99,32.178 31.97,32.102 31.942,32.099 C31.43,32.036 31.246,31.494 30.794,31.33 C30.46,31.209 30.343,30.86 30.249,30.549 C30.201,30.389 30.171,30.343 30.038,30.441 C29.924,30.526 29.793,30.547 29.763,30.401 C29.685,30.039 29.392,29.738 29.454,29.397 C29.481,28.897 29.367,28.498 29.101,28.144 C29.038,28.062 28.96,28.029 28.867,28.041 C28.7,28.062 28.565,27.999 28.489,27.863 C28.329,27.576 27.952,27.48 27.862,27.136 C27.846,27.073 27.802,27.011 27.805,26.95 C27.839,26.262 27.533,25.665 27.318,25.04 C27.244,24.826 27.27,24.578 27.248,24.346 C27.221,24.065 27.272,23.79 27.315,23.515 C27.364,23.205 27.325,22.923 27.173,22.642 C27.063,22.438 27.087,22.166 27.224,22.017 C27.412,21.814 27.414,21.567 27.48,21.346 C27.53,21.173 27.602,20.99 27.606,20.801 C27.607,20.71 27.659,20.645 27.736,20.606 C28.173,20.388 28.227,19.967 28.287,19.554 C28.359,19.053 28.791,18.67 29.286,18.735 C29.39,18.749 29.455,18.786 29.462,18.898 C29.474,19.102 29.487,19.305 29.398,19.498 C29.616,19.595 29.585,19.805 29.638,19.986 C29.711,20.238 29.718,20.52 29.916,20.727 C29.965,20.778 29.985,20.851 29.96,20.911 C29.879,21.107 29.977,21.221 30.105,21.358 C30.358,21.631 30.26,21.967 30.224,22.29 C30.177,22.715 30.002,23.144 30.283,23.561 C30.374,23.696 30.38,23.867 30.523,23.999 C31.002,24.441 31.492,24.199 31.984,24.068 C32.047,24.051 32.109,24.006 32.17,24.008 C32.405,24.017 32.588,23.905 32.797,23.815 C33.155,23.662 33.374,23.398 33.591,23.114 C33.681,22.997 33.771,22.903 33.93,22.907 C34.04,22.91 34.117,22.838 34.171,22.756 C34.343,22.494 34.615,22.347 34.844,22.152 C35.019,22.004 35.254,22.066 35.461,22.063 C35.566,22.06 35.605,22.202 35.576,22.299 C35.487,22.6 35.556,22.882 35.641,23.167 C35.672,23.276 35.689,23.396 35.681,23.508 C35.661,23.799 35.758,24.003 36.05,24.095 C36.086,24.106 36.122,24.135 36.145,24.166 C36.422,24.542 36.635,24.598 37.06,24.396 C37.165,24.345 37.269,24.294 37.386,24.294 C37.531,24.295 37.637,24.246 37.71,24.116 C37.735,24.069 37.794,24.012 37.838,24.012 C38.271,24.007 38.625,23.584 39.098,23.778 C39.184,23.813 39.266,23.749 39.241,23.64 C39.182,23.376 39.347,23.33 39.535,23.361 C39.685,23.386 39.747,23.346 39.78,23.21 C39.801,23.126 39.859,23.066 39.951,23.054 C40.012,23.045 40.07,23.022 40.091,22.965 C40.19,22.687 40.434,22.598 40.674,22.501 C40.759,22.467 40.857,22.424 40.885,22.34 C40.953,22.14 41.113,22.102 41.285,22.072 C41.417,22.05 41.505,21.995 41.541,21.849 C41.575,21.71 41.685,21.639 41.835,21.632 C42.029,21.624 42.208,21.682 42.387,21.742 C42.451,21.764 42.515,21.818 42.509,21.883 C42.488,22.113 42.65,22.19 42.807,22.285 C42.962,22.379 43.091,22.494 43.136,22.69 C43.208,22.997 43.469,23.087 43.734,23.15 C43.824,23.172 43.91,23.176 43.962,23.268 C43.987,23.312 44.028,23.346 44.082,23.339 C44.537,23.286 45,23.417 45.448,23.3 C45.666,23.243 45.873,23.15 46.106,23.142 C46.188,23.138 46.246,23.068 46.267,22.977 C46.303,22.818 46.395,22.763 46.557,22.811 C46.718,22.859 46.86,22.818 46.984,22.696 C47.255,22.428 47.585,22.229 47.842,21.94 C47.984,21.78 48.177,21.66 48.415,21.641 C48.603,21.626 48.909,21.31 48.918,21.131 C48.934,20.808 49.024,20.502 49.127,20.2 C49.234,19.887 49.127,19.748 48.89,19.533 C48.593,19.263 48.219,19.287 47.891,19.152 C47.695,19.071 47.491,19.195 47.289,19.205 C47.063,19.213 46.902,19.308 46.718,19.454 C46.482,19.641 46.177,19.79 45.833,19.72 C45.746,19.703 45.652,19.705 45.563,19.714 C45.367,19.733 45.176,19.764 45.037,19.565 C44.987,19.494 44.885,19.517 44.804,19.517 C44.604,19.518 44.495,19.427 44.492,19.222 C44.492,19.197 44.5,19.164 44.487,19.149 C44.258,18.893 44.28,18.563 44.214,18.257 C44.192,18.157 44.169,18.053 44.14,17.954 C44.052,17.658 43.928,17.367 43.793,17.094 C43.618,16.741 43.186,16.66 42.889,16.428 C42.755,16.324 42.503,16.409 42.395,16.2 C42.392,16.195 42.379,16.194 42.372,16.192 C42.245,16.16 41.633,16.449 41.574,16.572 C41.512,16.7 41.429,16.81 41.325,16.905 C41.203,17.016 41.082,17.122 41.091,17.315 C41.096,17.414 40.997,17.45 40.922,17.504 C40.7,17.665 40.453,17.814 40.443,18.141 C40.442,18.203 40.418,18.283 40.375,18.322 C40.085,18.581 39.953,18.969 39.649,19.212 C39.221,19.555 38.738,19.677 38.208,19.513 C38.016,19.454 37.948,19.252 37.944,19.076 C37.936,18.696 37.875,18.327 37.799,17.957 C37.765,17.794 37.793,17.615 37.853,17.474 C37.954,17.235 37.908,16.986 37.971,16.75 C38,16.645 37.955,16.564 37.883,16.484 C37.68,16.266 37.469,16.063 37.165,15.988 C37.119,15.977 37.06,15.96 37.034,15.926 C36.86,15.697 36.599,15.682 36.351,15.642 C36.219,15.62 36.098,15.579 35.979,15.52 C35.728,15.395 35.549,15.459 35.406,15.702 C35.331,15.831 35.227,15.948 35.084,15.996 C34.675,16.133 34.574,16.514 34.399,16.837 C34.374,16.884 34.378,16.949 34.334,16.991 C33.843,17.458 33.54,18.058 33.174,18.613 C33.055,18.794 32.654,18.936 32.45,18.867 C32.307,18.82 32.268,18.711 32.309,18.573 C32.387,18.306 32.323,18.036 32.315,17.768 C32.302,17.315 31.923,17.14 31.626,16.912 C31.416,16.75 31.15,16.706 30.902,16.644 C30.69,16.591 30.625,16.474 30.607,16.287 C30.592,16.128 30.629,15.977 30.658,15.823 C30.664,15.793 30.683,15.738 30.695,15.738 C30.998,15.742 31.083,15.411 31.328,15.331 C31.386,15.311 31.443,15.284 31.46,15.23 C31.604,14.768 32.007,14.558 32.354,14.289 C32.679,14.037 33.093,13.892 33.307,13.505 C33.634,13.461 33.649,13.032 34.009,12.97 C34.212,12.935 34.335,12.604 34.576,12.532 C34.975,12.413 35.252,12.035 35.73,12.061 C35.934,12.072 36.19,12.017 36.375,11.82 C36.532,11.655 36.75,11.812 36.94,11.812 C37.069,11.812 37.201,11.881 37.269,11.706 C37.272,11.699 37.281,11.688 37.284,11.689 C37.628,11.822 37.795,11.336 38.14,11.447 C38.258,11.485 38.38,11.447 38.476,11.345 C38.512,11.307 38.581,11.268 38.627,11.276 C38.929,11.327 39.173,11.135 39.451,11.091 C39.467,11.089 39.484,11.073 39.498,11.076 C39.8,11.149 40.071,11.049 40.358,10.965 C40.716,10.859 41.094,10.863 41.465,10.949 C41.51,10.959 41.572,10.955 41.609,10.931 C41.916,10.734 42.233,10.815 42.56,10.866 C42.955,10.929 43.357,10.964 43.753,10.85 C43.98,10.785 44.145,10.972 44.355,10.993 C44.753,11.034 45.121,11.197 45.496,11.329 C45.565,11.354 45.65,11.37 45.694,11.42 C45.833,11.579 46.02,11.59 46.199,11.656 C46.464,11.753 46.621,12.023 46.757,12.274 C46.786,12.327 46.762,12.4 46.863,12.405 C47.232,12.425 47.721,12.839 47.798,13.187 C47.802,13.203 47.797,13.229 47.807,13.234 C48.016,13.368 48.06,13.592 48.157,13.798 C48.21,13.909 48.322,14.031 48.415,14.141 C48.536,14.281 48.617,14.464 48.819,14.522 C48.852,14.531 48.88,14.577 48.898,14.612 C49.122,15.057 49.46,15.427 49.685,15.881 C49.833,16.181 49.93,16.446 49.929,16.77 C49.928,16.888 49.978,17.006 50.035,17.119 C50.126,17.299 50.167,17.489 50.02,17.669 C49.95,17.756 49.948,17.833 50.066,17.881 C50.357,18.001 50.404,18.085 50.336,18.392 C50.287,18.616 50.245,18.841 50.25,19.072 C50.251,19.137 50.246,19.212 50.275,19.264 C50.433,19.549 50.452,19.855 50.446,20.17 C50.443,20.351 50.464,20.526 50.553,20.692 C50.617,20.812 50.58,20.948 50.587,21.078 C50.606,21.429 50.435,21.752 50.456,22.102 C50.462,22.192 50.455,22.283 50.537,22.349 C50.711,22.485 50.714,22.681 50.683,22.867 C50.615,23.27 50.629,23.666 50.715,24.063 C50.777,24.349 50.649,24.617 50.577,24.877 L50.577,24.877 Z" id="Fill-5" sketch:type="MSShapeGroup"></path>
        </g>
    </g>
</svg>