<?xml version="1.0" encoding="UTF-8" standalone="no"?>
<svg width="252px" height="126px" viewBox="0 0 252 126" version="1.1" xmlns="http://www.w3.org/2000/svg" xmlns:xlink="http://www.w3.org/1999/xlink" xmlns:sketch="http://www.bohemiancoding.com/sketch/ns">
    <!-- Generator: Sketch 3.3.3 (12081) - http://www.bohemiancoding.com/sketch -->
    <title>poll_book_sketch</title>
    <desc>Created with Sketch.</desc>
    <defs></defs>
    <g id="Page-1" stroke="none" stroke-width="1" fill="none" fill-rule="evenodd" sketch:type="MSPage">
        <g id="Imported-Layers" sketch:type="MSLayerGroup" transform="translate(25.000000, 0.000000)">
            <path d="M129.545,110.115 C128.927,110.023 128.362,109.727 127.726,109.69 C127.098,109.652 126.623,109.29 126.232,108.811 C126.045,108.582 126.165,108.31 126.108,108.065 C126.112,107.999 126.116,107.935 126.119,107.869 C126.268,107.414 126.222,106.949 126.186,106.485 C126.185,106.46 126.147,106.437 126.126,106.412 C126.126,106.346 126.125,106.28 126.124,106.213 C126.317,105.498 126.22,104.845 125.717,104.276 C125.74,104.173 125.729,104.074 125.679,103.981 C125.726,103.515 125.761,103.048 125.663,102.583 C125.615,102.358 125.644,102.136 125.666,101.909 C125.69,101.659 125.795,101.398 125.624,101.156 C125.624,101.09 125.625,101.023 125.625,100.957 C125.679,100.697 125.626,100.467 125.436,100.274 C125.437,99.948 125.439,99.621 125.442,99.295 C125.618,99.028 125.503,98.695 125.641,98.42 C125.708,98.362 125.72,98.289 125.7,98.207 C126.02,97.738 126.002,97.197 126.028,96.666 C126.122,96.587 126.137,96.484 126.121,96.371 C126.137,96.294 126.173,96.214 126.164,96.14 C126.136,95.871 126.168,95.598 126.043,95.337 C125.905,95.054 126.287,94.853 126.199,94.565 C126.194,94.55 126.191,94.533 126.186,94.519 C126.271,94.23 126.234,93.94 126.194,93.649 C126.245,93.518 126.248,93.386 126.197,93.253 C126.225,93.19 126.225,93.128 126.199,93.065 C126.267,92.825 126.217,92.607 126.076,92.407 L126.085,92.384 L126.062,92.373 C125.993,92.172 125.967,91.967 125.987,91.753 C126.006,91.56 126.004,91.365 125.943,91.175 C125.914,91.084 125.886,90.975 125.91,90.89 C126.057,90.371 125.89,89.864 125.876,89.352 C125.854,88.496 125.845,87.638 125.927,86.783 C125.948,86.555 125.99,86.33 125.892,86.115 C125.786,85.891 125.887,85.668 125.878,85.444 C125.854,84.849 125.785,84.252 125.837,83.657 C125.874,83.229 125.771,82.818 125.722,82.404 C125.599,81.376 125.457,80.35 125.46,79.312 C125.464,77.531 125.408,75.751 125.448,73.97 C125.471,72.995 125.519,72.016 125.403,71.041 C125.377,70.819 125.432,70.59 125.436,70.363 C125.45,69.683 125.484,69.004 125.437,68.322 C125.401,67.792 125.477,67.265 125.524,66.735 C125.593,65.968 125.57,65.181 125.43,64.41 C125.461,64.281 125.459,64.153 125.411,64.027 C125.407,63.799 125.575,63.578 125.445,63.343 C125.437,63.246 125.43,63.148 125.423,63.052 C125.464,62.951 125.461,62.853 125.42,62.753 C125.455,62.593 125.455,62.434 125.416,62.273 C125.446,62.206 125.446,62.138 125.418,62.069 C125.418,62.008 125.419,61.945 125.42,61.884 C125.482,61.341 125.489,60.794 125.548,60.249 C125.599,59.784 125.772,59.299 125.574,58.818 C125.556,58.773 125.602,58.695 125.624,58.636 C125.784,58.203 125.807,57.735 125.764,57.302 C125.701,56.647 125.802,56.016 125.839,55.373 C125.863,54.945 125.919,54.513 125.845,54.083 C125.846,54.02 125.847,53.955 125.848,53.892 C126.03,53.323 126.156,52.748 126.117,52.144 C126.103,51.952 126.02,51.752 126.092,51.568 C126.26,51.146 126.174,50.71 126.187,50.279 C126.204,50.184 126.22,50.088 126.236,49.993 C126.327,49.919 126.402,49.819 126.402,49.71 C126.4,49.154 126.548,48.6 126.425,48.042 C126.43,47.75 126.488,47.457 126.398,47.168 C126.459,46.933 126.456,46.7 126.351,46.477 C126.352,46.221 126.352,45.965 126.353,45.709 C126.446,45.608 126.438,45.506 126.356,45.403 L126.356,45.226 C126.446,45.101 126.439,44.964 126.405,44.824 C126.471,44.603 126.395,44.406 126.292,44.215 C126.286,44.103 126.267,43.988 126.277,43.878 C126.377,42.881 126.525,41.892 126.533,40.884 C126.537,40.454 126.553,39.969 126.983,39.657 C127.123,39.556 127.128,39.414 126.953,39.307 C126.707,39.154 126.677,38.928 126.751,38.67 C126.821,38.429 127.054,38.338 127.233,38.306 C127.712,38.219 128.033,37.91 128.377,37.62 C128.448,37.626 128.511,37.606 128.563,37.554 C129.027,37.441 129.506,37.397 129.95,37.183 C130.169,37.076 130.33,36.878 130.572,36.821 C131.209,36.674 131.766,36.315 132.427,36.193 C132.858,36.113 133.294,35.848 133.655,35.544 C133.836,35.391 134.048,35.338 134.26,35.259 C134.688,35.097 135.141,34.984 135.519,34.707 C135.622,34.694 135.701,34.637 135.778,34.573 C135.991,34.552 136.226,34.642 136.409,34.457 L136.419,34.454 C136.525,34.444 136.602,34.392 136.657,34.302 C136.721,34.29 136.784,34.278 136.849,34.268 C137.112,34.236 137.384,34.227 137.615,34.067 C137.77,34.057 137.899,33.986 138.019,33.892 C138.102,33.902 138.165,33.871 138.214,33.805 C138.383,33.806 138.564,33.863 138.702,33.711 C139.162,33.584 139.566,33.305 140.045,33.226 C140.13,33.212 140.165,33.13 140.174,33.044 C140.252,33.03 140.332,32.999 140.408,33.005 C140.979,33.054 141.469,32.863 141.9,32.503 C141.981,32.509 142.049,32.477 142.111,32.429 C142.604,32.448 143.012,32.175 143.414,31.97 C143.913,31.716 144.446,31.664 144.964,31.52 C145.021,31.503 145.103,31.504 145.151,31.533 C145.51,31.743 145.935,31.7 146.307,31.85 C146.317,31.878 146.337,31.889 146.365,31.883 C146.396,31.995 146.47,32.069 146.573,32.118 C146.574,32.217 146.615,32.295 146.693,32.354 C146.73,32.534 146.698,32.684 146.569,32.837 C146.182,33.301 145.791,33.756 145.235,34.031 C145.171,34.04 145.106,34.049 145.043,34.058 C144.814,33.991 144.592,34.031 144.376,34.106 C144.01,34.231 143.647,34.366 143.283,34.497 C143.198,34.485 143.131,34.513 143.085,34.587 C142.869,34.69 142.597,34.602 142.405,34.786 C142.266,34.779 142.125,34.766 142.016,34.882 C141.708,34.938 141.424,35.055 141.157,35.216 C141.04,35.167 140.936,35.18 140.848,35.274 C140.667,35.34 140.47,35.378 140.356,35.558 C140.227,35.553 140.097,35.535 139.974,35.593 C139.846,35.558 139.715,35.558 139.605,35.632 C139.296,35.844 138.925,35.892 138.589,36.03 C138.374,36.119 138.108,36.092 137.946,36.304 C137.662,36.342 137.389,36.407 137.148,36.573 C137.072,36.556 137.001,36.557 136.941,36.615 C136.82,36.597 136.732,36.651 136.658,36.739 C136.519,36.731 136.378,36.712 136.261,36.817 C136.199,36.832 136.138,36.847 136.076,36.861 C135.631,36.897 135.259,37.141 134.856,37.297 C134.509,37.433 134.235,37.714 133.912,37.872 C133.347,38.147 132.745,38.371 132.134,38.518 C131.661,38.631 131.283,38.907 130.85,39.081 C130.645,39.163 130.647,39.36 130.845,39.438 C131.055,39.521 131.232,39.657 131.46,39.717 C131.928,39.838 132.375,40.048 132.847,40.143 C133.323,40.239 133.763,40.445 134.239,40.538 C134.759,40.64 135.276,40.771 135.776,40.943 C136.463,41.179 137.124,41.483 137.806,41.735 C138.67,42.055 139.535,42.356 140.43,42.588 C141.053,42.749 141.668,42.951 142.288,43.13 C142.769,43.269 143.241,43.464 143.738,43.521 C144.488,43.607 145.14,44.03 145.888,44.112 C145.99,44.124 146.093,44.211 146.179,44.282 C146.647,44.664 147.258,44.755 147.762,45.06 C147.774,45.069 147.793,45.069 147.809,45.072 C148.561,45.196 149.297,45.379 149.997,45.69 C150.067,45.722 150.162,45.75 150.231,45.73 C150.594,45.622 150.943,45.725 151.282,45.811 C151.752,45.931 152.229,46.019 152.691,46.176 C153.008,46.284 153.194,46.586 153.517,46.67 C153.722,46.782 153.874,46.989 154.133,47.001 C154.242,47.134 154.393,47.189 154.553,47.21 C154.81,47.244 155.044,47.336 155.27,47.454 L155.281,47.481 L155.31,47.483 C155.498,47.694 155.732,47.811 156.013,47.86 C156.452,47.939 156.895,48.005 157.315,48.171 C157.337,48.201 157.363,48.209 157.397,48.195 C157.678,48.348 157.974,48.428 158.295,48.387 C158.36,48.396 158.426,48.404 158.49,48.412 C158.815,48.574 159.057,48.9 159.462,48.903 C159.469,48.933 159.487,48.943 159.518,48.937 C159.626,49.103 159.773,49.218 159.979,49.203 C160.144,49.192 160.28,49.282 160.435,49.3 C160.517,49.384 160.619,49.402 160.729,49.397 C160.793,49.522 160.912,49.584 161.033,49.612 C161.585,49.74 162.066,50.1 162.667,50.072 C162.831,50.065 163.016,50.144 163.164,50.23 C163.371,50.35 163.556,50.334 163.751,50.231 C163.817,50.239 163.883,50.25 163.948,50.259 C164.412,50.452 164.901,50.642 165.389,50.64 C165.838,50.637 166.18,50.778 166.492,51.033 C166.704,51.205 166.909,51.266 167.163,51.202 C167.289,51.25 167.419,51.253 167.55,51.232 C167.775,51.463 168.088,51.428 168.365,51.488 C169.196,51.674 170.065,51.684 170.861,52.032 C170.906,52.042 170.952,52.053 170.998,52.063 C171.151,52.231 171.308,52.398 171.536,52.461 C172.521,52.733 173.4,53.238 174.306,53.69 C174.442,53.758 174.578,53.884 174.752,53.773 L175.348,53.773 C175.469,53.938 175.622,54.026 175.834,54.042 C176.139,54.064 176.44,54.118 176.744,54.152 C176.972,54.178 177.191,54.185 177.269,54.475 C177.307,54.61 177.447,54.648 177.59,54.612 C177.681,54.641 177.772,54.67 177.862,54.698 C178.316,55.085 178.638,55.574 178.973,56.061 C179.137,56.297 179.275,56.508 179.287,56.795 C179.292,56.907 179.278,57.031 179.321,57.131 C179.629,57.86 179.523,58.659 179.716,59.413 C179.843,59.908 179.817,60.442 179.856,60.96 C179.955,62.284 180.139,63.605 179.979,64.935 C179.926,65.374 179.951,65.807 180.009,66.24 C180.077,66.744 179.958,67.247 179.981,67.745 C180.01,68.378 179.989,69.008 180.004,69.639 C180.016,70.101 179.982,70.579 180.133,71.034 C180.12,71.106 180.134,71.171 180.177,71.231 C180.059,71.612 180.144,72.005 180.131,72.393 C180.119,72.75 180.117,73.106 180.057,73.459 C179.849,74.648 179.916,75.847 179.906,77.045 C179.901,77.69 179.983,78.335 179.878,78.985 C179.804,79.444 179.858,79.925 179.857,80.396 C179.854,81.53 179.894,82.668 179.839,83.801 C179.777,85.03 179.856,86.256 179.862,87.482 C179.868,88.617 179.898,89.753 179.946,90.889 C179.983,91.744 179.93,92.604 179.911,93.462 C179.904,93.769 179.845,94.076 179.979,94.374 C180.009,94.441 180.009,94.539 179.984,94.609 C179.898,94.869 179.951,95.126 179.985,95.382 C180.079,96.075 180.093,96.77 180.05,97.469 C180.028,97.822 180.046,98.185 180.095,98.536 C180.188,99.202 180.119,99.864 180.097,100.526 C180.068,101.385 180.007,102.242 180.013,103.099 C180.017,103.617 180.059,104.132 179.97,104.647 C179.957,104.725 179.962,104.812 179.98,104.889 C180.181,105.715 180.033,106.532 179.914,107.348 C179.859,107.72 179.809,108.087 179.909,108.456 C179.94,108.57 179.925,108.68 179.907,108.793 C179.806,109.406 179.833,110.021 179.901,110.635 C179.913,110.746 179.898,110.861 179.889,110.973 C179.851,111.39 179.721,111.791 179.642,112.201 C179.576,112.544 179.548,112.826 179.749,113.118 C179.791,113.178 179.791,113.272 179.789,113.351 C179.771,113.937 179.837,114.515 179.913,115.093 C179.961,115.447 179.831,115.794 179.909,116.157 C180.069,116.904 180.032,117.665 180.044,118.426 C180.057,119.329 180.123,120.24 180.263,121.138 C180.324,121.529 180.315,121.914 180.177,122.289 C180.125,122.428 180.099,122.571 180.101,122.719 C180.11,123.245 179.866,123.606 179.393,123.822 C179.317,123.856 179.232,123.89 179.251,123.99 C179.268,124.083 179.351,124.106 179.437,124.11 C179.567,124.117 179.692,124.084 179.82,124.06 C180.182,123.991 180.335,124.048 180.454,124.266 C180.581,124.497 180.542,124.606 180.266,124.895 C179.924,125.25 179.517,125.388 179.03,125.303 C178.92,125.283 178.8,125.253 178.694,125.275 C178.087,125.405 177.501,125.226 176.908,125.162 C176.73,125.143 176.568,125.062 176.412,124.97 C175.782,124.599 175.114,124.343 174.393,124.196 C174,124.116 173.66,123.86 173.32,123.644 C173.058,123.476 172.798,123.316 172.476,123.306 C172.374,123.302 172.29,123.26 172.208,123.203 C171.52,122.738 170.756,122.429 170.012,122.077 C169.794,121.975 169.612,121.798 169.395,121.693 C169.149,121.576 168.893,121.466 168.619,121.418 C168.57,121.346 168.505,121.315 168.419,121.339 C168.296,121.21 168.163,121.112 167.995,121.032 C167.641,120.863 167.238,120.85 166.897,120.66 C166.526,120.455 166.163,120.252 165.712,120.299 C165.611,120.309 165.499,120.231 165.398,120.184 C164.772,119.886 164.13,119.632 163.521,119.29 C163.035,119.018 162.511,118.809 162.055,118.476 C161.779,118.274 161.465,118.148 161.159,118.003 C160.676,117.772 160.16,117.624 159.687,117.38 C159.368,117.215 159.065,117.041 158.689,117.055 C158.516,117.06 158.402,116.93 158.269,116.836 C157.825,116.522 157.411,116.142 156.822,116.113 C156.727,116.096 156.631,116.078 156.535,116.061 C156.069,115.713 155.521,115.522 154.995,115.305 C154.567,115.128 154.083,115.09 153.646,114.931 C152.889,114.655 152.14,114.364 151.357,114.164 C151.171,114.116 150.991,114.037 150.811,113.963 C149.856,113.566 148.899,113.188 147.876,112.987 C147.262,112.867 146.663,112.674 146.062,112.49 C145.606,112.352 145.149,112.204 144.663,112.131 C144.013,112.033 143.359,111.901 142.717,111.731 C142.336,111.632 141.929,111.579 141.524,111.623 C141.459,111.613 141.394,111.605 141.329,111.595 C140.737,111.345 140.073,111.477 139.478,111.245 C139.385,111.196 139.285,111.19 139.183,111.211 C138.913,111.032 138.593,111.096 138.299,111.037 C137.531,110.885 136.76,110.734 135.971,110.744 C135.908,110.719 135.847,110.72 135.786,110.747 C135.44,110.691 135.065,110.745 134.75,110.663 C134.185,110.517 133.592,110.575 133.039,110.348 C132.845,110.268 132.618,110.152 132.399,110.168 C131.672,110.22 130.948,110.046 130.223,110.144 C129.998,110.089 129.772,110.092 129.545,110.115 L129.545,110.115 Z M165.231,52.593 L165.235,52.597 C165.194,52.519 165.119,52.502 165.042,52.478 C164.62,52.341 164.169,52.38 163.742,52.273 C163.677,52.267 163.61,52.262 163.545,52.256 C163.405,52.023 163.14,52.095 162.94,52.029 C162.477,51.879 161.999,51.751 161.499,51.797 C161.403,51.755 161.304,51.755 161.203,51.776 C161.031,51.658 160.872,51.471 160.685,51.436 C160.037,51.32 159.526,50.901 158.92,50.69 C158.421,50.515 157.935,50.315 157.408,50.235 C157.344,50.221 157.28,50.206 157.216,50.192 C156.762,50 156.247,49.959 155.846,49.637 C155.427,49.677 155.124,49.392 154.769,49.252 C154.169,49.019 153.574,48.779 153.095,48.326 C153.03,48.266 152.917,48.255 152.824,48.23 C151.81,47.947 150.786,47.715 149.75,47.537 C149.578,47.508 149.404,47.438 149.224,47.498 C149.159,47.489 149.094,47.481 149.029,47.473 C148.786,47.345 148.522,47.291 148.256,47.241 C148.13,47.219 147.987,47.218 147.9,47.117 C147.677,46.856 147.387,46.83 147.076,46.851 C147.011,46.814 146.942,46.803 146.869,46.824 C146.716,46.673 146.527,46.583 146.331,46.503 C145.645,46.224 144.958,45.943 144.276,45.651 C144.02,45.542 143.769,45.44 143.483,45.447 C143.321,45.451 143.165,45.41 143.006,45.374 C142.155,45.182 141.338,44.874 140.472,44.717 C139.888,44.61 139.295,44.429 138.736,44.152 C138.077,43.826 137.398,43.508 136.653,43.401 C136.523,43.391 136.396,43.381 136.267,43.37 C135.929,43.079 135.481,43.094 135.093,42.946 C135.006,42.919 134.921,42.892 134.835,42.864 C134.806,42.761 134.731,42.696 134.634,42.679 C134.269,42.614 133.928,42.466 133.573,42.377 C133.116,42.264 132.653,42.131 132.172,42.127 C132.105,42.124 132.04,42.121 131.974,42.119 C131.549,41.819 131.052,41.754 130.558,41.683 C130.35,41.652 130.136,41.657 129.948,41.541 C129.532,41.283 129.069,41.136 128.609,40.981 C128.51,40.946 128.413,40.824 128.306,40.941 C128.209,41.045 128.2,41.183 128.263,41.306 C128.37,41.519 128.388,41.734 128.351,41.966 C128.339,42.042 128.345,42.143 128.386,42.2 C128.609,42.512 128.532,42.848 128.501,43.185 C128.479,43.41 128.408,43.631 128.444,43.859 C128.43,43.925 128.415,43.99 128.4,44.055 C128.325,44.146 128.329,44.239 128.395,44.333 C128.394,44.401 128.394,44.471 128.392,44.539 C128.304,44.709 128.351,44.89 128.365,45.061 C128.391,45.398 128.4,45.734 128.389,46.074 C128.363,46.83 128.363,47.586 128.354,48.342 C128.272,48.507 128.303,48.676 128.331,48.846 C128.144,49.183 128.225,49.544 128.236,49.899 C128.171,50.024 128.175,50.155 128.2,50.29 C128.121,50.51 128.032,50.729 128.116,50.97 C128.074,51.071 128.092,51.165 128.153,51.253 C128.077,51.74 127.995,52.229 128.057,52.726 C127.97,52.847 127.973,52.979 128.008,53.116 C127.813,53.55 127.669,53.992 127.727,54.478 C127.68,54.639 127.696,54.798 127.738,54.956 C127.717,55.165 127.666,55.376 127.68,55.582 C127.726,56.314 127.586,57.032 127.559,57.758 C127.553,57.93 127.385,58.086 127.518,58.268 C127.495,58.401 127.487,58.536 127.518,58.67 C127.352,59.116 127.427,59.576 127.445,60.032 C127.409,60.094 127.4,60.159 127.419,60.228 C127.335,60.325 127.347,60.416 127.433,60.504 C127.396,60.641 127.394,60.776 127.429,60.914 C127.329,61.478 127.258,62.047 127.259,62.622 C127.259,62.666 127.296,62.709 127.317,62.752 C127.303,63.109 127.24,63.469 127.346,63.824 C127.359,64.256 127.352,64.688 127.338,65.12 C127.329,65.437 127.27,65.757 127.354,66.073 C127.296,66.234 127.292,66.398 127.327,66.564 C127.268,66.645 127.243,66.738 127.242,66.835 C127.233,67.618 127.227,68.4 127.219,69.184 C127.202,69.348 127.188,69.512 127.252,69.67 C127.227,70.334 127.214,70.997 127.241,71.66 C127.274,72.45 127.371,73.241 127.21,74.029 C127.193,74.107 127.195,74.191 127.201,74.272 C127.278,75.403 127.246,76.535 127.226,77.668 C127.219,78.006 127.29,78.347 127.273,78.685 C127.204,80.081 127.428,81.455 127.573,82.835 C127.522,82.927 127.518,83.021 127.557,83.117 C127.423,83.685 127.581,84.235 127.656,84.791 C127.613,84.95 127.618,85.107 127.681,85.262 C127.697,85.788 127.762,86.315 127.665,86.841 C127.643,86.966 127.625,87.096 127.675,87.222 C127.643,87.281 127.643,87.342 127.668,87.404 C127.575,87.577 127.512,87.754 127.514,87.958 C127.52,88.736 127.573,89.516 127.733,90.274 C127.85,90.818 127.875,91.356 127.918,91.904 C128.017,93.168 127.979,94.435 128.042,95.697 C127.982,95.79 127.991,95.884 128.031,95.979 C127.908,96.479 127.855,96.991 127.742,97.495 C127.561,98.294 127.408,99.11 127.392,99.942 C127.383,100.36 127.356,100.779 127.267,101.196 C127.192,101.543 127.179,101.935 127.329,102.25 C127.645,102.91 127.321,103.601 127.498,104.257 C127.218,104.599 127.414,104.916 127.543,105.239 C127.578,105.327 127.57,105.432 127.593,105.525 C127.716,106.033 127.722,106.552 127.765,107.068 C127.795,107.434 127.92,107.586 128.26,107.614 C128.538,107.638 128.696,107.784 128.852,107.979 C129.064,108.242 129.173,108.267 129.475,108.112 C129.606,108.045 129.73,107.95 129.882,107.995 C130.463,108.166 131.071,108.033 131.659,108.167 C131.985,108.24 132.332,108.292 132.672,108.194 C132.794,108.254 132.92,108.248 133.048,108.216 C133.547,108.373 134.076,108.335 134.578,108.453 C135.387,108.643 136.205,108.717 137.03,108.735 C137.486,108.746 137.92,108.866 138.35,108.989 C138.542,109.044 138.769,109.031 138.913,109.235 C139.079,109.471 139.369,109.536 139.611,109.493 C140.019,109.419 140.414,109.498 140.814,109.485 C141.037,109.478 141.23,109.499 141.384,109.682 C141.501,109.822 141.661,109.825 141.829,109.805 C141.99,109.786 142.151,109.782 142.312,109.772 C142.377,109.807 142.444,109.81 142.514,109.792 C142.87,109.885 143.226,109.978 143.581,110.07 C143.679,110.115 143.779,110.113 143.881,110.086 C144.178,110.234 144.497,110.251 144.819,110.245 C145.015,110.242 145.232,110.22 145.367,110.372 C145.612,110.647 145.906,110.603 146.211,110.565 C146.274,110.593 146.336,110.593 146.397,110.559 C146.742,110.592 147.033,110.814 147.382,110.833 C147.447,110.846 147.513,110.859 147.578,110.871 C147.847,110.979 148.138,110.987 148.407,111.117 C148.869,111.338 149.33,111.575 149.864,111.599 C150.138,111.61 150.411,111.656 150.619,111.879 C150.73,112 150.893,111.943 151.036,111.949 C151.28,111.961 151.513,111.995 151.702,112.19 C152.068,112.566 152.503,112.827 153.047,112.84 C153.636,112.853 154.158,113.02 154.684,113.313 C154.99,113.484 155.367,113.764 155.806,113.543 C155.928,113.481 156.066,113.565 156.145,113.675 C156.472,114.128 157.026,114.255 157.436,114.586 C157.542,114.67 157.712,114.711 157.85,114.708 C158.227,114.696 158.589,114.799 158.959,114.82 C158.966,114.868 158.993,114.896 159.042,114.902 C159.265,115.29 159.563,115.598 159.984,115.764 C160.375,115.916 160.761,116.094 161.165,116.194 C161.983,116.398 162.684,116.844 163.365,117.292 C163.918,117.655 164.441,118.035 165.099,118.185 C165.224,118.213 165.353,118.25 165.466,118.312 C165.726,118.454 165.984,118.572 166.294,118.53 C166.449,118.51 166.564,118.596 166.668,118.715 C166.929,119.008 167.319,119.162 167.656,119.171 C168.065,119.183 168.425,119.26 168.756,119.455 C169.149,119.685 169.61,119.744 169.989,120.015 C170.442,120.34 170.918,120.606 171.463,120.804 C172.08,121.028 172.698,121.339 173.243,121.747 C173.54,121.97 173.831,122.213 174.222,122.263 C174.615,122.314 174.944,122.509 175.288,122.692 C175.611,122.863 175.882,123.182 176.283,123.158 C176.702,123.134 177.041,123.314 177.371,123.52 C177.51,123.606 177.648,123.69 177.798,123.751 C178.123,123.885 178.195,123.831 178.166,123.48 C178.128,123.035 178.18,122.621 178.382,122.205 C178.565,121.83 178.644,121.416 178.594,120.977 C178.519,120.302 178.523,119.615 178.437,118.941 C178.336,118.151 178.365,117.356 178.279,116.565 C178.218,116.008 178.14,115.435 178.234,114.868 C178.285,114.562 178.305,114.262 178.299,113.951 C178.293,113.607 178.229,113.225 178.618,112.992 C178.731,112.925 178.731,112.792 178.619,112.704 C178.376,112.514 178.324,112.244 178.318,111.967 C178.305,111.395 178.185,110.838 178.079,110.281 C178.002,109.869 177.99,109.481 178.174,109.099 C178.247,108.947 178.223,108.781 178.237,108.62 C178.28,108.165 178.129,107.717 178.202,107.261 C178.287,106.733 178.373,106.205 178.437,105.675 C178.479,105.323 178.571,104.944 178.486,104.619 C178.336,104.05 178.332,103.467 178.215,102.898 C178.271,102.736 178.257,102.571 178.233,102.406 C178.366,101.925 178.321,101.439 178.275,100.951 C178.305,100.891 178.31,100.829 178.285,100.766 C178.384,100.678 178.377,100.573 178.33,100.463 C178.383,100.371 178.382,100.274 178.346,100.177 C178.39,100.116 178.402,100.052 178.371,99.981 C178.461,99.689 178.425,99.396 178.368,99.103 C178.505,98.885 178.483,98.685 178.294,98.507 C178.326,98.417 178.331,98.326 178.296,98.235 C178.404,97.91 178.345,97.578 178.329,97.248 C178.458,96.886 178.462,96.526 178.302,96.172 C178.303,95.814 178.406,95.455 178.288,95.099 C178.335,94.711 178.333,94.324 178.261,93.939 C178.397,93.582 178.208,93.237 178.224,92.886 C178.27,91.774 178.231,90.663 178.169,89.554 C178.253,89.196 178.236,88.839 178.171,88.481 C178.242,88.292 178.197,88.097 178.199,87.905 C178.202,87.632 178.136,87.356 178.192,87.084 C178.313,86.509 178.181,85.938 178.178,85.364 C178.201,85.297 178.194,85.232 178.165,85.169 C178.271,84.777 178.243,84.387 178.148,83.997 C178.197,83.902 178.196,83.807 178.161,83.708 C178.211,83.439 178.231,83.173 178.071,82.927 C178.079,82.832 178.087,82.737 178.095,82.643 C178.218,82.523 178.228,82.389 178.146,82.242 C178.16,82.147 178.173,82.053 178.186,81.958 C178.25,81.567 178.282,81.177 178.191,80.786 C178.223,80.724 178.224,80.66 178.196,80.596 C178.282,80.433 178.302,80.241 178.271,80.079 C178.192,79.633 178.208,79.184 178.167,78.736 C178.198,78.416 178.234,78.096 178.2,77.773 C178.274,77.325 178.293,76.874 178.242,76.426 C178.179,75.875 178.178,75.328 178.253,74.78 C178.286,74.539 178.33,74.299 178.255,74.059 C178.328,73.804 178.395,73.549 178.369,73.279 C178.536,73.065 178.366,72.809 178.46,72.575 C178.57,72.299 178.537,72.004 178.491,71.712 C178.379,71.006 178.345,70.295 178.397,69.581 C178.452,68.836 178.423,68.094 178.372,67.348 C178.309,66.415 178.283,65.478 178.274,64.543 C178.27,63.98 178.392,63.421 178.339,62.85 C178.212,61.466 178.125,60.078 178.004,58.692 C177.968,58.273 178.035,57.854 177.963,57.435 C177.824,56.633 177.601,56.245 176.714,56.177 C176.161,56.133 175.593,56.01 175.089,55.73 C174.515,55.41 173.89,55.211 173.294,54.94 C172.769,54.698 172.31,54.323 171.752,54.145 C171.523,53.708 171.124,53.77 170.733,53.783 C170.558,53.79 170.377,53.767 170.203,53.736 C170.056,53.711 169.915,53.699 169.778,53.771 C169.411,53.572 168.999,53.602 168.606,53.533 C168.532,53.442 168.444,53.391 168.323,53.431 C168.132,53.415 167.94,53.399 167.748,53.384 C167.668,53.283 167.565,53.266 167.449,53.309 C167.193,53.11 166.908,52.991 166.58,52.991 C166.525,52.922 166.456,52.908 166.375,52.935 C166.263,52.846 166.139,52.791 165.991,52.808 C165.758,52.666 165.494,52.632 165.231,52.593 L165.231,52.593 Z" id="Fill-1" fill="#4D4D4C" sketch:type="MSShapeGroup"></path>
            <path d="M152.06,21.451 C152.272,20.935 152.688,20.552 153.051,20.175 C153.516,19.691 153.897,19.075 154.619,18.856 C154.979,18.746 155.284,18.458 155.642,18.331 C156.166,18.145 156.655,17.887 157.234,17.813 C157.951,17.72 158.66,17.961 159.359,17.786 C159.839,17.666 160.331,17.774 160.788,17.704 C162.021,17.514 163.247,17.796 164.471,17.64 C164.519,17.634 164.575,17.649 164.616,17.63 C165.283,17.304 166.019,17.473 166.713,17.339 C167.017,17.28 167.324,17.264 167.633,17.308 C167.728,17.321 167.832,17.338 167.923,17.316 C168.685,17.135 169.453,17.073 170.233,17.155 C170.324,17.165 170.425,17.129 170.515,17.097 C170.735,17.017 170.962,16.998 171.186,17.039 C171.503,17.095 171.796,17.076 172.076,16.901 C172.256,16.79 172.457,16.838 172.646,16.882 C172.873,16.935 173.095,16.939 173.317,16.861 C173.488,16.802 173.667,16.791 173.847,16.806 C174.561,16.864 175.271,16.87 175.958,16.61 C176.151,16.538 176.348,16.536 176.481,16.733 C176.589,16.894 176.752,16.893 176.914,16.897 C177.027,16.901 177.159,16.856 177.251,16.898 C177.944,17.219 178.639,16.94 179.332,16.932 C179.636,16.928 179.955,16.907 180.2,17.158 C180.242,17.201 180.313,17.225 180.375,17.236 C181.168,17.392 181.964,17.53 182.765,17.303 C183.19,17.181 183.604,17.222 184.007,17.365 C184.539,17.555 185.083,17.588 185.638,17.566 C185.989,17.553 186.339,17.668 186.696,17.544 C186.847,17.491 187.015,17.593 187.15,17.681 C187.399,17.843 187.699,17.872 187.954,18.022 C188.166,18.147 188.411,18.026 188.617,17.971 C188.966,17.878 189.266,17.966 189.555,18.11 C190.093,18.379 190.673,18.45 191.245,18.38 C191.862,18.305 192.434,18.356 192.991,18.627 C193.195,18.726 193.407,18.816 193.64,18.818 C193.872,18.82 194.067,18.94 194.274,18.996 C195.096,19.217 195.714,19.784 196.426,20.188 C196.798,20.398 197.18,20.606 197.535,20.851 C198.196,21.304 198.595,21.973 198.949,22.666 C199.097,22.953 199.267,23.234 199.433,23.503 C199.739,24.005 199.832,24.549 199.962,25.097 C200.104,25.692 200.18,26.304 200.415,26.879 C200.51,27.114 200.534,27.383 200.562,27.64 C200.648,28.441 200.736,29.244 200.793,30.048 C200.85,30.856 200.899,31.669 200.748,32.473 C200.69,32.787 200.731,33.084 200.802,33.386 C200.812,33.433 200.842,33.479 200.841,33.525 C200.807,34.496 201.118,35.438 201.065,36.41 C201.05,36.731 201.161,37.045 201.154,37.373 C201.146,37.777 201.191,38.181 201.155,38.588 C201.115,39.044 201.242,39.49 201.31,39.938 C201.417,40.644 201.506,41.352 201.507,42.067 C201.51,42.861 201.562,43.654 201.622,44.446 C201.644,44.737 201.64,45.024 201.583,45.316 C201.51,45.696 201.476,46.079 201.51,46.476 C201.544,46.874 201.478,47.281 201.449,47.684 C201.378,48.653 201.284,49.62 201.372,50.596 C201.408,50.998 201.385,51.406 201.387,51.811 C201.387,51.86 201.394,51.916 201.374,51.956 C201.066,52.589 201.252,53.267 201.187,53.922 C201.173,54.066 201.175,54.213 201.154,54.356 C201.099,54.739 201.093,55.107 201.146,55.503 C201.226,56.091 201.138,56.7 200.979,57.285 C200.763,58.085 200.595,58.898 200.565,59.726 C200.548,60.221 200.536,60.72 200.571,61.221 C200.622,61.913 200.663,62.609 200.588,63.309 C200.512,64.018 200.583,64.731 200.614,65.444 C200.659,66.495 200.854,67.542 200.7,68.6 C200.668,68.822 200.644,69.065 200.695,69.278 C200.9,70.14 200.769,70.986 200.641,71.836 C200.621,71.963 200.598,72.104 200.633,72.223 C200.825,72.884 200.69,73.54 200.644,74.201 C200.606,74.716 200.648,75.236 200.635,75.754 C200.618,76.445 200.707,77.158 200.299,77.786 C200.226,77.899 200.184,78.022 200.209,78.155 C200.261,78.436 200.204,78.709 200.119,78.971 C199.912,79.616 199.818,80.296 199.543,80.924 C199.456,81.123 199.352,81.304 199.19,81.44 C198.792,81.771 198.418,82.123 198.085,82.521 C197.959,82.671 197.83,82.8 197.628,82.861 C197.352,82.946 197.183,83.188 197.023,83.407 C196.607,83.986 196.038,84.332 195.378,84.552 C194.911,84.708 194.501,84.982 194.108,85.259 C193.486,85.698 192.842,85.973 192.069,85.842 C191.968,85.825 191.884,85.836 191.81,85.926 C191.675,86.092 191.465,86.165 191.304,86.296 C190.8,86.706 190.144,86.768 189.596,87.071 C189.503,87.123 189.37,87.138 189.263,87.123 C188.888,87.073 188.554,87.217 188.248,87.379 C187.737,87.649 187.202,87.706 186.646,87.691 C186.451,87.685 186.25,87.661 186.065,87.724 C185.177,88.023 184.417,87.738 183.701,87.226 C183.543,87.112 183.384,86.998 183.213,86.907 C182.71,86.639 182.566,86.133 182.874,85.65 C182.962,85.515 183.073,85.396 183.173,85.269 C183.227,85.2 183.304,85.157 183.385,85.168 C183.721,85.214 184.093,85.217 184.363,85.417 C184.888,85.807 185.46,85.762 186.034,85.69 C186.5,85.63 186.959,85.518 187.433,85.518 C187.513,85.518 187.607,85.489 187.672,85.521 C188.064,85.71 188.386,85.561 188.719,85.353 C189.256,85.014 189.875,84.864 190.462,84.64 C190.571,84.598 190.688,84.574 190.791,84.64 C191.128,84.856 191.364,84.65 191.536,84.419 C191.663,84.248 191.799,84.154 191.989,84.088 C192.506,83.906 193.003,83.69 193.583,83.725 C194.011,83.75 194.32,83.436 194.596,83.134 C194.726,82.99 194.828,82.822 194.943,82.664 C195.032,82.543 195.141,82.427 195.291,82.417 C195.836,82.381 196.085,81.953 196.367,81.594 C196.506,81.417 196.64,81.298 196.851,81.225 C197.371,81.043 197.758,80.741 197.76,80.117 C197.76,79.843 197.868,79.612 198.148,79.498 C198.332,79.425 198.379,79.293 198.403,79.085 C198.457,78.653 198.644,78.249 198.828,77.853 C198.894,77.716 198.945,77.592 198.905,77.439 C198.785,76.973 198.861,76.503 198.882,76.034 C198.887,75.922 198.901,75.806 198.879,75.697 C198.803,75.313 198.757,74.962 199.051,74.609 C199.233,74.391 199.176,74.048 199.149,73.756 C199.128,73.527 199.091,73.288 199.187,73.082 C199.407,72.606 199.297,72.129 199.241,71.651 C199.206,71.347 199.14,71.046 199.087,70.743 C199.128,70.579 199.115,70.42 199.052,70.265 C199.108,70.162 199.118,70.047 199.104,69.937 C199.035,69.38 199.038,68.818 199.002,68.261 C198.979,67.916 198.99,67.596 199.08,67.268 C199.143,67.038 199.211,66.801 199.093,66.565 C199.088,66.499 199.084,66.433 199.079,66.367 C199.127,66.24 199.108,66.111 199.098,65.982 C199.034,65.227 198.964,64.473 198.911,63.717 C198.876,63.2 198.865,62.683 198.843,62.166 C198.885,62.106 198.894,62.043 198.852,61.979 C198.928,61.138 198.91,60.3 198.85,59.457 C198.82,59.053 198.862,58.635 199.09,58.239 C199.269,57.928 199.373,57.55 199.332,57.162 C199.317,57.017 199.326,56.871 199.366,56.728 C199.577,55.965 199.59,55.191 199.45,54.417 C199.417,54.232 199.436,54.071 199.485,53.895 C199.676,53.224 199.813,52.545 199.785,51.839 C199.753,50.982 199.785,50.125 199.709,49.271 C199.688,49.044 199.711,48.82 199.756,48.594 C199.841,48.164 199.838,47.727 199.836,47.287 C199.835,46.721 199.824,46.143 199.935,45.593 C200.008,45.226 200.052,44.863 200.078,44.494 C200.096,44.236 200.044,43.981 200.039,43.722 C200.022,42.87 200.101,41.991 199.799,41.185 C199.459,40.277 199.565,39.363 199.598,38.447 C199.612,38.055 199.617,37.66 199.527,37.29 C199.321,36.445 199.336,35.579 199.304,34.731 C199.265,33.718 199.146,32.698 199.249,31.68 C199.264,31.537 199.233,31.388 199.202,31.246 C199.111,30.818 199.007,30.394 199.131,29.952 C199.149,29.884 199.102,29.798 199.086,29.72 C199.13,29.493 199.158,29.267 199.067,29.044 C199.001,28.237 198.85,27.446 198.623,26.67 C198.53,26.346 198.413,26.027 198.331,25.701 C198.193,25.155 197.983,24.635 197.754,24.126 C197.641,23.875 197.509,23.631 197.469,23.359 C197.423,23.043 197.231,22.858 197.001,22.663 C196.364,22.126 195.655,21.682 195.038,21.125 C194.742,20.858 194.432,20.721 194.049,20.708 C193.951,20.665 193.854,20.667 193.754,20.702 C193.308,20.42 192.81,20.334 192.292,20.328 C192.069,20.268 191.842,20.271 191.614,20.276 C191.152,20.037 190.655,20.007 190.149,20.022 C190.061,19.955 189.966,19.94 189.863,19.976 C189.188,19.646 188.394,19.751 187.723,19.397 C187.66,19.364 187.56,19.381 187.482,19.399 C186.856,19.556 186.265,19.348 185.667,19.229 C185.363,19.169 185.3,19.047 185.345,18.739 C185.365,18.597 185.449,18.441 185.269,18.358 C185.104,18.283 184.996,18.419 184.892,18.515 C184.833,18.568 184.788,18.64 184.748,18.709 C184.611,18.952 184.398,19.068 184.136,19.147 C183.4,19.367 182.656,19.299 181.922,19.198 C181.043,19.078 180.161,18.985 179.284,18.845 C178.674,18.747 178.039,18.676 177.412,18.801 C177.252,18.832 177.101,18.801 176.942,18.732 C176.519,18.55 176.064,18.486 175.612,18.55 C174.621,18.69 173.627,18.79 172.63,18.884 C171.746,18.968 170.857,18.934 169.978,19.055 C169.564,19.112 169.144,19.116 168.726,19.175 C168.338,19.229 167.984,19.412 167.588,19.401 C167.005,19.385 166.424,19.475 165.841,19.43 C165.664,19.416 165.487,19.442 165.31,19.478 C164.515,19.637 163.704,19.654 162.898,19.666 C162.238,19.676 161.584,19.807 160.922,19.757 C160.876,19.754 160.826,19.774 160.78,19.79 C160.25,19.974 159.693,19.981 159.147,19.973 C158.397,19.961 157.673,20.126 156.935,20.199 C156.83,20.169 156.731,20.174 156.641,20.242 C155.737,20.486 155.126,21.106 154.602,21.834 C154.492,21.896 154.403,21.972 154.383,22.105 C153.922,22.595 153.519,23.103 153.23,23.739 C152.951,24.355 152.9,25.054 152.498,25.616 C152.455,25.676 152.454,25.77 152.439,25.849 C152.313,26.497 152.292,27.164 152.097,27.802 C152.06,27.922 152.031,28.079 152.078,28.183 C152.219,28.494 152.1,28.78 152.06,29.081 C151.995,29.555 151.823,30.031 152.025,30.513 C151.994,30.604 151.992,30.695 152.025,30.786 C152.017,30.85 151.993,30.914 152.001,30.975 C152.157,32.115 152.165,33.263 152.079,34.406 C152.038,34.953 152.169,35.451 152.292,35.964 C152.286,36.128 152.28,36.293 152.274,36.458 C152.142,37.008 152.17,37.566 152.185,38.125 C152.209,38.941 152.352,39.743 152.496,40.545 C152.47,40.607 152.47,40.669 152.505,40.728 C152.458,41.031 152.7,41.269 152.688,41.569 C152.655,42.336 152.536,43.051 151.739,43.423 C151.712,43.435 151.694,43.469 151.672,43.492 C151.569,43.493 151.466,43.494 151.362,43.495 C151.32,43.472 151.278,43.43 151.235,43.43 C150.679,43.429 150.533,42.857 150.14,42.629 C150.077,42.594 150.052,42.404 150.083,42.31 C150.211,41.917 150.126,41.501 150.232,41.11 C150.295,40.882 150.276,40.661 150.217,40.44 C150.141,40.157 150.069,39.885 150.247,39.602 C150.322,39.481 150.273,39.318 150.255,39.172 C150.14,38.303 150.097,37.432 150.171,36.557 C150.233,35.815 150.191,35.071 150.192,34.33 C150.193,33.637 150.111,32.943 150.066,32.25 C150.033,31.735 150.1,31.218 150.086,30.71 C150.065,29.972 150.009,29.238 150.073,28.497 C150.137,27.772 150.11,27.041 150.275,26.324 C150.341,26.042 150.368,25.751 150.386,25.458 C150.403,25.173 150.397,24.87 150.633,24.643 C150.706,24.572 150.706,24.473 150.704,24.371 C150.702,24.071 150.791,23.811 151.023,23.598 C151.182,23.454 151.281,23.262 151.287,23.041 C151.294,22.855 151.394,22.704 151.444,22.536 C151.559,22.156 151.884,21.9 152.01,21.531 C152.026,21.505 152.043,21.478 152.06,21.451" id="Fill-2" fill="#1B1A15" sketch:type="MSShapeGroup"></path>
            <path d="M165.257,34.018 C164.968,34.421 164.673,34.82 164.392,35.228 C164.232,35.461 164.008,35.615 163.805,35.799 C163.511,36.063 163.507,36.203 163.843,36.379 C164.416,36.678 164.796,37.191 165.284,37.583 C165.523,37.775 165.658,38.059 165.831,38.31 C166.152,38.778 166.254,39.313 166.472,39.809 C166.753,40.45 166.673,41.073 166.588,41.709 C166.548,42.003 166.358,42.241 166.122,42.43 C165.47,42.951 164.775,43.389 163.923,43.5 C163.862,43.508 163.807,43.552 163.749,43.58 C163.678,43.565 163.615,43.58 163.559,43.624 C163.394,43.623 163.227,43.601 163.069,43.674 C162.968,43.652 162.871,43.673 162.777,43.715 C162.245,43.747 161.722,43.832 161.21,43.986 C161.145,43.963 161.084,43.965 161.024,43.999 C160.883,43.966 160.752,43.977 160.639,44.077 C160.504,44.041 160.369,44.038 160.233,44.067 C160.144,43.978 160.019,43.953 159.918,43.987 C159.666,44.07 159.457,43.979 159.303,43.818 C159,43.503 158.707,43.573 158.393,43.771 C158.292,43.741 158.192,43.741 158.092,43.766 C158.024,43.722 157.958,43.676 157.89,43.633 C157.379,43.318 157.163,42.883 157.337,42.285 C157.38,42.139 157.36,41.997 157.284,41.863 C157.211,41.731 157.209,41.584 157.21,41.437 C157.211,40.821 157.189,40.205 157.259,39.591 C157.28,39.408 157.266,39.236 157.179,39.073 C157.177,39.012 157.175,38.949 157.174,38.888 C157.237,37.853 157.055,36.823 157.167,35.782 C157.252,34.984 157.067,34.173 157.159,33.364 C157.185,33.14 157.22,32.865 157.057,32.709 C156.754,32.418 156.82,32.101 156.881,31.766 C156.941,31.67 156.965,31.564 156.963,31.45 C157.198,31.283 157.168,31.03 157.177,30.79 C157.2,30.726 157.193,30.664 157.156,30.606 C157.161,30.263 157.31,29.947 157.344,29.611 C157.403,29.025 157.639,28.787 158.227,28.743 C158.436,28.729 158.658,28.751 158.852,28.687 C159.724,28.398 160.642,28.431 161.53,28.264 C161.76,28.221 162.016,28.227 162.225,28.404 C162.351,28.513 162.508,28.558 162.678,28.536 C162.717,28.557 162.755,28.577 162.794,28.598 C163.42,28.928 163.903,29.416 164.324,29.977 C164.399,30.075 164.483,30.184 164.625,30.206 C164.933,30.516 165.077,30.933 165.329,31.279 C165.473,31.922 165.498,32.573 165.486,33.228 C165.409,33.491 165.333,33.755 165.257,34.018 L165.257,34.018 Z M159.52,30.66 C158.949,30.843 158.732,31.248 158.897,31.81 C159.051,32.341 159.102,32.899 159.119,33.436 C159.134,33.926 159.096,34.438 159.036,34.935 C159.021,35.065 159.015,35.196 159.031,35.323 C159.048,35.445 159.133,35.559 159.266,35.474 C159.506,35.32 159.771,35.394 160.019,35.346 C160.54,35.246 161.088,35.19 161.565,34.982 C162.259,34.683 162.918,34.295 163.394,33.665 C163.977,32.894 163.922,32.105 163.259,31.45 C162.755,30.951 162.101,30.709 161.505,30.366 C161.425,30.32 161.318,30.307 161.224,30.303 C160.701,30.277 160.186,30.315 159.692,30.505 C159.614,30.534 159.541,30.566 159.523,30.659 L159.52,30.66 L159.52,30.66 Z M159.011,40.071 C159.082,40.554 158.821,41.187 159.306,41.69 C159.323,41.709 159.311,41.754 159.321,41.784 C159.418,42.116 159.423,42.119 159.795,42.1 C159.892,42.094 159.99,42.091 160.086,42.098 C161.003,42.157 161.886,42.014 162.743,41.685 C162.877,41.635 163.029,41.59 163.169,41.6 C163.598,41.629 163.997,41.464 164.419,41.44 C164.824,41.416 165.023,41.181 164.949,40.836 C164.86,40.429 164.77,39.994 164.559,39.647 C164.139,38.959 163.632,38.319 162.99,37.821 C162.617,37.531 162.239,37.186 161.69,37.302 C160.975,37.451 160.253,37.542 159.52,37.549 C159.315,37.551 159.119,37.637 159.072,37.856 C159.013,38.139 158.925,38.426 158.962,38.718 C159.016,39.138 159.004,39.559 159.011,40.071 L159.011,40.071 Z" id="Fill-3" fill="#00A3DB" sketch:type="MSShapeGroup"></path>
            <path d="M172.318,43.94 C172.421,43.962 172.518,43.942 172.608,43.893 C172.781,43.945 172.959,43.931 173.134,43.923 C173.947,43.886 174.758,43.884 175.548,44.13 C175.573,44.138 175.608,44.116 175.64,44.108 C175.737,44.148 175.836,44.146 175.935,44.116 C176.216,44.254 176.512,44.24 176.809,44.2 C176.936,44.243 177.066,44.244 177.198,44.225 C177.341,44.318 177.509,44.332 177.667,44.33 C178.409,44.325 179.154,44.336 179.894,44.285 C180.723,44.228 181.544,44.171 182.365,44.333 C182.553,44.369 182.751,44.353 182.945,44.36 C183.038,44.412 183.136,44.433 183.241,44.417 C183.303,44.487 183.364,44.49 183.423,44.414 C183.524,44.417 183.626,44.42 183.727,44.423 C184.083,44.568 184.429,44.416 184.769,44.361 C185.369,44.266 185.98,44.192 186.547,43.944 C186.679,43.941 186.81,43.939 186.941,43.935 C187.239,44.041 187.528,43.934 187.819,43.903 C187.893,43.95 187.965,43.997 188.037,44.044 C188.244,44.423 188.547,44.667 188.986,44.721 C189.016,44.762 189.056,44.78 189.106,44.77 C189.178,44.856 189.25,44.941 189.319,45.029 C189.739,45.553 189.749,45.752 189.384,46.313 C189.284,46.317 189.185,46.323 189.086,46.328 C188.585,46.074 188.096,45.771 187.498,45.841 C187.085,45.89 186.674,45.954 186.262,46.012 C186.13,45.987 185.999,45.978 185.871,46.031 C185.477,46.131 185.088,46.262 184.669,46.237 C184.582,46.232 184.491,46.292 184.402,46.322 C184.271,46.273 184.14,46.275 184.007,46.31 C183.964,46.289 183.922,46.248 183.878,46.248 C183.056,46.231 182.261,45.958 181.418,46.046 C180.711,46.119 179.998,46.063 179.278,46.168 C178.622,46.264 177.925,46.343 177.246,46.205 C176.944,46.145 176.643,46.095 176.337,46.055 C175.677,45.967 175.007,45.982 174.353,45.877 C173.352,45.716 172.34,45.624 171.353,45.375 C171.081,45.307 170.954,45.134 171.054,44.885 C171.119,44.722 171.195,44.554 171.405,44.517 C171.5,44.5 171.623,44.498 171.662,44.401 C171.784,44.101 172.09,44.078 172.318,43.94" id="Fill-4" fill="#4D4D4C" sketch:type="MSShapeGroup"></path>
            <path d="M173.591,39.811 C173.387,39.741 173.215,39.811 173.04,39.916 C172.88,40.012 172.689,40.068 172.562,39.88 C172.452,39.714 172.512,39.532 172.641,39.389 C172.715,39.305 172.81,39.239 172.897,39.165 C173.058,39.027 173.185,38.88 173.25,38.659 C173.337,38.361 173.541,38.187 173.89,38.18 C174.618,38.163 175.341,38.166 176.064,38.3 C176.473,38.375 176.91,38.378 177.322,38.322 C177.816,38.256 178.315,38.219 178.809,38.133 C179.955,37.935 181.112,37.722 182.277,37.945 C182.656,38.018 183.03,38.076 183.412,38.084 C184.248,38.101 185.075,38.247 185.919,38.051 C186.481,37.922 187.078,37.942 187.659,37.897 C187.789,37.887 187.93,37.908 188.046,37.864 C188.574,37.663 188.999,37.907 189.402,38.182 C189.668,38.363 189.907,38.589 190.135,38.817 C190.392,39.076 190.394,39.366 190.18,39.597 C189.916,39.882 189.537,39.959 189.277,39.738 C189.138,39.62 188.997,39.582 188.838,39.579 C188.222,39.57 187.613,39.576 187.006,39.742 C186.67,39.833 186.314,39.906 185.952,39.893 C185.796,39.887 185.624,39.86 185.485,39.978 C185.42,39.989 185.353,40.001 185.287,40.012 C185.056,40.011 184.825,40.009 184.595,40.008 C184.368,39.96 184.144,39.928 183.924,40.036 C183.474,39.903 183.019,39.799 182.545,39.834 C182.323,39.789 182.102,39.755 181.877,39.806 C181.675,39.738 181.477,39.762 181.281,39.832 C181.117,39.782 180.956,39.782 180.799,39.853 C180.453,39.711 180.106,39.758 179.755,39.84 C179.488,39.902 179.238,40.059 178.961,40.042 C178.408,40.01 177.868,40.128 177.323,40.168 C176.387,40.238 175.501,40.102 174.63,39.783 C174.386,39.694 174.136,39.633 173.887,39.778 C173.788,39.789 173.69,39.8 173.591,39.811" id="Fill-5" fill="#4D4D4C" sketch:type="MSShapeGroup"></path>
            <path d="M188.423,53.237 C188.499,53.603 188.223,53.771 187.985,53.905 C187.76,54.033 187.519,53.927 187.329,53.746 C187.202,53.623 187.085,53.487 186.944,53.383 C186.774,53.255 186.581,53.176 186.36,53.262 C186.193,53.235 186.027,53.231 185.862,53.272 C185.731,53.178 185.599,53.148 185.463,53.262 C185.148,53.313 184.83,53.188 184.515,53.269 C184.44,53.174 184.341,53.148 184.227,53.163 C183.72,53.043 183.22,52.901 182.751,52.663 C182.7,52.638 182.625,52.661 182.561,52.663 C182.056,52.411 181.531,52.466 181.005,52.576 C180.714,52.536 180.421,52.496 180.129,52.457 C179.826,52.242 179.488,52.265 179.146,52.31 C178.564,52.113 177.981,51.916 177.398,51.72 C177.282,51.625 177.151,51.599 177.006,51.62 C176.854,51.507 176.685,51.474 176.502,51.509 C175.941,51.207 175.24,51.393 174.706,50.993 C174.664,50.962 174.579,50.99 174.515,50.986 C174.197,50.966 174.154,50.891 174.277,50.598 C174.375,50.363 174.531,50.236 174.798,50.242 C174.973,50.246 175.174,50.267 175.28,50.082 C175.462,49.767 175.711,49.624 176.083,49.661 C176.4,49.693 176.736,49.572 177.03,49.773 C177.291,49.951 177.575,50.025 177.888,50.075 C178.24,50.132 178.588,50.193 178.944,50.171 C179.097,50.161 179.225,50.194 179.354,50.285 C179.698,50.525 180.117,50.648 180.506,50.603 C181.165,50.527 181.786,50.614 182.424,50.752 C183.135,50.904 183.864,50.97 184.532,51.293 C184.727,51.387 184.944,51.353 185.155,51.357 C185.551,51.367 185.962,51.256 186.333,51.5 C186.394,51.539 186.493,51.541 186.567,51.526 C187.023,51.435 187.359,51.765 187.763,51.851 C187.81,51.86 187.86,51.94 187.875,51.997 C187.963,52.32 188.24,52.574 188.213,52.941 C188.206,53.039 188.271,53.125 188.37,53.169 C188.369,53.206 188.387,53.23 188.423,53.237 L188.423,53.237 Z M175.223,50.678 C175.216,50.627 175.191,50.591 175.137,50.592 C175.045,50.594 174.995,50.653 174.981,50.734 C174.97,50.807 175.017,50.858 175.088,50.843 C175.166,50.825 175.224,50.77 175.223,50.678 L175.223,50.678 Z" id="Fill-6" fill="#4D4D4C" sketch:type="MSShapeGroup"></path>
            <path d="M149.54,5.912 C149.333,6.087 149.123,6.033 148.991,5.856 C148.727,5.476 148.53,5.438 148.188,5.746 C147.707,6.195 147.23,6.667 146.774,7.147 C146.371,7.566 145.994,8.015 145.591,8.434 C145.478,8.563 145.317,8.668 145.171,8.76 C144.959,8.898 144.74,8.895 144.535,8.742 C144.316,8.575 144.099,8.409 143.881,8.241 C143.191,7.719 142.486,7.238 141.687,6.922 C141.494,6.841 141.363,6.622 141.128,6.66 C140.921,6.685 140.8,6.566 140.672,6.425 C140.301,6.045 139.884,5.763 139.325,5.756 C139.211,5.765 139.099,5.745 138.986,5.726 C138.853,5.697 138.723,5.627 138.679,5.505 C138.558,5.103 138.248,4.923 137.887,4.777 C137.789,4.745 137.702,4.648 137.613,4.58 C137.044,4.084 136.381,3.739 135.685,3.479 C135.199,3.298 134.705,3.14 134.259,2.869 C134.065,2.746 133.865,2.645 133.658,2.549 C133.091,2.295 132.45,2.213 131.857,2.034 C131.152,1.822 130.457,1.589 129.736,1.418 C128.896,1.221 128.079,0.975 127.206,1.052 C127.057,1.065 126.925,0.994 126.786,0.945 C126.133,0.7 125.453,0.546 124.747,0.659 C124.311,0.73 123.911,0.66 123.516,0.491 C123.309,0.397 123.085,0.328 122.85,0.366 C122.258,0.457 121.67,0.315 121.069,0.427 C120.783,0.483 120.509,0.476 120.258,0.676 C120.059,0.843 119.816,0.874 119.585,0.692 C119.495,0.624 119.406,0.556 119.28,0.549 C118.884,0.544 118.469,0.487 118.073,0.603 C117.843,0.676 117.601,0.706 117.353,0.701 C116.695,0.69 116.089,0.941 115.453,1.044 C115.346,1.06 115.244,1.126 115.148,1.185 C115.032,1.25 114.909,1.308 114.774,1.309 C114.562,1.297 114.409,1.397 114.286,1.574 C114.226,1.67 114.124,1.722 114.028,1.78 C113.765,1.951 113.443,2.014 113.208,2.185 C112.561,2.649 111.851,2.996 111.165,3.4 C110.523,3.779 109.994,4.313 109.385,4.741 C108.468,5.383 107.433,5.849 106.682,6.703 C106.42,6.994 106.015,7.157 105.789,7.443 C105.388,7.94 104.899,8.354 104.473,8.822 C104.18,9.154 103.921,9.538 103.532,9.794 C103.108,10.07 102.737,10.406 102.516,10.877 C102.388,11.168 102.185,11.392 101.929,11.569 C101.81,11.648 101.701,11.721 101.63,11.866 C101.38,12.35 101.163,12.854 100.782,13.254 C100.656,13.382 100.485,13.522 100.533,13.708 C100.628,14.082 100.727,14.504 101.131,14.651 C101.777,14.875 102.321,15.327 103.001,15.467 C103.163,15.497 103.299,15.588 103.421,15.708 C103.793,16.06 104.228,16.123 104.677,15.934 C104.916,15.825 105.136,15.815 105.32,15.959 C105.641,16.194 105.998,16.127 106.353,16.103 C106.531,16.089 106.704,16.027 106.798,15.848 C106.9,15.634 107.112,15.524 107.288,15.392 C107.707,15.079 108.133,14.789 108.551,14.478 C108.728,14.345 108.906,14.185 109.009,13.983 C109.368,13.308 109.885,12.746 110.38,12.176 C110.508,12.02 110.669,11.915 110.868,11.882 C111.419,11.774 111.865,11.492 112.266,11.13 C112.674,10.747 113.101,10.428 113.614,10.207 C113.919,10.065 114.245,9.919 114.51,9.721 C115.121,9.248 115.854,9.03 116.548,8.753 C117.169,8.501 117.804,8.264 118.535,8.236 C119.329,8.205 120.113,8.236 120.906,8.234 C121.346,8.228 121.763,8.376 122.193,8.405 C122.659,8.442 123.129,8.38 123.6,8.454 C124.205,8.541 124.81,8.613 125.404,8.764 C125.956,8.911 126.484,9.122 127.055,9.172 C127.57,9.204 128.08,9.336 128.533,9.613 C128.979,9.898 129.491,10.001 129.987,10.132 C130.364,10.236 130.721,10.317 131.072,10.526 C131.504,10.796 131.922,11.106 132.438,11.261 C132.813,11.378 133.171,11.594 133.522,11.803 C134.029,12.111 134.508,12.46 135.07,12.694 C135.397,12.816 135.729,12.96 136.024,13.152 C136.675,13.574 137.327,13.996 137.971,14.439 C138.142,14.554 138.348,14.678 138.424,14.852 C138.609,15.264 138.409,15.728 137.98,15.94 C137.625,16.114 137.269,16.288 136.897,16.383 C136.144,16.578 135.748,17.139 135.404,17.759 C135.226,18.083 135.344,18.393 135.614,18.661 C136.026,19.057 136.502,19.166 137.044,19.094 C137.208,19.066 137.365,19.046 137.534,19.069 C138.342,19.201 139.151,19.292 139.99,19.22 C140.708,19.149 141.412,18.958 142.119,18.83 C142.362,18.786 142.592,18.727 142.836,18.789 C143.452,18.946 144.103,18.803 144.72,18.933 C144.775,18.949 144.854,18.932 144.905,18.898 C145.523,18.583 146.163,18.679 146.809,18.781 C147.16,18.842 147.491,18.88 147.851,18.756 C148.515,18.52 148.627,18.377 148.62,17.669 C148.615,16.918 148.567,16.165 148.662,15.405 C148.785,14.513 148.731,13.589 149.135,12.753 C149.167,12.669 149.144,12.555 149.17,12.464 C149.295,12.095 149.146,11.677 149.354,11.326 L149.355,11.312 C149.291,10.912 149.395,10.522 149.485,10.129 C149.629,9.528 149.717,8.895 149.874,8.294 C150.038,7.714 149.802,7.065 150.244,6.542 C150.328,6.44 150.164,5.901 150.055,5.825 C149.849,5.688 149.709,5.786 149.54,5.912" id="Fill-7" fill="#00A3DB" sketch:type="MSShapeGroup"></path>
            <path d="M190.248,33.55 C190.184,33.544 190.12,33.539 190.055,33.534 C189.938,33.287 189.674,33.299 189.473,33.244 C189.208,33.172 188.948,33.119 188.7,32.981 C188.509,32.876 188.273,32.822 188.051,32.803 C187.74,32.775 187.427,32.722 187.153,32.605 C186.55,32.347 185.908,32.386 185.289,32.326 C184.873,32.286 184.418,32.338 183.987,32.398 C183.212,32.509 182.434,32.416 181.658,32.464 C180.239,32.552 178.813,32.333 177.397,32.548 C177.333,32.559 177.265,32.567 177.203,32.555 C176.534,32.421 175.848,32.511 175.178,32.387 C175.004,32.354 174.821,32.347 174.645,32.364 C173.872,32.442 173.136,32.299 172.423,32.011 C172.295,31.959 172.169,31.965 172.041,31.971 C171.379,32.004 170.719,31.979 170.058,31.948 C169.706,31.932 169.408,31.606 169.339,31.157 C169.235,30.489 169.525,30.145 170.208,30.12 C170.664,30.104 171.118,30.121 171.562,30.23 C172.15,30.374 172.745,30.434 173.347,30.374 C174.017,30.307 174.671,30.438 175.332,30.486 C175.993,30.536 176.647,30.677 177.312,30.66 C177.812,30.648 178.314,30.637 178.813,30.604 C179.769,30.54 180.726,30.652 181.68,30.561 C181.773,30.611 181.867,30.611 181.966,30.578 C182.453,30.614 182.94,30.662 183.428,30.583 C183.526,30.614 183.625,30.617 183.725,30.592 C183.89,30.688 184.064,30.689 184.238,30.63 C184.409,30.572 184.588,30.574 184.763,30.55 C185.296,30.477 185.827,30.555 186.358,30.544 C186.485,30.606 186.617,30.601 186.751,30.576 C187.037,30.903 187.479,30.9 187.835,31.083 C188.213,31.277 188.648,31.289 189.054,31.369 C189.405,31.439 189.754,31.459 190.047,31.696 C190.343,31.936 190.747,31.743 191.065,31.952 C191.25,32.073 191.481,32.118 191.704,32.168 C192.207,32.279 192.669,32.514 193.153,32.681 C193.537,32.813 193.613,33.101 193.632,33.436 C193.638,33.562 193.595,33.69 193.575,33.817 C193.54,33.856 193.505,33.895 193.47,33.933 C193.15,33.994 192.839,34 192.526,33.871 C192.303,33.78 192.065,33.713 191.827,33.671 C191.306,33.578 190.782,33.485 190.248,33.55" id="Fill-8" fill="#4D4D4C" sketch:type="MSShapeGroup"></path>
            <path d="M190.967,65.914 C190.962,66.337 190.662,66.565 190.146,66.538 C189.951,66.527 189.758,66.517 189.565,66.496 C188.516,66.39 187.465,66.408 186.414,66.467 C185.928,66.493 185.445,66.484 184.961,66.447 C184.485,66.41 184.019,66.419 183.616,66.729 C183.566,66.768 183.504,66.795 183.443,66.815 C183.175,66.901 182.881,66.826 182.729,66.642 C182.56,66.436 182.646,66.165 182.757,66.056 C183.076,65.742 183.172,65.301 183.463,64.979 C183.722,64.694 184.026,64.593 184.403,64.559 C185.372,64.473 186.339,64.515 187.307,64.524 C187.573,64.526 187.863,64.469 188.06,64.746 C188.133,64.847 188.266,64.851 188.374,64.805 C188.738,64.654 189.078,64.785 189.416,64.887 C189.651,64.957 189.883,65.015 190.129,65.025 C190.705,65.05 190.974,65.342 190.967,65.914" id="Fill-9" fill="#4D4D4C" sketch:type="MSShapeGroup"></path>
            <path d="M189.409,60.054 C189.175,60.079 188.962,59.945 188.72,59.857 C188.165,59.652 187.583,59.457 186.97,59.594 C186.651,59.664 186.332,59.723 186.009,59.724 C185.718,59.725 185.492,59.898 185.22,59.948 C184.63,60.055 184.028,60.058 183.443,60.205 C183.039,60.308 182.682,60.09 182.359,59.9 C182.024,59.703 182.036,59.063 182.339,58.782 C182.654,58.488 183.024,58.303 183.464,58.264 C184.205,58.197 184.942,58.079 185.655,57.873 C186.123,57.737 186.616,57.764 187.071,57.58 C187.169,57.541 187.297,57.557 187.407,57.573 C188.101,57.678 188.764,57.899 189.375,58.229 C189.835,58.477 190.129,58.892 190.099,59.455 C190.073,59.909 189.882,60.073 189.409,60.054" id="Fill-10" fill="#4D4D4C" sketch:type="MSShapeGroup"></path>
            <path d="M189.091,77.111 C188.402,77.175 187.762,77.051 187.118,77.02 C186.63,76.995 186.154,77.076 185.684,77.203 C185.429,77.272 185.156,77.41 184.925,77.13 C184.825,77.009 184.716,77.097 184.619,77.148 C184.46,77.231 184.3,77.305 184.113,77.295 C183.96,77.286 183.818,77.255 183.75,77.1 C183.685,76.951 183.725,76.815 183.82,76.69 C183.942,76.53 184.085,76.404 184.305,76.41 C184.534,76.417 184.681,76.317 184.817,76.117 C185.118,75.677 185.526,75.414 186.076,75.288 C186.753,75.133 187.416,75.094 188.099,75.148 C188.509,75.181 188.894,75.259 189.235,75.517 C189.507,75.721 189.844,75.718 190.169,75.715 C190.266,75.715 190.364,75.692 190.46,75.697 C190.837,75.719 191.056,75.921 191.071,76.255 C191.091,76.669 190.908,76.954 190.543,77.005 C190.049,77.073 189.562,77.265 189.091,77.111" id="Fill-11" fill="#4D4D4C" sketch:type="MSShapeGroup"></path>
            <path d="M9.744,59.121 C9.769,59.271 9.844,59.389 9.971,59.473 C10.148,59.589 10.234,59.781 10.28,59.963 C10.471,60.73 10.783,61.453 10.987,62.214 C11.019,62.331 11.064,62.448 11.024,62.56 C10.894,62.927 10.972,63.287 11.034,63.649 C11.009,63.659 11,63.677 11.009,63.702 C10.814,63.887 10.735,64.149 10.647,64.381 C10.446,64.901 10.185,65.379 9.853,65.823 C9.805,65.886 9.767,65.955 9.728,66.023 C9.64,66.182 9.679,66.284 9.848,66.371 C10.005,66.453 10.153,66.504 10.335,66.494 C11.052,66.451 11.702,66.732 12.371,66.923 C12.504,66.96 12.589,67.067 12.657,67.185 C12.819,67.466 13.029,67.692 13.337,67.821 C13.475,67.878 13.561,67.995 13.631,68.132 C13.789,68.452 13.979,68.752 14.251,68.993 C14.31,69.045 14.379,69.104 14.401,69.173 C14.521,69.565 14.75,69.9 14.912,70.264 C15.143,70.778 15.48,71.279 15.442,71.893 C15.435,71.992 15.501,72.095 15.519,72.197 C15.586,72.559 15.638,72.914 15.56,73.29 C15.445,73.85 15.265,74.381 15.046,74.904 C14.855,75.358 14.595,75.778 14.272,76.145 C13.82,76.654 13.237,76.991 12.627,77.282 C12.305,77.437 11.934,77.475 11.628,77.63 C10.919,77.992 10.152,78.02 9.398,78.112 C9.087,78.151 8.781,78.207 8.475,78.27 C8.315,78.233 8.157,78.249 8.001,78.294 C7.863,78.235 7.717,78.243 7.571,78.242 C6.988,78.238 6.408,78.168 5.836,78.074 C5.597,78.035 5.37,78.01 5.135,78.066 C5.092,78.031 5.043,78.015 4.987,78.022 C4.698,77.916 4.463,77.666 4.12,77.71 L4.122,77.713 C4.09,77.558 3.955,77.58 3.845,77.541 C3.33,77.363 2.752,77.262 2.631,76.579 C2.603,76.418 2.481,76.337 2.316,76.326 C2.184,76.317 2.054,76.293 1.921,76.322 C1.748,76.36 1.574,76.289 1.48,76.185 C1.221,75.9 0.925,75.618 1.011,75.161 C1.14,74.472 1.114,73.769 1.19,73.074 C1.221,72.797 1.259,72.529 1.225,72.249 C1.191,71.962 1.147,71.672 1.3,71.396 C1.345,71.313 1.317,71.213 1.284,71.124 C1.241,71.011 1.225,70.897 1.234,70.774 C1.264,70.38 1.29,69.985 1.346,69.592 C1.422,69.06 1.601,68.529 1.439,67.981 C1.423,67.925 1.45,67.85 1.476,67.791 C1.561,67.591 1.579,67.375 1.579,67.167 C1.581,66.212 1.795,65.279 1.871,64.332 C1.909,63.847 1.907,63.825 1.435,63.892 C1.272,63.915 1.108,63.943 1.023,63.755 C0.948,63.589 0.951,63.422 1.074,63.271 C1.166,63.158 1.268,63.051 1.342,62.928 C1.417,62.805 1.483,62.664 1.413,62.515 C1.272,62.219 1.258,61.903 1.261,61.585 L1.27,61.561 C1.687,61.316 1.811,60.856 2.057,60.483 L2.054,60.486 C2.146,60.478 2.181,60.408 2.224,60.339 C2.451,59.978 2.607,59.585 2.657,59.163 C2.693,58.856 2.822,58.623 3.057,58.44 C3.241,58.392 3.431,58.407 3.619,58.415 C3.8,58.523 3.981,58.632 4.162,58.739 L4.156,58.734 C4.159,58.862 4.225,58.901 4.342,58.864 C4.466,58.916 4.574,58.901 4.657,58.787 C4.985,58.797 5.312,58.788 5.628,58.693 C5.943,58.6 6.268,58.566 6.594,58.554 C6.725,58.549 6.857,58.567 6.948,58.444 C7.038,58.447 7.128,58.45 7.204,58.395 C7.712,58.507 8.242,58.492 8.73,58.709 C8.872,58.771 9.035,58.761 9.129,58.921 C9.197,59.035 9.309,59.07 9.437,59.008 C9.486,59.034 9.539,59.034 9.592,59.014 C9.628,59.071 9.673,59.115 9.745,59.121 L9.744,59.121 L9.744,59.121 Z M7.658,76.27 C7.893,76.276 8.171,76.264 8.448,76.264 C8.824,76.263 9.171,76.121 9.541,76.104 C10.049,76.082 10.53,75.916 10.995,75.734 C11.24,75.64 11.509,75.613 11.735,75.46 C12.131,75.194 12.54,74.95 12.942,74.695 C13.032,74.639 13.095,74.552 13.165,74.473 C13.352,74.264 13.34,73.976 13.455,73.747 C13.683,73.296 13.711,72.848 13.594,72.367 C13.56,72.228 13.581,72.077 13.573,71.933 C13.563,71.729 13.522,71.535 13.38,71.382 C13.091,71.071 12.902,70.694 12.686,70.34 C12.334,69.757 11.837,69.321 11.273,68.982 C10.881,68.745 10.446,68.483 9.933,68.64 C9.907,68.647 9.877,68.643 9.853,68.636 C9.22,68.474 8.565,68.52 7.925,68.42 C7.795,68.399 7.658,68.357 7.532,68.38 C6.998,68.474 6.451,68.48 5.92,68.603 C5.501,68.701 5.194,68.526 5.028,68.128 C4.962,67.969 4.905,67.806 4.85,67.642 C4.69,67.165 4.796,66.819 5.196,66.509 C5.363,66.381 5.522,66.222 5.712,66.144 C5.967,66.041 6.1,65.757 6.361,65.707 C6.584,65.665 6.743,65.545 6.918,65.432 C7.127,65.294 7.336,65.149 7.562,65.051 C7.801,64.948 8.013,64.812 8.189,64.639 C8.435,64.402 8.727,64.185 8.87,63.877 C9.011,63.571 9.098,63.243 9.101,62.884 C9.103,62.435 8.947,62.049 8.753,61.681 C8.547,61.293 8.116,61.115 7.761,60.922 C7.429,60.739 6.993,60.736 6.595,60.742 C5.863,60.756 5.203,61.024 4.582,61.382 C4.233,61.581 4.018,61.897 4.073,62.337 C4.089,62.454 4.097,62.575 4.082,62.692 C3.98,63.479 3.871,64.263 3.765,65.048 C3.71,65.452 3.65,65.858 3.599,66.261 C3.519,66.871 3.522,67.491 3.419,68.106 C3.27,68.993 3.32,69.902 3.181,70.791 C3.132,71.109 3.234,71.43 3.19,71.732 C3.119,72.219 3.154,72.705 3.096,73.192 C3.022,73.817 3.161,74.456 3.088,75.089 C3.067,75.263 3.147,75.37 3.343,75.426 C3.755,75.548 4.136,75.781 4.593,75.725 C4.648,75.717 4.711,75.78 4.772,75.8 C4.886,75.835 5.001,75.869 5.117,75.891 C5.543,75.969 5.969,76.048 6.397,76.115 C6.802,76.181 7.204,76.246 7.658,76.27 L7.658,76.27 Z" id="Fill-12" fill="#00A3DB" sketch:type="MSShapeGroup"></path>
            <path d="M2.701,47.747 C2.652,47.753 2.621,47.783 2.607,47.83 C2.457,47.829 2.305,47.842 2.156,47.823 C1.941,47.797 1.692,47.804 1.526,47.692 C1.306,47.547 1.142,47.31 0.972,47.096 C0.755,46.817 0.731,46.498 0.811,46.159 C0.908,45.759 1.1,45.39 1.277,45.036 C1.538,44.517 1.647,43.96 1.848,43.43 C2.047,42.9 1.979,42.289 2.348,41.81 C2.39,41.754 2.375,41.65 2.38,41.57 C2.385,41.502 2.351,41.417 2.382,41.368 C2.65,40.933 2.584,40.406 2.774,39.956 C2.903,39.649 2.981,39.341 2.992,39.012 C3.025,38.961 3.031,38.906 3.017,38.849 C3.231,38.578 3.254,38.24 3.294,37.922 C3.326,37.668 3.431,37.46 3.53,37.235 C3.722,36.801 3.993,36.407 4.123,35.938 C4.209,35.626 4.288,35.305 4.411,35.003 C4.606,34.529 4.93,34.106 4.918,33.553 C4.915,33.414 4.995,33.265 5.034,33.123 C5.128,32.784 5.297,32.464 5.334,32.109 C5.363,31.822 5.436,31.547 5.513,31.269 C5.608,30.927 5.812,30.626 5.866,30.271 C5.954,29.69 6.205,29.214 6.722,28.897 C6.889,28.798 7.006,28.658 7.064,28.458 C7.138,28.193 7.259,27.95 7.482,27.77 C7.554,27.711 7.645,27.622 7.647,27.544 C7.66,27.167 7.917,26.854 7.897,26.47 C7.89,26.291 7.987,26.126 8.155,26.089 C8.418,26.034 8.623,25.869 8.868,25.791 C8.975,25.85 9.091,25.869 9.208,25.881 C9.314,26.066 9.503,26.157 9.668,26.267 C9.934,26.444 10.083,26.685 10.146,26.986 C10.199,27.237 10.252,27.487 10.303,27.738 C10.249,27.827 10.224,27.915 10.325,27.99 C10.393,28.207 10.338,28.48 10.603,28.609 L10.622,28.628 C10.63,28.982 10.663,29.336 10.775,29.67 C10.879,29.98 10.976,30.288 11.005,30.614 C11.025,30.844 11.031,31.076 11.204,31.261 C11.253,31.313 11.252,31.387 11.237,31.454 C11.194,31.648 11.289,31.796 11.395,31.94 C11.348,32.087 11.375,32.22 11.468,32.34 C11.43,32.603 11.425,32.856 11.623,33.07 C11.657,33.106 11.683,33.167 11.684,33.218 C11.69,33.728 11.998,34.158 12.068,34.652 C12.057,34.711 12.069,34.764 12.104,34.812 C12.054,34.952 12.076,35.08 12.169,35.195 C12.362,35.44 12.435,35.726 12.47,36.029 C12.513,36.397 12.635,36.75 12.815,37.064 C12.991,37.37 13.094,37.675 13.092,38.021 C13.091,38.107 13.1,38.185 13.194,38.218 L13.224,38.191 L13.193,38.218 C13.253,38.789 13.635,39.271 13.655,39.854 C13.658,39.901 13.705,39.949 13.732,39.995 C13.907,40.29 14.022,40.597 14.054,40.951 C14.083,41.284 14.089,41.639 14.245,41.946 C14.313,42.082 14.388,42.206 14.405,42.357 C14.421,42.497 14.464,42.624 14.559,42.731 C14.644,42.826 14.7,42.94 14.715,43.063 C14.758,43.46 14.928,43.821 15.045,44.198 C15.024,44.322 15.103,44.419 15.144,44.527 C15.243,44.901 15.362,45.273 15.438,45.652 C15.569,46.288 15.794,46.897 15.974,47.518 C16.06,47.821 16.06,48.146 16.182,48.427 C16.352,48.819 16.426,49.229 16.524,49.639 C16.628,50.076 16.515,50.451 16.391,50.839 C16.357,50.944 16.278,51.052 16.157,51.112 C15.69,51.345 15.012,51.133 14.772,50.664 C14.598,50.324 14.438,49.977 14.272,49.631 C14.31,49.576 14.31,49.524 14.265,49.474 C14.294,49.403 14.274,49.348 14.216,49.305 C14.238,49.194 14.242,49.085 14.214,48.977 C14.272,48.921 14.272,48.866 14.213,48.81 C14.233,48.754 14.228,48.7 14.196,48.648 C14.116,48.284 14.081,47.9 13.94,47.562 C13.831,47.301 13.784,47.024 13.672,46.769 C13.511,46.405 13.489,46.005 13.386,45.626 C13.313,45.356 13.229,45.085 13.154,44.815 C13.021,44.332 12.935,43.826 12.686,43.382 C12.538,43.115 12.447,42.83 12.377,42.542 C12.12,41.498 11.867,40.452 11.546,39.424 C11.489,39.241 11.46,39.049 11.388,38.873 C11.284,38.618 11.173,38.575 10.901,38.624 C10.537,38.69 10.187,38.8 9.842,38.935 C9.326,39.135 8.816,39.374 8.28,39.489 C7.949,39.562 7.672,39.78 7.313,39.766 C7.146,39.757 6.972,39.852 6.818,39.947 C6.44,40.181 6.048,40.356 5.582,40.27 C5.467,40.248 5.315,40.236 5.258,40.38 C5.186,40.557 5.085,40.734 5.097,40.928 C5.116,41.278 4.992,41.614 5.015,41.964 C5.024,42.102 4.965,42.235 4.867,42.339 C4.69,42.527 4.634,42.768 4.576,43.008 C4.468,43.457 4.382,43.914 4.153,44.325 C4.092,44.435 4.06,44.554 4.06,44.68 L4.067,44.672 C4.034,44.694 3.986,44.707 3.971,44.737 C3.58,45.483 3.323,46.283 3.021,47.065 C2.93,47.304 2.859,47.542 2.701,47.747 L2.701,47.747 Z M8.811,30.154 C8.787,30.173 8.739,30.19 8.729,30.223 C8.507,30.948 7.971,31.546 7.864,32.319 C7.851,32.412 7.809,32.506 7.761,32.586 C7.622,32.817 7.574,33.072 7.549,33.332 C7.536,33.456 7.516,33.573 7.475,33.691 C7.231,34.385 6.9,35.042 6.667,35.74 C6.565,36.044 6.451,36.38 6.243,36.624 C6.028,36.876 6.051,37.107 6.105,37.382 C6.14,37.557 6.233,37.611 6.394,37.583 C6.933,37.482 7.48,37.432 8.003,37.256 C8.131,37.213 8.246,37.107 8.375,37.09 C8.956,37.006 9.513,36.802 10.103,36.75 C10.516,36.714 10.638,36.52 10.537,36.125 C10.524,36.073 10.522,36.015 10.501,35.966 C10.249,35.407 9.997,34.85 9.874,34.241 C9.839,34.067 9.708,33.925 9.69,33.742 C9.628,33.129 9.323,32.579 9.24,31.963 C9.163,31.398 8.936,30.857 8.913,30.275 C8.911,30.218 8.885,30.173 8.811,30.154 L8.811,30.154 Z" id="Fill-13" fill="#4D4D4C" sketch:type="MSShapeGroup"></path>
            <path d="M92.862,67.609 C92.627,66.811 92.654,64.841 92.248,63.712 C92.233,63.004 91.894,63.014 91.686,62.924 C91.593,62.876 91.483,62.845 91.383,62.829 C91.098,62.784 90.815,62.761 90.646,62.869 C90.492,62.968 90.325,63.249 90.179,63.03 C90.039,63.134 90.05,62.964 89.721,62.865 C89.551,62.813 89.499,62.821 89.605,62.885 C89.784,62.991 89.693,63.032 89.583,63 C89.538,62.984 89.526,63.001 89.488,63.008 C89.169,62.737 88.065,62.787 87.165,62.736 C87.038,62.729 86.869,62.724 86.738,62.716 C85.91,62.664 85.492,62.6 85.201,62.611 C84.882,62.625 84.457,62.61 84,62.588 C83.484,62.563 82.94,62.53 82.639,62.563 C82.314,62.598 81.762,62.573 81.179,62.53 C80.866,62.507 80.603,62.504 80.683,62.569 C80.76,62.632 80.6,62.631 80.224,62.601 C79.711,62.56 79.054,62.481 79.014,62.539 C78.975,62.596 78.755,62.61 78.174,62.534 C77.945,62.508 77.781,62.501 77.69,62.513 C77.159,62.547 76.27,62.493 75.93,62.565 C75.823,62.588 75.49,62.573 75.172,62.552 C74.397,62.498 73.623,62.408 73.06,62.408 C71.993,62.408 70.853,62.389 69.918,62.484 C69.891,62.492 69.875,62.501 69.831,62.495 C69.068,62.384 68.676,62.456 68.146,62.473 C67.458,62.494 66.82,62.567 66.181,62.634 C66.006,62.651 65.821,62.653 65.591,62.619 C65.146,62.554 64.771,62.405 64.388,62.525 C63.746,62.726 63.026,62.752 62.404,62.534 C62.235,62.477 62.068,62.461 61.869,62.51 C61.365,62.633 60.9,62.673 60.411,62.641 C59.891,62.607 59.38,62.517 58.876,62.547 C58.101,62.594 57.395,62.798 56.611,62.72 C55.72,62.631 54.834,62.856 53.946,62.633 C53.839,62.605 53.748,62.644 53.656,62.684 C53.051,62.9 52.403,62.789 51.795,62.789 C51.219,62.789 50.639,62.801 50.071,62.865 C49.49,62.932 48.866,62.679 48.314,63.014 C48.261,63.046 48.178,63.035 48.117,63.027 C47.538,63.01 46.956,62.985 46.392,62.873 C46.239,62.843 46.102,62.836 45.949,62.856 C45.507,62.93 45.057,62.898 44.621,62.794 C44.346,62.728 44.067,62.703 43.787,62.703 C43.262,62.703 42.73,62.695 42.193,62.673 C42.04,62.676 41.894,62.672 41.757,62.737 C41.527,62.848 41.271,62.863 41.025,62.88 C40.285,62.931 39.519,62.872 38.773,62.967 C38.644,62.983 38.503,62.974 38.372,62.951 C37.49,62.8 36.589,62.789 35.7,62.872 C35.547,62.887 35.397,62.879 35.26,62.813 C34.837,62.608 34.379,62.62 33.932,62.712 C33.437,62.814 32.935,62.836 32.434,62.797 C31.662,62.737 30.891,62.778 30.131,62.828 C29.799,62.85 29.465,62.868 29.127,62.828 C28.751,62.784 28.361,62.767 27.977,62.813 C27.451,62.875 26.921,62.817 26.4,62.912 C25.831,63.016 25.233,62.982 24.646,63.028 C24.469,63.036 24.306,63.143 24.137,63.212 C23.597,63.435 23.164,63.773 22.839,64.255 C22.755,64.379 22.631,64.474 22.529,64.581 C22.267,64.891 22.004,65.208 21.933,65.614 C21.897,65.822 21.804,65.978 21.695,66.148 C21.379,66.643 21.074,67.157 21.229,67.787 C21.262,67.918 21.201,68.05 21.17,68.182 C21.108,68.498 21.085,68.815 21.324,69.086 C21.433,69.21 21.415,69.363 21.446,69.51 C21.584,70.15 21.907,70.648 22.485,71.017 C22.862,71.256 23.264,71.436 23.658,71.636 C24.329,71.977 25.053,72.233 25.812,72.23 C26.366,72.227 26.948,72.193 27.496,72.046 C27.728,71.984 27.954,71.972 28.19,71.959 C28.892,71.921 29.625,72.109 30.332,71.943 C30.701,71.857 31.081,72.035 31.43,71.959 C31.992,71.835 32.564,71.863 33.113,71.812 C33.727,71.756 34.343,71.885 34.95,71.92 C35.25,71.938 35.54,71.979 35.84,71.912 C36.443,71.777 37.078,71.87 37.678,71.92 C38.077,71.953 38.471,71.978 38.867,71.989 C39.479,72.006 40.096,71.898 40.712,71.88 C41.913,71.846 43.127,71.885 44.313,71.727 C44.823,71.659 45.327,71.782 45.812,71.727 C46.747,71.62 47.687,71.737 48.617,71.65 C49.408,71.577 50.222,71.628 51.012,71.603 C51.326,71.594 51.676,71.658 51.965,71.572 C52.341,71.461 52.715,71.468 53.098,71.465 C53.458,71.462 53.855,71.54 54.18,71.47 C55.128,71.263 56.115,71.488 57.036,71.163 C57.081,71.148 57.138,71.158 57.184,71.173 C57.794,71.297 58.405,71.254 59.016,71.224 C59.208,71.215 59.402,71.134 59.61,71.148 C60.376,71.203 61.142,71.158 61.902,71.177 C62.302,71.187 62.699,71.115 63.093,71.14 C63.833,71.185 64.569,71.263 65.31,71.324 C65.781,71.363 66.261,71.465 66.708,71.402 C67.41,71.304 68.1,71.443 68.794,71.41 C69.719,71.366 70.657,71.502 71.584,71.572 C71.685,71.58 71.783,71.603 71.876,71.643 C72.309,71.843 72.774,71.798 73.207,71.72 C73.754,71.621 74.307,71.567 74.845,71.603 C75.328,71.636 75.805,71.527 76.266,71.465 C77.306,71.322 78.336,71.156 79.379,71.402 C79.426,71.41 79.479,71.401 79.525,71.395 C79.811,71.371 80.098,71.388 80.376,71.457 C81,71.612 81.637,71.493 82.263,71.517 C82.494,71.524 82.734,71.509 82.965,71.47 C83.664,71.352 84.363,71.19 85.079,71.248 C85.579,71.289 86.089,71.229 86.572,71.163 C87.278,71.066 87.963,71.272 88.666,71.272 C89.067,71.272 89.494,71.337 89.902,71.39 C90.394,71.453 90.871,71.402 91.333,71.094 C91.758,70.81 92.064,70.452 92.242,70.012 C92.472,69.441 92.657,68.842 92.838,68.261 C92.901,68.056 92.926,67.823 92.862,67.609" id="Fill-14" fill="#00A3DB" sketch:type="MSShapeGroup"></path>
            <path d="M68.305,93.418 C68.015,93.196 67.807,93.081 68.098,92.545 C68.205,92.359 68.228,92.182 68.094,92.195 C67.771,92.197 68.115,91.155 68.418,90.631 C68.706,90.132 68.843,89.727 68.511,89.595 C68.422,89.56 68.36,89.475 68.294,89.412 C67.769,88.87 66.865,88.649 65.848,88.9 C65.755,88.923 65.645,88.91 65.536,88.904 C64.658,88.885 63.743,88.979 62.865,88.886 C62.628,88.861 62.372,88.9 62.123,88.905 C61.476,88.919 60.824,88.965 60.199,88.926 C59.116,88.858 58.102,88.586 57.121,88.694 C56.685,88.506 56.22,88.569 55.775,88.491 C55.669,88.473 55.528,88.435 55.435,88.477 C55.118,88.599 54.824,88.522 54.527,88.448 C54.282,88.388 54.024,88.331 53.746,88.403 C53.53,88.459 53.275,88.406 53.053,88.351 C52.641,88.248 52.202,88.311 51.82,88.497 C51.598,88.606 51.411,88.613 51.201,88.566 C50.674,88.448 50.126,88.34 49.569,88.422 C49.493,88.434 49.403,88.406 49.319,88.406 C48.791,88.408 48.256,88.413 47.728,88.387 C47.132,88.357 46.519,88.565 45.931,88.39 C45.777,88.344 45.596,88.392 45.434,88.439 C45.332,88.469 45.219,88.521 45.142,88.492 C44.653,88.314 44.185,88.475 43.72,88.532 C43.575,88.55 43.422,88.564 43.275,88.552 C42.777,88.512 42.264,88.465 41.791,88.591 C41.677,88.621 41.527,88.578 41.397,88.584 C40.566,88.584 39.728,88.338 38.912,88.488 C38.576,88.55 38.231,88.56 37.877,88.508 C37.616,88.47 37.391,88.648 37.102,88.551 C36.778,88.443 36.43,88.431 36.122,88.556 C36,88.606 35.852,88.628 35.728,88.572 C35.405,88.426 35.074,88.445 34.743,88.478 C33.951,88.559 33.155,88.555 32.352,88.57 C31.942,88.578 31.518,88.563 31.139,88.794 C31.062,88.849 30.946,88.88 30.853,88.871 C30.267,88.816 29.677,88.958 29.1,88.941 C28.344,88.92 27.653,89.196 26.942,89.351 C26.409,89.467 25.894,89.613 25.453,89.598 C24.72,89.505 24.185,89.832 23.623,90.008 C23.352,90.093 23.089,90.293 22.881,90.507 C22.505,90.894 22.06,91.279 22.185,91.925 C22.23,92.155 22.067,92.295 21.921,92.434 C21.773,92.572 21.618,92.714 21.621,92.935 C21.625,93.248 21.499,93.523 21.36,93.785 C21.113,94.253 21.119,94.748 21.135,95.251 C21.143,95.366 21.165,95.5 21.251,95.577 C21.451,95.747 21.588,95.94 21.681,96.18 C21.728,96.288 21.838,96.352 21.945,96.412 C22.355,96.646 22.869,96.698 23.276,96.96 C23.338,96.999 23.444,96.999 23.521,96.982 C23.877,96.883 24.227,96.978 24.564,97.021 C24.947,97.069 25.331,97.067 25.716,97.06 C26.271,97.051 26.844,96.875 27.382,97.176 C27.467,97.223 27.617,97.175 27.732,97.168 C28.374,97.132 29.029,97.104 29.671,97.084 C30.038,97.072 30.408,97.062 30.761,96.93 C30.947,96.86 31.124,96.852 31.34,96.906 C31.648,96.999 31.976,97.032 32.322,96.993 C32.792,96.94 33.292,96.869 33.763,96.982 C34.478,97.155 35.216,97.252 35.943,97.3 C36.343,97.326 36.751,97.274 37.141,97.353 C37.607,97.448 38.103,97.446 38.577,97.539 C38.828,97.588 39.097,97.64 39.365,97.653 C40.101,97.69 40.85,97.417 41.599,97.648 C41.699,97.68 41.828,97.623 41.936,97.593 C42.267,97.5 42.608,97.5 42.933,97.563 C43.525,97.677 44.114,97.308 44.702,97.578 C44.725,97.586 44.767,97.563 44.798,97.547 C45.4,97.361 45.998,97.128 46.627,97.44 C46.673,97.462 46.728,97.459 46.781,97.46 C47.47,97.468 48.164,97.615 48.874,97.602 C49.715,97.585 50.568,97.707 51.41,97.507 C51.456,97.491 51.511,97.493 51.557,97.493 C52.623,97.446 53.611,97.045 54.646,96.875 C54.678,96.875 54.708,96.859 54.738,96.844 C55.079,96.636 55.461,96.647 55.814,96.728 C56.64,96.919 57.491,96.914 58.34,96.93 C58.741,96.938 59.151,96.93 59.545,96.997 C60.229,97.115 60.929,97.214 61.623,97.246 C62.733,97.298 63.868,97.308 64.966,97.323 C65.119,97.325 65.277,97.341 65.416,97.286 C65.926,97.055 66.496,97.051 66.967,96.658 C67.337,96.35 67.71,96.048 68.051,95.709 C68.12,95.639 68.189,95.545 68.213,95.461 C68.366,94.934 68.394,94.35 68.444,93.784 C68.458,93.625 68.394,93.486 68.305,93.418" id="Fill-15" fill="#4D4D4C" sketch:type="MSShapeGroup"></path>
            <path d="M74.136,38.436 C74.033,37.998 73.887,37.542 73.97,37.106 C74.031,36.807 74.1,36.67 73.726,36.598 C73.479,36.554 73.435,36.358 73.569,36.141 C73.754,35.865 73.801,35.55 73.817,35.233 C73.825,35.064 73.834,34.901 73.894,34.742 C74.123,34.227 73.961,33.888 73.394,33.767 C72.507,33.574 71.605,33.669 70.703,33.631 C70.44,33.618 70.166,33.666 69.907,33.615 C69.454,33.529 69.004,33.561 68.562,33.578 C67.478,33.601 66.394,33.462 65.311,33.608 C64.876,33.671 64.408,33.586 63.957,33.634 C63.506,33.681 63.037,33.479 62.604,33.76 C62.565,33.78 62.504,33.777 62.458,33.759 C62.041,33.615 61.632,33.726 61.227,33.806 C60.749,33.906 60.252,33.943 59.779,33.957 C58.796,33.994 57.84,34.224 56.852,34.206 C56.526,34.205 56.24,34.199 55.929,34.09 C55.671,33.992 55.425,33.817 55.118,33.903 C54.75,33.992 54.39,33.942 54.032,33.817 C53.842,33.753 53.649,33.728 53.44,33.726 C52.762,33.692 52.077,33.758 51.395,33.631 C51.25,33.6 51.096,33.601 50.953,33.663 C50.644,33.786 50.33,33.771 50.012,33.771 C49.896,33.772 49.766,33.742 49.677,33.823 C49.426,34.043 49.102,34.02 48.815,34.036 C48.351,34.051 47.883,34.111 47.424,34.167 C46.941,34.228 46.455,34.219 45.971,34.288 C45.676,34.319 45.353,34.141 45.076,34.42 C45.018,34.486 44.93,34.39 44.854,34.371 C44.19,34.175 43.508,34.056 42.826,34.075 C42.354,34.091 41.898,34.068 41.428,34.045 C41.135,34.03 40.829,33.945 40.537,34.054 C39.906,34.301 39.261,34.229 38.619,34.206 C38.202,34.192 37.785,34.186 37.368,34.182 C36.805,34.168 36.229,34.21 35.677,34.128 C35.231,34.059 34.791,34.06 34.352,34.023 C33.319,33.94 32.283,33.927 31.246,33.944 C30.341,33.954 29.475,33.632 28.569,33.648 C28.423,33.648 28.253,33.617 28.134,33.541 C27.75,33.313 27.359,33.394 26.969,33.467 C26.556,33.539 26.146,33.534 25.734,33.421 C25.383,33.326 25.035,33.316 24.758,33.619 C24.716,33.663 24.646,33.691 24.582,33.719 C23.927,33.988 23.407,34.481 22.837,34.885 C22.692,34.993 22.546,35.148 22.528,35.325 C22.488,35.688 22.252,35.931 22.082,36.217 C21.82,36.659 21.565,37.11 21.433,37.6 C21.289,38.148 21.139,38.697 20.994,39.248 C20.898,39.621 20.991,39.944 21.225,40.227 C21.355,40.38 21.479,40.54 21.556,40.722 C21.693,41.054 21.897,41.319 22.171,41.558 C22.437,41.787 22.673,42.039 23.049,42.104 C23.164,42.118 23.235,42.222 23.341,42.281 C23.913,42.612 24.466,42.98 25.16,43.023 C25.591,43.06 26.022,43.112 26.464,43.103 C26.695,43.1 26.917,43.164 27.137,43.26 C27.317,43.347 27.507,43.426 27.716,43.421 C28.414,43.386 29.12,43.506 29.794,43.626 C30.5,43.754 31.206,43.711 31.906,43.793 C32.559,43.872 33.212,43.649 33.883,43.699 C33.944,43.702 34.015,43.682 34.078,43.67 C34.653,43.583 35.241,43.597 35.822,43.58 C36.859,43.554 37.887,43.737 38.92,43.656 C39.649,43.602 40.393,43.607 41.112,43.45 C42.198,43.226 43.3,43.157 44.391,43.157 C45.187,43.159 45.987,43.091 46.788,43.17 C47.38,43.237 47.989,43.275 48.584,43.282 C49.172,43.289 49.749,43.325 50.335,43.394 C50.826,43.457 51.334,43.505 51.818,43.422 C52.254,43.35 52.68,43.534 53.103,43.4 C53.143,43.388 53.203,43.414 53.24,43.439 C53.66,43.715 54.098,43.613 54.55,43.551 C54.885,43.498 55.194,43.335 55.52,43.327 C56.287,43.306 57.053,43.166 57.829,43.234 C58.177,43.26 58.526,43.231 58.871,43.141 C59.514,42.971 60.139,42.701 60.813,42.975 C61.744,42.906 62.659,43.19 63.594,43.051 C64.365,42.943 65.122,43.121 65.874,43.258 C66.256,43.332 66.592,43.272 66.945,43.157 C67.574,42.957 68.22,42.904 68.857,43.13 C69.215,43.257 69.57,43.251 69.945,43.192 C70.451,43.117 70.973,43.073 71.33,43.03 C71.996,43.147 72.427,42.914 72.767,42.614 C73.275,42.175 73.734,41.665 73.788,40.917 C73.807,40.547 73.862,40.185 73.903,39.816 C73.951,39.479 73.917,39.106 74.156,38.816 C74.262,38.69 74.159,38.569 74.136,38.436" id="Fill-16" fill="#4D4D4C" sketch:type="MSShapeGroup"></path>
            <path d="M0.536,96.171 C0.567,95.885 0.498,95.568 0.598,95.263 C0.604,95.24 0.612,95.214 0.606,95.193 C0.485,94.791 0.664,94.433 0.774,94.064 C0.791,94.011 0.78,93.951 0.784,93.894 C0.799,93.625 0.844,93.367 1.005,93.139 C1.156,92.926 1.122,92.647 1.237,92.419 C1.263,92.369 1.264,92.308 1.283,92.252 C1.373,91.965 1.507,91.709 1.706,91.473 C2.011,91.111 2.228,90.688 2.461,90.277 C2.554,90.113 2.644,89.957 2.804,89.851 C2.95,89.752 3.059,89.625 3.164,89.481 C3.474,89.052 3.873,88.697 4.229,88.308 C4.512,88 4.915,87.802 5.269,87.564 C5.575,87.357 5.932,87.238 6.207,86.979 C6.277,86.913 6.398,86.903 6.494,86.862 C7.228,86.555 7.975,86.298 8.756,86.112 C9.522,85.93 10.288,85.905 11.06,85.891 C11.506,85.882 11.956,85.932 12.401,85.981 C12.615,86.005 12.835,86.061 13.028,86.154 C13.306,86.287 13.41,86.58 13.512,86.845 C13.556,86.96 13.58,87.089 13.621,87.209 C13.654,87.312 13.663,87.409 13.631,87.516 C13.56,87.747 13.501,87.984 13.43,88.216 C13.34,88.513 13.024,88.776 12.716,88.773 C12.404,88.771 12.1,88.751 11.785,88.815 C11.466,88.88 11.319,88.68 11.395,88.363 C11.402,88.341 11.407,88.319 11.413,88.296 C11.529,87.813 11.527,87.778 11.013,87.804 C10.487,87.831 9.949,87.805 9.44,88.001 C9.271,88.065 9.08,88.103 8.899,88.103 C8.621,88.102 8.372,88.17 8.15,88.329 C7.903,88.505 7.591,88.537 7.346,88.713 C6.697,89.175 5.985,89.544 5.37,90.054 C4.952,90.399 4.549,90.762 4.128,91.104 C3.995,91.213 3.92,91.352 3.843,91.493 C3.63,91.878 3.322,92.193 3.071,92.55 C2.872,92.832 2.657,93.106 2.647,93.479 C2.642,93.655 2.513,93.795 2.458,93.96 C2.322,94.365 2.349,94.786 2.294,95.198 C2.268,95.397 2.239,95.588 2.166,95.772 C2.13,95.858 2.077,95.942 2.105,96.037 C2.216,96.387 2.22,96.767 2.409,97.098 C2.505,97.266 2.573,97.453 2.636,97.638 C2.748,97.971 2.972,98.206 3.254,98.398 C3.399,98.498 3.54,98.604 3.644,98.744 C3.897,99.089 4.272,99.237 4.65,99.379 C4.811,99.44 4.987,99.467 5.11,99.609 C5.145,99.648 5.211,99.685 5.263,99.685 C5.85,99.683 6.341,99.992 6.869,100.174 C7.408,100.361 7.951,100.51 8.517,100.585 C8.924,100.64 9.326,100.735 9.733,100.801 C9.984,100.843 10.239,100.862 10.492,100.888 C10.915,100.933 11.329,101.03 11.739,101.129 C12.226,101.245 12.71,101.17 13.191,101.156 C13.616,101.145 14.041,101.072 14.467,101.035 C14.606,101.023 14.738,100.985 14.872,100.947 C15.202,100.852 15.451,100.94 15.669,101.218 C15.879,101.485 15.923,101.878 15.772,102.13 C15.718,102.223 15.646,102.313 15.55,102.343 C15.131,102.477 14.777,102.757 14.343,102.862 C13.978,102.951 13.622,103.028 13.247,102.954 C13.143,102.932 13.04,102.951 12.935,102.956 C12.393,102.985 11.852,102.928 11.313,102.906 C10.684,102.88 10.104,102.574 9.466,102.644 C9.312,102.661 9.145,102.605 8.99,102.564 C8.598,102.458 8.2,102.413 7.795,102.411 C7.603,102.408 7.442,102.306 7.267,102.254 C6.836,102.128 6.394,102.031 5.976,101.891 C5.549,101.748 5.108,101.588 4.721,101.344 C4.451,101.174 4.149,101.096 3.87,100.958 C3.613,100.832 3.333,100.749 3.138,100.518 C3.093,100.466 3.038,100.427 2.963,100.414 C2.697,100.368 2.508,100.194 2.315,100.028 C2.117,99.857 1.945,99.663 1.729,99.503 C1.5,99.336 1.352,99.04 1.213,98.776 C1.068,98.501 0.978,98.197 0.866,97.905 C0.853,97.874 0.858,97.832 0.84,97.805 C0.55,97.389 0.537,96.918 0.56,96.439 C0.562,96.358 0.546,96.276 0.536,96.171" id="Fill-17" fill="#4D4D4C" sketch:type="MSShapeGroup"></path>
        </g>
    </g>
</svg>