<?xml version="1.0" encoding="UTF-8" standalone="no"?>
<svg width="399px" height="259px" viewBox="0 0 399 259" version="1.1" xmlns="http://www.w3.org/2000/svg" xmlns:xlink="http://www.w3.org/1999/xlink" xmlns:sketch="http://www.bohemiancoding.com/sketch/ns">
    <!-- Generator: Sketch 3.3.3 (12081) - http://www.bohemiancoding.com/sketch -->
    <title>poll_book</title>
    <desc>Created with Sketch.</desc>
    <defs></defs>
    <g id="Page-1" stroke="none" stroke-width="1" fill="none" fill-rule="evenodd" sketch:type="MSPage">
        <g id="poll_book" sketch:type="MSLayerGroup" transform="translate(76.000000, 4.000000)">
            <path d="M19.0423784,14.0811702 L18.4042811,18.0957447 L15.6588541,18.0957447 L18.6294919,0.624638298 L22.2556541,0.624638298 L25.1833946,18.0957447 L22.4124973,18.0957447 L21.7958486,14.0811702 L19.0423784,14.0811702 L19.0423784,14.0811702 Z M20.4258162,4.62580851 L19.4499027,11.5142553 L21.4030703,11.5142553 L20.4258162,4.62580851 L20.4258162,4.62580851 Z" id="Fill-1" fill="#52A4A0" sketch:type="MSShapeGroup"></path>
            <path d="M16.0194595,45.6361277 L16.0194595,28.1489362 L19.9686919,28.1489362 C21.0076108,28.1489362 21.9473297,28.4250638 22.783827,28.9732979 C23.4983351,29.4384255 24.0104216,30.158234 24.3187459,31.1340638 C24.484973,31.6568298 24.569427,32.2734255 24.569427,32.9892128 C24.569427,34.1580638 24.2570811,35.100383 23.6337297,35.8054468 C23.3736649,36.1030213 23.0680216,36.3308936 22.7127784,36.4890638 C23.2999351,36.7129149 23.7972757,37.1525745 24.2074811,37.8134043 C24.4755892,38.259766 24.6739892,38.8374894 24.8067027,39.5425532 C24.8710486,39.9044681 24.9045622,40.3092766 24.9045622,40.7542979 C24.9045622,41.8628298 24.6927568,42.8011277 24.2745081,43.5732128 C23.9500973,44.1750638 23.4889514,44.6589574 22.8937514,45.0222128 C22.2248216,45.432383 21.5612541,45.6361277 20.9017081,45.6361277 L16.0194595,45.6361277 L16.0194595,45.6361277 Z M18.865427,35.2907234 L19.9686919,35.2907234 C20.7837405,35.2907234 21.3333622,34.8885957 21.6108541,34.092383 C21.7140757,33.7934681 21.7636757,33.4248511 21.7636757,32.9892128 C21.7636757,32.2640426 21.5880649,31.7158085 21.2355027,31.3445106 C20.9110919,30.9986809 20.4861405,30.8284468 19.9686919,30.8284468 L18.865427,30.8284468 L18.865427,35.2907234 L18.865427,35.2907234 Z M18.865427,43.029 L19.9686919,43.029 C20.8588108,43.029 21.4768,42.5678936 21.8213189,41.6483617 C21.9419676,41.3320213 22.0022919,40.968766 22.0022919,40.5599362 C22.0022919,39.5854468 21.8159568,38.871 21.444627,38.4259787 C21.1094919,38.0171489 20.616173,37.8134043 19.9686919,37.8134043 L18.865427,37.8134043 L18.865427,43.029 L18.865427,43.029 Z" id="Fill-2" fill="#545594" sketch:type="MSShapeGroup"></path>
            <path d="M20.4070486,73.3695319 C19.2434595,73.3695319 18.2554811,72.963383 17.4431135,72.1497447 C16.6280649,71.3387872 16.2232216,70.3535745 16.2232216,69.2008085 L16.2232216,59.6636809 C16.2232216,58.5015319 16.6320865,57.5149787 17.4511568,56.7 C18.2688865,55.8877021 19.2541838,55.4802128 20.4070486,55.4802128 C21.5692973,55.4802128 22.5545946,55.890383 23.3629405,56.7080426 C24.172627,57.5243617 24.5747892,58.5109149 24.5747892,59.6636809 L24.5747892,61.658234 L21.8427676,61.658234 L21.8427676,59.6087234 C21.8427676,59.1905106 21.6953081,58.832617 21.3963676,58.5337021 C21.0987676,58.2361277 20.7408432,58.0886809 20.3225946,58.0886809 C19.9056865,58.0886809 19.5491027,58.2361277 19.2555243,58.5337021 C18.9632865,58.832617 18.815827,59.1905106 18.815827,59.6087234 L18.815827,69.174 C18.815827,69.5935532 18.9632865,69.9474255 19.2555243,70.2382979 C19.5491027,70.5331915 19.9056865,70.6792979 20.3225946,70.6792979 C20.7408432,70.6792979 21.0987676,70.5331915 21.3963676,70.2382979 C21.6953081,69.9474255 21.8427676,69.5935532 21.8427676,69.174 L21.8427676,66.761234 L24.5747892,66.761234 L24.5747892,69.2008085 C24.5747892,70.3629574 24.1672649,71.3495106 23.3495351,72.1577872 C22.5304649,72.9674043 21.5505297,73.3695319 20.4070486,73.3695319" id="Fill-3" fill="#5C8BBC" sketch:type="MSShapeGroup"></path>
            <path d="M74.3597838,9.36019149 C74.3597838,12.5959787 71.7363459,15.2191915 68.5002811,15.2191915 L36.1811892,15.2191915 C32.9451243,15.2191915 30.3216865,12.5959787 30.3216865,9.36019149 C30.3216865,6.12574468 32.9451243,3.50253191 36.1811892,3.50253191 L68.5002811,3.50253191 C71.7363459,3.50253191 74.3597838,6.12574468 74.3597838,9.36019149" id="Fill-4" fill="#BFD9D4" sketch:type="MSShapeGroup"></path>
            <path d="M102.588886,36.8925319 C102.588886,40.1283191 99.9654486,42.7528723 96.7307243,42.7528723 L36.1811892,42.7528723 C32.9451243,42.7528723 30.3216865,40.1283191 30.3216865,36.8925319 C30.3216865,33.6567447 32.9451243,31.0348723 36.1811892,31.0348723 L96.7307243,31.0348723 C99.9654486,31.0348723 102.588886,33.6567447 102.588886,36.8925319" id="Fill-5" fill="#A7A4C6" sketch:type="MSShapeGroup"></path>
            <path d="M90.3953297,64.4262128 C90.3953297,67.6606596 87.7718919,70.2838723 84.535827,70.2838723 L36.1811892,70.2838723 C32.9451243,70.2838723 30.3216865,67.6606596 30.3216865,64.4262128 C30.3216865,61.1890851 32.9451243,58.5658723 36.1811892,58.5658723 L84.535827,58.5658723 C87.7718919,58.5658723 90.3953297,61.1890851 90.3953297,64.4262128" id="Fill-6" fill="#AABED8" sketch:type="MSShapeGroup"></path>
            <path d="M244.942227,120.363511 C204.297038,121.864787 163.65453,123.366064 123.010681,124.86734 L123.010681,250.281574 C163.65453,248.780298 204.297038,247.277681 244.942227,245.775064 L244.942227,120.363511 L244.942227,120.363511 Z" id="Fill-7" fill="#979BA1" sketch:type="MSShapeGroup"></path>
            <path d="M244.942227,120.363511 C204.297038,121.864787 163.65453,123.366064 123.010681,124.86734 L123.010681,250.281574 C163.65453,248.780298 204.297038,247.277681 244.942227,245.775064 L244.942227,120.363511 L244.942227,120.363511 Z" id="Stroke-8" stroke="#000000" sketch:type="MSShapeGroup"></path>
            <path d="M147.450076,62.0348936 C139.618638,38.5492979 120.420757,32.2010426 110.079827,32.2010426 L110.079827,41.5840213 C117.682032,41.5840213 131.682638,46.3331489 138.082378,63.6809362 L124.955805,65.9878085 L146.076022,80.7901277 L160.884973,59.6757447 L147.450076,62.0348936" id="Fill-9" fill="#545594" sketch:type="MSShapeGroup"></path>
            <path d="M240.657859,119.641021 C217.457124,120.325979 194.626378,114.505851 171.473903,117.080809 C155.270789,118.88234 139.213795,121.81117 123.010681,123.664979 C123.022746,165.467489 123.014703,207.27134 123.014703,249.075191 C141.333189,245.705362 158.425081,241.19617 176.770378,238.341064 C198.964368,234.889468 219.076497,241.251128 241.034551,242.507106 C239.613578,200.356085 239.033124,161.822872 240.657859,119.641021 L240.657859,119.641021 Z" id="Fill-10" fill="#FFFFFF" sketch:type="MSShapeGroup"></path>
            <path d="M240.657859,119.641021 C217.457124,120.325979 194.626378,114.505851 171.473903,117.080809 C155.270789,118.88234 139.213795,121.81117 123.010681,123.664979 C123.022746,165.467489 123.014703,207.27134 123.014703,249.075191 C141.333189,245.705362 158.425081,241.19617 176.770378,238.341064 C198.964368,234.889468 219.076497,241.251128 241.034551,242.507106 C239.613578,200.356085 239.033124,161.822872 240.657859,119.641021 L240.657859,119.641021 Z" id="Stroke-11" stroke="#000000" sketch:type="MSShapeGroup"></path>
            <path d="M238.012973,107.047723 C216.922249,109.071766 195.260454,106.319872 174.428454,110.487255 C157.114032,113.950915 140.254054,119.788468 123.010681,123.664979 C123.022746,165.467489 123.014703,207.27134 123.014703,249.075191 C146.987589,242.050021 165.051373,233.814447 180.511827,231.122872 C199.530076,227.814702 218.699805,233.778255 237.744865,234.262149 C235.813146,191.666106 236.809168,149.650468 238.012973,107.047723 L238.012973,107.047723 Z" id="Fill-12" fill="#FFFFFF" sketch:type="MSShapeGroup"></path>
            <path d="M238.012973,107.047723 C216.922249,109.071766 195.260454,106.319872 174.428454,110.487255 C157.114032,113.950915 140.254054,119.788468 123.010681,123.664979 C123.022746,165.467489 123.014703,207.27134 123.014703,249.075191 C146.987589,242.050021 165.051373,233.814447 180.511827,231.122872 C199.530076,227.814702 218.699805,233.778255 237.744865,234.262149 C235.813146,191.666106 236.809168,149.650468 238.012973,107.047723 L238.012973,107.047723 Z" id="Stroke-13" stroke="#000000" sketch:type="MSShapeGroup"></path>
            <path d="M234.333189,94.7667447 C213.671438,98.0588298 191.968086,97.7357872 172.019503,104.512979 C155.415568,110.15483 139.632043,117.976213 123.010681,123.664979 C123.022746,165.467489 123.014703,207.27134 123.014703,249.075191 C141.898897,241.469617 159.112778,231.062553 178.671265,225.292021 C196.592951,220.005383 215.3632,223.596383 233.645492,223.08434 C231.605189,180.226915 233.645492,137.629532 234.333189,94.7667447 L234.333189,94.7667447 Z" id="Fill-14" fill="#FFFFFF" sketch:type="MSShapeGroup"></path>
            <path d="M234.333189,94.7667447 C213.671438,98.0588298 191.968086,97.7357872 172.019503,104.512979 C155.415568,110.15483 139.632043,117.976213 123.010681,123.664979 C123.022746,165.467489 123.014703,207.27134 123.014703,249.075191 C141.898897,241.469617 159.112778,231.062553 178.671265,225.292021 C196.592951,220.005383 215.3632,223.596383 233.645492,223.08434 C231.605189,180.226915 233.645492,137.629532 234.333189,94.7667447 L234.333189,94.7667447 Z" id="Stroke-15" stroke="#000000" sketch:type="MSShapeGroup"></path>
            <path d="M0.5456,120.363511 C41.1894486,121.864787 81.8332973,123.366064 122.475805,124.86734 L122.475805,250.281574 C81.8332973,248.780298 41.1894486,247.277681 0.5456,245.775064 L0.5456,120.363511 L0.5456,120.363511 Z" id="Fill-16" fill="#979BA1" sketch:type="MSShapeGroup"></path>
            <path d="M0.5456,120.363511 C41.1894486,121.864787 81.8332973,123.366064 122.475805,124.86734 L122.475805,250.281574 C81.8332973,248.780298 41.1894486,247.277681 0.5456,245.775064 L0.5456,120.363511 L0.5456,120.363511 Z" id="Stroke-17" stroke="#000000" sketch:type="MSShapeGroup"></path>
            <path d="M4.82862703,119.641021 C28.0307027,120.325979 50.8587676,114.505851 74.0139243,117.080809 C90.2156973,118.88234 106.274032,121.81117 122.475805,123.664979 C122.465081,165.467489 122.473124,207.27134 122.473124,249.075191 C104.153297,245.705362 87.0614054,241.19617 68.7174486,238.341064 C46.5221189,234.889468 26.4099892,241.251128 4.45193514,242.507106 C5.87290811,200.356085 6.45336216,161.822872 4.82862703,119.641021 L4.82862703,119.641021 Z" id="Fill-18" fill="#6D6AA2" sketch:type="MSShapeGroup"></path>
            <path d="M4.82862703,119.641021 C28.0307027,120.325979 50.8587676,114.505851 74.0139243,117.080809 C90.2156973,118.88234 106.274032,121.81117 122.475805,123.664979 C122.465081,165.467489 122.473124,207.27134 122.473124,249.075191 C104.153297,245.705362 87.0614054,241.19617 68.7174486,238.341064 C46.5221189,234.889468 26.4099892,241.251128 4.45193514,242.507106 C5.87290811,200.356085 6.45336216,161.822872 4.82862703,119.641021 L4.82862703,119.641021 Z" id="Stroke-19" stroke="#3E3E3E" sketch:type="MSShapeGroup"></path>
            <path d="M7.47485405,107.047723 C28.5655784,109.071766 50.2260324,106.319872 71.059373,110.487255 C88.3724541,113.950915 105.233773,119.788468 122.475805,123.664979 C122.465081,165.467489 122.473124,207.27134 122.473124,249.075191 C98.4988973,242.050021 80.4351135,233.814447 64.976,231.122872 C45.9577514,227.814702 26.7866811,233.778255 7.74162162,234.262149 C9.67468108,191.666106 8.67865946,149.650468 7.47485405,107.047723 L7.47485405,107.047723 Z" id="Fill-20" fill="#6C95C2" sketch:type="MSShapeGroup"></path>
            <path d="M7.47485405,107.047723 C28.5655784,109.071766 50.2260324,106.319872 71.059373,110.487255 C88.3724541,113.950915 105.233773,119.788468 122.475805,123.664979 C122.465081,165.467489 122.473124,207.27134 122.473124,249.075191 C98.4988973,242.050021 80.4351135,233.814447 64.976,231.122872 C45.9577514,227.814702 26.7866811,233.778255 7.74162162,234.262149 C9.67468108,191.666106 8.67865946,149.650468 7.47485405,107.047723 L7.47485405,107.047723 Z" id="Stroke-21" stroke="#3E3E3E" sketch:type="MSShapeGroup"></path>
            <path d="M11.1546378,94.7667447 C31.8150486,98.0588298 53.5184,97.7357872 73.4669838,104.512979 C90.0695784,110.15483 105.854443,117.976213 122.475805,123.664979 C122.465081,165.467489 122.473124,207.27134 122.473124,249.075191 C103.58893,241.469617 86.3737081,231.062553 66.8152216,225.292021 C48.8948757,220.005383 30.1232865,223.596383 11.8423351,223.08434 C13.8799568,180.226915 11.8423351,137.629532 11.1546378,94.7667447 L11.1546378,94.7667447 Z" id="Fill-22" fill="#73B1AE" sketch:type="MSShapeGroup"></path>
            <path d="M11.1546378,94.7667447 C31.8150486,98.0588298 53.5184,97.7357872 73.4669838,104.512979 C90.0695784,110.15483 105.854443,117.976213 122.475805,123.664979 C122.465081,165.467489 122.473124,207.27134 122.473124,249.075191 C103.58893,241.469617 86.3737081,231.062553 66.8152216,225.292021 C48.8948757,220.005383 30.1232865,223.596383 11.8423351,223.08434 C13.8799568,180.226915 11.8423351,137.629532 11.1546378,94.7667447 L11.1546378,94.7667447 Z" id="Stroke-23" stroke="#3E3E3E" sketch:type="MSShapeGroup"></path>
            <path d="M180.472951,175.51666 L123.014703,249.075191 L123.010681,123.664979 L179.960865,49.2190851 L180.472951,175.51666 L180.472951,175.51666 Z" id="Fill-24" fill="#A7A4C6" sketch:type="MSShapeGroup"></path>
            <path d="M180.472951,175.51666 L123.014703,249.075191 L123.010681,123.664979 L179.960865,49.2190851 L180.472951,175.51666 L180.472951,175.51666 Z" id="Stroke-25" stroke="#545594" sketch:type="MSShapeGroup"></path>
            <path d="M126.887524,159.219766 L127.234724,140.377404 L129.6544,137.192553 C130.292497,136.352106 130.864908,135.888319 131.367611,135.803872 C131.796584,135.727468 132.095524,136.088043 132.265773,136.894979 C132.35693,137.321234 132.397146,137.919064 132.383741,138.691149 C132.360951,139.952489 132.149146,141.217851 131.755027,142.479191 C131.587459,143.01134 131.395762,143.504617 131.175914,143.959021 C131.529816,143.727128 131.828757,143.79817 132.066032,144.180191 C132.222876,144.444255 132.3328,144.904021 132.399827,145.559489 C132.432,145.898617 132.444065,146.306106 132.436022,146.787319 C132.414573,147.978957 132.267114,149.159872 131.993643,150.334085 C131.783178,151.245574 131.492281,152.139638 131.119611,153.008234 C130.700022,153.988085 130.289816,154.745426 129.884973,155.280255 L126.887524,159.219766 L126.887524,159.219766 Z M128.838011,145.772617 L129.513643,144.885255 C130.015005,144.225766 130.362205,143.350468 130.5472,142.266064 C130.616908,141.859915 130.654443,141.424277 130.663827,140.953787 C130.675892,140.17366 130.580714,139.724617 130.371589,139.608 C130.17587,139.500766 129.921168,139.654915 129.603459,140.075809 L128.926486,140.965851 L128.838011,145.772617 L128.838011,145.772617 Z M128.68653,154.114085 L129.362162,153.224043 C129.910443,152.504234 130.296519,151.508298 130.527092,150.241596 C130.608865,149.800596 130.653103,149.364957 130.661146,148.922617 C130.679914,147.867702 130.576692,147.253787 130.358184,147.07283 C130.163805,146.899915 129.862184,147.079532 129.465384,147.602298 L128.78707,148.49234 L128.68653,154.114085 L128.68653,154.114085 Z" id="Fill-26" fill="#545594" sketch:type="MSShapeGroup"></path>
            <path d="M175.813232,103.724809 L128.065859,165.173936 L128.14093,162.44617 L175.888303,100.995702 L175.813232,103.724809" id="Fill-27" fill="#56616C" sketch:type="MSShapeGroup"></path>
            <path d="M175.850768,111.166851 L128.103395,172.613298 L128.179805,169.882851 L175.925838,108.440426 L175.850768,111.166851" id="Fill-28" fill="#56616C" sketch:type="MSShapeGroup"></path>
            <path d="M175.888303,118.603532 L128.143611,180.049979 L128.216,177.323553 L175.964714,115.878447 L175.888303,118.603532" id="Fill-29" fill="#56616C" sketch:type="MSShapeGroup"></path>
            <path d="M175.925838,126.042894 L128.179805,187.490681 L128.256216,184.762915 L176.003589,123.317809 L175.925838,126.042894" id="Fill-30" fill="#56616C" sketch:type="MSShapeGroup"></path>
            <path d="M175.964714,133.487617 L128.216,194.930043 L128.293751,192.203617 L176.039784,130.761191 L175.964714,133.487617" id="Fill-31" fill="#56616C" sketch:type="MSShapeGroup"></path>
            <path d="M176.003589,140.926979 L128.256216,202.370745 L128.329946,199.647 L176.077319,138.200553 L176.003589,140.926979" id="Fill-32" fill="#56616C" sketch:type="MSShapeGroup"></path>
            <path d="M176.041124,148.365 L128.293751,209.815468 L128.370162,207.086362 L176.114854,145.641255 L176.041124,148.365" id="Fill-33" fill="#56616C" sketch:type="MSShapeGroup"></path>
            <path d="M176.077319,155.811064 L128.331286,217.25617 L128.406357,214.525723 L176.15373,153.081957 L176.077319,155.811064" id="Fill-34" fill="#56616C" sketch:type="MSShapeGroup"></path>
            <path d="M176.118876,163.249085 L128.370162,224.692851 L128.445232,221.966426 L176.192605,160.521319 L176.118876,163.249085" id="Fill-35" fill="#56616C" sketch:type="MSShapeGroup"></path>
            <path d="M176.023697,170.856 L128.276324,232.303787 L128.352735,229.577362 L176.100108,168.130915 L176.023697,170.856" id="Fill-36" fill="#56616C" sketch:type="MSShapeGroup"></path>
            <path d="M175.699286,81.4027021 L135.344995,133.336149 L135.421405,130.607043 L175.774357,78.6762766 L175.699286,81.4027021" id="Fill-37" fill="#56616C" sketch:type="MSShapeGroup"></path>
            <path d="M175.739503,88.8434043 L135.38253,140.77417 L135.456259,138.049085 L175.813232,86.1156383 L175.739503,88.8434043" id="Fill-38" fill="#56616C" sketch:type="MSShapeGroup"></path>
            <path d="M175.774357,96.2854468 L135.421405,148.217553 L135.493795,145.491128 L175.850768,93.5576809 L175.774357,96.2854468" id="Fill-39" fill="#56616C" sketch:type="MSShapeGroup"></path>
        </g>
    </g>
</svg>