<?xml version="1.0" encoding="UTF-8" standalone="no"?>
<svg width="152px" height="144px" viewBox="0 0 152 144" version="1.1" xmlns="http://www.w3.org/2000/svg" xmlns:xlink="http://www.w3.org/1999/xlink" xmlns:sketch="http://www.bohemiancoding.com/sketch/ns">
    <!-- Generator: Sketch 3.3.3 (12081) - http://www.bohemiancoding.com/sketch -->
    <title>quill</title>
    <desc>Created with Sketch.</desc>
    <defs></defs>
    <g id="Page-1" stroke="none" stroke-width="1" fill="none" fill-rule="evenodd" sketch:type="MSPage">
        <g id="quill" sketch:type="MSLayerGroup" transform="translate(26.000000, 4.000000)">
            <path d="M31.157,100.443 C30.943,100.369 30.67,100.31 30.4,100.244 C29.597,100.047 28.623,100.006 27.681,99.646 C27.568,99.603 27.408,99.603 27.29,99.61 C26.68,99.646 26.115,99.582 25.592,99.469 C25.548,99.46 25.503,99.45 25.46,99.447 C25.456,99.446 25.453,99.447 25.449,99.446 C25.317,99.437 25.178,99.437 25.067,99.476 C25.017,99.495 24.967,99.506 24.917,99.525 C24.465,99.669 24.065,99.732 23.674,99.667 C23.544,99.639 23.409,99.62 23.284,99.624 C22.847,99.637 22.446,99.636 22.066,99.681 C22.004,99.688 21.941,99.695 21.877,99.704 C21.658,99.955 21.435,100.203 21.189,100.457 C21.179,100.477 21.159,100.497 21.149,100.517 C21.119,100.587 21.08,100.647 21.029,100.697 C21.019,100.707 21.019,100.707 21.009,100.727 C20.899,100.877 20.759,100.987 20.589,101.057 C20.479,101.157 20.359,101.257 20.239,101.347 C20.239,101.357 20.23,101.367 20.219,101.377 C20.119,101.537 19.909,101.697 19.659,101.837 L19.649,101.837 C19.643,101.84 19.636,101.843 19.629,101.846 C19.596,101.988 19.635,102.099 19.792,102.167 C19.902,102.214 20.021,102.286 20.126,102.322 C20.161,102.334 20.199,102.329 20.236,102.331 C20.338,102.34 20.445,102.322 20.554,102.219 C20.613,102.159 20.707,102.16 20.779,102.161 C21.152,102.168 21.498,102.105 21.835,102.064 C22.212,102.018 22.595,101.976 23.011,101.909 C23.237,101.873 23.471,101.864 23.729,101.861 C24.079,101.857 24.467,101.864 24.967,101.898 C25.564,101.793 26.385,101.952 27.017,102.102 C27.078,102.112 27.129,102.076 27.189,102.072 C27.851,102.065 28.428,101.958 29.07,102.061 C29.086,102.064 29.101,102.063 29.117,102.066 C29.445,102.123 29.767,102.055 29.958,101.811 C29.965,101.802 29.976,101.797 29.983,101.787 C29.997,101.764 30.009,101.74 30.032,101.727 C30.151,101.546 30.327,101.39 30.545,101.233 C30.698,101.129 30.906,101.027 31.084,100.903 C31.394,100.705 31.442,100.541 31.157,100.443" id="Fill-1" fill="#424242" sketch:type="MSShapeGroup"></path>
            <path d="M14.479,99.657 C14.46,99.667 14.439,99.681 14.419,99.692 C14.399,99.703 14.379,99.712 14.359,99.727 C14.309,99.762 14.257,99.79 14.202,99.808 C14.147,99.827 14.089,99.837 14.029,99.837 C14.026,99.838 14.022,99.837 14.019,99.838 C13.982,99.845 13.945,99.847 13.909,99.847 C13.698,99.838 13.502,99.903 13.294,99.936 C13.275,99.939 13.258,99.944 13.239,99.947 C13.226,99.948 13.212,99.952 13.199,99.953 C12.156,100.089 11.116,100.405 10.04,100.287 C9.77,100.267 9.528,100.32 9.269,100.417 C8.785,100.599 8.221,100.692 7.729,100.547 C7.184,100.387 6.67,100.457 6.14,100.577 C6.057,100.599 5.952,100.6 5.896,100.665 C5.877,100.687 5.864,100.717 5.859,100.757 C5.859,100.772 5.863,100.785 5.865,100.799 C5.866,100.812 5.865,100.828 5.87,100.837 C5.879,100.887 5.905,100.927 5.937,100.961 C5.969,100.995 6.009,101.022 6.049,101.047 C6.109,101.107 6.189,101.157 6.269,101.177 C6.294,101.184 6.318,101.191 6.342,101.199 C6.97,101.387 7.594,101.58 8.228,101.743 C8.245,101.747 8.262,101.752 8.279,101.757 C8.339,101.773 8.4,101.779 8.46,101.79 C8.795,101.849 9.143,101.856 9.475,101.946 C9.585,101.975 9.694,102.014 9.799,102.067 C9.879,102.097 9.99,102.116 10.06,102.086 C10.361,101.984 10.657,102.023 10.952,102.073 C11.118,102.102 11.284,102.132 11.449,102.147 C11.483,102.151 11.514,102.165 11.547,102.171 C11.819,102.226 12.08,102.337 12.362,102.357 C12.365,102.357 12.368,102.357 12.371,102.358 C12.475,102.366 12.576,102.375 12.675,102.377 C12.696,102.378 12.716,102.379 12.736,102.378 C12.851,102.376 12.964,102.359 13.074,102.308 C13.076,102.307 13.078,102.307 13.079,102.306 C13.309,102.196 13.549,102.176 13.799,102.176 C14.009,102.167 14.218,102.167 14.428,102.157 L14.429,102.157 L14.489,102.157 C14.46,102.117 14.429,102.077 14.409,102.037 C14.299,101.947 14.259,101.827 14.299,101.657 C14.219,101.557 14.189,101.447 14.219,101.327 C14.249,101.177 14.29,101.057 14.339,100.937 C14.179,100.497 14.29,100.047 14.519,99.647 C14.499,99.647 14.489,99.647 14.479,99.657" id="Fill-2" fill="#424242" sketch:type="MSShapeGroup"></path>
            <path d="M47.199,81.657 C47.009,81.667 46.819,81.687 46.639,81.757 C46.279,81.887 45.969,82.127 45.589,82.207 C45.389,82.247 45.419,82.447 45.429,82.597 C45.439,82.767 45.56,82.787 45.689,82.797 C45.779,82.807 45.859,82.797 45.939,82.797 C46.199,82.837 46.439,82.767 46.659,82.667 C46.899,82.547 47.069,82.317 47.359,82.247 C47.54,82.207 47.499,81.987 47.469,81.837 C47.449,81.687 47.33,81.657 47.199,81.657" id="Fill-3" fill="#00A3DB" sketch:type="MSShapeGroup"></path>
            <path d="M85.009,34.467 C84.949,34.487 84.859,34.487 84.779,34.517 C84.589,34.577 84.489,34.717 84.56,34.917 C84.619,35.097 84.759,35.157 84.929,35.107 C85.019,35.087 85.099,35.067 85.179,35.017 C85.31,34.937 85.46,34.847 85.419,34.657 C85.379,34.457 85.189,34.487 85.009,34.467" id="Fill-4" fill="#00A3DB" sketch:type="MSShapeGroup"></path>
            <path d="M71.52,44.207 C71.499,44.237 71.479,44.267 71.469,44.297 C71.399,44.457 71.52,44.617 71.739,44.607 C71.919,44.537 72.089,44.407 72.179,44.187 C72.21,44.117 72.189,44.047 72.119,44.007 C71.969,43.917 71.659,44.027 71.52,44.207" id="Fill-5" fill="#00A3DB" sketch:type="MSShapeGroup"></path>
            <path d="M61.929,52.527 C61.83,52.477 61.719,52.477 61.649,52.567 C61.48,52.767 61.31,52.957 61.069,53.077 C60.989,53.117 60.989,53.237 61.04,53.307 C61.179,53.527 61.169,53.767 61.179,54.007 C61.189,54.247 61.319,54.357 61.52,54.357 C61.949,54.367 62.52,54.007 62.679,53.637 C62.73,53.537 62.769,53.437 62.709,53.337 C62.509,53.007 62.299,52.697 61.929,52.527" id="Fill-6" fill="#00A3DB" sketch:type="MSShapeGroup"></path>
            <path d="M48.489,26.087 C48.799,26.077 48.909,25.887 48.759,25.597 C48.699,25.497 48.629,25.397 48.569,25.297 C48.489,25.167 48.379,25.077 48.229,25.117 C48.08,25.157 47.999,25.277 47.959,25.417 C47.879,25.747 48.149,26.097 48.489,26.087" id="Fill-7" fill="#00A3DB" sketch:type="MSShapeGroup"></path>
            <path d="M46.799,29.967 C46.77,29.477 46.71,29.017 46.71,28.547 C46.719,28.307 46.499,28.227 46.299,28.137 C46.259,28.207 46.219,28.247 46.219,28.297 C46.219,28.677 46.269,29.057 46.089,29.417 C46.049,29.497 46.069,29.607 46.139,29.657 C46.339,29.787 46.489,30.007 46.799,29.967" id="Fill-8" fill="#00A3DB" sketch:type="MSShapeGroup"></path>
            <path d="M43.219,32.117 C43.29,32.197 43.369,32.267 43.489,32.247 C43.609,32.217 43.639,32.107 43.629,31.997 C43.609,31.667 43.679,31.347 43.79,31.037 C43.83,30.937 43.839,30.817 43.779,30.737 C43.609,30.517 43.439,30.297 43.29,30.077 C43.179,29.927 42.989,29.887 42.81,29.977 C42.669,30.047 42.639,30.177 42.649,30.437 C42.819,30.907 43.06,31.477 43.189,32.077 C43.189,32.097 43.209,32.107 43.219,32.117" id="Fill-9" fill="#00A3DB" sketch:type="MSShapeGroup"></path>
            <path d="M56.129,66.207 C55.409,66.557 55.029,67.177 54.819,67.917 C54.739,68.197 54.969,68.507 55.239,68.527 C55.379,68.537 55.459,68.447 55.549,68.357 C56,67.937 56.209,67.307 56.739,66.947 C56.939,66.807 56.899,66.487 56.73,66.287 C56.56,66.087 56.399,66.077 56.129,66.207" id="Fill-10" fill="#00A3DB" sketch:type="MSShapeGroup"></path>
            <path d="M41.569,73.777 C41.379,73.797 41.209,73.877 41.239,74.097 C41.27,74.297 41.439,74.347 41.599,74.327 C42.139,74.257 42.679,74.287 43.199,74.097 C43.629,73.957 44.08,73.807 44.499,73.757 C45.129,73.677 45.669,73.267 46.319,73.337 C46.409,73.347 46.52,73.217 46.629,73.147 C46.729,73.087 46.819,72.967 46.929,72.957 C47.469,72.887 47.919,72.527 48.469,72.487 C49.099,72.447 49.599,72.017 50.189,71.857 C50.259,71.837 50.339,71.767 50.379,71.697 C50.549,71.457 50.779,71.377 51.06,71.367 C51.149,71.367 51.249,71.347 51.31,71.297 C51.749,70.967 52.299,70.787 52.669,70.367 C52.759,70.277 52.869,70.227 52.98,70.187 C53.589,69.967 53.889,69.387 54.369,69.017 C54.519,68.907 54.429,68.687 54.27,68.647 C54.089,68.607 53.429,68.907 53.339,69.097 C53.23,69.337 53.149,69.337 52.98,69.147 C52.639,68.777 52.119,68.707 51.699,68.957 C51.359,69.147 51.029,69.347 50.709,69.547 C50.46,69.707 50.219,69.857 49.889,69.847 C49.719,69.837 49.549,69.907 49.409,70.007 C49.099,70.237 48.759,70.347 48.379,70.347 C48.219,70.337 48.06,70.367 47.949,70.497 C47.819,70.667 47.629,70.687 47.429,70.687 C47.279,70.677 47.119,70.687 46.969,70.727 C46.319,70.907 45.779,71.367 45.08,71.407 C45.049,71.417 45.02,71.447 44.989,71.457 C44.199,71.737 43.419,72.027 42.629,72.307 C42.04,72.507 41.419,72.607 40.899,72.987 C40.739,73.097 40.54,73.187 40.599,73.427 C40.659,73.687 40.919,73.647 41.119,73.677 C41.249,73.697 41.349,73.637 41.439,73.547 C41.649,73.347 41.889,73.327 42.179,73.387 C42.089,73.747 41.83,73.757 41.569,73.777" id="Fill-11" fill="#00A3DB" sketch:type="MSShapeGroup"></path>
            <path d="M99.84,19.447 C99.709,19.287 99.569,19.137 99.35,19.107 C98.989,19.307 98.84,18.957 98.609,18.827 C98.359,19.047 98.109,19.277 97.969,19.597 C97.939,19.677 97.869,19.737 97.779,19.747 C97.76,19.867 97.68,19.947 97.569,19.967 C97.539,20.127 97.409,20.197 97.27,20.227 C96.98,20.307 96.67,20.337 96.409,20.557 C96.289,20.657 96.129,20.517 96.18,20.357 C96.25,20.157 96.289,19.957 96.34,19.757 C96.299,19.747 96.289,19.717 96.289,19.677 C96.149,19.707 96.02,19.687 95.889,19.617 C95.76,19.717 95.609,19.727 95.459,19.657 C94.779,19.717 94.109,19.527 93.43,19.557 C93.239,19.567 93.029,19.507 92.859,19.607 C92.369,19.917 91.879,19.697 91.389,19.607 C91.31,19.587 91.23,19.557 91.199,19.457 C91.159,19.337 91.219,19.237 91.31,19.197 C91.569,19.057 91.84,18.917 92.119,18.827 C92.48,18.717 92.77,18.547 93.01,18.237 C93.219,17.977 93.58,17.927 93.889,17.827 C94.27,17.657 94.569,17.327 94.98,17.207 C95.02,17.067 95.119,17.017 95.25,17.017 C95.27,16.957 95.31,16.927 95.369,16.917 C95.43,16.717 95.569,16.617 95.76,16.567 C95.77,16.507 95.799,16.477 95.859,16.477 C95.93,16.247 96.129,16.127 96.289,15.977 C96.67,15.607 97.049,15.257 97.34,14.817 C97.319,14.747 97.34,14.677 97.389,14.617 C97.35,14.247 97.699,14.127 97.859,13.877 C97.83,13.487 97.779,13.097 97.899,12.727 C97.84,12.577 97.859,12.417 97.859,12.257 C97.85,11.817 97.76,11.397 97.48,11.027 C97.31,10.797 97.159,10.527 97.139,10.217 C97.08,10.197 97.049,10.157 97.039,10.097 C96.859,10.067 96.779,9.927 96.689,9.797 C96.389,9.387 96.239,9.337 95.77,9.497 C95.48,9.597 95.449,9.687 95.649,9.947 C95.869,10.237 96,10.577 96.06,10.937 C96.139,11.447 95.92,11.977 96.109,12.487 C96.119,12.507 96.09,12.547 96.09,12.587 C96.119,13.087 95.81,13.427 95.51,13.767 C95.109,14.237 94.489,14.387 93.949,14.107 C93.719,13.987 93.5,13.947 93.25,13.937 C92.969,13.937 92.699,13.947 92.42,13.997 C92.06,14.067 91.899,13.917 91.879,13.557 C91.879,13.447 91.899,13.347 91.899,13.237 C91.909,12.947 91.879,12.677 91.699,12.407 C91.35,11.867 91.649,11.377 92.289,11.357 C92.539,11.347 92.779,11.367 93.02,11.437 C93.269,11.507 93.529,11.547 93.789,11.597 C94.049,11.647 94.31,11.617 94.56,11.507 C94.84,11.387 94.959,11.247 94.879,10.947 C94.73,10.417 94.779,9.707 93.93,9.707 C93.84,9.707 93.739,9.607 93.649,9.567 C93.489,9.487 93.319,9.447 93.149,9.447 C92.5,9.427 91.859,9.557 91.219,9.467 C91.069,9.447 90.949,9.527 90.83,9.607 C90.489,9.817 90.119,9.757 89.759,9.727 C89.519,9.697 89.389,9.517 89.399,9.277 C89.409,8.927 89.33,8.597 89.249,8.257 C89.04,7.397 89.679,6.687 90.56,6.747 C90.749,6.757 90.939,6.797 91.119,6.867 C91.31,6.947 91.409,6.867 91.48,6.687 C91.739,6.077 91.699,5.797 91.209,5.297 C91.069,5.167 90.919,5.047 90.779,4.917 C90.54,4.687 90.279,4.677 90.009,4.827 C89.849,4.907 89.719,5.047 89.54,5.047 C89.189,5.037 88.949,5.217 88.739,5.467 C88.489,5.757 88.119,5.777 87.79,5.857 C87.619,5.907 87.439,5.827 87.409,5.597 C87.369,5.557 87.33,5.527 87.29,5.487 C86.989,5.517 86.749,5.387 86.54,5.207 C86.419,5.117 86.33,4.937 86.149,5.037 C85.959,5.137 85.899,5.327 85.929,5.527 C85.989,5.887 86.069,6.237 86.27,6.547 C86.359,6.677 86.48,6.777 86.489,6.947 C86.549,6.947 86.58,6.967 86.569,7.027 C86.849,7.267 86.899,7.407 86.779,7.677 C86.699,7.827 86.629,7.987 86.519,8.127 C86.109,8.647 85.919,9.257 85.719,9.877 C85.58,10.317 85.409,10.767 85.149,11.157 C85.099,11.227 85.029,11.297 85.009,11.377 C84.749,12.237 84.069,12.677 83.319,13.027 C83.129,13.127 82.999,13.297 82.83,13.417 C82.56,13.607 82.399,13.537 82.389,13.217 C82.389,13.007 82.379,12.797 82.319,12.597 C82.259,12.387 82.31,12.187 82.389,11.987 C82.619,11.427 82.759,10.857 82.679,10.247 C82.649,10.027 82.679,9.797 82.749,9.577 C82.81,9.387 82.819,9.197 82.79,9.007 C82.73,8.607 82.699,8.207 82.71,7.807 C82.719,7.237 82.669,6.657 82.799,6.087 C82.819,5.967 82.81,5.847 82.79,5.727 C82.779,5.567 82.679,5.467 82.52,5.467 C82.359,5.467 82.239,5.517 82.189,5.677 C82.169,5.717 82.159,5.777 82.159,5.827 C82.23,6.307 82.019,6.727 81.83,7.127 C81.629,7.537 81.569,7.957 81.54,8.387 C81.509,8.637 81.48,8.867 81.31,9.067 C81.249,9.137 81.189,9.217 81.189,9.297 C81.21,9.757 80.96,10.167 80.98,10.627 C80.999,10.977 80.929,11.327 80.779,11.647 C80.629,11.957 80.569,12.297 80.569,12.617 C80.56,13.247 80.409,13.847 80.319,14.467 C80.299,14.607 80.279,14.747 80.21,14.867 C80.009,15.237 79.819,15.617 79.849,16.057 C79.849,16.157 79.819,16.277 79.689,16.277 C79.569,16.277 79.52,16.167 79.48,16.067 C79.469,16.017 79.449,15.967 79.449,15.917 C79.469,15.287 79.319,14.667 79.27,14.047 C79.239,13.627 79.219,13.237 79.06,12.827 C78.889,12.347 78.979,11.817 79.189,11.347 C79.259,11.177 79.349,11.027 79.349,10.847 C79.33,10.387 79.609,10.017 79.799,9.657 C80,9.257 80.159,8.837 80.429,8.467 C80.469,8.417 80.509,8.347 80.519,8.277 C80.589,7.667 80.999,7.207 81.199,6.657 C81.439,6.027 81.779,5.427 81.869,4.747 C82.279,4.297 82.109,3.727 82.189,3.207 C82.299,2.547 82.46,1.887 82.659,1.247 C82.819,0.747 82.449,0.467 82.27,0.117 C82.159,-0.073 81.81,0.057 81.749,0.297 C81.73,0.377 81.719,0.467 81.739,0.557 C81.83,1.157 81.609,1.657 81.33,2.177 C80.989,2.797 80.499,3.337 80.339,4.057 C80.27,4.397 80.02,4.707 79.849,5.027 C79.799,5.117 79.729,5.217 79.609,5.197 C79.439,5.177 79.439,5.037 79.439,4.917 C79.409,4.307 79.429,3.697 79.499,3.087 C79.52,2.917 79.58,2.717 79.429,2.587 C79.29,2.457 79.169,2.177 78.939,2.277 C78.679,2.387 78.459,2.627 78.389,2.927 C78.339,3.137 78.319,3.347 78.299,3.547 C78.259,3.797 78.159,4.007 78.029,4.227 C77.799,4.617 77.859,5.097 77.759,5.537 C77.73,5.707 77.719,5.887 77.649,6.047 C77.52,6.307 77.379,6.367 77.149,6.207 C76.939,6.057 76.749,5.947 76.48,6.037 C76.359,6.077 76.259,5.987 76.149,5.917 C75.799,5.697 75.589,5.677 75.449,5.837 C75.31,5.987 75.349,6.517 75.54,6.717 C75.759,6.927 75.909,7.157 76.02,7.447 C76.159,7.827 76.319,8.187 76.279,8.607 C76.27,8.717 76.31,8.807 76.359,8.907 C76.869,9.747 76.819,10.657 76.71,11.577 C76.549,12.857 75.83,13.917 75.419,15.097 C75.279,15.507 74.939,15.827 74.96,16.297 C74.439,17.137 74.439,18.107 74.259,19.027 C74.23,19.157 74.219,19.277 74.069,19.297 C73.909,19.327 73.79,19.237 73.739,19.097 C73.699,18.967 73.689,18.817 73.689,18.687 C73.659,17.757 73.669,16.827 73.619,15.907 C73.569,15.217 73.499,14.517 73.549,13.817 C73.56,13.577 73.569,13.327 73.699,13.107 C73.79,12.957 73.77,12.777 73.79,12.597 C73.819,12.267 73.859,11.937 74.089,11.667 C74.339,11.377 74.279,11.007 74.29,10.667 C74.29,10.377 74.33,10.147 74.499,9.887 C74.739,9.527 74.98,9.077 74.489,8.677 C74.449,8.647 74.439,8.597 74.409,8.547 C74.21,8.167 74.199,8.157 73.869,8.387 C73.729,8.487 73.609,8.547 73.439,8.477 C73.379,8.457 73.29,8.407 73.239,8.427 C72.889,8.567 72.529,8.727 72.179,8.887 C71.899,9.507 71.449,10.097 71.79,10.847 C71.879,11.037 71.909,11.247 71.899,11.457 C71.849,12.237 71.819,13.027 71.679,13.797 C71.569,14.417 71.609,15.047 71.629,15.677 C71.649,16.567 71.679,17.457 71.79,18.337 C71.919,19.387 71.939,20.467 72.459,21.437 C72.649,21.797 72.679,22.207 72.779,22.597 C72.819,22.747 72.83,22.907 72.939,23.027 C73.419,23.557 73.79,24.177 74.369,24.627 C74.779,24.937 74.719,25.707 74.249,25.887 C73.839,26.047 73.609,26.347 73.33,26.637 C73.069,26.897 72.83,27.177 72.569,27.427 C72.429,27.557 72.31,27.627 72.21,27.627 C72.08,27.627 71.969,27.507 71.849,27.287 C71.349,26.377 71.249,25.367 71.109,24.367 C71.08,24.217 71.099,24.057 71.129,23.897 C71.169,23.667 71.169,23.447 71,23.257 C70.98,23.237 70.949,23.197 70.949,23.167 C71,22.507 70.569,21.897 70.719,21.237 C70.869,20.547 70.739,19.847 70.819,19.147 C70.869,18.697 70.889,18.247 70.729,17.797 C70.689,17.657 70.699,17.487 70.719,17.337 C70.779,16.847 70.819,16.367 70.689,15.877 C70.659,15.757 70.659,15.627 70.729,15.517 C70.949,15.207 70.919,14.857 70.919,14.507 C70.919,13.897 70.98,13.297 70.919,12.677 C70.889,12.287 71.009,11.887 71.04,11.487 C71.139,10.427 71.049,9.357 71.119,8.297 C71.129,8.187 71.119,8.087 71.06,7.987 C70.81,7.607 70.779,7.167 70.77,6.727 C70.77,6.627 70.79,6.487 70.729,6.427 C70.379,6.047 70.499,5.567 70.409,5.137 C70.369,4.957 70.429,4.727 70.199,4.647 C69.96,4.567 69.749,4.647 69.589,4.847 C69.549,4.897 69.48,4.927 69.419,4.957 C69.359,5.307 69.399,5.647 69.439,5.987 C69.609,6.097 69.629,6.237 69.56,6.407 C69.609,6.517 69.609,6.617 69.569,6.727 C69.679,6.927 69.609,7.067 69.399,7.147 C69.389,7.257 69.31,7.297 69.219,7.317 C69.189,7.437 69.109,7.507 69.029,7.567 C68.96,7.617 68.909,7.677 68.869,7.737 C68.859,7.777 68.839,7.807 68.839,7.837 C68.83,7.907 68.83,7.987 68.839,8.067 C68.909,8.797 68.949,9.527 68.839,10.257 C68.819,10.417 68.839,10.577 68.859,10.727 C68.889,10.937 68.919,11.147 68.869,11.357 C68.759,11.717 68.739,12.077 68.879,12.427 C68.899,12.477 68.909,12.537 68.899,12.587 C68.709,13.477 68.939,14.387 68.719,15.287 C68.52,16.077 68.54,16.917 68.58,17.737 C68.619,18.507 68.599,19.277 68.52,20.037 C68.499,20.157 68.489,20.297 68.529,20.397 C68.709,20.887 68.689,21.397 68.689,21.907 C68.699,22.467 68.929,22.997 68.889,23.557 C68.849,24.257 69.149,24.887 69.229,25.547 C69.299,26.207 69.549,26.957 69.049,27.557 C68.779,27.887 68.609,28.267 68.359,28.597 C68.189,28.827 68.08,29.067 68.099,29.367 C68.129,29.667 67.969,29.857 67.71,29.987 C67.359,30.147 67.109,30.397 67.009,30.787 C66.989,30.877 66.929,30.987 66.859,31.057 C66.409,31.437 66.089,31.947 65.649,32.337 C65.019,32.897 64.259,32.787 63.509,32.677 C63.389,32.657 63.299,32.557 63.219,32.467 C62.839,32.067 62.659,31.567 62.409,31.097 C62.119,30.537 62.129,29.927 61.939,29.357 C61.799,28.967 61.77,28.577 61.759,28.167 C61.759,27.367 61.739,26.567 61.699,25.757 C61.669,24.877 61.739,23.997 61.779,23.107 C61.799,22.597 61.689,22.097 61.939,21.577 C62.089,21.267 61.959,20.827 61.949,20.437 C61.929,20.027 61.869,19.597 62.159,19.237 C62.169,19.227 62.179,19.207 62.179,19.187 C62.149,18.397 62.909,17.997 63.109,17.307 C63.139,17.227 63.239,17.137 63.33,17.097 C63.48,17.017 63.619,17.067 63.629,17.247 C63.649,17.557 63.659,17.877 63.639,18.187 C63.599,18.757 63.519,19.337 63.629,19.907 C63.669,20.087 63.629,20.257 63.599,20.427 C63.569,20.617 63.56,20.807 63.599,20.997 C63.619,21.087 63.669,21.167 63.77,21.187 C63.899,21.207 63.96,21.117 63.999,21.017 C64.06,20.877 64.089,20.717 64.159,20.577 C64.25,20.417 64.389,20.297 64.589,20.327 C64.799,20.357 64.849,20.537 64.869,20.717 C64.899,21.207 64.959,21.687 65.009,22.177 C65.119,23.197 65.249,24.207 65.73,25.147 C65.79,25.267 65.849,25.397 65.859,25.537 C65.879,26.137 66.21,26.627 66.48,27.137 C66.669,27.487 67.08,27.517 67.409,27.647 C67.58,27.707 67.859,27.307 67.83,27.077 C67.819,26.957 67.77,26.837 67.729,26.727 C67.599,26.327 67.439,25.937 67.429,25.507 C67.429,25.427 67.399,25.337 67.369,25.257 C67.109,24.607 66.969,23.937 66.969,23.237 C66.96,22.827 66.839,22.417 66.749,22.007 C66.699,21.817 66.669,21.627 66.689,21.437 C66.71,21.087 66.71,20.747 66.52,20.427 C66.439,20.307 66.429,20.147 66.489,20.017 C66.639,19.627 66.589,19.227 66.609,18.827 C66.659,17.767 66.739,16.707 66.859,15.647 C66.949,14.727 66.919,13.797 66.919,12.877 C66.929,12.117 67.089,11.387 67.249,10.657 C67.369,10.127 67.46,9.567 67.419,9.007 C67.399,8.717 67.46,8.457 67.56,8.197 C67.629,7.997 67.699,7.787 67.739,7.577 C67.739,7.557 67.749,7.537 67.749,7.517 C67.819,7.147 67.839,6.777 67.83,6.397 C67.81,6.107 67.689,6.027 67.419,6.137 C67.319,6.177 67.199,6.227 67.189,6.327 C67.119,6.647 66.839,6.757 66.609,6.897 C66.169,7.167 65.909,7.677 65.409,7.877 C65.439,7.937 65.419,7.977 65.379,8.007 C65.439,8.477 65.499,8.957 65.379,9.417 C65.119,10.347 65.049,11.297 64.989,12.247 C64.959,12.777 64.79,13.157 64.33,13.407 C64.029,13.567 63.909,13.797 63.929,14.127 C63.939,14.557 63.859,14.967 63.639,15.337 C63.459,15.667 63.459,15.687 63.189,15.447 C62.98,15.247 62.719,15.187 62.52,15.347 C62.189,15.607 61.749,15.787 61.729,16.317 C61.719,16.507 61.599,16.677 61.469,16.827 C61.299,17.037 61.239,17.027 61.089,16.807 C60.869,16.507 60.609,16.367 60.419,16.477 C60.139,16.647 60.239,16.907 60.29,17.137 C60.439,17.867 60.369,18.587 60.299,19.327 C60.249,19.797 60.06,20.227 60.04,20.707 C60.029,21.057 60.119,21.397 60.099,21.747 C60.089,22.117 59.949,22.467 59.949,22.837 C59.96,23.917 59.819,24.997 59.81,26.077 C59.799,26.257 59.81,26.427 59.719,26.587 C59.479,27.047 59.489,27.527 59.54,28.017 C59.599,28.557 59.629,29.097 59.469,29.627 C59.419,29.797 59.389,29.987 59.449,30.147 C59.639,30.657 59.609,31.187 59.58,31.707 C59.529,32.717 59.969,33.637 60.06,34.617 C60.06,34.647 60.089,34.677 60.109,34.707 C60.29,34.907 60.33,35.167 60.409,35.417 C60.54,35.797 60.79,36.117 60.889,36.517 C60.919,36.637 61.04,36.707 61.149,36.757 C61.279,36.807 61.409,36.857 61.54,36.917 C61.81,37.067 61.849,37.257 61.689,37.517 C61.609,37.667 61.46,37.717 61.319,37.797 C61.069,37.937 60.869,38.127 60.879,38.447 C60.879,38.637 60.839,38.807 60.629,38.857 C60.429,38.907 60.229,38.907 60.089,38.747 C59.739,38.317 59.339,37.907 59.109,37.407 C58.869,36.877 58.509,36.377 58.569,35.737 C58.569,35.707 58.549,35.677 58.54,35.637 C58.219,35.007 58.199,34.307 58.099,33.617 C57.979,32.827 58.139,32.017 58.009,31.217 C57.989,31.107 58.02,30.977 58.04,30.857 C58.069,30.697 58.089,30.547 58.04,30.387 C57.969,30.147 58.009,29.907 57.999,29.667 C57.989,29.067 58.139,28.487 58.149,27.897 C58.149,27.447 58.009,27.017 58.189,26.547 C58.279,26.317 58.159,25.977 58.259,25.687 C58.31,25.547 58.269,25.367 58.129,25.317 C57.779,25.197 57.859,24.947 57.889,24.677 C57.929,24.387 57.899,24.087 57.989,23.797 C58.06,23.557 57.999,23.387 57.719,23.337 C57.529,23.307 57.469,23.167 57.469,22.987 C57.459,22.777 57.469,22.577 57.529,22.367 C57.609,22.127 57.659,21.877 57.58,21.647 C57.399,21.147 57.459,20.687 57.669,20.227 C57.719,20.097 57.779,19.957 57.639,19.837 C57.529,19.757 56.909,19.687 56.889,19.777 C56.799,20.157 56.569,20.397 56.219,20.567 C56.169,20.587 56.169,20.727 56.159,20.807 C56.149,20.967 56.139,21.127 56.139,21.277 C56.149,21.727 56.159,21.747 56.589,21.817 C56.739,21.837 56.879,21.857 56.899,22.037 C56.919,22.277 57.029,22.527 56.959,22.757 C56.739,23.437 56.83,24.197 56.389,24.807 C56.319,24.907 56.339,25.047 56.339,25.167 C56.29,26.487 56.099,27.807 56.179,29.137 C56.179,29.227 56.159,29.317 56.149,29.397 C55.98,31.217 56,33.027 56.339,34.827 C56.389,35.107 56.599,35.347 56.569,35.627 C56.52,36.197 56.869,36.647 57.029,37.157 C57.089,37.347 57.139,37.557 57.29,37.727 C57.639,38.127 57.819,38.647 58.189,39.057 C58.389,39.267 58.549,39.507 58.81,39.677 C59.179,39.897 59.219,40.147 58.959,40.497 C58.79,40.717 58.599,40.917 58.509,41.197 C58.429,41.447 58.199,41.357 58.02,41.337 C57.81,41.327 57.749,41.187 57.79,41.007 C57.869,40.637 57.689,40.367 57.429,40.147 C57.21,39.947 57.08,39.717 56.999,39.437 C56.859,38.977 56.52,38.597 56.469,38.097 C56.46,38.047 56.419,37.997 56.389,37.967 C56.199,37.797 56.159,37.567 56.159,37.337 C56.159,36.837 56.06,36.347 55.98,35.847 C55.849,35.057 55.719,34.267 55.569,33.487 C55.52,33.247 55.499,33.007 55.509,32.757 C55.509,32.507 55.499,32.267 55.449,32.027 C55.339,31.517 55.269,30.997 55.29,30.467 C55.299,30.197 55.219,29.957 55.08,29.727 C54.839,29.317 54.699,28.857 54.669,28.397 C54.649,28.037 54.599,27.687 54.439,27.387 C54.199,26.937 54.08,26.447 53.869,25.987 C53.779,25.777 53.509,25.737 53.499,25.517 C53.479,25.317 53.629,25.117 53.589,24.907 C53.58,24.857 53.569,24.797 53.56,24.747 C53.449,24.237 53.359,23.717 53.06,23.277 C52.98,23.167 52.949,23.057 52.959,22.927 C52.989,22.597 52.849,22.307 52.679,22.047 C52.549,21.857 52.439,21.647 52.399,21.427 C52.349,21.127 52.189,20.917 51.969,20.737 C51.679,20.507 51.359,20.297 51.33,19.867 C50.959,20.017 50.599,20.147 50.499,20.517 C50.389,20.877 50.389,21.267 50.259,21.627 C50.23,21.727 50.27,21.837 50.339,21.927 C51.04,22.767 51.129,23.887 51.589,24.837 C51.619,24.897 51.629,24.967 51.629,25.037 C51.629,25.187 51.679,25.387 51.5,25.457 C51.349,25.527 51.259,25.367 51.149,25.277 C51.069,25.217 50.999,25.127 50.909,25.077 C50.719,24.977 50.529,25.027 50.469,25.207 C50.349,25.627 50.219,26.087 50.479,26.477 C50.709,26.837 50.879,27.187 50.989,27.607 C51.06,27.867 51.089,28.157 51.219,28.397 C51.519,28.977 51.48,29.627 51.549,30.237 C51.619,30.777 51.589,31.357 51.649,31.907 C51.719,32.607 51.889,33.297 51.979,34.007 C52.06,34.617 52.119,35.247 52.319,35.847 C52.359,35.957 52.349,36.087 52.339,36.207 C52.31,36.507 52.359,36.797 52.379,37.097 C52.409,37.577 52.56,38.017 52.689,38.467 C52.859,39.067 53.139,39.637 53.139,40.277 C53.139,40.327 53.159,40.387 53.189,40.417 C53.449,40.667 53.46,41.017 53.569,41.327 C53.669,41.607 53.739,41.887 53.939,42.127 C54.129,42.357 54.089,42.617 53.909,42.727 C53.75,42.827 53.469,42.737 53.31,42.537 C53.279,42.497 53.249,42.457 53.23,42.407 C53.149,42.167 53.019,41.967 52.839,41.797 C52.729,41.697 52.659,41.577 52.659,41.427 C52.649,41.227 52.56,41.067 52.469,40.887 C52.23,40.407 51.969,39.947 51.839,39.407 C51.639,38.587 51.21,37.817 51.259,36.947 C51.27,36.817 51.189,36.707 51.139,36.597 C51.06,36.467 51.02,36.317 50.999,36.157 C50.909,35.247 50.989,34.337 51.02,33.447 C51.029,32.687 50.999,31.947 50.939,31.197 C50.869,30.427 50.649,29.697 49.98,29.197 C49.869,29.107 49.779,29.007 49.639,28.957 C49.389,28.877 49.23,28.977 49.29,29.217 C49.349,29.487 49.279,29.687 49.119,29.887 C49.02,30.007 48.989,30.167 48.969,30.327 C48.939,30.587 48.929,30.857 48.849,31.097 C48.73,31.447 48.749,31.867 48.389,32.117 C47.929,32.447 47.889,32.717 48.229,33.157 C48.519,33.537 48.599,33.977 48.589,34.437 C48.58,34.527 48.58,34.627 48.48,34.657 C48.359,34.707 48.27,34.617 48.229,34.527 C48.08,34.147 47.759,33.927 47.479,33.657 C47.249,33.437 46.939,33.487 46.859,33.777 C46.749,34.227 46.529,34.657 46.569,35.147 C46.609,35.527 46.649,35.917 46.58,36.297 C46.459,36.917 46.419,37.547 46.409,38.177 C46.409,38.297 46.419,38.417 46.439,38.537 C46.459,38.677 46.479,38.817 46.459,38.957 C46.379,39.467 46.399,39.957 46.699,40.397 C46.79,40.527 46.779,40.667 46.749,40.807 C46.609,41.537 46.839,42.237 47,42.917 C47.139,43.527 47.06,44.177 47.369,44.747 C47.29,45.197 47.81,45.437 47.79,45.837 C47.769,46.267 47.779,46.677 47.959,47.057 C48.179,47.537 48.379,48.017 48.56,48.507 C48.649,48.747 48.779,48.937 48.969,49.107 C49.52,49.607 49.859,50.267 50.279,50.857 C50.409,51.057 50.419,51.257 50.299,51.457 C50.089,51.777 49.969,52.137 49.749,52.457 C49.549,52.737 49.339,53.077 49.359,53.457 C49.359,53.717 49.25,53.887 49.029,54.007 C48.719,54.197 48.509,54.467 48.349,54.787 C48.109,55.267 47.719,55.627 47.319,55.957 C47.06,56.187 46.859,56.197 46.639,55.927 C46.209,55.427 45.619,55.017 45.56,54.267 C45.549,54.207 45.5,54.147 45.459,54.087 C45.02,53.577 44.919,52.907 44.81,52.297 C44.709,51.777 44.679,51.227 44.619,50.687 C44.54,49.997 44.549,49.307 44.389,48.617 C44.259,48.047 44.109,47.427 44.419,46.807 C44.719,47.307 44.919,47.797 45.02,48.337 C45.169,49.197 45.459,50.017 45.77,50.827 C45.949,51.287 46.239,51.697 46.369,52.157 C46.529,52.717 46.929,53.027 47.319,53.357 C47.58,53.587 47.799,53.497 47.929,53.177 C48.06,52.887 48.029,52.607 47.83,52.347 C47.73,52.207 47.569,52.097 47.56,51.907 C47.549,51.397 47.429,50.917 47.319,50.417 C47.189,49.827 47.109,49.227 46.869,48.667 C46.79,48.487 46.739,48.297 46.749,48.107 C46.779,47.587 46.58,47.137 46.339,46.717 C46.189,46.427 46.179,46.167 46.209,45.867 C46.239,45.537 46.389,45.207 46.269,44.887 C46.169,44.637 46.139,44.377 46.089,44.127 C46.029,43.747 45.999,43.367 45.79,43.017 C45.689,42.837 45.689,42.617 45.779,42.407 C45.839,42.267 45.889,42.117 45.899,41.957 C45.96,41.187 45.869,40.427 45.759,39.667 C45.719,39.377 45.649,39.127 45.839,38.867 C45.899,38.787 45.929,38.687 45.929,38.597 C45.929,38.537 45.919,38.477 45.899,38.417 C45.659,37.657 45.699,36.857 45.459,36.107 C45.389,35.877 45.299,35.677 45.109,35.537 C44.739,35.247 44.349,34.987 44.389,34.437 C44.399,34.397 44.33,34.347 44.319,34.307 C44.129,33.817 43.71,33.447 43.629,32.917 C43.619,32.897 43.569,32.897 43.529,32.877 C43.379,32.977 43.439,33.127 43.459,33.257 C43.52,33.737 43.609,34.227 43.649,34.707 C43.739,35.887 43.739,37.077 43.729,38.267 C43.729,38.997 43.629,39.727 43.639,40.457 C43.649,40.767 43.639,41.087 43.679,41.397 C43.719,41.757 43.609,41.827 43.25,41.737 C43.02,41.667 42.79,41.577 42.569,41.467 C42.389,41.367 42.249,41.447 42.119,41.597 C41.989,41.747 41.919,41.887 42.08,42.057 C42.299,42.287 42.279,42.567 42.219,42.847 C42.179,43.027 42.139,43.217 42.089,43.407 C42.009,43.787 41.969,44.177 42.06,44.547 C42.149,44.897 42.159,45.237 42.139,45.587 C42.109,46.237 42.109,46.887 42.219,47.517 C42.319,48.067 42.399,48.607 42.419,49.167 C42.419,49.217 42.439,49.267 42.449,49.317 C42.679,49.957 42.669,50.647 42.859,51.307 C43.049,51.997 43.23,52.717 43.389,53.427 C43.569,54.267 44.06,55.027 44.499,55.767 C44.739,56.167 45.08,56.547 45.54,56.777 C45.739,56.877 45.869,57.077 46.029,57.247 C46.089,57.307 46.129,57.407 46.089,57.487 C45.879,58.047 45.639,58.597 45.04,58.857 C44.649,59.027 44.649,59.017 44.699,59.477 C44.73,59.807 44.52,60.017 44.199,59.967 C44.099,59.947 43.989,59.907 43.909,59.847 C43.659,59.667 43.389,59.557 43.08,59.587 C42.899,59.597 42.77,59.527 42.749,59.327 C42.709,58.927 42.449,58.737 42.119,58.577 C41.889,58.467 41.58,58.387 41.529,58.097 C41.46,57.777 41.239,57.597 41.02,57.397 C40.869,57.257 40.749,57.077 40.599,56.927 C40.149,56.467 39.919,55.837 39.429,55.407 C39.279,55.277 39.249,55.097 39.29,54.927 C39.389,54.507 39.239,54.137 39.08,53.767 C38.849,53.237 38.669,52.677 38.56,52.137 C38.279,50.827 38.139,49.487 38.199,48.137 C38.209,47.827 38.219,47.517 38.069,47.217 C37.969,47.007 37.96,46.757 38.029,46.547 C38.199,46.067 38.02,45.647 37.869,45.237 C37.779,44.997 37.719,44.777 37.79,44.527 C37.899,44.147 37.859,43.767 37.799,43.387 C37.71,42.837 37.549,42.297 37.729,41.727 C37.79,41.527 37.83,41.337 37.949,41.147 C38.139,40.837 38.249,40.487 38.299,40.117 C38.319,39.967 38.399,39.847 38.569,39.847 C38.719,39.847 38.779,39.967 38.81,40.087 C38.849,40.277 38.919,40.467 38.919,40.647 C38.859,42.047 39.04,43.437 38.989,44.837 C38.959,45.477 39.169,46.077 39.279,46.687 C39.33,46.987 39.419,47.287 39.439,47.607 C39.46,47.917 39.489,48.227 39.549,48.537 C39.649,49.107 39.709,49.677 39.759,50.247 C39.799,50.647 39.79,51.067 39.989,51.417 C40.139,51.697 40.219,51.997 40.279,52.297 C40.359,52.687 40.339,53.097 40.609,53.427 C40.669,53.497 40.669,53.627 40.669,53.727 C40.679,53.927 40.749,54.097 40.839,54.267 C41.009,54.567 41.219,54.857 41.129,55.237 C41.109,55.357 41.179,55.477 41.249,55.577 C41.349,55.707 41.419,55.847 41.409,56.017 C41.409,56.257 41.509,56.417 41.759,56.447 C41.979,56.477 42.149,56.617 42.169,56.807 C42.219,57.427 42.81,57.597 43.109,58.007 C43.189,58.107 43.319,58.137 43.439,58.077 C43.589,57.997 43.619,57.857 43.589,57.717 C43.569,57.627 43.54,57.547 43.509,57.467 C43.29,56.777 43.029,56.087 42.969,55.357 C42.939,55.037 42.879,54.737 42.649,54.497 C42.54,54.377 42.48,54.207 42.519,54.057 C42.709,53.357 42.089,52.817 42.139,52.147 C42.139,52.097 42.08,52.017 42.029,51.977 C41.819,51.797 41.79,51.567 41.799,51.307 C41.81,51.067 41.799,50.817 41.739,50.577 C41.649,50.217 41.629,49.857 41.659,49.487 C41.71,48.907 41.609,48.337 41.469,47.787 C41.199,46.717 40.999,45.647 41.089,44.537 C41.099,44.447 41.089,44.357 41.069,44.277 C40.869,43.467 40.969,42.637 40.949,41.827 C40.939,40.817 40.81,39.827 40.609,38.837 C40.549,38.497 40.599,38.367 40.969,38.197 C41.139,38.117 41.189,38.007 41.169,37.827 C41.149,37.627 41.089,37.467 40.859,37.397 C40.669,37.337 40.509,37.177 40.499,36.987 C40.479,36.207 40.119,35.517 39.96,34.777 C39.929,34.637 39.909,34.507 39.879,34.367 C39.859,34.287 39.83,34.197 39.79,34.117 C39.659,33.867 39.389,33.767 39.069,33.827 C38.799,33.887 38.71,34.007 38.689,34.367 C38.679,34.437 38.679,34.507 38.679,34.567 C38.689,34.987 38.71,35.017 39.139,35.067 C39.319,35.077 39.389,35.167 39.399,35.327 C39.399,35.517 39.29,35.617 39.099,35.597 C39.009,35.597 38.929,35.557 38.839,35.537 C38.669,35.507 38.569,35.577 38.569,35.757 C38.569,35.847 38.58,35.927 38.58,36.017 C38.599,36.707 38.169,37.017 37.54,36.777 C37.399,36.717 37.239,36.637 37.149,36.767 C36.919,37.097 36.549,37.347 36.599,37.837 C36.649,38.377 36.569,38.917 36.52,39.457 C36.499,39.747 36.409,39.987 36.129,40.087 C35.749,40.217 35.669,40.497 35.649,40.867 C35.629,41.737 35.629,42.617 35.519,43.477 C35.379,44.607 35.639,45.717 35.529,46.827 C35.529,46.867 35.54,46.897 35.549,46.927 C35.819,47.607 35.739,48.307 35.739,49.007 C35.739,49.217 35.749,49.417 35.839,49.617 C35.979,49.887 35.959,50.197 35.919,50.487 C35.899,50.617 35.799,50.667 35.699,50.577 C35.409,50.327 35.029,50.107 35.119,49.647 C35.279,48.887 34.929,48.137 35.069,47.387 C35.08,47.337 35.06,47.277 35.04,47.227 C34.839,46.607 34.639,45.977 34.719,45.297 C34.729,45.167 34.699,45.017 34.639,44.887 C34.31,44.137 34.33,43.327 34.299,42.537 C34.279,41.897 34.369,41.247 34.499,40.607 C34.549,40.327 34.54,40.057 34.369,39.807 C34.259,39.637 34.159,39.427 34.259,39.267 C34.529,38.827 34.479,38.377 34.419,37.897 C34.389,37.697 34.429,37.487 34.459,37.277 C34.54,36.787 34.549,36.787 34.049,36.637 C33.899,36.587 33.749,36.527 33.599,36.497 C33.469,36.477 33.319,36.537 33.339,36.687 C33.379,37.157 33.099,37.547 33.04,37.997 C32.929,38.737 32.879,39.497 32.909,40.227 C32.949,41.197 32.929,42.187 33.069,43.157 C33.139,43.567 33.119,43.987 32.999,44.397 C32.929,44.637 32.869,44.887 32.879,45.137 C32.879,45.277 32.899,45.407 32.949,45.537 C33.219,46.217 33.04,46.917 33.109,47.607 C33.149,48.047 33.139,48.507 33.199,48.957 C33.339,49.917 33.489,50.887 33.549,51.857 C33.549,51.927 33.549,52.007 33.569,52.067 C33.999,53.207 34.109,54.447 34.639,55.557 C34.759,55.787 34.879,55.947 35.159,55.857 C35.46,55.757 35.609,55.937 35.77,56.137 C35.879,56.297 35.909,56.497 35.999,56.667 C36.119,56.917 36.339,57.017 36.599,57.017 C36.849,57.017 36.969,56.867 36.979,56.617 C36.989,56.597 36.989,56.577 36.989,56.567 C37.009,56.487 37.049,56.427 37.129,56.427 C37.21,56.437 37.249,56.507 37.239,56.577 C37.21,56.897 37.399,57.137 37.52,57.407 C37.58,57.537 37.649,57.667 37.669,57.797 C37.71,58.217 37.949,58.547 38.189,58.867 C38.259,58.967 38.359,59.067 38.379,59.167 C38.509,59.797 38.929,60.217 39.359,60.627 C39.52,60.787 39.659,60.957 39.699,61.197 C39.739,61.477 39.889,61.677 40.129,61.817 C40.219,61.867 40.339,61.917 40.379,62.007 C40.659,62.547 41.149,62.907 41.569,63.307 C41.919,63.637 41.859,64.007 41.469,64.257 C41.009,64.567 40.619,64.957 40.319,65.437 C40.099,65.787 39.839,66.117 39.659,66.497 C39.54,66.747 39.21,66.897 39.109,66.777 C38.83,66.457 38.399,66.297 38.189,65.937 C37.96,65.537 37.649,65.267 37.249,65.067 C36.979,64.937 36.699,64.757 36.699,64.417 C36.699,64.067 36.52,63.877 36.259,63.697 C35.949,63.477 35.71,63.217 35.71,62.797 C35.71,62.627 35.589,62.527 35.489,62.397 C35.229,62.087 34.899,61.797 34.79,61.437 C34.659,60.997 34.529,60.577 34.299,60.187 C34.259,60.097 34.259,59.977 34.27,59.877 C34.319,59.487 34.199,59.127 34.009,58.827 C33.689,58.327 33.629,57.747 33.479,57.207 C33.249,56.377 33.129,55.507 32.849,54.687 C32.699,54.237 32.599,53.787 32.569,53.307 C32.54,52.857 32.58,52.377 32.449,51.957 C32.259,51.347 32.319,50.757 32.349,50.147 C32.359,49.917 32.369,49.697 32.379,49.467 C32.399,49.067 32.449,48.657 31.899,48.547 C31.979,48.407 32.08,48.377 32.179,48.347 C32.419,48.267 32.509,48.097 32.509,47.867 C32.499,47.287 32.58,46.717 32.439,46.147 C32.389,45.917 32.379,45.697 32.509,45.487 C32.569,45.377 32.609,45.267 32.609,45.167 C32.609,45.077 32.58,44.987 32.519,44.897 C32.399,44.737 32.46,44.567 32.469,44.397 C32.509,43.877 32.629,43.337 32.419,42.847 C32.27,42.507 32.209,42.187 32.209,41.837 C32.219,41.517 32.179,41.207 32.049,40.917 C31.779,40.307 31.779,40.297 31.179,40.587 C31.159,40.597 31.119,40.577 31.069,40.567 C31.069,40.517 31.049,40.467 31.04,40.417 C31.04,40.357 31.04,40.277 31.019,40.217 C30.839,39.677 30.219,39.487 29.859,39.847 C29.649,40.067 29.619,40.377 29.759,40.577 C30.099,41.067 30.109,41.577 30.149,42.137 C30.189,42.867 30.29,43.597 30.21,44.327 C30.179,44.567 30.199,44.817 30.299,45.047 C30.46,45.407 30.439,45.757 30.299,46.117 C30.229,46.297 30.169,46.477 30.219,46.677 C30.33,47.137 30.179,47.617 30.33,48.077 C30.359,48.167 30.33,48.287 30.299,48.387 C30.21,48.657 30.219,48.937 30.219,49.217 C30.189,49.987 30.31,50.747 30.299,51.517 C30.299,52.247 30.21,52.977 30.389,53.707 C30.469,54.027 30.46,54.367 30.479,54.697 C30.489,54.857 30.54,55.037 30.389,55.167 C30.299,55.147 30.259,55.107 30.259,55.057 C30.219,54.537 29.949,54.097 29.779,53.627 C29.729,53.487 29.649,53.357 29.509,53.327 C29.099,53.257 28.969,52.977 28.859,52.627 C28.799,52.427 28.799,52.207 28.719,52.017 C28.429,51.447 28.549,50.897 28.679,50.307 C28.799,49.757 28.899,49.197 28.979,48.637 C29.049,48.137 28.989,47.607 28.889,47.087 C28.79,46.597 28.54,46.317 28.06,46.187 C27.58,46.057 27.299,46.317 27.009,46.617 C26.849,46.787 26.799,46.987 26.949,47.187 C27.339,47.727 27.139,48.267 26.899,48.767 C26.739,49.107 26.629,49.437 26.599,49.807 C26.599,49.897 26.599,49.987 26.58,50.067 C26.509,50.447 26.429,50.507 26.04,50.527 C25.689,50.547 25.489,50.737 25.479,51.087 C25.469,51.187 25.509,51.297 25.499,51.397 C25.459,51.907 25.629,52.457 25.259,52.917 C25.169,53.017 25.27,53.147 25.259,53.267 C25.219,53.797 25.169,54.327 25.109,54.867 C25.099,54.917 25.069,54.967 25.04,54.997 C24.79,55.207 24.83,55.497 24.799,55.767 C24.729,56.277 24.629,56.767 24.029,56.917 C23.889,56.957 23.81,57.077 23.77,57.217 C23.739,57.317 23.719,57.427 23.669,57.517 C23.629,57.637 23.56,57.757 23.409,57.737 C23.259,57.717 23.219,57.587 23.209,57.467 C23.209,57.067 22.949,56.747 22.909,56.357 C22.899,56.177 22.759,56.047 22.619,55.947 C22.359,55.757 22.129,55.557 21.909,55.327 C21.52,54.927 20.969,55.097 20.81,55.627 C20.77,55.767 20.799,55.897 20.839,56.037 C21.149,56.987 21.33,57.957 21.299,58.957 C21.29,59.107 21.319,59.267 21.359,59.427 C21.449,59.817 21.489,60.217 21.489,60.617 C21.489,60.787 21.479,60.977 21.529,61.137 C21.639,61.537 21.619,61.937 21.629,62.337 C21.629,62.687 21.529,62.777 21.189,62.737 C21.029,62.717 20.849,62.697 20.749,62.567 C20.479,62.227 20.129,62.097 19.71,62.097 C19.619,62.087 19.499,62.067 19.419,61.967 C19.469,61.897 19.529,61.837 19.56,61.757 C19.639,61.567 19.519,61.267 19.33,61.117 C19.169,60.997 18.989,60.977 18.849,61.127 C18.449,61.567 18.029,61.997 18.049,62.657 C18.049,63.067 17.919,63.437 17.799,63.827 C17.669,64.297 17.56,64.807 17.679,65.307 C17.759,65.617 17.77,65.597 17.469,65.637 C16.849,65.707 16.529,66.197 16.639,66.717 C16.679,66.897 16.779,66.997 16.969,66.977 C17.06,66.967 17.139,66.937 17.229,66.927 C17.609,66.877 17.689,66.937 17.689,67.337 C17.699,67.907 17.689,68.487 17.699,69.067 C17.699,69.257 17.699,69.447 17.719,69.637 C17.759,69.887 17.839,70.137 18.04,70.347 C18.139,70.457 18.129,70.597 18.129,70.737 C18.139,71.117 18.179,71.477 18.479,71.747 C18.609,71.857 18.659,72.017 18.56,72.177 C18.379,72.477 18.509,72.737 18.629,73.017 C18.73,73.257 18.899,73.447 18.969,73.717 C19.089,74.167 19.29,74.597 19.279,75.087 C19.27,75.157 19.319,75.267 19.369,75.317 C19.699,75.637 19.669,76.137 19.989,76.457 C20.029,76.507 20.049,76.597 20.04,76.657 C19.989,76.987 20.109,77.227 20.389,77.417 C20.469,77.467 20.56,77.567 20.569,77.657 C20.639,78.147 21.06,78.457 21.21,78.907 C21.31,79.227 21.849,79.567 22.06,79.467 C22.399,79.297 22.569,79.437 22.739,79.707 C23.31,80.647 23.909,81.567 24.589,82.427 C24.799,82.687 25.089,82.857 25.27,83.137 C25.459,83.437 25.659,83.707 26.049,83.797 C26.29,83.847 26.31,84.037 26.149,84.237 C26.069,84.337 25.969,84.407 25.889,84.497 C25.56,84.837 25.149,85.087 24.819,85.417 C24.31,85.927 23.839,86.457 23.429,87.047 C23.319,87.217 23.189,87.307 22.999,87.257 C22.489,87.117 22.029,86.827 21.799,86.397 C21.609,86.047 21.369,85.767 21.139,85.467 C20.839,85.087 20.54,84.707 20.239,84.327 C20.08,84.137 19.999,83.967 19.979,83.727 C19.919,83.227 19.79,82.727 19.509,82.307 C19.21,81.847 19.029,81.357 18.919,80.827 C18.869,80.617 18.81,80.417 18.709,80.237 C18.52,79.917 18.369,79.587 18.369,79.207 C18.359,79.017 18.249,78.887 18.139,78.747 C17.739,78.177 17.519,77.527 17.429,76.857 C17.379,76.517 17.31,76.327 16.979,76.197 C16.56,76.017 16.479,75.727 16.719,75.307 C16.799,75.167 16.819,75.027 16.819,74.867 C16.769,73.767 16.979,72.677 16.989,71.577 C16.989,71.407 17.06,71.237 17.129,71.077 C17.239,70.837 17.279,70.567 17.249,70.307 C17.229,70.117 17.189,69.927 17.149,69.747 C17.009,69.207 16.759,68.707 16.389,68.267 C16.149,67.987 15.879,68.007 15.669,68.317 C15.489,68.577 15.479,68.877 15.56,69.177 C15.699,69.667 15.679,70.177 15.739,70.677 C15.819,71.297 15.56,71.927 15.799,72.537 C15.749,73.807 16.04,75.067 16.019,76.347 C15.999,77.117 16.219,77.867 16.229,78.637 C16.229,78.787 16.31,78.897 16.389,79.017 C16.699,79.497 16.869,80.057 16.919,80.587 C16.969,81.287 17.319,81.877 17.449,82.537 C17.509,82.847 17.58,83.197 17.779,83.467 C17.989,83.757 18.109,84.077 18.229,84.407 C18.33,84.667 18.479,84.907 18.609,85.147 C18.83,85.577 19.229,85.907 19.29,86.427 C19.33,86.767 19.519,87.037 19.799,87.247 C20.469,87.757 20.98,88.437 21.629,88.977 C21.799,89.117 21.929,89.317 21.739,89.507 C21.549,89.707 21.489,89.967 21.359,90.187 C21.199,90.477 21.109,90.817 20.83,91.017 C20.629,91.167 20.489,91.367 20.33,91.547 C20.08,91.807 19.979,92.147 19.769,92.427 C19.029,93.397 18.069,94.177 17.31,95.127 C17.299,95.147 17.279,95.157 17.259,95.177 L16.989,95.617 L15.261,98.458 L15.118,98.693 L14.659,99.447 L14.659,99.448 L14.549,99.627 C14.54,99.627 14.529,99.637 14.529,99.637 C14.519,99.637 14.519,99.647 14.519,99.647 C14.29,100.047 14.179,100.497 14.339,100.937 C14.29,101.057 14.249,101.177 14.219,101.327 C14.189,101.447 14.219,101.557 14.299,101.657 C14.259,101.827 14.299,101.947 14.409,102.037 C14.429,102.077 14.46,102.117 14.489,102.157 C14.516,102.184 14.543,102.202 14.57,102.219 L14.569,102.219 C14.554,102.223 14.548,102.232 14.534,102.235 C14.534,102.235 14.534,102.235 14.533,102.235 C14.531,102.236 14.531,102.237 14.529,102.237 L14.599,102.231 C14.613,102.241 14.638,102.242 14.653,102.251 C14.813,102.348 15.045,102.384 15.34,102.353 C15.396,102.348 15.438,102.358 15.499,102.347 C15.729,102.297 15.969,102.247 16.199,102.187 C16.202,102.191 16.219,102.191 16.227,102.194 C16.303,102.217 16.56,102.198 16.721,102.185 C16.777,102.181 16.823,102.177 16.839,102.177 C16.885,102.175 16.926,102.168 16.97,102.165 C17.178,102.15 17.376,102.121 17.57,102.082 C17.616,102.073 17.664,102.066 17.71,102.057 C18.149,102.327 18.929,102.177 19.519,101.897 C19.553,101.88 19.593,101.863 19.629,101.846 C19.636,101.843 19.643,101.84 19.649,101.837 L19.659,101.837 C19.909,101.697 20.119,101.537 20.219,101.377 C20.23,101.367 20.239,101.357 20.239,101.347 C20.359,101.257 20.479,101.157 20.589,101.057 C20.759,100.987 20.899,100.877 21.009,100.727 C21.019,100.707 21.019,100.707 21.029,100.697 C21.08,100.647 21.119,100.587 21.149,100.517 C21.159,100.497 21.179,100.477 21.189,100.457 C21.435,100.203 21.658,99.955 21.877,99.704 C21.925,99.648 21.982,99.593 22.029,99.537 C22.069,99.497 22.109,99.477 22.159,99.447 C22.342,99.176 22.502,98.93 22.655,98.693 C22.745,98.555 22.834,98.416 22.919,98.287 L22.969,98.207 L25.029,95.417 L25.319,95.017 C25.31,95.007 25.299,95.007 25.299,94.997 C25.219,94.737 25.479,94.607 25.639,94.457 C25.749,94.347 25.879,94.247 25.969,94.127 L25.989,94.107 C26.08,93.987 26.139,93.837 26.109,93.637 C26.069,93.257 26.589,93.187 26.599,92.817 C26.599,92.777 26.599,92.747 26.609,92.707 C26.679,92.347 26.889,92.147 27.259,92.197 C27.599,92.247 27.869,92.167 28.139,91.977 C28.239,91.917 28.369,91.857 28.489,91.857 C28.899,91.847 29.269,91.677 29.639,91.547 C29.859,91.457 30.08,91.437 30.31,91.447 C30.81,91.487 31.319,91.497 31.799,91.287 C31.879,91.257 31.979,91.247 32.06,91.257 C32.58,91.307 33.02,91.087 33.449,90.867 C33.909,90.647 34.369,90.437 34.889,90.407 C34.969,90.407 35.069,90.377 35.139,90.337 C35.899,89.877 36.749,89.617 37.54,89.207 C37.949,89.007 38.33,88.777 38.679,88.497 C38.819,88.377 38.919,88.187 39.069,88.077 C39.359,87.857 39.439,87.567 39.359,87.237 C39.29,86.997 39.349,86.897 39.599,86.837 C39.969,86.737 40.31,86.577 40.529,86.217 C40.629,86.027 40.83,85.937 41.02,85.837 C41.629,85.517 42.33,85.327 42.819,84.797 C42.889,84.737 43.009,84.727 43.119,84.707 C43.499,84.637 43.689,84.327 43.909,84.067 C44.009,83.947 43.959,83.827 43.81,83.787 C43.729,83.757 43.639,83.757 43.549,83.737 C43.389,83.707 43.31,83.597 43.31,83.447 C43.299,83.277 43.379,83.187 43.54,83.137 C43.749,83.077 43.969,82.997 44.179,82.927 C44.509,82.817 44.659,82.657 44.56,82.527 C44.399,82.327 44.179,82.397 43.989,82.467 C43.33,82.697 42.879,82.567 42.489,82.027 C42.409,81.907 42.439,81.827 42.529,81.757 C42.609,81.697 42.709,81.607 42.799,81.607 C43.269,81.587 43.609,81.297 43.98,81.087 C44.119,81.007 44.249,80.927 44.399,80.867 C44.599,80.787 44.709,80.907 44.649,81.127 C44.609,81.257 44.529,81.397 44.669,81.507 C44.819,81.627 44.969,81.557 45.109,81.467 C45.239,81.387 45.359,81.287 45.459,81.167 C45.619,80.977 45.77,80.777 45.96,80.637 C46.269,80.407 46.489,80.057 46.879,79.957 C47.279,79.857 47.699,79.817 47.98,79.447 C48.009,79.397 48.099,79.397 48.159,79.357 C48.56,79.127 49.069,79.037 49.239,78.517 C49.259,78.467 49.339,78.407 49.399,78.397 C49.869,78.347 50.23,78.037 50.639,77.887 C51.219,77.677 51.649,77.237 52.209,76.987 C52.409,76.897 52.619,76.837 52.819,76.737 C53.239,76.517 53.52,76.157 53.849,75.857 C54.279,75.477 54.359,74.937 54.48,74.427 C54.489,74.367 54.449,74.287 54.419,74.227 C54.06,73.687 53.719,73.137 53.159,72.787 C53.049,72.717 52.939,72.667 52.81,72.717 C52.679,72.767 52.56,72.857 52.56,73.017 C52.56,73.167 52.689,73.207 52.81,73.237 C52.919,73.257 53.019,73.257 53.119,73.287 C53.27,73.327 53.359,73.427 53.389,73.577 C53.409,73.727 53.319,73.807 53.199,73.867 C53.009,73.957 52.849,74.107 52.729,74.277 C52.339,74.817 51.919,75.347 51.389,75.777 C51.31,75.847 51.229,75.927 51.179,76.017 C50.959,76.397 50.699,76.697 50.189,76.597 C50.129,76.587 50.06,76.627 49.989,76.647 C49.509,76.827 48.989,76.867 48.54,77.167 C48.27,77.347 47.929,77.427 47.629,77.567 C47.06,77.857 46.489,78.157 45.919,78.457 C45.81,78.507 45.689,78.547 45.58,78.577 C44.569,78.857 43.669,79.367 42.799,79.897 C42.27,80.207 41.759,80.447 41.169,80.557 C40.929,80.607 40.689,80.667 40.509,80.847 C40.359,80.997 40.189,81.027 39.989,81.037 C39.409,81.067 38.849,81.257 38.369,81.557 C37.869,81.877 37.379,82.107 36.79,82.127 C36.609,82.127 36.449,82.187 36.29,82.257 C36.109,82.327 35.919,82.387 35.729,82.387 C35.499,82.377 35.29,82.457 35.08,82.557 C34.689,82.727 34.29,82.937 33.83,82.847 C33.709,82.827 33.58,82.867 33.499,82.977 C33.399,83.107 33.379,83.257 33.56,83.307 C33.859,83.387 34.139,83.517 34.479,83.387 C34.899,83.217 35.339,83.097 35.799,83.127 C36.029,83.137 36.239,83.047 36.429,82.907 C36.619,82.777 36.83,82.687 37.069,82.697 C37.459,82.717 37.83,82.637 38.209,82.557 C38.46,82.507 38.719,82.487 39.009,82.527 C38.689,82.967 38.31,83.227 37.819,83.257 C37.509,83.277 37.279,83.367 37.099,83.617 C36.969,83.787 36.79,83.837 36.589,83.717 C36.469,83.637 36.339,83.577 36.199,83.627 C35.58,83.867 34.909,83.927 34.279,84.127 C33.799,84.287 33.299,84.377 32.83,84.567 C32.449,84.727 32.02,84.807 31.599,84.767 C31.29,84.747 31.189,84.587 31.299,84.307 C31.459,83.887 31.629,83.467 31.799,83.047 C31.96,82.627 32.27,82.417 32.719,82.407 C32.969,82.407 33.199,82.367 33.439,82.287 C34.089,82.077 34.729,81.867 35.429,81.867 C35.649,81.867 35.869,81.797 36.08,81.697 C36.399,81.527 36.719,81.337 37.109,81.357 C37.199,81.357 37.299,81.287 37.389,81.237 C37.529,81.157 37.679,81.097 37.839,81.107 C38.33,81.137 38.699,80.887 39.06,80.597 C39.189,80.507 39.31,80.407 39.479,80.397 C39.699,80.377 39.869,80.277 40.04,80.147 C40.219,80.007 40.429,79.937 40.659,79.877 C41.249,79.717 41.849,79.547 42.349,79.207 C42.819,78.897 43.349,78.707 43.759,78.317 C43.839,78.237 43.969,78.167 44.08,78.147 C44.589,78.047 44.859,77.647 45.169,77.297 C45.409,77.027 45.369,76.957 45.02,76.867 C44.889,76.837 44.769,76.817 44.79,76.647 C44.83,76.397 45.069,76.187 45.339,76.177 C45.509,76.167 45.679,76.197 45.839,76.277 C46.08,76.387 46.279,76.367 46.459,76.157 C46.549,76.047 46.659,75.947 46.81,75.967 C47.419,76.037 47.819,75.537 48.369,75.427 C48.569,75.387 48.689,75.147 48.54,74.967 C48.319,74.717 48.279,74.397 48.169,74.107 C48.119,73.977 48.06,73.847 47.889,73.857 C47.739,73.867 47.699,73.987 47.649,74.107 C47.489,74.597 47.139,74.847 46.619,74.807 C45.749,74.727 44.919,74.957 44.099,75.177 C43.779,75.257 43.449,75.327 43.149,75.457 C42.56,75.697 41.999,76.037 41.319,75.977 C41.189,75.967 41.08,76.037 41.029,76.157 C40.96,76.317 41.089,76.367 41.189,76.437 C41.259,76.487 41.349,76.517 41.409,76.577 C41.619,76.757 41.609,76.947 41.369,77.067 C40.96,77.287 40.499,77.427 40.149,77.747 C39.249,77.927 38.589,78.637 37.699,78.857 C37.499,78.897 37.33,79.037 37.169,79.177 C37.019,79.307 36.859,79.427 36.669,79.447 C36.189,79.517 35.83,79.877 35.339,79.917 C35.249,79.927 35.149,80.007 35.08,80.077 C34.859,80.307 34.569,80.367 34.279,80.437 C34.129,80.467 33.969,80.567 33.849,80.407 C33.729,80.257 33.749,80.077 33.839,79.907 C33.889,79.797 33.96,79.697 34.029,79.597 C34.179,79.337 34.549,79.357 34.689,79.107 C34.819,78.877 34.81,78.567 35.04,78.367 C35.219,78.207 35.349,77.997 35.439,77.757 C35.499,77.567 35.649,77.457 35.81,77.347 C36.179,77.107 36.56,76.907 36.939,76.707 C37.319,76.507 37.599,76.147 37.899,75.827 C38.389,75.287 38.399,75.127 37.919,74.557 C37.769,74.377 37.739,74.227 37.909,74.057 C38.04,73.917 38.179,73.787 38.249,73.597 C38.46,73.067 38.819,72.637 39.189,72.227 C39.419,71.977 39.679,71.737 39.79,71.447 C39.909,71.107 40.139,70.847 40.279,70.527 C40.399,70.267 40.629,70.037 40.899,69.907 C41.479,69.617 42.089,69.417 42.749,69.377 C43.299,69.337 43.869,69.327 44.409,69.187 C45.129,68.997 45.849,68.937 46.58,68.917 C46.859,68.907 47.149,68.887 47.399,68.757 C48.339,68.237 49.469,68.307 50.389,67.737 C50.419,67.717 50.46,67.717 50.499,67.717 C51.459,67.627 52.269,67.117 53.149,66.797 C53.569,66.637 53.959,66.367 54.389,66.237 C54.929,66.067 55.33,65.737 55.739,65.377 C56,65.147 56.259,64.927 56.599,64.807 C56.779,64.747 56.989,64.687 57.089,64.527 C57.359,64.107 57.779,63.987 58.209,63.907 C59.139,63.717 59.869,63.237 60.519,62.567 C60.909,62.177 61.089,61.777 61.029,61.217 C60.96,60.657 61.08,60.517 61.609,60.427 C62.169,60.347 62.489,59.927 62.899,59.627 C62.96,59.597 62.999,59.527 63.029,59.467 C63.119,59.297 63.049,59.177 62.869,59.187 C62.319,59.197 61.749,59.167 61.209,59.277 C60.299,59.467 59.379,59.497 58.449,59.507 C58.369,59.507 58.279,59.487 58.199,59.447 C58.119,59.417 58.069,59.337 58.069,59.237 C58.099,58.927 58.54,58.527 58.859,58.577 C59.089,58.607 59.189,58.507 59.33,58.337 C59.529,58.087 59.739,57.797 60.129,57.817 C60.449,57.837 60.669,57.657 60.909,57.477 C61.319,57.177 61.58,56.717 62.04,56.477 C62.139,56.427 62.169,56.327 62.119,56.207 C62.08,56.087 62,56.007 61.859,55.987 C61.71,55.967 61.549,56.027 61.499,56.147 C61.23,56.807 60.589,56.937 60.04,57.207 C59.999,57.237 59.949,57.257 59.909,57.287 C59.419,57.577 58.959,57.927 58.339,57.917 C57.909,57.917 57.48,57.997 57.049,58.077 C56.75,58.127 56.489,58.287 56.199,58.327 C55.719,58.387 55.31,58.607 54.919,58.877 C54.739,59.007 54.549,59.057 54.339,59.057 C54.109,59.067 53.879,59.037 53.669,59.157 C53.149,59.477 52.569,59.607 51.989,59.737 C51.459,59.857 50.939,59.997 50.469,60.267 C50.339,60.347 50.209,60.377 50.069,60.377 C49.799,60.387 49.56,60.447 49.319,60.587 C49.23,60.657 49.089,60.667 48.969,60.687 C48.83,60.697 48.679,60.687 48.589,60.557 C48.489,60.417 48.599,60.287 48.669,60.177 C48.819,59.937 49.049,59.727 49.109,59.477 C49.23,59.027 49.489,58.967 49.879,58.977 C50.349,58.977 50.849,59.037 51.29,58.877 C52.06,58.587 52.879,58.547 53.659,58.287 C54.569,57.997 55.529,57.887 56.469,57.707 C56.819,57.637 57.149,57.457 57.189,57.107 C57.229,56.687 57.419,56.347 57.54,55.967 C57.73,55.387 58.119,55.047 58.699,54.877 C58.969,54.797 59.299,54.717 59.389,54.397 C59.449,54.187 59.52,54.007 59.709,53.877 C59.79,53.807 59.839,53.697 59.779,53.597 C59.719,53.487 59.609,53.477 59.499,53.497 C59.31,53.527 59.129,53.577 58.959,53.667 C58.849,53.727 58.759,53.757 58.689,53.627 C58.54,53.377 58.299,53.397 58.089,53.467 C57.449,53.647 56.79,53.577 56.149,53.817 C55.749,53.967 55.279,53.937 54.839,54.097 C54.349,54.287 53.839,54.467 53.279,54.417 C53.189,54.407 53.089,54.487 52.989,54.527 C52.719,54.657 52.419,54.687 52.129,54.757 C52.049,54.777 51.96,54.737 51.909,54.657 C51.859,54.557 51.909,54.477 51.979,54.427 C52.129,54.287 52.299,54.167 52.349,53.937 C52.389,53.677 52.469,53.427 52.54,53.177 C52.639,52.807 53.04,52.477 53.419,52.477 C54.549,52.507 55.689,52.517 56.819,52.587 C57.519,52.637 58.209,52.487 58.909,52.567 C58.969,52.577 59.049,52.567 59.109,52.527 C59.569,52.287 60.08,52.267 60.589,52.267 C60.849,52.267 61.069,52.227 61.139,51.907 C61.189,51.677 61.439,51.597 61.529,51.727 C61.899,52.247 62.419,52.237 62.949,52.257 C63.009,52.257 63.069,52.317 63.139,52.337 C63.48,52.397 63.83,52.447 64.129,52.187 C64.349,52.007 64.349,51.907 64.08,51.797 C63.879,51.707 63.79,51.597 63.779,51.367 C63.77,50.997 63.73,50.967 63.339,50.957 C62.98,50.947 62.609,50.977 62.249,50.917 C61.739,50.847 61.239,50.847 60.739,50.977 C60.56,51.017 60.389,51.047 60.219,50.967 C59.799,50.737 59.349,50.767 58.889,50.797 C58.719,50.817 58.549,50.837 58.379,50.747 C58.169,50.647 58.149,50.507 58.31,50.337 C58.469,50.177 58.669,50.157 58.889,50.157 C59.319,50.167 59.709,50.087 60.08,49.827 C60.379,49.627 60.719,49.497 61.119,49.577 C61.269,49.607 61.429,49.597 61.569,49.507 C62.179,49.117 62.879,48.957 63.529,48.647 C63.899,48.467 64.299,48.347 64.54,47.967 C64.58,47.897 64.669,47.817 64.739,47.817 C65.23,47.817 65.599,47.457 66.089,47.437 C66.429,47.427 66.849,47.337 67.069,47.047 C67.469,46.507 67.939,46.287 68.599,46.467 C68.949,46.567 69.249,46.457 69.509,46.207 C69.699,46.027 69.869,45.827 70.099,45.697 C70.52,45.457 70.649,45.207 70.549,44.757 C70.469,44.367 70.419,43.957 69.999,43.737 C69.869,43.677 69.819,43.517 69.869,43.367 C69.929,43.207 70.069,43.197 70.219,43.187 C70.46,43.187 70.689,43.247 70.919,43.357 C71.389,43.557 71.799,43.317 71.899,42.817 C71.939,42.607 71.96,42.397 71.989,42.197 C72.009,42.017 72.069,41.807 72.239,41.757 C72.669,41.627 73.089,41.327 73.509,41.307 C74.06,41.267 74.56,41.277 75.069,40.957 C75.619,40.607 75.969,40.207 76.009,39.557 C76.02,39.367 75.969,39.147 76.119,39.007 C76.529,38.597 76.949,38.217 77.369,37.827 C77.399,37.797 77.429,37.797 77.469,37.777 C77.939,37.587 77.939,37.587 77.669,37.117 C77.659,37.097 77.689,37.057 77.699,37.017 C77.96,36.887 78.31,37.057 78.529,36.797 C78.73,36.567 78.979,36.547 79.25,36.607 C79.489,36.667 79.729,36.687 79.959,36.537 C80.049,36.477 80.159,36.467 80.259,36.487 C80.75,36.587 81.139,36.397 81.509,36.117 C81.609,36.037 81.719,35.977 81.849,35.987 C82.319,36.017 82.699,35.867 83.099,35.587 C83.619,35.227 83.649,35.277 83.23,34.787 C83.199,34.757 83.189,34.727 83.159,34.697 C82.839,34.387 82.159,34.347 81.819,34.637 C81.699,34.747 81.58,34.817 81.409,34.837 C80.439,34.977 79.469,34.997 78.489,35.037 C78.27,35.047 78.08,34.937 77.889,34.867 C77.799,34.837 77.73,34.777 77.75,34.677 C77.77,34.577 77.869,34.567 77.96,34.557 C78.129,34.547 78.349,34.607 78.48,34.527 C78.869,34.277 79.27,34.117 79.739,34.127 C79.899,34.137 79.959,33.987 79.899,33.817 C79.869,33.727 79.719,33.677 79.839,33.517 C80.009,33.517 80.199,33.547 80.379,33.507 C80.619,33.467 80.83,33.427 80.989,33.657 C81.049,33.747 81.149,33.787 81.269,33.747 C81.5,33.687 81.839,33.267 81.819,33.007 C81.799,32.817 81.879,32.757 82.019,32.697 C82.159,32.627 82.31,32.587 82.469,32.547 C82.999,32.427 83.549,32.467 84.089,32.447 C84.489,32.417 84.79,32.247 84.96,31.887 C85.08,31.647 85.219,31.507 85.48,31.437 C85.839,31.327 85.909,31.107 85.739,30.787 C85.569,30.457 85.389,30.247 85.169,30.247 C85.019,30.247 84.839,30.347 84.629,30.587 C84.439,30.797 84.23,30.827 83.98,30.817 C83.759,30.807 83.569,30.737 83.409,30.597 C83.159,30.397 82.879,30.387 82.619,30.527 C82.349,30.687 82.58,30.897 82.629,31.077 C82.659,31.207 82.639,31.327 82.52,31.407 C82.409,31.477 82.29,31.467 82.179,31.397 C82.109,31.347 82.049,31.287 81.989,31.217 C81.839,31.057 81.649,30.997 81.459,31.057 C80.659,31.287 79.869,31.547 79.009,31.487 C78.589,31.767 78.099,31.647 77.639,31.727 C77.489,31.747 77.319,31.717 77.169,31.787 C76.77,31.997 76.339,31.967 75.949,31.847 C75.48,31.717 75.02,31.687 74.549,31.667 C74.299,31.657 74.06,31.617 73.849,31.487 C73.689,31.397 73.659,31.277 73.839,31.177 C74.089,31.047 74.31,30.887 74.589,30.827 C74.949,30.757 75.189,30.527 75.31,30.197 C75.409,29.947 75.529,29.737 75.749,29.567 C75.899,29.457 76.049,29.317 76.149,29.157 C76.279,28.957 76.419,28.827 76.58,28.747 C76.879,28.597 77.239,28.627 77.619,28.697 C78.049,28.767 78.449,28.937 78.879,28.987 C79.259,29.027 79.599,29.127 79.929,29.297 C80.139,29.397 80.349,29.447 80.58,29.447 L81.419,29.447 C81.759,29.457 82.109,29.447 82.399,29.587 C82.869,29.827 83.339,29.837 83.819,29.777 C84.049,29.757 84.249,29.777 84.429,29.867 C84.679,29.997 84.929,30.027 85.189,30.047 C85.279,30.057 85.359,30.057 85.449,30.067 C86.29,30.137 87.129,29.947 87.96,30.037 C88.949,30.137 89.949,30.127 90.939,30.167 C91.17,30.177 91.409,30.187 91.56,29.967 C91.719,29.717 91.98,29.557 92.159,29.317 C92.439,28.937 92.83,28.707 93.31,28.657 C93.43,28.647 93.549,28.627 93.649,28.557 C94.199,28.207 94.789,27.957 95.369,27.667 C95.77,27.467 95.869,27.137 95.649,26.817 C95.43,26.497 95.139,26.447 94.81,26.747 C94.42,27.087 93.969,27.227 93.469,27.247 C93.1,27.257 92.75,27.307 92.389,27.427 C91.819,27.617 91.279,27.687 90.71,27.287 C90.219,26.927 89.609,26.787 88.969,26.917 C88.679,26.977 88.379,26.927 88.08,26.917 C88.009,26.917 87.939,26.877 87.919,26.797 C87.909,26.697 87.98,26.637 88.069,26.627 C88.279,26.597 88.489,26.557 88.699,26.567 C89.489,26.607 90.269,26.527 91.029,26.347 C91.399,26.257 91.76,26.157 92.139,26.257 C92.17,26.267 92.209,26.267 92.25,26.257 C93.17,26.047 94.159,26.147 95.06,25.767 C95.149,25.727 95.26,25.747 95.369,25.747 C95.529,25.747 95.68,25.727 95.83,25.667 C96.299,25.477 96.76,25.407 97.25,25.597 C97.529,25.697 97.799,25.667 97.969,25.357 C98.129,25.087 98.399,25.007 98.699,25.017 C98.989,25.017 99.139,24.837 99.26,24.617 C99.359,24.447 99.31,24.307 99.119,24.247 C98.949,24.177 98.73,24.207 98.619,24.007 C98.42,24.017 98.219,23.987 98.09,23.817 C97.84,23.837 97.58,23.907 97.379,23.677 C97.319,23.707 97.279,23.687 97.25,23.637 C96.709,23.647 96.17,23.657 95.629,23.667 C95.51,23.667 95.379,23.677 95.26,23.657 C95.069,23.627 95.039,23.497 95.139,23.347 C95.27,23.177 95.449,23.037 95.67,23.047 C96.1,23.057 96.439,22.897 96.739,22.597 C96.77,22.567 96.859,22.577 96.93,22.567 C97.609,22.207 98.35,21.967 98.85,21.337 C98.909,21.267 99,21.247 99.09,21.237 C99.189,21.227 99.299,21.207 99.359,21.107 C99.649,20.687 99.989,20.277 99.84,19.707 C99.819,19.627 99.84,19.537 99.84,19.447 L99.84,19.447 Z M92.069,15.967 C92.23,15.947 92.35,16.017 92.34,16.207 C92.319,16.417 92.159,16.427 92.02,16.437 C91.83,16.427 91.639,16.397 91.649,16.197 C91.67,15.987 91.909,15.997 92.069,15.967 L92.069,15.967 Z M44.089,43.497 C44.069,43.587 44.009,43.647 43.919,43.657 C43.879,43.647 43.83,43.647 43.81,43.627 C43.659,43.407 43.399,43.387 43.179,43.297 C42.919,43.197 42.869,43.007 43.049,42.817 C43.23,42.617 43.379,42.277 43.679,42.317 C44,42.357 43.929,42.767 44.08,42.987 C44.169,43.127 44.119,43.327 44.089,43.497 L44.089,43.497 Z M20.239,66.207 C20.149,66.397 20.109,66.687 19.779,66.577 C19.459,66.487 19.259,66.217 19.29,65.927 C19.349,65.417 19.599,65.047 20.149,64.837 C20.189,65.307 20.479,65.737 20.239,66.207 L20.239,66.207 Z M27.119,82.247 C26.979,82.337 26.859,82.307 26.729,82.227 C26.389,82.047 26.179,81.697 25.83,81.527 C25.769,81.497 25.749,81.377 25.729,81.297 C25.689,81.117 25.599,80.977 25.439,80.877 C25.179,80.717 25.049,80.487 24.999,80.197 C24.979,80.067 24.929,79.967 24.839,79.867 C24.359,79.367 24.169,78.707 23.859,78.097 C23.81,78.007 23.799,77.897 23.79,77.847 C23.79,77.727 23.79,77.657 23.859,77.617 C23.929,77.577 23.999,77.627 24.049,77.667 C24.529,78.087 25.089,78.407 25.319,79.077 C25.429,79.387 25.679,79.677 26.049,79.777 C26.369,79.877 26.54,80.167 26.759,80.377 C27.06,80.657 27.349,80.917 27.709,81.107 C28.099,81.307 28.119,81.547 27.769,81.817 C27.569,81.977 27.339,82.107 27.119,82.247 L27.119,82.247 Z M31.27,86.177 C31.349,86.127 31.429,86.067 31.509,86.067 C32.119,86.037 32.669,85.717 33.299,85.747 C33.669,85.757 34.009,85.657 34.359,85.527 C34.869,85.337 35.429,85.387 35.969,85.327 C36.399,85.277 36.849,85.317 37.259,85.257 C37.879,85.167 38.509,85.237 39.119,85.057 C39.469,84.967 39.839,84.927 40.21,84.957 C40.299,84.967 40.389,85.007 40.379,85.117 C40.369,85.187 40.319,85.237 40.239,85.257 C40.229,85.267 40.21,85.277 40.189,85.277 C39.58,85.197 39.169,85.647 38.679,85.887 C37.96,86.227 37.279,86.637 36.639,87.107 C36.56,87.177 36.469,87.247 36.359,87.227 C36.04,87.157 35.779,87.307 35.519,87.447 C35.399,87.517 35.259,87.567 35.119,87.547 C34.879,87.527 34.669,87.577 34.499,87.757 C34.459,87.787 34.409,87.827 34.359,87.827 C33.56,87.867 33.02,88.507 32.27,88.667 C32.31,88.887 32.409,88.927 32.489,88.987 C32.659,89.117 32.679,89.267 32.609,89.457 C32.54,89.647 32.419,89.787 32.189,89.787 C31.669,89.777 31.239,90.067 30.79,90.257 C30.709,90.297 30.639,90.377 30.56,90.387 C29.599,90.497 28.759,91.097 27.759,91.087 C27.709,91.087 27.659,91.097 27.599,91.097 C27.369,91.087 27.31,90.987 27.439,90.807 C27.629,90.557 27.839,90.317 28.149,90.197 C28.689,89.977 28.96,89.457 29.359,89.077 C29.389,89.047 29.419,88.967 29.409,88.937 C29.279,88.537 29.549,88.277 29.719,87.977 C29.879,87.697 30.129,87.457 30.04,87.077 C30.019,86.977 30.109,86.887 30.21,86.837 C30.56,86.617 30.919,86.397 31.27,86.177 L31.27,86.177 Z M31.719,77.027 C31.149,77.527 30.79,78.187 30.429,78.837 C30.21,79.227 29.959,79.417 29.449,79.417 C29.169,79.387 28.839,79.187 28.529,78.977 C27.529,78.277 26.58,77.507 25.729,76.627 C25.369,76.257 25.089,75.817 24.919,75.317 C24.689,74.677 24.449,74.037 23.979,73.517 C23.869,73.397 23.819,73.257 23.779,73.097 C23.649,72.577 23.54,72.047 23.189,71.617 C23.049,71.447 23.069,71.217 23.04,71.007 C22.949,70.447 22.909,69.867 22.719,69.317 C22.689,69.257 22.679,69.177 22.689,69.117 C22.71,68.977 22.819,68.917 22.909,69.017 C23.129,69.237 23.33,69.467 23.379,69.807 C23.469,70.437 23.739,70.977 24.189,71.457 C24.749,72.047 25.349,72.607 25.969,73.127 C26.069,73.197 26.159,73.317 26.29,73.207 C26.389,73.127 26.339,73.017 26.29,72.927 C26.189,72.747 26.159,72.567 26.149,72.367 C26.149,72.187 26.08,72.027 25.989,71.877 C25.71,71.347 25.419,70.827 25.359,70.197 C25.319,69.817 25.139,69.447 24.909,69.097 C24.689,68.757 24.589,68.327 24.509,67.927 C24.449,67.657 24.479,67.377 24.269,67.147 C24.159,67.027 24.299,66.777 24.489,66.697 C24.709,66.607 24.749,66.767 24.81,66.927 C25.119,67.807 25.379,68.717 25.939,69.497 C25.96,70.077 26.389,70.447 26.639,70.907 C27.099,71.727 27.549,72.547 28.27,73.177 C28.589,73.467 28.879,73.797 29.169,74.117 C29.31,74.267 29.429,74.417 29.629,74.457 C29.889,74.517 29.949,74.787 30.139,74.947 C30.629,75.337 31.169,75.657 31.669,76.037 C32.08,76.357 32.109,76.677 31.719,77.027 L31.719,77.027 Z M35.159,72.337 C35.149,72.357 35.139,72.367 35.129,72.377 C34.629,72.737 34.389,73.277 34.169,73.827 C33.879,74.547 33.389,74.597 32.879,74.017 C32.469,73.567 32.04,73.137 31.609,72.697 C31.419,72.497 31.219,72.307 31.169,72.017 C31.139,71.867 31.049,71.767 30.979,71.647 C30.719,71.237 30.31,70.917 30.21,70.417 C29.56,69.817 29.499,68.927 29.109,68.197 C28.999,67.997 28.929,67.797 28.759,67.627 C28.479,67.347 28.529,66.937 28.449,66.597 C28.369,66.207 28.27,65.857 28.029,65.547 C27.969,65.477 27.909,65.387 27.909,65.307 C27.909,64.787 27.569,64.307 27.749,63.767 C27.779,63.667 27.759,63.547 27.689,63.467 C27.479,63.217 27.499,62.917 27.499,62.627 C27.499,62.487 27.489,62.347 27.509,62.207 C27.509,62.117 27.56,62.037 27.659,62.017 C27.759,62.007 27.839,62.067 27.849,62.157 C27.889,62.457 28.119,62.677 28.179,62.977 C28.29,63.507 28.83,63.687 29.269,63.367 C29.339,63.317 29.389,63.247 29.46,63.187 C29.669,63.007 29.79,63.027 29.849,63.307 C29.919,63.627 30.099,63.887 30.249,64.157 C30.409,64.447 30.54,64.737 30.599,65.077 C30.659,65.427 30.849,65.757 31.06,66.057 C31.179,66.247 31.339,66.427 31.419,66.627 C31.679,67.357 32.259,67.907 32.54,68.617 C32.569,68.697 32.629,68.777 32.689,68.827 C33.139,69.127 33.379,69.597 33.709,69.997 C33.799,70.107 33.889,70.207 33.999,70.297 C34.449,70.667 34.839,71.087 35.179,71.547 C35.399,71.827 35.399,72.067 35.159,72.337 L35.159,72.337 Z M38.159,68.137 C37.819,68.587 37.659,69.187 37.119,69.487 C36.999,69.557 36.879,69.617 36.739,69.647 C36.499,69.697 36.319,69.647 36.129,69.477 C35.389,68.827 34.759,68.087 34.189,67.297 C34.109,67.177 34.019,67.077 33.919,66.977 C33.629,66.687 33.399,66.397 33.319,65.967 C33.219,65.457 32.79,65.117 32.519,64.697 C32.389,64.487 32.29,64.317 32.319,64.077 C32.349,63.807 32.29,63.557 32.109,63.337 C31.949,63.147 31.96,62.877 31.899,62.647 C31.759,62.127 31.419,61.677 31.409,61.127 C31.409,61.017 31.339,60.927 31.259,60.857 C30.979,60.617 30.909,60.307 30.989,59.857 C31.04,59.677 30.96,59.447 30.779,59.227 C30.449,58.837 30.52,58.377 30.609,57.927 C30.629,57.817 30.689,57.727 30.819,57.737 C30.949,57.737 30.979,57.847 30.989,57.957 C31.029,58.407 31.249,58.827 31.21,59.297 C31.199,59.357 31.199,59.447 31.239,59.497 C31.629,59.987 31.659,60.637 31.989,61.147 C32.249,61.527 32.549,61.877 33.089,61.807 C33.279,61.787 33.409,61.897 33.529,62.037 C33.879,62.457 34.119,62.937 34.349,63.427 C34.489,63.727 34.679,63.967 34.939,64.147 C35.149,64.277 35.33,64.447 35.499,64.617 C35.669,64.797 35.839,64.957 36.109,64.987 C36.33,65.007 36.479,65.157 36.58,65.357 C36.639,65.487 36.719,65.607 36.81,65.707 C36.96,65.867 36.999,66.027 36.909,66.227 C36.81,66.447 36.859,66.647 37.06,66.777 C37.459,67.037 37.639,67.517 38.06,67.767 C38.179,67.837 38.259,68.017 38.159,68.137 L38.159,68.137 Z M41.77,60.757 C41.589,60.477 41.349,60.247 41.139,59.997 C41.069,59.927 40.96,59.847 41.06,59.737 C41.139,59.657 41.259,59.677 41.359,59.707 C41.379,59.717 41.389,59.727 41.399,59.737 C41.939,60.357 42.709,60.707 43.239,61.337 C43.389,61.517 43.399,61.707 43.359,61.927 C43.33,62.037 43.259,62.107 43.139,62.117 C43.029,62.127 42.929,62.087 42.869,61.987 C42.599,61.487 42.08,61.217 41.77,60.757 L41.77,60.757 Z M44.939,67.227 C44.609,67.357 44.29,67.477 43.949,67.557 C43.729,67.617 43.509,67.627 43.31,67.757 C43.159,67.857 42.96,67.897 42.83,67.747 C42.709,67.607 42.799,67.437 42.849,67.297 C42.919,67.087 43.06,66.927 43.279,66.877 C43.52,66.817 43.759,66.787 44,66.747 C44.259,66.877 44.52,66.807 44.779,66.757 C44.929,66.737 45.119,66.727 45.169,66.927 C45.219,67.097 45.06,67.177 44.939,67.227 L44.939,67.227 Z M49.379,62.337 C49.509,62.337 49.639,62.367 49.749,62.327 C50.169,62.137 50.599,62.247 51.029,62.257 C52.06,62.277 53.099,62.327 54.099,62.107 C54.799,61.947 55.52,62.037 56.199,61.877 C56.779,61.737 57.359,61.637 57.949,61.567 C58.149,61.537 58.349,61.477 58.58,61.587 C58.449,62.097 58.069,62.417 57.659,62.577 C57.259,62.727 56.869,63.077 56.379,62.857 C56.349,62.847 56.31,62.857 56.279,62.877 C55.54,63.277 54.679,63.327 53.939,63.737 C53.58,63.947 53.129,64.057 52.719,64.147 C52.119,64.277 51.529,64.467 50.969,64.657 C50.31,64.887 49.619,65.007 48.989,65.277 C48.659,65.427 48.299,65.407 47.959,65.477 C46.849,65.707 45.729,65.817 44.589,65.847 C44.429,65.847 44.219,65.917 44.159,65.677 C44.099,65.477 44.219,65.337 44.369,65.237 C44.549,65.107 44.739,64.987 44.979,64.957 C45.169,64.927 45.349,64.877 45.54,64.837 C46.369,64.657 46.679,64.057 46.799,63.297 C46.83,63.057 46.869,62.817 46.879,62.567 C46.889,62.287 47.04,62.227 47.29,62.247 C47.989,62.287 48.689,62.307 49.379,62.337 L49.379,62.337 Z M53,55.847 C53.549,55.807 54.109,55.817 54.669,55.797 C54.77,55.797 54.899,55.807 54.909,55.937 C54.919,56.037 54.819,56.097 54.739,56.107 C53.999,56.207 53.389,56.677 52.679,56.827 C52.169,56.937 51.679,57.057 51.219,57.297 C51.029,57.387 50.81,57.407 50.609,57.457 C50.339,57.527 50.169,57.387 50.04,57.187 C49.889,56.977 50.049,56.837 50.149,56.677 C50.469,56.207 50.899,56.007 51.469,56.107 C51.999,56.207 52.469,55.897 53,55.847 L53,55.847 Z M51.839,49.527 C51.669,49.617 51.549,49.527 51.429,49.407 C51.149,49.127 50.869,48.857 50.739,48.447 C50.589,47.947 50.219,47.537 50.159,46.997 C50.159,46.947 50.119,46.897 50.089,46.857 C49.529,46.307 49.48,45.597 49.469,44.877 C49.459,44.347 49.219,43.867 49.119,43.357 C49.08,43.137 49.009,42.917 49.02,42.687 C49.029,42.377 49.04,42.057 48.849,41.777 C48.77,41.657 48.779,41.507 48.839,41.347 C48.839,41.287 48.859,41.197 48.839,41.117 C48.649,40.347 48.689,39.567 48.669,38.787 C48.659,38.227 48.639,37.667 48.569,37.117 C48.549,36.977 48.54,36.837 48.549,36.697 C48.569,36.557 48.669,36.497 48.81,36.487 C48.96,36.487 49.08,36.567 49.06,36.697 C48.969,37.237 49.459,37.717 49.219,38.277 C49.189,38.347 49.209,38.467 49.259,38.527 C49.489,38.887 49.389,39.257 49.379,39.647 C49.369,40.797 49.349,41.947 49.649,43.077 C49.759,43.477 49.839,43.887 50.019,44.267 C50.089,44.427 50.119,44.607 50.119,44.777 C50.119,44.997 50.149,45.197 50.31,45.357 C50.449,45.497 50.46,45.667 50.46,45.847 C50.479,46.167 50.649,46.437 50.75,46.727 C50.999,47.417 51.54,47.907 51.859,48.547 C51.949,48.737 52.06,48.907 52.06,49.127 C52.06,49.307 51.989,49.437 51.839,49.527 L51.839,49.527 Z M54.429,45.627 C54.04,45.847 53.759,46.127 53.839,46.627 C53.859,46.747 53.779,46.857 53.689,46.947 C53.499,47.157 53.349,47.377 53.31,47.677 C52.71,47.147 52.339,46.507 52.06,45.807 C51.989,45.637 51.939,45.477 51.939,45.297 C51.949,45.067 51.879,44.857 51.77,44.647 C51.619,44.377 51.599,44.087 51.759,43.807 C51.869,43.607 51.969,43.557 52.169,43.717 C52.529,44.017 52.889,44.317 53.23,44.647 C53.629,45.047 54.08,45.367 54.739,45.347 C54.649,45.517 54.529,45.577 54.429,45.627 L54.429,45.627 Z M56.449,41.937 C56.409,42.107 56.209,42.217 56.089,42.107 C55.79,41.817 55.589,41.467 55.459,41.097 C55.489,40.977 55.499,40.887 55.54,40.807 C55.619,40.617 55.759,40.597 55.879,40.767 C56.049,41.027 56.179,41.307 56.379,41.547 C56.469,41.657 56.489,41.797 56.449,41.937 L56.449,41.937 Z M74.969,20.137 C75.179,19.927 75.379,19.717 75.599,19.527 C75.749,19.397 76.08,19.437 76.209,19.587 C76.31,19.687 76.27,19.787 76.179,19.847 C75.939,20.027 75.77,20.267 75.629,20.527 C75.549,20.667 75.409,20.677 75.259,20.677 C75.119,20.677 74.989,20.647 74.909,20.517 C74.819,20.367 74.869,20.237 74.969,20.137 L74.969,20.137 Z M71.08,31.787 C71.29,31.517 71.54,31.297 71.849,31.157 C72.06,31.057 72.249,31.097 72.379,31.327 C72.509,31.577 72.659,31.807 72.79,32.057 C72.929,32.317 72.849,32.437 72.549,32.447 C72.439,32.457 72.339,32.457 72.229,32.457 C71.869,32.477 71.54,32.367 71.219,32.217 C70.959,32.107 70.919,31.987 71.08,31.787 L71.08,31.787 Z M69.58,28.947 C69.649,28.777 69.79,28.717 69.949,28.797 C70.179,28.917 70.129,29.147 70.129,29.347 C70.119,29.527 70.04,29.687 69.839,29.727 C69.699,29.747 69.599,29.687 69.56,29.557 C69.54,29.457 69.529,29.347 69.52,29.247 C69.54,29.147 69.54,29.037 69.58,28.947 L69.58,28.947 Z M66.159,37.007 C66.27,37.007 66.359,37.047 66.459,37.087 C66.569,37.127 66.689,37.177 66.81,37.177 C67.52,37.177 68.23,37.357 68.949,37.237 C69.04,37.217 69.129,37.217 69.21,37.237 C69.399,37.267 69.459,37.427 69.339,37.587 C69.199,37.747 69.029,37.877 68.81,37.887 C68.609,37.907 68.419,37.927 68.23,37.947 C67.969,37.967 67.729,38.017 67.489,38.157 C67.189,38.337 66.839,38.417 66.449,38.347 C66.069,38.387 65.649,38.407 65.259,38.597 C65.169,38.637 65.069,38.687 64.969,38.707 C64.749,38.747 64.639,38.637 64.649,38.417 C64.679,37.987 65.73,37.007 66.159,37.007 L66.159,37.007 Z M61.649,34.977 C61.639,34.627 61.58,34.287 61.529,33.997 C61.54,33.557 61.649,33.497 62,33.637 C62.56,33.857 63.069,34.237 63.699,34.267 C63.879,34.277 63.979,34.407 63.979,34.587 C63.989,34.787 63.879,34.907 63.679,34.937 C63.609,34.947 63.54,34.947 63.469,34.957 C63.08,35.007 63.06,35.027 62.98,35.417 C62.919,35.667 62.81,35.747 62.58,35.647 C62.359,35.557 62.139,35.447 61.929,35.327 C61.799,35.247 61.659,35.147 61.649,34.977 L61.649,34.977 Z M64.609,45.277 C64.179,45.267 63.779,45.317 63.459,45.647 C63.439,45.667 63.399,45.687 63.359,45.687 C62.79,45.737 62.27,46.017 61.689,46.017 C61.48,46.017 61.279,46.027 61.08,46.117 C60.699,46.297 60.27,46.237 59.859,46.367 C59.389,46.517 58.859,46.487 58.419,46.537 L58.25,46.537 C57.689,46.517 57.719,46.527 57.889,45.987 C58.069,45.407 58.54,45.097 58.889,44.677 C59.29,44.197 59.759,43.857 60.27,43.537 C60.409,43.447 60.5,43.207 60.689,43.287 C60.899,43.367 60.799,43.597 60.799,43.757 C60.799,44.047 60.939,44.197 61.199,44.297 C62.299,44.707 63.419,44.877 64.589,44.817 C64.77,44.817 64.989,44.727 65.08,44.977 C65.129,45.137 64.939,45.277 64.609,45.277 L64.609,45.277 Z M74.129,38.587 C74.319,38.537 74.509,38.517 74.699,38.547 C74.899,38.577 74.96,38.727 74.839,38.887 C74.79,38.947 74.719,39.027 74.649,39.047 C74.06,39.187 73.669,39.707 73.109,39.907 C72.969,39.957 72.839,40.057 72.71,40.147 C72.56,40.247 72.409,40.317 72.229,40.337 C71.439,40.447 70.639,40.537 69.849,40.637 C69.799,40.647 69.719,40.627 69.689,40.657 C69.249,41.057 68.629,40.907 68.129,41.147 C67.799,41.297 67.419,41.337 67.069,41.417 C66.83,41.467 66.589,41.497 66.349,41.567 C66.149,41.637 65.899,41.657 65.739,41.537 C65.299,41.217 64.869,41.437 64.439,41.497 C64.04,41.547 63.849,41.837 63.849,42.237 C63.859,42.357 63.869,42.477 63.879,42.597 C63.899,42.757 63.839,42.847 63.679,42.917 C62.859,43.267 62.049,43.187 61.25,42.867 C61.08,42.807 60.999,42.677 61.109,42.547 C61.339,42.297 61.439,41.987 61.569,41.687 C61.639,41.547 61.739,41.417 61.869,41.327 C62.139,41.127 62.339,40.877 62.509,40.577 C62.58,40.467 62.689,40.337 62.81,40.297 C63.299,40.127 63.689,39.707 64.239,39.707 C64.889,39.237 65.699,39.457 66.399,39.187 C66.669,39.087 66.96,39.157 67.239,39.147 C67.429,39.137 67.619,39.137 67.81,39.117 C68.359,39.037 68.919,39.077 69.469,39.047 C70.219,38.997 71,39.097 71.75,38.857 C72.069,38.757 72.439,38.797 72.79,38.767 C73.239,38.737 73.689,38.717 74.129,38.587 L74.129,38.587 Z M73.729,34.757 C73.719,34.877 73.619,34.927 73.529,34.967 C73.319,35.067 73.099,35.097 72.859,35.097 C72.449,35.087 72.029,35.097 71.439,35.097 C70.729,35.037 69.869,35.107 69.009,35.247 C68.839,35.277 68.689,35.267 68.549,35.177 C68.33,35.027 68.29,34.857 68.449,34.647 C68.869,34.117 69.339,33.727 70.099,33.917 C70.379,33.987 70.689,33.977 70.98,33.977 C71.319,33.987 71.639,33.987 71.939,34.167 C72.04,34.227 72.189,34.247 72.299,34.227 C72.77,34.127 73.129,34.427 73.549,34.537 C73.649,34.557 73.739,34.627 73.729,34.757 L73.729,34.757 Z M75.099,28.717 C74.969,28.817 74.839,28.897 74.719,28.907 C74.449,28.957 74.189,28.997 73.939,29.157 C73.759,29.267 73.629,29.167 73.639,28.957 C73.649,28.877 73.659,28.777 73.699,28.707 C73.899,28.387 74.08,28.047 74.33,27.757 C74.659,27.357 75.29,27.507 75.459,27.987 C75.48,28.037 75.48,28.087 75.489,28.127 C75.48,28.297 75.31,28.547 75.099,28.717 L75.099,28.717 Z M77.149,22.807 C76.869,23.117 76.609,23.457 76.159,23.537 C76.049,23.567 75.919,23.557 75.889,23.557 C75.249,23.577 74.939,23.297 74.879,22.737 C74.859,22.577 74.919,22.467 75.06,22.407 C75.109,22.377 75.159,22.357 75.21,22.347 C75.719,22.247 76.219,22.117 76.71,21.947 C76.939,21.867 77.089,21.967 77.109,22.217 C77.119,22.417 77.33,22.627 77.149,22.807 L77.149,22.807 Z M78.54,20.077 C78.71,19.947 78.879,19.787 79.099,19.717 C79.389,19.617 79.489,19.697 79.469,19.987 C79.439,20.227 79.139,20.627 78.919,20.697 C78.699,20.757 78.5,20.687 78.369,20.507 C78.229,20.297 78.409,20.177 78.54,20.077 L78.54,20.077 Z M81.71,26.167 C81.649,26.307 81.509,26.347 81.359,26.367 C80.899,26.417 80.439,26.337 80.04,26.127 C79.749,25.967 79.46,25.907 79.149,25.897 C78.159,25.857 78.029,25.397 78.389,24.587 C78.5,24.337 78.649,24.107 78.679,23.817 C78.73,23.407 79.04,23.197 79.439,23.197 C79.599,23.207 79.759,23.207 79.909,23.157 C80.27,23.017 80.599,23.177 80.899,23.337 C81.229,23.497 81.129,23.847 81.139,24.127 C81.119,24.347 81.069,24.557 81.08,24.757 C81.109,25.157 81.149,25.557 81.52,25.827 C81.629,25.897 81.779,25.997 81.71,26.167 L81.71,26.167 Z M88.959,15.167 C88.81,15.177 88.629,15.287 88.52,15.117 C88.439,14.987 88.529,14.837 88.609,14.727 C88.759,14.527 88.869,14.307 89.009,14.127 C89.279,13.787 89.359,13.407 89.409,13.007 C89.419,12.937 89.419,12.867 89.429,12.797 C89.56,12.087 89.919,11.777 90.639,11.777 C90.939,11.777 91.08,11.907 91.029,12.197 C90.98,12.477 91.01,12.747 91.069,13.017 C91.129,13.277 91.069,13.507 90.869,13.687 C90.739,13.807 90.629,13.947 90.599,14.127 C90.529,14.457 90.31,14.617 90.009,14.727 C89.709,14.847 89.369,14.907 89.099,15.107 C89.06,15.137 89.009,15.157 88.959,15.167 L88.959,15.167 Z M95.459,20.957 C95.209,21.157 94.939,21.337 94.629,21.397 C94.1,21.507 93.629,21.777 93.1,21.897 C92.859,21.947 92.629,22.017 92.439,22.187 C92.42,22.217 92.379,22.237 92.35,22.237 C91.81,22.227 91.389,22.647 90.859,22.677 C90.739,22.687 90.639,22.767 90.529,22.817 C90.169,22.967 89.989,22.897 89.819,22.537 C89.619,22.097 89.669,21.997 90.02,21.767 C90.429,21.507 90.849,21.417 91.319,21.447 C91.76,21.467 92.18,21.347 92.619,21.317 C92.949,21.287 93.269,21.107 93.48,20.787 C93.739,20.387 93.98,20.307 94.42,20.447 C94.719,20.527 95.02,20.617 95.34,20.597 C95.439,20.587 95.549,20.617 95.58,20.747 C95.6,20.857 95.519,20.897 95.459,20.957 L95.459,20.957 Z" id="Fill-12" fill="#00A3DB" sketch:type="MSShapeGroup"></path>
            <path d="M15.157,135.287 C15.277,135.367 15.442,135.367 15.581,135.346 C15.829,135.308 16.09,135.355 16.35,135.385 C16.949,135.455 17.542,135.49 18.117,135.367 C18.503,135.284 18.922,135.216 19.309,135.293 C19.767,135.384 20.187,135.289 20.607,135.248 C20.887,135.231 21.1,135.001 21.367,134.97 C22.257,134.864 23.129,134.761 23.998,134.607 C24.477,134.522 24.981,134.494 25.419,134.178 C25.488,134.128 25.609,134.143 25.699,134.119 C26.139,134.017 26.663,134.042 27.041,133.848 C27.422,133.653 27.789,133.533 27.998,133.261 C28.052,133.197 28.127,133.154 28.197,133.146 C28.355,133.128 28.44,132.992 28.502,132.857 C28.536,132.783 28.564,132.701 28.631,132.704 C28.771,132.72 28.874,132.605 28.999,132.612 C29.053,132.615 29.099,132.587 29.132,132.537 C29.267,132.345 29.459,132.275 29.669,132.206 C29.739,132.183 29.794,132.15 29.846,132.106 C30.003,131.976 30.128,131.812 30.355,131.692 C30.471,131.63 30.564,131.537 30.624,131.393 C30.663,131.3 30.734,131.22 30.851,131.175 C30.916,131.154 30.964,131.097 31.023,131.048 C31.327,130.792 31.63,130.392 32.308,129.878 C32.414,129.798 32.514,129.681 32.594,129.58 C32.822,129.306 33.04,129.061 33.119,128.852 C33.167,128.722 33.224,128.571 33.309,128.419 C33.416,128.208 33.564,127.973 33.776,127.747 C34.049,127.435 34.215,127.078 34.234,126.621 C34.245,126.361 34.322,126.074 34.344,125.775 C34.407,124.897 34.606,123.818 34.475,122.796 C34.313,121.544 33.993,120.234 33.957,118.883 C33.945,118.676 33.869,118.455 33.795,118.253 C33.442,117.232 33.133,116.207 32.502,115.55 C32.382,115.426 32.258,115.223 32.153,115.059 C31.925,114.705 31.619,114.443 31.327,114.198 C30.856,113.8 30.341,113.41 30.033,113.079 C30.021,112.932 30.005,112.786 29.997,112.639 C29.978,112.334 29.471,112.227 29.2,112.216 C29.184,112.209 29.176,112.205 29.156,112.197 C29.038,112.136 28.912,112.094 28.783,112.06 C28.727,111.903 28.656,111.766 28.462,111.618 C28.03,111.288 27.553,111.037 27.036,110.873 C27.007,110.864 26.976,110.864 26.947,110.856 C26.894,110.739 26.839,110.644 26.775,110.613 C26.391,110.428 25.968,109.727 25.517,109.299 C25.345,109.136 25.254,108.94 25.257,108.636 C25.26,108.333 25.353,108.179 25.538,108.093 C25.65,108.051 25.804,108.083 25.864,107.899 C26.001,107.484 26.258,107.327 26.455,107.081 C26.646,106.842 26.862,106.733 27.032,106.503 C27.35,106.073 27.724,105.806 28.038,105.624 C28.216,105.52 28.415,105.441 28.555,105.486 C28.78,105.557 28.881,105.474 29.329,105.243 C29.516,105.146 29.777,105.009 29.918,104.817 C30.073,104.602 30.17,104.491 30.362,104.441 C30.672,104.36 30.995,104.181 31.294,104.071 C31.453,104.013 31.639,103.969 31.849,103.981 C32.272,103.992 32.531,103.891 32.614,103.645 C32.658,103.513 32.716,103.365 32.993,103.336 C33.309,103.304 33.469,103.196 33.532,103.011 C33.564,102.941 33.634,102.869 33.725,102.818 C34.025,102.662 34.188,102.433 34.435,102.214 C34.614,102.056 34.831,101.835 34.694,101.636 C34.351,101.136 34.764,100.775 35.125,100.318 C35.252,100.175 35.283,99.953 35.332,99.757 C35.372,99.599 35.352,99.439 35.282,99.283 C35.137,98.955 34.966,98.607 34.778,98.242 C34.534,97.768 34.165,97.471 33.709,97.515 C33.175,97.566 32.568,97.356 31.959,97.234 C31.662,97.174 31.355,97.135 31.037,97.124 C30.534,97.107 30,97.023 29.491,96.925 C28.906,96.812 28.326,96.741 27.798,96.821 C27.454,96.873 27.118,96.85 26.786,96.825 C26.133,96.777 25.53,96.765 25.058,97.074 C24.931,97.157 24.776,97.132 24.646,97.107 C24.399,97.059 24.15,97 23.938,96.923 C23.933,96.921 23.927,96.919 23.922,96.917 L22.969,98.207 L22.919,98.287 C22.834,98.416 22.745,98.555 22.655,98.693 C22.502,98.93 22.342,99.176 22.159,99.447 C22.109,99.477 22.069,99.497 22.029,99.537 C21.982,99.593 21.925,99.648 21.877,99.704 C21.941,99.695 22.004,99.688 22.066,99.681 C22.446,99.636 22.847,99.637 23.284,99.624 C23.409,99.62 23.544,99.639 23.674,99.667 C24.065,99.732 24.465,99.669 24.917,99.525 C24.967,99.506 25.017,99.495 25.067,99.476 C25.178,99.437 25.317,99.437 25.449,99.446 C25.453,99.447 25.456,99.446 25.46,99.447 C25.503,99.45 25.548,99.46 25.592,99.469 C26.115,99.582 26.68,99.646 27.29,99.61 C27.408,99.603 27.568,99.603 27.681,99.646 C28.623,100.006 29.597,100.047 30.4,100.244 C30.67,100.31 30.943,100.369 31.157,100.443 C31.442,100.541 31.394,100.705 31.084,100.903 C30.906,101.027 30.698,101.129 30.545,101.233 C30.327,101.39 30.151,101.546 30.032,101.727 C30.009,101.74 29.997,101.764 29.983,101.787 C29.976,101.797 29.965,101.802 29.958,101.811 C29.767,102.055 29.445,102.123 29.117,102.066 C29.101,102.063 29.086,102.064 29.07,102.061 C28.428,101.958 27.851,102.065 27.189,102.072 C27.129,102.076 27.078,102.112 27.017,102.102 C26.385,101.952 25.564,101.793 24.967,101.898 C24.467,101.864 24.079,101.857 23.729,101.861 C23.471,101.864 23.237,101.873 23.011,101.909 C22.595,101.976 22.212,102.018 21.835,102.064 C21.498,102.105 21.152,102.168 20.779,102.161 C20.707,102.16 20.613,102.159 20.554,102.219 C20.445,102.322 20.338,102.34 20.236,102.331 C20.199,102.329 20.161,102.334 20.126,102.322 C20.021,102.286 19.902,102.214 19.792,102.167 C19.635,102.099 19.596,101.988 19.629,101.846 C19.593,101.863 19.553,101.88 19.519,101.897 C18.929,102.177 18.149,102.327 17.71,102.057 C17.664,102.066 17.616,102.073 17.57,102.082 C17.376,102.121 17.178,102.15 16.97,102.165 C16.926,102.168 16.885,102.175 16.839,102.177 C16.823,102.177 16.777,102.181 16.721,102.185 C16.56,102.198 16.303,102.217 16.227,102.194 C16.219,102.191 16.202,102.191 16.199,102.187 C15.969,102.247 15.729,102.297 15.499,102.347 C15.438,102.358 15.396,102.348 15.34,102.353 C15.045,102.384 14.813,102.348 14.653,102.251 C14.638,102.242 14.613,102.241 14.599,102.231 L14.529,102.237 C14.531,102.237 14.531,102.236 14.533,102.235 L14.534,102.235 C14.548,102.232 14.554,102.223 14.569,102.219 L14.57,102.219 C14.543,102.202 14.516,102.184 14.489,102.157 L14.429,102.157 L14.428,102.157 C14.218,102.167 14.009,102.167 13.799,102.176 C13.549,102.176 13.309,102.196 13.079,102.306 C13.078,102.307 13.076,102.307 13.074,102.308 C12.964,102.359 12.851,102.376 12.736,102.378 C12.716,102.379 12.696,102.378 12.675,102.377 C12.576,102.375 12.475,102.366 12.371,102.358 C12.368,102.357 12.365,102.357 12.362,102.357 C12.08,102.337 11.819,102.226 11.547,102.171 C11.514,102.165 11.483,102.151 11.449,102.147 C11.284,102.132 11.118,102.102 10.952,102.073 C10.657,102.023 10.361,101.984 10.06,102.086 C9.99,102.116 9.879,102.097 9.799,102.067 C9.694,102.014 9.585,101.975 9.475,101.946 C9.143,101.856 8.795,101.849 8.46,101.79 C8.4,101.779 8.339,101.773 8.279,101.757 C8.262,101.752 8.245,101.747 8.228,101.743 C7.594,101.58 6.97,101.387 6.342,101.199 C6.318,101.191 6.294,101.184 6.269,101.177 C6.189,101.157 6.109,101.107 6.049,101.047 C6.009,101.022 5.969,100.995 5.937,100.961 C5.905,100.927 5.879,100.887 5.87,100.837 C5.865,100.828 5.866,100.812 5.865,100.799 C5.863,100.785 5.859,100.772 5.859,100.757 C5.864,100.717 5.877,100.687 5.896,100.665 C5.952,100.6 6.057,100.599 6.14,100.577 C6.67,100.457 7.184,100.387 7.729,100.547 C8.221,100.692 8.785,100.599 9.269,100.417 C9.528,100.32 9.77,100.267 10.04,100.287 C11.116,100.405 12.156,100.089 13.199,99.953 C13.212,99.952 13.226,99.948 13.239,99.947 C13.258,99.944 13.275,99.939 13.294,99.936 C13.502,99.903 13.698,99.838 13.909,99.847 C13.945,99.847 13.982,99.845 14.019,99.838 C14.022,99.837 14.026,99.838 14.029,99.837 C14.089,99.837 14.147,99.827 14.202,99.808 C14.257,99.79 14.309,99.762 14.359,99.727 C14.379,99.712 14.399,99.703 14.419,99.692 C14.439,99.681 14.46,99.667 14.479,99.657 C14.489,99.647 14.499,99.647 14.519,99.647 C14.519,99.647 14.519,99.637 14.529,99.637 C14.529,99.637 14.54,99.627 14.549,99.627 L14.659,99.448 L14.659,99.447 L15.118,98.693 L15.261,98.458 C15.84,97.505 16.28,96.782 16.989,95.617 C16.979,95.627 16.971,95.637 16.961,95.647 C16.711,95.947 16.379,96.007 16.029,96.027 C15.569,96.037 15.126,96.095 14.689,96.217 C14.3,96.325 13.938,96.536 13.559,96.607 C12.831,96.744 12.095,96.951 11.34,96.907 C11.032,96.889 10.724,96.895 10.419,97.037 C10.171,97.152 9.857,97.124 9.608,96.997 C9.371,96.876 9.144,96.865 8.9,96.967 C8.652,97.071 8.384,97.069 8.129,97.006 C7.497,96.849 6.85,97.097 6.21,97.057 C6.14,97.047 6.049,97.115 5.979,97.165 C5.659,97.415 5.298,97.384 4.989,97.216 C4.414,96.905 3.919,97.069 3.449,97.417 C3.26,97.556 3.089,97.697 2.849,97.687 C2.719,97.687 2.617,97.745 2.499,97.786 C2.034,97.947 1.766,98.357 1.438,98.697 C1.218,98.925 0.993,99.139 1.119,99.507 C1.16,99.626 1.1,99.747 1.04,99.857 C0.95,99.997 0.939,100.148 0.979,100.307 C1.089,100.677 1.203,101.046 1.479,101.336 C2.159,102.048 2.844,102.777 3.519,103.498 C4.049,104.063 4.679,104.417 5.499,104.376 C6.319,104.336 6.978,104.727 7.478,105.337 C7.938,105.897 8.507,106.244 9.191,106.477 C9.818,106.69 10.316,107.13 10.55,107.767 C10.641,108.015 10.72,108.256 10.82,108.497 C11,108.926 10.96,109.32 10.679,109.728 C10.377,110.167 9.968,110.487 9.608,110.857 C9.338,111.157 9.017,111.335 8.661,111.477 C8.442,111.565 8.209,111.657 7.969,111.717 C7.739,111.787 7.549,111.909 7.459,112.129 C7.33,112.409 7.085,112.576 6.848,112.667 C6.55,112.783 6.346,112.987 6.129,113.187 C5.969,113.335 5.807,113.507 5.628,113.637 C5.399,113.805 5.246,114.039 5.089,114.269 C4.788,114.711 4.459,115.136 4.119,115.556 C3.859,115.876 3.526,116.157 3.28,116.487 C3.08,116.754 2.794,117.041 2.819,117.406 C2.86,118.008 2.528,118.508 2.347,119.037 C2.268,119.267 2.203,119.448 2.261,119.687 C2.323,119.944 2.29,120.222 2.099,120.426 C1.856,120.686 1.83,120.937 2.11,121.187 C2.22,121.287 2.219,121.437 2.219,121.577 C2.219,121.737 2.211,121.886 2.201,122.046 C2.191,122.206 2.166,122.358 2.128,122.517 C2.077,122.734 2.029,122.956 2.049,123.186 C2.099,123.766 2.075,124.34 1.999,124.917 C1.957,125.235 2.008,125.539 2.149,125.836 C2.503,126.584 2.82,127.359 3.299,128.056 C3.69,128.627 3.83,129.366 4.339,129.906 C4.489,130.066 4.609,130.257 4.809,130.366 C5.326,130.647 5.92,130.857 6.22,131.437 C6.26,131.527 6.349,131.617 6.439,131.657 C7.029,131.886 7.522,132.248 7.988,132.687 C8.408,133.083 9.078,133.127 9.488,133.587 C9.538,133.637 9.658,133.638 9.738,133.638 C9.938,133.649 10.12,133.708 10.3,133.757 C10.76,133.857 11.112,134.242 11.588,134.326 C11.826,134.369 12.094,134.376 12.309,134.508 C12.767,134.787 13.271,134.878 13.779,134.947 C14.247,135.008 14.717,134.998 15.157,135.287" id="Fill-13" fill="#000000" sketch:type="MSShapeGroup"></path>
        </g>
    </g>
</svg>