<?xml version="1.0" encoding="UTF-8" standalone="no"?>
<svg width="148px" height="205px" viewBox="0 0 148 205" version="1.1" xmlns="http://www.w3.org/2000/svg" xmlns:xlink="http://www.w3.org/1999/xlink" xmlns:sketch="http://www.bohemiancoding.com/sketch/ns">
    <!-- Generator: Sketch 3.3.3 (12081) - http://www.bohemiancoding.com/sketch -->
    <title>stacked_papers</title>
    <desc>Created with Sketch.</desc>
    <defs></defs>
    <g id="Page-1" stroke="none" stroke-width="1" fill="none" fill-rule="evenodd" sketch:type="MSPage">
        <g id="stacked_papers" sketch:type="MSLayerGroup">
            <path d="M1.163,115.173 L73.583,115.173 L73.583,203.373 L1.163,203.373 L1.163,115.173 Z" id="Fill-1" fill="#F6F9F6" sketch:type="MSShapeGroup"></path>
            <path d="M1.163,115.173 L73.583,115.173 L73.583,203.373 L1.163,203.373 L1.163,115.173 Z" id="Stroke-2" stroke="#B4B5B4" sketch:type="MSShapeGroup"></path>
            <path d="M0.663,114.673 L74.083,114.673 L74.083,203.873 L0.663,203.873 L0.663,114.673 Z M1.663,202.873 L73.083,202.873 L73.083,115.673 L1.663,115.673 L1.663,202.873 Z" id="Fill-3" fill="#F6F9F6" sketch:type="MSShapeGroup"></path>
            <path d="M0.663,114.673 L74.083,114.673 L74.083,203.873 L0.663,203.873 L0.663,114.673 Z M1.663,202.873 L73.083,202.873 L73.083,115.673 L1.663,115.673 L1.663,202.873 Z" id="Stroke-4" stroke="#B4B5B4" sketch:type="MSShapeGroup"></path>
            <path d="M79.299,200.118 L4.548,201.974 L2.281,110.64 L77.032,108.784 L79.299,200.118 L79.299,200.118 Z" id="Fill-5" fill="#F6F9F6" sketch:type="MSShapeGroup"></path>
            <path d="M79.299,200.118 L4.548,201.974 L2.281,110.64 L77.032,108.784 L79.299,200.118 L79.299,200.118 Z" id="Stroke-6" stroke="#B4B5B4" sketch:type="MSShapeGroup"></path>
            <path d="M4.06,202.486 L1.769,110.152 L77.52,108.271 L77.532,108.771 L79.812,200.606 L4.06,202.486 L4.06,202.486 Z M2.793,111.127 L5.035,201.461 L78.786,199.631 L76.545,109.297 L2.793,111.127 L2.793,111.127 Z" id="Fill-7" fill="#F6F9F6" sketch:type="MSShapeGroup"></path>
            <path d="M4.06,202.486 L1.769,110.152 L77.52,108.271 L77.532,108.771 L79.812,200.606 L4.06,202.486 L4.06,202.486 Z M2.793,111.127 L5.035,201.461 L78.786,199.631 L76.545,109.297 L2.793,111.127 L2.793,111.127 Z" id="Stroke-8" stroke="#B4B5B4" sketch:type="MSShapeGroup"></path>
            <path d="M6.139,104.128 L83.265,104.128 L83.265,198.65 L6.139,198.65 L6.139,104.128 Z" id="Fill-9" fill="#F6F9F6" sketch:type="MSShapeGroup"></path>
            <path d="M6.139,104.128 L83.265,104.128 L83.265,198.65 L6.139,198.65 L6.139,104.128 Z" id="Stroke-10" stroke="#B4B5B4" sketch:type="MSShapeGroup"></path>
            <path d="M5.639,103.628 L83.765,103.628 L83.765,199.149 L5.639,199.149 L5.639,103.628 Z M6.639,198.149 L82.765,198.149 L82.765,104.628 L6.639,104.628 L6.639,198.149 Z" id="Fill-11" fill="#F6F9F6" sketch:type="MSShapeGroup"></path>
            <path d="M5.639,103.628 L83.765,103.628 L83.765,199.149 L5.639,199.149 L5.639,103.628 Z M6.639,198.149 L82.765,198.149 L82.765,104.628 L6.639,104.628 L6.639,198.149 Z" id="Stroke-12" stroke="#B4B5B4" sketch:type="MSShapeGroup"></path>
            <path d="M88.37,198.649 L8.923,196.405 L11.682,98.765 L91.129,101.009 L88.37,198.649 L88.37,198.649 Z" id="Fill-13" fill="#F6F9F6" sketch:type="MSShapeGroup"></path>
            <path d="M88.37,198.649 L8.923,196.405 L11.682,98.765 L91.129,101.009 L88.37,198.649 L88.37,198.649 Z" id="Stroke-14" stroke="#B4B5B4" sketch:type="MSShapeGroup"></path>
            <path d="M88.856,199.163 L88.356,199.149 L8.409,196.891 L11.196,98.251 L11.696,98.265 L91.643,100.523 L91.629,101.023 L88.856,199.163 L88.856,199.163 Z M9.438,195.92 L87.885,198.136 L90.615,101.494 L12.168,99.278 L9.438,195.92 L9.438,195.92 Z" id="Fill-15" fill="#F6F9F6" sketch:type="MSShapeGroup"></path>
            <path d="M88.856,199.163 L88.356,199.149 L8.409,196.891 L11.196,98.251 L11.696,98.265 L91.643,100.523 L91.629,101.023 L88.856,199.163 L88.856,199.163 Z M9.438,195.92 L87.885,198.136 L90.615,101.494 L12.168,99.278 L9.438,195.92 L9.438,195.92 Z" id="Stroke-16" stroke="#B4B5B4" sketch:type="MSShapeGroup"></path>
            <path d="M94.084,194.237 L12.258,195.219 L11.049,94.383 L92.875,93.401 L94.084,194.237 L94.084,194.237 Z" id="Fill-17" fill="#F6F9F6" sketch:type="MSShapeGroup"></path>
            <path d="M94.084,194.237 L12.258,195.219 L11.049,94.383 L92.875,93.401 L94.084,194.237 L94.084,194.237 Z" id="Stroke-18" stroke="#B4B5B4" sketch:type="MSShapeGroup"></path>
            <path d="M11.764,195.725 L10.543,93.889 L93.369,92.896 L94.59,194.731 L11.764,195.725 L11.764,195.725 Z M11.555,94.877 L12.752,194.713 L93.578,193.743 L92.381,93.907 L11.555,94.877 L11.555,94.877 Z" id="Fill-19" fill="#F6F9F6" sketch:type="MSShapeGroup"></path>
            <path d="M11.764,195.725 L10.543,93.889 L93.369,92.896 L94.59,194.731 L11.764,195.725 L11.764,195.725 Z M11.555,94.877 L12.752,194.713 L93.578,193.743 L92.381,93.907 L11.555,94.877 L11.555,94.877 Z" id="Stroke-20" stroke="#B4B5B4" sketch:type="MSShapeGroup"></path>
            <path d="M14.657,88.833 L98.843,88.833 L98.843,192.834 L14.657,192.834 L14.657,88.833 Z" id="Fill-21" fill="#F6F9F6" sketch:type="MSShapeGroup"></path>
            <path d="M14.657,88.833 L98.843,88.833 L98.843,192.834 L14.657,192.834 L14.657,88.833 Z" id="Stroke-22" stroke="#B4B5B4" sketch:type="MSShapeGroup"></path>
            <path d="M14.157,88.333 L99.343,88.333 L99.343,193.334 L14.157,193.334 L14.157,88.333 Z M15.157,192.334 L98.343,192.334 L98.343,89.333 L15.157,89.333 L15.157,192.334 Z" id="Fill-23" fill="#F6F9F6" sketch:type="MSShapeGroup"></path>
            <path d="M14.157,88.333 L99.343,88.333 L99.343,193.334 L14.157,193.334 L14.157,88.333 Z M15.157,192.334 L98.343,192.334 L98.343,89.333 L15.157,89.333 L15.157,192.334 Z" id="Stroke-24" stroke="#B4B5B4" sketch:type="MSShapeGroup"></path>
            <path d="M17.25,83.501 L103.788,83.501 L103.788,190.665 L17.25,190.665 L17.25,83.501 Z" id="Fill-25" fill="#F6F9F6" sketch:type="MSShapeGroup"></path>
            <path d="M17.25,83.501 L103.788,83.501 L103.788,190.665 L17.25,190.665 L17.25,83.501 Z" id="Stroke-26" stroke="#B4B5B4" sketch:type="MSShapeGroup"></path>
            <path d="M16.75,83.001 L104.288,83.001 L104.288,191.165 L16.75,191.165 L16.75,83.001 Z M17.75,190.165 L103.288,190.165 L103.288,84.001 L17.75,84.001 L17.75,190.165 Z" id="Fill-27" fill="#F6F9F6" sketch:type="MSShapeGroup"></path>
            <path d="M16.75,83.001 L104.288,83.001 L104.288,191.165 L16.75,191.165 L16.75,83.001 Z M17.75,190.165 L103.288,190.165 L103.288,84.001 L17.75,84.001 L17.75,190.165 Z" id="Stroke-28" stroke="#B4B5B4" sketch:type="MSShapeGroup"></path>
            <path d="M108.158,185.51 L19.304,188.125 L16.058,77.85 L104.913,75.235 L108.158,185.51 L108.158,185.51 Z" id="Fill-29" fill="#F6F9F6" sketch:type="MSShapeGroup"></path>
            <path d="M108.158,185.51 L19.304,188.125 L16.058,77.85 L104.913,75.235 L108.158,185.51 L108.158,185.51 Z" id="Stroke-30" stroke="#B4B5B4" sketch:type="MSShapeGroup"></path>
            <path d="M18.819,188.64 L18.804,188.14 L15.543,77.364 L105.398,74.721 L108.673,185.995 L18.819,188.64 L18.819,188.64 Z M16.573,78.335 L19.789,187.61 L107.644,185.024 L104.428,75.75 L16.573,78.335 L16.573,78.335 Z" id="Fill-31" fill="#F6F9F6" sketch:type="MSShapeGroup"></path>
            <path d="M18.819,188.64 L18.804,188.14 L15.543,77.364 L105.398,74.721 L108.673,185.995 L18.819,188.64 L18.819,188.64 Z M16.573,78.335 L19.789,187.61 L107.644,185.024 L104.428,75.75 L16.573,78.335 L16.573,78.335 Z" id="Stroke-32" stroke="#B4B5B4" sketch:type="MSShapeGroup"></path>
            <path d="M21.162,69.79 L112.407,69.79 L112.407,183.273 L21.162,183.273 L21.162,69.79 Z" id="Fill-33" fill="#F6F9F6" sketch:type="MSShapeGroup"></path>
            <path d="M21.162,69.79 L112.407,69.79 L112.407,183.273 L21.162,183.273 L21.162,69.79 Z" id="Stroke-34" stroke="#B4B5B4" sketch:type="MSShapeGroup"></path>
            <path d="M20.662,69.29 L112.907,69.29 L112.907,183.773 L20.662,183.773 L20.662,69.29 Z M21.662,182.773 L111.907,182.773 L111.907,70.291 L21.662,70.291 L21.662,182.773 Z" id="Fill-35" fill="#F6F9F6" sketch:type="MSShapeGroup"></path>
            <path d="M20.662,69.29 L112.907,69.29 L112.907,183.773 L20.662,183.773 L20.662,69.29 Z M21.662,182.773 L111.907,182.773 L111.907,70.291 L21.662,70.291 L21.662,182.773 Z" id="Stroke-36" stroke="#B4B5B4" sketch:type="MSShapeGroup"></path>
            <path d="M116.741,181.901 L23.217,178.156 L27.884,61.606 L121.408,65.352 L116.741,181.901 L116.741,181.901 Z" id="Fill-37" fill="#F6F9F6" sketch:type="MSShapeGroup"></path>
            <path d="M116.741,181.901 L23.217,178.156 L27.884,61.606 L121.408,65.352 L116.741,181.901 L116.741,181.901 Z" id="Stroke-38" stroke="#B4B5B4" sketch:type="MSShapeGroup"></path>
            <path d="M117.221,182.421 L116.722,182.401 L22.697,178.636 L27.404,61.087 L27.904,61.106 L121.928,64.872 L121.908,65.371 L117.221,182.421 L117.221,182.421 Z M23.736,177.677 L116.262,181.382 L120.889,65.831 L28.363,62.126 L23.736,177.677 L23.736,177.677 Z" id="Fill-39" fill="#F6F9F6" sketch:type="MSShapeGroup"></path>
            <path d="M117.221,182.421 L116.722,182.401 L22.697,178.636 L27.404,61.087 L27.904,61.106 L121.928,64.872 L121.908,65.371 L117.221,182.421 L117.221,182.421 Z M23.736,177.677 L116.262,181.382 L120.889,65.831 L28.363,62.126 L23.736,177.677 L23.736,177.677 Z" id="Stroke-40" stroke="#B4B5B4" sketch:type="MSShapeGroup"></path>
            <path d="M27.326,55.579 L123.278,55.579 L123.278,175.381 L27.326,175.381 L27.326,55.579 Z" id="Fill-41" fill="#F6F9F6" sketch:type="MSShapeGroup"></path>
            <path d="M27.326,55.579 L123.278,55.579 L123.278,175.381 L27.326,175.381 L27.326,55.579 Z" id="Stroke-42" stroke="#B4B5B4" sketch:type="MSShapeGroup"></path>
            <path d="M26.826,55.079 L123.778,55.079 L123.778,175.881 L26.826,175.881 L26.826,55.079 Z M27.826,174.881 L122.778,174.881 L122.778,56.079 L27.826,56.079 L27.826,174.881 Z" id="Fill-43" fill="#F6F9F6" sketch:type="MSShapeGroup"></path>
            <path d="M26.826,55.079 L123.778,55.079 L123.778,175.881 L26.826,175.881 L26.826,55.079 Z M27.826,174.881 L122.778,174.881 L122.778,56.079 L27.826,56.079 L27.826,174.881 Z" id="Stroke-44" stroke="#B4B5B4" sketch:type="MSShapeGroup"></path>
            <path d="M128.629,169.07 L30.347,171.167 L27.725,48.232 L126.008,46.136 L128.629,169.07 L128.629,169.07 Z" id="Fill-45" fill="#F6F9F6" sketch:type="MSShapeGroup"></path>
            <path d="M128.629,169.07 L30.347,171.167 L27.725,48.232 L126.008,46.136 L128.629,169.07 L128.629,169.07 Z" id="Stroke-46" stroke="#B4B5B4" sketch:type="MSShapeGroup"></path>
            <path d="M29.857,171.678 L27.214,47.743 L126.497,45.625 L129.14,169.56 L29.857,171.678 L29.857,171.678 Z M28.235,48.722 L30.836,170.656 L128.118,168.581 L125.519,46.647 L28.235,48.722 L28.235,48.722 Z" id="Fill-47" fill="#F6F9F6" sketch:type="MSShapeGroup"></path>
            <path d="M29.857,171.678 L27.214,47.743 L126.497,45.625 L129.14,169.56 L29.857,171.678 L29.857,171.678 Z M28.235,48.722 L30.836,170.656 L128.118,168.581 L125.519,46.647 L28.235,48.722 L28.235,48.722 Z" id="Stroke-48" stroke="#B4B5B4" sketch:type="MSShapeGroup"></path>
            <path d="M34.269,38.865 L134.928,38.865 L134.928,164.988 L34.269,164.988 L34.269,38.865 Z" id="Fill-49" fill="#F6F9F6" sketch:type="MSShapeGroup"></path>
            <path d="M34.269,38.865 L134.928,38.865 L134.928,164.988 L34.269,164.988 L34.269,38.865 Z" id="Stroke-50" stroke="#B4B5B4" sketch:type="MSShapeGroup"></path>
            <path d="M33.769,38.365 L135.428,38.365 L135.428,165.488 L33.769,165.488 L33.769,38.365 Z M34.769,164.488 L134.428,164.488 L134.428,39.365 L34.769,39.365 L34.769,164.488 Z" id="Fill-51" fill="#F6F9F6" sketch:type="MSShapeGroup"></path>
            <path d="M33.769,38.365 L135.428,38.365 L135.428,165.488 L33.769,165.488 L33.769,38.365 Z M34.769,164.488 L134.428,164.488 L134.428,39.365 L34.769,39.365 L34.769,164.488 Z" id="Stroke-52" stroke="#B4B5B4" sketch:type="MSShapeGroup"></path>
            <path d="M141.88,156.774 L38.898,159.273 L35.762,30.028 L138.744,27.529 L141.88,156.774 L141.88,156.774 Z" id="Fill-53" fill="#F6F9F6" sketch:type="MSShapeGroup"></path>
            <path d="M141.88,156.774 L38.898,159.273 L35.762,30.028 L138.744,27.529 L141.88,156.774 L141.88,156.774 Z" id="Stroke-54" stroke="#B4B5B4" sketch:type="MSShapeGroup"></path>
            <path d="M38.411,159.785 L35.25,29.541 L35.75,29.528 L139.231,27.018 L139.244,27.518 L142.392,157.262 L141.892,157.274 L38.411,159.785 L38.411,159.785 Z M36.274,30.516 L39.386,158.762 L141.368,156.287 L138.257,28.041 L36.274,30.516 L36.274,30.516 Z" id="Fill-55" fill="#F6F9F6" sketch:type="MSShapeGroup"></path>
            <path d="M38.411,159.785 L35.25,29.541 L35.75,29.528 L139.231,27.018 L139.244,27.518 L142.392,157.262 L141.892,157.274 L38.411,159.785 L38.411,159.785 Z M36.274,30.516 L39.386,158.762 L141.368,156.287 L138.257,28.041 L36.274,30.516 L36.274,30.516 Z" id="Stroke-56" stroke="#B4B5B4" sketch:type="MSShapeGroup"></path>
            <path d="M137.557,152.485 L32.229,149.658 L35.784,17.263 L141.11,20.09 L137.557,152.485 L137.557,152.485 Z" id="Fill-57" fill="#F6F9F6" sketch:type="MSShapeGroup"></path>
            <path d="M137.557,152.485 L32.229,149.658 L35.784,17.263 L141.11,20.09 L137.557,152.485 L137.557,152.485 Z" id="Stroke-58" stroke="#B4B5B4" sketch:type="MSShapeGroup"></path>
            <path d="M138.043,152.999 L137.543,152.985 L31.716,150.144 L35.297,16.749 L35.797,16.763 L141.624,19.604 L138.043,152.999 L138.043,152.999 Z M32.743,149.172 L137.07,151.972 L140.597,20.576 L36.27,17.776 L32.743,149.172 L32.743,149.172 Z" id="Fill-59" fill="#F6F9F6" sketch:type="MSShapeGroup"></path>
            <path d="M138.043,152.999 L137.543,152.985 L31.716,150.144 L35.297,16.749 L35.797,16.763 L141.624,19.604 L138.043,152.999 L138.043,152.999 Z M32.743,149.172 L137.07,151.972 L140.597,20.576 L36.27,17.776 L32.743,149.172 L32.743,149.172 Z" id="Stroke-60" stroke="#B4B5B4" sketch:type="MSShapeGroup"></path>
            <path d="M131.824,148.707 C35.52,134.122 34.744,20.068 38.424,1.763 C87.014,38.074 121.761,92.756 131.824,148.707 L131.824,148.707 Z" id="Fill-61" fill="#E4E5E3" sketch:type="MSShapeGroup"></path>
            <path d="M131.824,148.707 C35.52,134.122 34.744,20.068 38.424,1.763 C87.014,38.074 121.761,92.756 131.824,148.707 L131.824,148.707 Z" id="Stroke-62" stroke="#B4B5B4" sketch:type="MSShapeGroup"></path>
            <path d="M132.44,149.306 L131.749,149.201 C102.309,144.743 79.068,130.613 62.673,107.207 C35.754,68.777 35.122,15.648 37.934,1.664 L38.09,0.889 L38.724,1.362 C87.269,37.641 122.257,92.69 132.316,148.618 L132.44,149.306 L132.44,149.306 Z M38.768,2.646 C36.156,17.626 37.239,69.153 63.491,106.633 C79.596,129.623 102.376,143.574 131.207,148.106 C121.073,92.907 86.58,38.63 38.768,2.646 L38.768,2.646 Z" id="Fill-63" fill="#E4E5E3" sketch:type="MSShapeGroup"></path>
            <path d="M132.44,149.306 L131.749,149.201 C102.309,144.743 79.068,130.613 62.673,107.207 C35.754,68.777 35.122,15.648 37.934,1.664 L38.09,0.889 L38.724,1.362 C87.269,37.641 122.257,92.69 132.316,148.618 L132.44,149.306 L132.44,149.306 Z M38.768,2.646 C36.156,17.626 37.239,69.153 63.491,106.633 C79.596,129.623 102.376,143.574 131.207,148.106 C121.073,92.907 86.58,38.63 38.768,2.646 L38.768,2.646 Z" id="Stroke-64" stroke="#B4B5B4" sketch:type="MSShapeGroup"></path>
            <path d="M131.824,148.707 C77.664,140.505 40.827,90.893 69.554,79.356 C69.554,79.356 29.242,47.346 38.424,1.763 C78.505,22.459 133.922,19.76 145.985,23.32 C145.985,23.32 129.54,93.151 131.824,148.707 L131.824,148.707 Z" id="Fill-65" fill="#F6F9F6" sketch:type="MSShapeGroup"></path>
            <path d="M131.824,148.707 C77.664,140.505 40.827,90.893 69.554,79.356 C69.554,79.356 29.242,47.346 38.424,1.763 C78.505,22.459 133.922,19.76 145.985,23.32 C145.985,23.32 129.54,93.151 131.824,148.707 L131.824,148.707 Z" id="Stroke-66" stroke="#B4B5B4" sketch:type="MSShapeGroup"></path>
            <path d="M132.349,149.292 L131.749,149.201 C113.523,146.441 95.651,138.695 81.425,127.39 C68.633,117.225 60.313,105.282 59.168,95.441 C58.307,88.035 61.652,82.301 68.604,79.214 C63.468,74.821 29.437,43.844 37.934,1.664 L38.065,1.015 L38.654,1.318 C67.451,16.189 104.76,18.986 127.051,20.657 C135.798,21.314 142.707,21.831 146.127,22.841 L146.58,22.975 L146.472,23.435 C146.308,24.133 130.068,93.837 132.324,148.687 L132.349,149.292 L132.349,149.292 Z M38.787,2.511 C30.277,46.936 69.466,78.647 69.864,78.964 L70.538,79.499 L69.74,79.819 C62.626,82.677 59.314,88.039 60.161,95.326 C61.276,104.909 69.457,116.604 82.047,126.606 C95.983,137.682 113.452,145.309 131.301,148.12 C129.274,95.601 143.972,29.872 145.391,23.675 C141.925,22.775 135.286,22.277 126.977,21.654 C104.761,19.988 67.682,17.209 38.787,2.511 L38.787,2.511 Z" id="Fill-67" fill="#F6F9F6" sketch:type="MSShapeGroup"></path>
            <path d="M132.349,149.292 L131.749,149.201 C113.523,146.441 95.651,138.695 81.425,127.39 C68.633,117.225 60.313,105.282 59.168,95.441 C58.307,88.035 61.652,82.301 68.604,79.214 C63.468,74.821 29.437,43.844 37.934,1.664 L38.065,1.015 L38.654,1.318 C67.451,16.189 104.76,18.986 127.051,20.657 C135.798,21.314 142.707,21.831 146.127,22.841 L146.58,22.975 L146.472,23.435 C146.308,24.133 130.068,93.837 132.324,148.687 L132.349,149.292 L132.349,149.292 Z M38.787,2.511 C30.277,46.936 69.466,78.647 69.864,78.964 L70.538,79.499 L69.74,79.819 C62.626,82.677 59.314,88.039 60.161,95.326 C61.276,104.909 69.457,116.604 82.047,126.606 C95.983,137.682 113.452,145.309 131.301,148.12 C129.274,95.601 143.972,29.872 145.391,23.675 C141.925,22.775 135.286,22.277 126.977,21.654 C104.761,19.988 67.682,17.209 38.787,2.511 L38.787,2.511 Z" id="Stroke-68" stroke="#B4B5B4" sketch:type="MSShapeGroup"></path>
        </g>
    </g>
</svg>