<?xml version="1.0" encoding="UTF-8" standalone="no"?>
<svg width="399px" height="259px" viewBox="0 0 399 259" version="1.1" xmlns="http://www.w3.org/2000/svg" xmlns:xlink="http://www.w3.org/1999/xlink" xmlns:sketch="http://www.bohemiancoding.com/sketch/ns">
    <!-- Generator: Sketch 3.3.3 (12081) - http://www.bohemiancoding.com/sketch -->
    <title>submissions_board</title>
    <desc>Created with Sketch.</desc>
    <defs></defs>
    <g id="Page-1" stroke="none" stroke-width="1" fill="none" fill-rule="evenodd" sketch:type="MSPage">
        <g id="submissions_board" sketch:type="MSLayerGroup" transform="translate(0.000000, 14.000000)">
            <path d="M395.051742,228.754455 L3.37492615,228.777778 L3.40316308,3.46404233 L395.077523,3.4431746 L395.051742,228.754455" id="Fill-1" fill="#505960" sketch:type="MSShapeGroup"></path>
            <path d="M394.957209,231.539683 L394.938794,231.539683 L3.26197846,231.56055 C1.77401538,231.56055 0.597886154,230.382138 0.599113846,228.888254 L0.628578462,3.57697354 C0.627350769,2.81959788 0.935501538,2.08308995 1.48182462,1.53684656 C2.02569231,0.989375661 2.75985231,0.696 3.51611077,0.681269841 L395.191698,0.660402116 C396.678434,0.660402116 397.853335,1.83881481 397.855791,3.33024339 L397.826326,228.643979 C397.825098,229.398899 397.518175,230.136635 396.971852,230.682878 C396.43044,231.225439 395.703646,231.533545 394.957209,231.539683 L394.957209,231.539683 Z M6.15073846,225.991323 L392.274702,225.97291 L392.301711,6.2271746 L6.17897538,6.24804233 L6.15073846,225.991323 L6.15073846,225.991323 Z" id="Fill-2" fill="#6A6E74" sketch:type="MSShapeGroup"></path>
            <path d="M242.493785,176.694392 L150.102572,175.782349 L150.172551,54.749545 L242.567446,55.6615873 L242.493785,176.694392" id="Fill-3" fill="#A7A4C6" sketch:type="MSShapeGroup"></path>
            <path d="M363.841348,206.054053 L271.448908,205.143238 L271.522569,84.1116614 L363.916237,85.0237037 L363.841348,206.054053" id="Fill-4" fill="#AABED8" sketch:type="MSShapeGroup"></path>
            <path d="M120.637957,210.64127 L28.2455169,209.728 L28.4836892,85.7160212 L120.874902,86.626836 L120.637957,210.64127" id="Fill-5" fill="#BFD9D4" sketch:type="MSShapeGroup"></path>
            <path d="M73.0194554,103.972825 L71.8862954,104.546074 L75.0819785,97.3111111 L75.8468308,97.6020317 L73.0194554,103.972825" id="Fill-6" fill="#747B85" sketch:type="MSShapeGroup"></path>
            <path d="M73.0194554,103.972825 L71.8862954,104.546074 L75.0819785,97.3111111 L75.8468308,97.6020317 L73.0194554,103.972825" id="Fill-7" fill="#56616C" sketch:type="MSShapeGroup"></path>
            <path d="M71.8862954,104.546074 L71.4909785,103.392212 L74.3171262,97.021418 L75.0819785,97.3111111 L71.8862954,104.546074" id="Fill-8" fill="#747B85" sketch:type="MSShapeGroup"></path>
            <path d="M71.8862954,104.546074 L71.4909785,103.392212 L74.3171262,97.021418 L75.0819785,97.3111111 L71.8862954,104.546074" id="Fill-9" fill="#415460" sketch:type="MSShapeGroup"></path>
            <path d="M81.5997969,93.3216931 C81.5003538,95.858963 79.3764462,97.9285503 76.8584492,97.9457354 C74.3392246,97.9629206 72.3773723,95.9191111 72.4768154,93.3830688 C72.5762585,90.8457989 74.7001662,88.7749841 77.2193908,88.7590265 C79.7373877,88.7418413 81.69924,90.7844233 81.5997969,93.3216931" id="Fill-10" fill="#52A4A0" sketch:type="MSShapeGroup"></path>
            <path d="M79.0756615,91.6154497 C79.0547908,92.1641481 78.5956338,92.610963 78.0505385,92.6146455 C77.5066708,92.618328 77.0843446,92.1776508 77.1064431,91.6289524 C77.1273138,91.0814815 77.5840154,90.6346667 78.1291108,90.6309841 C78.6729785,90.6285291 79.09776,91.0679788 79.0756615,91.6154497" id="Fill-11" fill="#FFFFFF" sketch:type="MSShapeGroup"></path>
            <path d="M197.311025,72.4588783 L196.177865,73.0333545 L199.374775,65.7983915 L200.139628,66.0880847 L197.311025,72.4588783" id="Fill-12" fill="#747B85" sketch:type="MSShapeGroup"></path>
            <path d="M197.311025,72.4588783 L196.177865,73.0333545 L199.374775,65.7983915 L200.139628,66.0880847 L197.311025,72.4588783" id="Fill-13" fill="#56616C" sketch:type="MSShapeGroup"></path>
            <path d="M196.177865,73.0333545 L195.782548,71.8794921 L198.608695,65.5086984 L199.374775,65.7983915 L196.177865,73.0333545" id="Fill-14" fill="#747B85" sketch:type="MSShapeGroup"></path>
            <path d="M196.177865,73.0333545 L195.782548,71.8794921 L198.608695,65.5086984 L199.374775,65.7983915 L196.177865,73.0333545" id="Fill-15" fill="#415460" sketch:type="MSShapeGroup"></path>
            <path d="M205.891366,61.807746 C205.791923,64.3450159 203.668015,66.4158307 201.148791,66.4330159 C198.630794,66.4489735 196.668942,64.405164 196.768385,61.8678942 C196.869055,59.3318519 198.992963,57.261037 201.51096,57.2450794 C204.030185,57.2291217 205.992037,59.2717037 205.891366,61.807746" id="Fill-16" fill="#5F5E9A" sketch:type="MSShapeGroup"></path>
            <path d="M203.368458,60.1027302 C203.347588,60.6514286 202.888431,61.0982434 202.343335,61.1019259 C201.799468,61.1056085 201.375914,60.6637037 201.398012,60.1162328 C201.420111,59.5675344 201.876812,59.1219471 202.421908,59.1182646 C202.965775,59.114582 203.390557,59.5552593 203.368458,60.1027302" id="Fill-17" fill="#FFFFFF" sketch:type="MSShapeGroup"></path>
            <path d="M320.759169,102.337778 L319.624782,102.911026 L322.821692,95.6760635 L323.586545,95.9669841 L320.759169,102.337778" id="Fill-18" fill="#747B85" sketch:type="MSShapeGroup"></path>
            <path d="M320.759169,102.337778 L319.624782,102.911026 L322.821692,95.6760635 L323.586545,95.9669841 L320.759169,102.337778" id="Fill-19" fill="#56616C" sketch:type="MSShapeGroup"></path>
            <path d="M319.624782,102.911026 L319.230692,101.757164 L322.058068,95.3863704 L322.821692,95.6760635 L319.624782,102.911026" id="Fill-20" fill="#747B85" sketch:type="MSShapeGroup"></path>
            <path d="M319.624782,102.911026 L319.230692,101.757164 L322.058068,95.3863704 L322.821692,95.6760635 L319.624782,102.911026" id="Fill-21" fill="#415460" sketch:type="MSShapeGroup"></path>
            <path d="M329.340738,91.6866455 C329.241295,94.2239153 327.11616,96.2935026 324.598163,96.3106878 C322.080166,96.3266455 320.118314,94.2840635 320.217757,91.7480212 C320.3172,89.2107513 322.441108,87.1399365 324.957877,87.1227513 C327.477102,87.1067937 329.440182,89.1493757 329.340738,91.6866455" id="Fill-22" fill="#5C8BBC" sketch:type="MSShapeGroup"></path>
            <path d="M326.815375,89.9804021 C326.793277,90.5291005 326.337803,90.9759153 325.792708,90.9795979 C325.24884,90.9832804 324.824058,90.5426032 324.846157,89.9939048 C324.867028,89.4464339 325.326185,88.999619 325.87128,88.9959365 C326.415148,88.992254 326.837474,89.4329312 326.815375,89.9804021" id="Fill-23" fill="#FFFFFF" sketch:type="MSShapeGroup"></path>
            <path d="M113.917569,117.795852 L48.4471938,117.105989 L48.5871508,114.600635 L114.058754,115.290497 L113.917569,117.795852" id="Fill-24" fill="#56616C" sketch:type="MSShapeGroup"></path>
            <path d="M38.1493108,127.215788 L37.3537662,131.246942 L34.6221508,131.264127 L38.2671692,113.725418 L41.8765846,113.703323 L44.1023908,131.202751 L41.3437662,131.219937 L40.88952,127.197376 L38.1493108,127.215788 L38.1493108,127.215788 Z M39.9012277,117.725884 L38.6575754,124.640466 L40.6010123,124.626963 L39.9012277,117.725884 L39.9012277,117.725884 Z" id="Fill-25" fill="#52A4A0" sketch:type="MSShapeGroup"></path>
            <path d="M113.926163,124.935069 L48.4533323,124.246434 L48.5945169,121.739852 L114.064892,122.429714 L113.926163,124.935069" id="Fill-26" fill="#56616C" sketch:type="MSShapeGroup"></path>
            <path d="M113.933529,132.075513 L48.4631538,131.385651 L48.6018831,128.879069 L114.074714,129.567704 L113.933529,132.075513" id="Fill-27" fill="#56616C" sketch:type="MSShapeGroup"></path>
            <path d="M113.943351,139.21473 L36.4771938,138.400889 L36.6183785,135.894307 L114.08208,136.708148 L113.943351,139.21473" id="Fill-28" fill="#56616C" sketch:type="MSShapeGroup"></path>
            <path d="M113.949489,146.353947 L36.4857877,145.540106 L36.6269723,143.034751 L114.090674,143.848593 L113.949489,146.353947" id="Fill-29" fill="#56616C" sketch:type="MSShapeGroup"></path>
            <path d="M113.956855,153.494392 L36.4943815,152.68055 L36.6355662,150.173968 L114.09804,150.989037 L113.956855,153.494392" id="Fill-30" fill="#56616C" sketch:type="MSShapeGroup"></path>
            <path d="M113.964222,160.633608 L36.5017477,159.81854 L36.6429323,157.313185 L114.106634,158.127026 L113.964222,160.633608" id="Fill-31" fill="#56616C" sketch:type="MSShapeGroup"></path>
            <path d="M113.974043,167.774053 L36.5103415,166.958984 L36.6502985,164.45363 L114.114,165.268698 L113.974043,167.774053" id="Fill-32" fill="#56616C" sketch:type="MSShapeGroup"></path>
            <path d="M113.981409,174.91327 L36.5177077,174.098201 L36.6588923,171.592847 L114.121366,172.407915 L113.981409,174.91327" id="Fill-33" fill="#56616C" sketch:type="MSShapeGroup"></path>
            <path d="M113.988775,182.052487 L36.5263015,181.238646 L36.6662585,178.732063 L114.131188,179.54836 L113.988775,182.052487" id="Fill-34" fill="#56616C" sketch:type="MSShapeGroup"></path>
            <path d="M113.998597,189.194159 L36.5336677,188.37909 L36.6748523,185.873735 L114.138554,186.687577 L113.998597,189.194159" id="Fill-35" fill="#56616C" sketch:type="MSShapeGroup"></path>
            <path d="M114.004735,196.332148 L36.5410338,195.519534 L36.6822185,193.012952 L114.14592,193.826794 L114.004735,196.332148" id="Fill-36" fill="#56616C" sketch:type="MSShapeGroup"></path>
            <path d="M113.802166,203.472593 L36.3396923,202.656296 L36.4796492,200.149714 L113.945806,200.967238 L113.802166,203.472593" id="Fill-37" fill="#56616C" sketch:type="MSShapeGroup"></path>
            <path d="M236.938477,81.845672 L171.466874,81.157037 L171.608058,78.6516825 L237.078434,79.3403175 L236.938477,81.845672" id="Fill-38" fill="#56616C" sketch:type="MSShapeGroup"></path>
            <path d="M157.643058,95.3151746 L158.331794,77.7826032 L162.260409,77.7568254 C163.296582,77.7494603 164.221034,78.0182857 165.032538,78.5620741 C165.724957,79.023619 166.20744,79.7429418 166.473849,80.7200423 C166.619945,81.2417354 166.680102,81.8604021 166.650637,82.5784974 C166.603985,83.7507725 166.256548,84.6959577 165.608326,85.4079153 C165.338234,85.7086561 165.023945,85.9394286 164.665458,86.0990053 C165.240018,86.3187302 165.717591,86.7581799 166.099403,87.418582 C166.349852,87.8629418 166.527868,88.439873 166.629766,89.1469206 C166.680102,89.5102646 166.693606,89.9165714 166.677646,90.3633862 C166.634677,91.4730582 166.389138,92.4170159 165.942258,93.1915767 C165.594822,93.8004233 165.116022,94.2865185 164.510769,94.6547725 C163.826945,95.069672 163.15908,95.2795767 162.502265,95.2844868 L157.643058,95.3151746 L157.643058,95.3151746 Z M160.881711,84.9218201 L161.97804,84.914455 C162.793228,84.909545 163.354283,84.5056931 163.664889,83.701672 C163.777837,83.4021587 163.844132,83.0351323 163.86132,82.5956825 C163.889557,81.8689947 163.734868,81.3215238 163.399708,80.9495873 C163.087874,80.6071111 162.672914,80.4377143 162.154828,80.4413968 L161.057271,80.4487619 L160.881711,84.9218201 L160.881711,84.9218201 Z M160.577243,92.6821587 L161.6748,92.6760212 C162.562422,92.6698836 163.195911,92.2034286 163.57404,91.2791111 C163.707858,90.9611852 163.78152,90.5966138 163.79748,90.1866243 C163.835538,89.2082963 163.678394,88.4951111 163.328502,88.0507513 C163.009302,87.6432169 162.526818,87.4419048 161.878597,87.4455873 L160.782268,87.4529524 L160.577243,92.6821587 L160.577243,92.6821587 Z" id="Fill-39" fill="#545594" sketch:type="MSShapeGroup"></path>
            <path d="M236.945843,88.9873439 L171.47424,88.2974815 L171.614197,85.7908995 L237.087028,86.4807619 L236.945843,88.9873439" id="Fill-40" fill="#56616C" sketch:type="MSShapeGroup"></path>
            <path d="M236.954437,96.1253333 L171.482834,95.4366984 L171.624018,92.9301164 L237.094394,93.6187513 L236.954437,96.1253333" id="Fill-41" fill="#56616C" sketch:type="MSShapeGroup"></path>
            <path d="M236.963031,103.26455 L159.499329,102.450709 L159.639286,99.9453545 L237.104215,100.759196 L236.963031,103.26455" id="Fill-42" fill="#56616C" sketch:type="MSShapeGroup"></path>
            <path d="M236.969169,110.406222 L159.506695,109.591153 L159.646652,107.085799 L237.110354,107.89964 L236.969169,110.406222" id="Fill-43" fill="#56616C" sketch:type="MSShapeGroup"></path>
            <path d="M236.977763,117.545439 L159.515289,116.73037 L159.655246,114.225016 L237.118948,115.040085 L236.977763,117.545439" id="Fill-44" fill="#56616C" sketch:type="MSShapeGroup"></path>
            <path d="M236.987585,124.684656 L159.523883,123.869587 L159.66384,121.363005 L237.126314,122.178074 L236.987585,124.684656" id="Fill-45" fill="#56616C" sketch:type="MSShapeGroup"></path>
            <path d="M236.993723,131.826328 L159.530022,131.010032 L159.671206,128.502222 L237.13368,129.318519 L236.993723,131.826328" id="Fill-46" fill="#56616C" sketch:type="MSShapeGroup"></path>
            <path d="M237.002317,138.965545 L159.537388,138.149249 L159.6798,135.642667 L237.143502,136.457735 L237.002317,138.965545" id="Fill-47" fill="#56616C" sketch:type="MSShapeGroup"></path>
            <path d="M237.010911,146.102307 L159.547209,145.289693 L159.687166,142.781884 L237.150868,143.596952 L237.010911,146.102307" id="Fill-48" fill="#56616C" sketch:type="MSShapeGroup"></path>
            <path d="M237.017049,153.245206 L159.554575,152.430138 L159.694532,149.923556 L237.158234,150.739852 L237.017049,153.245206" id="Fill-49" fill="#56616C" sketch:type="MSShapeGroup"></path>
            <path d="M237.025643,160.384423 L159.563169,159.569354 L159.704354,157.062772 L237.169283,157.879069 L237.025643,160.384423" id="Fill-50" fill="#56616C" sketch:type="MSShapeGroup"></path>
            <path d="M236.823074,167.522413 L159.3606,166.707344 L159.500557,164.201989 L236.964258,165.015831 L236.823074,167.522413" id="Fill-51" fill="#56616C" sketch:type="MSShapeGroup"></path>
            <path d="M357.564157,113.339979 L292.091326,112.651344 L292.232511,110.144762 L357.705342,110.834624 L357.564157,113.339979" id="Fill-52" fill="#56616C" sketch:type="MSShapeGroup"></path>
            <path d="M282.424477,127.004656 C281.266763,127.012021 280.299342,126.611852 279.522212,125.800466 C278.743855,124.990307 278.378003,124.007069 278.423428,122.851979 L278.800329,113.288423 C278.845754,112.123513 279.292634,111.130455 280.138514,110.308021 C280.984394,109.488042 281.982508,109.073143 283.1304,109.067005 C284.288114,109.058413 285.251852,109.462265 286.024071,110.277333 C286.796289,111.092402 287.158458,112.078095 287.114262,113.233185 L287.035689,115.232804 L284.316351,115.251217 L284.394923,113.19636 C284.412111,112.775323 284.27952,112.418116 283.993468,112.122286 C283.709871,111.826455 283.359978,111.677926 282.943791,111.681608 C282.527603,111.684063 282.167889,111.835048 281.862194,112.137016 C281.560182,112.436529 281.400582,112.79619 281.383394,113.216 L281.00772,122.807788 C280.990532,123.22637 281.120668,123.581122 281.401809,123.87327 C281.682951,124.165418 282.030388,124.310265 282.446575,124.30781 C282.861535,124.305354 283.224932,124.155598 283.533083,123.85854 C283.840006,123.563937 284.002062,123.20673 284.019249,122.786921 L284.113782,120.36872 L286.834348,120.350307 L286.738588,122.796741 C286.693163,123.961651 286.246283,124.952254 285.401631,125.769778 C284.553295,126.584847 283.562548,126.997291 282.424477,127.004656" id="Fill-53" fill="#4F84B7" sketch:type="MSShapeGroup"></path>
            <path d="M357.572751,120.480423 L292.101148,119.790561 L292.242332,117.285206 L357.71148,117.973841 L357.572751,120.480423" id="Fill-54" fill="#56616C" sketch:type="MSShapeGroup"></path>
            <path d="M357.581345,127.618413 L292.109742,126.929778 L292.249698,124.424423 L357.721302,125.113058 L357.581345,127.618413" id="Fill-55" fill="#56616C" sketch:type="MSShapeGroup"></path>
            <path d="M357.587483,134.758857 L280.123782,133.945016 L280.264966,131.438434 L357.728668,132.252275 L357.587483,134.758857" id="Fill-56" fill="#56616C" sketch:type="MSShapeGroup"></path>
            <path d="M357.596077,141.900529 L280.132375,141.084233 L280.27356,138.578878 L357.737262,139.393947 L357.596077,141.900529" id="Fill-57" fill="#56616C" sketch:type="MSShapeGroup"></path>
            <path d="M357.603443,149.039746 L280.140969,148.224677 L280.280926,145.718095 L357.744628,146.533164 L357.603443,149.039746" id="Fill-58" fill="#56616C" sketch:type="MSShapeGroup"></path>
            <path d="M357.610809,156.176508 L280.147108,155.362667 L280.28952,152.857312 L357.753222,153.671153 L357.610809,156.176508" id="Fill-59" fill="#56616C" sketch:type="MSShapeGroup"></path>
            <path d="M357.620631,163.316952 L280.156929,162.503111 L280.296886,159.997757 L357.760588,160.811598 L357.620631,163.316952" id="Fill-60" fill="#56616C" sketch:type="MSShapeGroup"></path>
            <path d="M357.627997,170.457397 L280.164295,169.643556 L280.304252,167.136974 L357.767954,167.950815 L357.627997,170.457397" id="Fill-61" fill="#56616C" sketch:type="MSShapeGroup"></path>
            <path d="M357.636591,177.599069 L280.171662,176.784 L280.312846,174.277418 L357.777775,175.092487 L357.636591,177.599069" id="Fill-62" fill="#56616C" sketch:type="MSShapeGroup"></path>
            <path d="M357.645185,184.738286 L280.181483,183.923217 L280.32144,181.417862 L357.785142,182.231704 L357.645185,184.738286" id="Fill-63" fill="#56616C" sketch:type="MSShapeGroup"></path>
            <path d="M357.651323,191.877503 L280.188849,191.062434 L280.328806,188.557079 L357.792508,189.372148 L357.651323,191.877503" id="Fill-64" fill="#56616C" sketch:type="MSShapeGroup"></path>
            <path d="M357.449982,199.01672 L279.98628,198.200423 L280.126237,195.695069 L357.591166,196.510138 L357.449982,199.01672" id="Fill-65" fill="#56616C" sketch:type="MSShapeGroup"></path>
            <path d="M246.078646,40.0832169 L157.531338,40.4477884 L158.012594,17.2453333 L246.558674,16.8819894 L246.078646,40.0832169" id="Fill-66" fill="#F2F2F1" sketch:type="MSShapeGroup"></path>
            <path d="M170.985618,24.1807831 L170.985618,25.1775238 L168.468849,25.1775238 L168.468849,32.2283598 L167.293948,32.2283598 L167.293948,25.1775238 L164.827514,25.1775238 L164.827514,24.1807831 L170.985618,24.1807831" id="Fill-67" fill="#4D4D4C" sketch:type="MSShapeGroup"></path>
            <path d="M174.507868,32.343746 C172.8468,32.343746 171.594554,31.2708995 171.594554,29.2896931 C171.594554,27.2716614 172.898363,26.1349841 174.559431,26.1349841 C176.219271,26.1349841 177.471517,27.1820529 177.471517,29.1620317 C177.471517,31.1800635 176.168935,32.343746 174.507868,32.343746 L174.507868,32.343746 Z M174.520145,27.0040635 C173.626385,27.0040635 172.770683,27.5012063 172.770683,29.2270899 C172.770683,30.8228571 173.650938,31.4746667 174.545926,31.4746667 C175.439686,31.4746667 176.296615,30.9505185 176.296615,29.2270899 C176.296615,27.6300952 175.415132,27.0040635 174.520145,27.0040635 L174.520145,27.0040635 Z" id="Fill-68" fill="#4D4D4C" sketch:type="MSShapeGroup"></path>
            <path d="M182.819345,23.1582646 L183.943911,23.1582646 L183.943911,32.2283598 L182.998588,32.2283598 L182.857403,31.5642751 L182.819345,31.5642751 C182.29512,32.1129735 181.822458,32.343746 181.004815,32.343746 C179.728015,32.343746 178.462265,31.3335026 178.462265,29.2393651 C178.462265,27.3489947 179.459151,26.1349841 181.158277,26.1349841 C181.7844,26.1349841 182.372465,26.3264762 182.819345,26.7217354 L182.819345,23.1582646 L182.819345,23.1582646 Z M182.819345,27.6681481 C182.410523,27.2078307 181.937862,26.9905608 181.40136,26.9905608 C180.481818,26.9905608 179.600335,27.6165926 179.600335,29.2013122 C179.600335,30.8228571 180.430255,31.4746667 181.261403,31.4746667 C181.899803,31.4746667 182.4228,31.1935661 182.819345,30.6436402 L182.819345,27.6681481 L182.819345,27.6681481 Z" id="Fill-69" fill="#4D4D4C" sketch:type="MSShapeGroup"></path>
            <path d="M185.740025,26.7610159 C186.544163,26.3387513 187.132228,26.1349841 188.013711,26.1349841 C189.343302,26.1349841 190.27512,26.6591323 190.27512,28.3187302 L190.27512,32.2283598 L189.343302,32.2283598 L189.202117,31.5642751 L189.176335,31.5642751 C188.653338,32.1264762 188.013711,32.343746 187.259908,32.343746 C186.110788,32.343746 185.267363,31.6796614 185.267363,30.6190899 C185.267363,29.3547513 186.353871,28.6894392 187.989157,28.6894392 L189.138277,28.6894392 L189.138277,28.1787937 C189.138277,27.3097143 188.653338,27.0543915 187.911812,27.0543915 C187.477209,27.0543915 186.902649,27.1697778 186.1734,27.5785397 L185.740025,26.7610159 L185.740025,26.7610159 Z M189.150554,29.4566349 L188.205231,29.4824127 C186.928431,29.5204656 186.442265,29.9795556 186.442265,30.581037 C186.442265,31.3089524 186.952985,31.5127196 187.528772,31.5127196 C188.091055,31.5127196 188.703674,31.2573968 189.150554,30.6829206 L189.150554,29.4566349 L189.150554,29.4566349 Z" id="Fill-70" fill="#4D4D4C" sketch:type="MSShapeGroup"></path>
            <path d="M191.165197,26.2245926 L192.367108,26.2245926 L193.643908,29.6604021 L194.078511,31.0916825 L194.104292,31.0916825 L194.537668,29.6604021 L195.70152,26.2245926 L196.85064,26.2245926 L194.537668,32.7390053 C194.026948,34.1825608 193.248591,34.9620317 192.187865,35.3327407 L191.701698,34.4378836 C192.494788,34.1322328 193.145465,33.594582 193.491674,32.573291 L193.605849,32.2283598 L191.165197,26.2245926" id="Fill-71" fill="#4D4D4C" sketch:type="MSShapeGroup"></path>
            <path d="M198.097975,24.269164 C197.6646,24.218836 197.433794,23.848127 197.433794,23.4516402 C197.433794,23.0441058 197.72844,22.6598942 198.23916,22.6598942 C198.635705,22.6598942 199.158702,22.9029418 199.158702,23.8739048 C199.158702,24.7933122 198.571865,25.5985608 197.754222,26.0453757 L197.383458,25.5347302 C197.830338,25.2916825 198.213378,24.9086984 198.328782,24.3084444 L198.097975,24.269164" id="Fill-72" fill="#4D4D4C" sketch:type="MSShapeGroup"></path>
            <path d="M203.782191,27.3489947 C203.21868,27.0801693 202.785305,26.9905608 202.32492,26.9905608 C201.520782,26.9905608 201.124237,27.3097143 201.124237,27.8080847 C201.124237,28.1665185 201.315757,28.4095661 202.186191,28.6648889 L202.568003,28.7790476 C203.706074,29.1117037 204.305188,29.6100741 204.305188,30.5294815 C204.305188,31.6146032 203.449486,32.343746 202.00572,32.343746 C201.23964,32.343746 200.498114,32.202582 199.987394,31.9595344 L200.255031,31.0781799 C200.741197,31.3212275 201.341538,31.4746667 201.94188,31.4746667 C202.696911,31.4746667 203.194126,31.2193439 203.194126,30.5933122 C203.194126,30.0568889 202.785305,29.8911746 202.057283,29.6739048 L201.660738,29.5450159 C200.561954,29.1878095 200.025452,28.677164 200.025452,27.8338624 C200.025452,26.7990688 200.944994,26.1349841 202.19724,26.1349841 C202.785305,26.1349841 203.461763,26.2368677 204.036323,26.493418 L203.782191,27.3489947" id="Fill-73" fill="#4D4D4C" sketch:type="MSShapeGroup"></path>
            <path d="M208.592289,24.1807831 L211.122563,24.1807831 C212.782403,24.1807831 213.920474,25.0621376 213.920474,26.6198519 C213.920474,28.3187302 212.692782,29.1117037 210.969102,29.1117037 L209.767191,29.1117037 L209.767191,32.2283598 L208.592289,32.2283598 L208.592289,24.1807831 L208.592289,24.1807831 Z M209.767191,28.1530159 L210.49644,28.1530159 C211.774468,28.1530159 212.692782,27.8719153 212.692782,26.6333545 C212.692782,25.5089524 211.774468,25.1259683 210.853698,25.1259683 L209.767191,25.1259683 L209.767191,28.1530159 L209.767191,28.1530159 Z" id="Fill-74" fill="#4D4D4C" sketch:type="MSShapeGroup"></path>
            <path d="M215.180086,26.7610159 C215.985452,26.3387513 216.572289,26.1349841 217.453772,26.1349841 C218.783363,26.1349841 219.716409,26.6591323 219.716409,28.3187302 L219.716409,32.2283598 L218.783363,32.2283598 L218.642178,31.5642751 L218.616397,31.5642751 C218.0934,32.1264762 217.453772,32.343746 216.699969,32.343746 C215.550849,32.343746 214.707425,31.6796614 214.707425,30.6190899 C214.707425,29.3547513 215.792705,28.6894392 217.429218,28.6894392 L218.578338,28.6894392 L218.578338,28.1787937 C218.578338,27.3097143 218.0934,27.0543915 217.351874,27.0543915 C216.918498,27.0543915 216.342711,27.1697778 215.613462,27.5785397 L215.180086,26.7610159 L215.180086,26.7610159 Z M218.591843,29.4566349 L217.645292,29.4824127 C216.368492,29.5204656 215.882326,29.9795556 215.882326,30.581037 C215.882326,31.3089524 216.394274,31.5127196 216.968834,31.5127196 C217.529889,31.5127196 218.143735,31.2573968 218.591843,30.6829206 L218.591843,29.4566349 L218.591843,29.4566349 Z" id="Fill-75" fill="#4D4D4C" sketch:type="MSShapeGroup"></path>
            <path d="M223.696588,26.1349841 C223.953175,26.1349841 224.195031,26.173037 224.425837,26.2245926 L227.018723,26.2245926 L227.018723,27.0543915 L226.622178,27.0543915 L225.600738,26.914455 C225.919938,27.2581587 226.111458,27.7184762 226.111458,28.2045714 C226.111458,29.5450159 225.102295,30.2864339 223.696588,30.2864339 C223.454732,30.2864339 223.223926,30.2741587 223.007852,30.2348783 C222.623585,30.3760423 222.483628,30.6055873 222.483628,30.8363598 C222.483628,31.2193439 222.777046,31.3335026 223.212877,31.3335026 L224.795372,31.3335026 C226.111458,31.3335026 226.851757,31.9853122 226.851757,33.0201058 C226.851757,34.3482751 225.651074,35.1657989 223.748151,35.1657989 C222.010966,35.1657989 220.898677,34.5409947 220.898677,33.3269841 C220.898677,32.7009524 221.346785,32.2664127 221.985185,32.0491429 C221.638975,31.8195979 221.473237,31.5888254 221.473237,31.1420106 C221.473237,30.6190899 221.819446,30.2348783 222.355948,30.018836 C221.677034,29.7119577 221.26944,29.1239788 221.26944,28.2168466 C221.26944,26.8764021 222.292108,26.1349841 223.696588,26.1349841 L223.696588,26.1349841 Z M222.637089,32.2283598 C222.214763,32.4198519 221.985185,32.7132275 221.985185,33.1477672 C221.985185,33.9014603 222.585526,34.2721693 223.799714,34.2721693 C225.216471,34.2721693 225.7542,33.6719153 225.7542,33.1097143 C225.7542,32.3940741 225.205422,32.2283598 224.476172,32.2283598 L222.637089,32.2283598 L222.637089,32.2283598 Z M223.696588,26.9267302 C222.930508,26.9267302 222.41856,27.3612698 222.41856,28.1910688 C222.41856,29.0736508 222.944012,29.4824127 223.696588,29.4824127 C224.463895,29.4824127 224.974615,29.0736508 224.974615,28.2426243 C224.974615,27.3489947 224.463895,26.9267302 223.696588,26.9267302 L223.696588,26.9267302 Z" id="Fill-76" fill="#4D4D4C" sketch:type="MSShapeGroup"></path>
            <path d="M233.375714,29.3547513 L229.070197,29.3547513 L229.070197,29.4050794 C229.070197,30.7332487 229.849782,31.4746667 231.089751,31.4746667 C231.726923,31.4746667 232.187308,31.3850582 232.775372,31.1420106 L233.004951,31.973037 C232.506508,32.1903069 231.804268,32.343746 231.050465,32.343746 C229.325557,32.343746 227.895295,31.410836 227.895295,29.2393651 C227.895295,27.3612698 229.043188,26.1349841 230.84544,26.1349841 C232.378828,26.1349841 233.375714,27.1955556 233.375714,28.7667725 L233.375714,29.3547513 L233.375714,29.3547513 Z M232.214317,28.5495026 C232.214317,27.6681481 231.791991,26.9525079 230.782828,26.9525079 C229.849782,26.9525079 229.235935,27.6165926 229.095978,28.5752804 L232.214317,28.5495026 L232.214317,28.5495026 Z" id="Fill-77" fill="#4D4D4C" sketch:type="MSShapeGroup"></path>
            <path d="M238.072865,27.3489947 C237.510582,27.0801693 237.075978,26.9905608 236.615594,26.9905608 C235.810228,26.9905608 235.414911,27.3097143 235.414911,27.8080847 C235.414911,28.1665185 235.606431,28.4095661 236.475637,28.6648889 L236.858677,28.7790476 C237.99552,29.1117037 238.597089,29.6100741 238.597089,30.5294815 C238.597089,31.6146032 237.74016,32.343746 236.297622,32.343746 C235.530314,32.343746 234.788788,32.202582 234.278068,31.9595344 L234.546932,31.0781799 C235.030643,31.3212275 235.63344,31.4746667 236.232554,31.4746667 C236.986357,31.4746667 237.4848,31.2193439 237.4848,30.5933122 C237.4848,30.0568889 237.075978,29.8911746 236.347957,29.6739048 L235.951412,29.5450159 C234.853855,29.1878095 234.316126,28.677164 234.316126,27.8338624 C234.316126,26.7990688 235.235668,26.1349841 236.489142,26.1349841 C237.075978,26.1349841 237.752437,26.2368677 238.328225,26.493418 L238.072865,27.3489947" id="Fill-78" fill="#4D4D4C" sketch:type="MSShapeGroup"></path>
        </g>
    </g>
</svg>